%TF.GenerationSoftware,KiCad,Pcbnew,6.0.11-2627ca5db0~126~ubuntu20.04.1*%
%TF.CreationDate,2023-09-03T18:12:03+02:00*%
%TF.ProjectId,sboxnet-modul,73626f78-6e65-4742-9d6d-6f64756c2e6b,rev?*%
%TF.SameCoordinates,Original*%
%TF.FileFunction,Copper,L1,Top*%
%TF.FilePolarity,Positive*%
%FSLAX46Y46*%
G04 Gerber Fmt 4.6, Leading zero omitted, Abs format (unit mm)*
G04 Created by KiCad (PCBNEW 6.0.11-2627ca5db0~126~ubuntu20.04.1) date 2023-09-03 18:12:03*
%MOMM*%
%LPD*%
G01*
G04 APERTURE LIST*
G04 Aperture macros list*
%AMRoundRect*
0 Rectangle with rounded corners*
0 $1 Rounding radius*
0 $2 $3 $4 $5 $6 $7 $8 $9 X,Y pos of 4 corners*
0 Add a 4 corners polygon primitive as box body*
4,1,4,$2,$3,$4,$5,$6,$7,$8,$9,$2,$3,0*
0 Add four circle primitives for the rounded corners*
1,1,$1+$1,$2,$3*
1,1,$1+$1,$4,$5*
1,1,$1+$1,$6,$7*
1,1,$1+$1,$8,$9*
0 Add four rect primitives between the rounded corners*
20,1,$1+$1,$2,$3,$4,$5,0*
20,1,$1+$1,$4,$5,$6,$7,0*
20,1,$1+$1,$6,$7,$8,$9,0*
20,1,$1+$1,$8,$9,$2,$3,0*%
%AMRotRect*
0 Rectangle, with rotation*
0 The origin of the aperture is its center*
0 $1 length*
0 $2 width*
0 $3 Rotation angle, in degrees counterclockwise*
0 Add horizontal line*
21,1,$1,$2,0,0,$3*%
G04 Aperture macros list end*
%ADD10C,0.100000*%
%TA.AperFunction,NonConductor*%
%ADD11C,0.100000*%
%TD*%
%TA.AperFunction,ComponentPad*%
%ADD12C,1.524000*%
%TD*%
%TA.AperFunction,ComponentPad*%
%ADD13R,1.524000X1.524000*%
%TD*%
%TA.AperFunction,SMDPad,CuDef*%
%ADD14R,2.000000X1.500000*%
%TD*%
%TA.AperFunction,SMDPad,CuDef*%
%ADD15R,2.000000X3.800000*%
%TD*%
%TA.AperFunction,ComponentPad*%
%ADD16C,2.000000*%
%TD*%
%TA.AperFunction,SMDPad,CuDef*%
%ADD17RotRect,1.500000X0.550000X315.000000*%
%TD*%
%TA.AperFunction,SMDPad,CuDef*%
%ADD18RotRect,1.500000X0.550000X45.000000*%
%TD*%
%TA.AperFunction,SMDPad,CuDef*%
%ADD19RoundRect,0.250001X-0.624999X0.462499X-0.624999X-0.462499X0.624999X-0.462499X0.624999X0.462499X0*%
%TD*%
%TA.AperFunction,SMDPad,CuDef*%
%ADD20RoundRect,0.250001X-0.462499X-0.624999X0.462499X-0.624999X0.462499X0.624999X-0.462499X0.624999X0*%
%TD*%
%TA.AperFunction,SMDPad,CuDef*%
%ADD21RoundRect,0.250000X0.650000X-0.412500X0.650000X0.412500X-0.650000X0.412500X-0.650000X-0.412500X0*%
%TD*%
%TA.AperFunction,ComponentPad*%
%ADD22C,1.500000*%
%TD*%
%TA.AperFunction,SMDPad,CuDef*%
%ADD23RoundRect,0.250000X0.400000X0.625000X-0.400000X0.625000X-0.400000X-0.625000X0.400000X-0.625000X0*%
%TD*%
%TA.AperFunction,SMDPad,CuDef*%
%ADD24RoundRect,0.150000X-0.150000X0.825000X-0.150000X-0.825000X0.150000X-0.825000X0.150000X0.825000X0*%
%TD*%
%TA.AperFunction,ViaPad*%
%ADD25C,0.800000*%
%TD*%
%TA.AperFunction,Conductor*%
%ADD26C,0.250000*%
%TD*%
G04 APERTURE END LIST*
D10*
D11*
X119788323Y-118327161D02*
X119883561Y-118374780D01*
X120074038Y-118374780D01*
X120169276Y-118327161D01*
X120216895Y-118231923D01*
X120216895Y-118184304D01*
X120169276Y-118089066D01*
X120074038Y-118041447D01*
X119931180Y-118041447D01*
X119835942Y-117993828D01*
X119788323Y-117898590D01*
X119788323Y-117850971D01*
X119835942Y-117755733D01*
X119931180Y-117708114D01*
X120074038Y-117708114D01*
X120169276Y-117755733D01*
X120645466Y-118374780D02*
X120645466Y-117374780D01*
X120645466Y-117755733D02*
X120740704Y-117708114D01*
X120931180Y-117708114D01*
X121026419Y-117755733D01*
X121074038Y-117803352D01*
X121121657Y-117898590D01*
X121121657Y-118184304D01*
X121074038Y-118279542D01*
X121026419Y-118327161D01*
X120931180Y-118374780D01*
X120740704Y-118374780D01*
X120645466Y-118327161D01*
X121693085Y-118374780D02*
X121597847Y-118327161D01*
X121550228Y-118279542D01*
X121502609Y-118184304D01*
X121502609Y-117898590D01*
X121550228Y-117803352D01*
X121597847Y-117755733D01*
X121693085Y-117708114D01*
X121835942Y-117708114D01*
X121931180Y-117755733D01*
X121978800Y-117803352D01*
X122026419Y-117898590D01*
X122026419Y-118184304D01*
X121978800Y-118279542D01*
X121931180Y-118327161D01*
X121835942Y-118374780D01*
X121693085Y-118374780D01*
X122359752Y-118374780D02*
X122883561Y-117708114D01*
X122359752Y-117708114D02*
X122883561Y-118374780D01*
X123264514Y-117708114D02*
X123264514Y-118374780D01*
X123264514Y-117803352D02*
X123312133Y-117755733D01*
X123407371Y-117708114D01*
X123550228Y-117708114D01*
X123645466Y-117755733D01*
X123693085Y-117850971D01*
X123693085Y-118374780D01*
X124550228Y-118327161D02*
X124454990Y-118374780D01*
X124264514Y-118374780D01*
X124169276Y-118327161D01*
X124121657Y-118231923D01*
X124121657Y-117850971D01*
X124169276Y-117755733D01*
X124264514Y-117708114D01*
X124454990Y-117708114D01*
X124550228Y-117755733D01*
X124597847Y-117850971D01*
X124597847Y-117946209D01*
X124121657Y-118041447D01*
X124883561Y-117708114D02*
X125264514Y-117708114D01*
X125026419Y-117374780D02*
X125026419Y-118231923D01*
X125074038Y-118327161D01*
X125169276Y-118374780D01*
X125264514Y-118374780D01*
X120526419Y-119984780D02*
X120526419Y-118984780D01*
X120859752Y-119699066D01*
X121193085Y-118984780D01*
X121193085Y-119984780D01*
X121812133Y-119984780D02*
X121716895Y-119937161D01*
X121669276Y-119889542D01*
X121621657Y-119794304D01*
X121621657Y-119508590D01*
X121669276Y-119413352D01*
X121716895Y-119365733D01*
X121812133Y-119318114D01*
X121954990Y-119318114D01*
X122050228Y-119365733D01*
X122097847Y-119413352D01*
X122145466Y-119508590D01*
X122145466Y-119794304D01*
X122097847Y-119889542D01*
X122050228Y-119937161D01*
X121954990Y-119984780D01*
X121812133Y-119984780D01*
X123002609Y-119984780D02*
X123002609Y-118984780D01*
X123002609Y-119937161D02*
X122907371Y-119984780D01*
X122716895Y-119984780D01*
X122621657Y-119937161D01*
X122574038Y-119889542D01*
X122526419Y-119794304D01*
X122526419Y-119508590D01*
X122574038Y-119413352D01*
X122621657Y-119365733D01*
X122716895Y-119318114D01*
X122907371Y-119318114D01*
X123002609Y-119365733D01*
X123907371Y-119318114D02*
X123907371Y-119984780D01*
X123478800Y-119318114D02*
X123478800Y-119841923D01*
X123526419Y-119937161D01*
X123621657Y-119984780D01*
X123764514Y-119984780D01*
X123859752Y-119937161D01*
X123907371Y-119889542D01*
X124526419Y-119984780D02*
X124431180Y-119937161D01*
X124383561Y-119841923D01*
X124383561Y-118984780D01*
X121669276Y-120594780D02*
X122002609Y-121594780D01*
X122335942Y-120594780D01*
X123097847Y-120594780D02*
X122907371Y-120594780D01*
X122812133Y-120642400D01*
X122764514Y-120690019D01*
X122669276Y-120832876D01*
X122621657Y-121023352D01*
X122621657Y-121404304D01*
X122669276Y-121499542D01*
X122716895Y-121547161D01*
X122812133Y-121594780D01*
X123002609Y-121594780D01*
X123097847Y-121547161D01*
X123145466Y-121499542D01*
X123193085Y-121404304D01*
X123193085Y-121166209D01*
X123145466Y-121070971D01*
X123097847Y-121023352D01*
X123002609Y-120975733D01*
X122812133Y-120975733D01*
X122716895Y-121023352D01*
X122669276Y-121070971D01*
X122621657Y-121166209D01*
D12*
X80010000Y-78010000D03*
D13*
X77470000Y-78010000D03*
D12*
X80010000Y-80550000D03*
X77470000Y-80550000D03*
X80010000Y-83090000D03*
X77470000Y-83090000D03*
X80010000Y-85630000D03*
X77470000Y-85630000D03*
X80010000Y-88170000D03*
X77470000Y-88170000D03*
X80010000Y-90710000D03*
X77470000Y-90710000D03*
X80010000Y-93250000D03*
X77470000Y-93250000D03*
X80010000Y-95790000D03*
X77470000Y-95790000D03*
X80010000Y-98330000D03*
X77470000Y-98330000D03*
X80010000Y-100870000D03*
X77470000Y-100870000D03*
X80010000Y-103410000D03*
X77470000Y-103410000D03*
X80010000Y-105950000D03*
X77470000Y-105950000D03*
X80010000Y-108490000D03*
X77470000Y-108490000D03*
X80010000Y-111030000D03*
X77470000Y-111030000D03*
X80010000Y-113570000D03*
X77470000Y-113570000D03*
X80010000Y-116110000D03*
X77470000Y-116110000D03*
X80010000Y-118650000D03*
X77470000Y-118650000D03*
X100100000Y-110780000D03*
X102640000Y-110780000D03*
X100100000Y-113320000D03*
X102640000Y-113320000D03*
X100100000Y-115860000D03*
D13*
X102640000Y-115860000D03*
D14*
X88290000Y-78980000D03*
X88290000Y-81280000D03*
D15*
X94590000Y-81280000D03*
D14*
X88290000Y-83580000D03*
D13*
X110490000Y-108580000D03*
D12*
X107950000Y-107310000D03*
X110490000Y-106040000D03*
X107950000Y-104770000D03*
X110490000Y-103500000D03*
X107950000Y-102235000D03*
X110490000Y-100960000D03*
X107950000Y-99695000D03*
D13*
X110490000Y-88260000D03*
D12*
X107950000Y-86990000D03*
X110490000Y-85720000D03*
X107950000Y-84450000D03*
X110490000Y-83180000D03*
X107950000Y-81915000D03*
X110490000Y-80640000D03*
X107950000Y-79375000D03*
D16*
X88977400Y-115961600D03*
X95477400Y-115961600D03*
X95477400Y-120461600D03*
X88977400Y-120461600D03*
D17*
X91507918Y-92201064D03*
X90942233Y-92766750D03*
X90376548Y-93332435D03*
X89810862Y-93898120D03*
X89245177Y-94463806D03*
X88679491Y-95029491D03*
X88113806Y-95595177D03*
X87548120Y-96160862D03*
X86982435Y-96726548D03*
X86416750Y-97292233D03*
X85851064Y-97857918D03*
D18*
X85851064Y-100262082D03*
X86416750Y-100827767D03*
X86982435Y-101393452D03*
X87548120Y-101959138D03*
X88113806Y-102524823D03*
X88679491Y-103090509D03*
X89245177Y-103656194D03*
X89810862Y-104221880D03*
X90376548Y-104787565D03*
X90942233Y-105353250D03*
X91507918Y-105918936D03*
D17*
X93912082Y-105918936D03*
X94477767Y-105353250D03*
X95043452Y-104787565D03*
X95609138Y-104221880D03*
X96174823Y-103656194D03*
X96740509Y-103090509D03*
X97306194Y-102524823D03*
X97871880Y-101959138D03*
X98437565Y-101393452D03*
X99003250Y-100827767D03*
X99568936Y-100262082D03*
D18*
X99568936Y-97857918D03*
X99003250Y-97292233D03*
X98437565Y-96726548D03*
X97871880Y-96160862D03*
X97306194Y-95595177D03*
X96740509Y-95029491D03*
X96174823Y-94463806D03*
X95609138Y-93898120D03*
X95043452Y-93332435D03*
X94477767Y-92766750D03*
X93912082Y-92201064D03*
D19*
X83870800Y-117689300D03*
X83870800Y-120664300D03*
D20*
X99274300Y-81661000D03*
X102249300Y-81661000D03*
D21*
X85090000Y-82931000D03*
X85090000Y-79806000D03*
D22*
X98597589Y-87167589D03*
X102048270Y-90618270D03*
D20*
X99274300Y-79298800D03*
X102249300Y-79298800D03*
D23*
X117400001Y-114300000D03*
X114300001Y-114300000D03*
D19*
X86385400Y-117689300D03*
X86385400Y-120664300D03*
D23*
X118390000Y-119380000D03*
X115290000Y-119380000D03*
D24*
X112293400Y-114415800D03*
X111023400Y-114415800D03*
X109753400Y-114415800D03*
X108483400Y-114415800D03*
X108483400Y-119365800D03*
X109753400Y-119365800D03*
X111023400Y-119365800D03*
X112293400Y-119365800D03*
D25*
X104241600Y-88036400D03*
X99847400Y-78257400D03*
X85045750Y-79673250D03*
X90450000Y-96610000D03*
X91643200Y-81280000D03*
X101511146Y-95592854D03*
X94488000Y-102870000D03*
X89408000Y-100330000D03*
X90275146Y-101605146D03*
X107645200Y-91465400D03*
X92964000Y-98298000D03*
X92710000Y-94742000D03*
X94970600Y-85902800D03*
X95625146Y-101074854D03*
X94234000Y-99314000D03*
X88442800Y-78841600D03*
X102362000Y-81737200D03*
X86461600Y-117729000D03*
X85090000Y-95123000D03*
X97834854Y-98865146D03*
X92484854Y-103814854D03*
X88240292Y-98819708D03*
X85090000Y-82931000D03*
X106235500Y-117081300D03*
X88290000Y-83580000D03*
X83947000Y-117729000D03*
X102387400Y-79197200D03*
X103886000Y-106578400D03*
X104622600Y-108839000D03*
X115239800Y-119380000D03*
X101879400Y-118364000D03*
X105816400Y-109677200D03*
X105562400Y-106756200D03*
X112903000Y-88011000D03*
X111023400Y-117246400D03*
X113004600Y-108991400D03*
X108915200Y-117500400D03*
X99174300Y-93332300D03*
X109042200Y-111607600D03*
X111556800Y-111531400D03*
X105918000Y-114071400D03*
X101117400Y-108458000D03*
X113385600Y-117906800D03*
X114173000Y-114427000D03*
X97434400Y-108000800D03*
X98475800Y-108102400D03*
D26*
X101511146Y-95796146D02*
X107950000Y-102235000D01*
X115596601Y-116103400D02*
X112334928Y-116103400D01*
X89245177Y-103656194D02*
X90275146Y-102626225D01*
X111099600Y-112801400D02*
X111099600Y-114339600D01*
X94590000Y-81280000D02*
X91643200Y-81280000D01*
X91643200Y-81280000D02*
X88290000Y-81280000D01*
X88290000Y-81280000D02*
X86652500Y-81280000D01*
X107645200Y-91465400D02*
X107645200Y-91104800D01*
X98755200Y-81280000D02*
X98842500Y-81367300D01*
X96987596Y-101074854D02*
X97871880Y-101959138D01*
X110972600Y-112674400D02*
X111099600Y-112801400D01*
X111023400Y-114791872D02*
X111023400Y-114415800D01*
X99274300Y-81661000D02*
X99274300Y-81788200D01*
X99274300Y-81788200D02*
X98842500Y-82220000D01*
X110490000Y-112420400D02*
X110744000Y-112674400D01*
X109372400Y-103657400D02*
X107950000Y-102235000D01*
X98842500Y-82220000D02*
X98842500Y-81367300D01*
X95625146Y-101074854D02*
X96987596Y-101074854D01*
X98842500Y-81367300D02*
X98842500Y-80010000D01*
X112334928Y-116103400D02*
X111023400Y-114791872D01*
X111099600Y-114339600D02*
X111023400Y-114415800D01*
X88967258Y-97580000D02*
X87548120Y-96160862D01*
X94590000Y-81280000D02*
X94590000Y-85522200D01*
X98842500Y-79262300D02*
X99822000Y-78282800D01*
X90275146Y-102626225D02*
X90275146Y-101605146D01*
X107645200Y-91104800D02*
X110490000Y-88260000D01*
X94590000Y-81280000D02*
X98755200Y-81280000D01*
X110490000Y-108580000D02*
X110490000Y-108313440D01*
X117400001Y-114300000D02*
X115596601Y-116103400D01*
X109372400Y-107195840D02*
X109372400Y-103657400D01*
X97306194Y-95595177D02*
X96291371Y-96610000D01*
X89480000Y-97580000D02*
X88967258Y-97580000D01*
X98842500Y-80010000D02*
X98842500Y-79262300D01*
X99274300Y-81661000D02*
X99274300Y-83069100D01*
X102640000Y-115860000D02*
X105825600Y-112674400D01*
X90450000Y-96610000D02*
X89480000Y-97580000D01*
X110490000Y-108313440D02*
X109372400Y-107195840D01*
X105825600Y-112674400D02*
X110744000Y-112674400D01*
X99274300Y-83069100D02*
X104241600Y-88036400D01*
X110744000Y-112674400D02*
X110972600Y-112674400D01*
X101511146Y-95592854D02*
X101511146Y-95796146D01*
X86652500Y-81280000D02*
X85090000Y-79717500D01*
X110490000Y-108580000D02*
X110490000Y-112420400D01*
X96291371Y-96610000D02*
X90450000Y-96610000D01*
X94590000Y-85522200D02*
X94970600Y-85902800D01*
X81457800Y-78257400D02*
X87592800Y-78282800D01*
X81483200Y-79171800D02*
X81457800Y-78257400D01*
X77470000Y-80550000D02*
X78873600Y-79146400D01*
X87592800Y-78282800D02*
X88290000Y-78980000D01*
X78873600Y-79146400D02*
X81483200Y-79171800D01*
X110490000Y-97409000D02*
X114579400Y-93319600D01*
X114579400Y-84729400D02*
X110490000Y-80640000D01*
X110490000Y-100960000D02*
X110490000Y-97409000D01*
X114579400Y-93319600D02*
X114579400Y-84729400D01*
X107950000Y-99695000D02*
X105816400Y-97561400D01*
X106781600Y-79375000D02*
X107950000Y-79375000D01*
X105816400Y-97561400D02*
X105816400Y-80340200D01*
X105816400Y-80340200D02*
X106781600Y-79375000D01*
X80617918Y-100262082D02*
X80010000Y-100870000D01*
X85851064Y-100262082D02*
X80617918Y-100262082D01*
X82524600Y-95885000D02*
X80975200Y-97434400D01*
X80975200Y-97434400D02*
X80905600Y-97434400D01*
X86416750Y-97292233D02*
X85009517Y-95885000D01*
X85009517Y-95885000D02*
X82524600Y-95885000D01*
X80905600Y-97434400D02*
X80010000Y-98330000D01*
X82804000Y-84201000D02*
X81693000Y-83090000D01*
X98628200Y-91389200D02*
X92379800Y-85140800D01*
X98628200Y-92024200D02*
X98628200Y-91389200D01*
X81693000Y-83090000D02*
X80010000Y-83090000D01*
X96174823Y-94463806D02*
X96188594Y-94463806D01*
X96188594Y-94463806D02*
X98628200Y-92024200D01*
X85877400Y-85140800D02*
X84937600Y-84201000D01*
X84937600Y-84201000D02*
X82804000Y-84201000D01*
X92379800Y-85140800D02*
X85877400Y-85140800D01*
X95059365Y-93332435D02*
X97179682Y-91212118D01*
X92167843Y-86200279D02*
X80580279Y-86200279D01*
X97179682Y-91212118D02*
X92167843Y-86200279D01*
X95043452Y-93332435D02*
X95059365Y-93332435D01*
X80580279Y-86200279D02*
X80010000Y-85630000D01*
X90942233Y-92766750D02*
X88885483Y-90710000D01*
X88885483Y-90710000D02*
X80010000Y-90710000D01*
X80538236Y-95790000D02*
X80010000Y-95790000D01*
X83820156Y-92508080D02*
X80538236Y-95790000D01*
X86158080Y-92508080D02*
X83820156Y-92508080D01*
X88679491Y-95029491D02*
X86158080Y-92508080D01*
X93912082Y-92201064D02*
X93912082Y-92193718D01*
X81055916Y-88170000D02*
X80010000Y-88170000D01*
X82089781Y-87136136D02*
X81055916Y-88170000D01*
X93912082Y-92193718D02*
X95400964Y-90704836D01*
X91832264Y-87136136D02*
X82089781Y-87136136D01*
X95400964Y-90704836D02*
X91832264Y-87136136D01*
X87521782Y-91609040D02*
X83413600Y-91609040D01*
X83413600Y-91609040D02*
X82092800Y-92929840D01*
X89810862Y-93898120D02*
X87521782Y-91609040D01*
X82092800Y-92964000D02*
X81806800Y-93250000D01*
X82092800Y-92929840D02*
X82092800Y-92964000D01*
X81806800Y-93250000D02*
X80010000Y-93250000D01*
X86972948Y-101393452D02*
X84956400Y-103410000D01*
X84956400Y-103410000D02*
X80010000Y-103410000D01*
X86982435Y-101393452D02*
X86972948Y-101393452D01*
X88113806Y-102524823D02*
X88113806Y-102538594D01*
X84702400Y-105950000D02*
X80010000Y-105950000D01*
X88113806Y-102538594D02*
X84702400Y-105950000D01*
X94477767Y-105353250D02*
X94477767Y-105374367D01*
X89712800Y-112344200D02*
X82194400Y-112344200D01*
X82194400Y-112344200D02*
X80968600Y-113570000D01*
X95580200Y-106476800D02*
X89712800Y-112344200D01*
X80968600Y-113570000D02*
X80010000Y-113570000D01*
X94477767Y-105374367D02*
X95580200Y-106476800D01*
X81051400Y-114985800D02*
X81051400Y-115068600D01*
X95609138Y-104270538D02*
X96613920Y-105275320D01*
X96613920Y-106714516D02*
X89975915Y-113352520D01*
X96613920Y-105275320D02*
X96613920Y-106714516D01*
X95609138Y-104221880D02*
X95609138Y-104270538D01*
X89975915Y-113352520D02*
X82684680Y-113352520D01*
X81051400Y-115068600D02*
X80010000Y-116110000D01*
X82684680Y-113352520D02*
X81051400Y-114985800D01*
X90376548Y-104787565D02*
X90376548Y-104797052D01*
X86683600Y-108490000D02*
X80010000Y-108490000D01*
X90376548Y-104797052D02*
X86683600Y-108490000D01*
X91507918Y-105918936D02*
X91464464Y-105918936D01*
X86353400Y-111030000D02*
X80010000Y-111030000D01*
X91464464Y-105918936D02*
X86353400Y-111030000D01*
X80269960Y-84353400D02*
X78733400Y-84353400D01*
X78733400Y-84353400D02*
X77470000Y-83090000D01*
X85851641Y-85750759D02*
X84751403Y-84650520D01*
X84751403Y-84650520D02*
X80567080Y-84650520D01*
X95609138Y-93898120D02*
X95611280Y-93898120D01*
X80567080Y-84650520D02*
X80269960Y-84353400D01*
X97891600Y-91617800D02*
X97891600Y-91288318D01*
X92354041Y-85750759D02*
X85851641Y-85750759D01*
X95611280Y-93898120D02*
X97891600Y-91617800D01*
X97891600Y-91288318D02*
X92354041Y-85750759D01*
X81873688Y-86716511D02*
X78556511Y-86716511D01*
X78556511Y-86716511D02*
X77470000Y-85630000D01*
X94477767Y-92766750D02*
X94482050Y-92766750D01*
X81940400Y-86649799D02*
X81873688Y-86716511D01*
X94482050Y-92766750D02*
X96290323Y-90958477D01*
X96290323Y-90958477D02*
X91981645Y-86649799D01*
X91981645Y-86649799D02*
X81940400Y-86649799D01*
X78708000Y-89408000D02*
X77470000Y-88170000D01*
X91507918Y-92201064D02*
X88714854Y-89408000D01*
X88714854Y-89408000D02*
X78708000Y-89408000D01*
X88203634Y-91159520D02*
X81584800Y-91159520D01*
X78841600Y-92081600D02*
X77470000Y-90710000D01*
X78841600Y-92125800D02*
X78841600Y-92081600D01*
X90376548Y-93332435D02*
X89288957Y-92244843D01*
X80618520Y-92125800D02*
X78841600Y-92125800D01*
X81584800Y-91159520D02*
X80618520Y-92125800D01*
X89288957Y-92244843D02*
X88203634Y-91159520D01*
X81229918Y-94462600D02*
X78257400Y-94462600D01*
X78257400Y-94462600D02*
X78257400Y-94037400D01*
X83633958Y-92058560D02*
X81229918Y-94462600D01*
X89245177Y-94463806D02*
X86839931Y-92058560D01*
X86839931Y-92058560D02*
X83633958Y-92058560D01*
X78257400Y-94037400D02*
X77470000Y-93250000D01*
X78587600Y-96951800D02*
X78587600Y-96907600D01*
X81789077Y-95547483D02*
X80384760Y-96951800D01*
X80384760Y-96951800D02*
X78587600Y-96951800D01*
X78587600Y-96907600D02*
X77470000Y-95790000D01*
X85496400Y-92964000D02*
X83999954Y-92964000D01*
X81789077Y-95174877D02*
X81789077Y-95547483D01*
X88113806Y-95581406D02*
X85496400Y-92964000D01*
X83999954Y-92964000D02*
X81789077Y-95174877D01*
X88113806Y-95595177D02*
X88113806Y-95581406D01*
X83508960Y-96367600D02*
X80308560Y-99568000D01*
X85851064Y-97857918D02*
X85851064Y-97839864D01*
X85851064Y-97839864D02*
X84378800Y-96367600D01*
X80308560Y-99568000D02*
X78708000Y-99568000D01*
X84378800Y-96367600D02*
X83508960Y-96367600D01*
X78708000Y-99568000D02*
X77470000Y-98330000D01*
X78682600Y-102082600D02*
X77470000Y-100870000D01*
X86416750Y-100827767D02*
X86370233Y-100827767D01*
X85115400Y-102082600D02*
X78682600Y-102082600D01*
X86370233Y-100827767D02*
X85115400Y-102082600D01*
X78790800Y-104749600D02*
X78790800Y-104730800D01*
X87548120Y-101959138D02*
X87524862Y-101959138D01*
X84734400Y-104749600D02*
X78790800Y-104749600D01*
X87524862Y-101959138D02*
X84734400Y-104749600D01*
X78790800Y-104730800D02*
X77470000Y-103410000D01*
X84582000Y-107188000D02*
X78708000Y-107188000D01*
X88679491Y-103090509D02*
X84582000Y-107188000D01*
X78708000Y-107188000D02*
X77470000Y-105950000D01*
X78708000Y-109728000D02*
X77470000Y-108490000D01*
X90942233Y-105353250D02*
X90912550Y-105353250D01*
X86537800Y-109728000D02*
X78708000Y-109728000D01*
X90912550Y-105353250D02*
X86537800Y-109728000D01*
X81483200Y-112191800D02*
X78631800Y-112191800D01*
X81838800Y-111836200D02*
X81483200Y-112191800D01*
X87994818Y-111836200D02*
X81838800Y-111836200D01*
X78631800Y-112191800D02*
X77470000Y-111030000D01*
X93912082Y-105918936D02*
X87994818Y-111836200D01*
X95043452Y-104787565D02*
X95059365Y-104787565D01*
X89789718Y-112903000D02*
X82448400Y-112903000D01*
X95059365Y-104787565D02*
X96164400Y-105892600D01*
X96164400Y-106528318D02*
X89789718Y-112903000D01*
X96164400Y-105892600D02*
X96164400Y-106528318D01*
X82448400Y-112903000D02*
X80467200Y-114884200D01*
X80467200Y-114884200D02*
X78784200Y-114884200D01*
X78784200Y-114884200D02*
X77470000Y-113570000D01*
X97249586Y-104730957D02*
X96174823Y-103656194D01*
X80873600Y-117348000D02*
X81096511Y-117125089D01*
X81096511Y-117125089D02*
X81096511Y-116185289D01*
X78587600Y-117246400D02*
X78689200Y-117348000D01*
X81096511Y-116185289D02*
X83479760Y-113802040D01*
X97249586Y-106839414D02*
X97249586Y-104730957D01*
X77470000Y-116110000D02*
X78587600Y-117227600D01*
X78587600Y-117227600D02*
X78587600Y-117246400D01*
X83479760Y-113802040D02*
X90286960Y-113802040D01*
X90286960Y-113802040D02*
X97249586Y-106839414D01*
X78689200Y-117348000D02*
X80873600Y-117348000D01*
X96809549Y-98865146D02*
X97834854Y-98865146D01*
X86982435Y-96726548D02*
X88240292Y-97984405D01*
X88240292Y-98819708D02*
X89529708Y-98819708D01*
X110058200Y-116052600D02*
X110854214Y-116052600D01*
X98437565Y-101393452D02*
X98343452Y-101393452D01*
X118390000Y-116688200D02*
X118390000Y-119380000D01*
X98806000Y-111988600D02*
X101431400Y-111988600D01*
X82709000Y-80550000D02*
X85090000Y-82931000D01*
X98704400Y-111887000D02*
X98806000Y-111988600D01*
X90551000Y-103481742D02*
X89810862Y-104221880D01*
X92484854Y-101774854D02*
X92484854Y-103814854D01*
X100304600Y-103227974D02*
X100304600Y-109016800D01*
X101431400Y-111988600D02*
X102640000Y-110780000D01*
X100304600Y-109016800D02*
X100101400Y-109220000D01*
X98523252Y-101393452D02*
X99618800Y-102489000D01*
X107264200Y-116052600D02*
X110058200Y-116052600D01*
X87912611Y-119137089D02*
X104179711Y-119137089D01*
X85739000Y-83580000D02*
X88290000Y-83580000D01*
X106235500Y-117081300D02*
X107264200Y-116052600D01*
X92484854Y-101774854D02*
X93899841Y-101774854D01*
X90551000Y-103481742D02*
X92151742Y-103481742D01*
X111438414Y-116636800D02*
X118338600Y-116636800D01*
X99618800Y-102542174D02*
X100304600Y-103227974D01*
X99618800Y-102489000D02*
X99618800Y-102542174D01*
X98704400Y-109220000D02*
X98704400Y-111887000D01*
X110058200Y-114720600D02*
X109753400Y-114415800D01*
X118338600Y-116636800D02*
X118390000Y-116688200D01*
X85090000Y-82931000D02*
X85739000Y-83580000D01*
X110854214Y-116052600D02*
X111438414Y-116636800D01*
X110058200Y-116052600D02*
X110058200Y-114720600D01*
X80010000Y-80550000D02*
X82709000Y-80550000D01*
X88240292Y-97984405D02*
X88240292Y-98819708D01*
X92151742Y-103481742D02*
X92484854Y-103814854D01*
X98437565Y-101393452D02*
X98523252Y-101393452D01*
X85378887Y-95123000D02*
X86982435Y-96726548D01*
X86385400Y-120664300D02*
X87912611Y-119137089D01*
X97834854Y-100884854D02*
X97834854Y-98865146D01*
X104179711Y-119137089D02*
X106235500Y-117081300D01*
X85090000Y-95123000D02*
X85378887Y-95123000D01*
X100101400Y-109220000D02*
X98704400Y-109220000D01*
X98343452Y-101393452D02*
X97834854Y-100884854D01*
X83870800Y-120664300D02*
X86385400Y-120664300D01*
X93899841Y-101774854D02*
X96809549Y-98865146D01*
X89529708Y-98819708D02*
X92484854Y-101774854D01*
X101041200Y-99330182D02*
X99568936Y-97857918D01*
X102041000Y-108839000D02*
X104622600Y-108839000D01*
X101057382Y-99330182D02*
X101041200Y-99330182D01*
X100100000Y-110780000D02*
X102041000Y-108839000D01*
X102717600Y-105587800D02*
X102717600Y-100990400D01*
X102717600Y-100990400D02*
X101057382Y-99330182D01*
X103886000Y-106578400D02*
X102717600Y-105587800D01*
X101879400Y-117639400D02*
X100100000Y-115860000D01*
X101879400Y-118364000D02*
X101879400Y-117639400D01*
X105816400Y-112047882D02*
X103394941Y-114469341D01*
X101616319Y-114469341D02*
X101553489Y-114406511D01*
X101553489Y-114406511D02*
X100100000Y-115860000D01*
X103394941Y-114469341D02*
X101616319Y-114469341D01*
X99486869Y-96808614D02*
X100161414Y-96808614D01*
X105562400Y-102209600D02*
X105562400Y-106756200D01*
X105816400Y-109677200D02*
X105816400Y-112047882D01*
X100161414Y-96808614D02*
X105562400Y-102209600D01*
X99003250Y-97292233D02*
X99486869Y-96808614D01*
X112903000Y-104419400D02*
X111983600Y-103500000D01*
X111023400Y-119365800D02*
X111023400Y-117246400D01*
X112903000Y-88011000D02*
X112903000Y-85593000D01*
X113004600Y-108991400D02*
X112903000Y-108889800D01*
X111983600Y-103500000D02*
X110490000Y-103500000D01*
X112903000Y-85593000D02*
X110490000Y-83180000D01*
X112903000Y-108889800D02*
X112903000Y-104419400D01*
X109753400Y-118338600D02*
X108915200Y-117500400D01*
X109753400Y-119365800D02*
X109753400Y-118338600D01*
X99220080Y-93378080D02*
X99174300Y-93332300D01*
X99220080Y-93675200D02*
X99220080Y-93378080D01*
X96740509Y-95029491D02*
X98094800Y-93675200D01*
X98094800Y-93675200D02*
X99220080Y-93675200D01*
X112293400Y-112268000D02*
X112293400Y-114415800D01*
X111556800Y-111531400D02*
X112293400Y-112268000D01*
X101854000Y-102641400D02*
X101828600Y-106603800D01*
X99568936Y-100262082D02*
X101854000Y-102641400D01*
X107645200Y-109169200D02*
X109042200Y-111607600D01*
X101828600Y-106603800D02*
X107645200Y-109169200D01*
X101117400Y-108458000D02*
X101092000Y-108254800D01*
X106922800Y-114415800D02*
X105918000Y-114071400D01*
X101219000Y-102971600D02*
X99003250Y-100827767D01*
X108483400Y-114415800D02*
X106922800Y-114415800D01*
X101092000Y-108254800D02*
X101219000Y-102971600D01*
X112293400Y-119365800D02*
X112293400Y-118999000D01*
X112293400Y-118999000D02*
X113385600Y-117906800D01*
X98247200Y-104597200D02*
X96740509Y-103090509D01*
X97434400Y-108000800D02*
X98247200Y-104597200D01*
X97343223Y-102524823D02*
X97306194Y-102524823D01*
X99695000Y-104876600D02*
X97343223Y-102524823D01*
X98475800Y-108102400D02*
X99695000Y-104876600D01*
X102048270Y-93125330D02*
X102048270Y-90618270D01*
X98437565Y-96726548D02*
X98447052Y-96726548D01*
X98447052Y-96726548D02*
X102048270Y-93125330D01*
X97871880Y-96160862D02*
X97971338Y-96160862D01*
X100533200Y-93573600D02*
X99669600Y-88239600D01*
X99669600Y-88239600D02*
X98597589Y-87167589D01*
X97971338Y-96160862D02*
X100533200Y-93573600D01*
%TA.AperFunction,Conductor*%
G36*
X104923218Y-113941134D02*
G01*
X104980054Y-113983681D01*
X105004865Y-114050201D01*
X105005186Y-114059190D01*
X105005186Y-114064835D01*
X105004496Y-114071400D01*
X105005186Y-114077965D01*
X105020604Y-114224656D01*
X105024458Y-114261328D01*
X105083473Y-114442956D01*
X105086776Y-114448678D01*
X105086777Y-114448679D01*
X105102438Y-114475805D01*
X105178960Y-114608344D01*
X105183378Y-114613251D01*
X105183379Y-114613252D01*
X105271069Y-114710642D01*
X105306747Y-114750266D01*
X105461248Y-114862518D01*
X105467276Y-114865202D01*
X105467278Y-114865203D01*
X105623626Y-114934813D01*
X105635712Y-114940194D01*
X105729112Y-114960047D01*
X105816056Y-114978528D01*
X105816061Y-114978528D01*
X105822513Y-114979900D01*
X106013487Y-114979900D01*
X106019939Y-114978528D01*
X106019944Y-114978528D01*
X106158660Y-114949042D01*
X106200288Y-114940194D01*
X106284943Y-114902504D01*
X106355307Y-114893070D01*
X106377039Y-114898417D01*
X106491089Y-114937508D01*
X106655294Y-114993790D01*
X106675135Y-115002565D01*
X106687740Y-115009495D01*
X106695423Y-115011468D01*
X106695424Y-115011468D01*
X106736225Y-115021944D01*
X106745742Y-115024792D01*
X106751339Y-115026710D01*
X106751345Y-115026712D01*
X106755098Y-115027998D01*
X106776750Y-115032489D01*
X106782445Y-115033811D01*
X106842770Y-115049300D01*
X106850696Y-115049300D01*
X106857668Y-115050181D01*
X106864723Y-115050739D01*
X106872486Y-115052349D01*
X106934667Y-115049438D01*
X106940559Y-115049300D01*
X107548900Y-115049300D01*
X107617021Y-115069302D01*
X107663514Y-115122958D01*
X107674900Y-115175300D01*
X107674900Y-115293100D01*
X107654898Y-115361221D01*
X107601242Y-115407714D01*
X107548900Y-115419100D01*
X107342963Y-115419100D01*
X107331779Y-115418573D01*
X107324291Y-115416899D01*
X107263106Y-115418822D01*
X107256233Y-115419038D01*
X107252275Y-115419100D01*
X107224344Y-115419100D01*
X107220429Y-115419595D01*
X107220425Y-115419595D01*
X107220367Y-115419603D01*
X107220338Y-115419606D01*
X107208496Y-115420539D01*
X107164310Y-115421927D01*
X107146944Y-115426972D01*
X107144858Y-115427578D01*
X107125506Y-115431586D01*
X107113268Y-115433132D01*
X107113266Y-115433133D01*
X107105403Y-115434126D01*
X107064286Y-115450406D01*
X107053085Y-115454241D01*
X107010606Y-115466582D01*
X107003787Y-115470615D01*
X107003782Y-115470617D01*
X106993171Y-115476893D01*
X106975421Y-115485590D01*
X106956583Y-115493048D01*
X106950167Y-115497709D01*
X106950166Y-115497710D01*
X106920825Y-115519028D01*
X106910901Y-115525547D01*
X106879660Y-115544022D01*
X106879655Y-115544026D01*
X106872837Y-115548058D01*
X106858513Y-115562382D01*
X106843481Y-115575221D01*
X106827093Y-115587128D01*
X106801213Y-115618412D01*
X106798912Y-115621193D01*
X106790922Y-115629973D01*
X106285000Y-116135895D01*
X106222688Y-116169921D01*
X106195905Y-116172800D01*
X106140013Y-116172800D01*
X106133561Y-116174172D01*
X106133556Y-116174172D01*
X106046612Y-116192653D01*
X105953212Y-116212506D01*
X105947182Y-116215191D01*
X105947181Y-116215191D01*
X105784778Y-116287497D01*
X105784776Y-116287498D01*
X105778748Y-116290182D01*
X105624247Y-116402434D01*
X105619826Y-116407344D01*
X105619825Y-116407345D01*
X105505875Y-116533900D01*
X105496460Y-116544356D01*
X105493159Y-116550074D01*
X105408121Y-116697364D01*
X105400973Y-116709744D01*
X105341958Y-116891372D01*
X105324606Y-117056472D01*
X105324593Y-117056593D01*
X105297580Y-117122250D01*
X105288378Y-117132518D01*
X103954211Y-118466684D01*
X103891899Y-118500710D01*
X103865116Y-118503589D01*
X102918170Y-118503589D01*
X102850049Y-118483587D01*
X102803556Y-118429931D01*
X102794940Y-118377170D01*
X102792214Y-118377170D01*
X102792214Y-118370565D01*
X102792904Y-118364000D01*
X102787015Y-118307965D01*
X102773632Y-118180635D01*
X102773632Y-118180633D01*
X102772942Y-118174072D01*
X102713927Y-117992444D01*
X102707609Y-117981500D01*
X102655705Y-117891601D01*
X102618440Y-117827056D01*
X102546370Y-117747015D01*
X102515655Y-117683010D01*
X102514070Y-117666664D01*
X102512962Y-117631401D01*
X102512900Y-117627444D01*
X102512900Y-117599544D01*
X102512396Y-117595553D01*
X102511463Y-117583711D01*
X102510863Y-117564595D01*
X102510074Y-117539511D01*
X102504421Y-117520052D01*
X102500412Y-117500693D01*
X102500246Y-117499383D01*
X102497874Y-117480603D01*
X102494958Y-117473237D01*
X102494956Y-117473231D01*
X102481600Y-117439498D01*
X102477755Y-117428268D01*
X102467630Y-117393417D01*
X102467630Y-117393416D01*
X102465419Y-117385807D01*
X102455105Y-117368366D01*
X102446408Y-117350613D01*
X102441872Y-117339158D01*
X102438952Y-117331783D01*
X102412963Y-117296012D01*
X102406447Y-117286092D01*
X102400977Y-117276843D01*
X102386729Y-117252750D01*
X102369269Y-117183934D01*
X102378672Y-117155815D01*
X102377493Y-117155559D01*
X102386000Y-117116452D01*
X102386000Y-117111884D01*
X102894000Y-117111884D01*
X102898475Y-117127123D01*
X102899865Y-117128328D01*
X102907548Y-117129999D01*
X103446669Y-117129999D01*
X103453490Y-117129629D01*
X103504352Y-117124105D01*
X103519604Y-117120479D01*
X103640054Y-117075324D01*
X103655649Y-117066786D01*
X103757724Y-116990285D01*
X103770285Y-116977724D01*
X103846786Y-116875649D01*
X103855324Y-116860054D01*
X103900478Y-116739606D01*
X103904105Y-116724351D01*
X103909631Y-116673486D01*
X103910000Y-116666672D01*
X103910000Y-116132115D01*
X103905525Y-116116876D01*
X103904135Y-116115671D01*
X103896452Y-116114000D01*
X102912115Y-116114000D01*
X102896876Y-116118475D01*
X102895671Y-116119865D01*
X102894000Y-116127548D01*
X102894000Y-117111884D01*
X102386000Y-117111884D01*
X102386000Y-115732000D01*
X102406002Y-115663879D01*
X102459658Y-115617386D01*
X102512000Y-115606000D01*
X103891884Y-115606000D01*
X103907123Y-115601525D01*
X103908328Y-115600135D01*
X103909999Y-115592452D01*
X103909999Y-115053331D01*
X103909629Y-115046510D01*
X103904105Y-114995648D01*
X103900478Y-114980393D01*
X103896048Y-114968575D01*
X103890865Y-114897768D01*
X103924935Y-114835251D01*
X104790091Y-113970095D01*
X104852403Y-113936069D01*
X104923218Y-113941134D01*
G37*
%TD.AperFunction*%
%TA.AperFunction,Conductor*%
G36*
X96468443Y-76287107D02*
G01*
X115475099Y-76296854D01*
X115543208Y-76316891D01*
X115589673Y-76370570D01*
X115599741Y-76440850D01*
X115570215Y-76505415D01*
X115562560Y-76513491D01*
X115514000Y-76560385D01*
X115404887Y-76665754D01*
X115224632Y-76896471D01*
X115222436Y-76900275D01*
X115222431Y-76900282D01*
X115103342Y-77106551D01*
X115078240Y-77150029D01*
X114968561Y-77421493D01*
X114897731Y-77705580D01*
X114897272Y-77709950D01*
X114897271Y-77709954D01*
X114868198Y-77986562D01*
X114867126Y-77996759D01*
X114867279Y-78001147D01*
X114867279Y-78001153D01*
X114876796Y-78273669D01*
X114877344Y-78289365D01*
X114878107Y-78293689D01*
X114878107Y-78293694D01*
X114896504Y-78398023D01*
X114928186Y-78577700D01*
X114929541Y-78581871D01*
X114929543Y-78581878D01*
X114998147Y-78793019D01*
X115018661Y-78856154D01*
X115020589Y-78860107D01*
X115020591Y-78860112D01*
X115047673Y-78915637D01*
X115147009Y-79119306D01*
X115310731Y-79362035D01*
X115313676Y-79365306D01*
X115313677Y-79365307D01*
X115408645Y-79470779D01*
X115506642Y-79579615D01*
X115626537Y-79680219D01*
X115691011Y-79734319D01*
X115730927Y-79767813D01*
X115979221Y-79922964D01*
X116246692Y-80042050D01*
X116329745Y-80065865D01*
X116523273Y-80121358D01*
X116528134Y-80122752D01*
X116532484Y-80123363D01*
X116532487Y-80123364D01*
X116610771Y-80134366D01*
X116818068Y-80163500D01*
X117037563Y-80163500D01*
X117039750Y-80163347D01*
X117039752Y-80163347D01*
X117252145Y-80148495D01*
X117252150Y-80148494D01*
X117256530Y-80148188D01*
X117260822Y-80147276D01*
X117260827Y-80147275D01*
X117437231Y-80109779D01*
X117542916Y-80087315D01*
X117547047Y-80085811D01*
X117547052Y-80085810D01*
X117813908Y-79988682D01*
X117813912Y-79988680D01*
X117818042Y-79987177D01*
X117846910Y-79971828D01*
X117927508Y-79928973D01*
X118076555Y-79849724D01*
X118080111Y-79847140D01*
X118080118Y-79847136D01*
X118309859Y-79680219D01*
X118309862Y-79680217D01*
X118313422Y-79677630D01*
X118331820Y-79659864D01*
X118448150Y-79547525D01*
X118524033Y-79474246D01*
X118704288Y-79243529D01*
X118706484Y-79239725D01*
X118706489Y-79239718D01*
X118848479Y-78993783D01*
X118850680Y-78989971D01*
X118960359Y-78718507D01*
X118983270Y-78626617D01*
X119008706Y-78524597D01*
X119031189Y-78434420D01*
X119039221Y-78358009D01*
X119061335Y-78147610D01*
X119061335Y-78147607D01*
X119061794Y-78143241D01*
X119060998Y-78120446D01*
X119051730Y-77855032D01*
X119051729Y-77855026D01*
X119051576Y-77850635D01*
X119000734Y-77562300D01*
X118999379Y-77558129D01*
X118999377Y-77558122D01*
X118911620Y-77288035D01*
X118910259Y-77283846D01*
X118781911Y-77020694D01*
X118618189Y-76777965D01*
X118586596Y-76742877D01*
X118425225Y-76563658D01*
X118422278Y-76560385D01*
X118375225Y-76520903D01*
X118335900Y-76461794D01*
X118334774Y-76390807D01*
X118372206Y-76330479D01*
X118436311Y-76299966D01*
X118456280Y-76298383D01*
X125070516Y-76301775D01*
X125138624Y-76321812D01*
X125185089Y-76375491D01*
X125196449Y-76427706D01*
X125205294Y-92490333D01*
X125218465Y-116407345D01*
X125218465Y-116407831D01*
X125198500Y-116475962D01*
X125144870Y-116522485D01*
X125092465Y-116533900D01*
X119099469Y-116533900D01*
X119031348Y-116513898D01*
X118984855Y-116460242D01*
X118978473Y-116443055D01*
X118976019Y-116434607D01*
X118965705Y-116417166D01*
X118957008Y-116399413D01*
X118952472Y-116387958D01*
X118949552Y-116380583D01*
X118923563Y-116344812D01*
X118917047Y-116334892D01*
X118898578Y-116303663D01*
X118894542Y-116296838D01*
X118880218Y-116282514D01*
X118867383Y-116267487D01*
X118855472Y-116251093D01*
X118837615Y-116236320D01*
X118830831Y-116229536D01*
X118830600Y-116229782D01*
X118780947Y-116183155D01*
X118778105Y-116180400D01*
X118758370Y-116160665D01*
X118755173Y-116158185D01*
X118746151Y-116150480D01*
X118713921Y-116120214D01*
X118706975Y-116116395D01*
X118706972Y-116116393D01*
X118696166Y-116110452D01*
X118679647Y-116099601D01*
X118679183Y-116099241D01*
X118663641Y-116087186D01*
X118656372Y-116084041D01*
X118656368Y-116084038D01*
X118623063Y-116069626D01*
X118612413Y-116064409D01*
X118573660Y-116043105D01*
X118554037Y-116038067D01*
X118535334Y-116031663D01*
X118524020Y-116026767D01*
X118524019Y-116026767D01*
X118516745Y-116023619D01*
X118508922Y-116022380D01*
X118508912Y-116022377D01*
X118473076Y-116016701D01*
X118461456Y-116014295D01*
X118426311Y-116005272D01*
X118426310Y-116005272D01*
X118418630Y-116003300D01*
X118398376Y-116003300D01*
X118378665Y-116001749D01*
X118366486Y-115999820D01*
X118358657Y-115998580D01*
X118350765Y-115999326D01*
X118314639Y-116002741D01*
X118302781Y-116003300D01*
X112908269Y-116003300D01*
X112840148Y-115983298D01*
X112793655Y-115929642D01*
X112783551Y-115859368D01*
X112813045Y-115794788D01*
X112837378Y-115774481D01*
X112837119Y-115774147D01*
X112843380Y-115769291D01*
X112850207Y-115765253D01*
X112967853Y-115647607D01*
X112971889Y-115640783D01*
X112971891Y-115640780D01*
X113043895Y-115519028D01*
X113052545Y-115504401D01*
X113055565Y-115494006D01*
X113073846Y-115431083D01*
X113112059Y-115371247D01*
X113176555Y-115341570D01*
X113246858Y-115351473D01*
X113293590Y-115387974D01*
X113297671Y-115393123D01*
X113301523Y-115399348D01*
X113426698Y-115524305D01*
X113432928Y-115528145D01*
X113432929Y-115528146D01*
X113570289Y-115612816D01*
X113577263Y-115617115D01*
X113641849Y-115638537D01*
X113738612Y-115670632D01*
X113738614Y-115670632D01*
X113745140Y-115672797D01*
X113751976Y-115673497D01*
X113751979Y-115673498D01*
X113795032Y-115677909D01*
X113849601Y-115683500D01*
X114750401Y-115683500D01*
X114753647Y-115683163D01*
X114753651Y-115683163D01*
X114849309Y-115673238D01*
X114849313Y-115673237D01*
X114856167Y-115672526D01*
X114862703Y-115670345D01*
X114862705Y-115670345D01*
X115010030Y-115621193D01*
X115023947Y-115616550D01*
X115174349Y-115523478D01*
X115299306Y-115398303D01*
X115355400Y-115307302D01*
X115388276Y-115253968D01*
X115388277Y-115253966D01*
X115392116Y-115247738D01*
X115418565Y-115167995D01*
X115445633Y-115086389D01*
X115445633Y-115086387D01*
X115447798Y-115079861D01*
X115450309Y-115055359D01*
X115455717Y-115002567D01*
X115458501Y-114975400D01*
X115458501Y-114972095D01*
X116242002Y-114972095D01*
X116242339Y-114978614D01*
X116252258Y-115074206D01*
X116255150Y-115087600D01*
X116306589Y-115241784D01*
X116312762Y-115254962D01*
X116398064Y-115392807D01*
X116407100Y-115404208D01*
X116521830Y-115518739D01*
X116533241Y-115527751D01*
X116671244Y-115612816D01*
X116684425Y-115618963D01*
X116838711Y-115670138D01*
X116852087Y-115673005D01*
X116946439Y-115682672D01*
X116952855Y-115683000D01*
X117127886Y-115683000D01*
X117143125Y-115678525D01*
X117144330Y-115677135D01*
X117146001Y-115669452D01*
X117146001Y-115664884D01*
X117654001Y-115664884D01*
X117658476Y-115680123D01*
X117659866Y-115681328D01*
X117667549Y-115682999D01*
X117847096Y-115682999D01*
X117853615Y-115682662D01*
X117949207Y-115672743D01*
X117962601Y-115669851D01*
X118116785Y-115618412D01*
X118129963Y-115612239D01*
X118267808Y-115526937D01*
X118279209Y-115517901D01*
X118393740Y-115403171D01*
X118402752Y-115391760D01*
X118487817Y-115253757D01*
X118493964Y-115240576D01*
X118545139Y-115086290D01*
X118548006Y-115072914D01*
X118557673Y-114978562D01*
X118558001Y-114972146D01*
X118558001Y-114572115D01*
X118553526Y-114556876D01*
X118552136Y-114555671D01*
X118544453Y-114554000D01*
X117672116Y-114554000D01*
X117656877Y-114558475D01*
X117655672Y-114559865D01*
X117654001Y-114567548D01*
X117654001Y-115664884D01*
X117146001Y-115664884D01*
X117146001Y-114572115D01*
X117141526Y-114556876D01*
X117140136Y-114555671D01*
X117132453Y-114554000D01*
X116260117Y-114554000D01*
X116244878Y-114558475D01*
X116243673Y-114559865D01*
X116242002Y-114567548D01*
X116242002Y-114972095D01*
X115458501Y-114972095D01*
X115458501Y-114027885D01*
X116242001Y-114027885D01*
X116246476Y-114043124D01*
X116247866Y-114044329D01*
X116255549Y-114046000D01*
X117127886Y-114046000D01*
X117143125Y-114041525D01*
X117144330Y-114040135D01*
X117146001Y-114032452D01*
X117146001Y-114027885D01*
X117654001Y-114027885D01*
X117658476Y-114043124D01*
X117659866Y-114044329D01*
X117667549Y-114046000D01*
X118539885Y-114046000D01*
X118555124Y-114041525D01*
X118556329Y-114040135D01*
X118558000Y-114032452D01*
X118558000Y-113627905D01*
X118557663Y-113621386D01*
X118547744Y-113525794D01*
X118544852Y-113512400D01*
X118493413Y-113358216D01*
X118487240Y-113345038D01*
X118401938Y-113207193D01*
X118392902Y-113195792D01*
X118278172Y-113081261D01*
X118266761Y-113072249D01*
X118128758Y-112987184D01*
X118115577Y-112981037D01*
X117961291Y-112929862D01*
X117947915Y-112926995D01*
X117853563Y-112917328D01*
X117847146Y-112917000D01*
X117672116Y-112917000D01*
X117656877Y-112921475D01*
X117655672Y-112922865D01*
X117654001Y-112930548D01*
X117654001Y-114027885D01*
X117146001Y-114027885D01*
X117146001Y-112935116D01*
X117141526Y-112919877D01*
X117140136Y-112918672D01*
X117132453Y-112917001D01*
X116952906Y-112917001D01*
X116946387Y-112917338D01*
X116850795Y-112927257D01*
X116837401Y-112930149D01*
X116683217Y-112981588D01*
X116670039Y-112987761D01*
X116532194Y-113073063D01*
X116520793Y-113082099D01*
X116406262Y-113196829D01*
X116397250Y-113208240D01*
X116312185Y-113346243D01*
X116306038Y-113359424D01*
X116254863Y-113513710D01*
X116251996Y-113527086D01*
X116242329Y-113621438D01*
X116242001Y-113627855D01*
X116242001Y-114027885D01*
X115458501Y-114027885D01*
X115458501Y-113624600D01*
X115458164Y-113621350D01*
X115448239Y-113525692D01*
X115448238Y-113525688D01*
X115447527Y-113518834D01*
X115391551Y-113351054D01*
X115298479Y-113200652D01*
X115173304Y-113075695D01*
X115151585Y-113062307D01*
X115028969Y-112986725D01*
X115028967Y-112986724D01*
X115022739Y-112982885D01*
X114918076Y-112948170D01*
X114861390Y-112929368D01*
X114861388Y-112929368D01*
X114854862Y-112927203D01*
X114848026Y-112926503D01*
X114848023Y-112926502D01*
X114804970Y-112922091D01*
X114750401Y-112916500D01*
X113849601Y-112916500D01*
X113846355Y-112916837D01*
X113846351Y-112916837D01*
X113750693Y-112926762D01*
X113750689Y-112926763D01*
X113743835Y-112927474D01*
X113737299Y-112929655D01*
X113737297Y-112929655D01*
X113665103Y-112953741D01*
X113576055Y-112983450D01*
X113425653Y-113076522D01*
X113300696Y-113201697D01*
X113296856Y-113207927D01*
X113296855Y-113207928D01*
X113245665Y-113290973D01*
X113192892Y-113338467D01*
X113122821Y-113349890D01*
X113057697Y-113321616D01*
X113029952Y-113288997D01*
X112967853Y-113183993D01*
X112962244Y-113178384D01*
X112957389Y-113172125D01*
X112958896Y-113170956D01*
X112929779Y-113117633D01*
X112926900Y-113090850D01*
X112926900Y-112346768D01*
X112927427Y-112335585D01*
X112929102Y-112328092D01*
X112926962Y-112260001D01*
X112926900Y-112256044D01*
X112926900Y-112228144D01*
X112926396Y-112224153D01*
X112925463Y-112212311D01*
X112925245Y-112205355D01*
X112924074Y-112168111D01*
X112921862Y-112160497D01*
X112921861Y-112160492D01*
X112918423Y-112148659D01*
X112914412Y-112129295D01*
X112912867Y-112117064D01*
X112911874Y-112109203D01*
X112908957Y-112101836D01*
X112908956Y-112101831D01*
X112895598Y-112068092D01*
X112891754Y-112056865D01*
X112881630Y-112022022D01*
X112879418Y-112014407D01*
X112874852Y-112006686D01*
X112869107Y-111996972D01*
X112860412Y-111979224D01*
X112852952Y-111960383D01*
X112844208Y-111948347D01*
X112826964Y-111924613D01*
X112820448Y-111914693D01*
X112801980Y-111883465D01*
X112801978Y-111883462D01*
X112797942Y-111876638D01*
X112783621Y-111862317D01*
X112770780Y-111847283D01*
X112763532Y-111837307D01*
X112758872Y-111830893D01*
X112752067Y-111825263D01*
X112724802Y-111802708D01*
X112716022Y-111794718D01*
X112503922Y-111582618D01*
X112469896Y-111520306D01*
X112467707Y-111506693D01*
X112451032Y-111348035D01*
X112451032Y-111348033D01*
X112450342Y-111341472D01*
X112391327Y-111159844D01*
X112373544Y-111129042D01*
X112339834Y-111070656D01*
X112295840Y-110994456D01*
X112289672Y-110987605D01*
X112172475Y-110857445D01*
X112172474Y-110857444D01*
X112168053Y-110852534D01*
X112013552Y-110740282D01*
X112007524Y-110737598D01*
X112007522Y-110737597D01*
X111845119Y-110665291D01*
X111845118Y-110665291D01*
X111839088Y-110662606D01*
X111738165Y-110641154D01*
X111658744Y-110624272D01*
X111658739Y-110624272D01*
X111652287Y-110622900D01*
X111461313Y-110622900D01*
X111454861Y-110624272D01*
X111454856Y-110624272D01*
X111375435Y-110641154D01*
X111274512Y-110662606D01*
X111268482Y-110665291D01*
X111268481Y-110665291D01*
X111106078Y-110737597D01*
X111106076Y-110737598D01*
X111100048Y-110740282D01*
X110945547Y-110852534D01*
X110941126Y-110857444D01*
X110941125Y-110857445D01*
X110823929Y-110987605D01*
X110817760Y-110994456D01*
X110773766Y-111070656D01*
X110740057Y-111129042D01*
X110722273Y-111159844D01*
X110663258Y-111341472D01*
X110662568Y-111348033D01*
X110662568Y-111348035D01*
X110655773Y-111412689D01*
X110643296Y-111531400D01*
X110663258Y-111721328D01*
X110722273Y-111902956D01*
X110725576Y-111908678D01*
X110725577Y-111908679D01*
X110748480Y-111948347D01*
X110817760Y-112068344D01*
X110822178Y-112073251D01*
X110822179Y-112073252D01*
X110937234Y-112201034D01*
X110945547Y-112210266D01*
X111100048Y-112322518D01*
X111106076Y-112325202D01*
X111106078Y-112325203D01*
X111250796Y-112389635D01*
X111274512Y-112400194D01*
X111350068Y-112416254D01*
X111454856Y-112438528D01*
X111454861Y-112438528D01*
X111461313Y-112439900D01*
X111517206Y-112439900D01*
X111585327Y-112459902D01*
X111606301Y-112476805D01*
X111622995Y-112493499D01*
X111657021Y-112555811D01*
X111659900Y-112582594D01*
X111659900Y-112893157D01*
X111639898Y-112961278D01*
X111586242Y-113007771D01*
X111515968Y-113017875D01*
X111469761Y-113001611D01*
X111443621Y-112986152D01*
X111429190Y-112979907D01*
X111294795Y-112940861D01*
X111280694Y-112940901D01*
X111277400Y-112948170D01*
X111277400Y-114543800D01*
X111257398Y-114611921D01*
X111203742Y-114658414D01*
X111151400Y-114669800D01*
X110895400Y-114669800D01*
X110827279Y-114649798D01*
X110780786Y-114596142D01*
X110769400Y-114543800D01*
X110769400Y-112953922D01*
X110765427Y-112940391D01*
X110757529Y-112939256D01*
X110617610Y-112979907D01*
X110603179Y-112986152D01*
X110473724Y-113062710D01*
X110466036Y-113068674D01*
X110399951Y-113094621D01*
X110330328Y-113080720D01*
X110314242Y-113070382D01*
X110310207Y-113066347D01*
X110167001Y-112981655D01*
X110159390Y-112979444D01*
X110159388Y-112979443D01*
X110070919Y-112953741D01*
X110007231Y-112935238D01*
X110000826Y-112934734D01*
X110000821Y-112934733D01*
X109972358Y-112932493D01*
X109972350Y-112932493D01*
X109969902Y-112932300D01*
X109536898Y-112932300D01*
X109534450Y-112932493D01*
X109534442Y-112932493D01*
X109505979Y-112934733D01*
X109505974Y-112934734D01*
X109499569Y-112935238D01*
X109435881Y-112953741D01*
X109347412Y-112979443D01*
X109347410Y-112979444D01*
X109339799Y-112981655D01*
X109196593Y-113066347D01*
X109193911Y-113069029D01*
X109129539Y-113094302D01*
X109059916Y-113080400D01*
X109044088Y-113070228D01*
X109040207Y-113066347D01*
X108897001Y-112981655D01*
X108889390Y-112979444D01*
X108889388Y-112979443D01*
X108800919Y-112953741D01*
X108737231Y-112935238D01*
X108730826Y-112934734D01*
X108730821Y-112934733D01*
X108702358Y-112932493D01*
X108702350Y-112932493D01*
X108699902Y-112932300D01*
X108266898Y-112932300D01*
X108264450Y-112932493D01*
X108264442Y-112932493D01*
X108235979Y-112934733D01*
X108235974Y-112934734D01*
X108229569Y-112935238D01*
X108165881Y-112953741D01*
X108077412Y-112979443D01*
X108077410Y-112979444D01*
X108069799Y-112981655D01*
X108062972Y-112985692D01*
X108062973Y-112985692D01*
X107933420Y-113062309D01*
X107933417Y-113062311D01*
X107926593Y-113066347D01*
X107808947Y-113183993D01*
X107804911Y-113190817D01*
X107804909Y-113190820D01*
X107794607Y-113208240D01*
X107724255Y-113327199D01*
X107722044Y-113334810D01*
X107722043Y-113334812D01*
X107715306Y-113358002D01*
X107677838Y-113486969D01*
X107677334Y-113493374D01*
X107677333Y-113493379D01*
X107675836Y-113512400D01*
X107674900Y-113524298D01*
X107674900Y-113656300D01*
X107654898Y-113724421D01*
X107601242Y-113770914D01*
X107548900Y-113782300D01*
X107049348Y-113782300D01*
X107008494Y-113775493D01*
X106788488Y-113700085D01*
X106730533Y-113659076D01*
X106720223Y-113643892D01*
X106660341Y-113540174D01*
X106657040Y-113534456D01*
X106529253Y-113392534D01*
X106374752Y-113280282D01*
X106368724Y-113277598D01*
X106368722Y-113277597D01*
X106206319Y-113205291D01*
X106206318Y-113205291D01*
X106200288Y-113202606D01*
X106106887Y-113182753D01*
X106019944Y-113164272D01*
X106019939Y-113164272D01*
X106013487Y-113162900D01*
X105901476Y-113162900D01*
X105833355Y-113142898D01*
X105786862Y-113089242D01*
X105776758Y-113018968D01*
X105806252Y-112954388D01*
X105812381Y-112947805D01*
X106208647Y-112551539D01*
X106216937Y-112543995D01*
X106223418Y-112539882D01*
X106270059Y-112490214D01*
X106272813Y-112487373D01*
X106292534Y-112467652D01*
X106295012Y-112464457D01*
X106302718Y-112455435D01*
X106327558Y-112428983D01*
X106332986Y-112423203D01*
X106342746Y-112405450D01*
X106353599Y-112388927D01*
X106361153Y-112379188D01*
X106366013Y-112372923D01*
X106383576Y-112332339D01*
X106388783Y-112321709D01*
X106410095Y-112282942D01*
X106412066Y-112275265D01*
X106412068Y-112275260D01*
X106415132Y-112263324D01*
X106421538Y-112244612D01*
X106426433Y-112233301D01*
X106429581Y-112226027D01*
X106430821Y-112218199D01*
X106430823Y-112218192D01*
X106436499Y-112182358D01*
X106438905Y-112170738D01*
X106447928Y-112135593D01*
X106447928Y-112135592D01*
X106449900Y-112127912D01*
X106449900Y-112107658D01*
X106451451Y-112087947D01*
X106453380Y-112075768D01*
X106454620Y-112067939D01*
X106450459Y-112023920D01*
X106449900Y-112012063D01*
X106449900Y-110379724D01*
X106469902Y-110311603D01*
X106482258Y-110295421D01*
X106555440Y-110214144D01*
X106650927Y-110048756D01*
X106709942Y-109867128D01*
X106711743Y-109849999D01*
X106729214Y-109683765D01*
X106729904Y-109677200D01*
X106729176Y-109670266D01*
X106728454Y-109663402D01*
X106741224Y-109593563D01*
X106789724Y-109541715D01*
X106858557Y-109524319D01*
X106904608Y-109534943D01*
X106919963Y-109541715D01*
X107161140Y-109648086D01*
X107215397Y-109693877D01*
X107219622Y-109700735D01*
X108140664Y-111308371D01*
X108157173Y-111377422D01*
X108151172Y-111409936D01*
X108148658Y-111417672D01*
X108128696Y-111607600D01*
X108129386Y-111614165D01*
X108145994Y-111772177D01*
X108148658Y-111797528D01*
X108207673Y-111979156D01*
X108210976Y-111984878D01*
X108210977Y-111984879D01*
X108213031Y-111988437D01*
X108303160Y-112144544D01*
X108307578Y-112149451D01*
X108307579Y-112149452D01*
X108401458Y-112253715D01*
X108430947Y-112286466D01*
X108585448Y-112398718D01*
X108591476Y-112401402D01*
X108591478Y-112401403D01*
X108740277Y-112467652D01*
X108759912Y-112476394D01*
X108853312Y-112496247D01*
X108940256Y-112514728D01*
X108940261Y-112514728D01*
X108946713Y-112516100D01*
X109137687Y-112516100D01*
X109144139Y-112514728D01*
X109144144Y-112514728D01*
X109231087Y-112496247D01*
X109324488Y-112476394D01*
X109344123Y-112467652D01*
X109492922Y-112401403D01*
X109492924Y-112401402D01*
X109498952Y-112398718D01*
X109653453Y-112286466D01*
X109682942Y-112253715D01*
X109776821Y-112149452D01*
X109776822Y-112149451D01*
X109781240Y-112144544D01*
X109871369Y-111988437D01*
X109873423Y-111984879D01*
X109873424Y-111984878D01*
X109876727Y-111979156D01*
X109935742Y-111797528D01*
X109938407Y-111772177D01*
X109955014Y-111614165D01*
X109955704Y-111607600D01*
X109935742Y-111417672D01*
X109876727Y-111236044D01*
X109781240Y-111070656D01*
X109718939Y-111001463D01*
X109657875Y-110933645D01*
X109657874Y-110933644D01*
X109653453Y-110928734D01*
X109498952Y-110816482D01*
X109492924Y-110813798D01*
X109492922Y-110813797D01*
X109330519Y-110741491D01*
X109330518Y-110741491D01*
X109324488Y-110738806D01*
X109318032Y-110737434D01*
X109311748Y-110735392D01*
X109312550Y-110732924D01*
X109260298Y-110704729D01*
X109239619Y-110677826D01*
X108499893Y-109386669D01*
X109220001Y-109386669D01*
X109220371Y-109393490D01*
X109225895Y-109444352D01*
X109229521Y-109459604D01*
X109274676Y-109580054D01*
X109283214Y-109595649D01*
X109359715Y-109697724D01*
X109372276Y-109710285D01*
X109474351Y-109786786D01*
X109489946Y-109795324D01*
X109610394Y-109840478D01*
X109625649Y-109844105D01*
X109676514Y-109849631D01*
X109683328Y-109850000D01*
X110217885Y-109850000D01*
X110233124Y-109845525D01*
X110234329Y-109844135D01*
X110236000Y-109836452D01*
X110236000Y-109831884D01*
X110744000Y-109831884D01*
X110748475Y-109847123D01*
X110749865Y-109848328D01*
X110757548Y-109849999D01*
X111296669Y-109849999D01*
X111303490Y-109849629D01*
X111354352Y-109844105D01*
X111369604Y-109840479D01*
X111490054Y-109795324D01*
X111505649Y-109786786D01*
X111607724Y-109710285D01*
X111620285Y-109697724D01*
X111696786Y-109595649D01*
X111705324Y-109580054D01*
X111750478Y-109459606D01*
X111754105Y-109444351D01*
X111759631Y-109393486D01*
X111760000Y-109386672D01*
X111760000Y-108852115D01*
X111755525Y-108836876D01*
X111754135Y-108835671D01*
X111746452Y-108834000D01*
X110762115Y-108834000D01*
X110746876Y-108838475D01*
X110745671Y-108839865D01*
X110744000Y-108847548D01*
X110744000Y-109831884D01*
X110236000Y-109831884D01*
X110236000Y-108852115D01*
X110231525Y-108836876D01*
X110230135Y-108835671D01*
X110222452Y-108834000D01*
X109238116Y-108834000D01*
X109222877Y-108838475D01*
X109221672Y-108839865D01*
X109220001Y-108847548D01*
X109220001Y-109386669D01*
X108499893Y-109386669D01*
X108217341Y-108893487D01*
X108210694Y-108880101D01*
X108197069Y-108848002D01*
X108149968Y-108786397D01*
X108149474Y-108785746D01*
X108127809Y-108757005D01*
X108102777Y-108690567D01*
X108117637Y-108621143D01*
X108167672Y-108570774D01*
X108195814Y-108559453D01*
X108380886Y-108509863D01*
X108380888Y-108509862D01*
X108386196Y-108508440D01*
X108411795Y-108496503D01*
X108582690Y-108416814D01*
X108582695Y-108416811D01*
X108587677Y-108414488D01*
X108718158Y-108323124D01*
X108765270Y-108290136D01*
X108765273Y-108290134D01*
X108769781Y-108286977D01*
X108926977Y-108129781D01*
X108936077Y-108116786D01*
X108990787Y-108038651D01*
X109046244Y-107994323D01*
X109116863Y-107987014D01*
X109180224Y-108019045D01*
X109216209Y-108080246D01*
X109220000Y-108110922D01*
X109220000Y-108307885D01*
X109224475Y-108323124D01*
X109225865Y-108324329D01*
X109233548Y-108326000D01*
X111741884Y-108326000D01*
X111757123Y-108321525D01*
X111758328Y-108320135D01*
X111759999Y-108312452D01*
X111759999Y-107773331D01*
X111759629Y-107766510D01*
X111754105Y-107715648D01*
X111750479Y-107700396D01*
X111705324Y-107579946D01*
X111696786Y-107564351D01*
X111620285Y-107462276D01*
X111607724Y-107449715D01*
X111505649Y-107373214D01*
X111490054Y-107364676D01*
X111369606Y-107319522D01*
X111354351Y-107315895D01*
X111303486Y-107310369D01*
X111296672Y-107310000D01*
X111290922Y-107310000D01*
X111222801Y-107289998D01*
X111176308Y-107236342D01*
X111166204Y-107166068D01*
X111195698Y-107101488D01*
X111218651Y-107080787D01*
X111305270Y-107020136D01*
X111305273Y-107020134D01*
X111309781Y-107016977D01*
X111466977Y-106859781D01*
X111594488Y-106677676D01*
X111596811Y-106672694D01*
X111596814Y-106672689D01*
X111686117Y-106481178D01*
X111686118Y-106481177D01*
X111688440Y-106476196D01*
X111745978Y-106261463D01*
X111765353Y-106040000D01*
X111745978Y-105818537D01*
X111688440Y-105603804D01*
X111681901Y-105589781D01*
X111596814Y-105407311D01*
X111596811Y-105407306D01*
X111594488Y-105402324D01*
X111513150Y-105286161D01*
X111470136Y-105224730D01*
X111470134Y-105224727D01*
X111466977Y-105220219D01*
X111309781Y-105063023D01*
X111305273Y-105059866D01*
X111305270Y-105059864D01*
X111199758Y-104985984D01*
X111127677Y-104935512D01*
X111122695Y-104933189D01*
X111122690Y-104933186D01*
X111017627Y-104884195D01*
X110964342Y-104837278D01*
X110944881Y-104769001D01*
X110965423Y-104701041D01*
X111017627Y-104655805D01*
X111122690Y-104606814D01*
X111122695Y-104606811D01*
X111127677Y-104604488D01*
X111292122Y-104489342D01*
X111305270Y-104480136D01*
X111305273Y-104480134D01*
X111309781Y-104476977D01*
X111466977Y-104319781D01*
X111480787Y-104300059D01*
X111559791Y-104187229D01*
X111615248Y-104142901D01*
X111663004Y-104133500D01*
X111669005Y-104133500D01*
X111737126Y-104153502D01*
X111758101Y-104170405D01*
X112232596Y-104644901D01*
X112266621Y-104707213D01*
X112269500Y-104733996D01*
X112269500Y-108413870D01*
X112252619Y-108476870D01*
X112189986Y-108585353D01*
X112170073Y-108619844D01*
X112111058Y-108801472D01*
X112110368Y-108808033D01*
X112110368Y-108808035D01*
X112101386Y-108893492D01*
X112091096Y-108991400D01*
X112091786Y-108997965D01*
X112108829Y-109160117D01*
X112111058Y-109181328D01*
X112170073Y-109362956D01*
X112173376Y-109368678D01*
X112173377Y-109368679D01*
X112187702Y-109393490D01*
X112265560Y-109528344D01*
X112269978Y-109533251D01*
X112269979Y-109533252D01*
X112358267Y-109631306D01*
X112393347Y-109670266D01*
X112547848Y-109782518D01*
X112553876Y-109785202D01*
X112553878Y-109785203D01*
X112716281Y-109857509D01*
X112722312Y-109860194D01*
X112815713Y-109880047D01*
X112902656Y-109898528D01*
X112902661Y-109898528D01*
X112909113Y-109899900D01*
X113100087Y-109899900D01*
X113106539Y-109898528D01*
X113106544Y-109898528D01*
X113193488Y-109880047D01*
X113286888Y-109860194D01*
X113292919Y-109857509D01*
X113455322Y-109785203D01*
X113455324Y-109785202D01*
X113461352Y-109782518D01*
X113462397Y-109781759D01*
X114742666Y-109781759D01*
X114742819Y-109786147D01*
X114742819Y-109786153D01*
X114752190Y-110054479D01*
X114752884Y-110074365D01*
X114753647Y-110078689D01*
X114753647Y-110078694D01*
X114776523Y-110208426D01*
X114803726Y-110362700D01*
X114805081Y-110366871D01*
X114805083Y-110366878D01*
X114865631Y-110553224D01*
X114894201Y-110641154D01*
X114896129Y-110645107D01*
X114896131Y-110645112D01*
X114932078Y-110718813D01*
X115022549Y-110904306D01*
X115186271Y-111147035D01*
X115189216Y-111150306D01*
X115189217Y-111150307D01*
X115272075Y-111242329D01*
X115382182Y-111364615D01*
X115606467Y-111552813D01*
X115854761Y-111707964D01*
X116002366Y-111773682D01*
X116111748Y-111822382D01*
X116122232Y-111827050D01*
X116192793Y-111847283D01*
X116359154Y-111894986D01*
X116403674Y-111907752D01*
X116408024Y-111908363D01*
X116408027Y-111908364D01*
X116489456Y-111919808D01*
X116693608Y-111948500D01*
X116913103Y-111948500D01*
X116915290Y-111948347D01*
X116915292Y-111948347D01*
X117127685Y-111933495D01*
X117127690Y-111933494D01*
X117132070Y-111933188D01*
X117136362Y-111932276D01*
X117136367Y-111932275D01*
X117365999Y-111883465D01*
X117418456Y-111872315D01*
X117422587Y-111870811D01*
X117422592Y-111870810D01*
X117689448Y-111773682D01*
X117689452Y-111773680D01*
X117693582Y-111772177D01*
X117729499Y-111753080D01*
X117818726Y-111705637D01*
X117952095Y-111634724D01*
X117955651Y-111632140D01*
X117955658Y-111632136D01*
X118185399Y-111465219D01*
X118185402Y-111465217D01*
X118188962Y-111462630D01*
X118228722Y-111424235D01*
X118294430Y-111360781D01*
X118399573Y-111259246D01*
X118579828Y-111028529D01*
X118582024Y-111024725D01*
X118582029Y-111024718D01*
X118706841Y-110808537D01*
X118726220Y-110774971D01*
X118835899Y-110503507D01*
X118906729Y-110219420D01*
X118914833Y-110142324D01*
X118936875Y-109932610D01*
X118936875Y-109932607D01*
X118937334Y-109928241D01*
X118937181Y-109923847D01*
X118927270Y-109640032D01*
X118927269Y-109640026D01*
X118927116Y-109635635D01*
X118926144Y-109630118D01*
X118896077Y-109459606D01*
X118876274Y-109347300D01*
X118874919Y-109343129D01*
X118874917Y-109343122D01*
X118791233Y-109085571D01*
X118785799Y-109068846D01*
X118763284Y-109022682D01*
X118703207Y-108899507D01*
X118657451Y-108805694D01*
X118493729Y-108562965D01*
X118445916Y-108509863D01*
X118300765Y-108348658D01*
X118297818Y-108345385D01*
X118073533Y-108157187D01*
X117825239Y-108002036D01*
X117557768Y-107882950D01*
X117276326Y-107802248D01*
X117271976Y-107801637D01*
X117271973Y-107801636D01*
X117165489Y-107786671D01*
X116986392Y-107761500D01*
X116766897Y-107761500D01*
X116764710Y-107761653D01*
X116764708Y-107761653D01*
X116552315Y-107776505D01*
X116552310Y-107776506D01*
X116547930Y-107776812D01*
X116543638Y-107777724D01*
X116543633Y-107777725D01*
X116396374Y-107809026D01*
X116261544Y-107837685D01*
X116257413Y-107839189D01*
X116257408Y-107839190D01*
X115990552Y-107936318D01*
X115990548Y-107936320D01*
X115986418Y-107937823D01*
X115727905Y-108075276D01*
X115724349Y-108077860D01*
X115724342Y-108077864D01*
X115506145Y-108236394D01*
X115491038Y-108247370D01*
X115487874Y-108250426D01*
X115487871Y-108250428D01*
X115446752Y-108290136D01*
X115280427Y-108450754D01*
X115189906Y-108566616D01*
X115107043Y-108672677D01*
X115100172Y-108681471D01*
X115097976Y-108685275D01*
X115097971Y-108685282D01*
X115008723Y-108839865D01*
X114953780Y-108935029D01*
X114844101Y-109206493D01*
X114843036Y-109210766D01*
X114843035Y-109210768D01*
X114834784Y-109243862D01*
X114773271Y-109490580D01*
X114772812Y-109494950D01*
X114772811Y-109494954D01*
X114747409Y-109736635D01*
X114742666Y-109781759D01*
X113462397Y-109781759D01*
X113615853Y-109670266D01*
X113650933Y-109631306D01*
X113739221Y-109533252D01*
X113739222Y-109533251D01*
X113743640Y-109528344D01*
X113821498Y-109393490D01*
X113835823Y-109368679D01*
X113835824Y-109368678D01*
X113839127Y-109362956D01*
X113898142Y-109181328D01*
X113900372Y-109160117D01*
X113917414Y-108997965D01*
X113918104Y-108991400D01*
X113907814Y-108893492D01*
X113898832Y-108808035D01*
X113898832Y-108808033D01*
X113898142Y-108801472D01*
X113839127Y-108619844D01*
X113743640Y-108454456D01*
X113615853Y-108312534D01*
X113610516Y-108308656D01*
X113610510Y-108308651D01*
X113588439Y-108292616D01*
X113545085Y-108236394D01*
X113536500Y-108190680D01*
X113536500Y-104498167D01*
X113537027Y-104486984D01*
X113538702Y-104479491D01*
X113536562Y-104411400D01*
X113536500Y-104407443D01*
X113536500Y-104379544D01*
X113535996Y-104375553D01*
X113535063Y-104363711D01*
X113533923Y-104327436D01*
X113533674Y-104319511D01*
X113531462Y-104311897D01*
X113531461Y-104311892D01*
X113528023Y-104300059D01*
X113524012Y-104280695D01*
X113522467Y-104268464D01*
X113521474Y-104260603D01*
X113518557Y-104253236D01*
X113518556Y-104253231D01*
X113505198Y-104219492D01*
X113501354Y-104208265D01*
X113493178Y-104180125D01*
X113489018Y-104165807D01*
X113478707Y-104148372D01*
X113470012Y-104130624D01*
X113462552Y-104111783D01*
X113436564Y-104076013D01*
X113430048Y-104066093D01*
X113411580Y-104034865D01*
X113411578Y-104034862D01*
X113407542Y-104028038D01*
X113393221Y-104013717D01*
X113380380Y-103998683D01*
X113373131Y-103988706D01*
X113368472Y-103982293D01*
X113362367Y-103977242D01*
X113362362Y-103977237D01*
X113334396Y-103954101D01*
X113325618Y-103946113D01*
X112487252Y-103107747D01*
X112479712Y-103099461D01*
X112475600Y-103092982D01*
X112425948Y-103046356D01*
X112423106Y-103043601D01*
X112403370Y-103023865D01*
X112400173Y-103021385D01*
X112391151Y-103013680D01*
X112358921Y-102983414D01*
X112351975Y-102979595D01*
X112351972Y-102979593D01*
X112341166Y-102973652D01*
X112324647Y-102962801D01*
X112324183Y-102962441D01*
X112308641Y-102950386D01*
X112301372Y-102947241D01*
X112301368Y-102947238D01*
X112268063Y-102932826D01*
X112257413Y-102927609D01*
X112218660Y-102906305D01*
X112199037Y-102901267D01*
X112180334Y-102894863D01*
X112169020Y-102889967D01*
X112169019Y-102889967D01*
X112161745Y-102886819D01*
X112153922Y-102885580D01*
X112153912Y-102885577D01*
X112118076Y-102879901D01*
X112106456Y-102877495D01*
X112071311Y-102868472D01*
X112071310Y-102868472D01*
X112063630Y-102866500D01*
X112043376Y-102866500D01*
X112023665Y-102864949D01*
X112011486Y-102863020D01*
X112003657Y-102861780D01*
X111995765Y-102862526D01*
X111959639Y-102865941D01*
X111947781Y-102866500D01*
X111663004Y-102866500D01*
X111594883Y-102846498D01*
X111559791Y-102812771D01*
X111470136Y-102684730D01*
X111470134Y-102684727D01*
X111466977Y-102680219D01*
X111309781Y-102523023D01*
X111305273Y-102519866D01*
X111305270Y-102519864D01*
X111179454Y-102431767D01*
X111127677Y-102395512D01*
X111122695Y-102393189D01*
X111122690Y-102393186D01*
X111031279Y-102350561D01*
X111017627Y-102344195D01*
X110964342Y-102297278D01*
X110944881Y-102229001D01*
X110965423Y-102161041D01*
X111017627Y-102115805D01*
X111122690Y-102066814D01*
X111122695Y-102066811D01*
X111127677Y-102064488D01*
X111267728Y-101966423D01*
X111305270Y-101940136D01*
X111305273Y-101940134D01*
X111309781Y-101936977D01*
X111466977Y-101779781D01*
X111475271Y-101767937D01*
X111591331Y-101602185D01*
X111591332Y-101602183D01*
X111594488Y-101597676D01*
X111596811Y-101592694D01*
X111596814Y-101592689D01*
X111686117Y-101401178D01*
X111686118Y-101401177D01*
X111688440Y-101396196D01*
X111696645Y-101365577D01*
X111715470Y-101295318D01*
X111745978Y-101181463D01*
X111765353Y-100960000D01*
X111745978Y-100738537D01*
X111688440Y-100523804D01*
X111686050Y-100518678D01*
X111596814Y-100327311D01*
X111596811Y-100327306D01*
X111594488Y-100322324D01*
X111538920Y-100242964D01*
X111470136Y-100144730D01*
X111470134Y-100144727D01*
X111466977Y-100140219D01*
X111309781Y-99983023D01*
X111305273Y-99979866D01*
X111305270Y-99979864D01*
X111177229Y-99890209D01*
X111132901Y-99834752D01*
X111123500Y-99786996D01*
X111123500Y-98316759D01*
X114867126Y-98316759D01*
X114867279Y-98321147D01*
X114867279Y-98321153D01*
X114876796Y-98593669D01*
X114877344Y-98609365D01*
X114878107Y-98613689D01*
X114878107Y-98613694D01*
X114896504Y-98718023D01*
X114928186Y-98897700D01*
X114929541Y-98901871D01*
X114929543Y-98901878D01*
X114978586Y-99052815D01*
X115018661Y-99176154D01*
X115020589Y-99180107D01*
X115020591Y-99180112D01*
X115028822Y-99196987D01*
X115147009Y-99439306D01*
X115310731Y-99682035D01*
X115313676Y-99685306D01*
X115313677Y-99685307D01*
X115352728Y-99728677D01*
X115506642Y-99899615D01*
X115730927Y-100087813D01*
X115979221Y-100242964D01*
X116246692Y-100362050D01*
X116250920Y-100363262D01*
X116250919Y-100363262D01*
X116496929Y-100433804D01*
X116528134Y-100442752D01*
X116532484Y-100443363D01*
X116532487Y-100443364D01*
X116638971Y-100458329D01*
X116818068Y-100483500D01*
X117037563Y-100483500D01*
X117039750Y-100483347D01*
X117039752Y-100483347D01*
X117252145Y-100468495D01*
X117252150Y-100468494D01*
X117256530Y-100468188D01*
X117260822Y-100467276D01*
X117260827Y-100467275D01*
X117437231Y-100429779D01*
X117542916Y-100407315D01*
X117547047Y-100405811D01*
X117547052Y-100405810D01*
X117813908Y-100308682D01*
X117813912Y-100308680D01*
X117818042Y-100307177D01*
X118076555Y-100169724D01*
X118080111Y-100167140D01*
X118080118Y-100167136D01*
X118309859Y-100000219D01*
X118309862Y-100000217D01*
X118313422Y-99997630D01*
X118331820Y-99979864D01*
X118465690Y-99850587D01*
X118524033Y-99794246D01*
X118677414Y-99597926D01*
X118701581Y-99566994D01*
X118701582Y-99566993D01*
X118704288Y-99563529D01*
X118706484Y-99559725D01*
X118706489Y-99559718D01*
X118848479Y-99313783D01*
X118850680Y-99309971D01*
X118960359Y-99038507D01*
X118966097Y-99015495D01*
X119016548Y-98813143D01*
X119031189Y-98754420D01*
X119044950Y-98623502D01*
X119061335Y-98467610D01*
X119061335Y-98467607D01*
X119061794Y-98463241D01*
X119061314Y-98449486D01*
X119051730Y-98175032D01*
X119051729Y-98175026D01*
X119051576Y-98170635D01*
X119050680Y-98165550D01*
X119016985Y-97974465D01*
X119000734Y-97882300D01*
X118999379Y-97878129D01*
X118999377Y-97878122D01*
X118911620Y-97608035D01*
X118910259Y-97603846D01*
X118908318Y-97599865D01*
X118809293Y-97396835D01*
X118781911Y-97340694D01*
X118618189Y-97097965D01*
X118571380Y-97045978D01*
X118425225Y-96883658D01*
X118422278Y-96880385D01*
X118225556Y-96715315D01*
X118201367Y-96695018D01*
X118201366Y-96695017D01*
X118197993Y-96692187D01*
X117949699Y-96537036D01*
X117682228Y-96417950D01*
X117400786Y-96337248D01*
X117396436Y-96336637D01*
X117396433Y-96336636D01*
X117289949Y-96321671D01*
X117110852Y-96296500D01*
X116891357Y-96296500D01*
X116889170Y-96296653D01*
X116889168Y-96296653D01*
X116676775Y-96311505D01*
X116676770Y-96311506D01*
X116672390Y-96311812D01*
X116668098Y-96312724D01*
X116668093Y-96312725D01*
X116491689Y-96350221D01*
X116386004Y-96372685D01*
X116381873Y-96374189D01*
X116381868Y-96374190D01*
X116115012Y-96471318D01*
X116115008Y-96471320D01*
X116110878Y-96472823D01*
X115852365Y-96610276D01*
X115848809Y-96612860D01*
X115848802Y-96612864D01*
X115653911Y-96754461D01*
X115615498Y-96782370D01*
X115612334Y-96785426D01*
X115612331Y-96785428D01*
X115562354Y-96833690D01*
X115404887Y-96985754D01*
X115224632Y-97216471D01*
X115222436Y-97220275D01*
X115222431Y-97220282D01*
X115152886Y-97340738D01*
X115078240Y-97470029D01*
X114968561Y-97741493D01*
X114967496Y-97745766D01*
X114967495Y-97745768D01*
X114948534Y-97821817D01*
X114897731Y-98025580D01*
X114897272Y-98029950D01*
X114897271Y-98029954D01*
X114867585Y-98312390D01*
X114867126Y-98316759D01*
X111123500Y-98316759D01*
X111123500Y-97723594D01*
X111143502Y-97655473D01*
X111160405Y-97634499D01*
X114971653Y-93823252D01*
X114979939Y-93815712D01*
X114986418Y-93811600D01*
X115033044Y-93761948D01*
X115035798Y-93759107D01*
X115055535Y-93739370D01*
X115058015Y-93736173D01*
X115065720Y-93727151D01*
X115090559Y-93700700D01*
X115095986Y-93694921D01*
X115099805Y-93687975D01*
X115099807Y-93687972D01*
X115105748Y-93677166D01*
X115116599Y-93660647D01*
X115124158Y-93650901D01*
X115129014Y-93644641D01*
X115132159Y-93637372D01*
X115132162Y-93637368D01*
X115146574Y-93604063D01*
X115151791Y-93593413D01*
X115173095Y-93554660D01*
X115178133Y-93535037D01*
X115184537Y-93516334D01*
X115189433Y-93505020D01*
X115189433Y-93505019D01*
X115192581Y-93497745D01*
X115193820Y-93489922D01*
X115193823Y-93489912D01*
X115199499Y-93454076D01*
X115201905Y-93442456D01*
X115210928Y-93407311D01*
X115210928Y-93407310D01*
X115212900Y-93399630D01*
X115212900Y-93379376D01*
X115214451Y-93359665D01*
X115216380Y-93347486D01*
X115217620Y-93339657D01*
X115213459Y-93295638D01*
X115212900Y-93283781D01*
X115212900Y-91172778D01*
X115232902Y-91104657D01*
X115286558Y-91058164D01*
X115356832Y-91048060D01*
X115419889Y-91076255D01*
X115606467Y-91232813D01*
X115854761Y-91387964D01*
X116122232Y-91507050D01*
X116403674Y-91587752D01*
X116408024Y-91588363D01*
X116408027Y-91588364D01*
X116514511Y-91603329D01*
X116693608Y-91628500D01*
X116913103Y-91628500D01*
X116915290Y-91628347D01*
X116915292Y-91628347D01*
X117127685Y-91613495D01*
X117127690Y-91613494D01*
X117132070Y-91613188D01*
X117136362Y-91612276D01*
X117136367Y-91612275D01*
X117312771Y-91574779D01*
X117418456Y-91552315D01*
X117422587Y-91550811D01*
X117422592Y-91550810D01*
X117689448Y-91453682D01*
X117689452Y-91453680D01*
X117693582Y-91452177D01*
X117713919Y-91441364D01*
X117827045Y-91381214D01*
X117952095Y-91314724D01*
X117955651Y-91312140D01*
X117955658Y-91312136D01*
X118185399Y-91145219D01*
X118185402Y-91145217D01*
X118188962Y-91142630D01*
X118223128Y-91109637D01*
X118360992Y-90976503D01*
X118399573Y-90939246D01*
X118579828Y-90708529D01*
X118582024Y-90704725D01*
X118582029Y-90704718D01*
X118724019Y-90458783D01*
X118726220Y-90454971D01*
X118835899Y-90183507D01*
X118906729Y-89899420D01*
X118916934Y-89802335D01*
X118936875Y-89612610D01*
X118936875Y-89612607D01*
X118937334Y-89608241D01*
X118934589Y-89529629D01*
X118927270Y-89320032D01*
X118927269Y-89320026D01*
X118927116Y-89315635D01*
X118920066Y-89275649D01*
X118896077Y-89139606D01*
X118876274Y-89027300D01*
X118874919Y-89023129D01*
X118874917Y-89023122D01*
X118793953Y-88773941D01*
X118785799Y-88748846D01*
X118758927Y-88693749D01*
X118685329Y-88542853D01*
X118657451Y-88485694D01*
X118493729Y-88242965D01*
X118470517Y-88217185D01*
X118300765Y-88028658D01*
X118297818Y-88025385D01*
X118073533Y-87837187D01*
X117825239Y-87682036D01*
X117557768Y-87562950D01*
X117396722Y-87516771D01*
X117280553Y-87483460D01*
X117280552Y-87483460D01*
X117276326Y-87482248D01*
X117271976Y-87481637D01*
X117271973Y-87481636D01*
X117165489Y-87466671D01*
X116986392Y-87441500D01*
X116766897Y-87441500D01*
X116764710Y-87441653D01*
X116764708Y-87441653D01*
X116552315Y-87456505D01*
X116552310Y-87456506D01*
X116547930Y-87456812D01*
X116543638Y-87457724D01*
X116543633Y-87457725D01*
X116398510Y-87488572D01*
X116261544Y-87517685D01*
X116257413Y-87519189D01*
X116257408Y-87519190D01*
X115990552Y-87616318D01*
X115990548Y-87616320D01*
X115986418Y-87617823D01*
X115982537Y-87619887D01*
X115982536Y-87619887D01*
X115935807Y-87644733D01*
X115727905Y-87755276D01*
X115724349Y-87757860D01*
X115724342Y-87757864D01*
X115529911Y-87899127D01*
X115491038Y-87927370D01*
X115430319Y-87986006D01*
X115426427Y-87989764D01*
X115363530Y-88022696D01*
X115292814Y-88016396D01*
X115236729Y-87972864D01*
X115212900Y-87899127D01*
X115212900Y-84808167D01*
X115213427Y-84796984D01*
X115215102Y-84789491D01*
X115212962Y-84721400D01*
X115212900Y-84717443D01*
X115212900Y-84689544D01*
X115212396Y-84685553D01*
X115211463Y-84673711D01*
X115211393Y-84671463D01*
X115210074Y-84629511D01*
X115207862Y-84621897D01*
X115207861Y-84621892D01*
X115204423Y-84610059D01*
X115200412Y-84590695D01*
X115198867Y-84578464D01*
X115197874Y-84570603D01*
X115194957Y-84563236D01*
X115194956Y-84563231D01*
X115181598Y-84529492D01*
X115177754Y-84518265D01*
X115170391Y-84492924D01*
X115165418Y-84475807D01*
X115155107Y-84458372D01*
X115146412Y-84440624D01*
X115138952Y-84421783D01*
X115112964Y-84386013D01*
X115106448Y-84376093D01*
X115087980Y-84344865D01*
X115087978Y-84344862D01*
X115083942Y-84338038D01*
X115069621Y-84323717D01*
X115056780Y-84308683D01*
X115049531Y-84298706D01*
X115044872Y-84292293D01*
X115010795Y-84264102D01*
X115002016Y-84256112D01*
X111768126Y-81022221D01*
X111734100Y-80959909D01*
X111735515Y-80900514D01*
X111744553Y-80866783D01*
X111744554Y-80866776D01*
X111745978Y-80861463D01*
X111765353Y-80640000D01*
X111745978Y-80418537D01*
X111688440Y-80203804D01*
X111685391Y-80197266D01*
X111596814Y-80007311D01*
X111596811Y-80007306D01*
X111594488Y-80002324D01*
X111581581Y-79983891D01*
X111470136Y-79824730D01*
X111470134Y-79824727D01*
X111466977Y-79820219D01*
X111309781Y-79663023D01*
X111305273Y-79659866D01*
X111305270Y-79659864D01*
X111185988Y-79576342D01*
X111127677Y-79535512D01*
X111122695Y-79533189D01*
X111122690Y-79533186D01*
X110931178Y-79443883D01*
X110931177Y-79443882D01*
X110926196Y-79441560D01*
X110920888Y-79440138D01*
X110920886Y-79440137D01*
X110855051Y-79422497D01*
X110711463Y-79384022D01*
X110490000Y-79364647D01*
X110268537Y-79384022D01*
X110124949Y-79422497D01*
X110059114Y-79440137D01*
X110059112Y-79440138D01*
X110053804Y-79441560D01*
X110048823Y-79443882D01*
X110048822Y-79443883D01*
X109857311Y-79533186D01*
X109857306Y-79533189D01*
X109852324Y-79535512D01*
X109847817Y-79538668D01*
X109847815Y-79538669D01*
X109674730Y-79659864D01*
X109674727Y-79659866D01*
X109670219Y-79663023D01*
X109513023Y-79820219D01*
X109509866Y-79824727D01*
X109509864Y-79824730D01*
X109398419Y-79983891D01*
X109385512Y-80002324D01*
X109383189Y-80007306D01*
X109383186Y-80007311D01*
X109294609Y-80197266D01*
X109291560Y-80203804D01*
X109234022Y-80418537D01*
X109214647Y-80640000D01*
X109234022Y-80861463D01*
X109291560Y-81076196D01*
X109293882Y-81081177D01*
X109293883Y-81081178D01*
X109383186Y-81272689D01*
X109383189Y-81272694D01*
X109385512Y-81277676D01*
X109388668Y-81282183D01*
X109388669Y-81282185D01*
X109474052Y-81404124D01*
X109513023Y-81459781D01*
X109670219Y-81616977D01*
X109674727Y-81620134D01*
X109674730Y-81620136D01*
X109716639Y-81649481D01*
X109852323Y-81744488D01*
X109857305Y-81746811D01*
X109857310Y-81746814D01*
X109962373Y-81795805D01*
X110015658Y-81842722D01*
X110035119Y-81910999D01*
X110014577Y-81978959D01*
X109962373Y-82024195D01*
X109857311Y-82073186D01*
X109857306Y-82073189D01*
X109852324Y-82075512D01*
X109847817Y-82078668D01*
X109847815Y-82078669D01*
X109674730Y-82199864D01*
X109674727Y-82199866D01*
X109670219Y-82203023D01*
X109513023Y-82360219D01*
X109509866Y-82364727D01*
X109509864Y-82364730D01*
X109389073Y-82537238D01*
X109385512Y-82542324D01*
X109383189Y-82547306D01*
X109383186Y-82547311D01*
X109302807Y-82719684D01*
X109291560Y-82743804D01*
X109290138Y-82749112D01*
X109290137Y-82749114D01*
X109288880Y-82753807D01*
X109234022Y-82958537D01*
X109214647Y-83180000D01*
X109234022Y-83401463D01*
X109291560Y-83616196D01*
X109293882Y-83621177D01*
X109293883Y-83621178D01*
X109383186Y-83812689D01*
X109383189Y-83812694D01*
X109385512Y-83817676D01*
X109513023Y-83999781D01*
X109670219Y-84156977D01*
X109674727Y-84160134D01*
X109674730Y-84160136D01*
X109723790Y-84194488D01*
X109852323Y-84284488D01*
X109857305Y-84286811D01*
X109857310Y-84286814D01*
X109962373Y-84335805D01*
X110015658Y-84382722D01*
X110035119Y-84450999D01*
X110014577Y-84518959D01*
X109962373Y-84564195D01*
X109857311Y-84613186D01*
X109857306Y-84613189D01*
X109852324Y-84615512D01*
X109847817Y-84618668D01*
X109847815Y-84618669D01*
X109674730Y-84739864D01*
X109674727Y-84739866D01*
X109670219Y-84743023D01*
X109513023Y-84900219D01*
X109509866Y-84904727D01*
X109509864Y-84904730D01*
X109431104Y-85017212D01*
X109385512Y-85082324D01*
X109383189Y-85087306D01*
X109383186Y-85087311D01*
X109299826Y-85266078D01*
X109291560Y-85283804D01*
X109290138Y-85289112D01*
X109290137Y-85289114D01*
X109286090Y-85304218D01*
X109234022Y-85498537D01*
X109214647Y-85720000D01*
X109234022Y-85941463D01*
X109291560Y-86156196D01*
X109293882Y-86161177D01*
X109293883Y-86161178D01*
X109383186Y-86352689D01*
X109383189Y-86352694D01*
X109385512Y-86357676D01*
X109513023Y-86539781D01*
X109670219Y-86696977D01*
X109674727Y-86700134D01*
X109674730Y-86700136D01*
X109761350Y-86760788D01*
X109805678Y-86816245D01*
X109812987Y-86886865D01*
X109780956Y-86950225D01*
X109719755Y-86986210D01*
X109689079Y-86990001D01*
X109683331Y-86990001D01*
X109676510Y-86990371D01*
X109625648Y-86995895D01*
X109610396Y-86999521D01*
X109489946Y-87044676D01*
X109474356Y-87053211D01*
X109426439Y-87089123D01*
X109359932Y-87113970D01*
X109290550Y-87098917D01*
X109240320Y-87048742D01*
X109225342Y-86990127D01*
X109225353Y-86990000D01*
X109205978Y-86768537D01*
X109148440Y-86553804D01*
X109143718Y-86543678D01*
X109056814Y-86357311D01*
X109056811Y-86357306D01*
X109054488Y-86352324D01*
X108926977Y-86170219D01*
X108769781Y-86013023D01*
X108765273Y-86009866D01*
X108765270Y-86009864D01*
X108614483Y-85904282D01*
X108587677Y-85885512D01*
X108582695Y-85883189D01*
X108582690Y-85883186D01*
X108477627Y-85834195D01*
X108424342Y-85787278D01*
X108404881Y-85719001D01*
X108425423Y-85651041D01*
X108477627Y-85605805D01*
X108582690Y-85556814D01*
X108582695Y-85556811D01*
X108587677Y-85554488D01*
X108716711Y-85464137D01*
X108765270Y-85430136D01*
X108765273Y-85430134D01*
X108769781Y-85426977D01*
X108926977Y-85269781D01*
X108941091Y-85249625D01*
X109051331Y-85092185D01*
X109051332Y-85092183D01*
X109054488Y-85087676D01*
X109056811Y-85082694D01*
X109056814Y-85082689D01*
X109146117Y-84891178D01*
X109146118Y-84891177D01*
X109148440Y-84886196D01*
X109205978Y-84671463D01*
X109225353Y-84450000D01*
X109205978Y-84228537D01*
X109148440Y-84013804D01*
X109140613Y-83997018D01*
X109056814Y-83817311D01*
X109056811Y-83817306D01*
X109054488Y-83812324D01*
X109047207Y-83801925D01*
X108930136Y-83634730D01*
X108930134Y-83634727D01*
X108926977Y-83630219D01*
X108769781Y-83473023D01*
X108765273Y-83469866D01*
X108765270Y-83469864D01*
X108656782Y-83393900D01*
X108587677Y-83345512D01*
X108582695Y-83343189D01*
X108582690Y-83343186D01*
X108482397Y-83296419D01*
X108429112Y-83249502D01*
X108409651Y-83181224D01*
X108430193Y-83113264D01*
X108482397Y-83068029D01*
X108582445Y-83021376D01*
X108591931Y-83015898D01*
X108635764Y-82985207D01*
X108644139Y-82974729D01*
X108637071Y-82961281D01*
X107962812Y-82287022D01*
X107948868Y-82279408D01*
X107947035Y-82279539D01*
X107940420Y-82283790D01*
X107262207Y-82962003D01*
X107255777Y-82973777D01*
X107265074Y-82985793D01*
X107308069Y-83015898D01*
X107317555Y-83021376D01*
X107417604Y-83068029D01*
X107470889Y-83114946D01*
X107490350Y-83183223D01*
X107469808Y-83251183D01*
X107417604Y-83296419D01*
X107317311Y-83343186D01*
X107317306Y-83343189D01*
X107312324Y-83345512D01*
X107307817Y-83348668D01*
X107307815Y-83348669D01*
X107134730Y-83469864D01*
X107134727Y-83469866D01*
X107130219Y-83473023D01*
X106973023Y-83630219D01*
X106969866Y-83634727D01*
X106969864Y-83634730D01*
X106852793Y-83801925D01*
X106845512Y-83812324D01*
X106843189Y-83817306D01*
X106843186Y-83817311D01*
X106759387Y-83997018D01*
X106751560Y-84013804D01*
X106703146Y-84194488D01*
X106697607Y-84215158D01*
X106660655Y-84275781D01*
X106596794Y-84306802D01*
X106526300Y-84298374D01*
X106471553Y-84253171D01*
X106449900Y-84182547D01*
X106449900Y-82180519D01*
X106469902Y-82112398D01*
X106523558Y-82065905D01*
X106593832Y-82055801D01*
X106658412Y-82085295D01*
X106697607Y-82147908D01*
X106750609Y-82345715D01*
X106754355Y-82356007D01*
X106843623Y-82547441D01*
X106849103Y-82556932D01*
X106879794Y-82600765D01*
X106890271Y-82609140D01*
X106903718Y-82602072D01*
X107577978Y-81927812D01*
X107584356Y-81916132D01*
X108314408Y-81916132D01*
X108314539Y-81917965D01*
X108318790Y-81924580D01*
X108997003Y-82602793D01*
X109008777Y-82609223D01*
X109020793Y-82599926D01*
X109050897Y-82556932D01*
X109056377Y-82547441D01*
X109145645Y-82356007D01*
X109149391Y-82345715D01*
X109204059Y-82141691D01*
X109205962Y-82130896D01*
X109224372Y-81920475D01*
X109224372Y-81909525D01*
X109205962Y-81699104D01*
X109204059Y-81688309D01*
X109149391Y-81484285D01*
X109145645Y-81473993D01*
X109056377Y-81282559D01*
X109050897Y-81273068D01*
X109020206Y-81229235D01*
X109009729Y-81220860D01*
X108996282Y-81227928D01*
X108322022Y-81902188D01*
X108314408Y-81916132D01*
X107584356Y-81916132D01*
X107585592Y-81913868D01*
X107585461Y-81912035D01*
X107581210Y-81905420D01*
X106902997Y-81227207D01*
X106891223Y-81220777D01*
X106879207Y-81230074D01*
X106849103Y-81273068D01*
X106843623Y-81282559D01*
X106754355Y-81473993D01*
X106750609Y-81484285D01*
X106697607Y-81682092D01*
X106660655Y-81742715D01*
X106596795Y-81773736D01*
X106526300Y-81765308D01*
X106471553Y-81720105D01*
X106449900Y-81649481D01*
X106449900Y-80654795D01*
X106469902Y-80586674D01*
X106486805Y-80565699D01*
X106826279Y-80226226D01*
X106888591Y-80192201D01*
X106959407Y-80197266D01*
X107004469Y-80226227D01*
X107130219Y-80351977D01*
X107134727Y-80355134D01*
X107134730Y-80355136D01*
X107185769Y-80390874D01*
X107312323Y-80479488D01*
X107317305Y-80481811D01*
X107317310Y-80481814D01*
X107422965Y-80531081D01*
X107476250Y-80577998D01*
X107495711Y-80646275D01*
X107475169Y-80714235D01*
X107422965Y-80759471D01*
X107317559Y-80808623D01*
X107308068Y-80814103D01*
X107264235Y-80844794D01*
X107255860Y-80855271D01*
X107262928Y-80868718D01*
X107937188Y-81542978D01*
X107951132Y-81550592D01*
X107952965Y-81550461D01*
X107959580Y-81546210D01*
X108637793Y-80867997D01*
X108644223Y-80856223D01*
X108634926Y-80844207D01*
X108591931Y-80814102D01*
X108582445Y-80808624D01*
X108477035Y-80759471D01*
X108423750Y-80712554D01*
X108404289Y-80644277D01*
X108424831Y-80576317D01*
X108477035Y-80531081D01*
X108582690Y-80481814D01*
X108582695Y-80481811D01*
X108587677Y-80479488D01*
X108714231Y-80390874D01*
X108765270Y-80355136D01*
X108765273Y-80355134D01*
X108769781Y-80351977D01*
X108926977Y-80194781D01*
X108944408Y-80169888D01*
X109051331Y-80017185D01*
X109051332Y-80017183D01*
X109054488Y-80012676D01*
X109056811Y-80007694D01*
X109056814Y-80007689D01*
X109146117Y-79816178D01*
X109146118Y-79816177D01*
X109148440Y-79811196D01*
X109158791Y-79772568D01*
X109184229Y-79677630D01*
X109205978Y-79596463D01*
X109225353Y-79375000D01*
X109205978Y-79153537D01*
X109152777Y-78954989D01*
X109149863Y-78944114D01*
X109149862Y-78944112D01*
X109148440Y-78938804D01*
X109137637Y-78915637D01*
X109056814Y-78742311D01*
X109056811Y-78742306D01*
X109054488Y-78737324D01*
X108987642Y-78641858D01*
X108930136Y-78559730D01*
X108930134Y-78559727D01*
X108926977Y-78555219D01*
X108769781Y-78398023D01*
X108765273Y-78394866D01*
X108765270Y-78394864D01*
X108620784Y-78293694D01*
X108587677Y-78270512D01*
X108582695Y-78268189D01*
X108582690Y-78268186D01*
X108391178Y-78178883D01*
X108391177Y-78178882D01*
X108386196Y-78176560D01*
X108380888Y-78175138D01*
X108380886Y-78175137D01*
X108278154Y-78147610D01*
X108171463Y-78119022D01*
X107950000Y-78099647D01*
X107728537Y-78119022D01*
X107621846Y-78147610D01*
X107519114Y-78175137D01*
X107519112Y-78175138D01*
X107513804Y-78176560D01*
X107508823Y-78178882D01*
X107508822Y-78178883D01*
X107317311Y-78268186D01*
X107317306Y-78268189D01*
X107312324Y-78270512D01*
X107307817Y-78273668D01*
X107307815Y-78273669D01*
X107134730Y-78394864D01*
X107134727Y-78394866D01*
X107130219Y-78398023D01*
X106973023Y-78555219D01*
X106969865Y-78559729D01*
X106969860Y-78559735D01*
X106880375Y-78687534D01*
X106824918Y-78731863D01*
X106781116Y-78741202D01*
X106777145Y-78741327D01*
X106773596Y-78741438D01*
X106769643Y-78741500D01*
X106741744Y-78741500D01*
X106737754Y-78742004D01*
X106725920Y-78742936D01*
X106681711Y-78744326D01*
X106674097Y-78746538D01*
X106674092Y-78746539D01*
X106662259Y-78749977D01*
X106642896Y-78753988D01*
X106622803Y-78756526D01*
X106615436Y-78759443D01*
X106615431Y-78759444D01*
X106581692Y-78772802D01*
X106570465Y-78776646D01*
X106528007Y-78788982D01*
X106521181Y-78793019D01*
X106510572Y-78799293D01*
X106492824Y-78807988D01*
X106473983Y-78815448D01*
X106467567Y-78820110D01*
X106467566Y-78820110D01*
X106438213Y-78841436D01*
X106428293Y-78847952D01*
X106397065Y-78866420D01*
X106397062Y-78866422D01*
X106390238Y-78870458D01*
X106375917Y-78884779D01*
X106360884Y-78897619D01*
X106344493Y-78909528D01*
X106339443Y-78915632D01*
X106339438Y-78915637D01*
X106316307Y-78943598D01*
X106308317Y-78952379D01*
X105424142Y-79836553D01*
X105415863Y-79844087D01*
X105409382Y-79848200D01*
X105364028Y-79896498D01*
X105362757Y-79897851D01*
X105360002Y-79900693D01*
X105340265Y-79920430D01*
X105337785Y-79923627D01*
X105330082Y-79932647D01*
X105299814Y-79964879D01*
X105295995Y-79971825D01*
X105295993Y-79971828D01*
X105290052Y-79982634D01*
X105279201Y-79999153D01*
X105266786Y-80015159D01*
X105263641Y-80022428D01*
X105263638Y-80022432D01*
X105249226Y-80055737D01*
X105244009Y-80066387D01*
X105222705Y-80105140D01*
X105220734Y-80112815D01*
X105220734Y-80112816D01*
X105217667Y-80124762D01*
X105211263Y-80143466D01*
X105203219Y-80162055D01*
X105201980Y-80169878D01*
X105201977Y-80169888D01*
X105196301Y-80205724D01*
X105193895Y-80217344D01*
X105187929Y-80240583D01*
X105182900Y-80260170D01*
X105182900Y-80280424D01*
X105181349Y-80300134D01*
X105178180Y-80320143D01*
X105178926Y-80328035D01*
X105182341Y-80364161D01*
X105182900Y-80376019D01*
X105182900Y-97482633D01*
X105182373Y-97493816D01*
X105180698Y-97501309D01*
X105180947Y-97509235D01*
X105180947Y-97509236D01*
X105182838Y-97569386D01*
X105182900Y-97573345D01*
X105182900Y-97601256D01*
X105183397Y-97605190D01*
X105183397Y-97605191D01*
X105183405Y-97605256D01*
X105184338Y-97617093D01*
X105185727Y-97661289D01*
X105190230Y-97676788D01*
X105191378Y-97680739D01*
X105195387Y-97700100D01*
X105197926Y-97720197D01*
X105200845Y-97727568D01*
X105200845Y-97727570D01*
X105214204Y-97761312D01*
X105218049Y-97772542D01*
X105227473Y-97804980D01*
X105230382Y-97814993D01*
X105234415Y-97821812D01*
X105234417Y-97821817D01*
X105240693Y-97832428D01*
X105249388Y-97850176D01*
X105256848Y-97869017D01*
X105261510Y-97875433D01*
X105261510Y-97875434D01*
X105282836Y-97904787D01*
X105289352Y-97914707D01*
X105307001Y-97944549D01*
X105311858Y-97952762D01*
X105326179Y-97967083D01*
X105339019Y-97982116D01*
X105350928Y-97998507D01*
X105357034Y-98003558D01*
X105385005Y-98026698D01*
X105393784Y-98034688D01*
X106671874Y-99312779D01*
X106705900Y-99375091D01*
X106704485Y-99434486D01*
X106695447Y-99468217D01*
X106695446Y-99468223D01*
X106694022Y-99473537D01*
X106674647Y-99695000D01*
X106694022Y-99916463D01*
X106751560Y-100131196D01*
X106753882Y-100136177D01*
X106753883Y-100136178D01*
X106843186Y-100327689D01*
X106843189Y-100327694D01*
X106845512Y-100332676D01*
X106848668Y-100337183D01*
X106848669Y-100337185D01*
X106951013Y-100483347D01*
X106973023Y-100514781D01*
X107130219Y-100671977D01*
X107134727Y-100675134D01*
X107134730Y-100675136D01*
X107210495Y-100728187D01*
X107312323Y-100799488D01*
X107317305Y-100801811D01*
X107317310Y-100801814D01*
X107366525Y-100824763D01*
X107406000Y-100843170D01*
X107422965Y-100851081D01*
X107476250Y-100897998D01*
X107495711Y-100966275D01*
X107475169Y-101034235D01*
X107422965Y-101079471D01*
X107317559Y-101128623D01*
X107308068Y-101134103D01*
X107264235Y-101164794D01*
X107255860Y-101175271D01*
X107262928Y-101188718D01*
X107937188Y-101862978D01*
X107951132Y-101870592D01*
X107952965Y-101870461D01*
X107959580Y-101866210D01*
X108637793Y-101187997D01*
X108644223Y-101176223D01*
X108634926Y-101164207D01*
X108591931Y-101134102D01*
X108582445Y-101128624D01*
X108477035Y-101079471D01*
X108423750Y-101032554D01*
X108404289Y-100964277D01*
X108424831Y-100896317D01*
X108477035Y-100851081D01*
X108494001Y-100843170D01*
X108533475Y-100824763D01*
X108582690Y-100801814D01*
X108582695Y-100801811D01*
X108587677Y-100799488D01*
X108689505Y-100728187D01*
X108765270Y-100675136D01*
X108765273Y-100675134D01*
X108769781Y-100671977D01*
X108926977Y-100514781D01*
X108948988Y-100483347D01*
X109051331Y-100337185D01*
X109051332Y-100337183D01*
X109054488Y-100332676D01*
X109056811Y-100327694D01*
X109056814Y-100327689D01*
X109146117Y-100136178D01*
X109146118Y-100136177D01*
X109148440Y-100131196D01*
X109205978Y-99916463D01*
X109225353Y-99695000D01*
X109205978Y-99473537D01*
X109148440Y-99258804D01*
X109119614Y-99196987D01*
X109056814Y-99062311D01*
X109056811Y-99062306D01*
X109054488Y-99057324D01*
X109037608Y-99033217D01*
X108930136Y-98879730D01*
X108930134Y-98879727D01*
X108926977Y-98875219D01*
X108769781Y-98718023D01*
X108765273Y-98714866D01*
X108765270Y-98714864D01*
X108620784Y-98613694D01*
X108587677Y-98590512D01*
X108582695Y-98588189D01*
X108582690Y-98588186D01*
X108391178Y-98498883D01*
X108391177Y-98498882D01*
X108386196Y-98496560D01*
X108380888Y-98495138D01*
X108380886Y-98495137D01*
X108278154Y-98467610D01*
X108171463Y-98439022D01*
X107950000Y-98419647D01*
X107728537Y-98439022D01*
X107723222Y-98440446D01*
X107723223Y-98440446D01*
X107689484Y-98449486D01*
X107618507Y-98447796D01*
X107567778Y-98416874D01*
X107033205Y-97882300D01*
X106486805Y-97335900D01*
X106452779Y-97273588D01*
X106449900Y-97246805D01*
X106449900Y-89066669D01*
X109220001Y-89066669D01*
X109220371Y-89073490D01*
X109225895Y-89124352D01*
X109229521Y-89139604D01*
X109274676Y-89260054D01*
X109283214Y-89275649D01*
X109359715Y-89377724D01*
X109372276Y-89390285D01*
X109474351Y-89466786D01*
X109489946Y-89475324D01*
X109610394Y-89520478D01*
X109625649Y-89524105D01*
X109676514Y-89529631D01*
X109683328Y-89530000D01*
X110217885Y-89530000D01*
X110233124Y-89525525D01*
X110234329Y-89524135D01*
X110236000Y-89516452D01*
X110236000Y-89511884D01*
X110744000Y-89511884D01*
X110748475Y-89527123D01*
X110749865Y-89528328D01*
X110757548Y-89529999D01*
X111296669Y-89529999D01*
X111303490Y-89529629D01*
X111354352Y-89524105D01*
X111369604Y-89520479D01*
X111490054Y-89475324D01*
X111505649Y-89466786D01*
X111607724Y-89390285D01*
X111620285Y-89377724D01*
X111696786Y-89275649D01*
X111705324Y-89260054D01*
X111750478Y-89139606D01*
X111754105Y-89124351D01*
X111759631Y-89073486D01*
X111760000Y-89066672D01*
X111760000Y-88532115D01*
X111755525Y-88516876D01*
X111754135Y-88515671D01*
X111746452Y-88514000D01*
X110762115Y-88514000D01*
X110746876Y-88518475D01*
X110745671Y-88519865D01*
X110744000Y-88527548D01*
X110744000Y-89511884D01*
X110236000Y-89511884D01*
X110236000Y-88532115D01*
X110231525Y-88516876D01*
X110230135Y-88515671D01*
X110222452Y-88514000D01*
X109238116Y-88514000D01*
X109222877Y-88518475D01*
X109221672Y-88519865D01*
X109220001Y-88527548D01*
X109220001Y-89066669D01*
X106449900Y-89066669D01*
X106449900Y-87257453D01*
X106469902Y-87189332D01*
X106523558Y-87142839D01*
X106593832Y-87132735D01*
X106658412Y-87162229D01*
X106697607Y-87224842D01*
X106743375Y-87395648D01*
X106751560Y-87426196D01*
X106753882Y-87431177D01*
X106753883Y-87431178D01*
X106843186Y-87622689D01*
X106843189Y-87622694D01*
X106845512Y-87627676D01*
X106848668Y-87632183D01*
X106848669Y-87632185D01*
X106968801Y-87803751D01*
X106973023Y-87809781D01*
X107130219Y-87966977D01*
X107134727Y-87970134D01*
X107134730Y-87970136D01*
X107181842Y-88003124D01*
X107312323Y-88094488D01*
X107317305Y-88096811D01*
X107317310Y-88096814D01*
X107493062Y-88178768D01*
X107513804Y-88188440D01*
X107519112Y-88189862D01*
X107519114Y-88189863D01*
X107535916Y-88194365D01*
X107728537Y-88245978D01*
X107950000Y-88265353D01*
X108171463Y-88245978D01*
X108364084Y-88194365D01*
X108380886Y-88189863D01*
X108380888Y-88189862D01*
X108386196Y-88188440D01*
X108406938Y-88178768D01*
X108582690Y-88096814D01*
X108582695Y-88096811D01*
X108587677Y-88094488D01*
X108718158Y-88003124D01*
X108765270Y-87970136D01*
X108765273Y-87970134D01*
X108769781Y-87966977D01*
X108926977Y-87809781D01*
X108931200Y-87803751D01*
X108990787Y-87718651D01*
X109046244Y-87674323D01*
X109116863Y-87667014D01*
X109180224Y-87699045D01*
X109216209Y-87760246D01*
X109220000Y-87790922D01*
X109220000Y-87987885D01*
X109224475Y-88003124D01*
X109225865Y-88004329D01*
X109233548Y-88006000D01*
X111741884Y-88006000D01*
X111757123Y-88001525D01*
X111773292Y-87982865D01*
X111833018Y-87944481D01*
X111904015Y-87944481D01*
X111963741Y-87982864D01*
X111993827Y-88052207D01*
X112002083Y-88130754D01*
X112009458Y-88200928D01*
X112068473Y-88382556D01*
X112163960Y-88547944D01*
X112168378Y-88552851D01*
X112168379Y-88552852D01*
X112207974Y-88596827D01*
X112291747Y-88689866D01*
X112346370Y-88729552D01*
X112440535Y-88797967D01*
X112446248Y-88802118D01*
X112452276Y-88804802D01*
X112452278Y-88804803D01*
X112614681Y-88877109D01*
X112620712Y-88879794D01*
X112714112Y-88899647D01*
X112801056Y-88918128D01*
X112801061Y-88918128D01*
X112807513Y-88919500D01*
X112998487Y-88919500D01*
X113004939Y-88918128D01*
X113004944Y-88918128D01*
X113091888Y-88899647D01*
X113185288Y-88879794D01*
X113191319Y-88877109D01*
X113353722Y-88804803D01*
X113353724Y-88804802D01*
X113359752Y-88802118D01*
X113365466Y-88797967D01*
X113459630Y-88729552D01*
X113514253Y-88689866D01*
X113598026Y-88596827D01*
X113637621Y-88552852D01*
X113637622Y-88552851D01*
X113642040Y-88547944D01*
X113710781Y-88428881D01*
X113762163Y-88379888D01*
X113831877Y-88366452D01*
X113897788Y-88392838D01*
X113938970Y-88450670D01*
X113945900Y-88491881D01*
X113945900Y-93005006D01*
X113925898Y-93073127D01*
X113908995Y-93094101D01*
X110097747Y-96905348D01*
X110089461Y-96912888D01*
X110082982Y-96917000D01*
X110077557Y-96922777D01*
X110036357Y-96966651D01*
X110033602Y-96969493D01*
X110013865Y-96989230D01*
X110011385Y-96992427D01*
X110003682Y-97001447D01*
X109973414Y-97033679D01*
X109969595Y-97040625D01*
X109969593Y-97040628D01*
X109963652Y-97051434D01*
X109952801Y-97067953D01*
X109940386Y-97083959D01*
X109937241Y-97091228D01*
X109937238Y-97091232D01*
X109922826Y-97124537D01*
X109917609Y-97135187D01*
X109896305Y-97173940D01*
X109894334Y-97181615D01*
X109894334Y-97181616D01*
X109891267Y-97193562D01*
X109884863Y-97212266D01*
X109876819Y-97230855D01*
X109875580Y-97238678D01*
X109875577Y-97238688D01*
X109869901Y-97274524D01*
X109867495Y-97286144D01*
X109856500Y-97328970D01*
X109856500Y-97349224D01*
X109854949Y-97368934D01*
X109851780Y-97388943D01*
X109852526Y-97396835D01*
X109855941Y-97432961D01*
X109856500Y-97444819D01*
X109856500Y-99786996D01*
X109836498Y-99855117D01*
X109802771Y-99890209D01*
X109674730Y-99979864D01*
X109674727Y-99979866D01*
X109670219Y-99983023D01*
X109513023Y-100140219D01*
X109509866Y-100144727D01*
X109509864Y-100144730D01*
X109441080Y-100242964D01*
X109385512Y-100322324D01*
X109383189Y-100327306D01*
X109383186Y-100327311D01*
X109293950Y-100518678D01*
X109291560Y-100523804D01*
X109234022Y-100738537D01*
X109214647Y-100960000D01*
X109234022Y-101181463D01*
X109264530Y-101295318D01*
X109283356Y-101365577D01*
X109291560Y-101396196D01*
X109293882Y-101401177D01*
X109293883Y-101401178D01*
X109383186Y-101592689D01*
X109383189Y-101592694D01*
X109385512Y-101597676D01*
X109388668Y-101602183D01*
X109388669Y-101602185D01*
X109504730Y-101767937D01*
X109513023Y-101779781D01*
X109670219Y-101936977D01*
X109674727Y-101940134D01*
X109674730Y-101940136D01*
X109712272Y-101966423D01*
X109852323Y-102064488D01*
X109857305Y-102066811D01*
X109857310Y-102066814D01*
X109962373Y-102115805D01*
X110015658Y-102162722D01*
X110035119Y-102230999D01*
X110014577Y-102298959D01*
X109962373Y-102344195D01*
X109857311Y-102393186D01*
X109857306Y-102393189D01*
X109852324Y-102395512D01*
X109847817Y-102398668D01*
X109847815Y-102398669D01*
X109674730Y-102519864D01*
X109674727Y-102519866D01*
X109670219Y-102523023D01*
X109513023Y-102680219D01*
X109509866Y-102684727D01*
X109509864Y-102684730D01*
X109390627Y-102855019D01*
X109385512Y-102862324D01*
X109383189Y-102867306D01*
X109383186Y-102867311D01*
X109301011Y-103043536D01*
X109291560Y-103063804D01*
X109234022Y-103278537D01*
X109214647Y-103500000D01*
X109234022Y-103721463D01*
X109291560Y-103936196D01*
X109293882Y-103941177D01*
X109293883Y-103941178D01*
X109383186Y-104132689D01*
X109383189Y-104132694D01*
X109385512Y-104137676D01*
X109388668Y-104142183D01*
X109388669Y-104142185D01*
X109499214Y-104300059D01*
X109513023Y-104319781D01*
X109670219Y-104476977D01*
X109674727Y-104480134D01*
X109674730Y-104480136D01*
X109687878Y-104489342D01*
X109852323Y-104604488D01*
X109857305Y-104606811D01*
X109857310Y-104606814D01*
X109962373Y-104655805D01*
X110015658Y-104702722D01*
X110035119Y-104770999D01*
X110014577Y-104838959D01*
X109962373Y-104884195D01*
X109857311Y-104933186D01*
X109857306Y-104933189D01*
X109852324Y-104935512D01*
X109847817Y-104938668D01*
X109847815Y-104938669D01*
X109674730Y-105059864D01*
X109674727Y-105059866D01*
X109670219Y-105063023D01*
X109513023Y-105220219D01*
X109509866Y-105224727D01*
X109509864Y-105224730D01*
X109466850Y-105286161D01*
X109385512Y-105402324D01*
X109383189Y-105407306D01*
X109383186Y-105407311D01*
X109298099Y-105589781D01*
X109291560Y-105603804D01*
X109234022Y-105818537D01*
X109214647Y-106040000D01*
X109234022Y-106261463D01*
X109291560Y-106476196D01*
X109293882Y-106481177D01*
X109293883Y-106481178D01*
X109383186Y-106672689D01*
X109383189Y-106672694D01*
X109385512Y-106677676D01*
X109513023Y-106859781D01*
X109670219Y-107016977D01*
X109674727Y-107020134D01*
X109674730Y-107020136D01*
X109761350Y-107080788D01*
X109805678Y-107136245D01*
X109812987Y-107206865D01*
X109780956Y-107270225D01*
X109719755Y-107306210D01*
X109689079Y-107310001D01*
X109683331Y-107310001D01*
X109676510Y-107310371D01*
X109625648Y-107315895D01*
X109610396Y-107319521D01*
X109489946Y-107364676D01*
X109474356Y-107373211D01*
X109426439Y-107409123D01*
X109359932Y-107433970D01*
X109290550Y-107418917D01*
X109240320Y-107368742D01*
X109225342Y-107310127D01*
X109225353Y-107310000D01*
X109205978Y-107088537D01*
X109148440Y-106873804D01*
X109141901Y-106859781D01*
X109056814Y-106677311D01*
X109056811Y-106677306D01*
X109054488Y-106672324D01*
X109051331Y-106667815D01*
X108930136Y-106494730D01*
X108930134Y-106494727D01*
X108926977Y-106490219D01*
X108769781Y-106333023D01*
X108765273Y-106329866D01*
X108765270Y-106329864D01*
X108659758Y-106255984D01*
X108587677Y-106205512D01*
X108582695Y-106203189D01*
X108582690Y-106203186D01*
X108477627Y-106154195D01*
X108424342Y-106107278D01*
X108404881Y-106039001D01*
X108425423Y-105971041D01*
X108477627Y-105925805D01*
X108582690Y-105876814D01*
X108582695Y-105876811D01*
X108587677Y-105874488D01*
X108716054Y-105784597D01*
X108765270Y-105750136D01*
X108765273Y-105750134D01*
X108769781Y-105746977D01*
X108926977Y-105589781D01*
X109054488Y-105407676D01*
X109056811Y-105402694D01*
X109056814Y-105402689D01*
X109146117Y-105211178D01*
X109146118Y-105211177D01*
X109148440Y-105206196D01*
X109205978Y-104991463D01*
X109225353Y-104770000D01*
X109205978Y-104548537D01*
X109156454Y-104363711D01*
X109149863Y-104339114D01*
X109149862Y-104339112D01*
X109148440Y-104333804D01*
X109141775Y-104319511D01*
X109056814Y-104137311D01*
X109056811Y-104137306D01*
X109054488Y-104132324D01*
X109048481Y-104123745D01*
X108930136Y-103954730D01*
X108930134Y-103954727D01*
X108926977Y-103950219D01*
X108769781Y-103793023D01*
X108765273Y-103789866D01*
X108765270Y-103789864D01*
X108596367Y-103671597D01*
X108587677Y-103665512D01*
X108582695Y-103663189D01*
X108582690Y-103663186D01*
X108482397Y-103616419D01*
X108429112Y-103569502D01*
X108409651Y-103501224D01*
X108430193Y-103433264D01*
X108482397Y-103388029D01*
X108582445Y-103341376D01*
X108591931Y-103335898D01*
X108635764Y-103305207D01*
X108644139Y-103294729D01*
X108637071Y-103281281D01*
X107962812Y-102607022D01*
X107948868Y-102599408D01*
X107947035Y-102599539D01*
X107940420Y-102603790D01*
X107262207Y-103282003D01*
X107255777Y-103293777D01*
X107265074Y-103305793D01*
X107308069Y-103335898D01*
X107317555Y-103341376D01*
X107417604Y-103388029D01*
X107470889Y-103434946D01*
X107490350Y-103503223D01*
X107469808Y-103571183D01*
X107417604Y-103616419D01*
X107317311Y-103663186D01*
X107317306Y-103663189D01*
X107312324Y-103665512D01*
X107307817Y-103668668D01*
X107307815Y-103668669D01*
X107134730Y-103789864D01*
X107134727Y-103789866D01*
X107130219Y-103793023D01*
X106973023Y-103950219D01*
X106969866Y-103954727D01*
X106969864Y-103954730D01*
X106851519Y-104123745D01*
X106845512Y-104132324D01*
X106843189Y-104137306D01*
X106843186Y-104137311D01*
X106758225Y-104319511D01*
X106751560Y-104333804D01*
X106750138Y-104339112D01*
X106750137Y-104339114D01*
X106743546Y-104363711D01*
X106694022Y-104548537D01*
X106674647Y-104770000D01*
X106694022Y-104991463D01*
X106751560Y-105206196D01*
X106753882Y-105211177D01*
X106753883Y-105211178D01*
X106843186Y-105402689D01*
X106843189Y-105402694D01*
X106845512Y-105407676D01*
X106973023Y-105589781D01*
X107130219Y-105746977D01*
X107134727Y-105750134D01*
X107134730Y-105750136D01*
X107183946Y-105784597D01*
X107312323Y-105874488D01*
X107317305Y-105876811D01*
X107317310Y-105876814D01*
X107422373Y-105925805D01*
X107475658Y-105972722D01*
X107495119Y-106040999D01*
X107474577Y-106108959D01*
X107422373Y-106154195D01*
X107317311Y-106203186D01*
X107317306Y-106203189D01*
X107312324Y-106205512D01*
X107307817Y-106208668D01*
X107307815Y-106208669D01*
X107134730Y-106329864D01*
X107134727Y-106329866D01*
X107130219Y-106333023D01*
X106973023Y-106490219D01*
X106969866Y-106494727D01*
X106969864Y-106494730D01*
X106848669Y-106667815D01*
X106845512Y-106672324D01*
X106843189Y-106677306D01*
X106843186Y-106677311D01*
X106758099Y-106859781D01*
X106751560Y-106873804D01*
X106694022Y-107088537D01*
X106674647Y-107310000D01*
X106694022Y-107531463D01*
X106726837Y-107653930D01*
X106749416Y-107738193D01*
X106751560Y-107746196D01*
X106753883Y-107751178D01*
X106753885Y-107751183D01*
X106807423Y-107865994D01*
X106818085Y-107936186D01*
X106789105Y-108000999D01*
X106729686Y-108039855D01*
X106658692Y-108040419D01*
X106642383Y-108034530D01*
X106037108Y-107767575D01*
X105982852Y-107721784D01*
X105961965Y-107653930D01*
X105981078Y-107585555D01*
X106019775Y-107548175D01*
X106019152Y-107547318D01*
X106114862Y-107477780D01*
X106173653Y-107435066D01*
X106229345Y-107373214D01*
X106297021Y-107298052D01*
X106297022Y-107298051D01*
X106301440Y-107293144D01*
X106374808Y-107166068D01*
X106393623Y-107133479D01*
X106393624Y-107133478D01*
X106396927Y-107127756D01*
X106455942Y-106946128D01*
X106462986Y-106879114D01*
X106475214Y-106762765D01*
X106475904Y-106756200D01*
X106467088Y-106672324D01*
X106456632Y-106572835D01*
X106456632Y-106572833D01*
X106455942Y-106566272D01*
X106396927Y-106384644D01*
X106369374Y-106336920D01*
X106359714Y-106320190D01*
X106301440Y-106219256D01*
X106228263Y-106137985D01*
X106197547Y-106073979D01*
X106195900Y-106053676D01*
X106195900Y-102288368D01*
X106196427Y-102277185D01*
X106198102Y-102269692D01*
X106197737Y-102258061D01*
X106197184Y-102240475D01*
X106675628Y-102240475D01*
X106694038Y-102450896D01*
X106695941Y-102461691D01*
X106750609Y-102665715D01*
X106754355Y-102676007D01*
X106843623Y-102867441D01*
X106849103Y-102876932D01*
X106879794Y-102920765D01*
X106890271Y-102929140D01*
X106903718Y-102922072D01*
X107577978Y-102247812D01*
X107584356Y-102236132D01*
X108314408Y-102236132D01*
X108314539Y-102237965D01*
X108318790Y-102244580D01*
X108997003Y-102922793D01*
X109008777Y-102929223D01*
X109020793Y-102919926D01*
X109050897Y-102876932D01*
X109056377Y-102867441D01*
X109145645Y-102676007D01*
X109149391Y-102665715D01*
X109204059Y-102461691D01*
X109205962Y-102450896D01*
X109224372Y-102240475D01*
X109224372Y-102229525D01*
X109205962Y-102019104D01*
X109204059Y-102008309D01*
X109149391Y-101804285D01*
X109145645Y-101793993D01*
X109056377Y-101602559D01*
X109050897Y-101593068D01*
X109020206Y-101549235D01*
X109009729Y-101540860D01*
X108996282Y-101547928D01*
X108322022Y-102222188D01*
X108314408Y-102236132D01*
X107584356Y-102236132D01*
X107585592Y-102233868D01*
X107585461Y-102232035D01*
X107581210Y-102225420D01*
X106902997Y-101547207D01*
X106891223Y-101540777D01*
X106879207Y-101550074D01*
X106849103Y-101593068D01*
X106843623Y-101602559D01*
X106754355Y-101793993D01*
X106750609Y-101804285D01*
X106695941Y-102008309D01*
X106694038Y-102019104D01*
X106675628Y-102229525D01*
X106675628Y-102240475D01*
X106197184Y-102240475D01*
X106195962Y-102201602D01*
X106195900Y-102197644D01*
X106195900Y-102169744D01*
X106195396Y-102165753D01*
X106194463Y-102153911D01*
X106193323Y-102117636D01*
X106193074Y-102109711D01*
X106187421Y-102090252D01*
X106183412Y-102070893D01*
X106183102Y-102068440D01*
X106180874Y-102050803D01*
X106177958Y-102043437D01*
X106177956Y-102043431D01*
X106164600Y-102009698D01*
X106160755Y-101998468D01*
X106150630Y-101963617D01*
X106150630Y-101963616D01*
X106148419Y-101956007D01*
X106138105Y-101938566D01*
X106129408Y-101920813D01*
X106124872Y-101909358D01*
X106121952Y-101901983D01*
X106095963Y-101866212D01*
X106089447Y-101856292D01*
X106070978Y-101825063D01*
X106066942Y-101818238D01*
X106052621Y-101803917D01*
X106039780Y-101788883D01*
X106032531Y-101778906D01*
X106027872Y-101772493D01*
X105993795Y-101744302D01*
X105985016Y-101736312D01*
X100665066Y-96416361D01*
X100657526Y-96408075D01*
X100653414Y-96401596D01*
X100603762Y-96354970D01*
X100600921Y-96352216D01*
X100581184Y-96332479D01*
X100577987Y-96329999D01*
X100568965Y-96322294D01*
X100542514Y-96297455D01*
X100536735Y-96292028D01*
X100529789Y-96288209D01*
X100529786Y-96288207D01*
X100518980Y-96282266D01*
X100502461Y-96271415D01*
X100496422Y-96266731D01*
X100486455Y-96259000D01*
X100479186Y-96255855D01*
X100479182Y-96255852D01*
X100445877Y-96241440D01*
X100435227Y-96236223D01*
X100396474Y-96214919D01*
X100376851Y-96209881D01*
X100358148Y-96203477D01*
X100346834Y-96198581D01*
X100346833Y-96198581D01*
X100339559Y-96195433D01*
X100331736Y-96194194D01*
X100331726Y-96194191D01*
X100295890Y-96188515D01*
X100284270Y-96186109D01*
X100249125Y-96177086D01*
X100249124Y-96177086D01*
X100241444Y-96175114D01*
X100221190Y-96175114D01*
X100201482Y-96173563D01*
X100181963Y-96170472D01*
X100117810Y-96140062D01*
X100080281Y-96079794D01*
X100081293Y-96008805D01*
X100112576Y-95956928D01*
X102440517Y-93628987D01*
X102448807Y-93621443D01*
X102455288Y-93617330D01*
X102467747Y-93604063D01*
X102501928Y-93567663D01*
X102504683Y-93564821D01*
X102524404Y-93545100D01*
X102526882Y-93541905D01*
X102534588Y-93532883D01*
X102541583Y-93525434D01*
X102564856Y-93500651D01*
X102574616Y-93482898D01*
X102585469Y-93466375D01*
X102593023Y-93456636D01*
X102597883Y-93450371D01*
X102615446Y-93409787D01*
X102620653Y-93399157D01*
X102641965Y-93360390D01*
X102643936Y-93352713D01*
X102643938Y-93352708D01*
X102647002Y-93340772D01*
X102653408Y-93322060D01*
X102653613Y-93321588D01*
X102661451Y-93303475D01*
X102664571Y-93283781D01*
X102668367Y-93259811D01*
X102670774Y-93248190D01*
X102679798Y-93213041D01*
X102679798Y-93213040D01*
X102681770Y-93205360D01*
X102681770Y-93185099D01*
X102683321Y-93165388D01*
X102685249Y-93153215D01*
X102686489Y-93145387D01*
X102682329Y-93101376D01*
X102681770Y-93089519D01*
X102681770Y-91776624D01*
X102701772Y-91708503D01*
X102735498Y-91673412D01*
X102822811Y-91612275D01*
X102855797Y-91589178D01*
X102855800Y-91589176D01*
X102860308Y-91586019D01*
X103016019Y-91430308D01*
X103019182Y-91425792D01*
X103139169Y-91254432D01*
X103139170Y-91254430D01*
X103142326Y-91249923D01*
X103144649Y-91244941D01*
X103144652Y-91244936D01*
X103233065Y-91055331D01*
X103235390Y-91050346D01*
X103292385Y-90837641D01*
X103311577Y-90618270D01*
X103292385Y-90398899D01*
X103235390Y-90186194D01*
X103170119Y-90046219D01*
X103144652Y-89991604D01*
X103144649Y-89991599D01*
X103142326Y-89986617D01*
X103081270Y-89899420D01*
X103019178Y-89810743D01*
X103019176Y-89810740D01*
X103016019Y-89806232D01*
X102860308Y-89650521D01*
X102679924Y-89524214D01*
X102480346Y-89431150D01*
X102267641Y-89374155D01*
X102048270Y-89354963D01*
X101828899Y-89374155D01*
X101616194Y-89431150D01*
X101567145Y-89454022D01*
X101421604Y-89521888D01*
X101421599Y-89521891D01*
X101416617Y-89524214D01*
X101412110Y-89527370D01*
X101412108Y-89527371D01*
X101240743Y-89647362D01*
X101240740Y-89647364D01*
X101236232Y-89650521D01*
X101080521Y-89806232D01*
X101077364Y-89810740D01*
X101077362Y-89810743D01*
X101015270Y-89899420D01*
X100954214Y-89986617D01*
X100951891Y-89991599D01*
X100951888Y-89991604D01*
X100861150Y-90186194D01*
X100859463Y-90185407D01*
X100822286Y-90235910D01*
X100755966Y-90261254D01*
X100686474Y-90246719D01*
X100635870Y-90196921D01*
X100621590Y-90155789D01*
X100397226Y-88770012D01*
X100302803Y-88186808D01*
X100301245Y-88170632D01*
X100300522Y-88147628D01*
X100300273Y-88139710D01*
X100291297Y-88108813D01*
X100288960Y-88100768D01*
X100288725Y-88099858D01*
X100288587Y-88099008D01*
X100277728Y-88062105D01*
X100277606Y-88061689D01*
X100257775Y-87993431D01*
X100255618Y-87986006D01*
X100255054Y-87985053D01*
X100254744Y-87983998D01*
X100222815Y-87930428D01*
X100214473Y-87916433D01*
X100214253Y-87916061D01*
X100178054Y-87854851D01*
X100178052Y-87854848D01*
X100174142Y-87848237D01*
X100173359Y-87847454D01*
X100172795Y-87846508D01*
X100166261Y-87840018D01*
X100117036Y-87791130D01*
X100116730Y-87790825D01*
X99865917Y-87540012D01*
X99831891Y-87477700D01*
X99833305Y-87418306D01*
X99840280Y-87392274D01*
X99840281Y-87392270D01*
X99841704Y-87386960D01*
X99860896Y-87167589D01*
X99841704Y-86948218D01*
X99784709Y-86735513D01*
X99697654Y-86548822D01*
X99693971Y-86540923D01*
X99693968Y-86540918D01*
X99691645Y-86535936D01*
X99688488Y-86531427D01*
X99568497Y-86360062D01*
X99568495Y-86360059D01*
X99565338Y-86355551D01*
X99409627Y-86199840D01*
X99373767Y-86174730D01*
X99330348Y-86144328D01*
X99229243Y-86073533D01*
X99029665Y-85980469D01*
X98816960Y-85923474D01*
X98597589Y-85904282D01*
X98378218Y-85923474D01*
X98165513Y-85980469D01*
X98072151Y-86024004D01*
X97970923Y-86071207D01*
X97970918Y-86071210D01*
X97965936Y-86073533D01*
X97961429Y-86076689D01*
X97961427Y-86076690D01*
X97790062Y-86196681D01*
X97790059Y-86196683D01*
X97785551Y-86199840D01*
X97629840Y-86355551D01*
X97626683Y-86360059D01*
X97626681Y-86360062D01*
X97506690Y-86531427D01*
X97503533Y-86535936D01*
X97501210Y-86540918D01*
X97501207Y-86540923D01*
X97497524Y-86548822D01*
X97410469Y-86735513D01*
X97353474Y-86948218D01*
X97334282Y-87167589D01*
X97353474Y-87386960D01*
X97410469Y-87599665D01*
X97448047Y-87680251D01*
X97501207Y-87794255D01*
X97501210Y-87794260D01*
X97503533Y-87799242D01*
X97506689Y-87803749D01*
X97506690Y-87803751D01*
X97618254Y-87963080D01*
X97629840Y-87979627D01*
X97785551Y-88135338D01*
X97790060Y-88138495D01*
X97790062Y-88138497D01*
X97835956Y-88170632D01*
X97965935Y-88261645D01*
X98165513Y-88354709D01*
X98378218Y-88411704D01*
X98597589Y-88430896D01*
X98816960Y-88411704D01*
X98822270Y-88410281D01*
X98822277Y-88410280D01*
X98848308Y-88403305D01*
X98919285Y-88404995D01*
X98970013Y-88435917D01*
X99048169Y-88514073D01*
X99083454Y-88583030D01*
X99693222Y-92349241D01*
X99694300Y-92355902D01*
X99685443Y-92426344D01*
X99639907Y-92480815D01*
X99572152Y-92502020D01*
X99518671Y-92491147D01*
X99462619Y-92466191D01*
X99462618Y-92466191D01*
X99456588Y-92463506D01*
X99450136Y-92462134D01*
X99450131Y-92462133D01*
X99310380Y-92432428D01*
X99247906Y-92398699D01*
X99213585Y-92336550D01*
X99219338Y-92263912D01*
X99221895Y-92259260D01*
X99226933Y-92239637D01*
X99233337Y-92220934D01*
X99238233Y-92209620D01*
X99238233Y-92209619D01*
X99241381Y-92202345D01*
X99242620Y-92194522D01*
X99242623Y-92194512D01*
X99248299Y-92158676D01*
X99250705Y-92147056D01*
X99259728Y-92111911D01*
X99259728Y-92111910D01*
X99261700Y-92104230D01*
X99261700Y-92083976D01*
X99263251Y-92064265D01*
X99265180Y-92052086D01*
X99266420Y-92044257D01*
X99262259Y-92000238D01*
X99261700Y-91988381D01*
X99261700Y-91467967D01*
X99262227Y-91456784D01*
X99263902Y-91449291D01*
X99263164Y-91425797D01*
X99261762Y-91381214D01*
X99261700Y-91377255D01*
X99261700Y-91349344D01*
X99261195Y-91345344D01*
X99260262Y-91333501D01*
X99259591Y-91312136D01*
X99258873Y-91289311D01*
X99253221Y-91269857D01*
X99249213Y-91250500D01*
X99247668Y-91238270D01*
X99247668Y-91238269D01*
X99246674Y-91230403D01*
X99243755Y-91223030D01*
X99230396Y-91189288D01*
X99226551Y-91178058D01*
X99216429Y-91143217D01*
X99216429Y-91143216D01*
X99214218Y-91135607D01*
X99210185Y-91128788D01*
X99210183Y-91128783D01*
X99203907Y-91118172D01*
X99195212Y-91100424D01*
X99187752Y-91081583D01*
X99163397Y-91048060D01*
X99161764Y-91045813D01*
X99155248Y-91035893D01*
X99136780Y-91004665D01*
X99136778Y-91004662D01*
X99132742Y-90997838D01*
X99118421Y-90983517D01*
X99105580Y-90968483D01*
X99104501Y-90966998D01*
X99093672Y-90952093D01*
X99059595Y-90923902D01*
X99050816Y-90915912D01*
X92883452Y-84748547D01*
X92875912Y-84740261D01*
X92871800Y-84733782D01*
X92858616Y-84721401D01*
X92822149Y-84687157D01*
X92819307Y-84684402D01*
X92799570Y-84664665D01*
X92796373Y-84662185D01*
X92787351Y-84654480D01*
X92760900Y-84629641D01*
X92755121Y-84624214D01*
X92748175Y-84620395D01*
X92748172Y-84620393D01*
X92737366Y-84614452D01*
X92720847Y-84603601D01*
X92716893Y-84600534D01*
X92704841Y-84591186D01*
X92697572Y-84588041D01*
X92697568Y-84588038D01*
X92664263Y-84573626D01*
X92653613Y-84568409D01*
X92614860Y-84547105D01*
X92595237Y-84542067D01*
X92576534Y-84535663D01*
X92565220Y-84530767D01*
X92565219Y-84530767D01*
X92557945Y-84527619D01*
X92550122Y-84526380D01*
X92550112Y-84526377D01*
X92514276Y-84520701D01*
X92502656Y-84518295D01*
X92467511Y-84509272D01*
X92467510Y-84509272D01*
X92459830Y-84507300D01*
X92439576Y-84507300D01*
X92419865Y-84505749D01*
X92407686Y-84503820D01*
X92399857Y-84502580D01*
X92391965Y-84503326D01*
X92355839Y-84506741D01*
X92343981Y-84507300D01*
X89924329Y-84507300D01*
X89856208Y-84487298D01*
X89809715Y-84433642D01*
X89799200Y-84378134D01*
X89798500Y-84378134D01*
X89798500Y-83224669D01*
X93082001Y-83224669D01*
X93082371Y-83231490D01*
X93087895Y-83282352D01*
X93091521Y-83297604D01*
X93136676Y-83418054D01*
X93145214Y-83433649D01*
X93221715Y-83535724D01*
X93234276Y-83548285D01*
X93336351Y-83624786D01*
X93351946Y-83633324D01*
X93472394Y-83678478D01*
X93487649Y-83682105D01*
X93538514Y-83687631D01*
X93545328Y-83688000D01*
X94317885Y-83688000D01*
X94333124Y-83683525D01*
X94334329Y-83682135D01*
X94336000Y-83674452D01*
X94336000Y-83669884D01*
X94844000Y-83669884D01*
X94848475Y-83685123D01*
X94849865Y-83686328D01*
X94857548Y-83687999D01*
X95634669Y-83687999D01*
X95641490Y-83687629D01*
X95692352Y-83682105D01*
X95707604Y-83678479D01*
X95828054Y-83633324D01*
X95843649Y-83624786D01*
X95945724Y-83548285D01*
X95958285Y-83535724D01*
X96034786Y-83433649D01*
X96043324Y-83418054D01*
X96088478Y-83297606D01*
X96092105Y-83282351D01*
X96097631Y-83231486D01*
X96098000Y-83224672D01*
X96098000Y-82333096D01*
X98053800Y-82333096D01*
X98054137Y-82339611D01*
X98064056Y-82435203D01*
X98066950Y-82448602D01*
X98118388Y-82602783D01*
X98124562Y-82615962D01*
X98209863Y-82753807D01*
X98218899Y-82765208D01*
X98333630Y-82879739D01*
X98345041Y-82888751D01*
X98483045Y-82973818D01*
X98496223Y-82979962D01*
X98650516Y-83031139D01*
X98663881Y-83034005D01*
X98758239Y-83043672D01*
X98764655Y-83044000D01*
X99002185Y-83044000D01*
X99017424Y-83039525D01*
X99018629Y-83038135D01*
X99020300Y-83030452D01*
X99020300Y-83025885D01*
X99528300Y-83025885D01*
X99532775Y-83041124D01*
X99534165Y-83042329D01*
X99541848Y-83044000D01*
X99783896Y-83044000D01*
X99790411Y-83043663D01*
X99886003Y-83033744D01*
X99899402Y-83030850D01*
X100053583Y-82979412D01*
X100066762Y-82973238D01*
X100204607Y-82887937D01*
X100216008Y-82878901D01*
X100330539Y-82764170D01*
X100339551Y-82752759D01*
X100424618Y-82614755D01*
X100430762Y-82601577D01*
X100481939Y-82447284D01*
X100484805Y-82433919D01*
X100494472Y-82339561D01*
X100494634Y-82336400D01*
X101028300Y-82336400D01*
X101028637Y-82339646D01*
X101028637Y-82339650D01*
X101038552Y-82435203D01*
X101039274Y-82442165D01*
X101041455Y-82448701D01*
X101041455Y-82448703D01*
X101065398Y-82520467D01*
X101095250Y-82609945D01*
X101188322Y-82760348D01*
X101193504Y-82765521D01*
X101248579Y-82820500D01*
X101313497Y-82885305D01*
X101319727Y-82889145D01*
X101319728Y-82889146D01*
X101456890Y-82973694D01*
X101464062Y-82978115D01*
X101481745Y-82983980D01*
X101625411Y-83031632D01*
X101625413Y-83031632D01*
X101631939Y-83033797D01*
X101638775Y-83034497D01*
X101638778Y-83034498D01*
X101681831Y-83038909D01*
X101736400Y-83044500D01*
X102762200Y-83044500D01*
X102765446Y-83044163D01*
X102765450Y-83044163D01*
X102861107Y-83034238D01*
X102861111Y-83034237D01*
X102867965Y-83033526D01*
X102874501Y-83031345D01*
X102874503Y-83031345D01*
X103016472Y-82983980D01*
X103035745Y-82977550D01*
X103186148Y-82884478D01*
X103311105Y-82759303D01*
X103335527Y-82719684D01*
X103400075Y-82614968D01*
X103400076Y-82614966D01*
X103403915Y-82608738D01*
X103438274Y-82505148D01*
X103457432Y-82447389D01*
X103457432Y-82447387D01*
X103459597Y-82440861D01*
X103460309Y-82433919D01*
X103467643Y-82362334D01*
X103470300Y-82336400D01*
X103470300Y-80985600D01*
X103469321Y-80976162D01*
X103460038Y-80886693D01*
X103460037Y-80886689D01*
X103459326Y-80879835D01*
X103454972Y-80866783D01*
X103405668Y-80719003D01*
X103403350Y-80712055D01*
X103310278Y-80561652D01*
X103306197Y-80557578D01*
X103279801Y-80492361D01*
X103292973Y-80422597D01*
X103306128Y-80402088D01*
X103311105Y-80397103D01*
X103324102Y-80376019D01*
X103400075Y-80252768D01*
X103400076Y-80252766D01*
X103403915Y-80246538D01*
X103431937Y-80162055D01*
X103457432Y-80085189D01*
X103457432Y-80085187D01*
X103459597Y-80078661D01*
X103460309Y-80071719D01*
X103467880Y-79997815D01*
X103470300Y-79974200D01*
X103470300Y-78623400D01*
X103469963Y-78620150D01*
X103460038Y-78524493D01*
X103460037Y-78524489D01*
X103459326Y-78517635D01*
X103403350Y-78349855D01*
X103310278Y-78199452D01*
X103185103Y-78074495D01*
X103178872Y-78070654D01*
X103040768Y-77985525D01*
X103040766Y-77985524D01*
X103034538Y-77981685D01*
X102954795Y-77955236D01*
X102873189Y-77928168D01*
X102873187Y-77928168D01*
X102866661Y-77926003D01*
X102859825Y-77925303D01*
X102859822Y-77925302D01*
X102816769Y-77920891D01*
X102762200Y-77915300D01*
X101736400Y-77915300D01*
X101733154Y-77915637D01*
X101733150Y-77915637D01*
X101637493Y-77925562D01*
X101637489Y-77925563D01*
X101630635Y-77926274D01*
X101624099Y-77928455D01*
X101624097Y-77928455D01*
X101607732Y-77933915D01*
X101462855Y-77982250D01*
X101312452Y-78075322D01*
X101187495Y-78200497D01*
X101094685Y-78351062D01*
X101092381Y-78358009D01*
X101041571Y-78511198D01*
X101039003Y-78518939D01*
X101038303Y-78525775D01*
X101038302Y-78525778D01*
X101036279Y-78545526D01*
X101028300Y-78623400D01*
X101028300Y-79974200D01*
X101028637Y-79977446D01*
X101028637Y-79977450D01*
X101038552Y-80073003D01*
X101039274Y-80079965D01*
X101041455Y-80086501D01*
X101041455Y-80086503D01*
X101069275Y-80169888D01*
X101095250Y-80247745D01*
X101188322Y-80398148D01*
X101192403Y-80402222D01*
X101218799Y-80467439D01*
X101205627Y-80537203D01*
X101192472Y-80557712D01*
X101187495Y-80562697D01*
X101183657Y-80568924D01*
X101183655Y-80568926D01*
X101104912Y-80696671D01*
X101094685Y-80713262D01*
X101092381Y-80720209D01*
X101041571Y-80873398D01*
X101039003Y-80881139D01*
X101038303Y-80887975D01*
X101038302Y-80887978D01*
X101035850Y-80911912D01*
X101028300Y-80985600D01*
X101028300Y-82336400D01*
X100494634Y-82336400D01*
X100494800Y-82333145D01*
X100494800Y-81933115D01*
X100490325Y-81917876D01*
X100488935Y-81916671D01*
X100481252Y-81915000D01*
X99546415Y-81915000D01*
X99531176Y-81919475D01*
X99529971Y-81920865D01*
X99528300Y-81928548D01*
X99528300Y-83025885D01*
X99020300Y-83025885D01*
X99020300Y-81933115D01*
X99015825Y-81917876D01*
X99014435Y-81916671D01*
X99006752Y-81915000D01*
X98071915Y-81915000D01*
X98056676Y-81919475D01*
X98055471Y-81920865D01*
X98053800Y-81928548D01*
X98053800Y-82333096D01*
X96098000Y-82333096D01*
X96098000Y-81552115D01*
X96093525Y-81536876D01*
X96092135Y-81535671D01*
X96084452Y-81534000D01*
X94862115Y-81534000D01*
X94846876Y-81538475D01*
X94845671Y-81539865D01*
X94844000Y-81547548D01*
X94844000Y-83669884D01*
X94336000Y-83669884D01*
X94336000Y-81552115D01*
X94331525Y-81536876D01*
X94330135Y-81535671D01*
X94322452Y-81534000D01*
X93100116Y-81534000D01*
X93084877Y-81538475D01*
X93083672Y-81539865D01*
X93082001Y-81547548D01*
X93082001Y-83224669D01*
X89798500Y-83224669D01*
X89798500Y-82781866D01*
X89791745Y-82719684D01*
X89740615Y-82583295D01*
X89682047Y-82505148D01*
X89657199Y-82438642D01*
X89672252Y-82369259D01*
X89682047Y-82354018D01*
X89734786Y-82283648D01*
X89743324Y-82268054D01*
X89788478Y-82147606D01*
X89792105Y-82132351D01*
X89797631Y-82081486D01*
X89798000Y-82074672D01*
X89798000Y-81552115D01*
X89793525Y-81536876D01*
X89792135Y-81535671D01*
X89784452Y-81534000D01*
X86800116Y-81534000D01*
X86784877Y-81538475D01*
X86783672Y-81539865D01*
X86782001Y-81547548D01*
X86782001Y-82074669D01*
X86782371Y-82081490D01*
X86787895Y-82132352D01*
X86791521Y-82147604D01*
X86836676Y-82268054D01*
X86845214Y-82283648D01*
X86897953Y-82354018D01*
X86922801Y-82420524D01*
X86907748Y-82489907D01*
X86897953Y-82505148D01*
X86839385Y-82583295D01*
X86788255Y-82719684D01*
X86781500Y-82781866D01*
X86781500Y-82820500D01*
X86761498Y-82888621D01*
X86707842Y-82935114D01*
X86655500Y-82946500D01*
X86624500Y-82946500D01*
X86556379Y-82926498D01*
X86509886Y-82872842D01*
X86498500Y-82820500D01*
X86498500Y-82468100D01*
X86497381Y-82457311D01*
X86488238Y-82369192D01*
X86488237Y-82369188D01*
X86487526Y-82362334D01*
X86481982Y-82345715D01*
X86433868Y-82201502D01*
X86431550Y-82194554D01*
X86338478Y-82044152D01*
X86213303Y-81919195D01*
X86207072Y-81915354D01*
X86068968Y-81830225D01*
X86068966Y-81830224D01*
X86062738Y-81826385D01*
X85970542Y-81795805D01*
X85901389Y-81772868D01*
X85901387Y-81772868D01*
X85894861Y-81770703D01*
X85888025Y-81770003D01*
X85888022Y-81770002D01*
X85842206Y-81765308D01*
X85790400Y-81760000D01*
X84867095Y-81760000D01*
X84798974Y-81739998D01*
X84778000Y-81723095D01*
X84443790Y-81388885D01*
X98053800Y-81388885D01*
X98058275Y-81404124D01*
X98059665Y-81405329D01*
X98067348Y-81407000D01*
X99002185Y-81407000D01*
X99017424Y-81402525D01*
X99018629Y-81401135D01*
X99020300Y-81393452D01*
X99020300Y-81388885D01*
X99528300Y-81388885D01*
X99532775Y-81404124D01*
X99534165Y-81405329D01*
X99541848Y-81407000D01*
X100476685Y-81407000D01*
X100491924Y-81402525D01*
X100493129Y-81401135D01*
X100494800Y-81393452D01*
X100494800Y-80988904D01*
X100494463Y-80982389D01*
X100484544Y-80886797D01*
X100481650Y-80873398D01*
X100430212Y-80719217D01*
X100424038Y-80706038D01*
X100338734Y-80568188D01*
X100330795Y-80558171D01*
X100304159Y-80492360D01*
X100317331Y-80422596D01*
X100330660Y-80401817D01*
X100339551Y-80390559D01*
X100424618Y-80252555D01*
X100430762Y-80239377D01*
X100481939Y-80085084D01*
X100484805Y-80071719D01*
X100494472Y-79977361D01*
X100494800Y-79970945D01*
X100494800Y-79570915D01*
X100490325Y-79555676D01*
X100488935Y-79554471D01*
X100481252Y-79552800D01*
X99546415Y-79552800D01*
X99531176Y-79557275D01*
X99529971Y-79558665D01*
X99528300Y-79566348D01*
X99528300Y-81388885D01*
X99020300Y-81388885D01*
X99020300Y-79570915D01*
X99015825Y-79555676D01*
X99014435Y-79554471D01*
X99006752Y-79552800D01*
X98071915Y-79552800D01*
X98056676Y-79557275D01*
X98055471Y-79558665D01*
X98053800Y-79566348D01*
X98053800Y-79970896D01*
X98054137Y-79977411D01*
X98064056Y-80073003D01*
X98066950Y-80086402D01*
X98118388Y-80240583D01*
X98124562Y-80253762D01*
X98209866Y-80391612D01*
X98217805Y-80401629D01*
X98244441Y-80467440D01*
X98231269Y-80537204D01*
X98217940Y-80557983D01*
X98209049Y-80569241D01*
X98123982Y-80707245D01*
X98117838Y-80720423D01*
X98066661Y-80874716D01*
X98063795Y-80888081D01*
X98054128Y-80982439D01*
X98053800Y-80988856D01*
X98053800Y-81388885D01*
X84443790Y-81388885D01*
X84241066Y-81186161D01*
X84207040Y-81123849D01*
X84212105Y-81053034D01*
X84254652Y-80996198D01*
X84321172Y-80971387D01*
X84343003Y-80971722D01*
X84386438Y-80976172D01*
X84392854Y-80976500D01*
X84817885Y-80976500D01*
X84833124Y-80972025D01*
X84834329Y-80970635D01*
X84836000Y-80962952D01*
X84836000Y-80958384D01*
X85344000Y-80958384D01*
X85348475Y-80973623D01*
X85349865Y-80974828D01*
X85357548Y-80976499D01*
X85787095Y-80976499D01*
X85793614Y-80976162D01*
X85889206Y-80966243D01*
X85902600Y-80963351D01*
X86056784Y-80911912D01*
X86069962Y-80905739D01*
X86207807Y-80820437D01*
X86219208Y-80811401D01*
X86333739Y-80696671D01*
X86342751Y-80685260D01*
X86427816Y-80547257D01*
X86433963Y-80534076D01*
X86485138Y-80379790D01*
X86488005Y-80366414D01*
X86497672Y-80272062D01*
X86498000Y-80265646D01*
X86498000Y-80078115D01*
X86493525Y-80062876D01*
X86492135Y-80061671D01*
X86484452Y-80060000D01*
X85362115Y-80060000D01*
X85346876Y-80064475D01*
X85345671Y-80065865D01*
X85344000Y-80073548D01*
X85344000Y-80958384D01*
X84836000Y-80958384D01*
X84836000Y-80078115D01*
X84831525Y-80062876D01*
X84830135Y-80061671D01*
X84822452Y-80060000D01*
X83700116Y-80060000D01*
X83684877Y-80064475D01*
X83683672Y-80065865D01*
X83682001Y-80073548D01*
X83682001Y-80265595D01*
X83682338Y-80272114D01*
X83686830Y-80315405D01*
X83673965Y-80385226D01*
X83625394Y-80437008D01*
X83556538Y-80454310D01*
X83489258Y-80431639D01*
X83472408Y-80417503D01*
X83212652Y-80157747D01*
X83205112Y-80149461D01*
X83201000Y-80142982D01*
X83151348Y-80096356D01*
X83148507Y-80093602D01*
X83128770Y-80073865D01*
X83125573Y-80071385D01*
X83116551Y-80063680D01*
X83114412Y-80061671D01*
X83084321Y-80033414D01*
X83077375Y-80029595D01*
X83077372Y-80029593D01*
X83066566Y-80023652D01*
X83050047Y-80012801D01*
X83042969Y-80007311D01*
X83034041Y-80000386D01*
X83026772Y-79997241D01*
X83026768Y-79997238D01*
X82993463Y-79982826D01*
X82982813Y-79977609D01*
X82944060Y-79956305D01*
X82924437Y-79951267D01*
X82905734Y-79944863D01*
X82894420Y-79939967D01*
X82894419Y-79939967D01*
X82887145Y-79936819D01*
X82879322Y-79935580D01*
X82879312Y-79935577D01*
X82843476Y-79929901D01*
X82831856Y-79927495D01*
X82796711Y-79918472D01*
X82796710Y-79918472D01*
X82789030Y-79916500D01*
X82768776Y-79916500D01*
X82749065Y-79914949D01*
X82736886Y-79913020D01*
X82729057Y-79911780D01*
X82721165Y-79912526D01*
X82685039Y-79915941D01*
X82673181Y-79916500D01*
X81924154Y-79916500D01*
X81856033Y-79896498D01*
X81809540Y-79842842D01*
X81799436Y-79772568D01*
X81828930Y-79707988D01*
X81853712Y-79686030D01*
X81862330Y-79680219D01*
X81903722Y-79652309D01*
X81908853Y-79646531D01*
X81909466Y-79645981D01*
X81915756Y-79641504D01*
X81961162Y-79587693D01*
X81963250Y-79585281D01*
X82004748Y-79538555D01*
X82004749Y-79538554D01*
X82010008Y-79532632D01*
X82013542Y-79525759D01*
X82013991Y-79525086D01*
X82018978Y-79519175D01*
X82040657Y-79474246D01*
X82049594Y-79455723D01*
X82051018Y-79452865D01*
X82054799Y-79445512D01*
X82083193Y-79390284D01*
X82084906Y-79382751D01*
X82085176Y-79381980D01*
X82088534Y-79375019D01*
X82090094Y-79367254D01*
X82090097Y-79367244D01*
X82102408Y-79305954D01*
X82103075Y-79302834D01*
X82118678Y-79234209D01*
X82118463Y-79226486D01*
X82118533Y-79225673D01*
X82120055Y-79218095D01*
X82118384Y-79186644D01*
X82116318Y-79147770D01*
X82116189Y-79144583D01*
X82113417Y-79044800D01*
X82112829Y-79023638D01*
X82130931Y-78954989D01*
X82183275Y-78907024D01*
X82239302Y-78894141D01*
X83559188Y-78899605D01*
X83631790Y-78899906D01*
X83699827Y-78920190D01*
X83746097Y-78974038D01*
X83755910Y-79044353D01*
X83747957Y-79070847D01*
X83748342Y-79070975D01*
X83694862Y-79232210D01*
X83691995Y-79245586D01*
X83682328Y-79339938D01*
X83682000Y-79346355D01*
X83682000Y-79533885D01*
X83686475Y-79549124D01*
X83687865Y-79550329D01*
X83695548Y-79552000D01*
X86479884Y-79552000D01*
X86495123Y-79547525D01*
X86496328Y-79546135D01*
X86497999Y-79538452D01*
X86497999Y-79346405D01*
X86497662Y-79339886D01*
X86487743Y-79244294D01*
X86484851Y-79230900D01*
X86433800Y-79077879D01*
X86431216Y-79006929D01*
X86467400Y-78945845D01*
X86530864Y-78914021D01*
X86553841Y-78912004D01*
X86656024Y-78912427D01*
X86724059Y-78932711D01*
X86770329Y-78986559D01*
X86781500Y-79038426D01*
X86781500Y-79778134D01*
X86788255Y-79840316D01*
X86839385Y-79976705D01*
X86881886Y-80033414D01*
X86897953Y-80054852D01*
X86922801Y-80121358D01*
X86907748Y-80190741D01*
X86897953Y-80205982D01*
X86845214Y-80276352D01*
X86836676Y-80291946D01*
X86791522Y-80412394D01*
X86787895Y-80427649D01*
X86782369Y-80478514D01*
X86782000Y-80485328D01*
X86782000Y-81007885D01*
X86786475Y-81023124D01*
X86787865Y-81024329D01*
X86795548Y-81026000D01*
X89779884Y-81026000D01*
X89795123Y-81021525D01*
X89796328Y-81020135D01*
X89797999Y-81012452D01*
X89797999Y-81007885D01*
X93082000Y-81007885D01*
X93086475Y-81023124D01*
X93087865Y-81024329D01*
X93095548Y-81026000D01*
X94317885Y-81026000D01*
X94333124Y-81021525D01*
X94334329Y-81020135D01*
X94336000Y-81012452D01*
X94336000Y-81007885D01*
X94844000Y-81007885D01*
X94848475Y-81023124D01*
X94849865Y-81024329D01*
X94857548Y-81026000D01*
X96079884Y-81026000D01*
X96095123Y-81021525D01*
X96096328Y-81020135D01*
X96097999Y-81012452D01*
X96097999Y-79335331D01*
X96097629Y-79328510D01*
X96092105Y-79277648D01*
X96088479Y-79262396D01*
X96043324Y-79141946D01*
X96034786Y-79126351D01*
X95960090Y-79026685D01*
X98053800Y-79026685D01*
X98058275Y-79041924D01*
X98059665Y-79043129D01*
X98067348Y-79044800D01*
X99002185Y-79044800D01*
X99017424Y-79040325D01*
X99018629Y-79038935D01*
X99020300Y-79031252D01*
X99020300Y-79026685D01*
X99528300Y-79026685D01*
X99532775Y-79041924D01*
X99534165Y-79043129D01*
X99541848Y-79044800D01*
X100476685Y-79044800D01*
X100491924Y-79040325D01*
X100493129Y-79038935D01*
X100494800Y-79031252D01*
X100494800Y-78626704D01*
X100494463Y-78620189D01*
X100484544Y-78524597D01*
X100481650Y-78511198D01*
X100430212Y-78357017D01*
X100424038Y-78343838D01*
X100338737Y-78205993D01*
X100329701Y-78194592D01*
X100214970Y-78080061D01*
X100203559Y-78071049D01*
X100065555Y-77985982D01*
X100052377Y-77979838D01*
X99898084Y-77928661D01*
X99884719Y-77925795D01*
X99790361Y-77916128D01*
X99783944Y-77915800D01*
X99546415Y-77915800D01*
X99531176Y-77920275D01*
X99529971Y-77921665D01*
X99528300Y-77929348D01*
X99528300Y-79026685D01*
X99020300Y-79026685D01*
X99020300Y-77933915D01*
X99015825Y-77918676D01*
X99014435Y-77917471D01*
X99006752Y-77915800D01*
X98764704Y-77915800D01*
X98758189Y-77916137D01*
X98662597Y-77926056D01*
X98649198Y-77928950D01*
X98495017Y-77980388D01*
X98481838Y-77986562D01*
X98343993Y-78071863D01*
X98332592Y-78080899D01*
X98218061Y-78195630D01*
X98209049Y-78207041D01*
X98123982Y-78345045D01*
X98117838Y-78358223D01*
X98066661Y-78512516D01*
X98063795Y-78525881D01*
X98054128Y-78620239D01*
X98053800Y-78626656D01*
X98053800Y-79026685D01*
X95960090Y-79026685D01*
X95958285Y-79024276D01*
X95945724Y-79011715D01*
X95843649Y-78935214D01*
X95828054Y-78926676D01*
X95707606Y-78881522D01*
X95692351Y-78877895D01*
X95641486Y-78872369D01*
X95634672Y-78872000D01*
X94862115Y-78872000D01*
X94846876Y-78876475D01*
X94845671Y-78877865D01*
X94844000Y-78885548D01*
X94844000Y-81007885D01*
X94336000Y-81007885D01*
X94336000Y-78890116D01*
X94331525Y-78874877D01*
X94330135Y-78873672D01*
X94322452Y-78872001D01*
X93545331Y-78872001D01*
X93538510Y-78872371D01*
X93487648Y-78877895D01*
X93472396Y-78881521D01*
X93351946Y-78926676D01*
X93336351Y-78935214D01*
X93234276Y-79011715D01*
X93221715Y-79024276D01*
X93145214Y-79126351D01*
X93136676Y-79141946D01*
X93091522Y-79262394D01*
X93087895Y-79277649D01*
X93082369Y-79328514D01*
X93082000Y-79335328D01*
X93082000Y-81007885D01*
X89797999Y-81007885D01*
X89797999Y-80485331D01*
X89797629Y-80478510D01*
X89792105Y-80427648D01*
X89788479Y-80412396D01*
X89743324Y-80291946D01*
X89734786Y-80276352D01*
X89682047Y-80205982D01*
X89657199Y-80139476D01*
X89672252Y-80070093D01*
X89682047Y-80054852D01*
X89698114Y-80033414D01*
X89740615Y-79976705D01*
X89791745Y-79840316D01*
X89798500Y-79778134D01*
X89798500Y-78181866D01*
X89791745Y-78119684D01*
X89740615Y-77983295D01*
X89653261Y-77866739D01*
X89536705Y-77779385D01*
X89400316Y-77728255D01*
X89338134Y-77721500D01*
X87919537Y-77721500D01*
X87858379Y-77705662D01*
X87837250Y-77693932D01*
X87837246Y-77693931D01*
X87830316Y-77690083D01*
X87809182Y-77684563D01*
X87790986Y-77678291D01*
X87790200Y-77677951D01*
X87770945Y-77669619D01*
X87728830Y-77662948D01*
X87716715Y-77660413D01*
X87675453Y-77649637D01*
X87667530Y-77649604D01*
X87667528Y-77649604D01*
X87658351Y-77649566D01*
X87653614Y-77649547D01*
X87634424Y-77647996D01*
X87612857Y-77644580D01*
X87604965Y-77645326D01*
X87604962Y-77645326D01*
X87570404Y-77648593D01*
X87558024Y-77649151D01*
X82696697Y-77629024D01*
X81520006Y-77624152D01*
X81500364Y-77622529D01*
X81488011Y-77620526D01*
X81488010Y-77620526D01*
X81480183Y-77619257D01*
X81444171Y-77622529D01*
X81436345Y-77623240D01*
X81424874Y-77623736D01*
X81424525Y-77623757D01*
X81420567Y-77623740D01*
X81392656Y-77627149D01*
X81388813Y-77627559D01*
X81327993Y-77633084D01*
X81258344Y-77619328D01*
X81207187Y-77570098D01*
X81202400Y-77560851D01*
X81116814Y-77377311D01*
X81116811Y-77377306D01*
X81114488Y-77372324D01*
X81064517Y-77300958D01*
X80990136Y-77194730D01*
X80990134Y-77194727D01*
X80986977Y-77190219D01*
X80829781Y-77033023D01*
X80825273Y-77029866D01*
X80825270Y-77029864D01*
X80749505Y-76976813D01*
X80647677Y-76905512D01*
X80642695Y-76903189D01*
X80642690Y-76903186D01*
X80451178Y-76813883D01*
X80451177Y-76813882D01*
X80446196Y-76811560D01*
X80440888Y-76810138D01*
X80440886Y-76810137D01*
X80334444Y-76781616D01*
X80231463Y-76754022D01*
X80010000Y-76734647D01*
X79788537Y-76754022D01*
X79685556Y-76781616D01*
X79579114Y-76810137D01*
X79579112Y-76810138D01*
X79573804Y-76811560D01*
X79568823Y-76813882D01*
X79568822Y-76813883D01*
X79377311Y-76903186D01*
X79377306Y-76903189D01*
X79372324Y-76905512D01*
X79367817Y-76908668D01*
X79367815Y-76908669D01*
X79194730Y-77029864D01*
X79194727Y-77029866D01*
X79190219Y-77033023D01*
X79033023Y-77190219D01*
X79029865Y-77194729D01*
X79029860Y-77194735D01*
X78969212Y-77281350D01*
X78913755Y-77325679D01*
X78843136Y-77332988D01*
X78779775Y-77300958D01*
X78743790Y-77239756D01*
X78739999Y-77209080D01*
X78739999Y-77203331D01*
X78739629Y-77196510D01*
X78734105Y-77145648D01*
X78730479Y-77130396D01*
X78685324Y-77009946D01*
X78676786Y-76994351D01*
X78600285Y-76892276D01*
X78587724Y-76879715D01*
X78485649Y-76803214D01*
X78470054Y-76794676D01*
X78349606Y-76749522D01*
X78334351Y-76745895D01*
X78283486Y-76740369D01*
X78276672Y-76740000D01*
X77742115Y-76740000D01*
X77726876Y-76744475D01*
X77725671Y-76745865D01*
X77724000Y-76753548D01*
X77724000Y-78138000D01*
X77703998Y-78206121D01*
X77650342Y-78252614D01*
X77598000Y-78264000D01*
X77342000Y-78264000D01*
X77273879Y-78243998D01*
X77227386Y-78190342D01*
X77216000Y-78138000D01*
X77216000Y-76758116D01*
X77211525Y-76742877D01*
X77210135Y-76741672D01*
X77202452Y-76740001D01*
X76809566Y-76740001D01*
X76741445Y-76719999D01*
X76694952Y-76666343D01*
X76683566Y-76614071D01*
X76683449Y-76403096D01*
X76703413Y-76334964D01*
X76757043Y-76288441D01*
X76809514Y-76277026D01*
X96468443Y-76287107D01*
G37*
%TD.AperFunction*%
%TA.AperFunction,Conductor*%
G36*
X97119386Y-99555379D02*
G01*
X97176222Y-99597926D01*
X97201033Y-99664446D01*
X97201354Y-99673435D01*
X97201354Y-100798393D01*
X97182964Y-100861025D01*
X97183437Y-100861284D01*
X97182249Y-100863460D01*
X97181352Y-100866514D01*
X97178961Y-100869481D01*
X97167143Y-100891124D01*
X97167274Y-100892957D01*
X97178847Y-100910965D01*
X97176579Y-100912422D01*
X97201227Y-100957560D01*
X97202639Y-100968997D01*
X97202691Y-100968989D01*
X97203932Y-100976824D01*
X97204181Y-100984743D01*
X97204512Y-100985882D01*
X97204749Y-101017795D01*
X97199052Y-101057576D01*
X97210012Y-101134103D01*
X97213451Y-101158120D01*
X97203309Y-101228388D01*
X97156786Y-101282018D01*
X97088654Y-101301982D01*
X97070862Y-101300709D01*
X96979207Y-101287583D01*
X96970318Y-101286310D01*
X96918576Y-101293720D01*
X96848308Y-101283577D01*
X96823611Y-101266419D01*
X96801603Y-101254402D01*
X96799770Y-101254533D01*
X96793155Y-101258784D01*
X96756303Y-101295636D01*
X96751742Y-101300719D01*
X96714729Y-101346752D01*
X96712720Y-101345137D01*
X96692194Y-101365577D01*
X96693536Y-101367246D01*
X96644790Y-101406439D01*
X96187810Y-101863419D01*
X96148617Y-101912165D01*
X96146711Y-101910633D01*
X96126317Y-101931024D01*
X96127851Y-101932932D01*
X96079105Y-101972125D01*
X95622125Y-102429105D01*
X95582932Y-102477851D01*
X95581024Y-102476317D01*
X95560633Y-102496711D01*
X95562165Y-102498617D01*
X95513419Y-102537810D01*
X95056439Y-102994790D01*
X95017246Y-103043536D01*
X95015340Y-103042004D01*
X94994946Y-103062395D01*
X94996480Y-103064303D01*
X94947734Y-103103496D01*
X94490754Y-103560476D01*
X94451561Y-103609222D01*
X94449653Y-103607688D01*
X94429262Y-103628082D01*
X94430794Y-103629988D01*
X94382048Y-103669181D01*
X93925068Y-104126161D01*
X93885875Y-104174907D01*
X93883973Y-104173378D01*
X93863580Y-104193771D01*
X93865109Y-104195673D01*
X93816363Y-104234866D01*
X93359383Y-104691846D01*
X93320190Y-104740592D01*
X93318284Y-104739060D01*
X93297890Y-104759451D01*
X93299424Y-104761359D01*
X93250678Y-104800552D01*
X92799095Y-105252135D01*
X92736783Y-105286161D01*
X92665968Y-105281096D01*
X92620905Y-105252135D01*
X92307219Y-104938449D01*
X92273193Y-104876137D01*
X92278258Y-104805322D01*
X92320805Y-104748486D01*
X92387325Y-104723675D01*
X92396314Y-104723354D01*
X92580341Y-104723354D01*
X92586793Y-104721982D01*
X92586798Y-104721982D01*
X92685315Y-104701041D01*
X92767142Y-104683648D01*
X92775336Y-104680000D01*
X92935576Y-104608657D01*
X92935578Y-104608656D01*
X92941606Y-104605972D01*
X93096107Y-104493720D01*
X93108919Y-104479491D01*
X93219475Y-104356706D01*
X93219476Y-104356705D01*
X93223894Y-104351798D01*
X93303468Y-104213972D01*
X93316077Y-104192133D01*
X93316078Y-104192132D01*
X93319381Y-104186410D01*
X93378396Y-104004782D01*
X93383440Y-103956796D01*
X93397668Y-103821419D01*
X93398358Y-103814854D01*
X93396473Y-103796920D01*
X93379086Y-103631489D01*
X93379086Y-103631487D01*
X93378396Y-103624926D01*
X93319381Y-103443298D01*
X93223894Y-103277910D01*
X93150717Y-103196639D01*
X93120001Y-103132633D01*
X93118354Y-103112330D01*
X93118354Y-102534354D01*
X93138356Y-102466233D01*
X93192012Y-102419740D01*
X93244354Y-102408354D01*
X93821074Y-102408354D01*
X93832257Y-102408881D01*
X93839750Y-102410556D01*
X93847676Y-102410307D01*
X93847677Y-102410307D01*
X93907827Y-102408416D01*
X93911786Y-102408354D01*
X93939697Y-102408354D01*
X93943632Y-102407857D01*
X93943697Y-102407849D01*
X93955534Y-102406916D01*
X93987792Y-102405902D01*
X93991811Y-102405776D01*
X93999730Y-102405527D01*
X94019184Y-102399875D01*
X94038541Y-102395867D01*
X94050771Y-102394322D01*
X94050772Y-102394322D01*
X94058638Y-102393328D01*
X94066009Y-102390409D01*
X94066011Y-102390409D01*
X94099753Y-102377050D01*
X94110983Y-102373205D01*
X94145824Y-102363083D01*
X94145825Y-102363083D01*
X94153434Y-102360872D01*
X94160253Y-102356839D01*
X94160258Y-102356837D01*
X94170869Y-102350561D01*
X94188617Y-102341866D01*
X94207458Y-102334406D01*
X94243228Y-102308418D01*
X94253148Y-102301902D01*
X94284376Y-102283434D01*
X94284379Y-102283432D01*
X94291203Y-102279396D01*
X94305524Y-102265075D01*
X94320558Y-102252234D01*
X94330535Y-102244985D01*
X94336948Y-102240326D01*
X94365139Y-102206249D01*
X94373129Y-102197470D01*
X96986259Y-99584340D01*
X97048571Y-99550314D01*
X97119386Y-99555379D01*
G37*
%TD.AperFunction*%
%TA.AperFunction,Conductor*%
G36*
X87360946Y-98231991D02*
G01*
X87417782Y-98274538D01*
X87442593Y-98341058D01*
X87426033Y-98413047D01*
X87405765Y-98448152D01*
X87346750Y-98629780D01*
X87326788Y-98819708D01*
X87346750Y-99009636D01*
X87405765Y-99191264D01*
X87501252Y-99356652D01*
X87505670Y-99361559D01*
X87505671Y-99361560D01*
X87611427Y-99479014D01*
X87629039Y-99498574D01*
X87670146Y-99528440D01*
X87769573Y-99600678D01*
X87783540Y-99610826D01*
X87789568Y-99613510D01*
X87789570Y-99613511D01*
X87950828Y-99685307D01*
X87958004Y-99688502D01*
X88046173Y-99707243D01*
X88138348Y-99726836D01*
X88138353Y-99726836D01*
X88144805Y-99728208D01*
X88335779Y-99728208D01*
X88342231Y-99726836D01*
X88342236Y-99726836D01*
X88434411Y-99707243D01*
X88522580Y-99688502D01*
X88529756Y-99685307D01*
X88691014Y-99613511D01*
X88691016Y-99613510D01*
X88697044Y-99610826D01*
X88711012Y-99600678D01*
X88829963Y-99514254D01*
X88851545Y-99498574D01*
X88855960Y-99493671D01*
X88860872Y-99489248D01*
X88861997Y-99490497D01*
X88915306Y-99457657D01*
X88948492Y-99453208D01*
X89215114Y-99453208D01*
X89283235Y-99473210D01*
X89304209Y-99490113D01*
X91814449Y-102000353D01*
X91848475Y-102062665D01*
X91851354Y-102089448D01*
X91851354Y-102722242D01*
X91831352Y-102790363D01*
X91777696Y-102836856D01*
X91725354Y-102848242D01*
X90629767Y-102848242D01*
X90618584Y-102847715D01*
X90611091Y-102846040D01*
X90603165Y-102846289D01*
X90603164Y-102846289D01*
X90543014Y-102848180D01*
X90539055Y-102848242D01*
X90511144Y-102848242D01*
X90507210Y-102848739D01*
X90507209Y-102848739D01*
X90507144Y-102848747D01*
X90495307Y-102849680D01*
X90463490Y-102850680D01*
X90459029Y-102850820D01*
X90451110Y-102851069D01*
X90433454Y-102856198D01*
X90431658Y-102856720D01*
X90412306Y-102860728D01*
X90405235Y-102861622D01*
X90392203Y-102863268D01*
X90384834Y-102866185D01*
X90384832Y-102866186D01*
X90351097Y-102879542D01*
X90339869Y-102883387D01*
X90297407Y-102895724D01*
X90290585Y-102899758D01*
X90290579Y-102899761D01*
X90279968Y-102906036D01*
X90262218Y-102914732D01*
X90250756Y-102919270D01*
X90250751Y-102919273D01*
X90243383Y-102922190D01*
X90233817Y-102929140D01*
X90207625Y-102948169D01*
X90197706Y-102954685D01*
X90171521Y-102970171D01*
X90125244Y-102986445D01*
X90083845Y-102992374D01*
X90046194Y-102997766D01*
X89975926Y-102987624D01*
X89922296Y-102941101D01*
X89902332Y-102872969D01*
X89903605Y-102855177D01*
X89916731Y-102763522D01*
X89918004Y-102754633D01*
X89910594Y-102702891D01*
X89920737Y-102632623D01*
X89937897Y-102607923D01*
X89949913Y-102585917D01*
X89949782Y-102584084D01*
X89945531Y-102577469D01*
X89908679Y-102540617D01*
X89903596Y-102536056D01*
X89857563Y-102499043D01*
X89859278Y-102496910D01*
X89838782Y-102476473D01*
X89837068Y-102477851D01*
X89824075Y-102461691D01*
X89797875Y-102429105D01*
X89340895Y-101972125D01*
X89292149Y-101932932D01*
X89293683Y-101931024D01*
X89273289Y-101910633D01*
X89271383Y-101912165D01*
X89263196Y-101901983D01*
X89232190Y-101863419D01*
X88775210Y-101406439D01*
X88726464Y-101367246D01*
X88727996Y-101365340D01*
X88707605Y-101344946D01*
X88705697Y-101346480D01*
X88673921Y-101306959D01*
X88666504Y-101297734D01*
X88209524Y-100840754D01*
X88160778Y-100801561D01*
X88162312Y-100799653D01*
X88141918Y-100779262D01*
X88140012Y-100780794D01*
X88138780Y-100779262D01*
X88100819Y-100732048D01*
X87643839Y-100275068D01*
X87595093Y-100235875D01*
X87596622Y-100233973D01*
X87576229Y-100213580D01*
X87574327Y-100215109D01*
X87563385Y-100201500D01*
X87535134Y-100166363D01*
X87078154Y-99709383D01*
X87029408Y-99670190D01*
X87030940Y-99668284D01*
X87010549Y-99647890D01*
X87008641Y-99649424D01*
X87007408Y-99647890D01*
X86969448Y-99600678D01*
X86517865Y-99149095D01*
X86483839Y-99086783D01*
X86488904Y-99015968D01*
X86517865Y-98970905D01*
X86969448Y-98519322D01*
X87008641Y-98470576D01*
X87010549Y-98472110D01*
X87030940Y-98451716D01*
X87029408Y-98449810D01*
X87066923Y-98419647D01*
X87078154Y-98410617D01*
X87227819Y-98260952D01*
X87290131Y-98226926D01*
X87360946Y-98231991D01*
G37*
%TD.AperFunction*%
%TA.AperFunction,Conductor*%
G36*
X92754032Y-92838904D02*
G01*
X92799095Y-92867865D01*
X93250678Y-93319448D01*
X93265997Y-93331765D01*
X93299424Y-93358641D01*
X93297890Y-93360549D01*
X93318284Y-93380940D01*
X93320190Y-93379408D01*
X93359383Y-93428154D01*
X93816363Y-93885134D01*
X93819025Y-93887274D01*
X93865109Y-93924327D01*
X93863580Y-93926229D01*
X93883973Y-93946622D01*
X93885875Y-93945093D01*
X93925068Y-93993839D01*
X94382048Y-94450819D01*
X94384710Y-94452959D01*
X94430794Y-94490012D01*
X94429262Y-94491918D01*
X94449653Y-94512312D01*
X94451561Y-94510778D01*
X94490754Y-94559524D01*
X94947734Y-95016504D01*
X94972486Y-95036405D01*
X94996480Y-95055697D01*
X94994946Y-95057605D01*
X95015340Y-95077996D01*
X95017246Y-95076464D01*
X95056439Y-95125210D01*
X95513419Y-95582190D01*
X95545724Y-95608164D01*
X95562165Y-95621383D01*
X95560633Y-95623289D01*
X95581024Y-95643683D01*
X95582932Y-95642149D01*
X95622125Y-95690895D01*
X96079105Y-96147875D01*
X96081767Y-96150015D01*
X96127851Y-96187068D01*
X96126508Y-96188739D01*
X96147034Y-96209178D01*
X96149043Y-96207563D01*
X96186056Y-96253598D01*
X96190611Y-96258675D01*
X96224236Y-96292300D01*
X96238180Y-96299914D01*
X96240013Y-96299783D01*
X96258021Y-96288210D01*
X96258695Y-96289258D01*
X96308246Y-96262200D01*
X96352891Y-96260594D01*
X96404633Y-96268004D01*
X96505177Y-96253605D01*
X96575445Y-96263747D01*
X96629075Y-96310270D01*
X96649039Y-96378402D01*
X96647766Y-96396194D01*
X96633367Y-96496738D01*
X96634640Y-96505627D01*
X96640777Y-96548480D01*
X96630634Y-96618748D01*
X96613474Y-96643448D01*
X96601458Y-96665454D01*
X96601589Y-96667287D01*
X96605840Y-96673902D01*
X96642692Y-96710754D01*
X96647775Y-96715315D01*
X96693808Y-96752328D01*
X96692093Y-96754461D01*
X96712589Y-96774898D01*
X96714303Y-96773520D01*
X96753496Y-96822266D01*
X97210476Y-97279246D01*
X97235039Y-97298995D01*
X97259222Y-97318439D01*
X97257688Y-97320347D01*
X97278082Y-97340738D01*
X97279988Y-97339206D01*
X97319181Y-97387952D01*
X97697749Y-97766520D01*
X97731775Y-97828832D01*
X97726710Y-97899647D01*
X97684163Y-97956483D01*
X97634852Y-97978861D01*
X97552566Y-97996352D01*
X97546536Y-97999037D01*
X97546535Y-97999037D01*
X97384132Y-98071343D01*
X97384130Y-98071344D01*
X97378102Y-98074028D01*
X97372761Y-98077908D01*
X97372760Y-98077909D01*
X97325081Y-98112550D01*
X97223601Y-98186280D01*
X97219186Y-98191183D01*
X97214274Y-98195606D01*
X97213149Y-98194357D01*
X97159840Y-98227197D01*
X97126654Y-98231646D01*
X96888317Y-98231646D01*
X96877134Y-98231119D01*
X96869641Y-98229444D01*
X96861715Y-98229693D01*
X96861714Y-98229693D01*
X96801551Y-98231584D01*
X96797593Y-98231646D01*
X96769693Y-98231646D01*
X96765703Y-98232150D01*
X96753869Y-98233082D01*
X96709660Y-98234472D01*
X96702044Y-98236685D01*
X96702042Y-98236685D01*
X96690201Y-98240125D01*
X96670842Y-98244134D01*
X96669532Y-98244300D01*
X96650752Y-98246672D01*
X96643386Y-98249588D01*
X96643380Y-98249590D01*
X96609647Y-98262946D01*
X96598417Y-98266791D01*
X96563566Y-98276916D01*
X96555956Y-98279127D01*
X96549133Y-98283162D01*
X96538515Y-98289441D01*
X96520762Y-98298138D01*
X96517825Y-98299301D01*
X96501932Y-98305594D01*
X96495517Y-98310255D01*
X96466161Y-98331583D01*
X96456244Y-98338097D01*
X96418187Y-98360604D01*
X96403866Y-98374925D01*
X96388833Y-98387765D01*
X96372442Y-98399674D01*
X96367391Y-98405780D01*
X96344251Y-98433751D01*
X96336261Y-98442530D01*
X93674341Y-101104449D01*
X93612029Y-101138475D01*
X93585246Y-101141354D01*
X92799448Y-101141354D01*
X92731327Y-101121352D01*
X92710353Y-101104449D01*
X90033360Y-98427455D01*
X90025820Y-98419169D01*
X90021708Y-98412690D01*
X89972056Y-98366064D01*
X89969215Y-98363310D01*
X89949478Y-98343573D01*
X89946281Y-98341093D01*
X89937259Y-98333388D01*
X89910808Y-98308549D01*
X89905029Y-98303122D01*
X89898083Y-98299303D01*
X89898080Y-98299301D01*
X89887274Y-98293360D01*
X89870755Y-98282509D01*
X89863544Y-98276916D01*
X89854749Y-98270094D01*
X89847480Y-98266949D01*
X89847476Y-98266946D01*
X89814171Y-98252534D01*
X89803521Y-98247317D01*
X89764768Y-98226013D01*
X89745145Y-98220975D01*
X89726442Y-98214571D01*
X89715128Y-98209675D01*
X89715127Y-98209675D01*
X89707853Y-98206527D01*
X89700030Y-98205288D01*
X89700020Y-98205285D01*
X89664184Y-98199609D01*
X89652564Y-98197203D01*
X89617419Y-98188180D01*
X89617418Y-98188180D01*
X89609738Y-98186208D01*
X89589484Y-98186208D01*
X89569773Y-98184657D01*
X89557594Y-98182728D01*
X89549765Y-98181488D01*
X89541873Y-98182234D01*
X89505747Y-98185649D01*
X89493889Y-98186208D01*
X89000072Y-98186208D01*
X88931951Y-98166206D01*
X88885458Y-98112550D01*
X88874846Y-98049628D01*
X88875993Y-98044496D01*
X88873854Y-97976437D01*
X88873792Y-97972480D01*
X88873792Y-97944549D01*
X88873286Y-97940543D01*
X88872353Y-97928697D01*
X88871914Y-97914707D01*
X88870965Y-97884515D01*
X88865314Y-97865063D01*
X88861306Y-97845711D01*
X88859760Y-97833473D01*
X88859759Y-97833471D01*
X88858766Y-97825608D01*
X88842486Y-97784491D01*
X88838651Y-97773290D01*
X88826310Y-97730811D01*
X88822277Y-97723992D01*
X88822275Y-97723987D01*
X88815999Y-97713376D01*
X88807302Y-97695626D01*
X88799844Y-97676788D01*
X88773863Y-97641028D01*
X88767345Y-97631106D01*
X88748870Y-97599865D01*
X88748866Y-97599860D01*
X88744834Y-97593042D01*
X88730510Y-97578718D01*
X88717668Y-97563683D01*
X88705764Y-97547298D01*
X88671698Y-97519116D01*
X88662919Y-97511127D01*
X88251755Y-97099963D01*
X88217729Y-97037651D01*
X88216123Y-97028731D01*
X88206549Y-96961881D01*
X88216691Y-96891613D01*
X88263214Y-96837983D01*
X88331345Y-96818018D01*
X88349138Y-96819291D01*
X88449682Y-96833690D01*
X88458571Y-96832417D01*
X88501424Y-96826280D01*
X88571692Y-96836423D01*
X88596389Y-96853581D01*
X88618397Y-96865598D01*
X88620230Y-96865467D01*
X88626845Y-96861216D01*
X88663697Y-96824364D01*
X88668258Y-96819281D01*
X88705271Y-96773248D01*
X88707280Y-96774863D01*
X88727806Y-96754423D01*
X88726464Y-96752754D01*
X88772548Y-96715701D01*
X88775210Y-96713561D01*
X89232190Y-96256581D01*
X89271383Y-96207835D01*
X89273289Y-96209367D01*
X89293683Y-96188976D01*
X89292149Y-96187068D01*
X89338233Y-96150015D01*
X89340895Y-96147875D01*
X89797875Y-95690895D01*
X89837068Y-95642149D01*
X89838976Y-95643683D01*
X89859367Y-95623289D01*
X89857835Y-95621383D01*
X89874276Y-95608164D01*
X89906581Y-95582190D01*
X90363561Y-95125210D01*
X90402754Y-95076464D01*
X90404660Y-95077996D01*
X90425054Y-95057605D01*
X90423520Y-95055697D01*
X90447514Y-95036405D01*
X90472266Y-95016504D01*
X90929246Y-94559524D01*
X90968439Y-94510778D01*
X90970347Y-94512312D01*
X90990738Y-94491918D01*
X90989206Y-94490012D01*
X91035290Y-94452959D01*
X91037952Y-94450819D01*
X91494932Y-93993839D01*
X91534125Y-93945093D01*
X91536027Y-93946622D01*
X91556420Y-93926229D01*
X91554891Y-93924327D01*
X91600975Y-93887274D01*
X91603637Y-93885134D01*
X92060617Y-93428154D01*
X92099810Y-93379408D01*
X92101716Y-93380940D01*
X92122110Y-93360549D01*
X92120576Y-93358641D01*
X92154003Y-93331765D01*
X92169322Y-93319448D01*
X92620905Y-92867865D01*
X92683217Y-92833839D01*
X92754032Y-92838904D01*
G37*
%TD.AperFunction*%
M02*
