%TF.GenerationSoftware,KiCad,Pcbnew,6.0.11-2627ca5db0~126~ubuntu20.04.1*%
%TF.CreationDate,2023-09-03T18:12:06+02:00*%
%TF.ProjectId,sboxnet-modul,73626f78-6e65-4742-9d6d-6f64756c2e6b,rev?*%
%TF.SameCoordinates,Original*%
%TF.FileFunction,Drillmap*%
%TF.FilePolarity,Positive*%
%FSLAX45Y45*%
G04 Gerber Fmt 4.5, Leading zero omitted, Abs format (unit mm)*
G04 Created by KiCad (PCBNEW 6.0.11-2627ca5db0~126~ubuntu20.04.1) date 2023-09-03 18:12:06*
%MOMM*%
%LPD*%
G01*
G04 APERTURE LIST*
%ADD10C,0.100000*%
%ADD11C,0.200000*%
%ADD12C,0.317000*%
G04 APERTURE END LIST*
D10*
X12573000Y-12192000D02*
X7620000Y-12192000D01*
X7620000Y-12192000D02*
X7617460Y-7576820D01*
X12570460Y-7579360D02*
X12573000Y-12192000D01*
X7617460Y-7576820D02*
X12570460Y-7579360D01*
D11*
D12*
X11525500Y-8795000D02*
X11842500Y-9112000D01*
X11842500Y-8795000D02*
X11525500Y-9112000D01*
X11525500Y-10827000D02*
X11842500Y-11144000D01*
X11842500Y-10827000D02*
X11525500Y-11144000D01*
X11537946Y-7648500D02*
X11854946Y-7965500D01*
X11854946Y-7648500D02*
X11537946Y-7965500D01*
X11537946Y-9680500D02*
X11854946Y-9997500D01*
X11854946Y-9680500D02*
X11537946Y-9997500D01*
D11*
X7870079Y-12507476D02*
X7870079Y-12307476D01*
X7917698Y-12307476D01*
X7946269Y-12317000D01*
X7965317Y-12336048D01*
X7974841Y-12355095D01*
X7984365Y-12393190D01*
X7984365Y-12421762D01*
X7974841Y-12459857D01*
X7965317Y-12478905D01*
X7946269Y-12497952D01*
X7917698Y-12507476D01*
X7870079Y-12507476D01*
X8070079Y-12507476D02*
X8070079Y-12374143D01*
X8070079Y-12412238D02*
X8079603Y-12393190D01*
X8089127Y-12383667D01*
X8108174Y-12374143D01*
X8127222Y-12374143D01*
X8193888Y-12507476D02*
X8193888Y-12374143D01*
X8193888Y-12307476D02*
X8184365Y-12317000D01*
X8193888Y-12326524D01*
X8203412Y-12317000D01*
X8193888Y-12307476D01*
X8193888Y-12326524D01*
X8317698Y-12507476D02*
X8298650Y-12497952D01*
X8289127Y-12478905D01*
X8289127Y-12307476D01*
X8422460Y-12507476D02*
X8403412Y-12497952D01*
X8393889Y-12478905D01*
X8393889Y-12307476D01*
X8651031Y-12507476D02*
X8651031Y-12307476D01*
X8717698Y-12450333D01*
X8784365Y-12307476D01*
X8784365Y-12507476D01*
X8965317Y-12507476D02*
X8965317Y-12402714D01*
X8955793Y-12383667D01*
X8936746Y-12374143D01*
X8898650Y-12374143D01*
X8879603Y-12383667D01*
X8965317Y-12497952D02*
X8946270Y-12507476D01*
X8898650Y-12507476D01*
X8879603Y-12497952D01*
X8870079Y-12478905D01*
X8870079Y-12459857D01*
X8879603Y-12440809D01*
X8898650Y-12431286D01*
X8946270Y-12431286D01*
X8965317Y-12421762D01*
X9060555Y-12374143D02*
X9060555Y-12574143D01*
X9060555Y-12383667D02*
X9079603Y-12374143D01*
X9117698Y-12374143D01*
X9136746Y-12383667D01*
X9146270Y-12393190D01*
X9155793Y-12412238D01*
X9155793Y-12469381D01*
X9146270Y-12488428D01*
X9136746Y-12497952D01*
X9117698Y-12507476D01*
X9079603Y-12507476D01*
X9060555Y-12497952D01*
X9241508Y-12488428D02*
X9251031Y-12497952D01*
X9241508Y-12507476D01*
X9231984Y-12497952D01*
X9241508Y-12488428D01*
X9241508Y-12507476D01*
X9241508Y-12383667D02*
X9251031Y-12393190D01*
X9241508Y-12402714D01*
X9231984Y-12393190D01*
X9241508Y-12383667D01*
X9241508Y-12402714D01*
X7412460Y-12737000D02*
X7612460Y-12937000D01*
X7612460Y-12737000D02*
X7412460Y-12937000D01*
X7851031Y-12727476D02*
X7974841Y-12727476D01*
X7908174Y-12803667D01*
X7936746Y-12803667D01*
X7955793Y-12813190D01*
X7965317Y-12822714D01*
X7974841Y-12841762D01*
X7974841Y-12889381D01*
X7965317Y-12908428D01*
X7955793Y-12917952D01*
X7936746Y-12927476D01*
X7879603Y-12927476D01*
X7860555Y-12917952D01*
X7851031Y-12908428D01*
X8060555Y-12908428D02*
X8070079Y-12917952D01*
X8060555Y-12927476D01*
X8051031Y-12917952D01*
X8060555Y-12908428D01*
X8060555Y-12927476D01*
X8260555Y-12927476D02*
X8146269Y-12927476D01*
X8203412Y-12927476D02*
X8203412Y-12727476D01*
X8184365Y-12756048D01*
X8165317Y-12775095D01*
X8146269Y-12784619D01*
X8327222Y-12727476D02*
X8460555Y-12727476D01*
X8374841Y-12927476D01*
X8574841Y-12727476D02*
X8593889Y-12727476D01*
X8612936Y-12737000D01*
X8622460Y-12746524D01*
X8631984Y-12765571D01*
X8641508Y-12803667D01*
X8641508Y-12851286D01*
X8631984Y-12889381D01*
X8622460Y-12908428D01*
X8612936Y-12917952D01*
X8593889Y-12927476D01*
X8574841Y-12927476D01*
X8555793Y-12917952D01*
X8546270Y-12908428D01*
X8536746Y-12889381D01*
X8527222Y-12851286D01*
X8527222Y-12803667D01*
X8536746Y-12765571D01*
X8546270Y-12746524D01*
X8555793Y-12737000D01*
X8574841Y-12727476D01*
X8727222Y-12927476D02*
X8727222Y-12794143D01*
X8727222Y-12813190D02*
X8736746Y-12803667D01*
X8755793Y-12794143D01*
X8784365Y-12794143D01*
X8803412Y-12803667D01*
X8812936Y-12822714D01*
X8812936Y-12927476D01*
X8812936Y-12822714D02*
X8822460Y-12803667D01*
X8841508Y-12794143D01*
X8870079Y-12794143D01*
X8889127Y-12803667D01*
X8898650Y-12822714D01*
X8898650Y-12927476D01*
X8993889Y-12927476D02*
X8993889Y-12794143D01*
X8993889Y-12813190D02*
X9003412Y-12803667D01*
X9022460Y-12794143D01*
X9051031Y-12794143D01*
X9070079Y-12803667D01*
X9079603Y-12822714D01*
X9079603Y-12927476D01*
X9079603Y-12822714D02*
X9089127Y-12803667D01*
X9108174Y-12794143D01*
X9136746Y-12794143D01*
X9155793Y-12803667D01*
X9165317Y-12822714D01*
X9165317Y-12927476D01*
X9555793Y-12717952D02*
X9384365Y-12975095D01*
X9812936Y-12727476D02*
X9831984Y-12727476D01*
X9851031Y-12737000D01*
X9860555Y-12746524D01*
X9870079Y-12765571D01*
X9879603Y-12803667D01*
X9879603Y-12851286D01*
X9870079Y-12889381D01*
X9860555Y-12908428D01*
X9851031Y-12917952D01*
X9831984Y-12927476D01*
X9812936Y-12927476D01*
X9793889Y-12917952D01*
X9784365Y-12908428D01*
X9774841Y-12889381D01*
X9765317Y-12851286D01*
X9765317Y-12803667D01*
X9774841Y-12765571D01*
X9784365Y-12746524D01*
X9793889Y-12737000D01*
X9812936Y-12727476D01*
X9965317Y-12908428D02*
X9974841Y-12917952D01*
X9965317Y-12927476D01*
X9955793Y-12917952D01*
X9965317Y-12908428D01*
X9965317Y-12927476D01*
X10165317Y-12927476D02*
X10051031Y-12927476D01*
X10108174Y-12927476D02*
X10108174Y-12727476D01*
X10089127Y-12756048D01*
X10070079Y-12775095D01*
X10051031Y-12784619D01*
X10241508Y-12746524D02*
X10251031Y-12737000D01*
X10270079Y-12727476D01*
X10317698Y-12727476D01*
X10336746Y-12737000D01*
X10346270Y-12746524D01*
X10355793Y-12765571D01*
X10355793Y-12784619D01*
X10346270Y-12813190D01*
X10231984Y-12927476D01*
X10355793Y-12927476D01*
X10527222Y-12794143D02*
X10527222Y-12927476D01*
X10479603Y-12717952D02*
X10431984Y-12860809D01*
X10555793Y-12860809D01*
X10660555Y-12813190D02*
X10641508Y-12803667D01*
X10631984Y-12794143D01*
X10622460Y-12775095D01*
X10622460Y-12765571D01*
X10631984Y-12746524D01*
X10641508Y-12737000D01*
X10660555Y-12727476D01*
X10698650Y-12727476D01*
X10717698Y-12737000D01*
X10727222Y-12746524D01*
X10736746Y-12765571D01*
X10736746Y-12775095D01*
X10727222Y-12794143D01*
X10717698Y-12803667D01*
X10698650Y-12813190D01*
X10660555Y-12813190D01*
X10641508Y-12822714D01*
X10631984Y-12832238D01*
X10622460Y-12851286D01*
X10622460Y-12889381D01*
X10631984Y-12908428D01*
X10641508Y-12917952D01*
X10660555Y-12927476D01*
X10698650Y-12927476D01*
X10717698Y-12917952D01*
X10727222Y-12908428D01*
X10736746Y-12889381D01*
X10736746Y-12851286D01*
X10727222Y-12832238D01*
X10717698Y-12822714D01*
X10698650Y-12813190D01*
X10812936Y-12727476D02*
X10812936Y-12765571D01*
X10889127Y-12727476D02*
X10889127Y-12765571D01*
X11184365Y-13003667D02*
X11174841Y-12994143D01*
X11155793Y-12965571D01*
X11146270Y-12946524D01*
X11136746Y-12917952D01*
X11127222Y-12870333D01*
X11127222Y-12832238D01*
X11136746Y-12784619D01*
X11146270Y-12756048D01*
X11155793Y-12737000D01*
X11174841Y-12708428D01*
X11184365Y-12698905D01*
X11346269Y-12794143D02*
X11346269Y-12927476D01*
X11298650Y-12717952D02*
X11251031Y-12860809D01*
X11374841Y-12860809D01*
X11603412Y-12927476D02*
X11603412Y-12727476D01*
X11689127Y-12927476D02*
X11689127Y-12822714D01*
X11679603Y-12803667D01*
X11660555Y-12794143D01*
X11631984Y-12794143D01*
X11612936Y-12803667D01*
X11603412Y-12813190D01*
X11812936Y-12927476D02*
X11793888Y-12917952D01*
X11784365Y-12908428D01*
X11774841Y-12889381D01*
X11774841Y-12832238D01*
X11784365Y-12813190D01*
X11793888Y-12803667D01*
X11812936Y-12794143D01*
X11841508Y-12794143D01*
X11860555Y-12803667D01*
X11870079Y-12813190D01*
X11879603Y-12832238D01*
X11879603Y-12889381D01*
X11870079Y-12908428D01*
X11860555Y-12917952D01*
X11841508Y-12927476D01*
X11812936Y-12927476D01*
X11993888Y-12927476D02*
X11974841Y-12917952D01*
X11965317Y-12898905D01*
X11965317Y-12727476D01*
X12146269Y-12917952D02*
X12127222Y-12927476D01*
X12089127Y-12927476D01*
X12070079Y-12917952D01*
X12060555Y-12898905D01*
X12060555Y-12822714D01*
X12070079Y-12803667D01*
X12089127Y-12794143D01*
X12127222Y-12794143D01*
X12146269Y-12803667D01*
X12155793Y-12822714D01*
X12155793Y-12841762D01*
X12060555Y-12860809D01*
X12231984Y-12917952D02*
X12251031Y-12927476D01*
X12289127Y-12927476D01*
X12308174Y-12917952D01*
X12317698Y-12898905D01*
X12317698Y-12889381D01*
X12308174Y-12870333D01*
X12289127Y-12860809D01*
X12260555Y-12860809D01*
X12241508Y-12851286D01*
X12231984Y-12832238D01*
X12231984Y-12822714D01*
X12241508Y-12803667D01*
X12260555Y-12794143D01*
X12289127Y-12794143D01*
X12308174Y-12803667D01*
X12384365Y-13003667D02*
X12393888Y-12994143D01*
X12412936Y-12965571D01*
X12422460Y-12946524D01*
X12431984Y-12917952D01*
X12441508Y-12870333D01*
X12441508Y-12832238D01*
X12431984Y-12784619D01*
X12422460Y-12756048D01*
X12412936Y-12737000D01*
X12393888Y-12708428D01*
X12384365Y-12698905D01*
X12746269Y-13003667D02*
X12736746Y-12994143D01*
X12717698Y-12965571D01*
X12708174Y-12946524D01*
X12698650Y-12917952D01*
X12689127Y-12870333D01*
X12689127Y-12832238D01*
X12698650Y-12784619D01*
X12708174Y-12756048D01*
X12717698Y-12737000D01*
X12736746Y-12708428D01*
X12746269Y-12698905D01*
X12822460Y-12794143D02*
X12822460Y-12927476D01*
X12822460Y-12813190D02*
X12831984Y-12803667D01*
X12851031Y-12794143D01*
X12879603Y-12794143D01*
X12898650Y-12803667D01*
X12908174Y-12822714D01*
X12908174Y-12927476D01*
X13031984Y-12927476D02*
X13012936Y-12917952D01*
X13003412Y-12908428D01*
X12993888Y-12889381D01*
X12993888Y-12832238D01*
X13003412Y-12813190D01*
X13012936Y-12803667D01*
X13031984Y-12794143D01*
X13060555Y-12794143D01*
X13079603Y-12803667D01*
X13089127Y-12813190D01*
X13098650Y-12832238D01*
X13098650Y-12889381D01*
X13089127Y-12908428D01*
X13079603Y-12917952D01*
X13060555Y-12927476D01*
X13031984Y-12927476D01*
X13155793Y-12794143D02*
X13231984Y-12794143D01*
X13184365Y-12727476D02*
X13184365Y-12898905D01*
X13193888Y-12917952D01*
X13212936Y-12927476D01*
X13231984Y-12927476D01*
X13451031Y-12794143D02*
X13451031Y-12994143D01*
X13451031Y-12803667D02*
X13470079Y-12794143D01*
X13508174Y-12794143D01*
X13527222Y-12803667D01*
X13536746Y-12813190D01*
X13546269Y-12832238D01*
X13546269Y-12889381D01*
X13536746Y-12908428D01*
X13527222Y-12917952D01*
X13508174Y-12927476D01*
X13470079Y-12927476D01*
X13451031Y-12917952D01*
X13660555Y-12927476D02*
X13641508Y-12917952D01*
X13631984Y-12898905D01*
X13631984Y-12727476D01*
X13822460Y-12927476D02*
X13822460Y-12822714D01*
X13812936Y-12803667D01*
X13793888Y-12794143D01*
X13755793Y-12794143D01*
X13736746Y-12803667D01*
X13822460Y-12917952D02*
X13803412Y-12927476D01*
X13755793Y-12927476D01*
X13736746Y-12917952D01*
X13727222Y-12898905D01*
X13727222Y-12879857D01*
X13736746Y-12860809D01*
X13755793Y-12851286D01*
X13803412Y-12851286D01*
X13822460Y-12841762D01*
X13889127Y-12794143D02*
X13965317Y-12794143D01*
X13917698Y-12727476D02*
X13917698Y-12898905D01*
X13927222Y-12917952D01*
X13946269Y-12927476D01*
X13965317Y-12927476D01*
X14108174Y-12917952D02*
X14089127Y-12927476D01*
X14051031Y-12927476D01*
X14031984Y-12917952D01*
X14022460Y-12898905D01*
X14022460Y-12822714D01*
X14031984Y-12803667D01*
X14051031Y-12794143D01*
X14089127Y-12794143D01*
X14108174Y-12803667D01*
X14117698Y-12822714D01*
X14117698Y-12841762D01*
X14022460Y-12860809D01*
X14289127Y-12927476D02*
X14289127Y-12727476D01*
X14289127Y-12917952D02*
X14270079Y-12927476D01*
X14231984Y-12927476D01*
X14212936Y-12917952D01*
X14203412Y-12908428D01*
X14193888Y-12889381D01*
X14193888Y-12832238D01*
X14203412Y-12813190D01*
X14212936Y-12803667D01*
X14231984Y-12794143D01*
X14270079Y-12794143D01*
X14289127Y-12803667D01*
X14365317Y-13003667D02*
X14374841Y-12994143D01*
X14393888Y-12965571D01*
X14403412Y-12946524D01*
X14412936Y-12917952D01*
X14422460Y-12870333D01*
X14422460Y-12832238D01*
X14412936Y-12784619D01*
X14403412Y-12756048D01*
X14393888Y-12737000D01*
X14374841Y-12708428D01*
X14365317Y-12698905D01*
M02*
