M48
; DRILL file {KiCad 6.0.11-2627ca5db0~126~ubuntu20.04.1} date So 03 Sep 2023 18:12:08 CEST
; FORMAT={-:-/ absolute / inch / decimal}
; #@! TF.CreationDate,2023-09-03T18:12:08+02:00
; #@! TF.GenerationSoftware,Kicad,Pcbnew,6.0.11-2627ca5db0~126~ubuntu20.04.1
; #@! TF.FileFunction,Plated,1,2,PTH
FMAT,2
INCH
; #@! TA.AperFunction,Plated,PTH,ViaDrill
T1C0.0157
; #@! TA.AperFunction,Plated,PTH,ComponentDrill
T2C0.0300
; #@! TA.AperFunction,Plated,PTH,ComponentDrill
T3C0.0315
; #@! TA.AperFunction,Plated,PTH,ComponentDrill
T4C0.0354
; #@! TA.AperFunction,Plated,PTH,ComponentDrill
T5C0.0433
%
G90
G05
T1
X3.305Y-4.635
X3.3483Y-3.1367
X3.35Y-3.265
X3.35Y-3.745
X3.404Y-4.635
X3.474Y-3.8905
X3.476Y-3.2906
X3.482Y-3.104
X3.52Y-3.95
X3.5541Y-4.0002
X3.561Y-3.8035
X3.608Y-3.2
X3.6411Y-4.0872
X3.65Y-3.73
X3.66Y-3.87
X3.71Y-3.91
X3.72Y-4.05
X3.739Y-3.382
X3.7648Y-3.9793
X3.836Y-4.252
X3.8518Y-3.8923
X3.877Y-4.256
X3.9045Y-3.6745
X3.931Y-3.081
X3.981Y-4.27
X3.9965Y-3.7635
X4.011Y-4.66
X4.03Y-3.218
X4.031Y-3.118
X4.09Y-4.196
X4.104Y-3.466
X4.119Y-4.285
X4.156Y-4.203
X4.166Y-4.318
X4.17Y-4.491
X4.1825Y-4.6095
X4.238Y-3.601
X4.288Y-4.626
X4.293Y-4.394
X4.371Y-4.616
X4.392Y-4.391
X4.445Y-3.465
X4.449Y-4.291
X4.464Y-4.642
X4.495Y-4.505
X4.537Y-4.7
T2
X3.05Y-3.0713
X3.05Y-3.1713
X3.05Y-3.2713
X3.05Y-3.3713
X3.05Y-3.4713
X3.05Y-3.5713
X3.05Y-3.6713
X3.05Y-3.7713
X3.05Y-3.8713
X3.05Y-3.9713
X3.05Y-4.0713
X3.05Y-4.1713
X3.05Y-4.2713
X3.05Y-4.3713
X3.05Y-4.4713
X3.05Y-4.5713
X3.05Y-4.6713
X3.15Y-3.0713
X3.15Y-3.1713
X3.15Y-3.2713
X3.15Y-3.3713
X3.15Y-3.4713
X3.15Y-3.5713
X3.15Y-3.6713
X3.15Y-3.7713
X3.15Y-3.8713
X3.15Y-3.9713
X3.15Y-4.0713
X3.15Y-4.1713
X3.15Y-4.2713
X3.15Y-4.3713
X3.15Y-4.4713
X3.15Y-4.5713
X3.15Y-4.6713
X3.9409Y-4.3614
X3.9409Y-4.4614
X3.9409Y-4.5614
X4.0409Y-4.3614
X4.0409Y-4.4614
X4.0409Y-4.5614
T3
X3.8818Y-3.4318
X4.0176Y-3.5676
T4
X4.25Y-3.125
X4.25Y-3.225
X4.25Y-3.3248
X4.25Y-3.4248
X4.25Y-3.925
X4.25Y-4.025
X4.25Y-4.1248
X4.25Y-4.2248
X4.35Y-3.1748
X4.35Y-3.2748
X4.35Y-3.3748
X4.35Y-3.9748
X4.35Y-4.0748
X4.35Y-4.1748
T5
X3.503Y-4.5654
X3.503Y-4.7426
X3.759Y-4.5654
X3.759Y-4.7426
T4
G00X4.35Y-3.4748
M15
G01X4.35Y-3.4748
M16
G05
G00X4.35Y-4.2748
M15
G01X4.35Y-4.2748
M16
G05
T0
M30
