%TF.GenerationSoftware,KiCad,Pcbnew,6.0.11-2627ca5db0~126~ubuntu20.04.1*%
%TF.CreationDate,2023-09-03T18:12:06+02:00*%
%TF.ProjectId,sboxnet-modul,73626f78-6e65-4742-9d6d-6f64756c2e6b,rev?*%
%TF.SameCoordinates,Original*%
%TF.FileFunction,Drillmap*%
%TF.FilePolarity,Positive*%
%FSLAX45Y45*%
G04 Gerber Fmt 4.5, Leading zero omitted, Abs format (unit mm)*
G04 Created by KiCad (PCBNEW 6.0.11-2627ca5db0~126~ubuntu20.04.1) date 2023-09-03 18:12:06*
%MOMM*%
%LPD*%
G01*
G04 APERTURE LIST*
%ADD10C,0.100000*%
%ADD11C,0.200000*%
%ADD12C,0.040000*%
%ADD13C,0.076200*%
%ADD14C,0.080000*%
%ADD15C,0.090000*%
%ADD16C,0.110000*%
G04 APERTURE END LIST*
D10*
X12573000Y-12192000D02*
X7620000Y-12192000D01*
X7620000Y-12192000D02*
X7617460Y-7576820D01*
X12570460Y-7579360D02*
X12573000Y-12192000D01*
X7617460Y-7576820D02*
X12570460Y-7579360D01*
D11*
D12*
X8374700Y-11752900D02*
X8414700Y-11792900D01*
X8414700Y-11752900D02*
X8374700Y-11792900D01*
X8484575Y-7947325D02*
X8524575Y-7987325D01*
X8524575Y-7947325D02*
X8484575Y-7987325D01*
X8489000Y-8273100D02*
X8529000Y-8313100D01*
X8529000Y-8273100D02*
X8489000Y-8313100D01*
X8489000Y-9492300D02*
X8529000Y-9532300D01*
X8529000Y-9492300D02*
X8489000Y-9532300D01*
X8626160Y-11752900D02*
X8666160Y-11792900D01*
X8666160Y-11752900D02*
X8626160Y-11792900D01*
X8804029Y-9861971D02*
X8844029Y-9901971D01*
X8844029Y-9861971D02*
X8804029Y-9901971D01*
X8809000Y-8338000D02*
X8849000Y-8378000D01*
X8849000Y-8338000D02*
X8809000Y-8378000D01*
X8824280Y-7864160D02*
X8864280Y-7904160D01*
X8864280Y-7864160D02*
X8824280Y-7904160D01*
X8920800Y-10013000D02*
X8960800Y-10053000D01*
X8960800Y-10013000D02*
X8920800Y-10053000D01*
X9007515Y-10140515D02*
X9047515Y-10180515D01*
X9047515Y-10140515D02*
X9007515Y-10180515D01*
X9025000Y-9641000D02*
X9065000Y-9681000D01*
X9065000Y-9641000D02*
X9025000Y-9681000D01*
X9144320Y-8108000D02*
X9184320Y-8148000D01*
X9184320Y-8108000D02*
X9144320Y-8148000D01*
X9228485Y-10361485D02*
X9268485Y-10401485D01*
X9268485Y-10361485D02*
X9228485Y-10401485D01*
X9251000Y-9454200D02*
X9291000Y-9494200D01*
X9291000Y-9454200D02*
X9251000Y-9494200D01*
X9276400Y-9809800D02*
X9316400Y-9849800D01*
X9316400Y-9809800D02*
X9276400Y-9849800D01*
X9403400Y-9911400D02*
X9443400Y-9951400D01*
X9443400Y-9911400D02*
X9403400Y-9951400D01*
X9428800Y-10267000D02*
X9468800Y-10307000D01*
X9468800Y-10267000D02*
X9428800Y-10307000D01*
X9477060Y-8570280D02*
X9517060Y-8610280D01*
X9517060Y-8570280D02*
X9477060Y-8610280D01*
X9542515Y-10087485D02*
X9582515Y-10127485D01*
X9582515Y-10087485D02*
X9542515Y-10127485D01*
X9723440Y-10780080D02*
X9763440Y-10820080D01*
X9763440Y-10780080D02*
X9723440Y-10820080D01*
X9763485Y-9866515D02*
X9803485Y-9906515D01*
X9803485Y-9866515D02*
X9763485Y-9906515D01*
X9827580Y-10790240D02*
X9867580Y-10830240D01*
X9867580Y-10790240D02*
X9827580Y-10830240D01*
X9897430Y-9313230D02*
X9937430Y-9353230D01*
X9937430Y-9313230D02*
X9897430Y-9353230D01*
X9964740Y-7805740D02*
X10004740Y-7845740D01*
X10004740Y-7805740D02*
X9964740Y-7845740D01*
X10091740Y-10825800D02*
X10131740Y-10865800D01*
X10131740Y-10825800D02*
X10091740Y-10865800D01*
X10131115Y-9539285D02*
X10171115Y-9579285D01*
X10171115Y-9539285D02*
X10131115Y-9579285D01*
X10167940Y-11816400D02*
X10207940Y-11856400D01*
X10207940Y-11816400D02*
X10167940Y-11856400D01*
X10216200Y-8153720D02*
X10256200Y-8193720D01*
X10256200Y-8153720D02*
X10216200Y-8193720D01*
X10218740Y-7899720D02*
X10258740Y-7939720D01*
X10258740Y-7899720D02*
X10218740Y-7939720D01*
X10368600Y-10637840D02*
X10408600Y-10677840D01*
X10408600Y-10637840D02*
X10368600Y-10677840D01*
X10404160Y-8783640D02*
X10444160Y-8823640D01*
X10444160Y-8783640D02*
X10404160Y-8823640D01*
X10442260Y-10863900D02*
X10482260Y-10903900D01*
X10482260Y-10863900D02*
X10442260Y-10903900D01*
X10536240Y-10655620D02*
X10576240Y-10695620D01*
X10576240Y-10655620D02*
X10536240Y-10695620D01*
X10561640Y-10947720D02*
X10601640Y-10987720D01*
X10601640Y-10947720D02*
X10561640Y-10987720D01*
X10571800Y-11387140D02*
X10611800Y-11427140D01*
X10611800Y-11387140D02*
X10571800Y-11427140D01*
X10603550Y-11688130D02*
X10643550Y-11728130D01*
X10643550Y-11688130D02*
X10603550Y-11728130D01*
X10744520Y-9126540D02*
X10784520Y-9166540D01*
X10784520Y-9126540D02*
X10744520Y-9166540D01*
X10871520Y-11730040D02*
X10911520Y-11770040D01*
X10911520Y-11730040D02*
X10871520Y-11770040D01*
X10884220Y-11140760D02*
X10924220Y-11180760D01*
X10924220Y-11140760D02*
X10884220Y-11180760D01*
X11082340Y-11704640D02*
X11122340Y-11744640D01*
X11122340Y-11704640D02*
X11082340Y-11744640D01*
X11135680Y-11133140D02*
X11175680Y-11173140D01*
X11175680Y-11133140D02*
X11135680Y-11173140D01*
X11270300Y-8781100D02*
X11310300Y-8821100D01*
X11310300Y-8781100D02*
X11270300Y-8821100D01*
X11280460Y-10879140D02*
X11320460Y-10919140D01*
X11320460Y-10879140D02*
X11280460Y-10919140D01*
X11318560Y-11770680D02*
X11358560Y-11810680D01*
X11358560Y-11770680D02*
X11318560Y-11810680D01*
X11397300Y-11422700D02*
X11437300Y-11462700D01*
X11437300Y-11422700D02*
X11397300Y-11462700D01*
X11503980Y-11918000D02*
X11543980Y-11958000D01*
X11543980Y-11918000D02*
X11503980Y-11958000D01*
D13*
X7785100Y-7801000D02*
G75*
G03*
X7785100Y-7801000I-38100J0D01*
G01*
X7785100Y-8055000D02*
G75*
G03*
X7785100Y-8055000I-38100J0D01*
G01*
X7785100Y-8309000D02*
G75*
G03*
X7785100Y-8309000I-38100J0D01*
G01*
X7785100Y-8563000D02*
G75*
G03*
X7785100Y-8563000I-38100J0D01*
G01*
X7785100Y-8817000D02*
G75*
G03*
X7785100Y-8817000I-38100J0D01*
G01*
X7785100Y-9071000D02*
G75*
G03*
X7785100Y-9071000I-38100J0D01*
G01*
X7785100Y-9325000D02*
G75*
G03*
X7785100Y-9325000I-38100J0D01*
G01*
X7785100Y-9579000D02*
G75*
G03*
X7785100Y-9579000I-38100J0D01*
G01*
X7785100Y-9833000D02*
G75*
G03*
X7785100Y-9833000I-38100J0D01*
G01*
X7785100Y-10087000D02*
G75*
G03*
X7785100Y-10087000I-38100J0D01*
G01*
X7785100Y-10341000D02*
G75*
G03*
X7785100Y-10341000I-38100J0D01*
G01*
X7785100Y-10595000D02*
G75*
G03*
X7785100Y-10595000I-38100J0D01*
G01*
X7785100Y-10849000D02*
G75*
G03*
X7785100Y-10849000I-38100J0D01*
G01*
X7785100Y-11103000D02*
G75*
G03*
X7785100Y-11103000I-38100J0D01*
G01*
X7785100Y-11357000D02*
G75*
G03*
X7785100Y-11357000I-38100J0D01*
G01*
X7785100Y-11611000D02*
G75*
G03*
X7785100Y-11611000I-38100J0D01*
G01*
X7785100Y-11865000D02*
G75*
G03*
X7785100Y-11865000I-38100J0D01*
G01*
X8039100Y-7801000D02*
G75*
G03*
X8039100Y-7801000I-38100J0D01*
G01*
X8039100Y-8055000D02*
G75*
G03*
X8039100Y-8055000I-38100J0D01*
G01*
X8039100Y-8309000D02*
G75*
G03*
X8039100Y-8309000I-38100J0D01*
G01*
X8039100Y-8563000D02*
G75*
G03*
X8039100Y-8563000I-38100J0D01*
G01*
X8039100Y-8817000D02*
G75*
G03*
X8039100Y-8817000I-38100J0D01*
G01*
X8039100Y-9071000D02*
G75*
G03*
X8039100Y-9071000I-38100J0D01*
G01*
X8039100Y-9325000D02*
G75*
G03*
X8039100Y-9325000I-38100J0D01*
G01*
X8039100Y-9579000D02*
G75*
G03*
X8039100Y-9579000I-38100J0D01*
G01*
X8039100Y-9833000D02*
G75*
G03*
X8039100Y-9833000I-38100J0D01*
G01*
X8039100Y-10087000D02*
G75*
G03*
X8039100Y-10087000I-38100J0D01*
G01*
X8039100Y-10341000D02*
G75*
G03*
X8039100Y-10341000I-38100J0D01*
G01*
X8039100Y-10595000D02*
G75*
G03*
X8039100Y-10595000I-38100J0D01*
G01*
X8039100Y-10849000D02*
G75*
G03*
X8039100Y-10849000I-38100J0D01*
G01*
X8039100Y-11103000D02*
G75*
G03*
X8039100Y-11103000I-38100J0D01*
G01*
X8039100Y-11357000D02*
G75*
G03*
X8039100Y-11357000I-38100J0D01*
G01*
X8039100Y-11611000D02*
G75*
G03*
X8039100Y-11611000I-38100J0D01*
G01*
X8039100Y-11865000D02*
G75*
G03*
X8039100Y-11865000I-38100J0D01*
G01*
X10048100Y-11078000D02*
G75*
G03*
X10048100Y-11078000I-38100J0D01*
G01*
X10048100Y-11332000D02*
G75*
G03*
X10048100Y-11332000I-38100J0D01*
G01*
X10048100Y-11586000D02*
G75*
G03*
X10048100Y-11586000I-38100J0D01*
G01*
X10302100Y-11078000D02*
G75*
G03*
X10302100Y-11078000I-38100J0D01*
G01*
X10302100Y-11332000D02*
G75*
G03*
X10302100Y-11332000I-38100J0D01*
G01*
X10302100Y-11586000D02*
G75*
G03*
X10302100Y-11586000I-38100J0D01*
G01*
D14*
X9859759Y-8676759D02*
X9859759Y-8756759D01*
X9819759Y-8716759D02*
X9899759Y-8716759D01*
X10204827Y-9021827D02*
X10204827Y-9101827D01*
X10164827Y-9061827D02*
X10244827Y-9061827D01*
D15*
X10826820Y-7969320D02*
X10826820Y-7905680D01*
X10763180Y-7905680D01*
X10763180Y-7969320D01*
X10826820Y-7969320D01*
X10826820Y-8223320D02*
X10826820Y-8159680D01*
X10763180Y-8159680D01*
X10763180Y-8223320D01*
X10826820Y-8223320D01*
X10826820Y-8476820D02*
X10826820Y-8413180D01*
X10763180Y-8413180D01*
X10763180Y-8476820D01*
X10826820Y-8476820D01*
X10826820Y-8730820D02*
X10826820Y-8667180D01*
X10763180Y-8667180D01*
X10763180Y-8730820D01*
X10826820Y-8730820D01*
X10826820Y-10001320D02*
X10826820Y-9937680D01*
X10763180Y-9937680D01*
X10763180Y-10001320D01*
X10826820Y-10001320D01*
X10826820Y-10255320D02*
X10826820Y-10191680D01*
X10763180Y-10191680D01*
X10763180Y-10255320D01*
X10826820Y-10255320D01*
X10826820Y-10508820D02*
X10826820Y-10445180D01*
X10763180Y-10445180D01*
X10763180Y-10508820D01*
X10826820Y-10508820D01*
X10826820Y-10762820D02*
X10826820Y-10699180D01*
X10763180Y-10699180D01*
X10763180Y-10762820D01*
X10826820Y-10762820D01*
X11080820Y-8095820D02*
X11080820Y-8032180D01*
X11017180Y-8032180D01*
X11017180Y-8095820D01*
X11080820Y-8095820D01*
X11080820Y-8349820D02*
X11080820Y-8286180D01*
X11017180Y-8286180D01*
X11017180Y-8349820D01*
X11080820Y-8349820D01*
X11080820Y-8603820D02*
X11080820Y-8540180D01*
X11017180Y-8540180D01*
X11017180Y-8603820D01*
X11080820Y-8603820D01*
X11080820Y-8857820D02*
X11080820Y-8794180D01*
X11017180Y-8794180D01*
X11017180Y-8857820D01*
X11080820Y-8857820D01*
D11*
X11049000Y-8871000D02*
X11049000Y-8871000D01*
X11049000Y-8781000D02*
X11049000Y-8781000D01*
X11049000Y-8871000D02*
G75*
G03*
X11049000Y-8781000I0J45000D01*
G01*
X11049000Y-8781000D02*
G75*
G03*
X11049000Y-8871000I0J-45000D01*
G01*
D15*
X11080820Y-10127820D02*
X11080820Y-10064180D01*
X11017180Y-10064180D01*
X11017180Y-10127820D01*
X11080820Y-10127820D01*
X11080820Y-10381820D02*
X11080820Y-10318180D01*
X11017180Y-10318180D01*
X11017180Y-10381820D01*
X11080820Y-10381820D01*
X11080820Y-10635820D02*
X11080820Y-10572180D01*
X11017180Y-10572180D01*
X11017180Y-10635820D01*
X11080820Y-10635820D01*
X11080820Y-10889820D02*
X11080820Y-10826180D01*
X11017180Y-10826180D01*
X11017180Y-10889820D01*
X11080820Y-10889820D01*
D11*
X11049000Y-10903000D02*
X11049000Y-10903000D01*
X11049000Y-10813000D02*
X11049000Y-10813000D01*
X11049000Y-10903000D02*
G75*
G03*
X11049000Y-10813000I0J45000D01*
G01*
X11049000Y-10813000D02*
G75*
G03*
X11049000Y-10903000I0J-45000D01*
G01*
D16*
X8897740Y-11651160D02*
X8952740Y-11596160D01*
X8897740Y-11541160D01*
X8842740Y-11596160D01*
X8897740Y-11651160D01*
X8897740Y-12101160D02*
X8952740Y-12046160D01*
X8897740Y-11991160D01*
X8842740Y-12046160D01*
X8897740Y-12101160D01*
X9547740Y-11651160D02*
X9602740Y-11596160D01*
X9547740Y-11541160D01*
X9492740Y-11596160D01*
X9547740Y-11651160D01*
X9547740Y-12101160D02*
X9602740Y-12046160D01*
X9547740Y-11991160D01*
X9492740Y-12046160D01*
X9547740Y-12101160D01*
D11*
X7870079Y-12507476D02*
X7870079Y-12307476D01*
X7917698Y-12307476D01*
X7946269Y-12317000D01*
X7965317Y-12336048D01*
X7974841Y-12355095D01*
X7984365Y-12393190D01*
X7984365Y-12421762D01*
X7974841Y-12459857D01*
X7965317Y-12478905D01*
X7946269Y-12497952D01*
X7917698Y-12507476D01*
X7870079Y-12507476D01*
X8070079Y-12507476D02*
X8070079Y-12374143D01*
X8070079Y-12412238D02*
X8079603Y-12393190D01*
X8089127Y-12383667D01*
X8108174Y-12374143D01*
X8127222Y-12374143D01*
X8193888Y-12507476D02*
X8193888Y-12374143D01*
X8193888Y-12307476D02*
X8184365Y-12317000D01*
X8193888Y-12326524D01*
X8203412Y-12317000D01*
X8193888Y-12307476D01*
X8193888Y-12326524D01*
X8317698Y-12507476D02*
X8298650Y-12497952D01*
X8289127Y-12478905D01*
X8289127Y-12307476D01*
X8422460Y-12507476D02*
X8403412Y-12497952D01*
X8393889Y-12478905D01*
X8393889Y-12307476D01*
X8651031Y-12507476D02*
X8651031Y-12307476D01*
X8717698Y-12450333D01*
X8784365Y-12307476D01*
X8784365Y-12507476D01*
X8965317Y-12507476D02*
X8965317Y-12402714D01*
X8955793Y-12383667D01*
X8936746Y-12374143D01*
X8898650Y-12374143D01*
X8879603Y-12383667D01*
X8965317Y-12497952D02*
X8946270Y-12507476D01*
X8898650Y-12507476D01*
X8879603Y-12497952D01*
X8870079Y-12478905D01*
X8870079Y-12459857D01*
X8879603Y-12440809D01*
X8898650Y-12431286D01*
X8946270Y-12431286D01*
X8965317Y-12421762D01*
X9060555Y-12374143D02*
X9060555Y-12574143D01*
X9060555Y-12383667D02*
X9079603Y-12374143D01*
X9117698Y-12374143D01*
X9136746Y-12383667D01*
X9146270Y-12393190D01*
X9155793Y-12412238D01*
X9155793Y-12469381D01*
X9146270Y-12488428D01*
X9136746Y-12497952D01*
X9117698Y-12507476D01*
X9079603Y-12507476D01*
X9060555Y-12497952D01*
X9241508Y-12488428D02*
X9251031Y-12497952D01*
X9241508Y-12507476D01*
X9231984Y-12497952D01*
X9241508Y-12488428D01*
X9241508Y-12507476D01*
X9241508Y-12383667D02*
X9251031Y-12393190D01*
X9241508Y-12402714D01*
X9231984Y-12393190D01*
X9241508Y-12383667D01*
X9241508Y-12402714D01*
D12*
X7572460Y-12817000D02*
X7612460Y-12857000D01*
X7612460Y-12817000D02*
X7572460Y-12857000D01*
D11*
X7908174Y-12727476D02*
X7927222Y-12727476D01*
X7946269Y-12737000D01*
X7955793Y-12746524D01*
X7965317Y-12765571D01*
X7974841Y-12803667D01*
X7974841Y-12851286D01*
X7965317Y-12889381D01*
X7955793Y-12908428D01*
X7946269Y-12917952D01*
X7927222Y-12927476D01*
X7908174Y-12927476D01*
X7889127Y-12917952D01*
X7879603Y-12908428D01*
X7870079Y-12889381D01*
X7860555Y-12851286D01*
X7860555Y-12803667D01*
X7870079Y-12765571D01*
X7879603Y-12746524D01*
X7889127Y-12737000D01*
X7908174Y-12727476D01*
X8060555Y-12908428D02*
X8070079Y-12917952D01*
X8060555Y-12927476D01*
X8051031Y-12917952D01*
X8060555Y-12908428D01*
X8060555Y-12927476D01*
X8241508Y-12794143D02*
X8241508Y-12927476D01*
X8193888Y-12717952D02*
X8146269Y-12860809D01*
X8270079Y-12860809D01*
X8384365Y-12727476D02*
X8403412Y-12727476D01*
X8422460Y-12737000D01*
X8431984Y-12746524D01*
X8441508Y-12765571D01*
X8451031Y-12803667D01*
X8451031Y-12851286D01*
X8441508Y-12889381D01*
X8431984Y-12908428D01*
X8422460Y-12917952D01*
X8403412Y-12927476D01*
X8384365Y-12927476D01*
X8365317Y-12917952D01*
X8355793Y-12908428D01*
X8346269Y-12889381D01*
X8336746Y-12851286D01*
X8336746Y-12803667D01*
X8346269Y-12765571D01*
X8355793Y-12746524D01*
X8365317Y-12737000D01*
X8384365Y-12727476D01*
X8574841Y-12727476D02*
X8593889Y-12727476D01*
X8612936Y-12737000D01*
X8622460Y-12746524D01*
X8631984Y-12765571D01*
X8641508Y-12803667D01*
X8641508Y-12851286D01*
X8631984Y-12889381D01*
X8622460Y-12908428D01*
X8612936Y-12917952D01*
X8593889Y-12927476D01*
X8574841Y-12927476D01*
X8555793Y-12917952D01*
X8546270Y-12908428D01*
X8536746Y-12889381D01*
X8527222Y-12851286D01*
X8527222Y-12803667D01*
X8536746Y-12765571D01*
X8546270Y-12746524D01*
X8555793Y-12737000D01*
X8574841Y-12727476D01*
X8727222Y-12927476D02*
X8727222Y-12794143D01*
X8727222Y-12813190D02*
X8736746Y-12803667D01*
X8755793Y-12794143D01*
X8784365Y-12794143D01*
X8803412Y-12803667D01*
X8812936Y-12822714D01*
X8812936Y-12927476D01*
X8812936Y-12822714D02*
X8822460Y-12803667D01*
X8841508Y-12794143D01*
X8870079Y-12794143D01*
X8889127Y-12803667D01*
X8898650Y-12822714D01*
X8898650Y-12927476D01*
X8993889Y-12927476D02*
X8993889Y-12794143D01*
X8993889Y-12813190D02*
X9003412Y-12803667D01*
X9022460Y-12794143D01*
X9051031Y-12794143D01*
X9070079Y-12803667D01*
X9079603Y-12822714D01*
X9079603Y-12927476D01*
X9079603Y-12822714D02*
X9089127Y-12803667D01*
X9108174Y-12794143D01*
X9136746Y-12794143D01*
X9155793Y-12803667D01*
X9165317Y-12822714D01*
X9165317Y-12927476D01*
X9555793Y-12717952D02*
X9384365Y-12975095D01*
X9812936Y-12727476D02*
X9831984Y-12727476D01*
X9851031Y-12737000D01*
X9860555Y-12746524D01*
X9870079Y-12765571D01*
X9879603Y-12803667D01*
X9879603Y-12851286D01*
X9870079Y-12889381D01*
X9860555Y-12908428D01*
X9851031Y-12917952D01*
X9831984Y-12927476D01*
X9812936Y-12927476D01*
X9793889Y-12917952D01*
X9784365Y-12908428D01*
X9774841Y-12889381D01*
X9765317Y-12851286D01*
X9765317Y-12803667D01*
X9774841Y-12765571D01*
X9784365Y-12746524D01*
X9793889Y-12737000D01*
X9812936Y-12727476D01*
X9965317Y-12908428D02*
X9974841Y-12917952D01*
X9965317Y-12927476D01*
X9955793Y-12917952D01*
X9965317Y-12908428D01*
X9965317Y-12927476D01*
X10098650Y-12727476D02*
X10117698Y-12727476D01*
X10136746Y-12737000D01*
X10146270Y-12746524D01*
X10155793Y-12765571D01*
X10165317Y-12803667D01*
X10165317Y-12851286D01*
X10155793Y-12889381D01*
X10146270Y-12908428D01*
X10136746Y-12917952D01*
X10117698Y-12927476D01*
X10098650Y-12927476D01*
X10079603Y-12917952D01*
X10070079Y-12908428D01*
X10060555Y-12889381D01*
X10051031Y-12851286D01*
X10051031Y-12803667D01*
X10060555Y-12765571D01*
X10070079Y-12746524D01*
X10079603Y-12737000D01*
X10098650Y-12727476D01*
X10355793Y-12927476D02*
X10241508Y-12927476D01*
X10298650Y-12927476D02*
X10298650Y-12727476D01*
X10279603Y-12756048D01*
X10260555Y-12775095D01*
X10241508Y-12784619D01*
X10536746Y-12727476D02*
X10441508Y-12727476D01*
X10431984Y-12822714D01*
X10441508Y-12813190D01*
X10460555Y-12803667D01*
X10508174Y-12803667D01*
X10527222Y-12813190D01*
X10536746Y-12822714D01*
X10546270Y-12841762D01*
X10546270Y-12889381D01*
X10536746Y-12908428D01*
X10527222Y-12917952D01*
X10508174Y-12927476D01*
X10460555Y-12927476D01*
X10441508Y-12917952D01*
X10431984Y-12908428D01*
X10612936Y-12727476D02*
X10746270Y-12727476D01*
X10660555Y-12927476D01*
X10812936Y-12727476D02*
X10812936Y-12765571D01*
X10889127Y-12727476D02*
X10889127Y-12765571D01*
X11184365Y-13003667D02*
X11174841Y-12994143D01*
X11155793Y-12965571D01*
X11146270Y-12946524D01*
X11136746Y-12917952D01*
X11127222Y-12870333D01*
X11127222Y-12832238D01*
X11136746Y-12784619D01*
X11146270Y-12756048D01*
X11155793Y-12737000D01*
X11174841Y-12708428D01*
X11184365Y-12698905D01*
X11346269Y-12794143D02*
X11346269Y-12927476D01*
X11298650Y-12717952D02*
X11251031Y-12860809D01*
X11374841Y-12860809D01*
X11536746Y-12727476D02*
X11498650Y-12727476D01*
X11479603Y-12737000D01*
X11470079Y-12746524D01*
X11451031Y-12775095D01*
X11441508Y-12813190D01*
X11441508Y-12889381D01*
X11451031Y-12908428D01*
X11460555Y-12917952D01*
X11479603Y-12927476D01*
X11517698Y-12927476D01*
X11536746Y-12917952D01*
X11546269Y-12908428D01*
X11555793Y-12889381D01*
X11555793Y-12841762D01*
X11546269Y-12822714D01*
X11536746Y-12813190D01*
X11517698Y-12803667D01*
X11479603Y-12803667D01*
X11460555Y-12813190D01*
X11451031Y-12822714D01*
X11441508Y-12841762D01*
X11793888Y-12927476D02*
X11793888Y-12727476D01*
X11879603Y-12927476D02*
X11879603Y-12822714D01*
X11870079Y-12803667D01*
X11851031Y-12794143D01*
X11822460Y-12794143D01*
X11803412Y-12803667D01*
X11793888Y-12813190D01*
X12003412Y-12927476D02*
X11984365Y-12917952D01*
X11974841Y-12908428D01*
X11965317Y-12889381D01*
X11965317Y-12832238D01*
X11974841Y-12813190D01*
X11984365Y-12803667D01*
X12003412Y-12794143D01*
X12031984Y-12794143D01*
X12051031Y-12803667D01*
X12060555Y-12813190D01*
X12070079Y-12832238D01*
X12070079Y-12889381D01*
X12060555Y-12908428D01*
X12051031Y-12917952D01*
X12031984Y-12927476D01*
X12003412Y-12927476D01*
X12184365Y-12927476D02*
X12165317Y-12917952D01*
X12155793Y-12898905D01*
X12155793Y-12727476D01*
X12336746Y-12917952D02*
X12317698Y-12927476D01*
X12279603Y-12927476D01*
X12260555Y-12917952D01*
X12251031Y-12898905D01*
X12251031Y-12822714D01*
X12260555Y-12803667D01*
X12279603Y-12794143D01*
X12317698Y-12794143D01*
X12336746Y-12803667D01*
X12346269Y-12822714D01*
X12346269Y-12841762D01*
X12251031Y-12860809D01*
X12422460Y-12917952D02*
X12441508Y-12927476D01*
X12479603Y-12927476D01*
X12498650Y-12917952D01*
X12508174Y-12898905D01*
X12508174Y-12889381D01*
X12498650Y-12870333D01*
X12479603Y-12860809D01*
X12451031Y-12860809D01*
X12431984Y-12851286D01*
X12422460Y-12832238D01*
X12422460Y-12822714D01*
X12431984Y-12803667D01*
X12451031Y-12794143D01*
X12479603Y-12794143D01*
X12498650Y-12803667D01*
X12574841Y-13003667D02*
X12584365Y-12994143D01*
X12603412Y-12965571D01*
X12612936Y-12946524D01*
X12622460Y-12917952D01*
X12631984Y-12870333D01*
X12631984Y-12832238D01*
X12622460Y-12784619D01*
X12612936Y-12756048D01*
X12603412Y-12737000D01*
X12584365Y-12708428D01*
X12574841Y-12698905D01*
D13*
X7612460Y-13101000D02*
G75*
G03*
X7612460Y-13101000I-38100J0D01*
G01*
D11*
X7908174Y-12991476D02*
X7927222Y-12991476D01*
X7946269Y-13001000D01*
X7955793Y-13010524D01*
X7965317Y-13029571D01*
X7974841Y-13067667D01*
X7974841Y-13115286D01*
X7965317Y-13153381D01*
X7955793Y-13172428D01*
X7946269Y-13181952D01*
X7927222Y-13191476D01*
X7908174Y-13191476D01*
X7889127Y-13181952D01*
X7879603Y-13172428D01*
X7870079Y-13153381D01*
X7860555Y-13115286D01*
X7860555Y-13067667D01*
X7870079Y-13029571D01*
X7879603Y-13010524D01*
X7889127Y-13001000D01*
X7908174Y-12991476D01*
X8060555Y-13172428D02*
X8070079Y-13181952D01*
X8060555Y-13191476D01*
X8051031Y-13181952D01*
X8060555Y-13172428D01*
X8060555Y-13191476D01*
X8136746Y-12991476D02*
X8270079Y-12991476D01*
X8184365Y-13191476D01*
X8431984Y-12991476D02*
X8393889Y-12991476D01*
X8374841Y-13001000D01*
X8365317Y-13010524D01*
X8346269Y-13039095D01*
X8336746Y-13077190D01*
X8336746Y-13153381D01*
X8346269Y-13172428D01*
X8355793Y-13181952D01*
X8374841Y-13191476D01*
X8412936Y-13191476D01*
X8431984Y-13181952D01*
X8441508Y-13172428D01*
X8451031Y-13153381D01*
X8451031Y-13105762D01*
X8441508Y-13086714D01*
X8431984Y-13077190D01*
X8412936Y-13067667D01*
X8374841Y-13067667D01*
X8355793Y-13077190D01*
X8346269Y-13086714D01*
X8336746Y-13105762D01*
X8527222Y-13010524D02*
X8536746Y-13001000D01*
X8555793Y-12991476D01*
X8603412Y-12991476D01*
X8622460Y-13001000D01*
X8631984Y-13010524D01*
X8641508Y-13029571D01*
X8641508Y-13048619D01*
X8631984Y-13077190D01*
X8517698Y-13191476D01*
X8641508Y-13191476D01*
X8727222Y-13191476D02*
X8727222Y-13058143D01*
X8727222Y-13077190D02*
X8736746Y-13067667D01*
X8755793Y-13058143D01*
X8784365Y-13058143D01*
X8803412Y-13067667D01*
X8812936Y-13086714D01*
X8812936Y-13191476D01*
X8812936Y-13086714D02*
X8822460Y-13067667D01*
X8841508Y-13058143D01*
X8870079Y-13058143D01*
X8889127Y-13067667D01*
X8898650Y-13086714D01*
X8898650Y-13191476D01*
X8993889Y-13191476D02*
X8993889Y-13058143D01*
X8993889Y-13077190D02*
X9003412Y-13067667D01*
X9022460Y-13058143D01*
X9051031Y-13058143D01*
X9070079Y-13067667D01*
X9079603Y-13086714D01*
X9079603Y-13191476D01*
X9079603Y-13086714D02*
X9089127Y-13067667D01*
X9108174Y-13058143D01*
X9136746Y-13058143D01*
X9155793Y-13067667D01*
X9165317Y-13086714D01*
X9165317Y-13191476D01*
X9555793Y-12981952D02*
X9384365Y-13239095D01*
X9812936Y-12991476D02*
X9831984Y-12991476D01*
X9851031Y-13001000D01*
X9860555Y-13010524D01*
X9870079Y-13029571D01*
X9879603Y-13067667D01*
X9879603Y-13115286D01*
X9870079Y-13153381D01*
X9860555Y-13172428D01*
X9851031Y-13181952D01*
X9831984Y-13191476D01*
X9812936Y-13191476D01*
X9793889Y-13181952D01*
X9784365Y-13172428D01*
X9774841Y-13153381D01*
X9765317Y-13115286D01*
X9765317Y-13067667D01*
X9774841Y-13029571D01*
X9784365Y-13010524D01*
X9793889Y-13001000D01*
X9812936Y-12991476D01*
X9965317Y-13172428D02*
X9974841Y-13181952D01*
X9965317Y-13191476D01*
X9955793Y-13181952D01*
X9965317Y-13172428D01*
X9965317Y-13191476D01*
X10098650Y-12991476D02*
X10117698Y-12991476D01*
X10136746Y-13001000D01*
X10146270Y-13010524D01*
X10155793Y-13029571D01*
X10165317Y-13067667D01*
X10165317Y-13115286D01*
X10155793Y-13153381D01*
X10146270Y-13172428D01*
X10136746Y-13181952D01*
X10117698Y-13191476D01*
X10098650Y-13191476D01*
X10079603Y-13181952D01*
X10070079Y-13172428D01*
X10060555Y-13153381D01*
X10051031Y-13115286D01*
X10051031Y-13067667D01*
X10060555Y-13029571D01*
X10070079Y-13010524D01*
X10079603Y-13001000D01*
X10098650Y-12991476D01*
X10231984Y-12991476D02*
X10355793Y-12991476D01*
X10289127Y-13067667D01*
X10317698Y-13067667D01*
X10336746Y-13077190D01*
X10346270Y-13086714D01*
X10355793Y-13105762D01*
X10355793Y-13153381D01*
X10346270Y-13172428D01*
X10336746Y-13181952D01*
X10317698Y-13191476D01*
X10260555Y-13191476D01*
X10241508Y-13181952D01*
X10231984Y-13172428D01*
X10479603Y-12991476D02*
X10498650Y-12991476D01*
X10517698Y-13001000D01*
X10527222Y-13010524D01*
X10536746Y-13029571D01*
X10546270Y-13067667D01*
X10546270Y-13115286D01*
X10536746Y-13153381D01*
X10527222Y-13172428D01*
X10517698Y-13181952D01*
X10498650Y-13191476D01*
X10479603Y-13191476D01*
X10460555Y-13181952D01*
X10451031Y-13172428D01*
X10441508Y-13153381D01*
X10431984Y-13115286D01*
X10431984Y-13067667D01*
X10441508Y-13029571D01*
X10451031Y-13010524D01*
X10460555Y-13001000D01*
X10479603Y-12991476D01*
X10670079Y-12991476D02*
X10689127Y-12991476D01*
X10708174Y-13001000D01*
X10717698Y-13010524D01*
X10727222Y-13029571D01*
X10736746Y-13067667D01*
X10736746Y-13115286D01*
X10727222Y-13153381D01*
X10717698Y-13172428D01*
X10708174Y-13181952D01*
X10689127Y-13191476D01*
X10670079Y-13191476D01*
X10651031Y-13181952D01*
X10641508Y-13172428D01*
X10631984Y-13153381D01*
X10622460Y-13115286D01*
X10622460Y-13067667D01*
X10631984Y-13029571D01*
X10641508Y-13010524D01*
X10651031Y-13001000D01*
X10670079Y-12991476D01*
X10812936Y-12991476D02*
X10812936Y-13029571D01*
X10889127Y-12991476D02*
X10889127Y-13029571D01*
X11184365Y-13267667D02*
X11174841Y-13258143D01*
X11155793Y-13229571D01*
X11146270Y-13210524D01*
X11136746Y-13181952D01*
X11127222Y-13134333D01*
X11127222Y-13096238D01*
X11136746Y-13048619D01*
X11146270Y-13020048D01*
X11155793Y-13001000D01*
X11174841Y-12972428D01*
X11184365Y-12962905D01*
X11346269Y-13058143D02*
X11346269Y-13191476D01*
X11298650Y-12981952D02*
X11251031Y-13124809D01*
X11374841Y-13124809D01*
X11489127Y-12991476D02*
X11508174Y-12991476D01*
X11527222Y-13001000D01*
X11536746Y-13010524D01*
X11546269Y-13029571D01*
X11555793Y-13067667D01*
X11555793Y-13115286D01*
X11546269Y-13153381D01*
X11536746Y-13172428D01*
X11527222Y-13181952D01*
X11508174Y-13191476D01*
X11489127Y-13191476D01*
X11470079Y-13181952D01*
X11460555Y-13172428D01*
X11451031Y-13153381D01*
X11441508Y-13115286D01*
X11441508Y-13067667D01*
X11451031Y-13029571D01*
X11460555Y-13010524D01*
X11470079Y-13001000D01*
X11489127Y-12991476D01*
X11793888Y-13191476D02*
X11793888Y-12991476D01*
X11879603Y-13191476D02*
X11879603Y-13086714D01*
X11870079Y-13067667D01*
X11851031Y-13058143D01*
X11822460Y-13058143D01*
X11803412Y-13067667D01*
X11793888Y-13077190D01*
X12003412Y-13191476D02*
X11984365Y-13181952D01*
X11974841Y-13172428D01*
X11965317Y-13153381D01*
X11965317Y-13096238D01*
X11974841Y-13077190D01*
X11984365Y-13067667D01*
X12003412Y-13058143D01*
X12031984Y-13058143D01*
X12051031Y-13067667D01*
X12060555Y-13077190D01*
X12070079Y-13096238D01*
X12070079Y-13153381D01*
X12060555Y-13172428D01*
X12051031Y-13181952D01*
X12031984Y-13191476D01*
X12003412Y-13191476D01*
X12184365Y-13191476D02*
X12165317Y-13181952D01*
X12155793Y-13162905D01*
X12155793Y-12991476D01*
X12336746Y-13181952D02*
X12317698Y-13191476D01*
X12279603Y-13191476D01*
X12260555Y-13181952D01*
X12251031Y-13162905D01*
X12251031Y-13086714D01*
X12260555Y-13067667D01*
X12279603Y-13058143D01*
X12317698Y-13058143D01*
X12336746Y-13067667D01*
X12346269Y-13086714D01*
X12346269Y-13105762D01*
X12251031Y-13124809D01*
X12422460Y-13181952D02*
X12441508Y-13191476D01*
X12479603Y-13191476D01*
X12498650Y-13181952D01*
X12508174Y-13162905D01*
X12508174Y-13153381D01*
X12498650Y-13134333D01*
X12479603Y-13124809D01*
X12451031Y-13124809D01*
X12431984Y-13115286D01*
X12422460Y-13096238D01*
X12422460Y-13086714D01*
X12431984Y-13067667D01*
X12451031Y-13058143D01*
X12479603Y-13058143D01*
X12498650Y-13067667D01*
X12574841Y-13267667D02*
X12584365Y-13258143D01*
X12603412Y-13229571D01*
X12612936Y-13210524D01*
X12622460Y-13181952D01*
X12631984Y-13134333D01*
X12631984Y-13096238D01*
X12622460Y-13048619D01*
X12612936Y-13020048D01*
X12603412Y-13001000D01*
X12584365Y-12972428D01*
X12574841Y-12962905D01*
D14*
X7572460Y-13325000D02*
X7572460Y-13405000D01*
X7532460Y-13365000D02*
X7612460Y-13365000D01*
D11*
X7908174Y-13255476D02*
X7927222Y-13255476D01*
X7946269Y-13265000D01*
X7955793Y-13274524D01*
X7965317Y-13293571D01*
X7974841Y-13331667D01*
X7974841Y-13379286D01*
X7965317Y-13417381D01*
X7955793Y-13436428D01*
X7946269Y-13445952D01*
X7927222Y-13455476D01*
X7908174Y-13455476D01*
X7889127Y-13445952D01*
X7879603Y-13436428D01*
X7870079Y-13417381D01*
X7860555Y-13379286D01*
X7860555Y-13331667D01*
X7870079Y-13293571D01*
X7879603Y-13274524D01*
X7889127Y-13265000D01*
X7908174Y-13255476D01*
X8060555Y-13436428D02*
X8070079Y-13445952D01*
X8060555Y-13455476D01*
X8051031Y-13445952D01*
X8060555Y-13436428D01*
X8060555Y-13455476D01*
X8184365Y-13341190D02*
X8165317Y-13331667D01*
X8155793Y-13322143D01*
X8146269Y-13303095D01*
X8146269Y-13293571D01*
X8155793Y-13274524D01*
X8165317Y-13265000D01*
X8184365Y-13255476D01*
X8222460Y-13255476D01*
X8241508Y-13265000D01*
X8251031Y-13274524D01*
X8260555Y-13293571D01*
X8260555Y-13303095D01*
X8251031Y-13322143D01*
X8241508Y-13331667D01*
X8222460Y-13341190D01*
X8184365Y-13341190D01*
X8165317Y-13350714D01*
X8155793Y-13360238D01*
X8146269Y-13379286D01*
X8146269Y-13417381D01*
X8155793Y-13436428D01*
X8165317Y-13445952D01*
X8184365Y-13455476D01*
X8222460Y-13455476D01*
X8241508Y-13445952D01*
X8251031Y-13436428D01*
X8260555Y-13417381D01*
X8260555Y-13379286D01*
X8251031Y-13360238D01*
X8241508Y-13350714D01*
X8222460Y-13341190D01*
X8384365Y-13255476D02*
X8403412Y-13255476D01*
X8422460Y-13265000D01*
X8431984Y-13274524D01*
X8441508Y-13293571D01*
X8451031Y-13331667D01*
X8451031Y-13379286D01*
X8441508Y-13417381D01*
X8431984Y-13436428D01*
X8422460Y-13445952D01*
X8403412Y-13455476D01*
X8384365Y-13455476D01*
X8365317Y-13445952D01*
X8355793Y-13436428D01*
X8346269Y-13417381D01*
X8336746Y-13379286D01*
X8336746Y-13331667D01*
X8346269Y-13293571D01*
X8355793Y-13274524D01*
X8365317Y-13265000D01*
X8384365Y-13255476D01*
X8574841Y-13255476D02*
X8593889Y-13255476D01*
X8612936Y-13265000D01*
X8622460Y-13274524D01*
X8631984Y-13293571D01*
X8641508Y-13331667D01*
X8641508Y-13379286D01*
X8631984Y-13417381D01*
X8622460Y-13436428D01*
X8612936Y-13445952D01*
X8593889Y-13455476D01*
X8574841Y-13455476D01*
X8555793Y-13445952D01*
X8546270Y-13436428D01*
X8536746Y-13417381D01*
X8527222Y-13379286D01*
X8527222Y-13331667D01*
X8536746Y-13293571D01*
X8546270Y-13274524D01*
X8555793Y-13265000D01*
X8574841Y-13255476D01*
X8727222Y-13455476D02*
X8727222Y-13322143D01*
X8727222Y-13341190D02*
X8736746Y-13331667D01*
X8755793Y-13322143D01*
X8784365Y-13322143D01*
X8803412Y-13331667D01*
X8812936Y-13350714D01*
X8812936Y-13455476D01*
X8812936Y-13350714D02*
X8822460Y-13331667D01*
X8841508Y-13322143D01*
X8870079Y-13322143D01*
X8889127Y-13331667D01*
X8898650Y-13350714D01*
X8898650Y-13455476D01*
X8993889Y-13455476D02*
X8993889Y-13322143D01*
X8993889Y-13341190D02*
X9003412Y-13331667D01*
X9022460Y-13322143D01*
X9051031Y-13322143D01*
X9070079Y-13331667D01*
X9079603Y-13350714D01*
X9079603Y-13455476D01*
X9079603Y-13350714D02*
X9089127Y-13331667D01*
X9108174Y-13322143D01*
X9136746Y-13322143D01*
X9155793Y-13331667D01*
X9165317Y-13350714D01*
X9165317Y-13455476D01*
X9555793Y-13245952D02*
X9384365Y-13503095D01*
X9812936Y-13255476D02*
X9831984Y-13255476D01*
X9851031Y-13265000D01*
X9860555Y-13274524D01*
X9870079Y-13293571D01*
X9879603Y-13331667D01*
X9879603Y-13379286D01*
X9870079Y-13417381D01*
X9860555Y-13436428D01*
X9851031Y-13445952D01*
X9831984Y-13455476D01*
X9812936Y-13455476D01*
X9793889Y-13445952D01*
X9784365Y-13436428D01*
X9774841Y-13417381D01*
X9765317Y-13379286D01*
X9765317Y-13331667D01*
X9774841Y-13293571D01*
X9784365Y-13274524D01*
X9793889Y-13265000D01*
X9812936Y-13255476D01*
X9965317Y-13436428D02*
X9974841Y-13445952D01*
X9965317Y-13455476D01*
X9955793Y-13445952D01*
X9965317Y-13436428D01*
X9965317Y-13455476D01*
X10098650Y-13255476D02*
X10117698Y-13255476D01*
X10136746Y-13265000D01*
X10146270Y-13274524D01*
X10155793Y-13293571D01*
X10165317Y-13331667D01*
X10165317Y-13379286D01*
X10155793Y-13417381D01*
X10146270Y-13436428D01*
X10136746Y-13445952D01*
X10117698Y-13455476D01*
X10098650Y-13455476D01*
X10079603Y-13445952D01*
X10070079Y-13436428D01*
X10060555Y-13417381D01*
X10051031Y-13379286D01*
X10051031Y-13331667D01*
X10060555Y-13293571D01*
X10070079Y-13274524D01*
X10079603Y-13265000D01*
X10098650Y-13255476D01*
X10231984Y-13255476D02*
X10355793Y-13255476D01*
X10289127Y-13331667D01*
X10317698Y-13331667D01*
X10336746Y-13341190D01*
X10346270Y-13350714D01*
X10355793Y-13369762D01*
X10355793Y-13417381D01*
X10346270Y-13436428D01*
X10336746Y-13445952D01*
X10317698Y-13455476D01*
X10260555Y-13455476D01*
X10241508Y-13445952D01*
X10231984Y-13436428D01*
X10546270Y-13455476D02*
X10431984Y-13455476D01*
X10489127Y-13455476D02*
X10489127Y-13255476D01*
X10470079Y-13284048D01*
X10451031Y-13303095D01*
X10431984Y-13312619D01*
X10727222Y-13255476D02*
X10631984Y-13255476D01*
X10622460Y-13350714D01*
X10631984Y-13341190D01*
X10651031Y-13331667D01*
X10698650Y-13331667D01*
X10717698Y-13341190D01*
X10727222Y-13350714D01*
X10736746Y-13369762D01*
X10736746Y-13417381D01*
X10727222Y-13436428D01*
X10717698Y-13445952D01*
X10698650Y-13455476D01*
X10651031Y-13455476D01*
X10631984Y-13445952D01*
X10622460Y-13436428D01*
X10812936Y-13255476D02*
X10812936Y-13293571D01*
X10889127Y-13255476D02*
X10889127Y-13293571D01*
X11184365Y-13531667D02*
X11174841Y-13522143D01*
X11155793Y-13493571D01*
X11146270Y-13474524D01*
X11136746Y-13445952D01*
X11127222Y-13398333D01*
X11127222Y-13360238D01*
X11136746Y-13312619D01*
X11146270Y-13284048D01*
X11155793Y-13265000D01*
X11174841Y-13236428D01*
X11184365Y-13226905D01*
X11251031Y-13274524D02*
X11260555Y-13265000D01*
X11279603Y-13255476D01*
X11327222Y-13255476D01*
X11346269Y-13265000D01*
X11355793Y-13274524D01*
X11365317Y-13293571D01*
X11365317Y-13312619D01*
X11355793Y-13341190D01*
X11241508Y-13455476D01*
X11365317Y-13455476D01*
X11603412Y-13455476D02*
X11603412Y-13255476D01*
X11689127Y-13455476D02*
X11689127Y-13350714D01*
X11679603Y-13331667D01*
X11660555Y-13322143D01*
X11631984Y-13322143D01*
X11612936Y-13331667D01*
X11603412Y-13341190D01*
X11812936Y-13455476D02*
X11793888Y-13445952D01*
X11784365Y-13436428D01*
X11774841Y-13417381D01*
X11774841Y-13360238D01*
X11784365Y-13341190D01*
X11793888Y-13331667D01*
X11812936Y-13322143D01*
X11841508Y-13322143D01*
X11860555Y-13331667D01*
X11870079Y-13341190D01*
X11879603Y-13360238D01*
X11879603Y-13417381D01*
X11870079Y-13436428D01*
X11860555Y-13445952D01*
X11841508Y-13455476D01*
X11812936Y-13455476D01*
X11993888Y-13455476D02*
X11974841Y-13445952D01*
X11965317Y-13426905D01*
X11965317Y-13255476D01*
X12146269Y-13445952D02*
X12127222Y-13455476D01*
X12089127Y-13455476D01*
X12070079Y-13445952D01*
X12060555Y-13426905D01*
X12060555Y-13350714D01*
X12070079Y-13331667D01*
X12089127Y-13322143D01*
X12127222Y-13322143D01*
X12146269Y-13331667D01*
X12155793Y-13350714D01*
X12155793Y-13369762D01*
X12060555Y-13388809D01*
X12231984Y-13445952D02*
X12251031Y-13455476D01*
X12289127Y-13455476D01*
X12308174Y-13445952D01*
X12317698Y-13426905D01*
X12317698Y-13417381D01*
X12308174Y-13398333D01*
X12289127Y-13388809D01*
X12260555Y-13388809D01*
X12241508Y-13379286D01*
X12231984Y-13360238D01*
X12231984Y-13350714D01*
X12241508Y-13331667D01*
X12260555Y-13322143D01*
X12289127Y-13322143D01*
X12308174Y-13331667D01*
X12384365Y-13531667D02*
X12393888Y-13522143D01*
X12412936Y-13493571D01*
X12422460Y-13474524D01*
X12431984Y-13445952D01*
X12441508Y-13398333D01*
X12441508Y-13360238D01*
X12431984Y-13312619D01*
X12422460Y-13284048D01*
X12412936Y-13265000D01*
X12393888Y-13236428D01*
X12384365Y-13226905D01*
D15*
X7599280Y-13660820D02*
X7599280Y-13597180D01*
X7535640Y-13597180D01*
X7535640Y-13660820D01*
X7599280Y-13660820D01*
D11*
X7908174Y-13519476D02*
X7927222Y-13519476D01*
X7946269Y-13529000D01*
X7955793Y-13538524D01*
X7965317Y-13557571D01*
X7974841Y-13595667D01*
X7974841Y-13643286D01*
X7965317Y-13681381D01*
X7955793Y-13700428D01*
X7946269Y-13709952D01*
X7927222Y-13719476D01*
X7908174Y-13719476D01*
X7889127Y-13709952D01*
X7879603Y-13700428D01*
X7870079Y-13681381D01*
X7860555Y-13643286D01*
X7860555Y-13595667D01*
X7870079Y-13557571D01*
X7879603Y-13538524D01*
X7889127Y-13529000D01*
X7908174Y-13519476D01*
X8060555Y-13700428D02*
X8070079Y-13709952D01*
X8060555Y-13719476D01*
X8051031Y-13709952D01*
X8060555Y-13700428D01*
X8060555Y-13719476D01*
X8165317Y-13719476D02*
X8203412Y-13719476D01*
X8222460Y-13709952D01*
X8231984Y-13700428D01*
X8251031Y-13671857D01*
X8260555Y-13633762D01*
X8260555Y-13557571D01*
X8251031Y-13538524D01*
X8241508Y-13529000D01*
X8222460Y-13519476D01*
X8184365Y-13519476D01*
X8165317Y-13529000D01*
X8155793Y-13538524D01*
X8146269Y-13557571D01*
X8146269Y-13605190D01*
X8155793Y-13624238D01*
X8165317Y-13633762D01*
X8184365Y-13643286D01*
X8222460Y-13643286D01*
X8241508Y-13633762D01*
X8251031Y-13624238D01*
X8260555Y-13605190D01*
X8384365Y-13519476D02*
X8403412Y-13519476D01*
X8422460Y-13529000D01*
X8431984Y-13538524D01*
X8441508Y-13557571D01*
X8451031Y-13595667D01*
X8451031Y-13643286D01*
X8441508Y-13681381D01*
X8431984Y-13700428D01*
X8422460Y-13709952D01*
X8403412Y-13719476D01*
X8384365Y-13719476D01*
X8365317Y-13709952D01*
X8355793Y-13700428D01*
X8346269Y-13681381D01*
X8336746Y-13643286D01*
X8336746Y-13595667D01*
X8346269Y-13557571D01*
X8355793Y-13538524D01*
X8365317Y-13529000D01*
X8384365Y-13519476D01*
X8574841Y-13519476D02*
X8593889Y-13519476D01*
X8612936Y-13529000D01*
X8622460Y-13538524D01*
X8631984Y-13557571D01*
X8641508Y-13595667D01*
X8641508Y-13643286D01*
X8631984Y-13681381D01*
X8622460Y-13700428D01*
X8612936Y-13709952D01*
X8593889Y-13719476D01*
X8574841Y-13719476D01*
X8555793Y-13709952D01*
X8546270Y-13700428D01*
X8536746Y-13681381D01*
X8527222Y-13643286D01*
X8527222Y-13595667D01*
X8536746Y-13557571D01*
X8546270Y-13538524D01*
X8555793Y-13529000D01*
X8574841Y-13519476D01*
X8727222Y-13719476D02*
X8727222Y-13586143D01*
X8727222Y-13605190D02*
X8736746Y-13595667D01*
X8755793Y-13586143D01*
X8784365Y-13586143D01*
X8803412Y-13595667D01*
X8812936Y-13614714D01*
X8812936Y-13719476D01*
X8812936Y-13614714D02*
X8822460Y-13595667D01*
X8841508Y-13586143D01*
X8870079Y-13586143D01*
X8889127Y-13595667D01*
X8898650Y-13614714D01*
X8898650Y-13719476D01*
X8993889Y-13719476D02*
X8993889Y-13586143D01*
X8993889Y-13605190D02*
X9003412Y-13595667D01*
X9022460Y-13586143D01*
X9051031Y-13586143D01*
X9070079Y-13595667D01*
X9079603Y-13614714D01*
X9079603Y-13719476D01*
X9079603Y-13614714D02*
X9089127Y-13595667D01*
X9108174Y-13586143D01*
X9136746Y-13586143D01*
X9155793Y-13595667D01*
X9165317Y-13614714D01*
X9165317Y-13719476D01*
X9555793Y-13509952D02*
X9384365Y-13767095D01*
X9812936Y-13519476D02*
X9831984Y-13519476D01*
X9851031Y-13529000D01*
X9860555Y-13538524D01*
X9870079Y-13557571D01*
X9879603Y-13595667D01*
X9879603Y-13643286D01*
X9870079Y-13681381D01*
X9860555Y-13700428D01*
X9851031Y-13709952D01*
X9831984Y-13719476D01*
X9812936Y-13719476D01*
X9793889Y-13709952D01*
X9784365Y-13700428D01*
X9774841Y-13681381D01*
X9765317Y-13643286D01*
X9765317Y-13595667D01*
X9774841Y-13557571D01*
X9784365Y-13538524D01*
X9793889Y-13529000D01*
X9812936Y-13519476D01*
X9965317Y-13700428D02*
X9974841Y-13709952D01*
X9965317Y-13719476D01*
X9955793Y-13709952D01*
X9965317Y-13700428D01*
X9965317Y-13719476D01*
X10098650Y-13519476D02*
X10117698Y-13519476D01*
X10136746Y-13529000D01*
X10146270Y-13538524D01*
X10155793Y-13557571D01*
X10165317Y-13595667D01*
X10165317Y-13643286D01*
X10155793Y-13681381D01*
X10146270Y-13700428D01*
X10136746Y-13709952D01*
X10117698Y-13719476D01*
X10098650Y-13719476D01*
X10079603Y-13709952D01*
X10070079Y-13700428D01*
X10060555Y-13681381D01*
X10051031Y-13643286D01*
X10051031Y-13595667D01*
X10060555Y-13557571D01*
X10070079Y-13538524D01*
X10079603Y-13529000D01*
X10098650Y-13519476D01*
X10231984Y-13519476D02*
X10355793Y-13519476D01*
X10289127Y-13595667D01*
X10317698Y-13595667D01*
X10336746Y-13605190D01*
X10346270Y-13614714D01*
X10355793Y-13633762D01*
X10355793Y-13681381D01*
X10346270Y-13700428D01*
X10336746Y-13709952D01*
X10317698Y-13719476D01*
X10260555Y-13719476D01*
X10241508Y-13709952D01*
X10231984Y-13700428D01*
X10536746Y-13519476D02*
X10441508Y-13519476D01*
X10431984Y-13614714D01*
X10441508Y-13605190D01*
X10460555Y-13595667D01*
X10508174Y-13595667D01*
X10527222Y-13605190D01*
X10536746Y-13614714D01*
X10546270Y-13633762D01*
X10546270Y-13681381D01*
X10536746Y-13700428D01*
X10527222Y-13709952D01*
X10508174Y-13719476D01*
X10460555Y-13719476D01*
X10441508Y-13709952D01*
X10431984Y-13700428D01*
X10717698Y-13586143D02*
X10717698Y-13719476D01*
X10670079Y-13509952D02*
X10622460Y-13652809D01*
X10746270Y-13652809D01*
X10812936Y-13519476D02*
X10812936Y-13557571D01*
X10889127Y-13519476D02*
X10889127Y-13557571D01*
X11184365Y-13795667D02*
X11174841Y-13786143D01*
X11155793Y-13757571D01*
X11146270Y-13738524D01*
X11136746Y-13709952D01*
X11127222Y-13662333D01*
X11127222Y-13624238D01*
X11136746Y-13576619D01*
X11146270Y-13548048D01*
X11155793Y-13529000D01*
X11174841Y-13500428D01*
X11184365Y-13490905D01*
X11365317Y-13719476D02*
X11251031Y-13719476D01*
X11308174Y-13719476D02*
X11308174Y-13519476D01*
X11289127Y-13548048D01*
X11270079Y-13567095D01*
X11251031Y-13576619D01*
X11536746Y-13586143D02*
X11536746Y-13719476D01*
X11489127Y-13509952D02*
X11441508Y-13652809D01*
X11565317Y-13652809D01*
X11793888Y-13719476D02*
X11793888Y-13519476D01*
X11879603Y-13719476D02*
X11879603Y-13614714D01*
X11870079Y-13595667D01*
X11851031Y-13586143D01*
X11822460Y-13586143D01*
X11803412Y-13595667D01*
X11793888Y-13605190D01*
X12003412Y-13719476D02*
X11984365Y-13709952D01*
X11974841Y-13700428D01*
X11965317Y-13681381D01*
X11965317Y-13624238D01*
X11974841Y-13605190D01*
X11984365Y-13595667D01*
X12003412Y-13586143D01*
X12031984Y-13586143D01*
X12051031Y-13595667D01*
X12060555Y-13605190D01*
X12070079Y-13624238D01*
X12070079Y-13681381D01*
X12060555Y-13700428D01*
X12051031Y-13709952D01*
X12031984Y-13719476D01*
X12003412Y-13719476D01*
X12184365Y-13719476D02*
X12165317Y-13709952D01*
X12155793Y-13690905D01*
X12155793Y-13519476D01*
X12336746Y-13709952D02*
X12317698Y-13719476D01*
X12279603Y-13719476D01*
X12260555Y-13709952D01*
X12251031Y-13690905D01*
X12251031Y-13614714D01*
X12260555Y-13595667D01*
X12279603Y-13586143D01*
X12317698Y-13586143D01*
X12336746Y-13595667D01*
X12346269Y-13614714D01*
X12346269Y-13633762D01*
X12251031Y-13652809D01*
X12422460Y-13709952D02*
X12441508Y-13719476D01*
X12479603Y-13719476D01*
X12498650Y-13709952D01*
X12508174Y-13690905D01*
X12508174Y-13681381D01*
X12498650Y-13662333D01*
X12479603Y-13652809D01*
X12451031Y-13652809D01*
X12431984Y-13643286D01*
X12422460Y-13624238D01*
X12422460Y-13614714D01*
X12431984Y-13595667D01*
X12451031Y-13586143D01*
X12479603Y-13586143D01*
X12498650Y-13595667D01*
X12746269Y-13643286D02*
X12898650Y-13643286D01*
X12822460Y-13719476D02*
X12822460Y-13567095D01*
X13136746Y-13538524D02*
X13146269Y-13529000D01*
X13165317Y-13519476D01*
X13212936Y-13519476D01*
X13231984Y-13529000D01*
X13241508Y-13538524D01*
X13251031Y-13557571D01*
X13251031Y-13576619D01*
X13241508Y-13605190D01*
X13127222Y-13719476D01*
X13251031Y-13719476D01*
X13479603Y-13709952D02*
X13498650Y-13719476D01*
X13536746Y-13719476D01*
X13555793Y-13709952D01*
X13565317Y-13690905D01*
X13565317Y-13681381D01*
X13555793Y-13662333D01*
X13536746Y-13652809D01*
X13508174Y-13652809D01*
X13489127Y-13643286D01*
X13479603Y-13624238D01*
X13479603Y-13614714D01*
X13489127Y-13595667D01*
X13508174Y-13586143D01*
X13536746Y-13586143D01*
X13555793Y-13595667D01*
X13679603Y-13719476D02*
X13660555Y-13709952D01*
X13651031Y-13690905D01*
X13651031Y-13519476D01*
X13784365Y-13719476D02*
X13765317Y-13709952D01*
X13755793Y-13700428D01*
X13746269Y-13681381D01*
X13746269Y-13624238D01*
X13755793Y-13605190D01*
X13765317Y-13595667D01*
X13784365Y-13586143D01*
X13812936Y-13586143D01*
X13831984Y-13595667D01*
X13841508Y-13605190D01*
X13851031Y-13624238D01*
X13851031Y-13681381D01*
X13841508Y-13700428D01*
X13831984Y-13709952D01*
X13812936Y-13719476D01*
X13784365Y-13719476D01*
X13908174Y-13586143D02*
X13984365Y-13586143D01*
X13936746Y-13519476D02*
X13936746Y-13690905D01*
X13946269Y-13709952D01*
X13965317Y-13719476D01*
X13984365Y-13719476D01*
X14041508Y-13709952D02*
X14060555Y-13719476D01*
X14098650Y-13719476D01*
X14117698Y-13709952D01*
X14127222Y-13690905D01*
X14127222Y-13681381D01*
X14117698Y-13662333D01*
X14098650Y-13652809D01*
X14070079Y-13652809D01*
X14051031Y-13643286D01*
X14041508Y-13624238D01*
X14041508Y-13614714D01*
X14051031Y-13595667D01*
X14070079Y-13586143D01*
X14098650Y-13586143D01*
X14117698Y-13595667D01*
X14193888Y-13795667D02*
X14203412Y-13786143D01*
X14222460Y-13757571D01*
X14231984Y-13738524D01*
X14241508Y-13709952D01*
X14251031Y-13662333D01*
X14251031Y-13624238D01*
X14241508Y-13576619D01*
X14231984Y-13548048D01*
X14222460Y-13529000D01*
X14203412Y-13500428D01*
X14193888Y-13490905D01*
D16*
X7557460Y-13948000D02*
X7612460Y-13893000D01*
X7557460Y-13838000D01*
X7502460Y-13893000D01*
X7557460Y-13948000D01*
D11*
X7974841Y-13983476D02*
X7860555Y-13983476D01*
X7917698Y-13983476D02*
X7917698Y-13783476D01*
X7898650Y-13812048D01*
X7879603Y-13831095D01*
X7860555Y-13840619D01*
X8060555Y-13964428D02*
X8070079Y-13973952D01*
X8060555Y-13983476D01*
X8051031Y-13973952D01*
X8060555Y-13964428D01*
X8060555Y-13983476D01*
X8260555Y-13983476D02*
X8146269Y-13983476D01*
X8203412Y-13983476D02*
X8203412Y-13783476D01*
X8184365Y-13812048D01*
X8165317Y-13831095D01*
X8146269Y-13840619D01*
X8384365Y-13783476D02*
X8403412Y-13783476D01*
X8422460Y-13793000D01*
X8431984Y-13802524D01*
X8441508Y-13821571D01*
X8451031Y-13859667D01*
X8451031Y-13907286D01*
X8441508Y-13945381D01*
X8431984Y-13964428D01*
X8422460Y-13973952D01*
X8403412Y-13983476D01*
X8384365Y-13983476D01*
X8365317Y-13973952D01*
X8355793Y-13964428D01*
X8346269Y-13945381D01*
X8336746Y-13907286D01*
X8336746Y-13859667D01*
X8346269Y-13821571D01*
X8355793Y-13802524D01*
X8365317Y-13793000D01*
X8384365Y-13783476D01*
X8574841Y-13783476D02*
X8593889Y-13783476D01*
X8612936Y-13793000D01*
X8622460Y-13802524D01*
X8631984Y-13821571D01*
X8641508Y-13859667D01*
X8641508Y-13907286D01*
X8631984Y-13945381D01*
X8622460Y-13964428D01*
X8612936Y-13973952D01*
X8593889Y-13983476D01*
X8574841Y-13983476D01*
X8555793Y-13973952D01*
X8546270Y-13964428D01*
X8536746Y-13945381D01*
X8527222Y-13907286D01*
X8527222Y-13859667D01*
X8536746Y-13821571D01*
X8546270Y-13802524D01*
X8555793Y-13793000D01*
X8574841Y-13783476D01*
X8727222Y-13983476D02*
X8727222Y-13850143D01*
X8727222Y-13869190D02*
X8736746Y-13859667D01*
X8755793Y-13850143D01*
X8784365Y-13850143D01*
X8803412Y-13859667D01*
X8812936Y-13878714D01*
X8812936Y-13983476D01*
X8812936Y-13878714D02*
X8822460Y-13859667D01*
X8841508Y-13850143D01*
X8870079Y-13850143D01*
X8889127Y-13859667D01*
X8898650Y-13878714D01*
X8898650Y-13983476D01*
X8993889Y-13983476D02*
X8993889Y-13850143D01*
X8993889Y-13869190D02*
X9003412Y-13859667D01*
X9022460Y-13850143D01*
X9051031Y-13850143D01*
X9070079Y-13859667D01*
X9079603Y-13878714D01*
X9079603Y-13983476D01*
X9079603Y-13878714D02*
X9089127Y-13859667D01*
X9108174Y-13850143D01*
X9136746Y-13850143D01*
X9155793Y-13859667D01*
X9165317Y-13878714D01*
X9165317Y-13983476D01*
X9555793Y-13773952D02*
X9384365Y-14031095D01*
X9812936Y-13783476D02*
X9831984Y-13783476D01*
X9851031Y-13793000D01*
X9860555Y-13802524D01*
X9870079Y-13821571D01*
X9879603Y-13859667D01*
X9879603Y-13907286D01*
X9870079Y-13945381D01*
X9860555Y-13964428D01*
X9851031Y-13973952D01*
X9831984Y-13983476D01*
X9812936Y-13983476D01*
X9793889Y-13973952D01*
X9784365Y-13964428D01*
X9774841Y-13945381D01*
X9765317Y-13907286D01*
X9765317Y-13859667D01*
X9774841Y-13821571D01*
X9784365Y-13802524D01*
X9793889Y-13793000D01*
X9812936Y-13783476D01*
X9965317Y-13964428D02*
X9974841Y-13973952D01*
X9965317Y-13983476D01*
X9955793Y-13973952D01*
X9965317Y-13964428D01*
X9965317Y-13983476D01*
X10098650Y-13783476D02*
X10117698Y-13783476D01*
X10136746Y-13793000D01*
X10146270Y-13802524D01*
X10155793Y-13821571D01*
X10165317Y-13859667D01*
X10165317Y-13907286D01*
X10155793Y-13945381D01*
X10146270Y-13964428D01*
X10136746Y-13973952D01*
X10117698Y-13983476D01*
X10098650Y-13983476D01*
X10079603Y-13973952D01*
X10070079Y-13964428D01*
X10060555Y-13945381D01*
X10051031Y-13907286D01*
X10051031Y-13859667D01*
X10060555Y-13821571D01*
X10070079Y-13802524D01*
X10079603Y-13793000D01*
X10098650Y-13783476D01*
X10336746Y-13850143D02*
X10336746Y-13983476D01*
X10289127Y-13773952D02*
X10241508Y-13916809D01*
X10365317Y-13916809D01*
X10422460Y-13783476D02*
X10546270Y-13783476D01*
X10479603Y-13859667D01*
X10508174Y-13859667D01*
X10527222Y-13869190D01*
X10536746Y-13878714D01*
X10546270Y-13897762D01*
X10546270Y-13945381D01*
X10536746Y-13964428D01*
X10527222Y-13973952D01*
X10508174Y-13983476D01*
X10451031Y-13983476D01*
X10431984Y-13973952D01*
X10422460Y-13964428D01*
X10612936Y-13783476D02*
X10736746Y-13783476D01*
X10670079Y-13859667D01*
X10698650Y-13859667D01*
X10717698Y-13869190D01*
X10727222Y-13878714D01*
X10736746Y-13897762D01*
X10736746Y-13945381D01*
X10727222Y-13964428D01*
X10717698Y-13973952D01*
X10698650Y-13983476D01*
X10641508Y-13983476D01*
X10622460Y-13973952D01*
X10612936Y-13964428D01*
X10812936Y-13783476D02*
X10812936Y-13821571D01*
X10889127Y-13783476D02*
X10889127Y-13821571D01*
X11184365Y-14059667D02*
X11174841Y-14050143D01*
X11155793Y-14021571D01*
X11146270Y-14002524D01*
X11136746Y-13973952D01*
X11127222Y-13926333D01*
X11127222Y-13888238D01*
X11136746Y-13840619D01*
X11146270Y-13812048D01*
X11155793Y-13793000D01*
X11174841Y-13764428D01*
X11184365Y-13754905D01*
X11346269Y-13850143D02*
X11346269Y-13983476D01*
X11298650Y-13773952D02*
X11251031Y-13916809D01*
X11374841Y-13916809D01*
X11603412Y-13983476D02*
X11603412Y-13783476D01*
X11689127Y-13983476D02*
X11689127Y-13878714D01*
X11679603Y-13859667D01*
X11660555Y-13850143D01*
X11631984Y-13850143D01*
X11612936Y-13859667D01*
X11603412Y-13869190D01*
X11812936Y-13983476D02*
X11793888Y-13973952D01*
X11784365Y-13964428D01*
X11774841Y-13945381D01*
X11774841Y-13888238D01*
X11784365Y-13869190D01*
X11793888Y-13859667D01*
X11812936Y-13850143D01*
X11841508Y-13850143D01*
X11860555Y-13859667D01*
X11870079Y-13869190D01*
X11879603Y-13888238D01*
X11879603Y-13945381D01*
X11870079Y-13964428D01*
X11860555Y-13973952D01*
X11841508Y-13983476D01*
X11812936Y-13983476D01*
X11993888Y-13983476D02*
X11974841Y-13973952D01*
X11965317Y-13954905D01*
X11965317Y-13783476D01*
X12146269Y-13973952D02*
X12127222Y-13983476D01*
X12089127Y-13983476D01*
X12070079Y-13973952D01*
X12060555Y-13954905D01*
X12060555Y-13878714D01*
X12070079Y-13859667D01*
X12089127Y-13850143D01*
X12127222Y-13850143D01*
X12146269Y-13859667D01*
X12155793Y-13878714D01*
X12155793Y-13897762D01*
X12060555Y-13916809D01*
X12231984Y-13973952D02*
X12251031Y-13983476D01*
X12289127Y-13983476D01*
X12308174Y-13973952D01*
X12317698Y-13954905D01*
X12317698Y-13945381D01*
X12308174Y-13926333D01*
X12289127Y-13916809D01*
X12260555Y-13916809D01*
X12241508Y-13907286D01*
X12231984Y-13888238D01*
X12231984Y-13878714D01*
X12241508Y-13859667D01*
X12260555Y-13850143D01*
X12289127Y-13850143D01*
X12308174Y-13859667D01*
X12384365Y-14059667D02*
X12393888Y-14050143D01*
X12412936Y-14021571D01*
X12422460Y-14002524D01*
X12431984Y-13973952D01*
X12441508Y-13926333D01*
X12441508Y-13888238D01*
X12431984Y-13840619D01*
X12422460Y-13812048D01*
X12412936Y-13793000D01*
X12393888Y-13764428D01*
X12384365Y-13754905D01*
M02*
