%TF.GenerationSoftware,KiCad,Pcbnew,6.0.11-2627ca5db0~126~ubuntu20.04.1*%
%TF.CreationDate,2023-09-03T18:12:03+02:00*%
%TF.ProjectId,sboxnet-modul,73626f78-6e65-4742-9d6d-6f64756c2e6b,rev?*%
%TF.SameCoordinates,Original*%
%TF.FileFunction,Paste,Top*%
%TF.FilePolarity,Positive*%
%FSLAX46Y46*%
G04 Gerber Fmt 4.6, Leading zero omitted, Abs format (unit mm)*
G04 Created by KiCad (PCBNEW 6.0.11-2627ca5db0~126~ubuntu20.04.1) date 2023-09-03 18:12:03*
%MOMM*%
%LPD*%
G01*
G04 APERTURE LIST*
G04 Aperture macros list*
%AMRoundRect*
0 Rectangle with rounded corners*
0 $1 Rounding radius*
0 $2 $3 $4 $5 $6 $7 $8 $9 X,Y pos of 4 corners*
0 Add a 4 corners polygon primitive as box body*
4,1,4,$2,$3,$4,$5,$6,$7,$8,$9,$2,$3,0*
0 Add four circle primitives for the rounded corners*
1,1,$1+$1,$2,$3*
1,1,$1+$1,$4,$5*
1,1,$1+$1,$6,$7*
1,1,$1+$1,$8,$9*
0 Add four rect primitives between the rounded corners*
20,1,$1+$1,$2,$3,$4,$5,0*
20,1,$1+$1,$4,$5,$6,$7,0*
20,1,$1+$1,$6,$7,$8,$9,0*
20,1,$1+$1,$8,$9,$2,$3,0*%
%AMRotRect*
0 Rectangle, with rotation*
0 The origin of the aperture is its center*
0 $1 length*
0 $2 width*
0 $3 Rotation angle, in degrees counterclockwise*
0 Add horizontal line*
21,1,$1,$2,0,0,$3*%
G04 Aperture macros list end*
%ADD10R,2.000000X1.500000*%
%ADD11R,2.000000X3.800000*%
%ADD12RotRect,1.500000X0.550000X315.000000*%
%ADD13RotRect,1.500000X0.550000X45.000000*%
%ADD14RoundRect,0.250001X-0.624999X0.462499X-0.624999X-0.462499X0.624999X-0.462499X0.624999X0.462499X0*%
%ADD15RoundRect,0.250001X-0.462499X-0.624999X0.462499X-0.624999X0.462499X0.624999X-0.462499X0.624999X0*%
%ADD16RoundRect,0.250000X0.650000X-0.412500X0.650000X0.412500X-0.650000X0.412500X-0.650000X-0.412500X0*%
%ADD17RoundRect,0.250000X0.400000X0.625000X-0.400000X0.625000X-0.400000X-0.625000X0.400000X-0.625000X0*%
%ADD18RoundRect,0.150000X-0.150000X0.825000X-0.150000X-0.825000X0.150000X-0.825000X0.150000X0.825000X0*%
G04 APERTURE END LIST*
D10*
X88290000Y-78980000D03*
X88290000Y-81280000D03*
D11*
X94590000Y-81280000D03*
D10*
X88290000Y-83580000D03*
D12*
X91507918Y-92201064D03*
X90942233Y-92766750D03*
X90376548Y-93332435D03*
X89810862Y-93898120D03*
X89245177Y-94463806D03*
X88679491Y-95029491D03*
X88113806Y-95595177D03*
X87548120Y-96160862D03*
X86982435Y-96726548D03*
X86416750Y-97292233D03*
X85851064Y-97857918D03*
D13*
X85851064Y-100262082D03*
X86416750Y-100827767D03*
X86982435Y-101393452D03*
X87548120Y-101959138D03*
X88113806Y-102524823D03*
X88679491Y-103090509D03*
X89245177Y-103656194D03*
X89810862Y-104221880D03*
X90376548Y-104787565D03*
X90942233Y-105353250D03*
X91507918Y-105918936D03*
D12*
X93912082Y-105918936D03*
X94477767Y-105353250D03*
X95043452Y-104787565D03*
X95609138Y-104221880D03*
X96174823Y-103656194D03*
X96740509Y-103090509D03*
X97306194Y-102524823D03*
X97871880Y-101959138D03*
X98437565Y-101393452D03*
X99003250Y-100827767D03*
X99568936Y-100262082D03*
D13*
X99568936Y-97857918D03*
X99003250Y-97292233D03*
X98437565Y-96726548D03*
X97871880Y-96160862D03*
X97306194Y-95595177D03*
X96740509Y-95029491D03*
X96174823Y-94463806D03*
X95609138Y-93898120D03*
X95043452Y-93332435D03*
X94477767Y-92766750D03*
X93912082Y-92201064D03*
D14*
X83870800Y-117689300D03*
X83870800Y-120664300D03*
D15*
X99274300Y-81661000D03*
X102249300Y-81661000D03*
D16*
X85090000Y-82931000D03*
X85090000Y-79806000D03*
D15*
X99274300Y-79298800D03*
X102249300Y-79298800D03*
D17*
X117400001Y-114300000D03*
X114300001Y-114300000D03*
D14*
X86385400Y-117689300D03*
X86385400Y-120664300D03*
D17*
X118390000Y-119380000D03*
X115290000Y-119380000D03*
D18*
X112293400Y-114415800D03*
X111023400Y-114415800D03*
X109753400Y-114415800D03*
X108483400Y-114415800D03*
X108483400Y-119365800D03*
X109753400Y-119365800D03*
X111023400Y-119365800D03*
X112293400Y-119365800D03*
M02*
