%TF.GenerationSoftware,KiCad,Pcbnew,6.0.11-2627ca5db0~126~ubuntu20.04.1*%
%TF.CreationDate,2023-09-03T18:12:03+02:00*%
%TF.ProjectId,sboxnet-modul,73626f78-6e65-4742-9d6d-6f64756c2e6b,rev?*%
%TF.SameCoordinates,Original*%
%TF.FileFunction,Soldermask,Bot*%
%TF.FilePolarity,Negative*%
%FSLAX46Y46*%
G04 Gerber Fmt 4.6, Leading zero omitted, Abs format (unit mm)*
G04 Created by KiCad (PCBNEW 6.0.11-2627ca5db0~126~ubuntu20.04.1) date 2023-09-03 18:12:03*
%MOMM*%
%LPD*%
G01*
G04 APERTURE LIST*
G04 Aperture macros list*
%AMRoundRect*
0 Rectangle with rounded corners*
0 $1 Rounding radius*
0 $2 $3 $4 $5 $6 $7 $8 $9 X,Y pos of 4 corners*
0 Add a 4 corners polygon primitive as box body*
4,1,4,$2,$3,$4,$5,$6,$7,$8,$9,$2,$3,0*
0 Add four circle primitives for the rounded corners*
1,1,$1+$1,$2,$3*
1,1,$1+$1,$4,$5*
1,1,$1+$1,$6,$7*
1,1,$1+$1,$8,$9*
0 Add four rect primitives between the rounded corners*
20,1,$1+$1,$2,$3,$4,$5,0*
20,1,$1+$1,$4,$5,$6,$7,0*
20,1,$1+$1,$6,$7,$8,$9,0*
20,1,$1+$1,$8,$9,$2,$3,0*%
G04 Aperture macros list end*
%ADD10C,1.524000*%
%ADD11R,1.524000X1.524000*%
%ADD12C,3.170000*%
%ADD13C,2.000000*%
%ADD14C,1.500000*%
%ADD15RoundRect,0.250000X0.400000X0.625000X-0.400000X0.625000X-0.400000X-0.625000X0.400000X-0.625000X0*%
%ADD16RoundRect,0.250000X-0.412500X-0.650000X0.412500X-0.650000X0.412500X0.650000X-0.412500X0.650000X0*%
%ADD17RoundRect,0.250000X0.167938X-0.751301X0.751301X-0.167938X-0.167938X0.751301X-0.751301X0.167938X0*%
%ADD18RoundRect,0.250001X0.462499X0.624999X-0.462499X0.624999X-0.462499X-0.624999X0.462499X-0.624999X0*%
%ADD19RoundRect,0.250000X0.751301X0.167938X0.167938X0.751301X-0.751301X-0.167938X-0.167938X-0.751301X0*%
%ADD20RoundRect,0.250000X-0.625000X0.400000X-0.625000X-0.400000X0.625000X-0.400000X0.625000X0.400000X0*%
%ADD21R,2.000000X1.500000*%
%ADD22R,2.000000X3.800000*%
%ADD23RoundRect,0.250000X0.412500X0.650000X-0.412500X0.650000X-0.412500X-0.650000X0.412500X-0.650000X0*%
%ADD24RoundRect,0.250000X0.650000X-0.412500X0.650000X0.412500X-0.650000X0.412500X-0.650000X-0.412500X0*%
%ADD25RoundRect,0.250000X-0.650000X0.412500X-0.650000X-0.412500X0.650000X-0.412500X0.650000X0.412500X0*%
%ADD26R,2.300000X3.500000*%
%ADD27RoundRect,0.250000X-0.167938X0.751301X-0.751301X0.167938X0.167938X-0.751301X0.751301X-0.167938X0*%
%ADD28RoundRect,0.250000X-0.751301X-0.167938X-0.167938X-0.751301X0.751301X0.167938X0.167938X0.751301X0*%
G04 APERTURE END LIST*
D10*
X80010000Y-78010000D03*
D11*
X77470000Y-78010000D03*
D10*
X80010000Y-80550000D03*
X77470000Y-80550000D03*
X80010000Y-83090000D03*
X77470000Y-83090000D03*
X80010000Y-85630000D03*
X77470000Y-85630000D03*
X80010000Y-88170000D03*
X77470000Y-88170000D03*
X80010000Y-90710000D03*
X77470000Y-90710000D03*
X80010000Y-93250000D03*
X77470000Y-93250000D03*
X80010000Y-95790000D03*
X77470000Y-95790000D03*
X80010000Y-98330000D03*
X77470000Y-98330000D03*
X80010000Y-100870000D03*
X77470000Y-100870000D03*
X80010000Y-103410000D03*
X77470000Y-103410000D03*
X80010000Y-105950000D03*
X77470000Y-105950000D03*
X80010000Y-108490000D03*
X77470000Y-108490000D03*
X80010000Y-111030000D03*
X77470000Y-111030000D03*
X80010000Y-113570000D03*
X77470000Y-113570000D03*
X80010000Y-116110000D03*
X77470000Y-116110000D03*
X80010000Y-118650000D03*
X77470000Y-118650000D03*
X100100000Y-110780000D03*
X102640000Y-110780000D03*
X100100000Y-113320000D03*
X102640000Y-113320000D03*
X100100000Y-115860000D03*
D11*
X102640000Y-115860000D03*
D12*
X116964460Y-98390000D03*
X116840000Y-109855000D03*
D11*
X110490000Y-108580000D03*
D10*
X107950000Y-107310000D03*
X110490000Y-106040000D03*
X107950000Y-104770000D03*
X110490000Y-103500000D03*
X107950000Y-102235000D03*
X110490000Y-100960000D03*
X107950000Y-99695000D03*
D12*
X116840000Y-89535000D03*
X116964460Y-78070000D03*
D11*
X110490000Y-88260000D03*
D10*
X107950000Y-86990000D03*
X110490000Y-85720000D03*
X107950000Y-84450000D03*
X110490000Y-83180000D03*
X107950000Y-81915000D03*
X110490000Y-80640000D03*
X107950000Y-79375000D03*
D13*
X88977400Y-115961600D03*
X95477400Y-115961600D03*
X95477400Y-120461600D03*
X88977400Y-120461600D03*
D14*
X98597589Y-87167589D03*
X102048270Y-90618270D03*
D15*
X105334400Y-81737200D03*
X102234400Y-81737200D03*
D16*
X112686700Y-80949800D03*
X115811700Y-80949800D03*
D17*
X95625146Y-101074854D03*
X97834854Y-98865146D03*
D18*
X89117500Y-86390000D03*
X86142500Y-86390000D03*
D19*
X101434854Y-95592854D03*
X99225146Y-93383146D03*
D20*
X83820000Y-114578200D03*
X83820000Y-117678200D03*
D21*
X97740000Y-78980000D03*
X97740000Y-81280000D03*
D22*
X91440000Y-81280000D03*
D21*
X97740000Y-83580000D03*
D23*
X96520000Y-86868665D03*
X93395000Y-86868665D03*
D24*
X100177600Y-82867900D03*
X100177600Y-79742900D03*
D20*
X86385400Y-114552800D03*
X86385400Y-117652800D03*
D15*
X93802800Y-113715800D03*
X90702800Y-113715800D03*
D25*
X85115400Y-79793700D03*
X85115400Y-82918700D03*
D26*
X121996200Y-80891400D03*
X121996200Y-86291400D03*
D23*
X106972500Y-94707286D03*
X103847500Y-94707286D03*
D27*
X90450000Y-96610000D03*
X88240292Y-98819708D03*
D28*
X90275146Y-101605146D03*
X92484854Y-103814854D03*
D15*
X105334400Y-79324200D03*
X102234400Y-79324200D03*
M02*
