%TF.GenerationSoftware,KiCad,Pcbnew,5.1.6-c6e7f7d~87~ubuntu18.04.1*%
%TF.CreationDate,2021-03-27T09:05:47+01:00*%
%TF.ProjectId,sboxnet-modul,73626f78-6e65-4742-9d6d-6f64756c2e6b,rev?*%
%TF.SameCoordinates,Original*%
%TF.FileFunction,Legend,Top*%
%TF.FilePolarity,Positive*%
%FSLAX46Y46*%
G04 Gerber Fmt 4.6, Leading zero omitted, Abs format (unit mm)*
G04 Created by KiCad (PCBNEW 5.1.6-c6e7f7d~87~ubuntu18.04.1) date 2021-03-27 09:05:47*
%MOMM*%
%LPD*%
G01*
G04 APERTURE LIST*
%ADD10C,0.100000*%
%ADD11C,0.200000*%
%ADD12C,0.300000*%
%ADD13C,0.150000*%
%ADD14C,0.120000*%
G04 APERTURE END LIST*
D10*
X123366400Y-100528380D02*
X123366400Y-99528380D01*
X123604495Y-99528380D01*
X123747352Y-99576000D01*
X123842590Y-99671238D01*
X123890209Y-99766476D01*
X123937828Y-99956952D01*
X123937828Y-100099809D01*
X123890209Y-100290285D01*
X123842590Y-100385523D01*
X123747352Y-100480761D01*
X123604495Y-100528380D01*
X123366400Y-100528380D01*
X124318780Y-100242666D02*
X124794971Y-100242666D01*
X124223542Y-100528380D02*
X124556876Y-99528380D01*
X124890209Y-100528380D01*
X125080685Y-99528380D02*
X125652114Y-99528380D01*
X125366400Y-100528380D02*
X125366400Y-99528380D01*
X125937828Y-100242666D02*
X126414019Y-100242666D01*
X125842590Y-100528380D02*
X126175923Y-99528380D01*
X126509257Y-100528380D01*
X124982361Y-116943142D02*
X124934742Y-116990761D01*
X124791885Y-117038380D01*
X124696647Y-117038380D01*
X124553790Y-116990761D01*
X124458552Y-116895523D01*
X124410933Y-116800285D01*
X124363314Y-116609809D01*
X124363314Y-116466952D01*
X124410933Y-116276476D01*
X124458552Y-116181238D01*
X124553790Y-116086000D01*
X124696647Y-116038380D01*
X124791885Y-116038380D01*
X124934742Y-116086000D01*
X124982361Y-116133619D01*
X125887123Y-117038380D02*
X125410933Y-117038380D01*
X125410933Y-116038380D01*
X126220457Y-117038380D02*
X126220457Y-116038380D01*
X126791885Y-117038380D02*
X126363314Y-116466952D01*
X126791885Y-116038380D02*
X126220457Y-116609809D01*
X128066895Y-115984400D02*
X127971657Y-115936780D01*
X127828800Y-115936780D01*
X127685942Y-115984400D01*
X127590704Y-116079638D01*
X127543085Y-116174876D01*
X127495466Y-116365352D01*
X127495466Y-116508209D01*
X127543085Y-116698685D01*
X127590704Y-116793923D01*
X127685942Y-116889161D01*
X127828800Y-116936780D01*
X127924038Y-116936780D01*
X128066895Y-116889161D01*
X128114514Y-116841542D01*
X128114514Y-116508209D01*
X127924038Y-116508209D01*
X128543085Y-116936780D02*
X128543085Y-115936780D01*
X129114514Y-116936780D01*
X129114514Y-115936780D01*
X129590704Y-116936780D02*
X129590704Y-115936780D01*
X129828800Y-115936780D01*
X129971657Y-115984400D01*
X130066895Y-116079638D01*
X130114514Y-116174876D01*
X130162133Y-116365352D01*
X130162133Y-116508209D01*
X130114514Y-116698685D01*
X130066895Y-116793923D01*
X129971657Y-116889161D01*
X129828800Y-116936780D01*
X129590704Y-116936780D01*
X128200400Y-100198228D02*
X128962304Y-100198228D01*
X128581352Y-100579180D02*
X128581352Y-99817276D01*
X129343257Y-99579180D02*
X129962304Y-99579180D01*
X129628971Y-99960133D01*
X129771828Y-99960133D01*
X129867066Y-100007752D01*
X129914685Y-100055371D01*
X129962304Y-100150609D01*
X129962304Y-100388704D01*
X129914685Y-100483942D01*
X129867066Y-100531561D01*
X129771828Y-100579180D01*
X129486114Y-100579180D01*
X129390876Y-100531561D01*
X129343257Y-100483942D01*
X130390876Y-100483942D02*
X130438495Y-100531561D01*
X130390876Y-100579180D01*
X130343257Y-100531561D01*
X130390876Y-100483942D01*
X130390876Y-100579180D01*
X130771828Y-99579180D02*
X131390876Y-99579180D01*
X131057542Y-99960133D01*
X131200400Y-99960133D01*
X131295638Y-100007752D01*
X131343257Y-100055371D01*
X131390876Y-100150609D01*
X131390876Y-100388704D01*
X131343257Y-100483942D01*
X131295638Y-100531561D01*
X131200400Y-100579180D01*
X130914685Y-100579180D01*
X130819447Y-100531561D01*
X130771828Y-100483942D01*
X131676590Y-99579180D02*
X132009923Y-100579180D01*
X132343257Y-99579180D01*
D11*
X136295023Y-87866528D02*
X137056928Y-87866528D01*
X136675976Y-88247480D02*
X136675976Y-87485576D01*
X137533119Y-87723671D02*
X137866452Y-87723671D01*
X138009309Y-88247480D02*
X137533119Y-88247480D01*
X137533119Y-87247480D01*
X138009309Y-87247480D01*
X138342642Y-87247480D02*
X139009309Y-88247480D01*
X139009309Y-87247480D02*
X138342642Y-88247480D01*
X139247404Y-87247480D02*
X139818833Y-87247480D01*
X139533119Y-88247480D02*
X139533119Y-87247480D01*
X148917185Y-87752228D02*
X149679090Y-87752228D01*
X149298138Y-88133180D02*
X149298138Y-87371276D01*
X150060042Y-87133180D02*
X150726709Y-87133180D01*
X150298138Y-88133180D01*
X150964804Y-87133180D02*
X151298138Y-88133180D01*
X151631471Y-87133180D01*
D12*
X122530728Y-69766642D02*
X123673585Y-69766642D01*
X123102157Y-70338071D02*
X123102157Y-69195214D01*
X125173585Y-70338071D02*
X124316442Y-70338071D01*
X124745014Y-70338071D02*
X124745014Y-68838071D01*
X124602157Y-69052357D01*
X124459300Y-69195214D01*
X124316442Y-69266642D01*
X126102157Y-68838071D02*
X126245014Y-68838071D01*
X126387871Y-68909500D01*
X126459300Y-68980928D01*
X126530728Y-69123785D01*
X126602157Y-69409500D01*
X126602157Y-69766642D01*
X126530728Y-70052357D01*
X126459300Y-70195214D01*
X126387871Y-70266642D01*
X126245014Y-70338071D01*
X126102157Y-70338071D01*
X125959300Y-70266642D01*
X125887871Y-70195214D01*
X125816442Y-70052357D01*
X125745014Y-69766642D01*
X125745014Y-69409500D01*
X125816442Y-69123785D01*
X125887871Y-68980928D01*
X125959300Y-68909500D01*
X126102157Y-68838071D01*
X127887871Y-69338071D02*
X127887871Y-70338071D01*
X127245014Y-69338071D02*
X127245014Y-70123785D01*
X127316442Y-70266642D01*
X127459300Y-70338071D01*
X127673585Y-70338071D01*
X127816442Y-70266642D01*
X127887871Y-70195214D01*
X131242928Y-73068642D02*
X132385785Y-73068642D01*
X131814357Y-73640071D02*
X131814357Y-72497214D01*
X133885785Y-73640071D02*
X133028642Y-73640071D01*
X133457214Y-73640071D02*
X133457214Y-72140071D01*
X133314357Y-72354357D01*
X133171500Y-72497214D01*
X133028642Y-72568642D01*
X134814357Y-72140071D02*
X134957214Y-72140071D01*
X135100071Y-72211500D01*
X135171500Y-72282928D01*
X135242928Y-72425785D01*
X135314357Y-72711500D01*
X135314357Y-73068642D01*
X135242928Y-73354357D01*
X135171500Y-73497214D01*
X135100071Y-73568642D01*
X134957214Y-73640071D01*
X134814357Y-73640071D01*
X134671500Y-73568642D01*
X134600071Y-73497214D01*
X134528642Y-73354357D01*
X134457214Y-73068642D01*
X134457214Y-72711500D01*
X134528642Y-72425785D01*
X134600071Y-72282928D01*
X134671500Y-72211500D01*
X134814357Y-72140071D01*
X136600071Y-72640071D02*
X136600071Y-73640071D01*
X135957214Y-72640071D02*
X135957214Y-73425785D01*
X136028642Y-73568642D01*
X136171500Y-73640071D01*
X136385785Y-73640071D01*
X136528642Y-73568642D01*
X136600071Y-73497214D01*
X105930771Y-70604842D02*
X107073628Y-70604842D01*
X106502200Y-71176271D02*
X106502200Y-70033414D01*
D10*
X97314000Y-78252628D02*
X98075904Y-78252628D01*
X97694952Y-78633580D02*
X97694952Y-77871676D01*
X98456857Y-77633580D02*
X99075904Y-77633580D01*
X98742571Y-78014533D01*
X98885428Y-78014533D01*
X98980666Y-78062152D01*
X99028285Y-78109771D01*
X99075904Y-78205009D01*
X99075904Y-78443104D01*
X99028285Y-78538342D01*
X98980666Y-78585961D01*
X98885428Y-78633580D01*
X98599714Y-78633580D01*
X98504476Y-78585961D01*
X98456857Y-78538342D01*
X99504476Y-78538342D02*
X99552095Y-78585961D01*
X99504476Y-78633580D01*
X99456857Y-78585961D01*
X99504476Y-78538342D01*
X99504476Y-78633580D01*
X99885428Y-77633580D02*
X100504476Y-77633580D01*
X100171142Y-78014533D01*
X100314000Y-78014533D01*
X100409238Y-78062152D01*
X100456857Y-78109771D01*
X100504476Y-78205009D01*
X100504476Y-78443104D01*
X100456857Y-78538342D01*
X100409238Y-78585961D01*
X100314000Y-78633580D01*
X100028285Y-78633580D01*
X99933047Y-78585961D01*
X99885428Y-78538342D01*
X100790190Y-77633580D02*
X101123523Y-78633580D01*
X101456857Y-77633580D01*
X94931123Y-74087028D02*
X95693028Y-74087028D01*
X95312076Y-74467980D02*
X95312076Y-73706076D01*
X96169219Y-73944171D02*
X96502552Y-73944171D01*
X96645409Y-74467980D02*
X96169219Y-74467980D01*
X96169219Y-73467980D01*
X96645409Y-73467980D01*
X96978742Y-73467980D02*
X97645409Y-74467980D01*
X97645409Y-73467980D02*
X96978742Y-74467980D01*
X97883504Y-73467980D02*
X98454933Y-73467980D01*
X98169219Y-74467980D02*
X98169219Y-73467980D01*
X92710095Y-73058400D02*
X92614857Y-73010780D01*
X92472000Y-73010780D01*
X92329142Y-73058400D01*
X92233904Y-73153638D01*
X92186285Y-73248876D01*
X92138666Y-73439352D01*
X92138666Y-73582209D01*
X92186285Y-73772685D01*
X92233904Y-73867923D01*
X92329142Y-73963161D01*
X92472000Y-74010780D01*
X92567238Y-74010780D01*
X92710095Y-73963161D01*
X92757714Y-73915542D01*
X92757714Y-73582209D01*
X92567238Y-73582209D01*
X93186285Y-74010780D02*
X93186285Y-73010780D01*
X93757714Y-74010780D01*
X93757714Y-73010780D01*
X94233904Y-74010780D02*
X94233904Y-73010780D01*
X94472000Y-73010780D01*
X94614857Y-73058400D01*
X94710095Y-73153638D01*
X94757714Y-73248876D01*
X94805333Y-73439352D01*
X94805333Y-73582209D01*
X94757714Y-73772685D01*
X94710095Y-73867923D01*
X94614857Y-73963161D01*
X94472000Y-74010780D01*
X94233904Y-74010780D01*
X100472904Y-124906114D02*
X100472904Y-125715638D01*
X100425285Y-125810876D01*
X100377666Y-125858495D01*
X100282428Y-125906114D01*
X100139571Y-125906114D01*
X100044333Y-125858495D01*
X100472904Y-125525161D02*
X100377666Y-125572780D01*
X100187190Y-125572780D01*
X100091952Y-125525161D01*
X100044333Y-125477542D01*
X99996714Y-125382304D01*
X99996714Y-125096590D01*
X100044333Y-125001352D01*
X100091952Y-124953733D01*
X100187190Y-124906114D01*
X100377666Y-124906114D01*
X100472904Y-124953733D01*
X100949095Y-124906114D02*
X100949095Y-125572780D01*
X100949095Y-125001352D02*
X100996714Y-124953733D01*
X101091952Y-124906114D01*
X101234809Y-124906114D01*
X101330047Y-124953733D01*
X101377666Y-125048971D01*
X101377666Y-125572780D01*
X105814857Y-125775980D02*
X105814857Y-125109314D01*
X105814857Y-125299790D02*
X105862476Y-125204552D01*
X105910095Y-125156933D01*
X106005333Y-125109314D01*
X106100571Y-125109314D01*
X106291047Y-125109314D02*
X106672000Y-125109314D01*
X106433904Y-124775980D02*
X106433904Y-125633123D01*
X106481523Y-125728361D01*
X106576761Y-125775980D01*
X106672000Y-125775980D01*
D11*
X117535461Y-70670728D02*
X118297366Y-70670728D01*
X117916414Y-71051680D02*
X117916414Y-70289776D01*
X118773557Y-71051680D02*
X118773557Y-70051680D01*
X118773557Y-70432633D02*
X118868795Y-70385014D01*
X119059271Y-70385014D01*
X119154509Y-70432633D01*
X119202128Y-70480252D01*
X119249747Y-70575490D01*
X119249747Y-70861204D01*
X119202128Y-70956442D01*
X119154509Y-71004061D01*
X119059271Y-71051680D01*
X118868795Y-71051680D01*
X118773557Y-71004061D01*
X119821176Y-71051680D02*
X119725938Y-71004061D01*
X119678319Y-70908823D01*
X119678319Y-70051680D01*
X141541642Y-73375828D02*
X142303547Y-73375828D01*
X141922595Y-73756780D02*
X141922595Y-72994876D01*
X142922595Y-73756780D02*
X142827357Y-73709161D01*
X142779738Y-73661542D01*
X142732119Y-73566304D01*
X142732119Y-73280590D01*
X142779738Y-73185352D01*
X142827357Y-73137733D01*
X142922595Y-73090114D01*
X143065452Y-73090114D01*
X143160690Y-73137733D01*
X143208309Y-73185352D01*
X143255928Y-73280590D01*
X143255928Y-73566304D01*
X143208309Y-73661542D01*
X143160690Y-73709161D01*
X143065452Y-73756780D01*
X142922595Y-73756780D01*
X143684500Y-73756780D02*
X143684500Y-73090114D01*
X143684500Y-73280590D02*
X143732119Y-73185352D01*
X143779738Y-73137733D01*
X143874976Y-73090114D01*
X143970214Y-73090114D01*
D10*
X119658000Y-113990380D02*
X119658000Y-112990380D01*
X119896095Y-112990380D01*
X120038952Y-113038000D01*
X120134190Y-113133238D01*
X120181809Y-113228476D01*
X120229428Y-113418952D01*
X120229428Y-113561809D01*
X120181809Y-113752285D01*
X120134190Y-113847523D01*
X120038952Y-113942761D01*
X119896095Y-113990380D01*
X119658000Y-113990380D01*
X120610380Y-113704666D02*
X121086571Y-113704666D01*
X120515142Y-113990380D02*
X120848476Y-112990380D01*
X121181809Y-113990380D01*
X121372285Y-112990380D02*
X121943714Y-112990380D01*
X121658000Y-113990380D02*
X121658000Y-112990380D01*
X122229428Y-113704666D02*
X122705619Y-113704666D01*
X122134190Y-113990380D02*
X122467523Y-112990380D01*
X122800857Y-113990380D01*
X120181761Y-111355142D02*
X120134142Y-111402761D01*
X119991285Y-111450380D01*
X119896047Y-111450380D01*
X119753190Y-111402761D01*
X119657952Y-111307523D01*
X119610333Y-111212285D01*
X119562714Y-111021809D01*
X119562714Y-110878952D01*
X119610333Y-110688476D01*
X119657952Y-110593238D01*
X119753190Y-110498000D01*
X119896047Y-110450380D01*
X119991285Y-110450380D01*
X120134142Y-110498000D01*
X120181761Y-110545619D01*
X121086523Y-111450380D02*
X120610333Y-111450380D01*
X120610333Y-110450380D01*
X121419857Y-111450380D02*
X121419857Y-110450380D01*
X121991285Y-111450380D02*
X121562714Y-110878952D01*
X121991285Y-110450380D02*
X121419857Y-111021809D01*
X119888095Y-116213000D02*
X119792857Y-116165380D01*
X119650000Y-116165380D01*
X119507142Y-116213000D01*
X119411904Y-116308238D01*
X119364285Y-116403476D01*
X119316666Y-116593952D01*
X119316666Y-116736809D01*
X119364285Y-116927285D01*
X119411904Y-117022523D01*
X119507142Y-117117761D01*
X119650000Y-117165380D01*
X119745238Y-117165380D01*
X119888095Y-117117761D01*
X119935714Y-117070142D01*
X119935714Y-116736809D01*
X119745238Y-116736809D01*
X120364285Y-117165380D02*
X120364285Y-116165380D01*
X120935714Y-117165380D01*
X120935714Y-116165380D01*
X121411904Y-117165380D02*
X121411904Y-116165380D01*
X121650000Y-116165380D01*
X121792857Y-116213000D01*
X121888095Y-116308238D01*
X121935714Y-116403476D01*
X121983333Y-116593952D01*
X121983333Y-116736809D01*
X121935714Y-116927285D01*
X121888095Y-117022523D01*
X121792857Y-117117761D01*
X121650000Y-117165380D01*
X121411904Y-117165380D01*
X119285000Y-108275428D02*
X120046904Y-108275428D01*
X119665952Y-108656380D02*
X119665952Y-107894476D01*
X120427857Y-107656380D02*
X121046904Y-107656380D01*
X120713571Y-108037333D01*
X120856428Y-108037333D01*
X120951666Y-108084952D01*
X120999285Y-108132571D01*
X121046904Y-108227809D01*
X121046904Y-108465904D01*
X120999285Y-108561142D01*
X120951666Y-108608761D01*
X120856428Y-108656380D01*
X120570714Y-108656380D01*
X120475476Y-108608761D01*
X120427857Y-108561142D01*
X121475476Y-108561142D02*
X121523095Y-108608761D01*
X121475476Y-108656380D01*
X121427857Y-108608761D01*
X121475476Y-108561142D01*
X121475476Y-108656380D01*
X121856428Y-107656380D02*
X122475476Y-107656380D01*
X122142142Y-108037333D01*
X122285000Y-108037333D01*
X122380238Y-108084952D01*
X122427857Y-108132571D01*
X122475476Y-108227809D01*
X122475476Y-108465904D01*
X122427857Y-108561142D01*
X122380238Y-108608761D01*
X122285000Y-108656380D01*
X121999285Y-108656380D01*
X121904047Y-108608761D01*
X121856428Y-108561142D01*
X122761190Y-107656380D02*
X123094523Y-108656380D01*
X123427857Y-107656380D01*
D13*
X113188714Y-89606380D02*
X112617285Y-89606380D01*
X112903000Y-89606380D02*
X112903000Y-88606380D01*
X112807761Y-88749238D01*
X112712523Y-88844476D01*
X112617285Y-88892095D01*
D14*
X133236800Y-109347000D02*
X153806800Y-109347000D01*
X133236800Y-124587000D02*
X133236800Y-109347000D01*
X153806800Y-124587000D02*
X133236800Y-124587000D01*
X153806800Y-124587000D02*
X153806800Y-109347000D01*
X133340000Y-90980000D02*
X153910000Y-90980000D01*
X133340000Y-106220000D02*
X133340000Y-90980000D01*
X153910000Y-106220000D02*
X133340000Y-106220000D01*
X153910000Y-106220000D02*
X153910000Y-90980000D01*
D13*
X112979014Y-90319231D02*
X112077452Y-89417670D01*
X120704155Y-97231200D02*
X120226858Y-96753903D01*
X113385600Y-104549755D02*
X112908303Y-104072458D01*
X106067045Y-97231200D02*
X106544342Y-97708497D01*
X113385600Y-89912645D02*
X113862897Y-90389942D01*
X106067045Y-97231200D02*
X106544342Y-96753903D01*
X113385600Y-104549755D02*
X113862897Y-104072458D01*
X120704155Y-97231200D02*
X120226858Y-97708497D01*
X113385600Y-89912645D02*
X112979014Y-90319231D01*
D14*
X123085600Y-100816400D02*
X130085600Y-100816400D01*
X123085600Y-105316400D02*
X123085600Y-100816400D01*
X130085600Y-100816400D02*
X132085600Y-100816400D01*
X132085600Y-100816400D02*
X132085600Y-113316400D01*
X123085600Y-113316400D02*
X123085600Y-110816400D01*
X123085600Y-113316400D02*
X123085600Y-115316400D01*
X123085600Y-115316400D02*
X132085600Y-115316400D01*
X132085600Y-115316400D02*
X132085600Y-113316400D01*
X116272000Y-107128000D02*
X117602000Y-107128000D01*
X116272000Y-108458000D02*
X116272000Y-107128000D01*
X116272000Y-109728000D02*
X118932000Y-109728000D01*
X118932000Y-109728000D02*
X118932000Y-117408000D01*
X116272000Y-109728000D02*
X116272000Y-117408000D01*
X116272000Y-117408000D02*
X118932000Y-117408000D01*
X97290000Y-124667000D02*
X97290000Y-128727000D01*
X99560000Y-124667000D02*
X97290000Y-124667000D01*
X99560000Y-128727000D02*
X99560000Y-124667000D01*
X109282064Y-71940000D02*
X108077936Y-71940000D01*
X109282064Y-73760000D02*
X108077936Y-73760000D01*
X101114564Y-71870000D02*
X99910436Y-71870000D01*
X101114564Y-73690000D02*
X99910436Y-73690000D01*
X148256300Y-86401600D02*
X148256300Y-87731600D01*
X146926300Y-86401600D02*
X148256300Y-86401600D01*
X145656300Y-86401600D02*
X145656300Y-89061600D01*
X145656300Y-89061600D02*
X140516300Y-89061600D01*
X145656300Y-86401600D02*
X140516300Y-86401600D01*
X140516300Y-86401600D02*
X140516300Y-89061600D01*
X134282064Y-126990000D02*
X133077936Y-126990000D01*
X134282064Y-128810000D02*
X133077936Y-128810000D01*
X105991076Y-86339813D02*
X110410494Y-81920395D01*
X102420187Y-82768924D02*
X106839605Y-78349506D01*
X110410493Y-81920396D02*
G75*
G03*
X106839605Y-78349506I-1785444J1785445D01*
G01*
X105991077Y-86339812D02*
G75*
G02*
X102420187Y-82768924I-1785445J1785444D01*
G01*
X112750809Y-79787744D02*
X113602256Y-80639191D01*
X114037744Y-78500809D02*
X114889191Y-79352256D01*
X101953756Y-79131309D02*
X101102309Y-79982756D01*
X103240691Y-80418244D02*
X102389244Y-81269691D01*
X126771400Y-123627200D02*
X123321400Y-123627200D01*
X126771400Y-123627200D02*
X128721400Y-123627200D01*
X126771400Y-128747200D02*
X124821400Y-128747200D01*
X126771400Y-128747200D02*
X128721400Y-128747200D01*
D13*
X112240000Y-128040000D02*
X111940000Y-128040000D01*
X115240000Y-128040000D02*
X115540000Y-128040000D01*
X115240000Y-122840000D02*
X115540000Y-122840000D01*
X112240000Y-122840000D02*
X111940000Y-122840000D01*
X113740000Y-126240000D02*
X113040000Y-124440000D01*
X113740000Y-128040000D02*
X113740000Y-126240000D01*
X113740000Y-122840000D02*
X113740000Y-124640000D01*
X115240000Y-128040000D02*
X112240000Y-128040000D01*
X112240000Y-122840000D02*
X115240000Y-122840000D01*
X115490000Y-125440000D02*
G75*
G03*
X115490000Y-125440000I-1750000J0D01*
G01*
X111740000Y-122440000D02*
X115740000Y-122440000D01*
X111740000Y-128440000D02*
X115740000Y-128440000D01*
X110740000Y-124940000D02*
X110740000Y-125940000D01*
X116740000Y-124940000D02*
X116740000Y-125940000D01*
D14*
X138321636Y-76221000D02*
X139525764Y-76221000D01*
X138321636Y-74401000D02*
X139525764Y-74401000D01*
X123162256Y-91720809D02*
X122310809Y-92572256D01*
X124449191Y-93007744D02*
X123597744Y-93859191D01*
X108656800Y-120998064D02*
X108656800Y-119793936D01*
X106836800Y-120998064D02*
X106836800Y-119793936D01*
X97642000Y-119820936D02*
X97642000Y-121025064D01*
X99462000Y-119820936D02*
X99462000Y-121025064D01*
X103217300Y-119757436D02*
X103217300Y-120961564D01*
X105037300Y-119757436D02*
X105037300Y-120961564D01*
X122688764Y-72115000D02*
X121484636Y-72115000D01*
X122688764Y-73935000D02*
X121484636Y-73935000D01*
X92265500Y-117602000D02*
X92265500Y-74422000D01*
X97345500Y-117602000D02*
X92265500Y-117602000D01*
X97345500Y-74422000D02*
X97345500Y-117602000D01*
X92265500Y-74422000D02*
X97345500Y-74422000D01*
X113757700Y-74134600D02*
X117817700Y-74134600D01*
X113757700Y-71864600D02*
X113757700Y-74134600D01*
X117817700Y-71864600D02*
X113757700Y-71864600D01*
X148154400Y-74328400D02*
X144094400Y-74328400D01*
X148154400Y-76598400D02*
X148154400Y-74328400D01*
X144094400Y-76598400D02*
X148154400Y-76598400D01*
X103005000Y-124730500D02*
X103005000Y-128790500D01*
X105275000Y-124730500D02*
X103005000Y-124730500D01*
X105275000Y-128790500D02*
X105275000Y-124730500D01*
X120286100Y-121875136D02*
X120286100Y-123079264D01*
X122106100Y-121875136D02*
X122106100Y-123079264D01*
D13*
X138888220Y-117053953D02*
X139602506Y-117053953D01*
X139745363Y-117101572D01*
X139840601Y-117196810D01*
X139888220Y-117339667D01*
X139888220Y-117434905D01*
X138888220Y-116101572D02*
X138888220Y-116577762D01*
X139364411Y-116625381D01*
X139316792Y-116577762D01*
X139269173Y-116482524D01*
X139269173Y-116244429D01*
X139316792Y-116149191D01*
X139364411Y-116101572D01*
X139459649Y-116053953D01*
X139697744Y-116053953D01*
X139792982Y-116101572D01*
X139840601Y-116149191D01*
X139888220Y-116244429D01*
X139888220Y-116482524D01*
X139840601Y-116577762D01*
X139792982Y-116625381D01*
X138991420Y-98686953D02*
X139705706Y-98686953D01*
X139848563Y-98734572D01*
X139943801Y-98829810D01*
X139991420Y-98972667D01*
X139991420Y-99067905D01*
X139324754Y-97782191D02*
X139991420Y-97782191D01*
X138943801Y-98020286D02*
X139658087Y-98258381D01*
X139658087Y-97639334D01*
X118502023Y-91037280D02*
X117929603Y-91609700D01*
X117895931Y-91710715D01*
X117895931Y-91778059D01*
X117929603Y-91879074D01*
X118064290Y-92013761D01*
X118165305Y-92047433D01*
X118232649Y-92047433D01*
X118333664Y-92013761D01*
X118906084Y-91441341D01*
X119310145Y-92316807D02*
X118838740Y-92788211D01*
X119411160Y-91879074D02*
X118737725Y-92215792D01*
X119175458Y-92653524D01*
X120316666Y-105319580D02*
X120316666Y-106033866D01*
X120269047Y-106176723D01*
X120173809Y-106271961D01*
X120030952Y-106319580D01*
X119935714Y-106319580D01*
X120745238Y-105414819D02*
X120792857Y-105367200D01*
X120888095Y-105319580D01*
X121126190Y-105319580D01*
X121221428Y-105367200D01*
X121269047Y-105414819D01*
X121316666Y-105510057D01*
X121316666Y-105605295D01*
X121269047Y-105748152D01*
X120697619Y-106319580D01*
X121316666Y-106319580D01*
X117268666Y-105580380D02*
X117268666Y-106294666D01*
X117221047Y-106437523D01*
X117125809Y-106532761D01*
X116982952Y-106580380D01*
X116887714Y-106580380D01*
X117649619Y-105580380D02*
X118268666Y-105580380D01*
X117935333Y-105961333D01*
X118078190Y-105961333D01*
X118173428Y-106008952D01*
X118221047Y-106056571D01*
X118268666Y-106151809D01*
X118268666Y-106389904D01*
X118221047Y-106485142D01*
X118173428Y-106532761D01*
X118078190Y-106580380D01*
X117792476Y-106580380D01*
X117697238Y-106532761D01*
X117649619Y-106485142D01*
X100697380Y-127865095D02*
X99697380Y-127865095D01*
X99697380Y-127627000D01*
X99745000Y-127484142D01*
X99840238Y-127388904D01*
X99935476Y-127341285D01*
X100125952Y-127293666D01*
X100268809Y-127293666D01*
X100459285Y-127341285D01*
X100554523Y-127388904D01*
X100649761Y-127484142D01*
X100697380Y-127627000D01*
X100697380Y-127865095D01*
X99697380Y-126960333D02*
X99697380Y-126341285D01*
X100078333Y-126674619D01*
X100078333Y-126531761D01*
X100125952Y-126436523D01*
X100173571Y-126388904D01*
X100268809Y-126341285D01*
X100506904Y-126341285D01*
X100602142Y-126388904D01*
X100649761Y-126436523D01*
X100697380Y-126531761D01*
X100697380Y-126817476D01*
X100649761Y-126912714D01*
X100602142Y-126960333D01*
X108513333Y-75027142D02*
X108465714Y-75074761D01*
X108322857Y-75122380D01*
X108227619Y-75122380D01*
X108084761Y-75074761D01*
X107989523Y-74979523D01*
X107941904Y-74884285D01*
X107894285Y-74693809D01*
X107894285Y-74550952D01*
X107941904Y-74360476D01*
X107989523Y-74265238D01*
X108084761Y-74170000D01*
X108227619Y-74122380D01*
X108322857Y-74122380D01*
X108465714Y-74170000D01*
X108513333Y-74217619D01*
X108846666Y-74122380D02*
X109513333Y-74122380D01*
X109084761Y-75122380D01*
X100345833Y-75052380D02*
X99869642Y-75052380D01*
X99869642Y-74052380D01*
X101202976Y-75052380D02*
X100631547Y-75052380D01*
X100917261Y-75052380D02*
X100917261Y-74052380D01*
X100822023Y-74195238D01*
X100726785Y-74290476D01*
X100631547Y-74338095D01*
X149553680Y-90414433D02*
X150267966Y-90414433D01*
X150410823Y-90462052D01*
X150506061Y-90557290D01*
X150553680Y-90700147D01*
X150553680Y-90795385D01*
X150553680Y-89414433D02*
X150553680Y-89985861D01*
X150553680Y-89700147D02*
X149553680Y-89700147D01*
X149696538Y-89795385D01*
X149791776Y-89890623D01*
X149839395Y-89985861D01*
X133513333Y-130172380D02*
X133180000Y-129696190D01*
X132941904Y-130172380D02*
X132941904Y-129172380D01*
X133322857Y-129172380D01*
X133418095Y-129220000D01*
X133465714Y-129267619D01*
X133513333Y-129362857D01*
X133513333Y-129505714D01*
X133465714Y-129600952D01*
X133418095Y-129648571D01*
X133322857Y-129696190D01*
X132941904Y-129696190D01*
X133894285Y-129267619D02*
X133941904Y-129220000D01*
X134037142Y-129172380D01*
X134275238Y-129172380D01*
X134370476Y-129220000D01*
X134418095Y-129267619D01*
X134465714Y-129362857D01*
X134465714Y-129458095D01*
X134418095Y-129600952D01*
X133846666Y-130172380D01*
X134465714Y-130172380D01*
X96753323Y-71521580D02*
X96419990Y-71045390D01*
X96181895Y-71521580D02*
X96181895Y-70521580D01*
X96562847Y-70521580D01*
X96658085Y-70569200D01*
X96705704Y-70616819D01*
X96753323Y-70712057D01*
X96753323Y-70854914D01*
X96705704Y-70950152D01*
X96658085Y-70997771D01*
X96562847Y-71045390D01*
X96181895Y-71045390D01*
X92742047Y-125293380D02*
X92742047Y-124293380D01*
X92742047Y-124674333D02*
X92837285Y-124626714D01*
X93027761Y-124626714D01*
X93123000Y-124674333D01*
X93170619Y-124721952D01*
X93218238Y-124817190D01*
X93218238Y-125102904D01*
X93170619Y-125198142D01*
X93123000Y-125245761D01*
X93027761Y-125293380D01*
X92837285Y-125293380D01*
X92742047Y-125245761D01*
X94075380Y-124626714D02*
X94075380Y-125293380D01*
X93646809Y-124626714D02*
X93646809Y-125150523D01*
X93694428Y-125245761D01*
X93789666Y-125293380D01*
X93932523Y-125293380D01*
X94027761Y-125245761D01*
X94075380Y-125198142D01*
X94980142Y-125245761D02*
X94884904Y-125293380D01*
X94694428Y-125293380D01*
X94599190Y-125245761D01*
X94551571Y-125198142D01*
X94503952Y-125102904D01*
X94503952Y-124817190D01*
X94551571Y-124721952D01*
X94599190Y-124674333D01*
X94694428Y-124626714D01*
X94884904Y-124626714D01*
X94980142Y-124674333D01*
X95408714Y-125293380D02*
X95408714Y-124293380D01*
X95837285Y-125293380D02*
X95837285Y-124769571D01*
X95789666Y-124674333D01*
X95694428Y-124626714D01*
X95551571Y-124626714D01*
X95456333Y-124674333D01*
X95408714Y-124721952D01*
X96265857Y-125245761D02*
X96361095Y-125293380D01*
X96551571Y-125293380D01*
X96646809Y-125245761D01*
X96694428Y-125150523D01*
X96694428Y-125102904D01*
X96646809Y-125007666D01*
X96551571Y-124960047D01*
X96408714Y-124960047D01*
X96313476Y-124912428D01*
X96265857Y-124817190D01*
X96265857Y-124769571D01*
X96313476Y-124674333D01*
X96408714Y-124626714D01*
X96551571Y-124626714D01*
X96646809Y-124674333D01*
X97503952Y-125245761D02*
X97408714Y-125293380D01*
X97218238Y-125293380D01*
X97123000Y-125245761D01*
X97075380Y-125150523D01*
X97075380Y-124769571D01*
X97123000Y-124674333D01*
X97218238Y-124626714D01*
X97408714Y-124626714D01*
X97503952Y-124674333D01*
X97551571Y-124769571D01*
X97551571Y-124864809D01*
X97075380Y-124960047D01*
X148213723Y-126893580D02*
X147880390Y-126417390D01*
X147642295Y-126893580D02*
X147642295Y-125893580D01*
X148023247Y-125893580D01*
X148118485Y-125941200D01*
X148166104Y-125988819D01*
X148213723Y-126084057D01*
X148213723Y-126226914D01*
X148166104Y-126322152D01*
X148118485Y-126369771D01*
X148023247Y-126417390D01*
X147642295Y-126417390D01*
X148772523Y-71445380D02*
X148439190Y-70969190D01*
X148201095Y-71445380D02*
X148201095Y-70445380D01*
X148582047Y-70445380D01*
X148677285Y-70493000D01*
X148724904Y-70540619D01*
X148772523Y-70635857D01*
X148772523Y-70778714D01*
X148724904Y-70873952D01*
X148677285Y-70921571D01*
X148582047Y-70969190D01*
X148201095Y-70969190D01*
X103569235Y-80171989D02*
X103905953Y-80508707D01*
X102963144Y-80037302D02*
X103569235Y-80171989D01*
X103434548Y-79565898D01*
X104747746Y-79666913D02*
X104343685Y-80070974D01*
X104545716Y-79868943D02*
X103838609Y-79161837D01*
X103872281Y-79330195D01*
X103872281Y-79464882D01*
X103838609Y-79565898D01*
X114736544Y-78417753D02*
X114669201Y-78417753D01*
X114534514Y-78350409D01*
X114467170Y-78283066D01*
X114399827Y-78148378D01*
X114399827Y-78013691D01*
X114433498Y-77912676D01*
X114534514Y-77744317D01*
X114635529Y-77643302D01*
X114803888Y-77542287D01*
X114904903Y-77508615D01*
X115039590Y-77508615D01*
X115174277Y-77575959D01*
X115241621Y-77643302D01*
X115308964Y-77777989D01*
X115308964Y-77845333D01*
X115005918Y-78821814D02*
X115140605Y-78956501D01*
X115241621Y-78990172D01*
X115308964Y-78990172D01*
X115477323Y-78956501D01*
X115645682Y-78855485D01*
X115915056Y-78586111D01*
X115948727Y-78485096D01*
X115948727Y-78417753D01*
X115915056Y-78316737D01*
X115780369Y-78182050D01*
X115679353Y-78148378D01*
X115612010Y-78148378D01*
X115510995Y-78182050D01*
X115342636Y-78350409D01*
X115308964Y-78451424D01*
X115308964Y-78518768D01*
X115342636Y-78619783D01*
X115477323Y-78754470D01*
X115578338Y-78788142D01*
X115645682Y-78788142D01*
X115746697Y-78754470D01*
X103593121Y-81857823D02*
X103593121Y-81925166D01*
X103525777Y-82059853D01*
X103458434Y-82127197D01*
X103323746Y-82194540D01*
X103189059Y-82194540D01*
X103088044Y-82160869D01*
X102919685Y-82059853D01*
X102818670Y-81958838D01*
X102717655Y-81790479D01*
X102683983Y-81689464D01*
X102683983Y-81554777D01*
X102751327Y-81420090D01*
X102818670Y-81352746D01*
X102953357Y-81285403D01*
X103020701Y-81285403D01*
X103660464Y-81117044D02*
X103559449Y-81150716D01*
X103492105Y-81150716D01*
X103391090Y-81117044D01*
X103357418Y-81083372D01*
X103323746Y-80982357D01*
X103323746Y-80915014D01*
X103357418Y-80813998D01*
X103492105Y-80679311D01*
X103593121Y-80645640D01*
X103660464Y-80645640D01*
X103761479Y-80679311D01*
X103795151Y-80712983D01*
X103828823Y-80813998D01*
X103828823Y-80881342D01*
X103795151Y-80982357D01*
X103660464Y-81117044D01*
X103626792Y-81218059D01*
X103626792Y-81285403D01*
X103660464Y-81386418D01*
X103795151Y-81521105D01*
X103896166Y-81554777D01*
X103963510Y-81554777D01*
X104064525Y-81521105D01*
X104199212Y-81386418D01*
X104232884Y-81285403D01*
X104232884Y-81218059D01*
X104199212Y-81117044D01*
X104064525Y-80982357D01*
X103963510Y-80948685D01*
X103896166Y-80948685D01*
X103795151Y-80982357D01*
X126009495Y-122239580D02*
X126009495Y-123049104D01*
X126057114Y-123144342D01*
X126104733Y-123191961D01*
X126199971Y-123239580D01*
X126390447Y-123239580D01*
X126485685Y-123191961D01*
X126533304Y-123144342D01*
X126580923Y-123049104D01*
X126580923Y-122239580D01*
X126961876Y-122239580D02*
X127580923Y-122239580D01*
X127247590Y-122620533D01*
X127390447Y-122620533D01*
X127485685Y-122668152D01*
X127533304Y-122715771D01*
X127580923Y-122811009D01*
X127580923Y-123049104D01*
X127533304Y-123144342D01*
X127485685Y-123191961D01*
X127390447Y-123239580D01*
X127104733Y-123239580D01*
X127009495Y-123191961D01*
X126961876Y-123144342D01*
X111919000Y-117447142D02*
X112133285Y-117518571D01*
X112490428Y-117518571D01*
X112633285Y-117447142D01*
X112704714Y-117375714D01*
X112776142Y-117232857D01*
X112776142Y-117090000D01*
X112704714Y-116947142D01*
X112633285Y-116875714D01*
X112490428Y-116804285D01*
X112204714Y-116732857D01*
X112061857Y-116661428D01*
X111990428Y-116590000D01*
X111919000Y-116447142D01*
X111919000Y-116304285D01*
X111990428Y-116161428D01*
X112061857Y-116090000D01*
X112204714Y-116018571D01*
X112561857Y-116018571D01*
X112776142Y-116090000D01*
X113276142Y-116018571D02*
X113633285Y-117518571D01*
X113919000Y-116447142D01*
X114204714Y-117518571D01*
X114561857Y-116018571D01*
X115919000Y-117518571D02*
X115061857Y-117518571D01*
X115490428Y-117518571D02*
X115490428Y-116018571D01*
X115347571Y-116232857D01*
X115204714Y-116375714D01*
X115061857Y-116447142D01*
X109855571Y-121003142D02*
X110069857Y-121074571D01*
X110427000Y-121074571D01*
X110569857Y-121003142D01*
X110641285Y-120931714D01*
X110712714Y-120788857D01*
X110712714Y-120646000D01*
X110641285Y-120503142D01*
X110569857Y-120431714D01*
X110427000Y-120360285D01*
X110141285Y-120288857D01*
X109998428Y-120217428D01*
X109927000Y-120146000D01*
X109855571Y-120003142D01*
X109855571Y-119860285D01*
X109927000Y-119717428D01*
X109998428Y-119646000D01*
X110141285Y-119574571D01*
X110498428Y-119574571D01*
X110712714Y-119646000D01*
X111212714Y-119574571D02*
X111569857Y-121074571D01*
X111855571Y-120003142D01*
X112141285Y-121074571D01*
X112498428Y-119574571D01*
X112712714Y-121217428D02*
X113855571Y-121217428D01*
X114212714Y-121074571D02*
X114212714Y-119574571D01*
X114784142Y-119574571D01*
X114927000Y-119646000D01*
X114998428Y-119717428D01*
X115069857Y-119860285D01*
X115069857Y-120074571D01*
X114998428Y-120217428D01*
X114927000Y-120288857D01*
X114784142Y-120360285D01*
X114212714Y-120360285D01*
X116355571Y-120074571D02*
X116355571Y-121074571D01*
X115712714Y-120074571D02*
X115712714Y-120860285D01*
X115784142Y-121003142D01*
X115927000Y-121074571D01*
X116141285Y-121074571D01*
X116284142Y-121003142D01*
X116355571Y-120931714D01*
X116998428Y-121003142D02*
X117141285Y-121074571D01*
X117427000Y-121074571D01*
X117569857Y-121003142D01*
X117641285Y-120860285D01*
X117641285Y-120788857D01*
X117569857Y-120646000D01*
X117427000Y-120574571D01*
X117212714Y-120574571D01*
X117069857Y-120503142D01*
X116998428Y-120360285D01*
X116998428Y-120288857D01*
X117069857Y-120146000D01*
X117212714Y-120074571D01*
X117427000Y-120074571D01*
X117569857Y-120146000D01*
X118284142Y-121074571D02*
X118284142Y-119574571D01*
X118927000Y-121074571D02*
X118927000Y-120288857D01*
X118855571Y-120146000D01*
X118712714Y-120074571D01*
X118498428Y-120074571D01*
X118355571Y-120146000D01*
X118284142Y-120217428D01*
X138757033Y-73943380D02*
X138423700Y-73467190D01*
X138185604Y-73943380D02*
X138185604Y-72943380D01*
X138566557Y-72943380D01*
X138661795Y-72991000D01*
X138709414Y-73038619D01*
X138757033Y-73133857D01*
X138757033Y-73276714D01*
X138709414Y-73371952D01*
X138661795Y-73419571D01*
X138566557Y-73467190D01*
X138185604Y-73467190D01*
X139090366Y-72943380D02*
X139757033Y-72943380D01*
X139328461Y-73943380D01*
X124868964Y-94514666D02*
X124296544Y-94413651D01*
X124464903Y-94918727D02*
X123757796Y-94211621D01*
X124027170Y-93942246D01*
X124128185Y-93908575D01*
X124195529Y-93908575D01*
X124296544Y-93942246D01*
X124397559Y-94043262D01*
X124431231Y-94144277D01*
X124431231Y-94211621D01*
X124397559Y-94312636D01*
X124128185Y-94582010D01*
X124767949Y-93201468D02*
X124633262Y-93336155D01*
X124599590Y-93437170D01*
X124599590Y-93504514D01*
X124633262Y-93672872D01*
X124734277Y-93841231D01*
X125003651Y-94110605D01*
X125104666Y-94144277D01*
X125172010Y-94144277D01*
X125273025Y-94110605D01*
X125407712Y-93975918D01*
X125441384Y-93874903D01*
X125441384Y-93807559D01*
X125407712Y-93706544D01*
X125239353Y-93538185D01*
X125138338Y-93504514D01*
X125070995Y-93504514D01*
X124969979Y-93538185D01*
X124835292Y-93672872D01*
X124801621Y-93773888D01*
X124801621Y-93841231D01*
X124835292Y-93942246D01*
X109939080Y-123875766D02*
X109462890Y-124209100D01*
X109939080Y-124447195D02*
X108939080Y-124447195D01*
X108939080Y-124066242D01*
X108986700Y-123971004D01*
X109034319Y-123923385D01*
X109129557Y-123875766D01*
X109272414Y-123875766D01*
X109367652Y-123923385D01*
X109415271Y-123971004D01*
X109462890Y-124066242D01*
X109462890Y-124447195D01*
X108939080Y-122971004D02*
X108939080Y-123447195D01*
X109415271Y-123494814D01*
X109367652Y-123447195D01*
X109320033Y-123351957D01*
X109320033Y-123113861D01*
X109367652Y-123018623D01*
X109415271Y-122971004D01*
X109510509Y-122923385D01*
X109748604Y-122923385D01*
X109843842Y-122971004D01*
X109891461Y-123018623D01*
X109939080Y-123113861D01*
X109939080Y-123351957D01*
X109891461Y-123447195D01*
X109843842Y-123494814D01*
X100824380Y-120589666D02*
X100348190Y-120923000D01*
X100824380Y-121161095D02*
X99824380Y-121161095D01*
X99824380Y-120780142D01*
X99872000Y-120684904D01*
X99919619Y-120637285D01*
X100014857Y-120589666D01*
X100157714Y-120589666D01*
X100252952Y-120637285D01*
X100300571Y-120684904D01*
X100348190Y-120780142D01*
X100348190Y-121161095D01*
X100157714Y-119732523D02*
X100824380Y-119732523D01*
X99776761Y-119970619D02*
X100491047Y-120208714D01*
X100491047Y-119589666D01*
X106399680Y-120526166D02*
X105923490Y-120859500D01*
X106399680Y-121097595D02*
X105399680Y-121097595D01*
X105399680Y-120716642D01*
X105447300Y-120621404D01*
X105494919Y-120573785D01*
X105590157Y-120526166D01*
X105733014Y-120526166D01*
X105828252Y-120573785D01*
X105875871Y-120621404D01*
X105923490Y-120716642D01*
X105923490Y-121097595D01*
X105399680Y-120192833D02*
X105399680Y-119573785D01*
X105780633Y-119907119D01*
X105780633Y-119764261D01*
X105828252Y-119669023D01*
X105875871Y-119621404D01*
X105971109Y-119573785D01*
X106209204Y-119573785D01*
X106304442Y-119621404D01*
X106352061Y-119669023D01*
X106399680Y-119764261D01*
X106399680Y-120049976D01*
X106352061Y-120145214D01*
X106304442Y-120192833D01*
X121920033Y-75297380D02*
X121586700Y-74821190D01*
X121348604Y-75297380D02*
X121348604Y-74297380D01*
X121729557Y-74297380D01*
X121824795Y-74345000D01*
X121872414Y-74392619D01*
X121920033Y-74487857D01*
X121920033Y-74630714D01*
X121872414Y-74725952D01*
X121824795Y-74773571D01*
X121729557Y-74821190D01*
X121348604Y-74821190D01*
X122872414Y-75297380D02*
X122300985Y-75297380D01*
X122586700Y-75297380D02*
X122586700Y-74297380D01*
X122491461Y-74440238D01*
X122396223Y-74535476D01*
X122300985Y-74583095D01*
X93456166Y-118578380D02*
X93456166Y-119292666D01*
X93408547Y-119435523D01*
X93313309Y-119530761D01*
X93170452Y-119578380D01*
X93075214Y-119578380D01*
X94360928Y-118578380D02*
X94170452Y-118578380D01*
X94075214Y-118626000D01*
X94027595Y-118673619D01*
X93932357Y-118816476D01*
X93884738Y-119006952D01*
X93884738Y-119387904D01*
X93932357Y-119483142D01*
X93979976Y-119530761D01*
X94075214Y-119578380D01*
X94265690Y-119578380D01*
X94360928Y-119530761D01*
X94408547Y-119483142D01*
X94456166Y-119387904D01*
X94456166Y-119149809D01*
X94408547Y-119054571D01*
X94360928Y-119006952D01*
X94265690Y-118959333D01*
X94075214Y-118959333D01*
X93979976Y-119006952D01*
X93932357Y-119054571D01*
X93884738Y-119149809D01*
X115479604Y-71631980D02*
X115479604Y-70631980D01*
X115717700Y-70631980D01*
X115860557Y-70679600D01*
X115955795Y-70774838D01*
X116003414Y-70870076D01*
X116051033Y-71060552D01*
X116051033Y-71203409D01*
X116003414Y-71393885D01*
X115955795Y-71489123D01*
X115860557Y-71584361D01*
X115717700Y-71631980D01*
X115479604Y-71631980D01*
X116955795Y-70631980D02*
X116479604Y-70631980D01*
X116431985Y-71108171D01*
X116479604Y-71060552D01*
X116574842Y-71012933D01*
X116812938Y-71012933D01*
X116908176Y-71060552D01*
X116955795Y-71108171D01*
X117003414Y-71203409D01*
X117003414Y-71441504D01*
X116955795Y-71536742D01*
X116908176Y-71584361D01*
X116812938Y-71631980D01*
X116574842Y-71631980D01*
X116479604Y-71584361D01*
X116431985Y-71536742D01*
X144956304Y-77735780D02*
X144956304Y-76735780D01*
X145194400Y-76735780D01*
X145337257Y-76783400D01*
X145432495Y-76878638D01*
X145480114Y-76973876D01*
X145527733Y-77164352D01*
X145527733Y-77307209D01*
X145480114Y-77497685D01*
X145432495Y-77592923D01*
X145337257Y-77688161D01*
X145194400Y-77735780D01*
X144956304Y-77735780D01*
X146384876Y-77069114D02*
X146384876Y-77735780D01*
X146146780Y-76688161D02*
X145908685Y-77402447D01*
X146527733Y-77402447D01*
X145051542Y-74095780D02*
X144575352Y-74095780D01*
X144575352Y-73095780D01*
X145384876Y-73571971D02*
X145718209Y-73571971D01*
X145861066Y-74095780D02*
X145384876Y-74095780D01*
X145384876Y-73095780D01*
X145861066Y-73095780D01*
X146289638Y-74095780D02*
X146289638Y-73095780D01*
X146527733Y-73095780D01*
X146670590Y-73143400D01*
X146765828Y-73238638D01*
X146813447Y-73333876D01*
X146861066Y-73524352D01*
X146861066Y-73667209D01*
X146813447Y-73857685D01*
X146765828Y-73952923D01*
X146670590Y-74048161D01*
X146527733Y-74095780D01*
X146289638Y-74095780D01*
X106412380Y-127928595D02*
X105412380Y-127928595D01*
X105412380Y-127690500D01*
X105460000Y-127547642D01*
X105555238Y-127452404D01*
X105650476Y-127404785D01*
X105840952Y-127357166D01*
X105983809Y-127357166D01*
X106174285Y-127404785D01*
X106269523Y-127452404D01*
X106364761Y-127547642D01*
X106412380Y-127690500D01*
X106412380Y-127928595D01*
X105507619Y-126976214D02*
X105460000Y-126928595D01*
X105412380Y-126833357D01*
X105412380Y-126595261D01*
X105460000Y-126500023D01*
X105507619Y-126452404D01*
X105602857Y-126404785D01*
X105698095Y-126404785D01*
X105840952Y-126452404D01*
X106412380Y-127023833D01*
X106412380Y-126404785D01*
X123373242Y-122689857D02*
X123420861Y-122737476D01*
X123468480Y-122880333D01*
X123468480Y-122975571D01*
X123420861Y-123118428D01*
X123325623Y-123213666D01*
X123230385Y-123261285D01*
X123039909Y-123308904D01*
X122897052Y-123308904D01*
X122706576Y-123261285D01*
X122611338Y-123213666D01*
X122516100Y-123118428D01*
X122468480Y-122975571D01*
X122468480Y-122880333D01*
X122516100Y-122737476D01*
X122563719Y-122689857D01*
X123468480Y-121737476D02*
X123468480Y-122308904D01*
X123468480Y-122023190D02*
X122468480Y-122023190D01*
X122611338Y-122118428D01*
X122706576Y-122213666D01*
X122754195Y-122308904D01*
X122468480Y-121118428D02*
X122468480Y-121023190D01*
X122516100Y-120927952D01*
X122563719Y-120880333D01*
X122658957Y-120832714D01*
X122849433Y-120785095D01*
X123087528Y-120785095D01*
X123278004Y-120832714D01*
X123373242Y-120880333D01*
X123420861Y-120927952D01*
X123468480Y-121023190D01*
X123468480Y-121118428D01*
X123420861Y-121213666D01*
X123373242Y-121261285D01*
X123278004Y-121308904D01*
X123087528Y-121356523D01*
X122849433Y-121356523D01*
X122658957Y-121308904D01*
X122563719Y-121261285D01*
X122516100Y-121213666D01*
X122468480Y-121118428D01*
M02*
