%TF.GenerationSoftware,KiCad,Pcbnew,5.1.6-c6e7f7d~87~ubuntu18.04.1*%
%TF.CreationDate,2021-03-27T09:05:47+01:00*%
%TF.ProjectId,sboxnet-modul,73626f78-6e65-4742-9d6d-6f64756c2e6b,rev?*%
%TF.SameCoordinates,Original*%
%TF.FileFunction,Legend,Bot*%
%TF.FilePolarity,Positive*%
%FSLAX46Y46*%
G04 Gerber Fmt 4.6, Leading zero omitted, Abs format (unit mm)*
G04 Created by KiCad (PCBNEW 5.1.6-c6e7f7d~87~ubuntu18.04.1) date 2021-03-27 09:05:47*
%MOMM*%
%LPD*%
G01*
G04 APERTURE LIST*
%ADD10C,0.120000*%
%ADD11C,0.150000*%
G04 APERTURE END LIST*
D10*
X131655736Y-86440600D02*
X132859864Y-86440600D01*
X131655736Y-88260600D02*
X132859864Y-88260600D01*
X120225736Y-75798000D02*
X121429864Y-75798000D01*
X120225736Y-77618000D02*
X121429864Y-77618000D01*
X143150000Y-84640000D02*
X150450000Y-84640000D01*
X143150000Y-80340000D02*
X150450000Y-80340000D01*
X143150000Y-84640000D02*
X143150000Y-80340000D01*
X132907600Y-85223400D02*
X138917600Y-85223400D01*
X135157600Y-78403400D02*
X138917600Y-78403400D01*
X138917600Y-85223400D02*
X138917600Y-83963400D01*
X138917600Y-78403400D02*
X138917600Y-79663400D01*
X121757000Y-85198000D02*
X127767000Y-85198000D01*
X124007000Y-78378000D02*
X127767000Y-78378000D01*
X127767000Y-85198000D02*
X127767000Y-83938000D01*
X127767000Y-78378000D02*
X127767000Y-79638000D01*
X113355036Y-96918100D02*
X114559164Y-96918100D01*
X113355036Y-98738100D02*
X114559164Y-98738100D01*
X112529536Y-93425600D02*
X113733664Y-93425600D01*
X112529536Y-95245600D02*
X113733664Y-95245600D01*
X132021664Y-76906800D02*
X130817536Y-76906800D01*
X132021664Y-75086800D02*
X130817536Y-75086800D01*
X126980536Y-70895800D02*
X128184664Y-70895800D01*
X126980536Y-72715800D02*
X128184664Y-72715800D01*
D11*
X132424466Y-89527742D02*
X132472085Y-89575361D01*
X132614942Y-89622980D01*
X132710180Y-89622980D01*
X132853038Y-89575361D01*
X132948276Y-89480123D01*
X132995895Y-89384885D01*
X133043514Y-89194409D01*
X133043514Y-89051552D01*
X132995895Y-88861076D01*
X132948276Y-88765838D01*
X132853038Y-88670600D01*
X132710180Y-88622980D01*
X132614942Y-88622980D01*
X132472085Y-88670600D01*
X132424466Y-88718219D01*
X131472085Y-89622980D02*
X132043514Y-89622980D01*
X131757800Y-89622980D02*
X131757800Y-88622980D01*
X131853038Y-88765838D01*
X131948276Y-88861076D01*
X132043514Y-88908695D01*
X120994466Y-78885142D02*
X121042085Y-78932761D01*
X121184942Y-78980380D01*
X121280180Y-78980380D01*
X121423038Y-78932761D01*
X121518276Y-78837523D01*
X121565895Y-78742285D01*
X121613514Y-78551809D01*
X121613514Y-78408952D01*
X121565895Y-78218476D01*
X121518276Y-78123238D01*
X121423038Y-78028000D01*
X121280180Y-77980380D01*
X121184942Y-77980380D01*
X121042085Y-78028000D01*
X120994466Y-78075619D01*
X120137323Y-77980380D02*
X120327800Y-77980380D01*
X120423038Y-78028000D01*
X120470657Y-78075619D01*
X120565895Y-78218476D01*
X120613514Y-78408952D01*
X120613514Y-78789904D01*
X120565895Y-78885142D01*
X120518276Y-78932761D01*
X120423038Y-78980380D01*
X120232561Y-78980380D01*
X120137323Y-78932761D01*
X120089704Y-78885142D01*
X120042085Y-78789904D01*
X120042085Y-78551809D01*
X120089704Y-78456571D01*
X120137323Y-78408952D01*
X120232561Y-78361333D01*
X120423038Y-78361333D01*
X120518276Y-78408952D01*
X120565895Y-78456571D01*
X120613514Y-78551809D01*
X148488095Y-85942380D02*
X148488095Y-84942380D01*
X148250000Y-84942380D01*
X148107142Y-84990000D01*
X148011904Y-85085238D01*
X147964285Y-85180476D01*
X147916666Y-85370952D01*
X147916666Y-85513809D01*
X147964285Y-85704285D01*
X148011904Y-85799523D01*
X148107142Y-85894761D01*
X148250000Y-85942380D01*
X148488095Y-85942380D01*
X146964285Y-85942380D02*
X147535714Y-85942380D01*
X147250000Y-85942380D02*
X147250000Y-84942380D01*
X147345238Y-85085238D01*
X147440476Y-85180476D01*
X147535714Y-85228095D01*
X150392857Y-79894761D02*
X150250000Y-79942380D01*
X150011904Y-79942380D01*
X149916666Y-79894761D01*
X149869047Y-79847142D01*
X149821428Y-79751904D01*
X149821428Y-79656666D01*
X149869047Y-79561428D01*
X149916666Y-79513809D01*
X150011904Y-79466190D01*
X150202380Y-79418571D01*
X150297619Y-79370952D01*
X150345238Y-79323333D01*
X150392857Y-79228095D01*
X150392857Y-79132857D01*
X150345238Y-79037619D01*
X150297619Y-78990000D01*
X150202380Y-78942380D01*
X149964285Y-78942380D01*
X149821428Y-78990000D01*
X149392857Y-79942380D02*
X149392857Y-78942380D01*
X148821428Y-79942380D02*
X149250000Y-79370952D01*
X148821428Y-78942380D02*
X149392857Y-79513809D01*
X147916666Y-79942380D02*
X148392857Y-79942380D01*
X148392857Y-78942380D01*
X147059523Y-79942380D02*
X147630952Y-79942380D01*
X147345238Y-79942380D02*
X147345238Y-78942380D01*
X147440476Y-79085238D01*
X147535714Y-79180476D01*
X147630952Y-79228095D01*
X146726190Y-78942380D02*
X146107142Y-78942380D01*
X146440476Y-79323333D01*
X146297619Y-79323333D01*
X146202380Y-79370952D01*
X146154761Y-79418571D01*
X146107142Y-79513809D01*
X146107142Y-79751904D01*
X146154761Y-79847142D01*
X146202380Y-79894761D01*
X146297619Y-79942380D01*
X146583333Y-79942380D01*
X146678571Y-79894761D01*
X146726190Y-79847142D01*
X145345238Y-79418571D02*
X145202380Y-79466190D01*
X145154761Y-79513809D01*
X145107142Y-79609047D01*
X145107142Y-79751904D01*
X145154761Y-79847142D01*
X145202380Y-79894761D01*
X145297619Y-79942380D01*
X145678571Y-79942380D01*
X145678571Y-78942380D01*
X145345238Y-78942380D01*
X145250000Y-78990000D01*
X145202380Y-79037619D01*
X145154761Y-79132857D01*
X145154761Y-79228095D01*
X145202380Y-79323333D01*
X145250000Y-79370952D01*
X145345238Y-79418571D01*
X145678571Y-79418571D01*
X137769504Y-85765780D02*
X137769504Y-86575304D01*
X137721885Y-86670542D01*
X137674266Y-86718161D01*
X137579028Y-86765780D01*
X137388552Y-86765780D01*
X137293314Y-86718161D01*
X137245695Y-86670542D01*
X137198076Y-86575304D01*
X137198076Y-85765780D01*
X136769504Y-85861019D02*
X136721885Y-85813400D01*
X136626647Y-85765780D01*
X136388552Y-85765780D01*
X136293314Y-85813400D01*
X136245695Y-85861019D01*
X136198076Y-85956257D01*
X136198076Y-86051495D01*
X136245695Y-86194352D01*
X136817123Y-86765780D01*
X136198076Y-86765780D01*
X126618904Y-85740380D02*
X126618904Y-86549904D01*
X126571285Y-86645142D01*
X126523666Y-86692761D01*
X126428428Y-86740380D01*
X126237952Y-86740380D01*
X126142714Y-86692761D01*
X126095095Y-86645142D01*
X126047476Y-86549904D01*
X126047476Y-85740380D01*
X125047476Y-86740380D02*
X125618904Y-86740380D01*
X125333190Y-86740380D02*
X125333190Y-85740380D01*
X125428428Y-85883238D01*
X125523666Y-85978476D01*
X125618904Y-86026095D01*
X114123766Y-100005242D02*
X114171385Y-100052861D01*
X114314242Y-100100480D01*
X114409480Y-100100480D01*
X114552338Y-100052861D01*
X114647576Y-99957623D01*
X114695195Y-99862385D01*
X114742814Y-99671909D01*
X114742814Y-99529052D01*
X114695195Y-99338576D01*
X114647576Y-99243338D01*
X114552338Y-99148100D01*
X114409480Y-99100480D01*
X114314242Y-99100480D01*
X114171385Y-99148100D01*
X114123766Y-99195719D01*
X113219004Y-99100480D02*
X113695195Y-99100480D01*
X113742814Y-99576671D01*
X113695195Y-99529052D01*
X113599957Y-99481433D01*
X113361861Y-99481433D01*
X113266623Y-99529052D01*
X113219004Y-99576671D01*
X113171385Y-99671909D01*
X113171385Y-99910004D01*
X113219004Y-100005242D01*
X113266623Y-100052861D01*
X113361861Y-100100480D01*
X113599957Y-100100480D01*
X113695195Y-100052861D01*
X113742814Y-100005242D01*
X113298266Y-96512742D02*
X113345885Y-96560361D01*
X113488742Y-96607980D01*
X113583980Y-96607980D01*
X113726838Y-96560361D01*
X113822076Y-96465123D01*
X113869695Y-96369885D01*
X113917314Y-96179409D01*
X113917314Y-96036552D01*
X113869695Y-95846076D01*
X113822076Y-95750838D01*
X113726838Y-95655600D01*
X113583980Y-95607980D01*
X113488742Y-95607980D01*
X113345885Y-95655600D01*
X113298266Y-95703219D01*
X112441123Y-95941314D02*
X112441123Y-96607980D01*
X112679219Y-95560361D02*
X112917314Y-96274647D01*
X112298266Y-96274647D01*
X131586266Y-74533942D02*
X131633885Y-74581561D01*
X131776742Y-74629180D01*
X131871980Y-74629180D01*
X132014838Y-74581561D01*
X132110076Y-74486323D01*
X132157695Y-74391085D01*
X132205314Y-74200609D01*
X132205314Y-74057752D01*
X132157695Y-73867276D01*
X132110076Y-73772038D01*
X132014838Y-73676800D01*
X131871980Y-73629180D01*
X131776742Y-73629180D01*
X131633885Y-73676800D01*
X131586266Y-73724419D01*
X131252933Y-73629180D02*
X130633885Y-73629180D01*
X130967219Y-74010133D01*
X130824361Y-74010133D01*
X130729123Y-74057752D01*
X130681504Y-74105371D01*
X130633885Y-74200609D01*
X130633885Y-74438704D01*
X130681504Y-74533942D01*
X130729123Y-74581561D01*
X130824361Y-74629180D01*
X131110076Y-74629180D01*
X131205314Y-74581561D01*
X131252933Y-74533942D01*
X127749266Y-73982942D02*
X127796885Y-74030561D01*
X127939742Y-74078180D01*
X128034980Y-74078180D01*
X128177838Y-74030561D01*
X128273076Y-73935323D01*
X128320695Y-73840085D01*
X128368314Y-73649609D01*
X128368314Y-73506752D01*
X128320695Y-73316276D01*
X128273076Y-73221038D01*
X128177838Y-73125800D01*
X128034980Y-73078180D01*
X127939742Y-73078180D01*
X127796885Y-73125800D01*
X127749266Y-73173419D01*
X127368314Y-73173419D02*
X127320695Y-73125800D01*
X127225457Y-73078180D01*
X126987361Y-73078180D01*
X126892123Y-73125800D01*
X126844504Y-73173419D01*
X126796885Y-73268657D01*
X126796885Y-73363895D01*
X126844504Y-73506752D01*
X127415933Y-74078180D01*
X126796885Y-74078180D01*
M02*
