%TF.GenerationSoftware,KiCad,Pcbnew,6.0.11-2627ca5db0~126~ubuntu20.04.1*%
%TF.CreationDate,2023-09-03T18:12:03+02:00*%
%TF.ProjectId,sboxnet-modul,73626f78-6e65-4742-9d6d-6f64756c2e6b,rev?*%
%TF.SameCoordinates,Original*%
%TF.FileFunction,Legend,Bot*%
%TF.FilePolarity,Positive*%
%FSLAX46Y46*%
G04 Gerber Fmt 4.6, Leading zero omitted, Abs format (unit mm)*
G04 Created by KiCad (PCBNEW 6.0.11-2627ca5db0~126~ubuntu20.04.1) date 2023-09-03 18:12:03*
%MOMM*%
%LPD*%
G01*
G04 APERTURE LIST*
%ADD10C,0.150000*%
%ADD11C,0.120000*%
G04 APERTURE END LIST*
D10*
X84200904Y-112891914D02*
X84200904Y-113558580D01*
X84439000Y-112510961D02*
X84677095Y-113225247D01*
X84058047Y-113225247D01*
X83772333Y-112558580D02*
X83105666Y-112558580D01*
X83534238Y-113558580D01*
X82534238Y-112558580D02*
X82439000Y-112558580D01*
X82343761Y-112606200D01*
X82296142Y-112653819D01*
X82248523Y-112749057D01*
X82200904Y-112939533D01*
X82200904Y-113177628D01*
X82248523Y-113368104D01*
X82296142Y-113463342D01*
X82343761Y-113510961D01*
X82439000Y-113558580D01*
X82534238Y-113558580D01*
X82629476Y-113510961D01*
X82677095Y-113463342D01*
X82724714Y-113368104D01*
X82772333Y-113177628D01*
X82772333Y-112939533D01*
X82724714Y-112749057D01*
X82677095Y-112653819D01*
X82629476Y-112606200D01*
X82534238Y-112558580D01*
X87198104Y-112866514D02*
X87198104Y-113533180D01*
X87436200Y-112485561D02*
X87674295Y-113199847D01*
X87055247Y-113199847D01*
X86769533Y-112533180D02*
X86102866Y-112533180D01*
X86531438Y-113533180D01*
X85531438Y-112533180D02*
X85436200Y-112533180D01*
X85340961Y-112580800D01*
X85293342Y-112628419D01*
X85245723Y-112723657D01*
X85198104Y-112914133D01*
X85198104Y-113152228D01*
X85245723Y-113342704D01*
X85293342Y-113437942D01*
X85340961Y-113485561D01*
X85436200Y-113533180D01*
X85531438Y-113533180D01*
X85626676Y-113485561D01*
X85674295Y-113437942D01*
X85721914Y-113342704D01*
X85769533Y-113152228D01*
X85769533Y-112914133D01*
X85721914Y-112723657D01*
X85674295Y-112628419D01*
X85626676Y-112580800D01*
X85531438Y-112533180D01*
X105551266Y-83992980D02*
X105884600Y-83516790D01*
X106122695Y-83992980D02*
X106122695Y-82992980D01*
X105741742Y-82992980D01*
X105646504Y-83040600D01*
X105598885Y-83088219D01*
X105551266Y-83183457D01*
X105551266Y-83326314D01*
X105598885Y-83421552D01*
X105646504Y-83469171D01*
X105741742Y-83516790D01*
X106122695Y-83516790D01*
X105217933Y-82992980D02*
X104551266Y-82992980D01*
X104979838Y-83992980D01*
X103454104Y-83427914D02*
X103454104Y-84094580D01*
X103692200Y-83046961D02*
X103930295Y-83761247D01*
X103311247Y-83761247D01*
X103025533Y-83094580D02*
X102358866Y-83094580D01*
X102787438Y-84094580D01*
X101787438Y-83094580D02*
X101692200Y-83094580D01*
X101596961Y-83142200D01*
X101549342Y-83189819D01*
X101501723Y-83285057D01*
X101454104Y-83475533D01*
X101454104Y-83713628D01*
X101501723Y-83904104D01*
X101549342Y-83999342D01*
X101596961Y-84046961D01*
X101692200Y-84094580D01*
X101787438Y-84094580D01*
X101882676Y-84046961D01*
X101930295Y-83999342D01*
X101977914Y-83904104D01*
X102025533Y-83713628D01*
X102025533Y-83475533D01*
X101977914Y-83285057D01*
X101930295Y-83189819D01*
X101882676Y-83142200D01*
X101787438Y-83094580D01*
X114415866Y-83156942D02*
X114463485Y-83204561D01*
X114606342Y-83252180D01*
X114701580Y-83252180D01*
X114844438Y-83204561D01*
X114939676Y-83109323D01*
X114987295Y-83014085D01*
X115034914Y-82823609D01*
X115034914Y-82680752D01*
X114987295Y-82490276D01*
X114939676Y-82395038D01*
X114844438Y-82299800D01*
X114701580Y-82252180D01*
X114606342Y-82252180D01*
X114463485Y-82299800D01*
X114415866Y-82347419D01*
X113463485Y-83252180D02*
X114034914Y-83252180D01*
X113749200Y-83252180D02*
X113749200Y-82252180D01*
X113844438Y-82395038D01*
X113939676Y-82490276D01*
X114034914Y-82537895D01*
X114479247Y-79497180D02*
X115050676Y-79497180D01*
X114764961Y-79497180D02*
X114764961Y-78497180D01*
X114860199Y-78640038D01*
X114955438Y-78735276D01*
X115050676Y-78782895D01*
X113860199Y-78497180D02*
X113764961Y-78497180D01*
X113669723Y-78544800D01*
X113622104Y-78592419D01*
X113574485Y-78687657D01*
X113526866Y-78878133D01*
X113526866Y-79116228D01*
X113574485Y-79306704D01*
X113622104Y-79401942D01*
X113669723Y-79449561D01*
X113764961Y-79497180D01*
X113860199Y-79497180D01*
X113955438Y-79449561D01*
X114003057Y-79401942D01*
X114050676Y-79306704D01*
X114098295Y-79116228D01*
X114098295Y-78878133D01*
X114050676Y-78687657D01*
X114003057Y-78592419D01*
X113955438Y-78544800D01*
X113860199Y-78497180D01*
X112907819Y-78497180D02*
X112812580Y-78497180D01*
X112717342Y-78544800D01*
X112669723Y-78592419D01*
X112622104Y-78687657D01*
X112574485Y-78878133D01*
X112574485Y-79116228D01*
X112622104Y-79306704D01*
X112669723Y-79401942D01*
X112717342Y-79449561D01*
X112812580Y-79497180D01*
X112907819Y-79497180D01*
X113003057Y-79449561D01*
X113050676Y-79401942D01*
X113098295Y-79306704D01*
X113145914Y-79116228D01*
X113145914Y-78878133D01*
X113098295Y-78687657D01*
X113050676Y-78592419D01*
X113003057Y-78544800D01*
X112907819Y-78497180D01*
X112145914Y-78830514D02*
X112145914Y-79497180D01*
X112145914Y-78925752D02*
X112098295Y-78878133D01*
X112003057Y-78830514D01*
X111860199Y-78830514D01*
X111764961Y-78878133D01*
X111717342Y-78973371D01*
X111717342Y-79497180D01*
X96128389Y-98432687D02*
X96195732Y-98432687D01*
X96330419Y-98365343D01*
X96397763Y-98298000D01*
X96465106Y-98163312D01*
X96465106Y-98028625D01*
X96431435Y-97927610D01*
X96330419Y-97759251D01*
X96229404Y-97658236D01*
X96061045Y-97557221D01*
X95960030Y-97523549D01*
X95825343Y-97523549D01*
X95690656Y-97590893D01*
X95623312Y-97658236D01*
X95555969Y-97792923D01*
X95555969Y-97860267D01*
X95118236Y-98634717D02*
X95589641Y-99106122D01*
X95017221Y-98196984D02*
X95690656Y-98533702D01*
X95252923Y-98971435D01*
X99409167Y-100874594D02*
X99813228Y-100470533D01*
X99611198Y-100672563D02*
X98904091Y-99965457D01*
X99072450Y-99999128D01*
X99207137Y-99999128D01*
X99308152Y-99965457D01*
X98264328Y-100605220D02*
X98196984Y-100672563D01*
X98163312Y-100773579D01*
X98163312Y-100840922D01*
X98196984Y-100941937D01*
X98297999Y-101110296D01*
X98466358Y-101278655D01*
X98634717Y-101379670D01*
X98735732Y-101413342D01*
X98803076Y-101413342D01*
X98904091Y-101379670D01*
X98971435Y-101312327D01*
X99005106Y-101211311D01*
X99005106Y-101143968D01*
X98971435Y-101042953D01*
X98870419Y-100874594D01*
X98702061Y-100706235D01*
X98533702Y-100605220D01*
X98432687Y-100571548D01*
X98365343Y-100571548D01*
X98264328Y-100605220D01*
X97590893Y-101278655D02*
X97523549Y-101345999D01*
X97489877Y-101447014D01*
X97489877Y-101514357D01*
X97523549Y-101615373D01*
X97624564Y-101783731D01*
X97792923Y-101952090D01*
X97961282Y-102053105D01*
X98062297Y-102086777D01*
X98129641Y-102086777D01*
X98230656Y-102053105D01*
X98298000Y-101985762D01*
X98331671Y-101884747D01*
X98331671Y-101817403D01*
X98297999Y-101716388D01*
X98196984Y-101548029D01*
X98028625Y-101379670D01*
X97860267Y-101278655D01*
X97759251Y-101244983D01*
X97691908Y-101244983D01*
X97590893Y-101278655D01*
X97287847Y-102053105D02*
X97759251Y-102524510D01*
X97355190Y-102120449D02*
X97287847Y-102120449D01*
X97186832Y-102154121D01*
X97085816Y-102255136D01*
X97052145Y-102356151D01*
X97085816Y-102457166D01*
X97456206Y-102827556D01*
X87796666Y-85022380D02*
X88272857Y-85022380D01*
X88272857Y-84022380D01*
X86939523Y-85022380D02*
X87510952Y-85022380D01*
X87225238Y-85022380D02*
X87225238Y-84022380D01*
X87320476Y-84165238D01*
X87415714Y-84260476D01*
X87510952Y-84308095D01*
X89058571Y-88138571D02*
X89391904Y-88138571D01*
X89391904Y-88662380D02*
X89391904Y-87662380D01*
X88915714Y-87662380D01*
X88153809Y-88614761D02*
X88249047Y-88662380D01*
X88439523Y-88662380D01*
X88534761Y-88614761D01*
X88582380Y-88519523D01*
X88582380Y-88138571D01*
X88534761Y-88043333D01*
X88439523Y-87995714D01*
X88249047Y-87995714D01*
X88153809Y-88043333D01*
X88106190Y-88138571D01*
X88106190Y-88233809D01*
X88582380Y-88329047D01*
X87677619Y-88662380D02*
X87677619Y-87995714D01*
X87677619Y-88186190D02*
X87630000Y-88090952D01*
X87582380Y-88043333D01*
X87487142Y-87995714D01*
X87391904Y-87995714D01*
X87058571Y-88662380D02*
X87058571Y-87995714D01*
X87058571Y-88186190D02*
X87010952Y-88090952D01*
X86963333Y-88043333D01*
X86868095Y-87995714D01*
X86772857Y-87995714D01*
X86439523Y-88662380D02*
X86439523Y-87995714D01*
X86439523Y-87662380D02*
X86487142Y-87710000D01*
X86439523Y-87757619D01*
X86391904Y-87710000D01*
X86439523Y-87662380D01*
X86439523Y-87757619D01*
X86106190Y-87995714D02*
X85725238Y-87995714D01*
X85963333Y-87662380D02*
X85963333Y-88519523D01*
X85915714Y-88614761D01*
X85820476Y-88662380D01*
X85725238Y-88662380D01*
X97448666Y-92051142D02*
X97496285Y-92098761D01*
X97639142Y-92146380D01*
X97734380Y-92146380D01*
X97877238Y-92098761D01*
X97972476Y-92003523D01*
X98020095Y-91908285D01*
X98067714Y-91717809D01*
X98067714Y-91574952D01*
X98020095Y-91384476D01*
X97972476Y-91289238D01*
X97877238Y-91194000D01*
X97734380Y-91146380D01*
X97639142Y-91146380D01*
X97496285Y-91194000D01*
X97448666Y-91241619D01*
X97115333Y-91146380D02*
X96448666Y-91146380D01*
X96877238Y-92146380D01*
X102782666Y-97480380D02*
X103354095Y-97480380D01*
X103068380Y-97480380D02*
X103068380Y-96480380D01*
X103163619Y-96623238D01*
X103258857Y-96718476D01*
X103354095Y-96766095D01*
X101925523Y-96813714D02*
X101925523Y-97480380D01*
X102354095Y-96813714D02*
X102354095Y-97337523D01*
X102306476Y-97432761D01*
X102211238Y-97480380D01*
X102068380Y-97480380D01*
X101973142Y-97432761D01*
X101925523Y-97385142D01*
X82452380Y-115961533D02*
X81976190Y-115628200D01*
X82452380Y-115390104D02*
X81452380Y-115390104D01*
X81452380Y-115771057D01*
X81500000Y-115866295D01*
X81547619Y-115913914D01*
X81642857Y-115961533D01*
X81785714Y-115961533D01*
X81880952Y-115913914D01*
X81928571Y-115866295D01*
X81976190Y-115771057D01*
X81976190Y-115390104D01*
X81785714Y-116818676D02*
X82452380Y-116818676D01*
X81404761Y-116580580D02*
X82119047Y-116342485D01*
X82119047Y-116961533D01*
X97018571Y-76232380D02*
X97018571Y-77041904D01*
X96970952Y-77137142D01*
X96923333Y-77184761D01*
X96828095Y-77232380D01*
X96637619Y-77232380D01*
X96542380Y-77184761D01*
X96494761Y-77137142D01*
X96447142Y-77041904D01*
X96447142Y-76232380D01*
X96018571Y-76327619D02*
X95970952Y-76280000D01*
X95875714Y-76232380D01*
X95637619Y-76232380D01*
X95542380Y-76280000D01*
X95494761Y-76327619D01*
X95447142Y-76422857D01*
X95447142Y-76518095D01*
X95494761Y-76660952D01*
X96066190Y-77232380D01*
X95447142Y-77232380D01*
X93018571Y-76232380D02*
X93494761Y-76232380D01*
X93542380Y-76708571D01*
X93494761Y-76660952D01*
X93399523Y-76613333D01*
X93161428Y-76613333D01*
X93066190Y-76660952D01*
X93018571Y-76708571D01*
X92970952Y-76803809D01*
X92970952Y-77041904D01*
X93018571Y-77137142D01*
X93066190Y-77184761D01*
X93161428Y-77232380D01*
X93399523Y-77232380D01*
X93494761Y-77184761D01*
X93542380Y-77137142D01*
X92685238Y-76232380D02*
X92351904Y-77232380D01*
X92018571Y-76232380D01*
X97194666Y-89257142D02*
X97242285Y-89304761D01*
X97385142Y-89352380D01*
X97480380Y-89352380D01*
X97623238Y-89304761D01*
X97718476Y-89209523D01*
X97766095Y-89114285D01*
X97813714Y-88923809D01*
X97813714Y-88780952D01*
X97766095Y-88590476D01*
X97718476Y-88495238D01*
X97623238Y-88400000D01*
X97480380Y-88352380D01*
X97385142Y-88352380D01*
X97242285Y-88400000D01*
X97194666Y-88447619D01*
X96623238Y-88780952D02*
X96718476Y-88733333D01*
X96766095Y-88685714D01*
X96813714Y-88590476D01*
X96813714Y-88542857D01*
X96766095Y-88447619D01*
X96718476Y-88400000D01*
X96623238Y-88352380D01*
X96432761Y-88352380D01*
X96337523Y-88400000D01*
X96289904Y-88447619D01*
X96242285Y-88542857D01*
X96242285Y-88590476D01*
X96289904Y-88685714D01*
X96337523Y-88733333D01*
X96432761Y-88780952D01*
X96623238Y-88780952D01*
X96718476Y-88828571D01*
X96766095Y-88876190D01*
X96813714Y-88971428D01*
X96813714Y-89161904D01*
X96766095Y-89257142D01*
X96718476Y-89304761D01*
X96623238Y-89352380D01*
X96432761Y-89352380D01*
X96337523Y-89304761D01*
X96289904Y-89257142D01*
X96242285Y-89161904D01*
X96242285Y-88971428D01*
X96289904Y-88876190D01*
X96337523Y-88828571D01*
X96432761Y-88780952D01*
X94368857Y-89352380D02*
X94940285Y-89352380D01*
X94654571Y-89352380D02*
X94654571Y-88352380D01*
X94749809Y-88495238D01*
X94845047Y-88590476D01*
X94940285Y-88638095D01*
X93464095Y-88352380D02*
X93940285Y-88352380D01*
X93987904Y-88828571D01*
X93940285Y-88780952D01*
X93845047Y-88733333D01*
X93606952Y-88733333D01*
X93511714Y-88780952D01*
X93464095Y-88828571D01*
X93416476Y-88923809D01*
X93416476Y-89161904D01*
X93464095Y-89257142D01*
X93511714Y-89304761D01*
X93606952Y-89352380D01*
X93845047Y-89352380D01*
X93940285Y-89304761D01*
X93987904Y-89257142D01*
X92987904Y-88685714D02*
X92987904Y-89685714D01*
X92987904Y-88733333D02*
X92892666Y-88685714D01*
X92702190Y-88685714D01*
X92606952Y-88733333D01*
X92559333Y-88780952D01*
X92511714Y-88876190D01*
X92511714Y-89161904D01*
X92559333Y-89257142D01*
X92606952Y-89304761D01*
X92702190Y-89352380D01*
X92892666Y-89352380D01*
X92987904Y-89304761D01*
X100357142Y-84833333D02*
X100404761Y-84785714D01*
X100452380Y-84642857D01*
X100452380Y-84547619D01*
X100404761Y-84404761D01*
X100309523Y-84309523D01*
X100214285Y-84261904D01*
X100023809Y-84214285D01*
X99880952Y-84214285D01*
X99690476Y-84261904D01*
X99595238Y-84309523D01*
X99500000Y-84404761D01*
X99452380Y-84547619D01*
X99452380Y-84642857D01*
X99500000Y-84785714D01*
X99547619Y-84833333D01*
X99452380Y-85166666D02*
X99452380Y-85785714D01*
X99833333Y-85452380D01*
X99833333Y-85595238D01*
X99880952Y-85690476D01*
X99928571Y-85738095D01*
X100023809Y-85785714D01*
X100261904Y-85785714D01*
X100357142Y-85738095D01*
X100404761Y-85690476D01*
X100452380Y-85595238D01*
X100452380Y-85309523D01*
X100404761Y-85214285D01*
X100357142Y-85166666D01*
X100807780Y-77030342D02*
X100807780Y-76458914D01*
X100807780Y-76744628D02*
X99807780Y-76744628D01*
X99950638Y-76649390D01*
X100045876Y-76554152D01*
X100093495Y-76458914D01*
X99807780Y-77649390D02*
X99807780Y-77744628D01*
X99855400Y-77839866D01*
X99903019Y-77887485D01*
X99998257Y-77935104D01*
X100188733Y-77982723D01*
X100426828Y-77982723D01*
X100617304Y-77935104D01*
X100712542Y-77887485D01*
X100760161Y-77839866D01*
X100807780Y-77744628D01*
X100807780Y-77649390D01*
X100760161Y-77554152D01*
X100712542Y-77506533D01*
X100617304Y-77458914D01*
X100426828Y-77411295D01*
X100188733Y-77411295D01*
X99998257Y-77458914D01*
X99903019Y-77506533D01*
X99855400Y-77554152D01*
X99807780Y-77649390D01*
X100141114Y-78839866D02*
X100807780Y-78839866D01*
X100141114Y-78411295D02*
X100664923Y-78411295D01*
X100760161Y-78458914D01*
X100807780Y-78554152D01*
X100807780Y-78697009D01*
X100760161Y-78792247D01*
X100712542Y-78839866D01*
X88590380Y-113853933D02*
X88114190Y-113520600D01*
X88590380Y-113282504D02*
X87590380Y-113282504D01*
X87590380Y-113663457D01*
X87638000Y-113758695D01*
X87685619Y-113806314D01*
X87780857Y-113853933D01*
X87923714Y-113853933D01*
X88018952Y-113806314D01*
X88066571Y-113758695D01*
X88114190Y-113663457D01*
X88114190Y-113282504D01*
X87590380Y-114187266D02*
X87590380Y-114806314D01*
X87971333Y-114472980D01*
X87971333Y-114615838D01*
X88018952Y-114711076D01*
X88066571Y-114758695D01*
X88161809Y-114806314D01*
X88399904Y-114806314D01*
X88495142Y-114758695D01*
X88542761Y-114711076D01*
X88590380Y-114615838D01*
X88590380Y-114330123D01*
X88542761Y-114234885D01*
X88495142Y-114187266D01*
X93410066Y-112415580D02*
X93743400Y-111939390D01*
X93981495Y-112415580D02*
X93981495Y-111415580D01*
X93600542Y-111415580D01*
X93505304Y-111463200D01*
X93457685Y-111510819D01*
X93410066Y-111606057D01*
X93410066Y-111748914D01*
X93457685Y-111844152D01*
X93505304Y-111891771D01*
X93600542Y-111939390D01*
X93981495Y-111939390D01*
X92505304Y-111415580D02*
X92981495Y-111415580D01*
X93029114Y-111891771D01*
X92981495Y-111844152D01*
X92886257Y-111796533D01*
X92648161Y-111796533D01*
X92552923Y-111844152D01*
X92505304Y-111891771D01*
X92457685Y-111987009D01*
X92457685Y-112225104D01*
X92505304Y-112320342D01*
X92552923Y-112367961D01*
X92648161Y-112415580D01*
X92886257Y-112415580D01*
X92981495Y-112367961D01*
X93029114Y-112320342D01*
X90720847Y-112390180D02*
X91292276Y-112390180D01*
X91006561Y-112390180D02*
X91006561Y-111390180D01*
X91101800Y-111533038D01*
X91197038Y-111628276D01*
X91292276Y-111675895D01*
X90292276Y-112390180D02*
X90292276Y-111390180D01*
X90197038Y-112009228D02*
X89911323Y-112390180D01*
X89911323Y-111723514D02*
X90292276Y-112104466D01*
X83622542Y-81189533D02*
X83670161Y-81141914D01*
X83717780Y-80999057D01*
X83717780Y-80903819D01*
X83670161Y-80760961D01*
X83574923Y-80665723D01*
X83479685Y-80618104D01*
X83289209Y-80570485D01*
X83146352Y-80570485D01*
X82955876Y-80618104D01*
X82860638Y-80665723D01*
X82765400Y-80760961D01*
X82717780Y-80903819D01*
X82717780Y-80999057D01*
X82765400Y-81141914D01*
X82813019Y-81189533D01*
X82717780Y-82094295D02*
X82717780Y-81618104D01*
X83193971Y-81570485D01*
X83146352Y-81618104D01*
X83098733Y-81713342D01*
X83098733Y-81951438D01*
X83146352Y-82046676D01*
X83193971Y-82094295D01*
X83289209Y-82141914D01*
X83527304Y-82141914D01*
X83622542Y-82094295D01*
X83670161Y-82046676D01*
X83717780Y-81951438D01*
X83717780Y-81713342D01*
X83670161Y-81618104D01*
X83622542Y-81570485D01*
X87417780Y-80237152D02*
X87417780Y-79665723D01*
X87417780Y-79951438D02*
X86417780Y-79951438D01*
X86560638Y-79856200D01*
X86655876Y-79760961D01*
X86703495Y-79665723D01*
X86417780Y-80856200D02*
X86417780Y-80951438D01*
X86465400Y-81046676D01*
X86513019Y-81094295D01*
X86608257Y-81141914D01*
X86798733Y-81189533D01*
X87036828Y-81189533D01*
X87227304Y-81141914D01*
X87322542Y-81094295D01*
X87370161Y-81046676D01*
X87417780Y-80951438D01*
X87417780Y-80856200D01*
X87370161Y-80760961D01*
X87322542Y-80713342D01*
X87227304Y-80665723D01*
X87036828Y-80618104D01*
X86798733Y-80618104D01*
X86608257Y-80665723D01*
X86513019Y-80713342D01*
X86465400Y-80760961D01*
X86417780Y-80856200D01*
X86417780Y-81808580D02*
X86417780Y-81903819D01*
X86465400Y-81999057D01*
X86513019Y-82046676D01*
X86608257Y-82094295D01*
X86798733Y-82141914D01*
X87036828Y-82141914D01*
X87227304Y-82094295D01*
X87322542Y-82046676D01*
X87370161Y-81999057D01*
X87417780Y-81903819D01*
X87417780Y-81808580D01*
X87370161Y-81713342D01*
X87322542Y-81665723D01*
X87227304Y-81618104D01*
X87036828Y-81570485D01*
X86798733Y-81570485D01*
X86608257Y-81618104D01*
X86513019Y-81665723D01*
X86465400Y-81713342D01*
X86417780Y-81808580D01*
X86751114Y-82570485D02*
X87417780Y-82570485D01*
X86846352Y-82570485D02*
X86798733Y-82618104D01*
X86751114Y-82713342D01*
X86751114Y-82856200D01*
X86798733Y-82951438D01*
X86893971Y-82999057D01*
X87417780Y-82999057D01*
X119448580Y-82853304D02*
X118448580Y-82853304D01*
X118448580Y-83091400D01*
X118496200Y-83234257D01*
X118591438Y-83329495D01*
X118686676Y-83377114D01*
X118877152Y-83424733D01*
X119020009Y-83424733D01*
X119210485Y-83377114D01*
X119305723Y-83329495D01*
X119400961Y-83234257D01*
X119448580Y-83091400D01*
X119448580Y-82853304D01*
X119448580Y-84377114D02*
X119448580Y-83805685D01*
X119448580Y-84091400D02*
X118448580Y-84091400D01*
X118591438Y-83996161D01*
X118686676Y-83900923D01*
X118734295Y-83805685D01*
X125400961Y-80948542D02*
X125448580Y-81091400D01*
X125448580Y-81329495D01*
X125400961Y-81424733D01*
X125353342Y-81472352D01*
X125258104Y-81519971D01*
X125162866Y-81519971D01*
X125067628Y-81472352D01*
X125020009Y-81424733D01*
X124972390Y-81329495D01*
X124924771Y-81139019D01*
X124877152Y-81043780D01*
X124829533Y-80996161D01*
X124734295Y-80948542D01*
X124639057Y-80948542D01*
X124543819Y-80996161D01*
X124496200Y-81043780D01*
X124448580Y-81139019D01*
X124448580Y-81377114D01*
X124496200Y-81519971D01*
X125448580Y-81948542D02*
X124448580Y-81948542D01*
X125448580Y-82519971D02*
X124877152Y-82091400D01*
X124448580Y-82519971D02*
X125020009Y-81948542D01*
X125448580Y-83424733D02*
X125448580Y-82948542D01*
X124448580Y-82948542D01*
X125448580Y-84281876D02*
X125448580Y-83710447D01*
X125448580Y-83996161D02*
X124448580Y-83996161D01*
X124591438Y-83900923D01*
X124686676Y-83805685D01*
X124734295Y-83710447D01*
X124448580Y-84615209D02*
X124448580Y-85234257D01*
X124829533Y-84900923D01*
X124829533Y-85043780D01*
X124877152Y-85139019D01*
X124924771Y-85186638D01*
X125020009Y-85234257D01*
X125258104Y-85234257D01*
X125353342Y-85186638D01*
X125400961Y-85139019D01*
X125448580Y-85043780D01*
X125448580Y-84758066D01*
X125400961Y-84662828D01*
X125353342Y-84615209D01*
X124924771Y-85996161D02*
X124972390Y-86139019D01*
X125020009Y-86186638D01*
X125115247Y-86234257D01*
X125258104Y-86234257D01*
X125353342Y-86186638D01*
X125400961Y-86139019D01*
X125448580Y-86043780D01*
X125448580Y-85662828D01*
X124448580Y-85662828D01*
X124448580Y-85996161D01*
X124496200Y-86091400D01*
X124543819Y-86139019D01*
X124639057Y-86186638D01*
X124734295Y-86186638D01*
X124829533Y-86139019D01*
X124877152Y-86091400D01*
X124924771Y-85996161D01*
X124924771Y-85662828D01*
X105576666Y-93214428D02*
X105624285Y-93262047D01*
X105767142Y-93309666D01*
X105862380Y-93309666D01*
X106005238Y-93262047D01*
X106100476Y-93166809D01*
X106148095Y-93071571D01*
X106195714Y-92881095D01*
X106195714Y-92738238D01*
X106148095Y-92547762D01*
X106100476Y-92452524D01*
X106005238Y-92357286D01*
X105862380Y-92309666D01*
X105767142Y-92309666D01*
X105624285Y-92357286D01*
X105576666Y-92404905D01*
X105100476Y-93309666D02*
X104910000Y-93309666D01*
X104814761Y-93262047D01*
X104767142Y-93214428D01*
X104671904Y-93071571D01*
X104624285Y-92881095D01*
X104624285Y-92500143D01*
X104671904Y-92404905D01*
X104719523Y-92357286D01*
X104814761Y-92309666D01*
X105005238Y-92309666D01*
X105100476Y-92357286D01*
X105148095Y-92404905D01*
X105195714Y-92500143D01*
X105195714Y-92738238D01*
X105148095Y-92833476D01*
X105100476Y-92881095D01*
X105005238Y-92928714D01*
X104814761Y-92928714D01*
X104719523Y-92881095D01*
X104671904Y-92833476D01*
X104624285Y-92738238D01*
X106052857Y-97009666D02*
X106624285Y-97009666D01*
X106338571Y-97009666D02*
X106338571Y-96009666D01*
X106433809Y-96152524D01*
X106529047Y-96247762D01*
X106624285Y-96295381D01*
X105148095Y-96009666D02*
X105624285Y-96009666D01*
X105671904Y-96485857D01*
X105624285Y-96438238D01*
X105529047Y-96390619D01*
X105290952Y-96390619D01*
X105195714Y-96438238D01*
X105148095Y-96485857D01*
X105100476Y-96581095D01*
X105100476Y-96819190D01*
X105148095Y-96914428D01*
X105195714Y-96962047D01*
X105290952Y-97009666D01*
X105529047Y-97009666D01*
X105624285Y-96962047D01*
X105671904Y-96914428D01*
X104671904Y-96343000D02*
X104671904Y-97343000D01*
X104671904Y-96390619D02*
X104576666Y-96343000D01*
X104386190Y-96343000D01*
X104290952Y-96390619D01*
X104243333Y-96438238D01*
X104195714Y-96533476D01*
X104195714Y-96819190D01*
X104243333Y-96914428D01*
X104290952Y-96962047D01*
X104386190Y-97009666D01*
X104576666Y-97009666D01*
X104671904Y-96962047D01*
X88508388Y-96400687D02*
X88575731Y-96400687D01*
X88710418Y-96333343D01*
X88777762Y-96266000D01*
X88845105Y-96131312D01*
X88845105Y-95996625D01*
X88811434Y-95895610D01*
X88710418Y-95727251D01*
X88609403Y-95626236D01*
X88441044Y-95525221D01*
X88340029Y-95491549D01*
X88205342Y-95491549D01*
X88070655Y-95558893D01*
X88003311Y-95626236D01*
X87935968Y-95760923D01*
X87935968Y-95828267D01*
X87262533Y-96367015D02*
X87397220Y-96232328D01*
X87498235Y-96198656D01*
X87565579Y-96198656D01*
X87733937Y-96232328D01*
X87902296Y-96333343D01*
X88171670Y-96602717D01*
X88205342Y-96703732D01*
X88205342Y-96771076D01*
X88171670Y-96872091D01*
X88036983Y-97006778D01*
X87935968Y-97040450D01*
X87868624Y-97040450D01*
X87767609Y-97006778D01*
X87599250Y-96838419D01*
X87565579Y-96737404D01*
X87565579Y-96670061D01*
X87599250Y-96569045D01*
X87733937Y-96434358D01*
X87834953Y-96400687D01*
X87902296Y-96400687D01*
X88003311Y-96434358D01*
X91764461Y-98551597D02*
X92168522Y-98147536D01*
X91966492Y-98349566D02*
X91259385Y-97642460D01*
X91427744Y-97676131D01*
X91562431Y-97676131D01*
X91663446Y-97642460D01*
X90619622Y-98282223D02*
X90552278Y-98349566D01*
X90518606Y-98450582D01*
X90518606Y-98517925D01*
X90552278Y-98618940D01*
X90653293Y-98787299D01*
X90821652Y-98955658D01*
X90990011Y-99056673D01*
X91091026Y-99090345D01*
X91158370Y-99090345D01*
X91259385Y-99056673D01*
X91326729Y-98989330D01*
X91360400Y-98888314D01*
X91360400Y-98820971D01*
X91326729Y-98719956D01*
X91225713Y-98551597D01*
X91057355Y-98383238D01*
X90888996Y-98282223D01*
X90787981Y-98248551D01*
X90720637Y-98248551D01*
X90619622Y-98282223D01*
X89946187Y-98955658D02*
X89878843Y-99023002D01*
X89845171Y-99124017D01*
X89845171Y-99191360D01*
X89878843Y-99292376D01*
X89979858Y-99460734D01*
X90148217Y-99629093D01*
X90316576Y-99730108D01*
X90417591Y-99763780D01*
X90484935Y-99763780D01*
X90585950Y-99730108D01*
X90653294Y-99662765D01*
X90686965Y-99561750D01*
X90686965Y-99494406D01*
X90653293Y-99393391D01*
X90552278Y-99225032D01*
X90383919Y-99056673D01*
X90215561Y-98955658D01*
X90114545Y-98921986D01*
X90047202Y-98921986D01*
X89946187Y-98955658D01*
X89643141Y-99730108D02*
X90114545Y-100201513D01*
X89710484Y-99797452D02*
X89643141Y-99797452D01*
X89542126Y-99831124D01*
X89441110Y-99932139D01*
X89407439Y-100033154D01*
X89441110Y-100134169D01*
X89811500Y-100504559D01*
X89713969Y-103178893D02*
X89713969Y-103111549D01*
X89646625Y-102976862D01*
X89579282Y-102909519D01*
X89444595Y-102842175D01*
X89309908Y-102842175D01*
X89208893Y-102875847D01*
X89040534Y-102976862D01*
X88939519Y-103077877D01*
X88838503Y-103246236D01*
X88804832Y-103347251D01*
X88804832Y-103481938D01*
X88872175Y-103616625D01*
X88939519Y-103683969D01*
X89074206Y-103751312D01*
X89141549Y-103751312D01*
X90454748Y-103784984D02*
X90050687Y-103380923D01*
X90252717Y-103582954D02*
X89545610Y-104290061D01*
X89579282Y-104121702D01*
X89579282Y-103987015D01*
X89545610Y-103886000D01*
X90185374Y-104929824D02*
X90252717Y-104997167D01*
X90353732Y-105030839D01*
X90421076Y-105030839D01*
X90522091Y-104997167D01*
X90690450Y-104896152D01*
X90858809Y-104727793D01*
X90959824Y-104559435D01*
X90993496Y-104458419D01*
X90993496Y-104391076D01*
X90959824Y-104290061D01*
X90892480Y-104222717D01*
X90791465Y-104189045D01*
X90724122Y-104189045D01*
X90623106Y-104222717D01*
X90454748Y-104323732D01*
X90286389Y-104492091D01*
X90185374Y-104660450D01*
X90151702Y-104761465D01*
X90151702Y-104828809D01*
X90185374Y-104929824D01*
X92238595Y-100234832D02*
X91834534Y-99830771D01*
X92036564Y-100032801D02*
X91329458Y-100739908D01*
X91363129Y-100571549D01*
X91363129Y-100436862D01*
X91329458Y-100335847D01*
X91969221Y-101379671D02*
X92036564Y-101447015D01*
X92137580Y-101480687D01*
X92204923Y-101480687D01*
X92305938Y-101447015D01*
X92474297Y-101346000D01*
X92642656Y-101177641D01*
X92743671Y-101009282D01*
X92777343Y-100908267D01*
X92777343Y-100840923D01*
X92743671Y-100739908D01*
X92676328Y-100672564D01*
X92575312Y-100638893D01*
X92507969Y-100638893D01*
X92406954Y-100672564D01*
X92238595Y-100773580D01*
X92070236Y-100941938D01*
X91969221Y-101110297D01*
X91935549Y-101211312D01*
X91935549Y-101278656D01*
X91969221Y-101379671D01*
X92642656Y-102053106D02*
X92710000Y-102120450D01*
X92811015Y-102154122D01*
X92878358Y-102154122D01*
X92979374Y-102120450D01*
X93147732Y-102019435D01*
X93316091Y-101851076D01*
X93417106Y-101682717D01*
X93450778Y-101581702D01*
X93450778Y-101514358D01*
X93417106Y-101413343D01*
X93349763Y-101346000D01*
X93248748Y-101312328D01*
X93181404Y-101312328D01*
X93080389Y-101346000D01*
X92912030Y-101447015D01*
X92743671Y-101615374D01*
X92642656Y-101783732D01*
X92608984Y-101884748D01*
X92608984Y-101952091D01*
X92642656Y-102053106D01*
X93417106Y-102356152D02*
X93888511Y-101884748D01*
X93484450Y-102288809D02*
X93484450Y-102356152D01*
X93518122Y-102457167D01*
X93619137Y-102558183D01*
X93720152Y-102591854D01*
X93821167Y-102558183D01*
X94191557Y-102187793D01*
X105094066Y-78074780D02*
X105427400Y-77598590D01*
X105665495Y-78074780D02*
X105665495Y-77074780D01*
X105284542Y-77074780D01*
X105189304Y-77122400D01*
X105141685Y-77170019D01*
X105094066Y-77265257D01*
X105094066Y-77408114D01*
X105141685Y-77503352D01*
X105189304Y-77550971D01*
X105284542Y-77598590D01*
X105665495Y-77598590D01*
X104141685Y-78074780D02*
X104713114Y-78074780D01*
X104427400Y-78074780D02*
X104427400Y-77074780D01*
X104522638Y-77217638D01*
X104617876Y-77312876D01*
X104713114Y-77360495D01*
X103022304Y-77484314D02*
X103022304Y-78150980D01*
X103260400Y-77103361D02*
X103498495Y-77817647D01*
X102879447Y-77817647D01*
X102593733Y-77150980D02*
X101927066Y-77150980D01*
X102355638Y-78150980D01*
X101355638Y-77150980D02*
X101260400Y-77150980D01*
X101165161Y-77198600D01*
X101117542Y-77246219D01*
X101069923Y-77341457D01*
X101022304Y-77531933D01*
X101022304Y-77770028D01*
X101069923Y-77960504D01*
X101117542Y-78055742D01*
X101165161Y-78103361D01*
X101260400Y-78150980D01*
X101355638Y-78150980D01*
X101450876Y-78103361D01*
X101498495Y-78055742D01*
X101546114Y-77960504D01*
X101593733Y-77770028D01*
X101593733Y-77531933D01*
X101546114Y-77341457D01*
X101498495Y-77246219D01*
X101450876Y-77198600D01*
X101355638Y-77150980D01*
D11*
X104511464Y-80827200D02*
X103057336Y-80827200D01*
X104511464Y-82647200D02*
X103057336Y-82647200D01*
X113537948Y-80039800D02*
X114960452Y-80039800D01*
X113537948Y-81859800D02*
X114960452Y-81859800D01*
X96870536Y-101116398D02*
X97876398Y-100110536D01*
X95583602Y-99829464D02*
X96589464Y-98823602D01*
X88232064Y-85480000D02*
X87027936Y-85480000D01*
X88232064Y-87300000D02*
X87027936Y-87300000D01*
X100189464Y-95634398D02*
X99183602Y-94628536D01*
X101476398Y-94347464D02*
X100470536Y-93341602D01*
X84730000Y-115401136D02*
X84730000Y-116855264D01*
X82910000Y-115401136D02*
X82910000Y-116855264D01*
X92680000Y-84690000D02*
X92680000Y-83430000D01*
X92680000Y-77870000D02*
X92680000Y-79130000D01*
X96440000Y-84690000D02*
X92680000Y-84690000D01*
X98690000Y-77870000D02*
X92680000Y-77870000D01*
X95668752Y-87778665D02*
X94246248Y-87778665D01*
X95668752Y-85958665D02*
X94246248Y-85958665D01*
X99267600Y-82016652D02*
X99267600Y-80594148D01*
X101087600Y-82016652D02*
X101087600Y-80594148D01*
X85475400Y-115375736D02*
X85475400Y-116829864D01*
X87295400Y-115375736D02*
X87295400Y-116829864D01*
X92979864Y-112805800D02*
X91525736Y-112805800D01*
X92979864Y-114625800D02*
X91525736Y-114625800D01*
X84205400Y-80644948D02*
X84205400Y-82067452D01*
X86025400Y-80644948D02*
X86025400Y-82067452D01*
X119846200Y-78991400D02*
X119846200Y-86291400D01*
X119846200Y-78991400D02*
X124146200Y-78991400D01*
X124146200Y-78991400D02*
X124146200Y-86291400D01*
X106121252Y-95617286D02*
X104698748Y-95617286D01*
X106121252Y-93797286D02*
X104698748Y-93797286D01*
X89204610Y-96568456D02*
X88198748Y-97574318D01*
X90491544Y-97855390D02*
X89485682Y-98861252D01*
X90233602Y-102850536D02*
X91239464Y-103856398D01*
X91520536Y-101563602D02*
X92526398Y-102569464D01*
X104511464Y-78414200D02*
X103057336Y-78414200D01*
X104511464Y-80234200D02*
X103057336Y-80234200D01*
M02*
