M48
; DRILL file {KiCad 5.1.6-c6e7f7d~87~ubuntu18.04.1} date Sat Mar 27 09:05:52 2021
; FORMAT={-:-/ absolute / inch / decimal}
; #@! TF.CreationDate,2021-03-27T09:05:52+01:00
; #@! TF.GenerationSoftware,Kicad,Pcbnew,5.1.6-c6e7f7d~87~ubuntu18.04.1
; #@! TF.FileFunction,Plated,1,2,PTH
FMAT,2
INCH
T1C0.0157
T2C0.0300
T3C0.0315
T4C0.0354
T5C0.0394
T6C0.0433
%
G90
G05
T1
X3.9137Y-3.2662
X4.014Y-4.626
X4.1105Y-2.9525
X4.1937Y-4.5012
X4.242Y-4.6814
X4.2772Y-2.8701
X4.3088Y-4.5012
X4.355Y-4.67
X4.3954Y-3.7187
X4.4279Y-3.8515
X4.4665Y-3.9823
X4.518Y-2.875
X4.522Y-3.172
X4.5451Y-3.7797
X4.5701Y-3.3795
X4.6102Y-3.311
X4.6457Y-3.874
X4.668Y-4.788
X4.6878Y-3.5921
X4.705Y-4.04
X4.7421Y-3.1969
X4.7636Y-3.7264
X4.7715Y-4.7634
X4.7735Y-4.883
X4.7805Y-4.9885
X4.7874Y-3.8193
X4.801Y-4.204
X4.805Y-3.945
X4.8158Y-3.0202
X4.831Y-3.1294
X4.8331Y-4.0189
X4.8344Y-3.3106
X4.8345Y-4.6785
X4.8663Y-2.875
X4.89Y-4.8
X4.89Y-4.8
X4.9004Y-3.611
X4.947Y-3.104
X5.079Y-3.105
X5.083Y-2.83
X5.0858Y-4.6264
X5.0898Y-4.6726
X5.1189Y-2.992
X5.1564Y-4.5601
X5.4109Y-2.965
X5.481Y-4.411
X5.7945Y-2.972
T2
X4.964Y-4.166
X4.964Y-4.266
X4.964Y-4.366
X5.064Y-4.166
X5.064Y-4.266
X5.064Y-4.366
X3.6825Y-2.98
X3.6825Y-3.08
X3.6825Y-3.18
X3.6825Y-3.28
X3.6825Y-3.38
X3.6825Y-3.48
X3.6825Y-3.58
X3.6825Y-3.68
X3.6825Y-3.78
X3.6825Y-3.88
X3.6825Y-3.98
X3.6825Y-4.08
X3.6825Y-4.18
X3.6825Y-4.28
X3.6825Y-4.38
X3.6825Y-4.48
X3.6825Y-4.58
X3.7825Y-2.98
X3.7825Y-3.08
X3.7825Y-3.18
X3.7825Y-3.28
X3.7825Y-3.38
X3.7825Y-3.48
X3.7825Y-3.58
X3.7825Y-3.68
X3.7825Y-3.78
X3.7825Y-3.88
X3.7825Y-3.98
X3.7825Y-4.08
X3.7825Y-4.18
X3.7825Y-4.28
X3.7825Y-4.38
X3.7825Y-4.48
X3.7825Y-4.58
T3
X4.1217Y-3.3098
X4.2575Y-3.174
T4
X5.2961Y-3.7069
X5.2961Y-3.8069
X5.2961Y-3.9067
X5.2961Y-4.0067
X5.3961Y-3.7567
X5.3961Y-3.8567
X5.3961Y-3.9567
X5.292Y-4.43
X5.292Y-4.53
X5.292Y-4.6298
X5.292Y-4.7298
X5.392Y-4.4798
X5.392Y-4.5798
X5.392Y-4.6798
T5
X5.5845Y-3.454
X5.6845Y-3.454
X5.7845Y-3.454
X4.63Y-4.27
X4.63Y-4.37
X4.63Y-4.47
X4.63Y-4.57
T6
X4.35Y-4.85
X4.35Y-5.0272
X4.6059Y-4.85
X4.6059Y-5.0272
T4
G00X5.3961Y-4.0567
M15
G01X5.3961Y-4.0567
M16
G05
G00X5.392Y-4.7798
M15
G01X5.392Y-4.7798
M16
G05
T0
M30
