%TF.GenerationSoftware,KiCad,Pcbnew,6.0.11-2627ca5db0~126~ubuntu20.04.1*%
%TF.CreationDate,2023-09-03T18:12:03+02:00*%
%TF.ProjectId,sboxnet-modul,73626f78-6e65-4742-9d6d-6f64756c2e6b,rev?*%
%TF.SameCoordinates,Original*%
%TF.FileFunction,Copper,L2,Bot*%
%TF.FilePolarity,Positive*%
%FSLAX46Y46*%
G04 Gerber Fmt 4.6, Leading zero omitted, Abs format (unit mm)*
G04 Created by KiCad (PCBNEW 6.0.11-2627ca5db0~126~ubuntu20.04.1) date 2023-09-03 18:12:03*
%MOMM*%
%LPD*%
G01*
G04 APERTURE LIST*
G04 Aperture macros list*
%AMRoundRect*
0 Rectangle with rounded corners*
0 $1 Rounding radius*
0 $2 $3 $4 $5 $6 $7 $8 $9 X,Y pos of 4 corners*
0 Add a 4 corners polygon primitive as box body*
4,1,4,$2,$3,$4,$5,$6,$7,$8,$9,$2,$3,0*
0 Add four circle primitives for the rounded corners*
1,1,$1+$1,$2,$3*
1,1,$1+$1,$4,$5*
1,1,$1+$1,$6,$7*
1,1,$1+$1,$8,$9*
0 Add four rect primitives between the rounded corners*
20,1,$1+$1,$2,$3,$4,$5,0*
20,1,$1+$1,$4,$5,$6,$7,0*
20,1,$1+$1,$6,$7,$8,$9,0*
20,1,$1+$1,$8,$9,$2,$3,0*%
G04 Aperture macros list end*
%TA.AperFunction,ComponentPad*%
%ADD10C,1.524000*%
%TD*%
%TA.AperFunction,ComponentPad*%
%ADD11R,1.524000X1.524000*%
%TD*%
%TA.AperFunction,ComponentPad*%
%ADD12C,2.000000*%
%TD*%
%TA.AperFunction,ComponentPad*%
%ADD13C,1.500000*%
%TD*%
%TA.AperFunction,SMDPad,CuDef*%
%ADD14RoundRect,0.250000X0.400000X0.625000X-0.400000X0.625000X-0.400000X-0.625000X0.400000X-0.625000X0*%
%TD*%
%TA.AperFunction,SMDPad,CuDef*%
%ADD15RoundRect,0.250000X-0.412500X-0.650000X0.412500X-0.650000X0.412500X0.650000X-0.412500X0.650000X0*%
%TD*%
%TA.AperFunction,SMDPad,CuDef*%
%ADD16RoundRect,0.250000X0.167938X-0.751301X0.751301X-0.167938X-0.167938X0.751301X-0.751301X0.167938X0*%
%TD*%
%TA.AperFunction,SMDPad,CuDef*%
%ADD17RoundRect,0.250001X0.462499X0.624999X-0.462499X0.624999X-0.462499X-0.624999X0.462499X-0.624999X0*%
%TD*%
%TA.AperFunction,SMDPad,CuDef*%
%ADD18RoundRect,0.250000X0.751301X0.167938X0.167938X0.751301X-0.751301X-0.167938X-0.167938X-0.751301X0*%
%TD*%
%TA.AperFunction,SMDPad,CuDef*%
%ADD19RoundRect,0.250000X-0.625000X0.400000X-0.625000X-0.400000X0.625000X-0.400000X0.625000X0.400000X0*%
%TD*%
%TA.AperFunction,SMDPad,CuDef*%
%ADD20R,2.000000X1.500000*%
%TD*%
%TA.AperFunction,SMDPad,CuDef*%
%ADD21R,2.000000X3.800000*%
%TD*%
%TA.AperFunction,SMDPad,CuDef*%
%ADD22RoundRect,0.250000X0.412500X0.650000X-0.412500X0.650000X-0.412500X-0.650000X0.412500X-0.650000X0*%
%TD*%
%TA.AperFunction,SMDPad,CuDef*%
%ADD23RoundRect,0.250000X0.650000X-0.412500X0.650000X0.412500X-0.650000X0.412500X-0.650000X-0.412500X0*%
%TD*%
%TA.AperFunction,SMDPad,CuDef*%
%ADD24RoundRect,0.250000X-0.650000X0.412500X-0.650000X-0.412500X0.650000X-0.412500X0.650000X0.412500X0*%
%TD*%
%TA.AperFunction,SMDPad,CuDef*%
%ADD25R,2.300000X3.500000*%
%TD*%
%TA.AperFunction,SMDPad,CuDef*%
%ADD26RoundRect,0.250000X-0.167938X0.751301X-0.751301X0.167938X0.167938X-0.751301X0.751301X-0.167938X0*%
%TD*%
%TA.AperFunction,SMDPad,CuDef*%
%ADD27RoundRect,0.250000X-0.751301X-0.167938X-0.167938X-0.751301X0.751301X0.167938X0.167938X0.751301X0*%
%TD*%
%TA.AperFunction,ViaPad*%
%ADD28C,0.800000*%
%TD*%
%TA.AperFunction,Conductor*%
%ADD29C,0.250000*%
%TD*%
%TA.AperFunction,Conductor*%
%ADD30C,0.800000*%
%TD*%
G04 APERTURE END LIST*
D10*
X80010000Y-78010000D03*
D11*
X77470000Y-78010000D03*
D10*
X80010000Y-80550000D03*
X77470000Y-80550000D03*
X80010000Y-83090000D03*
X77470000Y-83090000D03*
X80010000Y-85630000D03*
X77470000Y-85630000D03*
X80010000Y-88170000D03*
X77470000Y-88170000D03*
X80010000Y-90710000D03*
X77470000Y-90710000D03*
X80010000Y-93250000D03*
X77470000Y-93250000D03*
X80010000Y-95790000D03*
X77470000Y-95790000D03*
X80010000Y-98330000D03*
X77470000Y-98330000D03*
X80010000Y-100870000D03*
X77470000Y-100870000D03*
X80010000Y-103410000D03*
X77470000Y-103410000D03*
X80010000Y-105950000D03*
X77470000Y-105950000D03*
X80010000Y-108490000D03*
X77470000Y-108490000D03*
X80010000Y-111030000D03*
X77470000Y-111030000D03*
X80010000Y-113570000D03*
X77470000Y-113570000D03*
X80010000Y-116110000D03*
X77470000Y-116110000D03*
X80010000Y-118650000D03*
X77470000Y-118650000D03*
X100100000Y-110780000D03*
X102640000Y-110780000D03*
X100100000Y-113320000D03*
X102640000Y-113320000D03*
X100100000Y-115860000D03*
D11*
X102640000Y-115860000D03*
X110490000Y-108580000D03*
D10*
X107950000Y-107310000D03*
X110490000Y-106040000D03*
X107950000Y-104770000D03*
X110490000Y-103500000D03*
X107950000Y-102235000D03*
X110490000Y-100960000D03*
X107950000Y-99695000D03*
D11*
X110490000Y-88260000D03*
D10*
X107950000Y-86990000D03*
X110490000Y-85720000D03*
X107950000Y-84450000D03*
X110490000Y-83180000D03*
X107950000Y-81915000D03*
X110490000Y-80640000D03*
X107950000Y-79375000D03*
D12*
X88977400Y-115961600D03*
X95477400Y-115961600D03*
X95477400Y-120461600D03*
X88977400Y-120461600D03*
D13*
X98597589Y-87167589D03*
X102048270Y-90618270D03*
D14*
X105334400Y-81737200D03*
X102234400Y-81737200D03*
D15*
X112686700Y-80949800D03*
X115811700Y-80949800D03*
D16*
X95625146Y-101074854D03*
X97834854Y-98865146D03*
D17*
X89117500Y-86390000D03*
X86142500Y-86390000D03*
D18*
X101434854Y-95592854D03*
X99225146Y-93383146D03*
D19*
X83820000Y-114578200D03*
X83820000Y-117678200D03*
D20*
X97740000Y-78980000D03*
X97740000Y-81280000D03*
D21*
X91440000Y-81280000D03*
D20*
X97740000Y-83580000D03*
D22*
X96520000Y-86868665D03*
X93395000Y-86868665D03*
D23*
X100177600Y-82867900D03*
X100177600Y-79742900D03*
D19*
X86385400Y-114552800D03*
X86385400Y-117652800D03*
D14*
X93802800Y-113715800D03*
X90702800Y-113715800D03*
D24*
X85115400Y-79793700D03*
X85115400Y-82918700D03*
D25*
X121996200Y-80891400D03*
X121996200Y-86291400D03*
D22*
X106972500Y-94707286D03*
X103847500Y-94707286D03*
D26*
X90450000Y-96610000D03*
X88240292Y-98819708D03*
D27*
X90275146Y-101605146D03*
X92484854Y-103814854D03*
D14*
X105334400Y-79324200D03*
X102234400Y-79324200D03*
D28*
X104241600Y-88036400D03*
X99847400Y-78257400D03*
X85045750Y-79673250D03*
X90450000Y-96610000D03*
X91643200Y-81280000D03*
X101511146Y-95592854D03*
X94488000Y-102870000D03*
X89408000Y-100330000D03*
X90275146Y-101605146D03*
X107645200Y-91465400D03*
X92964000Y-98298000D03*
X92710000Y-94742000D03*
X94970600Y-85902800D03*
X95625146Y-101074854D03*
X94234000Y-99314000D03*
X88442800Y-78841600D03*
X102362000Y-81737200D03*
X86461600Y-117729000D03*
X85090000Y-95123000D03*
X97834854Y-98865146D03*
X92484854Y-103814854D03*
X88240292Y-98819708D03*
X85090000Y-82931000D03*
X106235500Y-117081300D03*
X88290000Y-83580000D03*
X83947000Y-117729000D03*
X102387400Y-79197200D03*
X103886000Y-106578400D03*
X104622600Y-108839000D03*
X115239800Y-119380000D03*
X101879400Y-118364000D03*
X105816400Y-109677200D03*
X105562400Y-106756200D03*
X112903000Y-88011000D03*
X111023400Y-117246400D03*
X113004600Y-108991400D03*
X108915200Y-117500400D03*
X99174300Y-93332300D03*
X109042200Y-111607600D03*
X111556800Y-111531400D03*
X105918000Y-114071400D03*
X101117400Y-108458000D03*
X113385600Y-117906800D03*
X114173000Y-114427000D03*
X97434400Y-108000800D03*
X98475800Y-108102400D03*
D29*
X111569789Y-79553489D02*
X112686700Y-80670400D01*
X95477400Y-120461600D02*
X98038400Y-120461600D01*
X84835989Y-79463489D02*
X85045750Y-79673250D01*
X101511146Y-95592854D02*
X102961932Y-95592854D01*
X99372523Y-97655185D02*
X99256183Y-97538845D01*
X100973759Y-91702759D02*
X100203000Y-90932000D01*
X105816400Y-87604600D02*
X105816400Y-84261093D01*
X105816400Y-84261093D02*
X107950000Y-82127493D01*
X94970600Y-85902800D02*
X94360865Y-85902800D01*
X107950000Y-82127493D02*
X107950000Y-81915000D01*
X97428744Y-97538845D02*
X95625146Y-99342443D01*
X107950000Y-81915000D02*
X107950000Y-81643440D01*
X100203000Y-78663800D02*
X99822000Y-78282800D01*
X98038400Y-120461600D02*
X102640000Y-115860000D01*
X101434854Y-95592854D02*
X101511146Y-95592854D01*
X104800400Y-88620600D02*
X105816400Y-87604600D01*
X95625146Y-99342443D02*
X95625146Y-101074854D01*
X100973759Y-91833545D02*
X100973759Y-91702759D01*
X100203000Y-79742900D02*
X100203000Y-78663800D01*
X99256183Y-97538845D02*
X97428744Y-97538845D01*
X77470000Y-78010000D02*
X78923489Y-79463489D01*
X98665900Y-81280000D02*
X100203000Y-79742900D01*
X104800400Y-88620600D02*
X107645200Y-91465400D01*
X103847500Y-94707286D02*
X100973759Y-91833545D01*
X107950000Y-81643440D02*
X110039951Y-79553489D01*
X102641400Y-88036400D02*
X104216200Y-88036400D01*
X100203000Y-90474800D02*
X102641400Y-88036400D01*
X110039951Y-79553489D02*
X111569789Y-79553489D01*
X99372523Y-97655185D02*
X101434854Y-95592854D01*
X100203000Y-90932000D02*
X100203000Y-90474800D01*
X102961932Y-95592854D02*
X103847500Y-94707286D01*
X88977400Y-120461600D02*
X95477400Y-120461600D01*
X78923489Y-79463489D02*
X84835989Y-79463489D01*
X97740000Y-81280000D02*
X98665900Y-81280000D01*
X85045750Y-79673250D02*
X85090000Y-79717500D01*
X94360865Y-85902800D02*
X93395000Y-86868665D01*
X104216200Y-88036400D02*
X104800400Y-88620600D01*
D30*
X115811700Y-80670400D02*
X112399189Y-77257889D01*
X97740000Y-78764600D02*
X97740000Y-78980000D01*
X99246711Y-77257889D02*
X97740000Y-78764600D01*
X116032700Y-80891400D02*
X115811700Y-80670400D01*
X121996200Y-80891400D02*
X116032700Y-80891400D01*
X112399189Y-77257889D02*
X99246711Y-77257889D01*
D29*
X105410600Y-83159000D02*
X104978200Y-83591400D01*
X97740000Y-83580000D02*
X97490000Y-83580000D01*
X92751600Y-78841600D02*
X88442800Y-78841600D01*
X100926500Y-83591400D02*
X100203000Y-82867900D01*
X97490000Y-83580000D02*
X92751600Y-78841600D01*
X99490900Y-83580000D02*
X97740000Y-83580000D01*
X105410600Y-82169000D02*
X105410600Y-83159000D01*
X100203000Y-82867900D02*
X99490900Y-83580000D01*
X104978200Y-83591400D02*
X100926500Y-83591400D01*
X105435400Y-105410000D02*
X106161540Y-104683860D01*
X98552000Y-105410000D02*
X105435400Y-105410000D01*
X107688440Y-100960000D02*
X110490000Y-100960000D01*
X106161540Y-102486900D02*
X107688440Y-100960000D01*
X82321759Y-116992758D02*
X82321759Y-112065159D01*
X93048455Y-111015145D02*
X98552000Y-105410000D01*
X80664517Y-118650000D02*
X82321759Y-116992758D01*
X82786998Y-111599920D02*
X92463680Y-111599920D01*
X82321759Y-112065159D02*
X82786998Y-111599920D01*
X106161540Y-104683860D02*
X106161540Y-102486900D01*
X80010000Y-118650000D02*
X80664517Y-118650000D01*
X92463680Y-111599920D02*
X93048455Y-111015145D01*
X81407000Y-117271800D02*
X78848200Y-117271800D01*
X105712020Y-101932980D02*
X105712020Y-103757973D01*
X100253800Y-104960480D02*
X98365803Y-104960480D01*
X95707200Y-107594400D02*
X94257157Y-109044443D01*
X105712020Y-103757973D02*
X104509513Y-104960480D01*
X92151200Y-111150400D02*
X90093800Y-111150400D01*
X104509513Y-104960480D02*
X100253800Y-104960480D01*
X90119200Y-111150400D02*
X82600800Y-111150400D01*
X94257157Y-109044443D02*
X92151200Y-111150400D01*
X95731883Y-107594400D02*
X95707200Y-107594400D01*
X107950000Y-99695000D02*
X105712020Y-101932980D01*
X98365803Y-104960480D02*
X95731883Y-107594400D01*
X78848200Y-117271800D02*
X77470000Y-118650000D01*
X81407000Y-112344200D02*
X81407000Y-117271800D01*
X82600800Y-111150400D02*
X81407000Y-112344200D01*
X105156000Y-114427000D02*
X105156000Y-113296000D01*
X106426000Y-80670400D02*
X105385200Y-80010000D01*
X88290000Y-83580000D02*
X89364511Y-84654511D01*
X85090000Y-86690200D02*
X85090000Y-95123000D01*
X85090000Y-86690200D02*
X85842300Y-86690200D01*
X85090000Y-82931000D02*
X85090000Y-86690200D01*
X85842300Y-86690200D02*
X86142500Y-86390000D01*
X106235500Y-115506500D02*
X105156000Y-114427000D01*
X106235500Y-117081300D02*
X106235500Y-115506500D01*
X104778689Y-84654511D02*
X106426000Y-82981800D01*
X105156000Y-113296000D02*
X102640000Y-110780000D01*
X89364511Y-84654511D02*
X104778689Y-84654511D01*
X106426000Y-82981800D02*
X106426000Y-80670400D01*
D30*
X121996200Y-86291400D02*
X121996200Y-105613200D01*
X110490000Y-106040000D02*
X109220000Y-106040000D01*
X110490000Y-85720000D02*
X121424800Y-85720000D01*
X107950000Y-86990000D02*
X109220000Y-86990000D01*
X109220000Y-106040000D02*
X107950000Y-107310000D01*
X109220000Y-86990000D02*
X110490000Y-85720000D01*
X121424800Y-85720000D02*
X121996200Y-86291400D01*
X121569400Y-106040000D02*
X110490000Y-106040000D01*
X121996200Y-105613200D02*
X121569400Y-106040000D01*
D29*
X103886000Y-106578400D02*
X104622600Y-107492800D01*
X104622600Y-107492800D02*
X104622600Y-108839000D01*
X102895400Y-119380000D02*
X101879400Y-118364000D01*
X105562400Y-106756200D02*
X105562400Y-109423200D01*
X105562400Y-109423200D02*
X105816400Y-109677200D01*
X115239800Y-119380000D02*
X102895400Y-119380000D01*
X113309400Y-100914200D02*
X113309400Y-88417400D01*
X112801400Y-112090200D02*
X113004600Y-108991400D01*
X110490000Y-103500000D02*
X113075800Y-100914200D01*
X113309400Y-88417400D02*
X112903000Y-88011000D01*
X111023400Y-117246400D02*
X112801400Y-112090200D01*
X113075800Y-100914200D02*
X113309400Y-100914200D01*
X108864400Y-90855800D02*
X108864400Y-97307400D01*
X106863489Y-88854889D02*
X108864400Y-90855800D01*
X107950000Y-104503440D02*
X107950000Y-104770000D01*
X108864400Y-97307400D02*
X112014000Y-100457000D01*
X107142200Y-104770000D02*
X107950000Y-104770000D01*
X112014000Y-101168200D02*
X110794800Y-102387400D01*
X106863489Y-85536511D02*
X106863489Y-88854889D01*
X110794800Y-102387400D02*
X110066040Y-102387400D01*
X106680000Y-105232200D02*
X107142200Y-104770000D01*
X107950000Y-84450000D02*
X106863489Y-85536511D01*
X110066040Y-102387400D02*
X107950000Y-104503440D01*
X108915200Y-117500400D02*
X106680000Y-115265200D01*
X112014000Y-100457000D02*
X112014000Y-101168200D01*
X106680000Y-115265200D02*
X106680000Y-105232200D01*
X89117500Y-86390000D02*
X96110646Y-93383146D01*
X96110646Y-93383146D02*
X99225146Y-93383146D01*
X95477400Y-115961600D02*
X93802800Y-114287000D01*
X93802800Y-114287000D02*
X93802800Y-113715800D01*
X88977400Y-115961600D02*
X95477400Y-115961600D01*
X111480600Y-111607600D02*
X111556800Y-111531400D01*
X109042200Y-111607600D02*
X111480600Y-111607600D01*
X105918000Y-111531400D02*
X105918000Y-114071400D01*
X101117400Y-108458000D02*
X102641400Y-108254800D01*
X102641400Y-108254800D02*
X105918000Y-111531400D01*
X113385600Y-117906800D02*
X113385600Y-115214400D01*
X113385600Y-115214400D02*
X114173000Y-114427000D01*
X92586048Y-112214152D02*
X96799400Y-108000800D01*
X92586048Y-112242600D02*
X92586048Y-112214152D01*
X83820000Y-112877600D02*
X84455000Y-112242600D01*
X96799400Y-108000800D02*
X97434400Y-108000800D01*
X83820000Y-114578200D02*
X83820000Y-112877600D01*
X84455000Y-112242600D02*
X92586048Y-112242600D01*
X98475800Y-108102400D02*
X91465400Y-113715800D01*
X91465400Y-113715800D02*
X90702800Y-113715800D01*
X86385400Y-114552800D02*
X89865800Y-114552800D01*
X89865800Y-114552800D02*
X90702800Y-113715800D01*
X102048270Y-90618270D02*
X106137286Y-94707286D01*
X106137286Y-94707286D02*
X106972500Y-94707286D01*
X98597589Y-87167589D02*
X96818924Y-87167589D01*
X96818924Y-87167589D02*
X96520000Y-86868665D01*
%TA.AperFunction,Conductor*%
G36*
X125070516Y-76301775D02*
G01*
X125138624Y-76321812D01*
X125185089Y-76375491D01*
X125196449Y-76427706D01*
X125206453Y-94595159D01*
X125221115Y-121219665D01*
X125221151Y-121285431D01*
X125201186Y-121353562D01*
X125147556Y-121400085D01*
X125095151Y-121411500D01*
X96888914Y-121411500D01*
X96820793Y-121391498D01*
X96774300Y-121337842D01*
X96764196Y-121267568D01*
X96781481Y-121219665D01*
X96822610Y-121152548D01*
X96827087Y-121143763D01*
X96914134Y-120933612D01*
X96917183Y-120924227D01*
X96970285Y-120703046D01*
X96971828Y-120693299D01*
X96989675Y-120466530D01*
X96989675Y-120456670D01*
X96971828Y-120229901D01*
X96970285Y-120220154D01*
X96917183Y-119998973D01*
X96914134Y-119989588D01*
X96827087Y-119779437D01*
X96822605Y-119770642D01*
X96719968Y-119603155D01*
X96709510Y-119593693D01*
X96700734Y-119597476D01*
X95566495Y-120731715D01*
X95504183Y-120765741D01*
X95433368Y-120760676D01*
X95388305Y-120731715D01*
X94257110Y-119600520D01*
X94244730Y-119593760D01*
X94237080Y-119599487D01*
X94132195Y-119770642D01*
X94127713Y-119779437D01*
X94040666Y-119989588D01*
X94037617Y-119998973D01*
X93984515Y-120220154D01*
X93982972Y-120229901D01*
X93965125Y-120456670D01*
X93965125Y-120466530D01*
X93982972Y-120693299D01*
X93984515Y-120703046D01*
X94037617Y-120924227D01*
X94040666Y-120933612D01*
X94127713Y-121143763D01*
X94132190Y-121152548D01*
X94173319Y-121219665D01*
X94191857Y-121288199D01*
X94170401Y-121355875D01*
X94115761Y-121401208D01*
X94065886Y-121411500D01*
X90388914Y-121411500D01*
X90320793Y-121391498D01*
X90274300Y-121337842D01*
X90264196Y-121267568D01*
X90281481Y-121219665D01*
X90322610Y-121152548D01*
X90327087Y-121143763D01*
X90414134Y-120933612D01*
X90417183Y-120924227D01*
X90470285Y-120703046D01*
X90471828Y-120693299D01*
X90489675Y-120466530D01*
X90489675Y-120456670D01*
X90471828Y-120229901D01*
X90470285Y-120220154D01*
X90417183Y-119998973D01*
X90414134Y-119989588D01*
X90327087Y-119779437D01*
X90322605Y-119770642D01*
X90219968Y-119603155D01*
X90209510Y-119593693D01*
X90200734Y-119597476D01*
X89066495Y-120731715D01*
X89004183Y-120765741D01*
X88933368Y-120760676D01*
X88888305Y-120731715D01*
X87757110Y-119600520D01*
X87744730Y-119593760D01*
X87737080Y-119599487D01*
X87632195Y-119770642D01*
X87627713Y-119779437D01*
X87540666Y-119989588D01*
X87537617Y-119998973D01*
X87484515Y-120220154D01*
X87482972Y-120229901D01*
X87465125Y-120456670D01*
X87465125Y-120466530D01*
X87482972Y-120693299D01*
X87484515Y-120703046D01*
X87537617Y-120924227D01*
X87540666Y-120933612D01*
X87627713Y-121143763D01*
X87632190Y-121152548D01*
X87673319Y-121219665D01*
X87691857Y-121288199D01*
X87670401Y-121355875D01*
X87615761Y-121401208D01*
X87565886Y-121411500D01*
X76834151Y-121411500D01*
X76766030Y-121391498D01*
X76719537Y-121337842D01*
X76708151Y-121285569D01*
X76707385Y-119894078D01*
X76727350Y-119825947D01*
X76780980Y-119779424D01*
X76851248Y-119769282D01*
X76886635Y-119779814D01*
X76902084Y-119787018D01*
X77002072Y-119833643D01*
X77033804Y-119848440D01*
X77039112Y-119849862D01*
X77039114Y-119849863D01*
X77104949Y-119867503D01*
X77248537Y-119905978D01*
X77470000Y-119925353D01*
X77691463Y-119905978D01*
X77835051Y-119867503D01*
X77900886Y-119849863D01*
X77900888Y-119849862D01*
X77906196Y-119848440D01*
X77911178Y-119846117D01*
X78102690Y-119756814D01*
X78102695Y-119756811D01*
X78107677Y-119754488D01*
X78232740Y-119666918D01*
X78285270Y-119630136D01*
X78285273Y-119630134D01*
X78289781Y-119626977D01*
X78446977Y-119469781D01*
X78505246Y-119386565D01*
X78571331Y-119292185D01*
X78571332Y-119292183D01*
X78574488Y-119287676D01*
X78576811Y-119282694D01*
X78576814Y-119282689D01*
X78625805Y-119177627D01*
X78672723Y-119124342D01*
X78741000Y-119104881D01*
X78808960Y-119125423D01*
X78854195Y-119177627D01*
X78903186Y-119282689D01*
X78903189Y-119282694D01*
X78905512Y-119287676D01*
X78908668Y-119292183D01*
X78908669Y-119292185D01*
X78974755Y-119386565D01*
X79033023Y-119469781D01*
X79190219Y-119626977D01*
X79194727Y-119630134D01*
X79194730Y-119630136D01*
X79247260Y-119666918D01*
X79372323Y-119754488D01*
X79377305Y-119756811D01*
X79377310Y-119756814D01*
X79568822Y-119846117D01*
X79573804Y-119848440D01*
X79579112Y-119849862D01*
X79579114Y-119849863D01*
X79644949Y-119867503D01*
X79788537Y-119905978D01*
X80010000Y-119925353D01*
X80231463Y-119905978D01*
X80375051Y-119867503D01*
X80440886Y-119849863D01*
X80440888Y-119849862D01*
X80446196Y-119848440D01*
X80451178Y-119846117D01*
X80642690Y-119756814D01*
X80642695Y-119756811D01*
X80647677Y-119754488D01*
X80772740Y-119666918D01*
X80825270Y-119630136D01*
X80825273Y-119630134D01*
X80829781Y-119626977D01*
X80986977Y-119469781D01*
X81045246Y-119386565D01*
X81111331Y-119292185D01*
X81111332Y-119292183D01*
X81114488Y-119287676D01*
X81116811Y-119282694D01*
X81116814Y-119282689D01*
X81141621Y-119229490D01*
X88109493Y-119229490D01*
X88113276Y-119238266D01*
X88964588Y-120089578D01*
X88978532Y-120097192D01*
X88980365Y-120097061D01*
X88986980Y-120092810D01*
X89838480Y-119241310D01*
X89844934Y-119229490D01*
X94609493Y-119229490D01*
X94613276Y-119238266D01*
X95464588Y-120089578D01*
X95478532Y-120097192D01*
X95480365Y-120097061D01*
X95486980Y-120092810D01*
X96338480Y-119241310D01*
X96345240Y-119228930D01*
X96339513Y-119221280D01*
X96168358Y-119116395D01*
X96159563Y-119111913D01*
X95949412Y-119024866D01*
X95940027Y-119021817D01*
X95718846Y-118968715D01*
X95709099Y-118967172D01*
X95482330Y-118949325D01*
X95472470Y-118949325D01*
X95245701Y-118967172D01*
X95235954Y-118968715D01*
X95014773Y-119021817D01*
X95005388Y-119024866D01*
X94795237Y-119111913D01*
X94786442Y-119116395D01*
X94618955Y-119219032D01*
X94609493Y-119229490D01*
X89844934Y-119229490D01*
X89845240Y-119228930D01*
X89839513Y-119221280D01*
X89668358Y-119116395D01*
X89659563Y-119111913D01*
X89449412Y-119024866D01*
X89440027Y-119021817D01*
X89218846Y-118968715D01*
X89209099Y-118967172D01*
X88982330Y-118949325D01*
X88972470Y-118949325D01*
X88745701Y-118967172D01*
X88735954Y-118968715D01*
X88514773Y-119021817D01*
X88505388Y-119024866D01*
X88295237Y-119111913D01*
X88286442Y-119116395D01*
X88118955Y-119219032D01*
X88109493Y-119229490D01*
X81141621Y-119229490D01*
X81206117Y-119091178D01*
X81206118Y-119091177D01*
X81208440Y-119086196D01*
X81230527Y-119003766D01*
X81263138Y-118947283D01*
X82221407Y-117989015D01*
X82283717Y-117954991D01*
X82354533Y-117960056D01*
X82411368Y-118002603D01*
X82436179Y-118069123D01*
X82436500Y-118078112D01*
X82436500Y-118128600D01*
X82436837Y-118131846D01*
X82436837Y-118131850D01*
X82445341Y-118213804D01*
X82447474Y-118234366D01*
X82449655Y-118240902D01*
X82449655Y-118240904D01*
X82487022Y-118352906D01*
X82503450Y-118402146D01*
X82596522Y-118552548D01*
X82721697Y-118677505D01*
X82727927Y-118681345D01*
X82727928Y-118681346D01*
X82865090Y-118765894D01*
X82872262Y-118770315D01*
X82952005Y-118796764D01*
X83033611Y-118823832D01*
X83033613Y-118823832D01*
X83040139Y-118825997D01*
X83046975Y-118826697D01*
X83046978Y-118826698D01*
X83090031Y-118831109D01*
X83144600Y-118836700D01*
X84495400Y-118836700D01*
X84498646Y-118836363D01*
X84498650Y-118836363D01*
X84594308Y-118826438D01*
X84594312Y-118826437D01*
X84601166Y-118825726D01*
X84607702Y-118823545D01*
X84607704Y-118823545D01*
X84739806Y-118779472D01*
X84768946Y-118769750D01*
X84919348Y-118676678D01*
X84940044Y-118655946D01*
X85026171Y-118569669D01*
X85088454Y-118535590D01*
X85159274Y-118540593D01*
X85204362Y-118569514D01*
X85287097Y-118652105D01*
X85293327Y-118655945D01*
X85293328Y-118655946D01*
X85430490Y-118740494D01*
X85437662Y-118744915D01*
X85500912Y-118765894D01*
X85599011Y-118798432D01*
X85599013Y-118798432D01*
X85605539Y-118800597D01*
X85612375Y-118801297D01*
X85612378Y-118801298D01*
X85655431Y-118805709D01*
X85710000Y-118811300D01*
X87060800Y-118811300D01*
X87064046Y-118810963D01*
X87064050Y-118810963D01*
X87159708Y-118801038D01*
X87159712Y-118801037D01*
X87166566Y-118800326D01*
X87173102Y-118798145D01*
X87173104Y-118798145D01*
X87305206Y-118754072D01*
X87334346Y-118744350D01*
X87484748Y-118651278D01*
X87609705Y-118526103D01*
X87618888Y-118511206D01*
X87698675Y-118381768D01*
X87698676Y-118381766D01*
X87702515Y-118375538D01*
X87706342Y-118364000D01*
X100965896Y-118364000D01*
X100966586Y-118370565D01*
X100983994Y-118536189D01*
X100985858Y-118553928D01*
X101044873Y-118735556D01*
X101140360Y-118900944D01*
X101268147Y-119042866D01*
X101353503Y-119104881D01*
X101381777Y-119125423D01*
X101422648Y-119155118D01*
X101428676Y-119157802D01*
X101428678Y-119157803D01*
X101571251Y-119221280D01*
X101597112Y-119232794D01*
X101690512Y-119252647D01*
X101777456Y-119271128D01*
X101777461Y-119271128D01*
X101783913Y-119272500D01*
X101839805Y-119272500D01*
X101907926Y-119292502D01*
X101928901Y-119309405D01*
X102391753Y-119772258D01*
X102399287Y-119780537D01*
X102403400Y-119787018D01*
X102453051Y-119833643D01*
X102455893Y-119836398D01*
X102475630Y-119856135D01*
X102478827Y-119858615D01*
X102487847Y-119866318D01*
X102520079Y-119896586D01*
X102527025Y-119900405D01*
X102527028Y-119900407D01*
X102537834Y-119906348D01*
X102554353Y-119917199D01*
X102570359Y-119929614D01*
X102577628Y-119932759D01*
X102577632Y-119932762D01*
X102610937Y-119947174D01*
X102621587Y-119952391D01*
X102660340Y-119973695D01*
X102668015Y-119975666D01*
X102668016Y-119975666D01*
X102679962Y-119978733D01*
X102698667Y-119985137D01*
X102717255Y-119993181D01*
X102725078Y-119994420D01*
X102725088Y-119994423D01*
X102760924Y-120000099D01*
X102772544Y-120002505D01*
X102807689Y-120011528D01*
X102815370Y-120013500D01*
X102835624Y-120013500D01*
X102855334Y-120015051D01*
X102875343Y-120018220D01*
X102883235Y-120017474D01*
X102919361Y-120014059D01*
X102931219Y-120013500D01*
X114531600Y-120013500D01*
X114599721Y-120033502D01*
X114618947Y-120049843D01*
X114619220Y-120049540D01*
X114624132Y-120053963D01*
X114628547Y-120058866D01*
X114783048Y-120171118D01*
X114789076Y-120173802D01*
X114789078Y-120173803D01*
X114893185Y-120220154D01*
X114957512Y-120248794D01*
X115050912Y-120268647D01*
X115137856Y-120287128D01*
X115137861Y-120287128D01*
X115144313Y-120288500D01*
X115335287Y-120288500D01*
X115341739Y-120287128D01*
X115341744Y-120287128D01*
X115428688Y-120268647D01*
X115522088Y-120248794D01*
X115586415Y-120220154D01*
X115690522Y-120173803D01*
X115690524Y-120173802D01*
X115696552Y-120171118D01*
X115851053Y-120058866D01*
X115887651Y-120018220D01*
X115974421Y-119921852D01*
X115974422Y-119921851D01*
X115978840Y-119916944D01*
X116074327Y-119751556D01*
X116133342Y-119569928D01*
X116153304Y-119380000D01*
X116144074Y-119292185D01*
X116134032Y-119196635D01*
X116134032Y-119196633D01*
X116133342Y-119190072D01*
X116074327Y-119008444D01*
X115978840Y-118843056D01*
X115949952Y-118810972D01*
X115855475Y-118706045D01*
X115855474Y-118706044D01*
X115851053Y-118701134D01*
X115696552Y-118588882D01*
X115690524Y-118586198D01*
X115690522Y-118586197D01*
X115528119Y-118513891D01*
X115528118Y-118513891D01*
X115522088Y-118511206D01*
X115428687Y-118491353D01*
X115341744Y-118472872D01*
X115341739Y-118472872D01*
X115335287Y-118471500D01*
X115144313Y-118471500D01*
X115137861Y-118472872D01*
X115137856Y-118472872D01*
X115050913Y-118491353D01*
X114957512Y-118511206D01*
X114951482Y-118513891D01*
X114951481Y-118513891D01*
X114789078Y-118586197D01*
X114789076Y-118586198D01*
X114783048Y-118588882D01*
X114777707Y-118592762D01*
X114777706Y-118592763D01*
X114697168Y-118651278D01*
X114628547Y-118701134D01*
X114624132Y-118706037D01*
X114619220Y-118710460D01*
X114618095Y-118709211D01*
X114564786Y-118742051D01*
X114531600Y-118746500D01*
X114135037Y-118746500D01*
X114066916Y-118726498D01*
X114020423Y-118672842D01*
X114010319Y-118602568D01*
X114041400Y-118536192D01*
X114124640Y-118443744D01*
X114220127Y-118278356D01*
X114279142Y-118096728D01*
X114282044Y-118069123D01*
X114298414Y-117913365D01*
X114299104Y-117906800D01*
X114286644Y-117788252D01*
X114279832Y-117723435D01*
X114279832Y-117723433D01*
X114279142Y-117716872D01*
X114220127Y-117535244D01*
X114214275Y-117525107D01*
X114170439Y-117449182D01*
X114124640Y-117369856D01*
X114051463Y-117288585D01*
X114020747Y-117224579D01*
X114019100Y-117204276D01*
X114019100Y-115528994D01*
X114039102Y-115460873D01*
X114056005Y-115439899D01*
X114123499Y-115372405D01*
X114185811Y-115338379D01*
X114212594Y-115335500D01*
X114268487Y-115335500D01*
X114274939Y-115334128D01*
X114274944Y-115334128D01*
X114361887Y-115315647D01*
X114455288Y-115295794D01*
X114476563Y-115286322D01*
X114623722Y-115220803D01*
X114623724Y-115220802D01*
X114629752Y-115218118D01*
X114784253Y-115105866D01*
X114800046Y-115088326D01*
X114907621Y-114968852D01*
X114907622Y-114968851D01*
X114912040Y-114963944D01*
X114981087Y-114844351D01*
X115004223Y-114804279D01*
X115004224Y-114804278D01*
X115007527Y-114798556D01*
X115066542Y-114616928D01*
X115067899Y-114604022D01*
X115085814Y-114433565D01*
X115086504Y-114427000D01*
X115066542Y-114237072D01*
X115007527Y-114055444D01*
X115001742Y-114045423D01*
X114953684Y-113962185D01*
X114912040Y-113890056D01*
X114872050Y-113845642D01*
X114788675Y-113753045D01*
X114788674Y-113753044D01*
X114784253Y-113748134D01*
X114664993Y-113661486D01*
X114635094Y-113639763D01*
X114635093Y-113639762D01*
X114629752Y-113635882D01*
X114623724Y-113633198D01*
X114623722Y-113633197D01*
X114461319Y-113560891D01*
X114461318Y-113560891D01*
X114455288Y-113558206D01*
X114361888Y-113538353D01*
X114274944Y-113519872D01*
X114274939Y-113519872D01*
X114268487Y-113518500D01*
X114077513Y-113518500D01*
X114071061Y-113519872D01*
X114071056Y-113519872D01*
X113984112Y-113538353D01*
X113890712Y-113558206D01*
X113884682Y-113560891D01*
X113884681Y-113560891D01*
X113722278Y-113633197D01*
X113722276Y-113633198D01*
X113716248Y-113635882D01*
X113710907Y-113639762D01*
X113710906Y-113639763D01*
X113681007Y-113661486D01*
X113561747Y-113748134D01*
X113557326Y-113753044D01*
X113557325Y-113753045D01*
X113473951Y-113845642D01*
X113433960Y-113890056D01*
X113392316Y-113962185D01*
X113344259Y-114045423D01*
X113338473Y-114055444D01*
X113279458Y-114237072D01*
X113264280Y-114381488D01*
X113262093Y-114402292D01*
X113235080Y-114467949D01*
X113225879Y-114478217D01*
X113108742Y-114595353D01*
X112993342Y-114710753D01*
X112985063Y-114718287D01*
X112978582Y-114722400D01*
X112935348Y-114768440D01*
X112931957Y-114772051D01*
X112929202Y-114774893D01*
X112909465Y-114794630D01*
X112906985Y-114797827D01*
X112899282Y-114806847D01*
X112869014Y-114839079D01*
X112865195Y-114846025D01*
X112865193Y-114846028D01*
X112859252Y-114856834D01*
X112848401Y-114873353D01*
X112835986Y-114889359D01*
X112832841Y-114896628D01*
X112832838Y-114896632D01*
X112818426Y-114929937D01*
X112813209Y-114940587D01*
X112791905Y-114979340D01*
X112789934Y-114987015D01*
X112789934Y-114987016D01*
X112786867Y-114998962D01*
X112780463Y-115017666D01*
X112772419Y-115036255D01*
X112771180Y-115044078D01*
X112771177Y-115044088D01*
X112765501Y-115079924D01*
X112763095Y-115091544D01*
X112752100Y-115134370D01*
X112752100Y-115154624D01*
X112750549Y-115174334D01*
X112747380Y-115194343D01*
X112748126Y-115202235D01*
X112751541Y-115238361D01*
X112752100Y-115250219D01*
X112752100Y-117204276D01*
X112732098Y-117272397D01*
X112719742Y-117288579D01*
X112646560Y-117369856D01*
X112600761Y-117449182D01*
X112556926Y-117525107D01*
X112551073Y-117535244D01*
X112492058Y-117716872D01*
X112491368Y-117723433D01*
X112491368Y-117723435D01*
X112484556Y-117788252D01*
X112472096Y-117906800D01*
X112472786Y-117913365D01*
X112489157Y-118069123D01*
X112492058Y-118096728D01*
X112551073Y-118278356D01*
X112646560Y-118443744D01*
X112729800Y-118536192D01*
X112760516Y-118600197D01*
X112751752Y-118670651D01*
X112706290Y-118725182D01*
X112636163Y-118746500D01*
X103209994Y-118746500D01*
X103141873Y-118726498D01*
X103120899Y-118709595D01*
X102826522Y-118415218D01*
X102792496Y-118352906D01*
X102790307Y-118339293D01*
X102773632Y-118180635D01*
X102773632Y-118180633D01*
X102772942Y-118174072D01*
X102713927Y-117992444D01*
X102692304Y-117954991D01*
X102621741Y-117832774D01*
X102618440Y-117827056D01*
X102500983Y-117696606D01*
X102495075Y-117690045D01*
X102495074Y-117690044D01*
X102490653Y-117685134D01*
X102336152Y-117572882D01*
X102330124Y-117570198D01*
X102330122Y-117570197D01*
X102167719Y-117497891D01*
X102167718Y-117497891D01*
X102161688Y-117495206D01*
X102063696Y-117474377D01*
X101981344Y-117456872D01*
X101981339Y-117456872D01*
X101974887Y-117455500D01*
X101783913Y-117455500D01*
X101777461Y-117456872D01*
X101777456Y-117456872D01*
X101695104Y-117474377D01*
X101597112Y-117495206D01*
X101591082Y-117497891D01*
X101591081Y-117497891D01*
X101428678Y-117570197D01*
X101428676Y-117570198D01*
X101422648Y-117572882D01*
X101268147Y-117685134D01*
X101263726Y-117690044D01*
X101263725Y-117690045D01*
X101257818Y-117696606D01*
X101140360Y-117827056D01*
X101137059Y-117832774D01*
X101066497Y-117954991D01*
X101044873Y-117992444D01*
X100985858Y-118174072D01*
X100985168Y-118180633D01*
X100985168Y-118180635D01*
X100980242Y-118227508D01*
X100965896Y-118364000D01*
X87706342Y-118364000D01*
X87747171Y-118240904D01*
X87756032Y-118214189D01*
X87756032Y-118214187D01*
X87758197Y-118207661D01*
X87760709Y-118183149D01*
X87763743Y-118153528D01*
X87768900Y-118103200D01*
X87768900Y-117202400D01*
X87768511Y-117198651D01*
X87768531Y-117198541D01*
X87768395Y-117195908D01*
X87769023Y-117195876D01*
X87781384Y-117128832D01*
X87829961Y-117077055D01*
X87898819Y-117059760D01*
X87966096Y-117082439D01*
X87975664Y-117089846D01*
X88028684Y-117135129D01*
X88084225Y-117182566D01*
X88084229Y-117182569D01*
X88087984Y-117185776D01*
X88092192Y-117188355D01*
X88092198Y-117188359D01*
X88216718Y-117264665D01*
X88290437Y-117309840D01*
X88295007Y-117311733D01*
X88295011Y-117311735D01*
X88505233Y-117398811D01*
X88509806Y-117400705D01*
X88590009Y-117419960D01*
X88735876Y-117454980D01*
X88735882Y-117454981D01*
X88740689Y-117456135D01*
X88977400Y-117474765D01*
X89214111Y-117456135D01*
X89218918Y-117454981D01*
X89218924Y-117454980D01*
X89364791Y-117419960D01*
X89444994Y-117400705D01*
X89449567Y-117398811D01*
X89659789Y-117311735D01*
X89659793Y-117311733D01*
X89664363Y-117309840D01*
X89738082Y-117264665D01*
X89862602Y-117188359D01*
X89862608Y-117188355D01*
X89866816Y-117185776D01*
X90047369Y-117031569D01*
X90201576Y-116851016D01*
X90204155Y-116846808D01*
X90204159Y-116846802D01*
X90321533Y-116655265D01*
X90374181Y-116607634D01*
X90428966Y-116595100D01*
X94025834Y-116595100D01*
X94093955Y-116615102D01*
X94133267Y-116655265D01*
X94250641Y-116846802D01*
X94250645Y-116846808D01*
X94253224Y-116851016D01*
X94407431Y-117031569D01*
X94587984Y-117185776D01*
X94592192Y-117188355D01*
X94592198Y-117188359D01*
X94716718Y-117264665D01*
X94790437Y-117309840D01*
X94795007Y-117311733D01*
X94795011Y-117311735D01*
X95005233Y-117398811D01*
X95009806Y-117400705D01*
X95090009Y-117419960D01*
X95235876Y-117454980D01*
X95235882Y-117454981D01*
X95240689Y-117456135D01*
X95477400Y-117474765D01*
X95714111Y-117456135D01*
X95718918Y-117454981D01*
X95718924Y-117454980D01*
X95864791Y-117419960D01*
X95944994Y-117400705D01*
X95949567Y-117398811D01*
X96159789Y-117311735D01*
X96159793Y-117311733D01*
X96164363Y-117309840D01*
X96238082Y-117264665D01*
X96362602Y-117188359D01*
X96362608Y-117188355D01*
X96366816Y-117185776D01*
X96547369Y-117031569D01*
X96701576Y-116851016D01*
X96704155Y-116846808D01*
X96704159Y-116846802D01*
X96823054Y-116652783D01*
X96825640Y-116648563D01*
X96842594Y-116607634D01*
X96914611Y-116433767D01*
X96914612Y-116433765D01*
X96916505Y-116429194D01*
X96971935Y-116198311D01*
X96990565Y-115961600D01*
X96971935Y-115724889D01*
X96966272Y-115701298D01*
X96917660Y-115498818D01*
X96916505Y-115494006D01*
X96907524Y-115472324D01*
X96827535Y-115279211D01*
X96827533Y-115279207D01*
X96825640Y-115274637D01*
X96823054Y-115270417D01*
X96704159Y-115076398D01*
X96704155Y-115076392D01*
X96701576Y-115072184D01*
X96547369Y-114891631D01*
X96366816Y-114737424D01*
X96362608Y-114734845D01*
X96362602Y-114734841D01*
X96168583Y-114615946D01*
X96164363Y-114613360D01*
X96159793Y-114611467D01*
X96159789Y-114611465D01*
X95949567Y-114524389D01*
X95949565Y-114524388D01*
X95944994Y-114522495D01*
X95838658Y-114496966D01*
X95718924Y-114468220D01*
X95718918Y-114468219D01*
X95714111Y-114467065D01*
X95477400Y-114448435D01*
X95240689Y-114467065D01*
X95235882Y-114468219D01*
X95235876Y-114468220D01*
X95160797Y-114486245D01*
X95116713Y-114496829D01*
X95045806Y-114493282D01*
X94988072Y-114451962D01*
X94961842Y-114385989D01*
X94961300Y-114374310D01*
X94961300Y-113040400D01*
X94960963Y-113037150D01*
X94951038Y-112941492D01*
X94951037Y-112941488D01*
X94950326Y-112934634D01*
X94930798Y-112876100D01*
X94896668Y-112773802D01*
X94894350Y-112766854D01*
X94801278Y-112616452D01*
X94676103Y-112491495D01*
X94647249Y-112473709D01*
X94531768Y-112402525D01*
X94531766Y-112402524D01*
X94525538Y-112398685D01*
X94461600Y-112377478D01*
X94403240Y-112337048D01*
X94376003Y-112271484D01*
X94388536Y-112201602D01*
X94422512Y-112159530D01*
X94647776Y-111979156D01*
X96133712Y-110789330D01*
X98320213Y-109038545D01*
X98385890Y-109011581D01*
X98398968Y-109010900D01*
X98571287Y-109010900D01*
X98577739Y-109009528D01*
X98577744Y-109009528D01*
X98664688Y-108991047D01*
X98758088Y-108971194D01*
X98773478Y-108964342D01*
X98926522Y-108896203D01*
X98926524Y-108896202D01*
X98932552Y-108893518D01*
X99087053Y-108781266D01*
X99214840Y-108639344D01*
X99291760Y-108506115D01*
X99307023Y-108479679D01*
X99307024Y-108479678D01*
X99310327Y-108473956D01*
X99369342Y-108292328D01*
X99371892Y-108268072D01*
X99388614Y-108108965D01*
X99389304Y-108102400D01*
X99387399Y-108084272D01*
X99370032Y-107919035D01*
X99370032Y-107919033D01*
X99369342Y-107912472D01*
X99310327Y-107730844D01*
X99214840Y-107565456D01*
X99169291Y-107514868D01*
X99091475Y-107428445D01*
X99091474Y-107428444D01*
X99087053Y-107423534D01*
X98964089Y-107334195D01*
X98937894Y-107315163D01*
X98937893Y-107315162D01*
X98932552Y-107311282D01*
X98926524Y-107308598D01*
X98926522Y-107308597D01*
X98764119Y-107236291D01*
X98764118Y-107236291D01*
X98758088Y-107233606D01*
X98651962Y-107211048D01*
X98577744Y-107195272D01*
X98577739Y-107195272D01*
X98571287Y-107193900D01*
X98380313Y-107193900D01*
X98373861Y-107195272D01*
X98373856Y-107195272D01*
X98299638Y-107211048D01*
X98193512Y-107233606D01*
X98187479Y-107236292D01*
X98187473Y-107236294D01*
X98092911Y-107278396D01*
X98022544Y-107287831D01*
X97967601Y-107265226D01*
X97956646Y-107257266D01*
X97922192Y-107232234D01*
X97896494Y-107213563D01*
X97896493Y-107213562D01*
X97891152Y-107209682D01*
X97890602Y-107209437D01*
X97843147Y-107159663D01*
X97829713Y-107089949D01*
X97856102Y-107024039D01*
X97865235Y-107013654D01*
X97927779Y-106949956D01*
X98232249Y-106639865D01*
X98780765Y-106081223D01*
X98842764Y-106046630D01*
X98870672Y-106043500D01*
X102931123Y-106043500D01*
X102999244Y-106063502D01*
X103045737Y-106117158D01*
X103055841Y-106187432D01*
X103050958Y-106208430D01*
X102992458Y-106388472D01*
X102991768Y-106395033D01*
X102991768Y-106395035D01*
X102973186Y-106571835D01*
X102972496Y-106578400D01*
X102992458Y-106768328D01*
X103051473Y-106949956D01*
X103054776Y-106955678D01*
X103054777Y-106955679D01*
X103079831Y-106999073D01*
X103146960Y-107115344D01*
X103151378Y-107120251D01*
X103151379Y-107120252D01*
X103242092Y-107220999D01*
X103274747Y-107257266D01*
X103349093Y-107311282D01*
X103422584Y-107364676D01*
X103429248Y-107369518D01*
X103435276Y-107372202D01*
X103435278Y-107372203D01*
X103597681Y-107444509D01*
X103603712Y-107447194D01*
X103724494Y-107472867D01*
X103763409Y-107481139D01*
X103825883Y-107514868D01*
X103835335Y-107525342D01*
X103961223Y-107681616D01*
X103988380Y-107747213D01*
X103989100Y-107760660D01*
X103989100Y-108136476D01*
X103969098Y-108204597D01*
X103956742Y-108220779D01*
X103883560Y-108302056D01*
X103856220Y-108349409D01*
X103804841Y-108398401D01*
X103735127Y-108411838D01*
X103669216Y-108385452D01*
X103658008Y-108375503D01*
X103112828Y-107830323D01*
X103105394Y-107822210D01*
X103075291Y-107786328D01*
X103022059Y-107748211D01*
X103018197Y-107745332D01*
X102979928Y-107715648D01*
X102966441Y-107705186D01*
X102959171Y-107702040D01*
X102955460Y-107699845D01*
X102951603Y-107697759D01*
X102945155Y-107693142D01*
X102884093Y-107669451D01*
X102879633Y-107667621D01*
X102826822Y-107644768D01*
X102819545Y-107641619D01*
X102811718Y-107640379D01*
X102807563Y-107639172D01*
X102803326Y-107638115D01*
X102795933Y-107635247D01*
X102730917Y-107627488D01*
X102726176Y-107626831D01*
X102661457Y-107616580D01*
X102653566Y-107617326D01*
X102649220Y-107617189D01*
X102644871Y-107617219D01*
X102637002Y-107616280D01*
X102629150Y-107617327D01*
X102629148Y-107617327D01*
X102608561Y-107620072D01*
X102572066Y-107624938D01*
X102567305Y-107625480D01*
X102502108Y-107631643D01*
X102494642Y-107634331D01*
X102489699Y-107635436D01*
X102478869Y-107637365D01*
X102082035Y-107690276D01*
X101730059Y-107737206D01*
X101659892Y-107726382D01*
X101639346Y-107714248D01*
X101602949Y-107687804D01*
X101574152Y-107666882D01*
X101568124Y-107664198D01*
X101568122Y-107664197D01*
X101405719Y-107591891D01*
X101405718Y-107591891D01*
X101399688Y-107589206D01*
X101287954Y-107565456D01*
X101219344Y-107550872D01*
X101219339Y-107550872D01*
X101212887Y-107549500D01*
X101021913Y-107549500D01*
X101015461Y-107550872D01*
X101015456Y-107550872D01*
X100946846Y-107565456D01*
X100835112Y-107589206D01*
X100829082Y-107591891D01*
X100829081Y-107591891D01*
X100666678Y-107664197D01*
X100666676Y-107664198D01*
X100660648Y-107666882D01*
X100655307Y-107670762D01*
X100655306Y-107670763D01*
X100614651Y-107700301D01*
X100506147Y-107779134D01*
X100501726Y-107784044D01*
X100501725Y-107784045D01*
X100440247Y-107852324D01*
X100378360Y-107921056D01*
X100282873Y-108086444D01*
X100223858Y-108268072D01*
X100223168Y-108274633D01*
X100223168Y-108274635D01*
X100208225Y-108416814D01*
X100203896Y-108458000D01*
X100223858Y-108647928D01*
X100282873Y-108829556D01*
X100286176Y-108835278D01*
X100286177Y-108835279D01*
X100287099Y-108836876D01*
X100378360Y-108994944D01*
X100382778Y-108999851D01*
X100382779Y-108999852D01*
X100448673Y-109073035D01*
X100506147Y-109136866D01*
X100660648Y-109249118D01*
X100666676Y-109251802D01*
X100666678Y-109251803D01*
X100829081Y-109324109D01*
X100835112Y-109326794D01*
X100911929Y-109343122D01*
X101015456Y-109365128D01*
X101015461Y-109365128D01*
X101021913Y-109366500D01*
X101212887Y-109366500D01*
X101219339Y-109365128D01*
X101219344Y-109365128D01*
X101322871Y-109343122D01*
X101399688Y-109326794D01*
X101405719Y-109324109D01*
X101568122Y-109251803D01*
X101568124Y-109251802D01*
X101574152Y-109249118D01*
X101728653Y-109136866D01*
X101793462Y-109064888D01*
X101821707Y-109033519D01*
X101882153Y-108996279D01*
X101898686Y-108992935D01*
X102353096Y-108932347D01*
X102423262Y-108943171D01*
X102458843Y-108968147D01*
X102784624Y-109293928D01*
X102818650Y-109356240D01*
X102813585Y-109427055D01*
X102771038Y-109483891D01*
X102704518Y-109508702D01*
X102684549Y-109508544D01*
X102645477Y-109505126D01*
X102645475Y-109505126D01*
X102640000Y-109504647D01*
X102418537Y-109524022D01*
X102283382Y-109560237D01*
X102209114Y-109580137D01*
X102209112Y-109580138D01*
X102203804Y-109581560D01*
X102198823Y-109583882D01*
X102198822Y-109583883D01*
X102007311Y-109673186D01*
X102007306Y-109673189D01*
X102002324Y-109675512D01*
X101997817Y-109678668D01*
X101997815Y-109678669D01*
X101824730Y-109799864D01*
X101824727Y-109799866D01*
X101820219Y-109803023D01*
X101663023Y-109960219D01*
X101535512Y-110142324D01*
X101533189Y-110147306D01*
X101533186Y-110147311D01*
X101484195Y-110252373D01*
X101437277Y-110305658D01*
X101369000Y-110325119D01*
X101301040Y-110304577D01*
X101255805Y-110252373D01*
X101206814Y-110147311D01*
X101206811Y-110147306D01*
X101204488Y-110142324D01*
X101076977Y-109960219D01*
X100919781Y-109803023D01*
X100915273Y-109799866D01*
X100915270Y-109799864D01*
X100828214Y-109738907D01*
X100737677Y-109675512D01*
X100732695Y-109673189D01*
X100732690Y-109673186D01*
X100541178Y-109583883D01*
X100541177Y-109583882D01*
X100536196Y-109581560D01*
X100530888Y-109580138D01*
X100530886Y-109580137D01*
X100456618Y-109560237D01*
X100321463Y-109524022D01*
X100100000Y-109504647D01*
X99878537Y-109524022D01*
X99743382Y-109560237D01*
X99669114Y-109580137D01*
X99669112Y-109580138D01*
X99663804Y-109581560D01*
X99658823Y-109583882D01*
X99658822Y-109583883D01*
X99467311Y-109673186D01*
X99467306Y-109673189D01*
X99462324Y-109675512D01*
X99457817Y-109678668D01*
X99457815Y-109678669D01*
X99284730Y-109799864D01*
X99284727Y-109799866D01*
X99280219Y-109803023D01*
X99123023Y-109960219D01*
X98995512Y-110142324D01*
X98993189Y-110147306D01*
X98993186Y-110147311D01*
X98944195Y-110252373D01*
X98901560Y-110343804D01*
X98844022Y-110558537D01*
X98824647Y-110780000D01*
X98844022Y-111001463D01*
X98901560Y-111216196D01*
X98903882Y-111221177D01*
X98903883Y-111221178D01*
X98993186Y-111412689D01*
X98993189Y-111412694D01*
X98995512Y-111417676D01*
X98998668Y-111422183D01*
X98998669Y-111422185D01*
X99093507Y-111557627D01*
X99123023Y-111599781D01*
X99280219Y-111756977D01*
X99284727Y-111760134D01*
X99284730Y-111760136D01*
X99360495Y-111813187D01*
X99462323Y-111884488D01*
X99467305Y-111886811D01*
X99467310Y-111886814D01*
X99572373Y-111935805D01*
X99625658Y-111982722D01*
X99645119Y-112050999D01*
X99624577Y-112118959D01*
X99572373Y-112164195D01*
X99467311Y-112213186D01*
X99467306Y-112213189D01*
X99462324Y-112215512D01*
X99457817Y-112218668D01*
X99457815Y-112218669D01*
X99284730Y-112339864D01*
X99284727Y-112339866D01*
X99280219Y-112343023D01*
X99123023Y-112500219D01*
X99119866Y-112504727D01*
X99119864Y-112504730D01*
X99002905Y-112671766D01*
X98995512Y-112682324D01*
X98993189Y-112687306D01*
X98993186Y-112687311D01*
X98937312Y-112807133D01*
X98901560Y-112883804D01*
X98900138Y-112889112D01*
X98900137Y-112889114D01*
X98889767Y-112927815D01*
X98844022Y-113098537D01*
X98824647Y-113320000D01*
X98844022Y-113541463D01*
X98901560Y-113756196D01*
X98903882Y-113761177D01*
X98903883Y-113761178D01*
X98993186Y-113952689D01*
X98993189Y-113952694D01*
X98995512Y-113957676D01*
X98998668Y-113962183D01*
X98998669Y-113962185D01*
X99093507Y-114097627D01*
X99123023Y-114139781D01*
X99280219Y-114296977D01*
X99284727Y-114300134D01*
X99284730Y-114300136D01*
X99353420Y-114348233D01*
X99462323Y-114424488D01*
X99467305Y-114426811D01*
X99467310Y-114426814D01*
X99572373Y-114475805D01*
X99625658Y-114522722D01*
X99645119Y-114590999D01*
X99624577Y-114658959D01*
X99572373Y-114704195D01*
X99467311Y-114753186D01*
X99467306Y-114753189D01*
X99462324Y-114755512D01*
X99457817Y-114758668D01*
X99457815Y-114758669D01*
X99284730Y-114879864D01*
X99284727Y-114879866D01*
X99280219Y-114883023D01*
X99123023Y-115040219D01*
X99119866Y-115044727D01*
X99119864Y-115044730D01*
X98998669Y-115217815D01*
X98995512Y-115222324D01*
X98993189Y-115227306D01*
X98993186Y-115227311D01*
X98925528Y-115372405D01*
X98901560Y-115423804D01*
X98844022Y-115638537D01*
X98824647Y-115860000D01*
X98844022Y-116081463D01*
X98901560Y-116296196D01*
X98903882Y-116301177D01*
X98903883Y-116301178D01*
X98993186Y-116492689D01*
X98993189Y-116492694D01*
X98995512Y-116497676D01*
X98998668Y-116502183D01*
X98998669Y-116502185D01*
X99119861Y-116675265D01*
X99123023Y-116679781D01*
X99280219Y-116836977D01*
X99284727Y-116840134D01*
X99284730Y-116840136D01*
X99334851Y-116875231D01*
X99462323Y-116964488D01*
X99467305Y-116966811D01*
X99467310Y-116966814D01*
X99613058Y-117034777D01*
X99663804Y-117058440D01*
X99669112Y-117059862D01*
X99669114Y-117059863D01*
X99694951Y-117066786D01*
X99878537Y-117115978D01*
X100100000Y-117135353D01*
X100321463Y-117115978D01*
X100505049Y-117066786D01*
X100530886Y-117059863D01*
X100530888Y-117059862D01*
X100536196Y-117058440D01*
X100586942Y-117034777D01*
X100732690Y-116966814D01*
X100732695Y-116966811D01*
X100737677Y-116964488D01*
X100865149Y-116875231D01*
X100915270Y-116840136D01*
X100915273Y-116840134D01*
X100919781Y-116836977D01*
X101076977Y-116679781D01*
X101080136Y-116675270D01*
X101080140Y-116675265D01*
X101140788Y-116588650D01*
X101196245Y-116544321D01*
X101266864Y-116537012D01*
X101330225Y-116569042D01*
X101366210Y-116630244D01*
X101370001Y-116660920D01*
X101370001Y-116666669D01*
X101370371Y-116673490D01*
X101375895Y-116724352D01*
X101379521Y-116739604D01*
X101424676Y-116860054D01*
X101433214Y-116875649D01*
X101509715Y-116977724D01*
X101522276Y-116990285D01*
X101624351Y-117066786D01*
X101639946Y-117075324D01*
X101760394Y-117120478D01*
X101775649Y-117124105D01*
X101826514Y-117129631D01*
X101833328Y-117130000D01*
X102367885Y-117130000D01*
X102383124Y-117125525D01*
X102384329Y-117124135D01*
X102386000Y-117116452D01*
X102386000Y-117111884D01*
X102894000Y-117111884D01*
X102898475Y-117127123D01*
X102899865Y-117128328D01*
X102907548Y-117129999D01*
X103446669Y-117129999D01*
X103453490Y-117129629D01*
X103504352Y-117124105D01*
X103519604Y-117120479D01*
X103640054Y-117075324D01*
X103655649Y-117066786D01*
X103757724Y-116990285D01*
X103770285Y-116977724D01*
X103846786Y-116875649D01*
X103855324Y-116860054D01*
X103900478Y-116739606D01*
X103904105Y-116724351D01*
X103909631Y-116673486D01*
X103910000Y-116666672D01*
X103910000Y-116132115D01*
X103905525Y-116116876D01*
X103904135Y-116115671D01*
X103896452Y-116114000D01*
X102912115Y-116114000D01*
X102896876Y-116118475D01*
X102895671Y-116119865D01*
X102894000Y-116127548D01*
X102894000Y-117111884D01*
X102386000Y-117111884D01*
X102386000Y-115732000D01*
X102406002Y-115663879D01*
X102459658Y-115617386D01*
X102512000Y-115606000D01*
X103891884Y-115606000D01*
X103907123Y-115601525D01*
X103908328Y-115600135D01*
X103909999Y-115592452D01*
X103909999Y-115053331D01*
X103909629Y-115046510D01*
X103904105Y-114995648D01*
X103900479Y-114980396D01*
X103855324Y-114859946D01*
X103846786Y-114844351D01*
X103770285Y-114742276D01*
X103757724Y-114729715D01*
X103655649Y-114653214D01*
X103640054Y-114644676D01*
X103519606Y-114599522D01*
X103504351Y-114595895D01*
X103453486Y-114590369D01*
X103446672Y-114590000D01*
X103440922Y-114590000D01*
X103372801Y-114569998D01*
X103326308Y-114516342D01*
X103316204Y-114446068D01*
X103345698Y-114381488D01*
X103368651Y-114360787D01*
X103455270Y-114300136D01*
X103455273Y-114300134D01*
X103459781Y-114296977D01*
X103616977Y-114139781D01*
X103646494Y-114097627D01*
X103741331Y-113962185D01*
X103741332Y-113962183D01*
X103744488Y-113957676D01*
X103746811Y-113952694D01*
X103746814Y-113952689D01*
X103836117Y-113761178D01*
X103836118Y-113761177D01*
X103838440Y-113756196D01*
X103895978Y-113541463D01*
X103915353Y-113320000D01*
X103910171Y-113260767D01*
X103924161Y-113191162D01*
X103973560Y-113140170D01*
X104042686Y-113123980D01*
X104109591Y-113147733D01*
X104124787Y-113160691D01*
X104485595Y-113521499D01*
X104519621Y-113583811D01*
X104522500Y-113610594D01*
X104522500Y-114348233D01*
X104521973Y-114359416D01*
X104520298Y-114366909D01*
X104520547Y-114374835D01*
X104520547Y-114374836D01*
X104522438Y-114434986D01*
X104522500Y-114438945D01*
X104522500Y-114466856D01*
X104522997Y-114470790D01*
X104522997Y-114470791D01*
X104523005Y-114470856D01*
X104523938Y-114482693D01*
X104525327Y-114526889D01*
X104530031Y-114543080D01*
X104530978Y-114546339D01*
X104534987Y-114565700D01*
X104536286Y-114575978D01*
X104537526Y-114585797D01*
X104540445Y-114593168D01*
X104540445Y-114593170D01*
X104553804Y-114626912D01*
X104557649Y-114638142D01*
X104565027Y-114663538D01*
X104569982Y-114680593D01*
X104574015Y-114687412D01*
X104574017Y-114687417D01*
X104580293Y-114698028D01*
X104588988Y-114715776D01*
X104596448Y-114734617D01*
X104601110Y-114741033D01*
X104601110Y-114741034D01*
X104622436Y-114770387D01*
X104628952Y-114780307D01*
X104639745Y-114798556D01*
X104651458Y-114818362D01*
X104665779Y-114832683D01*
X104678619Y-114847716D01*
X104690528Y-114864107D01*
X104718104Y-114886920D01*
X104724605Y-114892298D01*
X104733384Y-114900288D01*
X105565095Y-115731999D01*
X105599121Y-115794311D01*
X105602000Y-115821094D01*
X105602000Y-116378776D01*
X105581998Y-116446897D01*
X105569642Y-116463079D01*
X105496460Y-116544356D01*
X105468218Y-116593272D01*
X105420880Y-116675265D01*
X105400973Y-116709744D01*
X105341958Y-116891372D01*
X105341268Y-116897933D01*
X105341268Y-116897935D01*
X105334605Y-116961331D01*
X105321996Y-117081300D01*
X105322686Y-117087865D01*
X105340039Y-117252965D01*
X105341958Y-117271228D01*
X105400973Y-117452856D01*
X105496460Y-117618244D01*
X105624247Y-117760166D01*
X105648279Y-117777626D01*
X105769462Y-117865671D01*
X105778748Y-117872418D01*
X105784776Y-117875102D01*
X105784778Y-117875103D01*
X105947181Y-117947409D01*
X105953212Y-117950094D01*
X106046612Y-117969947D01*
X106133556Y-117988428D01*
X106133561Y-117988428D01*
X106140013Y-117989800D01*
X106330987Y-117989800D01*
X106337439Y-117988428D01*
X106337444Y-117988428D01*
X106424388Y-117969947D01*
X106517788Y-117950094D01*
X106523819Y-117947409D01*
X106686222Y-117875103D01*
X106686224Y-117875102D01*
X106692252Y-117872418D01*
X106701539Y-117865671D01*
X106822721Y-117777626D01*
X106846753Y-117760166D01*
X106974540Y-117618244D01*
X107070027Y-117452856D01*
X107129042Y-117271228D01*
X107130962Y-117252965D01*
X107148314Y-117087865D01*
X107149004Y-117081300D01*
X107136395Y-116961331D01*
X107133205Y-116930979D01*
X107145977Y-116861141D01*
X107194479Y-116809294D01*
X107263312Y-116791900D01*
X107330622Y-116814481D01*
X107347610Y-116828714D01*
X107968078Y-117449182D01*
X108002104Y-117511494D01*
X108004292Y-117525103D01*
X108021658Y-117690328D01*
X108080673Y-117871956D01*
X108083976Y-117877678D01*
X108083977Y-117877679D01*
X108108616Y-117920355D01*
X108176160Y-118037344D01*
X108180578Y-118042251D01*
X108180579Y-118042252D01*
X108299270Y-118174072D01*
X108303947Y-118179266D01*
X108352014Y-118214189D01*
X108431682Y-118272071D01*
X108458448Y-118291518D01*
X108464476Y-118294202D01*
X108464478Y-118294203D01*
X108621246Y-118364000D01*
X108632912Y-118369194D01*
X108726313Y-118389047D01*
X108813256Y-118407528D01*
X108813261Y-118407528D01*
X108819713Y-118408900D01*
X109010687Y-118408900D01*
X109017139Y-118407528D01*
X109017144Y-118407528D01*
X109104087Y-118389047D01*
X109197488Y-118369194D01*
X109209154Y-118364000D01*
X109365922Y-118294203D01*
X109365924Y-118294202D01*
X109371952Y-118291518D01*
X109398719Y-118272071D01*
X109478386Y-118214189D01*
X109526453Y-118179266D01*
X109531130Y-118174072D01*
X109649821Y-118042252D01*
X109649822Y-118042251D01*
X109654240Y-118037344D01*
X109721784Y-117920355D01*
X109746423Y-117877679D01*
X109746424Y-117877678D01*
X109749727Y-117871956D01*
X109808742Y-117690328D01*
X109815803Y-117623152D01*
X109828014Y-117506965D01*
X109828704Y-117500400D01*
X109825969Y-117474377D01*
X109809432Y-117317035D01*
X109809432Y-117317033D01*
X109808742Y-117310472D01*
X109749727Y-117128844D01*
X109744898Y-117120479D01*
X109693565Y-117031569D01*
X109654240Y-116963456D01*
X109574454Y-116874844D01*
X109530875Y-116826445D01*
X109530874Y-116826444D01*
X109526453Y-116821534D01*
X109413689Y-116739606D01*
X109377294Y-116713163D01*
X109377293Y-116713162D01*
X109371952Y-116709282D01*
X109365924Y-116706598D01*
X109365922Y-116706597D01*
X109203519Y-116634291D01*
X109203518Y-116634291D01*
X109197488Y-116631606D01*
X109104088Y-116611753D01*
X109017144Y-116593272D01*
X109017139Y-116593272D01*
X109010687Y-116591900D01*
X108954794Y-116591900D01*
X108886673Y-116571898D01*
X108865699Y-116554995D01*
X107350405Y-115039700D01*
X107316379Y-114977388D01*
X107313500Y-114950605D01*
X107313500Y-111607600D01*
X108128696Y-111607600D01*
X108129386Y-111614165D01*
X108145994Y-111772177D01*
X108148658Y-111797528D01*
X108207673Y-111979156D01*
X108210976Y-111984878D01*
X108210977Y-111984879D01*
X108223567Y-112006686D01*
X108303160Y-112144544D01*
X108307578Y-112149451D01*
X108307579Y-112149452D01*
X108417457Y-112271484D01*
X108430947Y-112286466D01*
X108517187Y-112349123D01*
X108567393Y-112385600D01*
X108585448Y-112398718D01*
X108591476Y-112401402D01*
X108591478Y-112401403D01*
X108753881Y-112473709D01*
X108759912Y-112476394D01*
X108853312Y-112496247D01*
X108940256Y-112514728D01*
X108940261Y-112514728D01*
X108946713Y-112516100D01*
X109137687Y-112516100D01*
X109144139Y-112514728D01*
X109144144Y-112514728D01*
X109231087Y-112496247D01*
X109324488Y-112476394D01*
X109330519Y-112473709D01*
X109492922Y-112401403D01*
X109492924Y-112401402D01*
X109498952Y-112398718D01*
X109517008Y-112385600D01*
X109647683Y-112290658D01*
X109653453Y-112286466D01*
X109657868Y-112281563D01*
X109662780Y-112277140D01*
X109663905Y-112278389D01*
X109717214Y-112245549D01*
X109750400Y-112241100D01*
X110947046Y-112241100D01*
X111015167Y-112261102D01*
X111021107Y-112265164D01*
X111085065Y-112311632D01*
X111100048Y-112322518D01*
X111106076Y-112325202D01*
X111106078Y-112325203D01*
X111268481Y-112397509D01*
X111274512Y-112400194D01*
X111367913Y-112420047D01*
X111454856Y-112438528D01*
X111454861Y-112438528D01*
X111461313Y-112439900D01*
X111652287Y-112439900D01*
X111658739Y-112438528D01*
X111658744Y-112438528D01*
X111745215Y-112420148D01*
X111821106Y-112404016D01*
X111891896Y-112409418D01*
X111948528Y-112452235D01*
X111973022Y-112518872D01*
X111966419Y-112568337D01*
X110662363Y-116350104D01*
X110654725Y-116372253D01*
X110613609Y-116430132D01*
X110586856Y-116446285D01*
X110572680Y-116452596D01*
X110572677Y-116452598D01*
X110566648Y-116455282D01*
X110412147Y-116567534D01*
X110407726Y-116572444D01*
X110407725Y-116572445D01*
X110307571Y-116683678D01*
X110284360Y-116709456D01*
X110244525Y-116778452D01*
X110210736Y-116836977D01*
X110188873Y-116874844D01*
X110129858Y-117056472D01*
X110129168Y-117063033D01*
X110129168Y-117063035D01*
X110114323Y-117204276D01*
X110109896Y-117246400D01*
X110110586Y-117252965D01*
X110125412Y-117394022D01*
X110129858Y-117436328D01*
X110188873Y-117617956D01*
X110284360Y-117783344D01*
X110288778Y-117788251D01*
X110288779Y-117788252D01*
X110389609Y-117900235D01*
X110412147Y-117925266D01*
X110566648Y-118037518D01*
X110572676Y-118040202D01*
X110572678Y-118040203D01*
X110735081Y-118112509D01*
X110741112Y-118115194D01*
X110819472Y-118131850D01*
X110921456Y-118153528D01*
X110921461Y-118153528D01*
X110927913Y-118154900D01*
X111118887Y-118154900D01*
X111125339Y-118153528D01*
X111125344Y-118153528D01*
X111227328Y-118131850D01*
X111305688Y-118115194D01*
X111311719Y-118112509D01*
X111474122Y-118040203D01*
X111474124Y-118040202D01*
X111480152Y-118037518D01*
X111634653Y-117925266D01*
X111657191Y-117900235D01*
X111758021Y-117788252D01*
X111758022Y-117788251D01*
X111762440Y-117783344D01*
X111857927Y-117617956D01*
X111916942Y-117436328D01*
X111921389Y-117394022D01*
X111936214Y-117252965D01*
X111936904Y-117246400D01*
X111932477Y-117204276D01*
X111917632Y-117063035D01*
X111917632Y-117063033D01*
X111916942Y-117056472D01*
X111857927Y-116874844D01*
X111857099Y-116873409D01*
X111847907Y-116804865D01*
X111853332Y-116782905D01*
X111854508Y-116779497D01*
X113374656Y-112371064D01*
X113376385Y-112366826D01*
X113378442Y-112363604D01*
X113383190Y-112349123D01*
X113394868Y-112313500D01*
X113401581Y-112293024D01*
X113402155Y-112291316D01*
X113413287Y-112259036D01*
X113414045Y-112255414D01*
X113415578Y-112250334D01*
X113425835Y-112219049D01*
X113425836Y-112219044D01*
X113428306Y-112211510D01*
X113430035Y-112185140D01*
X113432439Y-112167561D01*
X113433144Y-112164195D01*
X113437855Y-112141694D01*
X113437389Y-112131331D01*
X113436146Y-112103676D01*
X113436289Y-112089773D01*
X113587634Y-109781759D01*
X114742666Y-109781759D01*
X114742819Y-109786147D01*
X114742819Y-109786153D01*
X114752275Y-110056920D01*
X114752884Y-110074365D01*
X114753647Y-110078689D01*
X114753647Y-110078694D01*
X114777690Y-110215046D01*
X114803726Y-110362700D01*
X114805081Y-110366871D01*
X114805083Y-110366878D01*
X114892839Y-110636963D01*
X114894201Y-110641154D01*
X114896129Y-110645107D01*
X114896131Y-110645112D01*
X114934399Y-110723573D01*
X115022549Y-110904306D01*
X115186271Y-111147035D01*
X115189216Y-111150306D01*
X115189217Y-111150307D01*
X115290058Y-111262302D01*
X115382182Y-111364615D01*
X115606467Y-111552813D01*
X115854761Y-111707964D01*
X116122232Y-111827050D01*
X116126460Y-111828262D01*
X116126459Y-111828262D01*
X116322543Y-111884488D01*
X116403674Y-111907752D01*
X116408024Y-111908363D01*
X116408027Y-111908364D01*
X116514511Y-111923329D01*
X116693608Y-111948500D01*
X116913103Y-111948500D01*
X116915290Y-111948347D01*
X116915292Y-111948347D01*
X117127685Y-111933495D01*
X117127690Y-111933494D01*
X117132070Y-111933188D01*
X117136362Y-111932276D01*
X117136367Y-111932275D01*
X117361186Y-111884488D01*
X117418456Y-111872315D01*
X117422587Y-111870811D01*
X117422592Y-111870810D01*
X117689448Y-111773682D01*
X117689452Y-111773680D01*
X117693582Y-111772177D01*
X117729499Y-111753080D01*
X117818726Y-111705637D01*
X117952095Y-111634724D01*
X117955651Y-111632140D01*
X117955658Y-111632136D01*
X118185399Y-111465219D01*
X118185402Y-111465217D01*
X118188962Y-111462630D01*
X118228722Y-111424235D01*
X118396408Y-111262302D01*
X118399573Y-111259246D01*
X118579828Y-111028529D01*
X118582024Y-111024725D01*
X118582029Y-111024718D01*
X118717930Y-110789330D01*
X118726220Y-110774971D01*
X118835899Y-110503507D01*
X118906729Y-110219420D01*
X118914833Y-110142324D01*
X118936875Y-109932610D01*
X118936875Y-109932607D01*
X118937334Y-109928241D01*
X118937181Y-109923847D01*
X118927270Y-109640032D01*
X118927269Y-109640026D01*
X118927116Y-109635635D01*
X118920066Y-109595649D01*
X118896077Y-109459606D01*
X118876274Y-109347300D01*
X118874919Y-109343129D01*
X118874917Y-109343122D01*
X118787160Y-109073035D01*
X118785799Y-109068846D01*
X118771021Y-109038545D01*
X118701595Y-108896203D01*
X118657451Y-108805694D01*
X118493729Y-108562965D01*
X118477280Y-108544696D01*
X118300765Y-108348658D01*
X118297818Y-108345385D01*
X118073533Y-108157187D01*
X117825239Y-108002036D01*
X117557768Y-107882950D01*
X117276326Y-107802248D01*
X117271976Y-107801637D01*
X117271973Y-107801636D01*
X117165489Y-107786671D01*
X116986392Y-107761500D01*
X116766897Y-107761500D01*
X116764710Y-107761653D01*
X116764708Y-107761653D01*
X116552315Y-107776505D01*
X116552310Y-107776506D01*
X116547930Y-107776812D01*
X116543638Y-107777724D01*
X116543633Y-107777725D01*
X116367229Y-107815221D01*
X116261544Y-107837685D01*
X116257413Y-107839189D01*
X116257408Y-107839190D01*
X115990552Y-107936318D01*
X115990548Y-107936320D01*
X115986418Y-107937823D01*
X115727905Y-108075276D01*
X115724349Y-108077860D01*
X115724342Y-108077864D01*
X115527626Y-108220787D01*
X115491038Y-108247370D01*
X115487874Y-108250426D01*
X115487871Y-108250428D01*
X115446752Y-108290136D01*
X115280427Y-108450754D01*
X115100172Y-108681471D01*
X115097976Y-108685275D01*
X115097971Y-108685282D01*
X115008723Y-108839865D01*
X114953780Y-108935029D01*
X114844101Y-109206493D01*
X114843036Y-109210766D01*
X114843035Y-109210768D01*
X114832804Y-109251803D01*
X114773271Y-109490580D01*
X114772812Y-109494950D01*
X114772811Y-109494954D01*
X114750178Y-109710285D01*
X114742666Y-109781759D01*
X113587634Y-109781759D01*
X113590444Y-109738907D01*
X113614861Y-109672241D01*
X113622538Y-109662842D01*
X113739221Y-109533252D01*
X113739222Y-109533251D01*
X113743640Y-109528344D01*
X113821498Y-109393490D01*
X113835823Y-109368679D01*
X113835824Y-109368678D01*
X113839127Y-109362956D01*
X113898142Y-109181328D01*
X113916055Y-109010900D01*
X113917414Y-108997965D01*
X113918104Y-108991400D01*
X113917414Y-108984835D01*
X113898832Y-108808035D01*
X113898832Y-108808033D01*
X113898142Y-108801472D01*
X113839127Y-108619844D01*
X113743640Y-108454456D01*
X113672551Y-108375503D01*
X113620275Y-108317445D01*
X113620274Y-108317444D01*
X113615853Y-108312534D01*
X113461352Y-108200282D01*
X113455324Y-108197598D01*
X113455322Y-108197597D01*
X113292919Y-108125291D01*
X113292918Y-108125291D01*
X113286888Y-108122606D01*
X113191827Y-108102400D01*
X113106544Y-108084272D01*
X113106539Y-108084272D01*
X113100087Y-108082900D01*
X112909113Y-108082900D01*
X112902661Y-108084272D01*
X112902656Y-108084272D01*
X112817373Y-108102400D01*
X112722312Y-108122606D01*
X112716282Y-108125291D01*
X112716281Y-108125291D01*
X112553878Y-108197597D01*
X112553876Y-108197598D01*
X112547848Y-108200282D01*
X112393347Y-108312534D01*
X112388926Y-108317444D01*
X112388925Y-108317445D01*
X112336650Y-108375503D01*
X112265560Y-108454456D01*
X112170073Y-108619844D01*
X112111058Y-108801472D01*
X112110368Y-108808033D01*
X112110368Y-108808035D01*
X112091786Y-108984835D01*
X112091096Y-108991400D01*
X112091786Y-108997965D01*
X112093146Y-109010900D01*
X112111058Y-109181328D01*
X112170073Y-109362956D01*
X112173376Y-109368678D01*
X112173377Y-109368679D01*
X112187702Y-109393490D01*
X112265560Y-109528344D01*
X112269978Y-109533251D01*
X112269979Y-109533252D01*
X112294276Y-109560237D01*
X112324993Y-109624245D01*
X112326369Y-109652791D01*
X112294269Y-110142324D01*
X112259940Y-110665847D01*
X112259026Y-110679782D01*
X112234609Y-110746447D01*
X112178027Y-110789330D01*
X112107242Y-110794814D01*
X112059235Y-110773473D01*
X112055682Y-110770891D01*
X112038222Y-110758206D01*
X112018894Y-110744163D01*
X112018893Y-110744162D01*
X112013552Y-110740282D01*
X112007524Y-110737598D01*
X112007522Y-110737597D01*
X111845119Y-110665291D01*
X111845118Y-110665291D01*
X111839088Y-110662606D01*
X111738165Y-110641154D01*
X111658744Y-110624272D01*
X111658739Y-110624272D01*
X111652287Y-110622900D01*
X111461313Y-110622900D01*
X111454861Y-110624272D01*
X111454856Y-110624272D01*
X111375435Y-110641154D01*
X111274512Y-110662606D01*
X111268482Y-110665291D01*
X111268481Y-110665291D01*
X111106078Y-110737597D01*
X111106076Y-110737598D01*
X111100048Y-110740282D01*
X111094707Y-110744162D01*
X111094706Y-110744163D01*
X111067410Y-110763995D01*
X110945547Y-110852534D01*
X110873625Y-110932412D01*
X110813182Y-110969650D01*
X110779991Y-110974100D01*
X109750400Y-110974100D01*
X109682279Y-110954098D01*
X109663053Y-110937757D01*
X109662780Y-110938060D01*
X109657868Y-110933637D01*
X109653453Y-110928734D01*
X109543229Y-110848651D01*
X109504294Y-110820363D01*
X109504293Y-110820362D01*
X109498952Y-110816482D01*
X109492924Y-110813798D01*
X109492922Y-110813797D01*
X109330519Y-110741491D01*
X109330518Y-110741491D01*
X109324488Y-110738806D01*
X109230429Y-110718813D01*
X109144144Y-110700472D01*
X109144139Y-110700472D01*
X109137687Y-110699100D01*
X108946713Y-110699100D01*
X108940261Y-110700472D01*
X108940256Y-110700472D01*
X108853971Y-110718813D01*
X108759912Y-110738806D01*
X108753882Y-110741491D01*
X108753881Y-110741491D01*
X108591478Y-110813797D01*
X108591476Y-110813798D01*
X108585448Y-110816482D01*
X108430947Y-110928734D01*
X108426526Y-110933644D01*
X108426525Y-110933645D01*
X108365462Y-111001463D01*
X108303160Y-111070656D01*
X108207673Y-111236044D01*
X108148658Y-111417672D01*
X108128696Y-111607600D01*
X107313500Y-111607600D01*
X107313500Y-109386669D01*
X109220001Y-109386669D01*
X109220371Y-109393490D01*
X109225895Y-109444352D01*
X109229521Y-109459604D01*
X109274676Y-109580054D01*
X109283214Y-109595649D01*
X109359715Y-109697724D01*
X109372276Y-109710285D01*
X109474351Y-109786786D01*
X109489946Y-109795324D01*
X109610394Y-109840478D01*
X109625649Y-109844105D01*
X109676514Y-109849631D01*
X109683328Y-109850000D01*
X110217885Y-109850000D01*
X110233124Y-109845525D01*
X110234329Y-109844135D01*
X110236000Y-109836452D01*
X110236000Y-109831884D01*
X110744000Y-109831884D01*
X110748475Y-109847123D01*
X110749865Y-109848328D01*
X110757548Y-109849999D01*
X111296669Y-109849999D01*
X111303490Y-109849629D01*
X111354352Y-109844105D01*
X111369604Y-109840479D01*
X111490054Y-109795324D01*
X111505649Y-109786786D01*
X111607724Y-109710285D01*
X111620285Y-109697724D01*
X111696786Y-109595649D01*
X111705324Y-109580054D01*
X111750478Y-109459606D01*
X111754105Y-109444351D01*
X111759631Y-109393486D01*
X111760000Y-109386672D01*
X111760000Y-108852115D01*
X111755525Y-108836876D01*
X111754135Y-108835671D01*
X111746452Y-108834000D01*
X110762115Y-108834000D01*
X110746876Y-108838475D01*
X110745671Y-108839865D01*
X110744000Y-108847548D01*
X110744000Y-109831884D01*
X110236000Y-109831884D01*
X110236000Y-108852115D01*
X110231525Y-108836876D01*
X110230135Y-108835671D01*
X110222452Y-108834000D01*
X109238116Y-108834000D01*
X109222877Y-108838475D01*
X109221672Y-108839865D01*
X109220001Y-108847548D01*
X109220001Y-109386669D01*
X107313500Y-109386669D01*
X107313500Y-108612817D01*
X107333502Y-108544696D01*
X107387158Y-108498203D01*
X107457432Y-108488099D01*
X107492751Y-108498623D01*
X107508817Y-108506115D01*
X107508822Y-108506117D01*
X107513804Y-108508440D01*
X107519112Y-108509862D01*
X107519114Y-108509863D01*
X107584949Y-108527503D01*
X107728537Y-108565978D01*
X107950000Y-108585353D01*
X108171463Y-108565978D01*
X108315051Y-108527503D01*
X108380886Y-108509863D01*
X108380888Y-108509862D01*
X108386196Y-108508440D01*
X108407249Y-108498623D01*
X108582690Y-108416814D01*
X108582695Y-108416811D01*
X108587677Y-108414488D01*
X108718158Y-108323124D01*
X108765270Y-108290136D01*
X108765273Y-108290134D01*
X108769781Y-108286977D01*
X108926977Y-108129781D01*
X108940183Y-108110922D01*
X108990787Y-108038651D01*
X109046244Y-107994323D01*
X109116863Y-107987014D01*
X109180224Y-108019045D01*
X109216209Y-108080246D01*
X109220000Y-108110922D01*
X109220000Y-108307885D01*
X109224475Y-108323124D01*
X109225865Y-108324329D01*
X109233548Y-108326000D01*
X111741884Y-108326000D01*
X111757123Y-108321525D01*
X111758328Y-108320135D01*
X111759999Y-108312452D01*
X111759999Y-107773331D01*
X111759629Y-107766510D01*
X111754105Y-107715648D01*
X111750479Y-107700396D01*
X111705324Y-107579946D01*
X111696786Y-107564351D01*
X111620285Y-107462276D01*
X111607724Y-107449715D01*
X111505649Y-107373214D01*
X111490054Y-107364676D01*
X111369606Y-107319522D01*
X111354351Y-107315895D01*
X111303486Y-107310369D01*
X111296672Y-107310000D01*
X111290922Y-107310000D01*
X111222801Y-107289998D01*
X111176308Y-107236342D01*
X111166204Y-107166068D01*
X111195698Y-107101488D01*
X111218651Y-107080787D01*
X111305270Y-107020136D01*
X111305273Y-107020134D01*
X111309781Y-107016977D01*
X111341353Y-106985405D01*
X111403665Y-106951379D01*
X111430448Y-106948500D01*
X121487983Y-106948500D01*
X121507692Y-106950051D01*
X121521590Y-106952252D01*
X121528177Y-106951907D01*
X121528182Y-106951907D01*
X121589880Y-106948673D01*
X121596474Y-106948500D01*
X121617010Y-106948500D01*
X121620282Y-106948156D01*
X121620284Y-106948156D01*
X121637442Y-106946353D01*
X121644016Y-106945836D01*
X121705708Y-106942603D01*
X121705712Y-106942602D01*
X121712303Y-106942257D01*
X121718684Y-106940547D01*
X121718686Y-106940547D01*
X121725891Y-106938617D01*
X121745325Y-106935015D01*
X121752754Y-106934234D01*
X121752763Y-106934232D01*
X121759328Y-106933542D01*
X121824397Y-106912400D01*
X121830699Y-106910533D01*
X121896770Y-106892829D01*
X121909308Y-106886440D01*
X121927574Y-106878875D01*
X121934672Y-106876569D01*
X121934674Y-106876568D01*
X121940956Y-106874527D01*
X122000185Y-106840331D01*
X122005979Y-106837185D01*
X122066930Y-106806129D01*
X122077867Y-106797273D01*
X122094163Y-106786073D01*
X122100624Y-106782343D01*
X122100628Y-106782340D01*
X122106344Y-106779040D01*
X122111250Y-106774623D01*
X122111255Y-106774619D01*
X122157169Y-106733278D01*
X122162184Y-106728994D01*
X122175577Y-106718148D01*
X122178141Y-106716072D01*
X122192656Y-106701557D01*
X122197441Y-106697016D01*
X122243357Y-106655673D01*
X122248266Y-106651253D01*
X122256540Y-106639865D01*
X122269381Y-106624832D01*
X122581032Y-106313181D01*
X122596065Y-106300340D01*
X122602113Y-106295946D01*
X122602114Y-106295945D01*
X122607453Y-106292066D01*
X122653216Y-106241241D01*
X122657757Y-106236456D01*
X122672272Y-106221941D01*
X122683207Y-106208437D01*
X122685194Y-106205984D01*
X122689478Y-106200969D01*
X122730819Y-106155055D01*
X122730823Y-106155050D01*
X122735240Y-106150144D01*
X122738540Y-106144428D01*
X122738543Y-106144424D01*
X122742273Y-106137963D01*
X122753473Y-106121666D01*
X122758175Y-106115860D01*
X122758176Y-106115858D01*
X122762329Y-106110730D01*
X122793386Y-106049777D01*
X122796533Y-106043982D01*
X122827423Y-105990479D01*
X122827424Y-105990478D01*
X122830727Y-105984756D01*
X122835075Y-105971373D01*
X122842641Y-105953107D01*
X122846032Y-105946452D01*
X122849029Y-105940570D01*
X122866729Y-105874515D01*
X122868602Y-105868191D01*
X122887700Y-105809412D01*
X122889742Y-105803128D01*
X122891212Y-105789139D01*
X122894817Y-105769686D01*
X122896747Y-105762485D01*
X122898457Y-105756104D01*
X122900180Y-105723224D01*
X122902036Y-105687815D01*
X122902553Y-105681240D01*
X122904356Y-105664082D01*
X122904700Y-105660810D01*
X122904700Y-105640275D01*
X122904873Y-105633681D01*
X122908107Y-105571983D01*
X122908107Y-105571978D01*
X122908452Y-105565391D01*
X122906251Y-105551493D01*
X122904700Y-105531784D01*
X122904700Y-88675900D01*
X122924702Y-88607779D01*
X122978358Y-88561286D01*
X123030700Y-88549900D01*
X123194334Y-88549900D01*
X123256516Y-88543145D01*
X123392905Y-88492015D01*
X123509461Y-88404661D01*
X123596815Y-88288105D01*
X123647945Y-88151716D01*
X123654700Y-88089534D01*
X123654700Y-84493266D01*
X123647945Y-84431084D01*
X123596815Y-84294695D01*
X123509461Y-84178139D01*
X123392905Y-84090785D01*
X123256516Y-84039655D01*
X123194334Y-84032900D01*
X120798066Y-84032900D01*
X120735884Y-84039655D01*
X120599495Y-84090785D01*
X120482939Y-84178139D01*
X120395585Y-84294695D01*
X120344455Y-84431084D01*
X120337700Y-84493266D01*
X120337700Y-84685500D01*
X120317698Y-84753621D01*
X120264042Y-84800114D01*
X120211700Y-84811500D01*
X111430448Y-84811500D01*
X111362327Y-84791498D01*
X111341353Y-84774595D01*
X111309781Y-84743023D01*
X111305273Y-84739866D01*
X111305270Y-84739864D01*
X111199758Y-84665984D01*
X111127677Y-84615512D01*
X111122695Y-84613189D01*
X111122690Y-84613186D01*
X111017627Y-84564195D01*
X110964342Y-84517278D01*
X110944881Y-84449001D01*
X110965423Y-84381041D01*
X111017627Y-84335805D01*
X111122690Y-84286814D01*
X111122695Y-84286811D01*
X111127677Y-84284488D01*
X111279559Y-84178139D01*
X111305270Y-84160136D01*
X111305273Y-84160134D01*
X111309781Y-84156977D01*
X111466977Y-83999781D01*
X111500745Y-83951556D01*
X111591331Y-83822185D01*
X111591332Y-83822183D01*
X111594488Y-83817676D01*
X111596811Y-83812694D01*
X111596814Y-83812689D01*
X111686117Y-83621178D01*
X111686118Y-83621177D01*
X111688440Y-83616196D01*
X111693872Y-83595926D01*
X111732962Y-83450039D01*
X111745978Y-83401463D01*
X111765353Y-83180000D01*
X111745978Y-82958537D01*
X111694330Y-82765784D01*
X111689863Y-82749114D01*
X111689862Y-82749112D01*
X111688440Y-82743804D01*
X111673239Y-82711206D01*
X111596814Y-82547311D01*
X111596811Y-82547306D01*
X111594488Y-82542324D01*
X111591331Y-82537815D01*
X111470136Y-82364730D01*
X111470134Y-82364727D01*
X111466977Y-82360219D01*
X111309781Y-82203023D01*
X111305273Y-82199866D01*
X111305270Y-82199864D01*
X111206773Y-82130896D01*
X111127677Y-82075512D01*
X111122695Y-82073189D01*
X111122690Y-82073186D01*
X111017627Y-82024195D01*
X110964342Y-81977278D01*
X110944881Y-81909001D01*
X110965423Y-81841041D01*
X111017627Y-81795805D01*
X111122690Y-81746814D01*
X111122695Y-81746811D01*
X111127677Y-81744488D01*
X111309781Y-81616977D01*
X111313672Y-81613086D01*
X111314617Y-81612293D01*
X111379657Y-81583827D01*
X111449762Y-81595043D01*
X111502674Y-81642380D01*
X111520937Y-81695809D01*
X111526457Y-81749006D01*
X111529349Y-81762400D01*
X111580788Y-81916584D01*
X111586961Y-81929762D01*
X111672263Y-82067607D01*
X111681299Y-82079008D01*
X111796029Y-82193539D01*
X111807440Y-82202551D01*
X111945443Y-82287616D01*
X111958624Y-82293763D01*
X112112910Y-82344938D01*
X112126286Y-82347805D01*
X112220638Y-82357472D01*
X112227054Y-82357800D01*
X112414585Y-82357800D01*
X112429824Y-82353325D01*
X112431029Y-82351935D01*
X112432700Y-82344252D01*
X112432700Y-82339684D01*
X112940700Y-82339684D01*
X112945175Y-82354923D01*
X112946565Y-82356128D01*
X112954248Y-82357799D01*
X113146295Y-82357799D01*
X113152814Y-82357462D01*
X113248406Y-82347543D01*
X113261800Y-82344651D01*
X113415984Y-82293212D01*
X113429162Y-82287039D01*
X113567007Y-82201737D01*
X113578408Y-82192701D01*
X113692939Y-82077971D01*
X113701951Y-82066560D01*
X113787016Y-81928557D01*
X113793163Y-81915376D01*
X113844338Y-81761090D01*
X113847205Y-81747714D01*
X113856872Y-81653362D01*
X113857200Y-81646946D01*
X113857200Y-81221915D01*
X113852725Y-81206676D01*
X113851335Y-81205471D01*
X113843652Y-81203800D01*
X112958815Y-81203800D01*
X112943576Y-81208275D01*
X112942371Y-81209665D01*
X112940700Y-81217348D01*
X112940700Y-82339684D01*
X112432700Y-82339684D01*
X112432700Y-79559916D01*
X112428225Y-79544677D01*
X112426835Y-79543472D01*
X112419152Y-79541801D01*
X112227105Y-79541801D01*
X112220586Y-79542138D01*
X112124994Y-79552057D01*
X112111600Y-79554949D01*
X111957416Y-79606388D01*
X111944238Y-79612561D01*
X111806393Y-79697863D01*
X111794992Y-79706899D01*
X111680461Y-79821629D01*
X111672787Y-79831346D01*
X111614870Y-79872409D01*
X111543947Y-79875641D01*
X111482535Y-79840015D01*
X111470701Y-79825537D01*
X111466977Y-79820219D01*
X111309781Y-79663023D01*
X111305273Y-79659866D01*
X111305270Y-79659864D01*
X111206899Y-79590984D01*
X111127677Y-79535512D01*
X111122695Y-79533189D01*
X111122690Y-79533186D01*
X110931178Y-79443883D01*
X110931177Y-79443882D01*
X110926196Y-79441560D01*
X110920888Y-79440138D01*
X110920886Y-79440137D01*
X110855051Y-79422497D01*
X110711463Y-79384022D01*
X110490000Y-79364647D01*
X110268537Y-79384022D01*
X110124949Y-79422497D01*
X110059114Y-79440137D01*
X110059112Y-79440138D01*
X110053804Y-79441560D01*
X110048823Y-79443882D01*
X110048822Y-79443883D01*
X109857311Y-79533186D01*
X109857306Y-79533189D01*
X109852324Y-79535512D01*
X109847817Y-79538668D01*
X109847815Y-79538669D01*
X109674730Y-79659864D01*
X109674727Y-79659866D01*
X109670219Y-79663023D01*
X109513023Y-79820219D01*
X109509868Y-79824725D01*
X109509864Y-79824730D01*
X109399113Y-79982900D01*
X109385512Y-80002324D01*
X109383189Y-80007306D01*
X109383186Y-80007311D01*
X109293950Y-80198678D01*
X109291560Y-80203804D01*
X109234022Y-80418537D01*
X109214647Y-80640000D01*
X109234022Y-80861463D01*
X109260780Y-80961323D01*
X109288565Y-81065017D01*
X109291560Y-81076196D01*
X109293882Y-81081177D01*
X109293883Y-81081178D01*
X109383186Y-81272689D01*
X109383189Y-81272694D01*
X109385512Y-81277676D01*
X109388668Y-81282183D01*
X109388669Y-81282185D01*
X109476766Y-81408000D01*
X109513023Y-81459781D01*
X109670219Y-81616977D01*
X109674725Y-81620132D01*
X109674730Y-81620136D01*
X109723790Y-81654488D01*
X109852323Y-81744488D01*
X109857305Y-81746811D01*
X109857310Y-81746814D01*
X109962373Y-81795805D01*
X110015658Y-81842722D01*
X110035119Y-81910999D01*
X110014577Y-81978959D01*
X109962373Y-82024195D01*
X109857311Y-82073186D01*
X109857306Y-82073189D01*
X109852324Y-82075512D01*
X109847817Y-82078668D01*
X109847815Y-82078669D01*
X109674730Y-82199864D01*
X109674727Y-82199866D01*
X109670219Y-82203023D01*
X109513023Y-82360219D01*
X109509866Y-82364727D01*
X109509864Y-82364730D01*
X109388669Y-82537815D01*
X109385512Y-82542324D01*
X109383189Y-82547306D01*
X109383186Y-82547311D01*
X109306761Y-82711206D01*
X109291560Y-82743804D01*
X109290138Y-82749112D01*
X109290137Y-82749114D01*
X109285670Y-82765784D01*
X109234022Y-82958537D01*
X109214647Y-83180000D01*
X109234022Y-83401463D01*
X109247038Y-83450039D01*
X109286129Y-83595926D01*
X109291560Y-83616196D01*
X109293882Y-83621177D01*
X109293883Y-83621178D01*
X109383186Y-83812689D01*
X109383189Y-83812694D01*
X109385512Y-83817676D01*
X109388668Y-83822183D01*
X109388669Y-83822185D01*
X109479256Y-83951556D01*
X109513023Y-83999781D01*
X109670219Y-84156977D01*
X109674727Y-84160134D01*
X109674730Y-84160136D01*
X109700441Y-84178139D01*
X109852323Y-84284488D01*
X109857305Y-84286811D01*
X109857310Y-84286814D01*
X109962373Y-84335805D01*
X110015658Y-84382722D01*
X110035119Y-84450999D01*
X110014577Y-84518959D01*
X109962373Y-84564195D01*
X109857311Y-84613186D01*
X109857306Y-84613189D01*
X109852324Y-84615512D01*
X109847817Y-84618668D01*
X109847815Y-84618669D01*
X109674730Y-84739864D01*
X109674727Y-84739866D01*
X109670219Y-84743023D01*
X109513023Y-84900219D01*
X109509866Y-84904727D01*
X109509864Y-84904730D01*
X109388669Y-85077815D01*
X109385512Y-85082324D01*
X109383189Y-85087306D01*
X109383186Y-85087311D01*
X109298099Y-85269781D01*
X109291560Y-85283804D01*
X109290138Y-85289112D01*
X109290137Y-85289114D01*
X109273530Y-85351091D01*
X109234022Y-85498537D01*
X109222521Y-85630000D01*
X109219551Y-85663948D01*
X109193688Y-85730067D01*
X109183125Y-85742062D01*
X108928286Y-85996901D01*
X108865974Y-86030927D01*
X108795159Y-86025862D01*
X108766920Y-86011019D01*
X108592186Y-85888669D01*
X108592184Y-85888668D01*
X108587677Y-85885512D01*
X108582695Y-85883189D01*
X108582690Y-85883186D01*
X108477627Y-85834195D01*
X108424342Y-85787278D01*
X108404881Y-85719001D01*
X108425423Y-85651041D01*
X108477627Y-85605805D01*
X108582690Y-85556814D01*
X108582695Y-85556811D01*
X108587677Y-85554488D01*
X108749676Y-85441055D01*
X108765270Y-85430136D01*
X108765273Y-85430134D01*
X108769781Y-85426977D01*
X108926977Y-85269781D01*
X108935577Y-85257500D01*
X109051331Y-85092185D01*
X109051332Y-85092183D01*
X109054488Y-85087676D01*
X109056811Y-85082694D01*
X109056814Y-85082689D01*
X109146117Y-84891178D01*
X109146118Y-84891177D01*
X109148440Y-84886196D01*
X109155086Y-84861395D01*
X109178344Y-84774595D01*
X109205978Y-84671463D01*
X109225353Y-84450000D01*
X109205978Y-84228537D01*
X109151458Y-84025068D01*
X109149863Y-84019114D01*
X109149862Y-84019112D01*
X109148440Y-84013804D01*
X109141901Y-83999781D01*
X109056814Y-83817311D01*
X109056811Y-83817306D01*
X109054488Y-83812324D01*
X109051331Y-83807815D01*
X108930136Y-83634730D01*
X108930134Y-83634727D01*
X108926977Y-83630219D01*
X108769781Y-83473023D01*
X108765273Y-83469866D01*
X108765270Y-83469864D01*
X108667583Y-83401463D01*
X108587677Y-83345512D01*
X108582695Y-83343189D01*
X108582690Y-83343186D01*
X108482397Y-83296419D01*
X108429112Y-83249502D01*
X108409651Y-83181224D01*
X108430193Y-83113264D01*
X108482397Y-83068029D01*
X108582445Y-83021376D01*
X108591931Y-83015898D01*
X108635764Y-82985207D01*
X108644139Y-82974729D01*
X108637071Y-82961281D01*
X107679885Y-82004095D01*
X107645859Y-81941783D01*
X107647694Y-81916132D01*
X108314408Y-81916132D01*
X108314539Y-81917965D01*
X108318790Y-81924580D01*
X108997003Y-82602793D01*
X109008777Y-82609223D01*
X109020793Y-82599926D01*
X109050897Y-82556932D01*
X109056377Y-82547441D01*
X109145645Y-82356007D01*
X109149391Y-82345715D01*
X109204059Y-82141691D01*
X109205962Y-82130896D01*
X109224372Y-81920475D01*
X109224372Y-81909525D01*
X109205962Y-81699104D01*
X109204059Y-81688309D01*
X109149391Y-81484285D01*
X109145645Y-81473993D01*
X109056377Y-81282559D01*
X109050897Y-81273068D01*
X109020206Y-81229235D01*
X109009729Y-81220860D01*
X108996282Y-81227928D01*
X108322022Y-81902188D01*
X108314408Y-81916132D01*
X107647694Y-81916132D01*
X107650924Y-81870968D01*
X107679885Y-81825905D01*
X108637793Y-80867997D01*
X108644223Y-80856223D01*
X108634926Y-80844207D01*
X108591931Y-80814102D01*
X108582445Y-80808624D01*
X108477035Y-80759471D01*
X108423750Y-80712554D01*
X108404289Y-80644277D01*
X108424831Y-80576317D01*
X108477035Y-80531081D01*
X108478022Y-80530621D01*
X108535351Y-80503888D01*
X108582690Y-80481814D01*
X108582695Y-80481811D01*
X108587677Y-80479488D01*
X108701040Y-80400110D01*
X108765270Y-80355136D01*
X108765273Y-80355134D01*
X108769781Y-80351977D01*
X108926977Y-80194781D01*
X108944349Y-80169972D01*
X109051331Y-80017185D01*
X109051332Y-80017183D01*
X109054488Y-80012676D01*
X109056811Y-80007694D01*
X109056814Y-80007689D01*
X109146117Y-79816178D01*
X109146118Y-79816177D01*
X109148440Y-79811196D01*
X109205978Y-79596463D01*
X109225353Y-79375000D01*
X109205978Y-79153537D01*
X109163172Y-78993783D01*
X109149863Y-78944114D01*
X109149862Y-78944112D01*
X109148440Y-78938804D01*
X109136591Y-78913393D01*
X109056814Y-78742311D01*
X109056811Y-78742306D01*
X109054488Y-78737324D01*
X109041312Y-78718507D01*
X108930136Y-78559730D01*
X108930134Y-78559727D01*
X108926977Y-78555219D01*
X108769781Y-78398023D01*
X108765270Y-78394864D01*
X108761057Y-78391329D01*
X108762006Y-78390198D01*
X108721998Y-78340152D01*
X108714684Y-78269533D01*
X108746711Y-78206171D01*
X108807910Y-78170182D01*
X108838594Y-78166389D01*
X111970686Y-78166389D01*
X112038807Y-78186391D01*
X112059781Y-78203294D01*
X113183192Y-79326705D01*
X113217218Y-79389017D01*
X113212153Y-79459832D01*
X113169606Y-79516668D01*
X113103086Y-79541479D01*
X113094097Y-79541800D01*
X112958815Y-79541800D01*
X112943576Y-79546275D01*
X112942371Y-79547665D01*
X112940700Y-79555348D01*
X112940700Y-80677685D01*
X112945175Y-80692924D01*
X112946565Y-80694129D01*
X112954248Y-80695800D01*
X113839084Y-80695800D01*
X113854323Y-80691325D01*
X113855528Y-80689935D01*
X113857199Y-80682252D01*
X113857199Y-80304902D01*
X113877201Y-80236781D01*
X113930857Y-80190288D01*
X114001131Y-80180184D01*
X114065711Y-80209678D01*
X114072294Y-80215807D01*
X114603795Y-80747308D01*
X114637821Y-80809620D01*
X114640700Y-80836403D01*
X114640700Y-81650200D01*
X114641037Y-81653446D01*
X114641037Y-81653450D01*
X114650952Y-81749006D01*
X114651674Y-81755966D01*
X114653855Y-81762502D01*
X114653855Y-81762504D01*
X114680057Y-81841041D01*
X114707650Y-81923746D01*
X114800722Y-82074148D01*
X114925897Y-82199105D01*
X114932127Y-82202945D01*
X114932128Y-82202946D01*
X115069488Y-82287616D01*
X115076462Y-82291915D01*
X115102463Y-82300539D01*
X115237811Y-82345432D01*
X115237813Y-82345432D01*
X115244339Y-82347597D01*
X115251175Y-82348297D01*
X115251178Y-82348298D01*
X115294231Y-82352709D01*
X115348800Y-82358300D01*
X116274600Y-82358300D01*
X116277846Y-82357963D01*
X116277850Y-82357963D01*
X116373508Y-82348038D01*
X116373512Y-82348037D01*
X116380366Y-82347326D01*
X116386902Y-82345145D01*
X116386904Y-82345145D01*
X116520603Y-82300539D01*
X116548146Y-82291350D01*
X116698548Y-82198278D01*
X116823505Y-82073103D01*
X116845094Y-82038080D01*
X116912475Y-81928768D01*
X116912476Y-81928766D01*
X116916315Y-81922538D01*
X116928357Y-81886232D01*
X116968788Y-81827873D01*
X117034352Y-81800636D01*
X117047950Y-81799900D01*
X120211700Y-81799900D01*
X120279821Y-81819902D01*
X120326314Y-81873558D01*
X120337700Y-81925900D01*
X120337700Y-82689534D01*
X120344455Y-82751716D01*
X120395585Y-82888105D01*
X120482939Y-83004661D01*
X120599495Y-83092015D01*
X120735884Y-83143145D01*
X120798066Y-83149900D01*
X123194334Y-83149900D01*
X123256516Y-83143145D01*
X123392905Y-83092015D01*
X123509461Y-83004661D01*
X123596815Y-82888105D01*
X123647945Y-82751716D01*
X123654700Y-82689534D01*
X123654700Y-79093266D01*
X123647945Y-79031084D01*
X123596815Y-78894695D01*
X123509461Y-78778139D01*
X123392905Y-78690785D01*
X123256516Y-78639655D01*
X123194334Y-78632900D01*
X120798066Y-78632900D01*
X120735884Y-78639655D01*
X120599495Y-78690785D01*
X120482939Y-78778139D01*
X120395585Y-78894695D01*
X120344455Y-79031084D01*
X120337700Y-79093266D01*
X120337700Y-79856900D01*
X120317698Y-79925021D01*
X120264042Y-79971514D01*
X120211700Y-79982900D01*
X118281042Y-79982900D01*
X118212921Y-79962898D01*
X118166428Y-79909242D01*
X118156324Y-79838968D01*
X118185818Y-79774388D01*
X118206981Y-79754964D01*
X118309859Y-79680219D01*
X118309862Y-79680217D01*
X118313422Y-79677630D01*
X118331820Y-79659864D01*
X118448005Y-79547665D01*
X118524033Y-79474246D01*
X118680400Y-79274105D01*
X118701581Y-79246994D01*
X118701582Y-79246993D01*
X118704288Y-79243529D01*
X118706484Y-79239725D01*
X118706489Y-79239718D01*
X118848479Y-78993783D01*
X118850680Y-78989971D01*
X118960359Y-78718507D01*
X118968156Y-78687237D01*
X119030124Y-78438691D01*
X119031189Y-78434420D01*
X119031815Y-78428469D01*
X119061335Y-78147610D01*
X119061335Y-78147607D01*
X119061794Y-78143241D01*
X119061246Y-78127540D01*
X119051730Y-77855032D01*
X119051729Y-77855026D01*
X119051576Y-77850635D01*
X119041593Y-77794016D01*
X119001496Y-77566623D01*
X119000734Y-77562300D01*
X118999379Y-77558129D01*
X118999377Y-77558122D01*
X118911620Y-77288035D01*
X118910259Y-77283846D01*
X118781911Y-77020694D01*
X118618189Y-76777965D01*
X118586596Y-76742877D01*
X118425225Y-76563658D01*
X118422278Y-76560385D01*
X118375225Y-76520903D01*
X118335900Y-76461794D01*
X118334774Y-76390807D01*
X118372206Y-76330479D01*
X118436311Y-76299966D01*
X118456280Y-76298383D01*
X125070516Y-76301775D01*
G37*
%TD.AperFunction*%
%TA.AperFunction,Conductor*%
G36*
X90060315Y-76283821D02*
G01*
X98640651Y-76288221D01*
X98708760Y-76308258D01*
X98755225Y-76361937D01*
X98765293Y-76432217D01*
X98735767Y-76496782D01*
X98715016Y-76515819D01*
X98709767Y-76518849D01*
X98704855Y-76523272D01*
X98704852Y-76523274D01*
X98658942Y-76564611D01*
X98653927Y-76568895D01*
X98645429Y-76575777D01*
X98637970Y-76581817D01*
X98623455Y-76596332D01*
X98618670Y-76600873D01*
X98567845Y-76646636D01*
X98563966Y-76651975D01*
X98563965Y-76651976D01*
X98559571Y-76658024D01*
X98546730Y-76673057D01*
X97535192Y-77684595D01*
X97472880Y-77718621D01*
X97446097Y-77721500D01*
X96691866Y-77721500D01*
X96629684Y-77728255D01*
X96493295Y-77779385D01*
X96376739Y-77866739D01*
X96289385Y-77983295D01*
X96238255Y-78119684D01*
X96231500Y-78181866D01*
X96231500Y-79778134D01*
X96238255Y-79840316D01*
X96289385Y-79976705D01*
X96316344Y-80012676D01*
X96347953Y-80054852D01*
X96372801Y-80121358D01*
X96357748Y-80190741D01*
X96347953Y-80205982D01*
X96295214Y-80276352D01*
X96286676Y-80291946D01*
X96241522Y-80412394D01*
X96237895Y-80427649D01*
X96232369Y-80478514D01*
X96232000Y-80485328D01*
X96232001Y-81121906D01*
X96211999Y-81190027D01*
X96158343Y-81236520D01*
X96088070Y-81246624D01*
X96023489Y-81217131D01*
X96016906Y-81211001D01*
X93255252Y-78449347D01*
X93247712Y-78441061D01*
X93243600Y-78434582D01*
X93193948Y-78387956D01*
X93191107Y-78385202D01*
X93171370Y-78365465D01*
X93168173Y-78362985D01*
X93159151Y-78355280D01*
X93132700Y-78330441D01*
X93126921Y-78325014D01*
X93119975Y-78321195D01*
X93119972Y-78321193D01*
X93109166Y-78315252D01*
X93092647Y-78304401D01*
X93086648Y-78299748D01*
X93076641Y-78291986D01*
X93069372Y-78288841D01*
X93069368Y-78288838D01*
X93036063Y-78274426D01*
X93025413Y-78269209D01*
X92986660Y-78247905D01*
X92967037Y-78242867D01*
X92948334Y-78236463D01*
X92937020Y-78231567D01*
X92937019Y-78231567D01*
X92929745Y-78228419D01*
X92921922Y-78227180D01*
X92921912Y-78227177D01*
X92886076Y-78221501D01*
X92874456Y-78219095D01*
X92839311Y-78210072D01*
X92839310Y-78210072D01*
X92831630Y-78208100D01*
X92811376Y-78208100D01*
X92791665Y-78206549D01*
X92789279Y-78206171D01*
X92771657Y-78203380D01*
X92741910Y-78206192D01*
X92727639Y-78207541D01*
X92715781Y-78208100D01*
X89151000Y-78208100D01*
X89082879Y-78188098D01*
X89063653Y-78171757D01*
X89063380Y-78172060D01*
X89058468Y-78167637D01*
X89054053Y-78162734D01*
X89027223Y-78143241D01*
X88904894Y-78054363D01*
X88904893Y-78054362D01*
X88899552Y-78050482D01*
X88893524Y-78047798D01*
X88893522Y-78047797D01*
X88731119Y-77975491D01*
X88731118Y-77975491D01*
X88725088Y-77972806D01*
X88631688Y-77952953D01*
X88544744Y-77934472D01*
X88544739Y-77934472D01*
X88538287Y-77933100D01*
X88347313Y-77933100D01*
X88340861Y-77934472D01*
X88340856Y-77934472D01*
X88253912Y-77952953D01*
X88160512Y-77972806D01*
X88154482Y-77975491D01*
X88154481Y-77975491D01*
X87992078Y-78047797D01*
X87992076Y-78047798D01*
X87986048Y-78050482D01*
X87831547Y-78162734D01*
X87827126Y-78167644D01*
X87827125Y-78167645D01*
X87718003Y-78288838D01*
X87703760Y-78304656D01*
X87645486Y-78405590D01*
X87628841Y-78434420D01*
X87608273Y-78470044D01*
X87549258Y-78651672D01*
X87548568Y-78658233D01*
X87548568Y-78658235D01*
X87539680Y-78742801D01*
X87529296Y-78841600D01*
X87529986Y-78848165D01*
X87548434Y-79023685D01*
X87549258Y-79031528D01*
X87608273Y-79213156D01*
X87611576Y-79218878D01*
X87611577Y-79218879D01*
X87643462Y-79274105D01*
X87703760Y-79378544D01*
X87708178Y-79383451D01*
X87708179Y-79383452D01*
X87760500Y-79441560D01*
X87831547Y-79520466D01*
X87986048Y-79632718D01*
X87992076Y-79635402D01*
X87992078Y-79635403D01*
X88152662Y-79706899D01*
X88160512Y-79710394D01*
X88235447Y-79726322D01*
X88340856Y-79748728D01*
X88340861Y-79748728D01*
X88347313Y-79750100D01*
X88538287Y-79750100D01*
X88544739Y-79748728D01*
X88544744Y-79748728D01*
X88650153Y-79726322D01*
X88725088Y-79710394D01*
X88732938Y-79706899D01*
X88893522Y-79635403D01*
X88893524Y-79635402D01*
X88899552Y-79632718D01*
X89015409Y-79548543D01*
X89046227Y-79526152D01*
X89054053Y-79520466D01*
X89058468Y-79515563D01*
X89063380Y-79511140D01*
X89064505Y-79512389D01*
X89117814Y-79479549D01*
X89151000Y-79475100D01*
X89806000Y-79475100D01*
X89874121Y-79495102D01*
X89920614Y-79548758D01*
X89932000Y-79601100D01*
X89932000Y-81007885D01*
X89936475Y-81023124D01*
X89937865Y-81024329D01*
X89945548Y-81026000D01*
X92929884Y-81026000D01*
X92945123Y-81021525D01*
X92946328Y-81020135D01*
X92947999Y-81012452D01*
X92947999Y-80238093D01*
X92968001Y-80169972D01*
X93021657Y-80123479D01*
X93091931Y-80113375D01*
X93156511Y-80142869D01*
X93163094Y-80148998D01*
X96194595Y-83180499D01*
X96228621Y-83242811D01*
X96231500Y-83269594D01*
X96231500Y-83895011D01*
X96211498Y-83963132D01*
X96157842Y-84009625D01*
X96105500Y-84021011D01*
X89679105Y-84021011D01*
X89610984Y-84001009D01*
X89590010Y-83984106D01*
X89237122Y-83631218D01*
X89203096Y-83568906D01*
X89200907Y-83555293D01*
X89200171Y-83548285D01*
X89184404Y-83398269D01*
X89184232Y-83396635D01*
X89184232Y-83396633D01*
X89183542Y-83390072D01*
X89129799Y-83224669D01*
X89932001Y-83224669D01*
X89932371Y-83231490D01*
X89937895Y-83282352D01*
X89941521Y-83297604D01*
X89986676Y-83418054D01*
X89995214Y-83433649D01*
X90071715Y-83535724D01*
X90084276Y-83548285D01*
X90186351Y-83624786D01*
X90201946Y-83633324D01*
X90322394Y-83678478D01*
X90337649Y-83682105D01*
X90388514Y-83687631D01*
X90395328Y-83688000D01*
X91167885Y-83688000D01*
X91183124Y-83683525D01*
X91184329Y-83682135D01*
X91186000Y-83674452D01*
X91186000Y-83669884D01*
X91694000Y-83669884D01*
X91698475Y-83685123D01*
X91699865Y-83686328D01*
X91707548Y-83687999D01*
X92484669Y-83687999D01*
X92491490Y-83687629D01*
X92542352Y-83682105D01*
X92557604Y-83678479D01*
X92678054Y-83633324D01*
X92693649Y-83624786D01*
X92795724Y-83548285D01*
X92808285Y-83535724D01*
X92884786Y-83433649D01*
X92893324Y-83418054D01*
X92938478Y-83297606D01*
X92942105Y-83282351D01*
X92947631Y-83231486D01*
X92948000Y-83224672D01*
X92948000Y-81552115D01*
X92943525Y-81536876D01*
X92942135Y-81535671D01*
X92934452Y-81534000D01*
X91712115Y-81534000D01*
X91696876Y-81538475D01*
X91695671Y-81539865D01*
X91694000Y-81547548D01*
X91694000Y-83669884D01*
X91186000Y-83669884D01*
X91186000Y-81552115D01*
X91181525Y-81536876D01*
X91180135Y-81535671D01*
X91172452Y-81534000D01*
X89950116Y-81534000D01*
X89934877Y-81538475D01*
X89933672Y-81539865D01*
X89932001Y-81547548D01*
X89932001Y-83224669D01*
X89129799Y-83224669D01*
X89124527Y-83208444D01*
X89116201Y-83194022D01*
X89066568Y-83108056D01*
X89029040Y-83043056D01*
X88944797Y-82949494D01*
X88905675Y-82906045D01*
X88905674Y-82906044D01*
X88901253Y-82901134D01*
X88746752Y-82788882D01*
X88740724Y-82786198D01*
X88740722Y-82786197D01*
X88578319Y-82713891D01*
X88578318Y-82713891D01*
X88572288Y-82711206D01*
X88454391Y-82686146D01*
X88391944Y-82672872D01*
X88391939Y-82672872D01*
X88385487Y-82671500D01*
X88194513Y-82671500D01*
X88188061Y-82672872D01*
X88188056Y-82672872D01*
X88125609Y-82686146D01*
X88007712Y-82711206D01*
X88001682Y-82713891D01*
X88001681Y-82713891D01*
X87839278Y-82786197D01*
X87839276Y-82786198D01*
X87833248Y-82788882D01*
X87678747Y-82901134D01*
X87674326Y-82906044D01*
X87674325Y-82906045D01*
X87635204Y-82949494D01*
X87550960Y-83043056D01*
X87513432Y-83108056D01*
X87463800Y-83194022D01*
X87455473Y-83208444D01*
X87396458Y-83390072D01*
X87395768Y-83396633D01*
X87395768Y-83396635D01*
X87380187Y-83544881D01*
X87376496Y-83580000D01*
X87377186Y-83586565D01*
X87387228Y-83682105D01*
X87396458Y-83769928D01*
X87455473Y-83951556D01*
X87550960Y-84116944D01*
X87678747Y-84258866D01*
X87833248Y-84371118D01*
X87839276Y-84373802D01*
X87839278Y-84373803D01*
X88001681Y-84446109D01*
X88007712Y-84448794D01*
X88079354Y-84464022D01*
X88188056Y-84487128D01*
X88188061Y-84487128D01*
X88194513Y-84488500D01*
X88250405Y-84488500D01*
X88318526Y-84508502D01*
X88339501Y-84525405D01*
X88613178Y-84799083D01*
X88647203Y-84861395D01*
X88642138Y-84932211D01*
X88599591Y-84989046D01*
X88537086Y-85013505D01*
X88505693Y-85016762D01*
X88505689Y-85016763D01*
X88498835Y-85017474D01*
X88492299Y-85019655D01*
X88492297Y-85019655D01*
X88417795Y-85044511D01*
X88331055Y-85073450D01*
X88180652Y-85166522D01*
X88175479Y-85171704D01*
X88151760Y-85195464D01*
X88055695Y-85291697D01*
X88051855Y-85297927D01*
X88051854Y-85297928D01*
X87970360Y-85430136D01*
X87962885Y-85442262D01*
X87948161Y-85486653D01*
X87919744Y-85572330D01*
X87907203Y-85610139D01*
X87906503Y-85616975D01*
X87906502Y-85616978D01*
X87905602Y-85625764D01*
X87896500Y-85714600D01*
X87896500Y-87065400D01*
X87896837Y-87068646D01*
X87896837Y-87068650D01*
X87906535Y-87162114D01*
X87907474Y-87171165D01*
X87909655Y-87177701D01*
X87909655Y-87177703D01*
X87923727Y-87219882D01*
X87963450Y-87338945D01*
X88056522Y-87489348D01*
X88181697Y-87614305D01*
X88187927Y-87618145D01*
X88187928Y-87618146D01*
X88325090Y-87702694D01*
X88332262Y-87707115D01*
X88397707Y-87728822D01*
X88493611Y-87760632D01*
X88493613Y-87760632D01*
X88500139Y-87762797D01*
X88506975Y-87763497D01*
X88506978Y-87763498D01*
X88550031Y-87767909D01*
X88604600Y-87773500D01*
X89552906Y-87773500D01*
X89621027Y-87793502D01*
X89642001Y-87810405D01*
X95606994Y-93775399D01*
X95614534Y-93783685D01*
X95618646Y-93790164D01*
X95624423Y-93795589D01*
X95668297Y-93836789D01*
X95671139Y-93839544D01*
X95690876Y-93859281D01*
X95694073Y-93861761D01*
X95703093Y-93869464D01*
X95735325Y-93899732D01*
X95742271Y-93903551D01*
X95742274Y-93903553D01*
X95753080Y-93909494D01*
X95769599Y-93920345D01*
X95785605Y-93932760D01*
X95792874Y-93935905D01*
X95792878Y-93935908D01*
X95826183Y-93950320D01*
X95836833Y-93955537D01*
X95875586Y-93976841D01*
X95883261Y-93978812D01*
X95883262Y-93978812D01*
X95895208Y-93981879D01*
X95913913Y-93988283D01*
X95932501Y-93996327D01*
X95940324Y-93997566D01*
X95940334Y-93997569D01*
X95976170Y-94003245D01*
X95987790Y-94005651D01*
X96022935Y-94014674D01*
X96030616Y-94016646D01*
X96050870Y-94016646D01*
X96070580Y-94018197D01*
X96090589Y-94021366D01*
X96098481Y-94020620D01*
X96134607Y-94017205D01*
X96146465Y-94016646D01*
X97814536Y-94016646D01*
X97882657Y-94036648D01*
X97903631Y-94053551D01*
X98556506Y-94706426D01*
X98559036Y-94708480D01*
X98559040Y-94708484D01*
X98633700Y-94769108D01*
X98633704Y-94769110D01*
X98639053Y-94773454D01*
X98645214Y-94776532D01*
X98645218Y-94776535D01*
X98790730Y-94849242D01*
X98790732Y-94849243D01*
X98797273Y-94852511D01*
X98863841Y-94868185D01*
X98962311Y-94891372D01*
X98962315Y-94891372D01*
X98969435Y-94893049D01*
X98976751Y-94893043D01*
X98976754Y-94893043D01*
X99058061Y-94892972D01*
X99146305Y-94892895D01*
X99232351Y-94872476D01*
X99311276Y-94853746D01*
X99311277Y-94853746D01*
X99318397Y-94852056D01*
X99324933Y-94848776D01*
X99324938Y-94848774D01*
X99470329Y-94775809D01*
X99470333Y-94775806D01*
X99476477Y-94772723D01*
X99481812Y-94768380D01*
X99555416Y-94708457D01*
X99555422Y-94708451D01*
X99557910Y-94706426D01*
X99677625Y-94586711D01*
X100791988Y-94586711D01*
X100792120Y-94588547D01*
X100796369Y-94595159D01*
X101422042Y-95220832D01*
X101435986Y-95228446D01*
X101437819Y-95228315D01*
X101444434Y-95224064D01*
X102238046Y-94430451D01*
X102245657Y-94416513D01*
X102245525Y-94414677D01*
X102241276Y-94408065D01*
X102105480Y-94272269D01*
X102100635Y-94267900D01*
X102026024Y-94207315D01*
X102014501Y-94199885D01*
X101869098Y-94127232D01*
X101855437Y-94122287D01*
X101697630Y-94085128D01*
X101683188Y-94083457D01*
X101521072Y-94083599D01*
X101506633Y-94085295D01*
X101348896Y-94122727D01*
X101335235Y-94127699D01*
X101189947Y-94200612D01*
X101178464Y-94208041D01*
X101104914Y-94267921D01*
X101100140Y-94272231D01*
X100799599Y-94572773D01*
X100791988Y-94586711D01*
X99677625Y-94586711D01*
X100548426Y-93715910D01*
X100557382Y-93704881D01*
X100611108Y-93638716D01*
X100611110Y-93638712D01*
X100615454Y-93633363D01*
X100618532Y-93627202D01*
X100618535Y-93627198D01*
X100691242Y-93481686D01*
X100691243Y-93481684D01*
X100694511Y-93475143D01*
X100710185Y-93408575D01*
X100733372Y-93310105D01*
X100733372Y-93310101D01*
X100735049Y-93302981D01*
X100734895Y-93126111D01*
X100694056Y-92954019D01*
X100690776Y-92947483D01*
X100690774Y-92947478D01*
X100617809Y-92802087D01*
X100617806Y-92802083D01*
X100614723Y-92795939D01*
X100574691Y-92746767D01*
X100550457Y-92717000D01*
X100550451Y-92716994D01*
X100548426Y-92714506D01*
X99893786Y-92059866D01*
X99880354Y-92048959D01*
X99816592Y-91997184D01*
X99816588Y-91997182D01*
X99811239Y-91992838D01*
X99805078Y-91989760D01*
X99805074Y-91989757D01*
X99659562Y-91917050D01*
X99659560Y-91917049D01*
X99653019Y-91913781D01*
X99586451Y-91898107D01*
X99487981Y-91874920D01*
X99487977Y-91874920D01*
X99480857Y-91873243D01*
X99473541Y-91873249D01*
X99473538Y-91873249D01*
X99392231Y-91873320D01*
X99303987Y-91873397D01*
X99248359Y-91886598D01*
X99139016Y-91912546D01*
X99139015Y-91912546D01*
X99131895Y-91914236D01*
X99125359Y-91917516D01*
X99125354Y-91917518D01*
X98979963Y-91990483D01*
X98979959Y-91990486D01*
X98973815Y-91993569D01*
X98968482Y-91997911D01*
X98968480Y-91997912D01*
X98894876Y-92057835D01*
X98894870Y-92057841D01*
X98892382Y-92059866D01*
X98239507Y-92712741D01*
X98177195Y-92746767D01*
X98150412Y-92749646D01*
X96425240Y-92749646D01*
X96357119Y-92729644D01*
X96336145Y-92712741D01*
X91189165Y-87565760D01*
X92224501Y-87565760D01*
X92224838Y-87572279D01*
X92234757Y-87667871D01*
X92237649Y-87681265D01*
X92289088Y-87835449D01*
X92295261Y-87848627D01*
X92380563Y-87986472D01*
X92389599Y-87997873D01*
X92504329Y-88112404D01*
X92515740Y-88121416D01*
X92653743Y-88206481D01*
X92666924Y-88212628D01*
X92821210Y-88263803D01*
X92834586Y-88266670D01*
X92928938Y-88276337D01*
X92935354Y-88276665D01*
X93122885Y-88276665D01*
X93138124Y-88272190D01*
X93139329Y-88270800D01*
X93141000Y-88263117D01*
X93141000Y-88258549D01*
X93649000Y-88258549D01*
X93653475Y-88273788D01*
X93654865Y-88274993D01*
X93662548Y-88276664D01*
X93854595Y-88276664D01*
X93861114Y-88276327D01*
X93956706Y-88266408D01*
X93970100Y-88263516D01*
X94124284Y-88212077D01*
X94137462Y-88205904D01*
X94275307Y-88120602D01*
X94286708Y-88111566D01*
X94401239Y-87996836D01*
X94410251Y-87985425D01*
X94495316Y-87847422D01*
X94501463Y-87834241D01*
X94552638Y-87679955D01*
X94555505Y-87666579D01*
X94565172Y-87572227D01*
X94565500Y-87565811D01*
X94565500Y-87140780D01*
X94561025Y-87125541D01*
X94559635Y-87124336D01*
X94551952Y-87122665D01*
X93667115Y-87122665D01*
X93651876Y-87127140D01*
X93650671Y-87128530D01*
X93649000Y-87136213D01*
X93649000Y-88258549D01*
X93141000Y-88258549D01*
X93141000Y-87140780D01*
X93136525Y-87125541D01*
X93135135Y-87124336D01*
X93127452Y-87122665D01*
X92242616Y-87122665D01*
X92227377Y-87127140D01*
X92226172Y-87128530D01*
X92224501Y-87136213D01*
X92224501Y-87565760D01*
X91189165Y-87565760D01*
X90375405Y-86752000D01*
X90341379Y-86689688D01*
X90338500Y-86662905D01*
X90338500Y-85714600D01*
X90337985Y-85709633D01*
X90328238Y-85615693D01*
X90328237Y-85615689D01*
X90327526Y-85608835D01*
X90310171Y-85556814D01*
X90277926Y-85460165D01*
X90275831Y-85453887D01*
X90273247Y-85382938D01*
X90309430Y-85321854D01*
X90372894Y-85290029D01*
X90395355Y-85288011D01*
X92606161Y-85288011D01*
X92674282Y-85308013D01*
X92720775Y-85361669D01*
X92730879Y-85431943D01*
X92701385Y-85496523D01*
X92659612Y-85528112D01*
X92652541Y-85531425D01*
X92514693Y-85616728D01*
X92503292Y-85625764D01*
X92388761Y-85740494D01*
X92379749Y-85751905D01*
X92294684Y-85889908D01*
X92288537Y-85903089D01*
X92237362Y-86057375D01*
X92234495Y-86070751D01*
X92224828Y-86165103D01*
X92224500Y-86171520D01*
X92224500Y-86596550D01*
X92228975Y-86611789D01*
X92230365Y-86612994D01*
X92238048Y-86614665D01*
X94547384Y-86614665D01*
X94562623Y-86610190D01*
X94563828Y-86608800D01*
X94565499Y-86601117D01*
X94565499Y-86171570D01*
X94565162Y-86165051D01*
X94555243Y-86069459D01*
X94552351Y-86056065D01*
X94500912Y-85901881D01*
X94494739Y-85888703D01*
X94409437Y-85750858D01*
X94400401Y-85739457D01*
X94285671Y-85624926D01*
X94274260Y-85615914D01*
X94136258Y-85530849D01*
X94130590Y-85528206D01*
X94077305Y-85481289D01*
X94057844Y-85413012D01*
X94078386Y-85345052D01*
X94132408Y-85298986D01*
X94183840Y-85288011D01*
X95729974Y-85288011D01*
X95798095Y-85308013D01*
X95844588Y-85361669D01*
X95854692Y-85431943D01*
X95825198Y-85496523D01*
X95785681Y-85526405D01*
X95783554Y-85527115D01*
X95777330Y-85530966D01*
X95777329Y-85530967D01*
X95739320Y-85554488D01*
X95633152Y-85620187D01*
X95508195Y-85745362D01*
X95504355Y-85751592D01*
X95504354Y-85751593D01*
X95423239Y-85883186D01*
X95415385Y-85895927D01*
X95359703Y-86063804D01*
X95359003Y-86070640D01*
X95359002Y-86070643D01*
X95355439Y-86105423D01*
X95349000Y-86168265D01*
X95349000Y-87569065D01*
X95349337Y-87572311D01*
X95349337Y-87572315D01*
X95359252Y-87667871D01*
X95359974Y-87674831D01*
X95362155Y-87681367D01*
X95362155Y-87681369D01*
X95389231Y-87762526D01*
X95415950Y-87842611D01*
X95509022Y-87993013D01*
X95634197Y-88117970D01*
X95640427Y-88121810D01*
X95640428Y-88121811D01*
X95777788Y-88206481D01*
X95784762Y-88210780D01*
X95864505Y-88237229D01*
X95946111Y-88264297D01*
X95946113Y-88264297D01*
X95952639Y-88266462D01*
X95959475Y-88267162D01*
X95959478Y-88267163D01*
X96002531Y-88271574D01*
X96057100Y-88277165D01*
X96982900Y-88277165D01*
X96986146Y-88276828D01*
X96986150Y-88276828D01*
X97081808Y-88266903D01*
X97081812Y-88266902D01*
X97088666Y-88266191D01*
X97095202Y-88264010D01*
X97095204Y-88264010D01*
X97234610Y-88217500D01*
X97256446Y-88210215D01*
X97406848Y-88117143D01*
X97415164Y-88108813D01*
X97449901Y-88074015D01*
X97497851Y-88025982D01*
X97560132Y-87991903D01*
X97630952Y-87996906D01*
X97676118Y-88025905D01*
X97785551Y-88135338D01*
X97790060Y-88138495D01*
X97790062Y-88138497D01*
X97819508Y-88159115D01*
X97965935Y-88261645D01*
X98165513Y-88354709D01*
X98378218Y-88411704D01*
X98597589Y-88430896D01*
X98816960Y-88411704D01*
X99029665Y-88354709D01*
X99229243Y-88261645D01*
X99375670Y-88159115D01*
X99405116Y-88138497D01*
X99405118Y-88138495D01*
X99409627Y-88135338D01*
X99565338Y-87979627D01*
X99576925Y-87963080D01*
X99688488Y-87803751D01*
X99688489Y-87803749D01*
X99691645Y-87799242D01*
X99693968Y-87794260D01*
X99693971Y-87794255D01*
X99749659Y-87674831D01*
X99784709Y-87599665D01*
X99841704Y-87386960D01*
X99860896Y-87167589D01*
X99841704Y-86948218D01*
X99784709Y-86735513D01*
X99736151Y-86631379D01*
X99693971Y-86540923D01*
X99693968Y-86540918D01*
X99691645Y-86535936D01*
X99688488Y-86531427D01*
X99568497Y-86360062D01*
X99568495Y-86360059D01*
X99565338Y-86355551D01*
X99409627Y-86199840D01*
X99369254Y-86171570D01*
X99274786Y-86105423D01*
X99229243Y-86073533D01*
X99029665Y-85980469D01*
X98816960Y-85923474D01*
X98597589Y-85904282D01*
X98378218Y-85923474D01*
X98165513Y-85980469D01*
X98099998Y-86011019D01*
X97970923Y-86071207D01*
X97970918Y-86071210D01*
X97965936Y-86073533D01*
X97874372Y-86137647D01*
X97807098Y-86160335D01*
X97738237Y-86143050D01*
X97689653Y-86091280D01*
X97680261Y-86064761D01*
X97680026Y-86062499D01*
X97663520Y-86013023D01*
X97626368Y-85901667D01*
X97624050Y-85894719D01*
X97530978Y-85744317D01*
X97496234Y-85709633D01*
X97410983Y-85624531D01*
X97405803Y-85619360D01*
X97388729Y-85608835D01*
X97361889Y-85592291D01*
X97255238Y-85526550D01*
X97254701Y-85526372D01*
X97203498Y-85481289D01*
X97184037Y-85413012D01*
X97204578Y-85345052D01*
X97258601Y-85298986D01*
X97310033Y-85288011D01*
X104699049Y-85288011D01*
X104709948Y-85288483D01*
X104715710Y-85288983D01*
X104723463Y-85290654D01*
X104788620Y-85288107D01*
X104793542Y-85288011D01*
X104818545Y-85288011D01*
X104825449Y-85287139D01*
X104836303Y-85286243D01*
X104839196Y-85286130D01*
X104883400Y-85284402D01*
X104890990Y-85282134D01*
X104890995Y-85282133D01*
X104900014Y-85279438D01*
X104920294Y-85275157D01*
X104929618Y-85273979D01*
X104937486Y-85272985D01*
X104981312Y-85255633D01*
X104991583Y-85252072D01*
X105036758Y-85238572D01*
X105048023Y-85231793D01*
X105051617Y-85229631D01*
X105070190Y-85220444D01*
X105074486Y-85218743D01*
X105086306Y-85214063D01*
X105092715Y-85209407D01*
X105092718Y-85209405D01*
X105124430Y-85186365D01*
X105133522Y-85180343D01*
X105167111Y-85160130D01*
X105167114Y-85160128D01*
X105173900Y-85156044D01*
X105186065Y-85143691D01*
X105201772Y-85130172D01*
X105209383Y-85124642D01*
X105215796Y-85119983D01*
X105245844Y-85083662D01*
X105253147Y-85075575D01*
X106648370Y-83658839D01*
X106710420Y-83624338D01*
X106781272Y-83628861D01*
X106838432Y-83670972D01*
X106863751Y-83737300D01*
X106847405Y-83809621D01*
X106845512Y-83812324D01*
X106843187Y-83817311D01*
X106843185Y-83817314D01*
X106760203Y-83995270D01*
X106751560Y-84013804D01*
X106750138Y-84019112D01*
X106750137Y-84019114D01*
X106748542Y-84025068D01*
X106694022Y-84228537D01*
X106674647Y-84450000D01*
X106694022Y-84671463D01*
X106695446Y-84676776D01*
X106695447Y-84676783D01*
X106704485Y-84710514D01*
X106702796Y-84781490D01*
X106671874Y-84832221D01*
X106471236Y-85032859D01*
X106462950Y-85040399D01*
X106456471Y-85044511D01*
X106411703Y-85092185D01*
X106409846Y-85094162D01*
X106407091Y-85097004D01*
X106387354Y-85116741D01*
X106384874Y-85119938D01*
X106377171Y-85128958D01*
X106346903Y-85161190D01*
X106343084Y-85168136D01*
X106343082Y-85168139D01*
X106337141Y-85178945D01*
X106326290Y-85195464D01*
X106313875Y-85211470D01*
X106310730Y-85218739D01*
X106310727Y-85218743D01*
X106296315Y-85252048D01*
X106291098Y-85262698D01*
X106269794Y-85301451D01*
X106267823Y-85309126D01*
X106267823Y-85309127D01*
X106264756Y-85321073D01*
X106258352Y-85339777D01*
X106250308Y-85358366D01*
X106249069Y-85366189D01*
X106249066Y-85366199D01*
X106243390Y-85402035D01*
X106240984Y-85413655D01*
X106233640Y-85442262D01*
X106229989Y-85456481D01*
X106229989Y-85476735D01*
X106228438Y-85496445D01*
X106225269Y-85516454D01*
X106226015Y-85524346D01*
X106229430Y-85560472D01*
X106229989Y-85572330D01*
X106229989Y-88776122D01*
X106229462Y-88787305D01*
X106227787Y-88794798D01*
X106228036Y-88802724D01*
X106228036Y-88802725D01*
X106229927Y-88862875D01*
X106229989Y-88866834D01*
X106229989Y-88894745D01*
X106230486Y-88898679D01*
X106230486Y-88898680D01*
X106230494Y-88898745D01*
X106231427Y-88910582D01*
X106232816Y-88954778D01*
X106238467Y-88974228D01*
X106242476Y-88993589D01*
X106245015Y-89013686D01*
X106247934Y-89021057D01*
X106247934Y-89021059D01*
X106261293Y-89054801D01*
X106265138Y-89066031D01*
X106265324Y-89066672D01*
X106277471Y-89108482D01*
X106281504Y-89115301D01*
X106281506Y-89115306D01*
X106287782Y-89125917D01*
X106296477Y-89143665D01*
X106303937Y-89162506D01*
X106308599Y-89168922D01*
X106308599Y-89168923D01*
X106329925Y-89198276D01*
X106336441Y-89208196D01*
X106358947Y-89246251D01*
X106373268Y-89260572D01*
X106386108Y-89275605D01*
X106398017Y-89291996D01*
X106404123Y-89297047D01*
X106432094Y-89320187D01*
X106440873Y-89328177D01*
X108193995Y-91081299D01*
X108228021Y-91143611D01*
X108230900Y-91170394D01*
X108230900Y-93539708D01*
X108210898Y-93607829D01*
X108157242Y-93654322D01*
X108086968Y-93664426D01*
X108022388Y-93634932D01*
X107997756Y-93606011D01*
X107987332Y-93589166D01*
X107983478Y-93582938D01*
X107858303Y-93457981D01*
X107852072Y-93454140D01*
X107713968Y-93369011D01*
X107713966Y-93369010D01*
X107707738Y-93365171D01*
X107627995Y-93338722D01*
X107546389Y-93311654D01*
X107546387Y-93311654D01*
X107539861Y-93309489D01*
X107533025Y-93308789D01*
X107533022Y-93308788D01*
X107489969Y-93304377D01*
X107435400Y-93298786D01*
X106509600Y-93298786D01*
X106506354Y-93299123D01*
X106506350Y-93299123D01*
X106410692Y-93309048D01*
X106410688Y-93309049D01*
X106403834Y-93309760D01*
X106397298Y-93311941D01*
X106397296Y-93311941D01*
X106265194Y-93356014D01*
X106236054Y-93365736D01*
X106085652Y-93458808D01*
X106080479Y-93463990D01*
X106080474Y-93463994D01*
X106024407Y-93520158D01*
X105962125Y-93554237D01*
X105891305Y-93549234D01*
X105846140Y-93520235D01*
X103316598Y-90990693D01*
X103282572Y-90928381D01*
X103283986Y-90868987D01*
X103290183Y-90845860D01*
X103292385Y-90837641D01*
X103311577Y-90618270D01*
X103292385Y-90398899D01*
X103235390Y-90186194D01*
X103166462Y-90038377D01*
X103144652Y-89991604D01*
X103144649Y-89991599D01*
X103142326Y-89986617D01*
X103081270Y-89899420D01*
X103019178Y-89810743D01*
X103019176Y-89810740D01*
X103016019Y-89806232D01*
X102860308Y-89650521D01*
X102679924Y-89524214D01*
X102480346Y-89431150D01*
X102267641Y-89374155D01*
X102048270Y-89354963D01*
X101828899Y-89374155D01*
X101616194Y-89431150D01*
X101595073Y-89440999D01*
X101421604Y-89521888D01*
X101421599Y-89521891D01*
X101416617Y-89524214D01*
X101412110Y-89527370D01*
X101412108Y-89527371D01*
X101240743Y-89647362D01*
X101240740Y-89647364D01*
X101236232Y-89650521D01*
X101080521Y-89806232D01*
X101077364Y-89810740D01*
X101077362Y-89810743D01*
X101015270Y-89899420D01*
X100954214Y-89986617D01*
X100951891Y-89991599D01*
X100951888Y-89991604D01*
X100930078Y-90038377D01*
X100861150Y-90186194D01*
X100804155Y-90398899D01*
X100784963Y-90618270D01*
X100804155Y-90837641D01*
X100861150Y-91050346D01*
X100863475Y-91055331D01*
X100951888Y-91244936D01*
X100951891Y-91244941D01*
X100954214Y-91249923D01*
X100957370Y-91254430D01*
X100957371Y-91254432D01*
X101025819Y-91352185D01*
X101080521Y-91430308D01*
X101236232Y-91586019D01*
X101240741Y-91589176D01*
X101240743Y-91589178D01*
X101296027Y-91627888D01*
X101416616Y-91712326D01*
X101616194Y-91805390D01*
X101828899Y-91862385D01*
X102048270Y-91881577D01*
X102267641Y-91862385D01*
X102282826Y-91858316D01*
X102298987Y-91853986D01*
X102369964Y-91855676D01*
X102420693Y-91886598D01*
X103618287Y-93084192D01*
X103652313Y-93146504D01*
X103647248Y-93217319D01*
X103604701Y-93274155D01*
X103538181Y-93298966D01*
X103529192Y-93299287D01*
X103387905Y-93299287D01*
X103381386Y-93299624D01*
X103285794Y-93309543D01*
X103272400Y-93312435D01*
X103118216Y-93363874D01*
X103105038Y-93370047D01*
X102967193Y-93455349D01*
X102955792Y-93464385D01*
X102841261Y-93579115D01*
X102832249Y-93590526D01*
X102747184Y-93728529D01*
X102741037Y-93741710D01*
X102689862Y-93895996D01*
X102686995Y-93909372D01*
X102677328Y-94003724D01*
X102677000Y-94010140D01*
X102677001Y-94668458D01*
X102656999Y-94736579D01*
X102619121Y-94774456D01*
X102600489Y-94786430D01*
X101806875Y-95580043D01*
X101799262Y-95593986D01*
X101799393Y-95595820D01*
X101803644Y-95602434D01*
X102429315Y-96228105D01*
X102443259Y-96235719D01*
X102445092Y-96235588D01*
X102451706Y-96231337D01*
X102755307Y-95927736D01*
X102817620Y-95893711D01*
X102888435Y-95898775D01*
X102933420Y-95927658D01*
X102956824Y-95951021D01*
X102968240Y-95960037D01*
X103106243Y-96045102D01*
X103119424Y-96051249D01*
X103273710Y-96102424D01*
X103287086Y-96105291D01*
X103381438Y-96114958D01*
X103387854Y-96115286D01*
X103575385Y-96115286D01*
X103590624Y-96110811D01*
X103591829Y-96109421D01*
X103593500Y-96101738D01*
X103593500Y-96097170D01*
X104101500Y-96097170D01*
X104105975Y-96112409D01*
X104107365Y-96113614D01*
X104115048Y-96115285D01*
X104307095Y-96115285D01*
X104313614Y-96114948D01*
X104409206Y-96105029D01*
X104422600Y-96102137D01*
X104576784Y-96050698D01*
X104589962Y-96044525D01*
X104727807Y-95959223D01*
X104739208Y-95950187D01*
X104853739Y-95835457D01*
X104862751Y-95824046D01*
X104947816Y-95686043D01*
X104953963Y-95672862D01*
X105005138Y-95518576D01*
X105008005Y-95505200D01*
X105017672Y-95410848D01*
X105018000Y-95404432D01*
X105018000Y-94979401D01*
X105013525Y-94964162D01*
X105012135Y-94962957D01*
X105004452Y-94961286D01*
X104119615Y-94961286D01*
X104104376Y-94965761D01*
X104103171Y-94967151D01*
X104101500Y-94974834D01*
X104101500Y-96097170D01*
X103593500Y-96097170D01*
X103593500Y-94579286D01*
X103613502Y-94511165D01*
X103667158Y-94464672D01*
X103719500Y-94453286D01*
X104935191Y-94453286D01*
X105003312Y-94473288D01*
X105024286Y-94490191D01*
X105633634Y-95099539D01*
X105641174Y-95107825D01*
X105645286Y-95114304D01*
X105651063Y-95119729D01*
X105694937Y-95160929D01*
X105697779Y-95163684D01*
X105717516Y-95183421D01*
X105720713Y-95185901D01*
X105729735Y-95193606D01*
X105761753Y-95223673D01*
X105797719Y-95284886D01*
X105801500Y-95315523D01*
X105801500Y-95407686D01*
X105801837Y-95410932D01*
X105801837Y-95410936D01*
X105811618Y-95505200D01*
X105812474Y-95513452D01*
X105814655Y-95519988D01*
X105814655Y-95519990D01*
X105837975Y-95589888D01*
X105868450Y-95681232D01*
X105961522Y-95831634D01*
X106086697Y-95956591D01*
X106092927Y-95960431D01*
X106092928Y-95960432D01*
X106230288Y-96045102D01*
X106237262Y-96049401D01*
X106317005Y-96075850D01*
X106398611Y-96102918D01*
X106398613Y-96102918D01*
X106405139Y-96105083D01*
X106411975Y-96105783D01*
X106411978Y-96105784D01*
X106455031Y-96110195D01*
X106509600Y-96115786D01*
X107435400Y-96115786D01*
X107438646Y-96115449D01*
X107438650Y-96115449D01*
X107534308Y-96105524D01*
X107534312Y-96105523D01*
X107541166Y-96104812D01*
X107547702Y-96102631D01*
X107547704Y-96102631D01*
X107679806Y-96058558D01*
X107708946Y-96048836D01*
X107859348Y-95955764D01*
X107984305Y-95830589D01*
X107988338Y-95824046D01*
X107997641Y-95808955D01*
X108050413Y-95761462D01*
X108120485Y-95750040D01*
X108185608Y-95778314D01*
X108225108Y-95837308D01*
X108230900Y-95875072D01*
X108230900Y-97228633D01*
X108230373Y-97239816D01*
X108228698Y-97247309D01*
X108228947Y-97255235D01*
X108228947Y-97255236D01*
X108230838Y-97315386D01*
X108230900Y-97319345D01*
X108230900Y-97347256D01*
X108231397Y-97351190D01*
X108231397Y-97351191D01*
X108231405Y-97351256D01*
X108232338Y-97363099D01*
X108233380Y-97396236D01*
X108233727Y-97407289D01*
X108239256Y-97426319D01*
X108239378Y-97426739D01*
X108243387Y-97446100D01*
X108245926Y-97466197D01*
X108248845Y-97473568D01*
X108248845Y-97473570D01*
X108262204Y-97507312D01*
X108266049Y-97518542D01*
X108278382Y-97560993D01*
X108282415Y-97567812D01*
X108282417Y-97567817D01*
X108288693Y-97578428D01*
X108297388Y-97596176D01*
X108304848Y-97615017D01*
X108309510Y-97621433D01*
X108309510Y-97621434D01*
X108330836Y-97650787D01*
X108337352Y-97660707D01*
X108353384Y-97687815D01*
X108359858Y-97698762D01*
X108374179Y-97713083D01*
X108387019Y-97728116D01*
X108398928Y-97744507D01*
X108405034Y-97749558D01*
X108433005Y-97772698D01*
X108441784Y-97780688D01*
X110190390Y-99529294D01*
X110224416Y-99591606D01*
X110219351Y-99662421D01*
X110176804Y-99719257D01*
X110133907Y-99740095D01*
X110059122Y-99760134D01*
X110059111Y-99760138D01*
X110053804Y-99761560D01*
X110048823Y-99763882D01*
X110048822Y-99763883D01*
X109857311Y-99853186D01*
X109857306Y-99853189D01*
X109852324Y-99855512D01*
X109847817Y-99858668D01*
X109847815Y-99858669D01*
X109674730Y-99979864D01*
X109674727Y-99979866D01*
X109670219Y-99983023D01*
X109513023Y-100140219D01*
X109509866Y-100144727D01*
X109509864Y-100144730D01*
X109420209Y-100272771D01*
X109364752Y-100317099D01*
X109316996Y-100326500D01*
X109255149Y-100326500D01*
X109187028Y-100306498D01*
X109140535Y-100252842D01*
X109130431Y-100182568D01*
X109140954Y-100147251D01*
X109146115Y-100136183D01*
X109146117Y-100136178D01*
X109148440Y-100131196D01*
X109205978Y-99916463D01*
X109225353Y-99695000D01*
X109205978Y-99473537D01*
X109163172Y-99313783D01*
X109149863Y-99264114D01*
X109149862Y-99264112D01*
X109148440Y-99258804D01*
X109139887Y-99240462D01*
X109056814Y-99062311D01*
X109056811Y-99062306D01*
X109054488Y-99057324D01*
X108953403Y-98912959D01*
X108930136Y-98879730D01*
X108930134Y-98879727D01*
X108926977Y-98875219D01*
X108769781Y-98718023D01*
X108765273Y-98714866D01*
X108765270Y-98714864D01*
X108620784Y-98613694D01*
X108587677Y-98590512D01*
X108582695Y-98588189D01*
X108582690Y-98588186D01*
X108391178Y-98498883D01*
X108391177Y-98498882D01*
X108386196Y-98496560D01*
X108380888Y-98495138D01*
X108380886Y-98495137D01*
X108278154Y-98467610D01*
X108171463Y-98439022D01*
X107950000Y-98419647D01*
X107728537Y-98439022D01*
X107621846Y-98467610D01*
X107519114Y-98495137D01*
X107519112Y-98495138D01*
X107513804Y-98496560D01*
X107508823Y-98498882D01*
X107508822Y-98498883D01*
X107317311Y-98588186D01*
X107317306Y-98588189D01*
X107312324Y-98590512D01*
X107307817Y-98593668D01*
X107307815Y-98593669D01*
X107134730Y-98714864D01*
X107134727Y-98714866D01*
X107130219Y-98718023D01*
X106973023Y-98875219D01*
X106969866Y-98879727D01*
X106969864Y-98879730D01*
X106946597Y-98912959D01*
X106845512Y-99057324D01*
X106843189Y-99062306D01*
X106843186Y-99062311D01*
X106760113Y-99240462D01*
X106751560Y-99258804D01*
X106750138Y-99264112D01*
X106750137Y-99264114D01*
X106736828Y-99313783D01*
X106694022Y-99473537D01*
X106674647Y-99695000D01*
X106694022Y-99916463D01*
X106695446Y-99921776D01*
X106695446Y-99921777D01*
X106704486Y-99955516D01*
X106702796Y-100026493D01*
X106671874Y-100077222D01*
X105954752Y-100794343D01*
X105319767Y-101429328D01*
X105311481Y-101436868D01*
X105305002Y-101440980D01*
X105299577Y-101446757D01*
X105258377Y-101490631D01*
X105255622Y-101493473D01*
X105235885Y-101513210D01*
X105233405Y-101516407D01*
X105225702Y-101525427D01*
X105195434Y-101557659D01*
X105191615Y-101564605D01*
X105191613Y-101564608D01*
X105185672Y-101575414D01*
X105174821Y-101591933D01*
X105162406Y-101607939D01*
X105159261Y-101615208D01*
X105159258Y-101615212D01*
X105144846Y-101648517D01*
X105139629Y-101659167D01*
X105118325Y-101697920D01*
X105116354Y-101705595D01*
X105116354Y-101705596D01*
X105113287Y-101717542D01*
X105106883Y-101736246D01*
X105098839Y-101754835D01*
X105097600Y-101762658D01*
X105097597Y-101762668D01*
X105091921Y-101798504D01*
X105089515Y-101810124D01*
X105078520Y-101852950D01*
X105078520Y-101873204D01*
X105076969Y-101892914D01*
X105073800Y-101912923D01*
X105074546Y-101920815D01*
X105077961Y-101956941D01*
X105078520Y-101968799D01*
X105078520Y-103443378D01*
X105058518Y-103511499D01*
X105041615Y-103532474D01*
X104284012Y-104290076D01*
X104221700Y-104324101D01*
X104194917Y-104326980D01*
X98444566Y-104326980D01*
X98433382Y-104326453D01*
X98425894Y-104324779D01*
X98417971Y-104325028D01*
X98357836Y-104326918D01*
X98353878Y-104326980D01*
X98325947Y-104326980D01*
X98322032Y-104327475D01*
X98322028Y-104327475D01*
X98321970Y-104327483D01*
X98321941Y-104327486D01*
X98310099Y-104328419D01*
X98265913Y-104329807D01*
X98252155Y-104333804D01*
X98246461Y-104335458D01*
X98227109Y-104339466D01*
X98214871Y-104341012D01*
X98214869Y-104341013D01*
X98207006Y-104342006D01*
X98165889Y-104358286D01*
X98154688Y-104362121D01*
X98112209Y-104374462D01*
X98105390Y-104378495D01*
X98105385Y-104378497D01*
X98094774Y-104384773D01*
X98077024Y-104393470D01*
X98058186Y-104400928D01*
X98051770Y-104405589D01*
X98051769Y-104405590D01*
X98022428Y-104426908D01*
X98012504Y-104433427D01*
X97981263Y-104451902D01*
X97981258Y-104451906D01*
X97974440Y-104455938D01*
X97960116Y-104470262D01*
X97945084Y-104483101D01*
X97928696Y-104495008D01*
X97900515Y-104529073D01*
X97892525Y-104537853D01*
X95391779Y-107038599D01*
X95376745Y-107051440D01*
X95363818Y-107060832D01*
X95353896Y-107067350D01*
X95322658Y-107085824D01*
X95315837Y-107089858D01*
X95301513Y-107104182D01*
X95286481Y-107117021D01*
X95270093Y-107128928D01*
X95251800Y-107151041D01*
X95241912Y-107162993D01*
X95233922Y-107171773D01*
X93781022Y-108624673D01*
X93781019Y-108624677D01*
X91925700Y-110479995D01*
X91863388Y-110514021D01*
X91836605Y-110516900D01*
X82679567Y-110516900D01*
X82668384Y-110516373D01*
X82660891Y-110514698D01*
X82652965Y-110514947D01*
X82652964Y-110514947D01*
X82592814Y-110516838D01*
X82588855Y-110516900D01*
X82560944Y-110516900D01*
X82557010Y-110517397D01*
X82557009Y-110517397D01*
X82556944Y-110517405D01*
X82545107Y-110518338D01*
X82513290Y-110519338D01*
X82508829Y-110519478D01*
X82500910Y-110519727D01*
X82483254Y-110524856D01*
X82481458Y-110525378D01*
X82462106Y-110529386D01*
X82455035Y-110530280D01*
X82442003Y-110531926D01*
X82434634Y-110534843D01*
X82434632Y-110534844D01*
X82400897Y-110548200D01*
X82389669Y-110552045D01*
X82347207Y-110564382D01*
X82340384Y-110568417D01*
X82340382Y-110568418D01*
X82329772Y-110574693D01*
X82312024Y-110583388D01*
X82293183Y-110590848D01*
X82286767Y-110595510D01*
X82286766Y-110595510D01*
X82257413Y-110616836D01*
X82247493Y-110623352D01*
X82216265Y-110641820D01*
X82216262Y-110641822D01*
X82209438Y-110645858D01*
X82195117Y-110660179D01*
X82180084Y-110673019D01*
X82163693Y-110684928D01*
X82158642Y-110691034D01*
X82135502Y-110719005D01*
X82127522Y-110727774D01*
X81474822Y-111380474D01*
X81412511Y-111414498D01*
X81341695Y-111409433D01*
X81284860Y-111366886D01*
X81260049Y-111300366D01*
X81263693Y-111262211D01*
X81263599Y-111262194D01*
X81263807Y-111261014D01*
X81264022Y-111258763D01*
X81264554Y-111256777D01*
X81265978Y-111251463D01*
X81285353Y-111030000D01*
X81265978Y-110808537D01*
X81221306Y-110641820D01*
X81209863Y-110599114D01*
X81209862Y-110599112D01*
X81208440Y-110593804D01*
X81206117Y-110588822D01*
X81116814Y-110397311D01*
X81116811Y-110397306D01*
X81114488Y-110392324D01*
X81053047Y-110304577D01*
X80990136Y-110214730D01*
X80990134Y-110214727D01*
X80986977Y-110210219D01*
X80829781Y-110053023D01*
X80825273Y-110049866D01*
X80825270Y-110049864D01*
X80703686Y-109964730D01*
X80647677Y-109925512D01*
X80642695Y-109923189D01*
X80642690Y-109923186D01*
X80537627Y-109874195D01*
X80484342Y-109827278D01*
X80464881Y-109759001D01*
X80485423Y-109691041D01*
X80537627Y-109645805D01*
X80642690Y-109596814D01*
X80642695Y-109596811D01*
X80647677Y-109594488D01*
X80770192Y-109508702D01*
X80825270Y-109470136D01*
X80825273Y-109470134D01*
X80829781Y-109466977D01*
X80986977Y-109309781D01*
X80998078Y-109293928D01*
X81111331Y-109132185D01*
X81111332Y-109132183D01*
X81114488Y-109127676D01*
X81116811Y-109122694D01*
X81116814Y-109122689D01*
X81206117Y-108931178D01*
X81206118Y-108931177D01*
X81208440Y-108926196D01*
X81265978Y-108711463D01*
X81285353Y-108490000D01*
X81265978Y-108268537D01*
X81223745Y-108110922D01*
X81209863Y-108059114D01*
X81209862Y-108059112D01*
X81208440Y-108053804D01*
X81183468Y-108000251D01*
X81116814Y-107857311D01*
X81116811Y-107857306D01*
X81114488Y-107852324D01*
X81111331Y-107847815D01*
X80990136Y-107674730D01*
X80990134Y-107674727D01*
X80986977Y-107670219D01*
X80829781Y-107513023D01*
X80825273Y-107509866D01*
X80825270Y-107509864D01*
X80696432Y-107419651D01*
X80647677Y-107385512D01*
X80642695Y-107383189D01*
X80642690Y-107383186D01*
X80537627Y-107334195D01*
X80484342Y-107287278D01*
X80464881Y-107219001D01*
X80485423Y-107151041D01*
X80537627Y-107105805D01*
X80642690Y-107056814D01*
X80642695Y-107056811D01*
X80647677Y-107054488D01*
X80779732Y-106962022D01*
X80825270Y-106930136D01*
X80825273Y-106930134D01*
X80829781Y-106926977D01*
X80986977Y-106769781D01*
X81014084Y-106731069D01*
X81111331Y-106592185D01*
X81111332Y-106592183D01*
X81114488Y-106587676D01*
X81116811Y-106582694D01*
X81116814Y-106582689D01*
X81206117Y-106391178D01*
X81206118Y-106391177D01*
X81208440Y-106386196D01*
X81265978Y-106171463D01*
X81285353Y-105950000D01*
X81265978Y-105728537D01*
X81208440Y-105513804D01*
X81119426Y-105322913D01*
X81116814Y-105317311D01*
X81116811Y-105317306D01*
X81114488Y-105312324D01*
X81111331Y-105307815D01*
X80990136Y-105134730D01*
X80990134Y-105134727D01*
X80986977Y-105130219D01*
X80829781Y-104973023D01*
X80825273Y-104969866D01*
X80825270Y-104969864D01*
X80702922Y-104884195D01*
X80647677Y-104845512D01*
X80642695Y-104843189D01*
X80642690Y-104843186D01*
X80537627Y-104794195D01*
X80484342Y-104747278D01*
X80464881Y-104679001D01*
X80485423Y-104611041D01*
X80537627Y-104565805D01*
X80642690Y-104516814D01*
X80642695Y-104516811D01*
X80647677Y-104514488D01*
X80814023Y-104398011D01*
X80825270Y-104390136D01*
X80825273Y-104390134D01*
X80829781Y-104386977D01*
X80986977Y-104229781D01*
X81046283Y-104145084D01*
X81111331Y-104052185D01*
X81111332Y-104052183D01*
X81114488Y-104047676D01*
X81116811Y-104042694D01*
X81116814Y-104042689D01*
X81185674Y-103895019D01*
X90974951Y-103895019D01*
X90974957Y-103902335D01*
X90974957Y-103902338D01*
X90974967Y-103913394D01*
X90975105Y-104071889D01*
X91015944Y-104243981D01*
X91019224Y-104250517D01*
X91019226Y-104250522D01*
X91092191Y-104395913D01*
X91092194Y-104395917D01*
X91095277Y-104402061D01*
X91099619Y-104407394D01*
X91099620Y-104407396D01*
X91159543Y-104481000D01*
X91159549Y-104481006D01*
X91161574Y-104483494D01*
X91816214Y-105138134D01*
X91818744Y-105140188D01*
X91818748Y-105140192D01*
X91893408Y-105200816D01*
X91893412Y-105200818D01*
X91898761Y-105205162D01*
X91904922Y-105208240D01*
X91904926Y-105208243D01*
X92050438Y-105280950D01*
X92050440Y-105280951D01*
X92056981Y-105284219D01*
X92123549Y-105299893D01*
X92222019Y-105323080D01*
X92222023Y-105323080D01*
X92229143Y-105324757D01*
X92236459Y-105324751D01*
X92236462Y-105324751D01*
X92317769Y-105324680D01*
X92406013Y-105324603D01*
X92492059Y-105304184D01*
X92570984Y-105285454D01*
X92570985Y-105285454D01*
X92578105Y-105283764D01*
X92584641Y-105280484D01*
X92584646Y-105280482D01*
X92730037Y-105207517D01*
X92730041Y-105207514D01*
X92736185Y-105204431D01*
X92741520Y-105200088D01*
X92815124Y-105140165D01*
X92815130Y-105140159D01*
X92817618Y-105138134D01*
X93808134Y-104147618D01*
X93816207Y-104137676D01*
X93870816Y-104070424D01*
X93870818Y-104070420D01*
X93875162Y-104065071D01*
X93878240Y-104058910D01*
X93878243Y-104058906D01*
X93950950Y-103913394D01*
X93950951Y-103913392D01*
X93954219Y-103906851D01*
X93980104Y-103796920D01*
X93993080Y-103741813D01*
X93993080Y-103741809D01*
X93994757Y-103734689D01*
X93994746Y-103721463D01*
X93994615Y-103571560D01*
X93994603Y-103557819D01*
X93965444Y-103434946D01*
X93955454Y-103392848D01*
X93955454Y-103392847D01*
X93953764Y-103385727D01*
X93950484Y-103379191D01*
X93950482Y-103379186D01*
X93877517Y-103233795D01*
X93877514Y-103233791D01*
X93874431Y-103227647D01*
X93847051Y-103194016D01*
X93810165Y-103148708D01*
X93810159Y-103148702D01*
X93808134Y-103146214D01*
X93153494Y-102491574D01*
X93150960Y-102489516D01*
X93076300Y-102428892D01*
X93076296Y-102428890D01*
X93070947Y-102424546D01*
X93064786Y-102421468D01*
X93064782Y-102421465D01*
X92919270Y-102348758D01*
X92919268Y-102348757D01*
X92912727Y-102345489D01*
X92846159Y-102329815D01*
X92747689Y-102306628D01*
X92747685Y-102306628D01*
X92740565Y-102304951D01*
X92733249Y-102304957D01*
X92733246Y-102304957D01*
X92651939Y-102305028D01*
X92563695Y-102305105D01*
X92548677Y-102308669D01*
X92398724Y-102344254D01*
X92398723Y-102344254D01*
X92391603Y-102345944D01*
X92385067Y-102349224D01*
X92385062Y-102349226D01*
X92239671Y-102422191D01*
X92239667Y-102422194D01*
X92233523Y-102425277D01*
X92228190Y-102429619D01*
X92228188Y-102429620D01*
X92154584Y-102489543D01*
X92154578Y-102489549D01*
X92152090Y-102491574D01*
X91161574Y-103482090D01*
X91159520Y-103484620D01*
X91159516Y-103484624D01*
X91098892Y-103559284D01*
X91098890Y-103559288D01*
X91094546Y-103564637D01*
X91091468Y-103570798D01*
X91091465Y-103570802D01*
X91018923Y-103715984D01*
X91015489Y-103722857D01*
X91013813Y-103729976D01*
X90977211Y-103885423D01*
X90974951Y-103895019D01*
X81185674Y-103895019D01*
X81206117Y-103851178D01*
X81206118Y-103851177D01*
X81208440Y-103846196D01*
X81265978Y-103631463D01*
X81285353Y-103410000D01*
X81265978Y-103188537D01*
X81208440Y-102973804D01*
X81199727Y-102955119D01*
X81118761Y-102781487D01*
X89464343Y-102781487D01*
X89464475Y-102783323D01*
X89468724Y-102789935D01*
X89604520Y-102925731D01*
X89609365Y-102930100D01*
X89683976Y-102990685D01*
X89695499Y-102998115D01*
X89840902Y-103070768D01*
X89854563Y-103075713D01*
X90012370Y-103112872D01*
X90026812Y-103114543D01*
X90188928Y-103114401D01*
X90203367Y-103112705D01*
X90361104Y-103075273D01*
X90374765Y-103070301D01*
X90520053Y-102997388D01*
X90531536Y-102989959D01*
X90605086Y-102930079D01*
X90609860Y-102925769D01*
X90910401Y-102625227D01*
X90918012Y-102611289D01*
X90917880Y-102609453D01*
X90913631Y-102602841D01*
X90287958Y-101977168D01*
X90274014Y-101969554D01*
X90272181Y-101969685D01*
X90265566Y-101973936D01*
X89471954Y-102767549D01*
X89464343Y-102781487D01*
X81118761Y-102781487D01*
X81116814Y-102777311D01*
X81116811Y-102777306D01*
X81114488Y-102772324D01*
X81111145Y-102767549D01*
X80990136Y-102594730D01*
X80990134Y-102594727D01*
X80986977Y-102590219D01*
X80829781Y-102433023D01*
X80825273Y-102429866D01*
X80825270Y-102429864D01*
X80709438Y-102348758D01*
X80647677Y-102305512D01*
X80642695Y-102303189D01*
X80642690Y-102303186D01*
X80537627Y-102254195D01*
X80484342Y-102207278D01*
X80464881Y-102139001D01*
X80485423Y-102071041D01*
X80537627Y-102025805D01*
X80642690Y-101976814D01*
X80642695Y-101976811D01*
X80647677Y-101974488D01*
X80764175Y-101892915D01*
X80825270Y-101850136D01*
X80825273Y-101850134D01*
X80829781Y-101846977D01*
X80984070Y-101692688D01*
X88765749Y-101692688D01*
X88765891Y-101854804D01*
X88767587Y-101869243D01*
X88805019Y-102026979D01*
X88809991Y-102040640D01*
X88882903Y-102185926D01*
X88890334Y-102197411D01*
X88950216Y-102270966D01*
X88954524Y-102275737D01*
X89087122Y-102408335D01*
X89101066Y-102415949D01*
X89102901Y-102415818D01*
X89109511Y-102411570D01*
X89903125Y-101617957D01*
X89909502Y-101606278D01*
X90639554Y-101606278D01*
X90639685Y-101608112D01*
X90643936Y-101614726D01*
X91269607Y-102240397D01*
X91283551Y-102248011D01*
X91285384Y-102247880D01*
X91291998Y-102243629D01*
X91452368Y-102083259D01*
X94982281Y-102083259D01*
X94982412Y-102085092D01*
X94986663Y-102091706D01*
X95290399Y-102395442D01*
X95295244Y-102399810D01*
X95369852Y-102460393D01*
X95381375Y-102467823D01*
X95526778Y-102540476D01*
X95540439Y-102545421D01*
X95698246Y-102582580D01*
X95712688Y-102584251D01*
X95874804Y-102584109D01*
X95889243Y-102582413D01*
X96046979Y-102544981D01*
X96060640Y-102540009D01*
X96205926Y-102467097D01*
X96217411Y-102459666D01*
X96290966Y-102399784D01*
X96295737Y-102395476D01*
X96428335Y-102262878D01*
X96435949Y-102248934D01*
X96435818Y-102247099D01*
X96431570Y-102240489D01*
X95637957Y-101446875D01*
X95624014Y-101439262D01*
X95622180Y-101439393D01*
X95615566Y-101443644D01*
X94989895Y-102069315D01*
X94982281Y-102083259D01*
X91452368Y-102083259D01*
X91595734Y-101939893D01*
X91600102Y-101935048D01*
X91660685Y-101860440D01*
X91668115Y-101848917D01*
X91740768Y-101703514D01*
X91745713Y-101689853D01*
X91782872Y-101532046D01*
X91784543Y-101517604D01*
X91784401Y-101355488D01*
X91782705Y-101341049D01*
X91745273Y-101183313D01*
X91740301Y-101169652D01*
X91667389Y-101024366D01*
X91659958Y-101012881D01*
X91600076Y-100939326D01*
X91595768Y-100934555D01*
X91487733Y-100826520D01*
X94115749Y-100826520D01*
X94115891Y-100988636D01*
X94117587Y-101003075D01*
X94155019Y-101160812D01*
X94159991Y-101174473D01*
X94232904Y-101319761D01*
X94240333Y-101331244D01*
X94300213Y-101404794D01*
X94304523Y-101409568D01*
X94605065Y-101710109D01*
X94619003Y-101717720D01*
X94620839Y-101717588D01*
X94627451Y-101713339D01*
X95253124Y-101087666D01*
X95259502Y-101075986D01*
X95989554Y-101075986D01*
X95989685Y-101077819D01*
X95993936Y-101084434D01*
X96787549Y-101878046D01*
X96801487Y-101885657D01*
X96803323Y-101885525D01*
X96809935Y-101881276D01*
X96945731Y-101745480D01*
X96950100Y-101740635D01*
X97010685Y-101666024D01*
X97018115Y-101654501D01*
X97090768Y-101509098D01*
X97095713Y-101495437D01*
X97132872Y-101337630D01*
X97134543Y-101323188D01*
X97134401Y-101161072D01*
X97132705Y-101146633D01*
X97095273Y-100988896D01*
X97090301Y-100975235D01*
X97017388Y-100829947D01*
X97009959Y-100818464D01*
X96950079Y-100744914D01*
X96945769Y-100740140D01*
X96645227Y-100439599D01*
X96631289Y-100431988D01*
X96629453Y-100432120D01*
X96622841Y-100436369D01*
X95997168Y-101062042D01*
X95989554Y-101075986D01*
X95259502Y-101075986D01*
X95260738Y-101073722D01*
X95260607Y-101071889D01*
X95256356Y-101065274D01*
X94462743Y-100271662D01*
X94448805Y-100264051D01*
X94446969Y-100264183D01*
X94440357Y-100268432D01*
X94304561Y-100404228D01*
X94300192Y-100409073D01*
X94239607Y-100483684D01*
X94232177Y-100495207D01*
X94159524Y-100640610D01*
X94154579Y-100654271D01*
X94117420Y-100812078D01*
X94115749Y-100826520D01*
X91487733Y-100826520D01*
X91463170Y-100801957D01*
X91449226Y-100794343D01*
X91447391Y-100794474D01*
X91440781Y-100798722D01*
X90647167Y-101592335D01*
X90639554Y-101606278D01*
X89909502Y-101606278D01*
X89910738Y-101604014D01*
X89910607Y-101602180D01*
X89906356Y-101595566D01*
X89280685Y-100969895D01*
X89266741Y-100962281D01*
X89264908Y-100962412D01*
X89258294Y-100966663D01*
X88954558Y-101270399D01*
X88950190Y-101275244D01*
X88889607Y-101349852D01*
X88882177Y-101361375D01*
X88809524Y-101506778D01*
X88804579Y-101520439D01*
X88767420Y-101678246D01*
X88765749Y-101692688D01*
X80984070Y-101692688D01*
X80986977Y-101689781D01*
X81008406Y-101659178D01*
X81111331Y-101512185D01*
X81111332Y-101512183D01*
X81114488Y-101507676D01*
X81116811Y-101502694D01*
X81116814Y-101502689D01*
X81206117Y-101311178D01*
X81206118Y-101311177D01*
X81208440Y-101306196D01*
X81265978Y-101091463D01*
X81285353Y-100870000D01*
X81265978Y-100648537D01*
X81252705Y-100599003D01*
X89632280Y-100599003D01*
X89632412Y-100600839D01*
X89636661Y-100607451D01*
X90262334Y-101233124D01*
X90276278Y-101240738D01*
X90278111Y-101240607D01*
X90284726Y-101236356D01*
X91078338Y-100442743D01*
X91085949Y-100428805D01*
X91085817Y-100426969D01*
X91081568Y-100420357D01*
X90945772Y-100284561D01*
X90940927Y-100280192D01*
X90866316Y-100219607D01*
X90854793Y-100212177D01*
X90709390Y-100139524D01*
X90695729Y-100134579D01*
X90537922Y-100097420D01*
X90523480Y-100095749D01*
X90361364Y-100095891D01*
X90346925Y-100097587D01*
X90189188Y-100135019D01*
X90175527Y-100139991D01*
X90030239Y-100212904D01*
X90018756Y-100220333D01*
X89945206Y-100280213D01*
X89940432Y-100284523D01*
X89639891Y-100585065D01*
X89632280Y-100599003D01*
X81252705Y-100599003D01*
X81208440Y-100433804D01*
X81202170Y-100420357D01*
X81116814Y-100237311D01*
X81116811Y-100237306D01*
X81114488Y-100232324D01*
X81106092Y-100220333D01*
X80990136Y-100054730D01*
X80990134Y-100054727D01*
X80986977Y-100050219D01*
X80829781Y-99893023D01*
X80825273Y-99889866D01*
X80825270Y-99889864D01*
X80749505Y-99836813D01*
X80647677Y-99765512D01*
X80642695Y-99763189D01*
X80642690Y-99763186D01*
X80537627Y-99714195D01*
X80484342Y-99667278D01*
X80464881Y-99599001D01*
X80485423Y-99531041D01*
X80537627Y-99485805D01*
X80642690Y-99436814D01*
X80642695Y-99436811D01*
X80647677Y-99434488D01*
X80783928Y-99339084D01*
X80825270Y-99310136D01*
X80825273Y-99310134D01*
X80829781Y-99306977D01*
X80986977Y-99149781D01*
X81002242Y-99127981D01*
X81111331Y-98972185D01*
X81111332Y-98972183D01*
X81114488Y-98967676D01*
X81116811Y-98962694D01*
X81116814Y-98962689D01*
X81206117Y-98771178D01*
X81206118Y-98771177D01*
X81208440Y-98766196D01*
X81211596Y-98754420D01*
X81248483Y-98616754D01*
X81262619Y-98563997D01*
X86730389Y-98563997D01*
X86730395Y-98571313D01*
X86730395Y-98571316D01*
X86730432Y-98613694D01*
X86730543Y-98740867D01*
X86771382Y-98912959D01*
X86774662Y-98919495D01*
X86774664Y-98919500D01*
X86847629Y-99064891D01*
X86847632Y-99064895D01*
X86850715Y-99071039D01*
X86855057Y-99076372D01*
X86855058Y-99076374D01*
X86914981Y-99149978D01*
X86914987Y-99149984D01*
X86917012Y-99152472D01*
X87907528Y-100142988D01*
X87910058Y-100145042D01*
X87910062Y-100145046D01*
X87984722Y-100205670D01*
X87984726Y-100205672D01*
X87990075Y-100210016D01*
X87996236Y-100213094D01*
X87996240Y-100213097D01*
X88141752Y-100285804D01*
X88141754Y-100285805D01*
X88148295Y-100289073D01*
X88214863Y-100304747D01*
X88313333Y-100327934D01*
X88313337Y-100327934D01*
X88320457Y-100329611D01*
X88327773Y-100329605D01*
X88327776Y-100329605D01*
X88409083Y-100329534D01*
X88497327Y-100329457D01*
X88629029Y-100298203D01*
X88662298Y-100290308D01*
X88662299Y-100290308D01*
X88669419Y-100288618D01*
X88675955Y-100285338D01*
X88675960Y-100285336D01*
X88821351Y-100212371D01*
X88821355Y-100212368D01*
X88827499Y-100209285D01*
X88834719Y-100203407D01*
X88906438Y-100145019D01*
X88906444Y-100145013D01*
X88908932Y-100142988D01*
X89151146Y-99900774D01*
X94814343Y-99900774D01*
X94814474Y-99902609D01*
X94818722Y-99909219D01*
X95612335Y-100702833D01*
X95626278Y-100710446D01*
X95628112Y-100710315D01*
X95634726Y-100706064D01*
X96260397Y-100080393D01*
X96268011Y-100066449D01*
X96267880Y-100064616D01*
X96263629Y-100058002D01*
X95959893Y-99754266D01*
X95955048Y-99749898D01*
X95880440Y-99689315D01*
X95868917Y-99681885D01*
X95723514Y-99609232D01*
X95709853Y-99604287D01*
X95552046Y-99567128D01*
X95537604Y-99565457D01*
X95375488Y-99565599D01*
X95361049Y-99567295D01*
X95203313Y-99604727D01*
X95189652Y-99609699D01*
X95044366Y-99682611D01*
X95032881Y-99690042D01*
X94959326Y-99749924D01*
X94954555Y-99754232D01*
X94821957Y-99886830D01*
X94814343Y-99900774D01*
X89151146Y-99900774D01*
X89563572Y-99488348D01*
X89589358Y-99456592D01*
X89626254Y-99411154D01*
X89626256Y-99411150D01*
X89630600Y-99405801D01*
X89633678Y-99399640D01*
X89633681Y-99399636D01*
X89706388Y-99254124D01*
X89706389Y-99254122D01*
X89709657Y-99247581D01*
X89732639Y-99149978D01*
X89748518Y-99082543D01*
X89748518Y-99082539D01*
X89750195Y-99075419D01*
X89750180Y-99057324D01*
X89750087Y-98951276D01*
X89750041Y-98898549D01*
X89725094Y-98793426D01*
X89710892Y-98733578D01*
X89710892Y-98733577D01*
X89709202Y-98726457D01*
X89705922Y-98719921D01*
X89705920Y-98719916D01*
X89650475Y-98609435D01*
X96324951Y-98609435D01*
X96325105Y-98786305D01*
X96326795Y-98793426D01*
X96352532Y-98901878D01*
X96365944Y-98958397D01*
X96369224Y-98964933D01*
X96369226Y-98964938D01*
X96442191Y-99110329D01*
X96442194Y-99110333D01*
X96445277Y-99116477D01*
X96449619Y-99121810D01*
X96449620Y-99121812D01*
X96509543Y-99195416D01*
X96509549Y-99195422D01*
X96511574Y-99197910D01*
X97502090Y-100188426D01*
X97504620Y-100190480D01*
X97504624Y-100190484D01*
X97579284Y-100251108D01*
X97579288Y-100251110D01*
X97584637Y-100255454D01*
X97590798Y-100258532D01*
X97590802Y-100258535D01*
X97736314Y-100331242D01*
X97736316Y-100331243D01*
X97742857Y-100334511D01*
X97809425Y-100350185D01*
X97907895Y-100373372D01*
X97907899Y-100373372D01*
X97915019Y-100375049D01*
X97922335Y-100375043D01*
X97922338Y-100375043D01*
X98003645Y-100374972D01*
X98091889Y-100374895D01*
X98228934Y-100342373D01*
X98256860Y-100335746D01*
X98256861Y-100335746D01*
X98263981Y-100334056D01*
X98270517Y-100330776D01*
X98270522Y-100330774D01*
X98415913Y-100257809D01*
X98415917Y-100257806D01*
X98422061Y-100254723D01*
X98427396Y-100250380D01*
X98501000Y-100190457D01*
X98501006Y-100190451D01*
X98503494Y-100188426D01*
X99158134Y-99533786D01*
X99160363Y-99531041D01*
X99220816Y-99456592D01*
X99220818Y-99456588D01*
X99225162Y-99451239D01*
X99228240Y-99445078D01*
X99228243Y-99445074D01*
X99300950Y-99299562D01*
X99300951Y-99299560D01*
X99304219Y-99293019D01*
X99337900Y-99149978D01*
X99343080Y-99127981D01*
X99343080Y-99127977D01*
X99344757Y-99120857D01*
X99344718Y-99075419D01*
X99344680Y-99032231D01*
X99344603Y-98943987D01*
X99324109Y-98857627D01*
X99305454Y-98779016D01*
X99305454Y-98779015D01*
X99303764Y-98771895D01*
X99300484Y-98765359D01*
X99300482Y-98765354D01*
X99227517Y-98619963D01*
X99227514Y-98619959D01*
X99224431Y-98613815D01*
X99220088Y-98608480D01*
X99160165Y-98534876D01*
X99160159Y-98534870D01*
X99158134Y-98532382D01*
X98167618Y-97541866D01*
X98138894Y-97518542D01*
X98090424Y-97479184D01*
X98090420Y-97479182D01*
X98085071Y-97474838D01*
X98078910Y-97471760D01*
X98078906Y-97471757D01*
X97933394Y-97399050D01*
X97933392Y-97399049D01*
X97926851Y-97395781D01*
X97860283Y-97380107D01*
X97761813Y-97356920D01*
X97761809Y-97356920D01*
X97754689Y-97355243D01*
X97747373Y-97355249D01*
X97747370Y-97355249D01*
X97666063Y-97355320D01*
X97577819Y-97355397D01*
X97491773Y-97375817D01*
X97412848Y-97394546D01*
X97412847Y-97394546D01*
X97405727Y-97396236D01*
X97399191Y-97399516D01*
X97399186Y-97399518D01*
X97253795Y-97472483D01*
X97253791Y-97472486D01*
X97247647Y-97475569D01*
X97242314Y-97479911D01*
X97242312Y-97479912D01*
X97168708Y-97539835D01*
X97168702Y-97539841D01*
X97166214Y-97541866D01*
X96511574Y-98196506D01*
X96509520Y-98199036D01*
X96509516Y-98199040D01*
X96448892Y-98273700D01*
X96448890Y-98273704D01*
X96444546Y-98279053D01*
X96441468Y-98285214D01*
X96441465Y-98285218D01*
X96368758Y-98430730D01*
X96365489Y-98437273D01*
X96358346Y-98467610D01*
X96329407Y-98590512D01*
X96324951Y-98609435D01*
X89650475Y-98609435D01*
X89632955Y-98574525D01*
X89632952Y-98574521D01*
X89629869Y-98568377D01*
X89625526Y-98563042D01*
X89565603Y-98489438D01*
X89565597Y-98489432D01*
X89563572Y-98486944D01*
X88695033Y-97618405D01*
X89807135Y-97618405D01*
X89807266Y-97620238D01*
X89811517Y-97626852D01*
X90115253Y-97930588D01*
X90120098Y-97934956D01*
X90194706Y-97995539D01*
X90206229Y-98002969D01*
X90351632Y-98075622D01*
X90365293Y-98080567D01*
X90523100Y-98117726D01*
X90537542Y-98119397D01*
X90699658Y-98119255D01*
X90714097Y-98117559D01*
X90871833Y-98080127D01*
X90885494Y-98075155D01*
X91030780Y-98002243D01*
X91042265Y-97994812D01*
X91115820Y-97934930D01*
X91120591Y-97930622D01*
X91253189Y-97798024D01*
X91260803Y-97784080D01*
X91260672Y-97782245D01*
X91256424Y-97775635D01*
X90462811Y-96982021D01*
X90448868Y-96974408D01*
X90447034Y-96974539D01*
X90440420Y-96978790D01*
X89814749Y-97604461D01*
X89807135Y-97618405D01*
X88695033Y-97618405D01*
X88573056Y-97496428D01*
X88570522Y-97494370D01*
X88495862Y-97433746D01*
X88495858Y-97433744D01*
X88490509Y-97429400D01*
X88484348Y-97426322D01*
X88484344Y-97426319D01*
X88338832Y-97353612D01*
X88338830Y-97353611D01*
X88332289Y-97350343D01*
X88265721Y-97334669D01*
X88167251Y-97311482D01*
X88167247Y-97311482D01*
X88160127Y-97309805D01*
X88152811Y-97309811D01*
X88152808Y-97309811D01*
X88071501Y-97309882D01*
X87983257Y-97309959D01*
X87933811Y-97321693D01*
X87818286Y-97349108D01*
X87818285Y-97349108D01*
X87811165Y-97350798D01*
X87804629Y-97354078D01*
X87804624Y-97354080D01*
X87659233Y-97427045D01*
X87659229Y-97427048D01*
X87653085Y-97430131D01*
X87647752Y-97434473D01*
X87647750Y-97434474D01*
X87574146Y-97494397D01*
X87574140Y-97494403D01*
X87571652Y-97496428D01*
X86917012Y-98151068D01*
X86914958Y-98153598D01*
X86914954Y-98153602D01*
X86854330Y-98228262D01*
X86854328Y-98228266D01*
X86849984Y-98233615D01*
X86846906Y-98239776D01*
X86846903Y-98239780D01*
X86799088Y-98335475D01*
X86770927Y-98391835D01*
X86730389Y-98563997D01*
X81262619Y-98563997D01*
X81265978Y-98551463D01*
X81285353Y-98330000D01*
X81265978Y-98108537D01*
X81219460Y-97934930D01*
X81209863Y-97899114D01*
X81209862Y-97899112D01*
X81208440Y-97893804D01*
X81206117Y-97888822D01*
X81116814Y-97697311D01*
X81116811Y-97697306D01*
X81114488Y-97692324D01*
X81068644Y-97626852D01*
X80990136Y-97514730D01*
X80990134Y-97514727D01*
X80986977Y-97510219D01*
X80829781Y-97353023D01*
X80825273Y-97349866D01*
X80825270Y-97349864D01*
X80686554Y-97252734D01*
X80647677Y-97225512D01*
X80642695Y-97223189D01*
X80642690Y-97223186D01*
X80537627Y-97174195D01*
X80484342Y-97127278D01*
X80464881Y-97059001D01*
X80485423Y-96991041D01*
X80537627Y-96945805D01*
X80642690Y-96896814D01*
X80642695Y-96896811D01*
X80647677Y-96894488D01*
X80785326Y-96798105D01*
X80825270Y-96770136D01*
X80825273Y-96770134D01*
X80829781Y-96766977D01*
X80986977Y-96609781D01*
X81000444Y-96590549D01*
X81111331Y-96432185D01*
X81111332Y-96432183D01*
X81114488Y-96427676D01*
X81116811Y-96422694D01*
X81116814Y-96422689D01*
X81145269Y-96361666D01*
X88940603Y-96361666D01*
X88940745Y-96523782D01*
X88942441Y-96538221D01*
X88979873Y-96695958D01*
X88984845Y-96709619D01*
X89057758Y-96854907D01*
X89065187Y-96866390D01*
X89125067Y-96939940D01*
X89129377Y-96944714D01*
X89429919Y-97245255D01*
X89443857Y-97252866D01*
X89445693Y-97252734D01*
X89452305Y-97248485D01*
X90077978Y-96622812D01*
X90084356Y-96611132D01*
X90814408Y-96611132D01*
X90814539Y-96612965D01*
X90818790Y-96619580D01*
X91612403Y-97413192D01*
X91626341Y-97420803D01*
X91628177Y-97420671D01*
X91634789Y-97416422D01*
X91770585Y-97280626D01*
X91774954Y-97275781D01*
X91835539Y-97201170D01*
X91842969Y-97189647D01*
X91915622Y-97044244D01*
X91920567Y-97030583D01*
X91957726Y-96872776D01*
X91959397Y-96858334D01*
X91959319Y-96769195D01*
X100624051Y-96769195D01*
X100624183Y-96771031D01*
X100628432Y-96777643D01*
X100764228Y-96913439D01*
X100769073Y-96917808D01*
X100843684Y-96978393D01*
X100855207Y-96985823D01*
X101000610Y-97058476D01*
X101014271Y-97063421D01*
X101172078Y-97100580D01*
X101186520Y-97102251D01*
X101348636Y-97102109D01*
X101363075Y-97100413D01*
X101520812Y-97062981D01*
X101534473Y-97058009D01*
X101679761Y-96985096D01*
X101691244Y-96977667D01*
X101764794Y-96917787D01*
X101769568Y-96913477D01*
X102070109Y-96612935D01*
X102077720Y-96598997D01*
X102077588Y-96597161D01*
X102073339Y-96590549D01*
X101447666Y-95964876D01*
X101433722Y-95957262D01*
X101431889Y-95957393D01*
X101425274Y-95961644D01*
X100631662Y-96755257D01*
X100624051Y-96769195D01*
X91959319Y-96769195D01*
X91959255Y-96696218D01*
X91957559Y-96681779D01*
X91920127Y-96524042D01*
X91915155Y-96510381D01*
X91842242Y-96365093D01*
X91834813Y-96353610D01*
X91774933Y-96280060D01*
X91770623Y-96275286D01*
X91470081Y-95974745D01*
X91456143Y-95967134D01*
X91454307Y-95967266D01*
X91447695Y-95971515D01*
X90822022Y-96597188D01*
X90814408Y-96611132D01*
X90084356Y-96611132D01*
X90085592Y-96608868D01*
X90085461Y-96607035D01*
X90081210Y-96600420D01*
X89287597Y-95806808D01*
X89273659Y-95799197D01*
X89271823Y-95799329D01*
X89265211Y-95803578D01*
X89129415Y-95939374D01*
X89125046Y-95944219D01*
X89064461Y-96018830D01*
X89057031Y-96030353D01*
X88984378Y-96175756D01*
X88979433Y-96189417D01*
X88942274Y-96347224D01*
X88940603Y-96361666D01*
X81145269Y-96361666D01*
X81206117Y-96231178D01*
X81206118Y-96231177D01*
X81208440Y-96226196D01*
X81221956Y-96175756D01*
X81227503Y-96155051D01*
X81265978Y-96011463D01*
X81285353Y-95790000D01*
X81265978Y-95568537D01*
X81208440Y-95353804D01*
X81186319Y-95306365D01*
X81116814Y-95157311D01*
X81116811Y-95157306D01*
X81114488Y-95152324D01*
X81091665Y-95119729D01*
X80990136Y-94974730D01*
X80990134Y-94974727D01*
X80986977Y-94970219D01*
X80829781Y-94813023D01*
X80825273Y-94809866D01*
X80825270Y-94809864D01*
X80680484Y-94708484D01*
X80647677Y-94685512D01*
X80642695Y-94683189D01*
X80642690Y-94683186D01*
X80537627Y-94634195D01*
X80484342Y-94587278D01*
X80464881Y-94519001D01*
X80485423Y-94451041D01*
X80537627Y-94405805D01*
X80642690Y-94356814D01*
X80642695Y-94356811D01*
X80647677Y-94354488D01*
X80786724Y-94257126D01*
X80825270Y-94230136D01*
X80825273Y-94230134D01*
X80829781Y-94226977D01*
X80986977Y-94069781D01*
X80998342Y-94053551D01*
X81111331Y-93892185D01*
X81111332Y-93892183D01*
X81114488Y-93887676D01*
X81116811Y-93882694D01*
X81116814Y-93882689D01*
X81206117Y-93691178D01*
X81206118Y-93691177D01*
X81208440Y-93686196D01*
X81265978Y-93471463D01*
X81285353Y-93250000D01*
X81265978Y-93028537D01*
X81208440Y-92813804D01*
X81202976Y-92802087D01*
X81116814Y-92617311D01*
X81116811Y-92617306D01*
X81114488Y-92612324D01*
X80986977Y-92430219D01*
X80829781Y-92273023D01*
X80825273Y-92269866D01*
X80825270Y-92269864D01*
X80749505Y-92216813D01*
X80647677Y-92145512D01*
X80642695Y-92143189D01*
X80642690Y-92143186D01*
X80537627Y-92094195D01*
X80484342Y-92047278D01*
X80464881Y-91979001D01*
X80485423Y-91911041D01*
X80537627Y-91865805D01*
X80642690Y-91816814D01*
X80642695Y-91816811D01*
X80647677Y-91814488D01*
X80798088Y-91709169D01*
X80825270Y-91690136D01*
X80825273Y-91690134D01*
X80829781Y-91686977D01*
X80986977Y-91529781D01*
X81002894Y-91507050D01*
X81111331Y-91352185D01*
X81111332Y-91352183D01*
X81114488Y-91347676D01*
X81116811Y-91342694D01*
X81116814Y-91342689D01*
X81206117Y-91151178D01*
X81206118Y-91151177D01*
X81208440Y-91146196D01*
X81215941Y-91118204D01*
X81250107Y-90990693D01*
X81265978Y-90931463D01*
X81285353Y-90710000D01*
X81265978Y-90488537D01*
X81222188Y-90325112D01*
X81209863Y-90279114D01*
X81209862Y-90279112D01*
X81208440Y-90273804D01*
X81190148Y-90234577D01*
X81116814Y-90077311D01*
X81116811Y-90077306D01*
X81114488Y-90072324D01*
X81090718Y-90038377D01*
X80990136Y-89894730D01*
X80990134Y-89894727D01*
X80986977Y-89890219D01*
X80829781Y-89733023D01*
X80825273Y-89729866D01*
X80825270Y-89729864D01*
X80707445Y-89647362D01*
X80647677Y-89605512D01*
X80642695Y-89603189D01*
X80642690Y-89603186D01*
X80537627Y-89554195D01*
X80484342Y-89507278D01*
X80464881Y-89439001D01*
X80485423Y-89371041D01*
X80537627Y-89325805D01*
X80642690Y-89276814D01*
X80642695Y-89276811D01*
X80647677Y-89274488D01*
X80802172Y-89166309D01*
X80825270Y-89150136D01*
X80825273Y-89150134D01*
X80829781Y-89146977D01*
X80986977Y-88989781D01*
X80997868Y-88974228D01*
X81111331Y-88812185D01*
X81111332Y-88812183D01*
X81114488Y-88807676D01*
X81116811Y-88802694D01*
X81116814Y-88802689D01*
X81206117Y-88611178D01*
X81206118Y-88611177D01*
X81208440Y-88606196D01*
X81223624Y-88549531D01*
X81229514Y-88527548D01*
X81265978Y-88391463D01*
X81285353Y-88170000D01*
X81265978Y-87948537D01*
X81223144Y-87788679D01*
X81209863Y-87739114D01*
X81209862Y-87739112D01*
X81208440Y-87733804D01*
X81183330Y-87679955D01*
X81116814Y-87537311D01*
X81116811Y-87537306D01*
X81114488Y-87532324D01*
X81111331Y-87527815D01*
X80990136Y-87354730D01*
X80990134Y-87354727D01*
X80986977Y-87350219D01*
X80829781Y-87193023D01*
X80825273Y-87189866D01*
X80825270Y-87189864D01*
X80729300Y-87122665D01*
X80647677Y-87065512D01*
X80642695Y-87063189D01*
X80642690Y-87063186D01*
X80537627Y-87014195D01*
X80484342Y-86967278D01*
X80464881Y-86899001D01*
X80485423Y-86831041D01*
X80537627Y-86785805D01*
X80642690Y-86736814D01*
X80642695Y-86736811D01*
X80647677Y-86734488D01*
X80790920Y-86634188D01*
X80825270Y-86610136D01*
X80825273Y-86610134D01*
X80829781Y-86606977D01*
X80986977Y-86449781D01*
X81052958Y-86355551D01*
X81111331Y-86272185D01*
X81111332Y-86272183D01*
X81114488Y-86267676D01*
X81116811Y-86262694D01*
X81116814Y-86262689D01*
X81206117Y-86071178D01*
X81206118Y-86071177D01*
X81208440Y-86066196D01*
X81265978Y-85851463D01*
X81285353Y-85630000D01*
X81265978Y-85408537D01*
X81215578Y-85220444D01*
X81209863Y-85199114D01*
X81209862Y-85199112D01*
X81208440Y-85193804D01*
X81193921Y-85162668D01*
X81116814Y-84997311D01*
X81116811Y-84997306D01*
X81114488Y-84992324D01*
X81110409Y-84986498D01*
X80990136Y-84814730D01*
X80990134Y-84814727D01*
X80986977Y-84810219D01*
X80829781Y-84653023D01*
X80825273Y-84649866D01*
X80825270Y-84649864D01*
X80702922Y-84564195D01*
X80647677Y-84525512D01*
X80642695Y-84523189D01*
X80642690Y-84523186D01*
X80537627Y-84474195D01*
X80484342Y-84427278D01*
X80464881Y-84359001D01*
X80485423Y-84291041D01*
X80537627Y-84245805D01*
X80642690Y-84196814D01*
X80642695Y-84196811D01*
X80647677Y-84194488D01*
X80795780Y-84090785D01*
X80825270Y-84070136D01*
X80825273Y-84070134D01*
X80829781Y-84066977D01*
X80986977Y-83909781D01*
X81048313Y-83822185D01*
X81111331Y-83732185D01*
X81111332Y-83732183D01*
X81114488Y-83727676D01*
X81116811Y-83722694D01*
X81116814Y-83722689D01*
X81206117Y-83531178D01*
X81206118Y-83531177D01*
X81208440Y-83526196D01*
X81247185Y-83381600D01*
X83706900Y-83381600D01*
X83707237Y-83384846D01*
X83707237Y-83384850D01*
X83716386Y-83473023D01*
X83717874Y-83487366D01*
X83720055Y-83493902D01*
X83720055Y-83493904D01*
X83754093Y-83595926D01*
X83773850Y-83655146D01*
X83866922Y-83805548D01*
X83872104Y-83810721D01*
X83878709Y-83817314D01*
X83992097Y-83930505D01*
X83998327Y-83934345D01*
X83998328Y-83934346D01*
X84135847Y-84019114D01*
X84142662Y-84023315D01*
X84171560Y-84032900D01*
X84304011Y-84076832D01*
X84304013Y-84076832D01*
X84310539Y-84078997D01*
X84317377Y-84079698D01*
X84317379Y-84079698D01*
X84343342Y-84082358D01*
X84409070Y-84109199D01*
X84449852Y-84167314D01*
X84456500Y-84207702D01*
X84456500Y-86618407D01*
X84454268Y-86642016D01*
X84452725Y-86650106D01*
X84453223Y-86658017D01*
X84456251Y-86706151D01*
X84456500Y-86714062D01*
X84456500Y-94420476D01*
X84436498Y-94488597D01*
X84424142Y-94504779D01*
X84350960Y-94586056D01*
X84255473Y-94751444D01*
X84196458Y-94933072D01*
X84195768Y-94939633D01*
X84195768Y-94939635D01*
X84192069Y-94974834D01*
X84176496Y-95123000D01*
X84177186Y-95129565D01*
X84191145Y-95262373D01*
X84196458Y-95312928D01*
X84255473Y-95494556D01*
X84258776Y-95500278D01*
X84258777Y-95500279D01*
X84269341Y-95518576D01*
X84350960Y-95659944D01*
X84355378Y-95664851D01*
X84355379Y-95664852D01*
X84474325Y-95796955D01*
X84478747Y-95801866D01*
X84633248Y-95914118D01*
X84639276Y-95916802D01*
X84639278Y-95916803D01*
X84762164Y-95971515D01*
X84807712Y-95991794D01*
X84900247Y-96011463D01*
X84988056Y-96030128D01*
X84988061Y-96030128D01*
X84994513Y-96031500D01*
X85185487Y-96031500D01*
X85191939Y-96030128D01*
X85191944Y-96030128D01*
X85279753Y-96011463D01*
X85372288Y-95991794D01*
X85417836Y-95971515D01*
X85540722Y-95916803D01*
X85540724Y-95916802D01*
X85546752Y-95914118D01*
X85701253Y-95801866D01*
X85705675Y-95796955D01*
X85824621Y-95664852D01*
X85824622Y-95664851D01*
X85829040Y-95659944D01*
X85910659Y-95518576D01*
X85921223Y-95500279D01*
X85921224Y-95500278D01*
X85924527Y-95494556D01*
X85943579Y-95435920D01*
X89639197Y-95435920D01*
X89639328Y-95437755D01*
X89643576Y-95444365D01*
X90437189Y-96237979D01*
X90451132Y-96245592D01*
X90452966Y-96245461D01*
X90459580Y-96241210D01*
X91020394Y-95680396D01*
X99925457Y-95680396D01*
X99925599Y-95842512D01*
X99927295Y-95856951D01*
X99964727Y-96014687D01*
X99969699Y-96028348D01*
X100042611Y-96173634D01*
X100050042Y-96185119D01*
X100109924Y-96258674D01*
X100114232Y-96263445D01*
X100246830Y-96396043D01*
X100260774Y-96403657D01*
X100262609Y-96403526D01*
X100269219Y-96399278D01*
X101062833Y-95605665D01*
X101070446Y-95591722D01*
X101070315Y-95589888D01*
X101066064Y-95583274D01*
X100440393Y-94957603D01*
X100426449Y-94949989D01*
X100424616Y-94950120D01*
X100418002Y-94954371D01*
X100114266Y-95258107D01*
X100109898Y-95262952D01*
X100049315Y-95337560D01*
X100041885Y-95349083D01*
X99969232Y-95494486D01*
X99964287Y-95508147D01*
X99927128Y-95665954D01*
X99925457Y-95680396D01*
X91020394Y-95680396D01*
X91085251Y-95615539D01*
X91092865Y-95601595D01*
X91092734Y-95599762D01*
X91088483Y-95593148D01*
X90784747Y-95289412D01*
X90779902Y-95285044D01*
X90705294Y-95224461D01*
X90693771Y-95217031D01*
X90548368Y-95144378D01*
X90534707Y-95139433D01*
X90376900Y-95102274D01*
X90362458Y-95100603D01*
X90200342Y-95100745D01*
X90185903Y-95102441D01*
X90028167Y-95139873D01*
X90014506Y-95144845D01*
X89869220Y-95217757D01*
X89857735Y-95225188D01*
X89784180Y-95285070D01*
X89779409Y-95289378D01*
X89646811Y-95421976D01*
X89639197Y-95435920D01*
X85943579Y-95435920D01*
X85983542Y-95312928D01*
X85988856Y-95262373D01*
X86002814Y-95129565D01*
X86003504Y-95123000D01*
X85987931Y-94974834D01*
X85984232Y-94939635D01*
X85984232Y-94939633D01*
X85983542Y-94933072D01*
X85924527Y-94751444D01*
X85829040Y-94586056D01*
X85755863Y-94504785D01*
X85725147Y-94440779D01*
X85723500Y-94420476D01*
X85723500Y-87899500D01*
X85743502Y-87831379D01*
X85797158Y-87784886D01*
X85849500Y-87773500D01*
X86655400Y-87773500D01*
X86658646Y-87773163D01*
X86658650Y-87773163D01*
X86754307Y-87763238D01*
X86754311Y-87763237D01*
X86761165Y-87762526D01*
X86767701Y-87760345D01*
X86767703Y-87760345D01*
X86903261Y-87715119D01*
X86928945Y-87706550D01*
X87079348Y-87613478D01*
X87204305Y-87488303D01*
X87208415Y-87481636D01*
X87293275Y-87343968D01*
X87293276Y-87343966D01*
X87297115Y-87337738D01*
X87336206Y-87219882D01*
X87350632Y-87176389D01*
X87350632Y-87176387D01*
X87352797Y-87169861D01*
X87355356Y-87144891D01*
X87363172Y-87068598D01*
X87363500Y-87065400D01*
X87363500Y-85714600D01*
X87362985Y-85709633D01*
X87353238Y-85615693D01*
X87353237Y-85615689D01*
X87352526Y-85608835D01*
X87335171Y-85556814D01*
X87298868Y-85448003D01*
X87296550Y-85441055D01*
X87203478Y-85290652D01*
X87078303Y-85165695D01*
X87062020Y-85155658D01*
X86933968Y-85076725D01*
X86933966Y-85076724D01*
X86927738Y-85072885D01*
X86767254Y-85019655D01*
X86766389Y-85019368D01*
X86766387Y-85019368D01*
X86759861Y-85017203D01*
X86753025Y-85016503D01*
X86753022Y-85016502D01*
X86709969Y-85012091D01*
X86655400Y-85006500D01*
X85849500Y-85006500D01*
X85781379Y-84986498D01*
X85734886Y-84932842D01*
X85723500Y-84880500D01*
X85723500Y-84212880D01*
X85743502Y-84144759D01*
X85797158Y-84098266D01*
X85836496Y-84087553D01*
X85914708Y-84079438D01*
X85914712Y-84079437D01*
X85921566Y-84078726D01*
X85928102Y-84076545D01*
X85928104Y-84076545D01*
X86060206Y-84032472D01*
X86089346Y-84022750D01*
X86239748Y-83929678D01*
X86264114Y-83905270D01*
X86359534Y-83809683D01*
X86364705Y-83804503D01*
X86382148Y-83776206D01*
X86453675Y-83660168D01*
X86453676Y-83660166D01*
X86457515Y-83653938D01*
X86486874Y-83565423D01*
X86511032Y-83492589D01*
X86511032Y-83492587D01*
X86513197Y-83486061D01*
X86523900Y-83381600D01*
X86523900Y-82455800D01*
X86523563Y-82452550D01*
X86513638Y-82356892D01*
X86513637Y-82356888D01*
X86512926Y-82350034D01*
X86494153Y-82293763D01*
X86459268Y-82189202D01*
X86456950Y-82182254D01*
X86363878Y-82031852D01*
X86238703Y-81906895D01*
X86231067Y-81902188D01*
X86094368Y-81817925D01*
X86094366Y-81817924D01*
X86088138Y-81814085D01*
X86008395Y-81787636D01*
X85926789Y-81760568D01*
X85926787Y-81760568D01*
X85920261Y-81758403D01*
X85913425Y-81757703D01*
X85913422Y-81757702D01*
X85870369Y-81753291D01*
X85815800Y-81747700D01*
X84415000Y-81747700D01*
X84411754Y-81748037D01*
X84411750Y-81748037D01*
X84316092Y-81757962D01*
X84316088Y-81757963D01*
X84309234Y-81758674D01*
X84302698Y-81760855D01*
X84302696Y-81760855D01*
X84197939Y-81795805D01*
X84141454Y-81814650D01*
X83991052Y-81907722D01*
X83866095Y-82032897D01*
X83862255Y-82039127D01*
X83862254Y-82039128D01*
X83804599Y-82132662D01*
X83773285Y-82183462D01*
X83746836Y-82263205D01*
X83719954Y-82344252D01*
X83717603Y-82351339D01*
X83706900Y-82455800D01*
X83706900Y-83381600D01*
X81247185Y-83381600D01*
X81265978Y-83311463D01*
X81285353Y-83090000D01*
X81265978Y-82868537D01*
X81218924Y-82692931D01*
X81209863Y-82659114D01*
X81209862Y-82659112D01*
X81208440Y-82653804D01*
X81190148Y-82614577D01*
X81116814Y-82457311D01*
X81116811Y-82457306D01*
X81114488Y-82452324D01*
X81088949Y-82415850D01*
X80990136Y-82274730D01*
X80990134Y-82274727D01*
X80986977Y-82270219D01*
X80829781Y-82113023D01*
X80825273Y-82109866D01*
X80825270Y-82109864D01*
X80724248Y-82039128D01*
X80647677Y-81985512D01*
X80642695Y-81983189D01*
X80642690Y-81983186D01*
X80537627Y-81934195D01*
X80484342Y-81887278D01*
X80464881Y-81819001D01*
X80485423Y-81751041D01*
X80537627Y-81705805D01*
X80642690Y-81656814D01*
X80642695Y-81656811D01*
X80647677Y-81654488D01*
X80793716Y-81552230D01*
X80825270Y-81530136D01*
X80825273Y-81530134D01*
X80829781Y-81526977D01*
X80986977Y-81369781D01*
X81048051Y-81282559D01*
X81111331Y-81192185D01*
X81111332Y-81192183D01*
X81114488Y-81187676D01*
X81116811Y-81182694D01*
X81116814Y-81182689D01*
X81206117Y-80991178D01*
X81206118Y-80991177D01*
X81208440Y-80986196D01*
X81214425Y-80963862D01*
X81239038Y-80872005D01*
X81265978Y-80771463D01*
X81285353Y-80550000D01*
X81265978Y-80328537D01*
X81245817Y-80253295D01*
X83707401Y-80253295D01*
X83707738Y-80259814D01*
X83717657Y-80355406D01*
X83720549Y-80368800D01*
X83771988Y-80522984D01*
X83778161Y-80536162D01*
X83863463Y-80674007D01*
X83872499Y-80685408D01*
X83987229Y-80799939D01*
X83998640Y-80808951D01*
X84136643Y-80894016D01*
X84149824Y-80900163D01*
X84304110Y-80951338D01*
X84317486Y-80954205D01*
X84411838Y-80963872D01*
X84418254Y-80964200D01*
X84843285Y-80964200D01*
X84858524Y-80959725D01*
X84859729Y-80958335D01*
X84861400Y-80950652D01*
X84861400Y-80946084D01*
X85369400Y-80946084D01*
X85373875Y-80961323D01*
X85375265Y-80962528D01*
X85382948Y-80964199D01*
X85812495Y-80964199D01*
X85819014Y-80963862D01*
X85914606Y-80953943D01*
X85928000Y-80951051D01*
X86082184Y-80899612D01*
X86095362Y-80893439D01*
X86233207Y-80808137D01*
X86244608Y-80799101D01*
X86359139Y-80684371D01*
X86368151Y-80672960D01*
X86453216Y-80534957D01*
X86459363Y-80521776D01*
X86510538Y-80367490D01*
X86513405Y-80354114D01*
X86523072Y-80259762D01*
X86523400Y-80253346D01*
X86523400Y-80065815D01*
X86518925Y-80050576D01*
X86517535Y-80049371D01*
X86509852Y-80047700D01*
X85387515Y-80047700D01*
X85372276Y-80052175D01*
X85371071Y-80053565D01*
X85369400Y-80061248D01*
X85369400Y-80946084D01*
X84861400Y-80946084D01*
X84861400Y-80065815D01*
X84856925Y-80050576D01*
X84855535Y-80049371D01*
X84847852Y-80047700D01*
X83725516Y-80047700D01*
X83710277Y-80052175D01*
X83709072Y-80053565D01*
X83707401Y-80061248D01*
X83707401Y-80253295D01*
X81245817Y-80253295D01*
X81213119Y-80131267D01*
X81209863Y-80119114D01*
X81209862Y-80119112D01*
X81208440Y-80113804D01*
X81203897Y-80104061D01*
X81116814Y-79917311D01*
X81116811Y-79917306D01*
X81114488Y-79912324D01*
X81111331Y-79907815D01*
X80990136Y-79734730D01*
X80990134Y-79734727D01*
X80986977Y-79730219D01*
X80829781Y-79573023D01*
X80825273Y-79569866D01*
X80825270Y-79569864D01*
X80756320Y-79521585D01*
X83707400Y-79521585D01*
X83711875Y-79536824D01*
X83713265Y-79538029D01*
X83720948Y-79539700D01*
X84843285Y-79539700D01*
X84858524Y-79535225D01*
X84859729Y-79533835D01*
X84861400Y-79526152D01*
X84861400Y-79521585D01*
X85369400Y-79521585D01*
X85373875Y-79536824D01*
X85375265Y-79538029D01*
X85382948Y-79539700D01*
X86505284Y-79539700D01*
X86520523Y-79535225D01*
X86521728Y-79533835D01*
X86523399Y-79526152D01*
X86523399Y-79334105D01*
X86523062Y-79327586D01*
X86513143Y-79231994D01*
X86510251Y-79218600D01*
X86458812Y-79064416D01*
X86452639Y-79051238D01*
X86367337Y-78913393D01*
X86358301Y-78901992D01*
X86243571Y-78787461D01*
X86232160Y-78778449D01*
X86094157Y-78693384D01*
X86080976Y-78687237D01*
X85926690Y-78636062D01*
X85913314Y-78633195D01*
X85818962Y-78623528D01*
X85812545Y-78623200D01*
X85387515Y-78623200D01*
X85372276Y-78627675D01*
X85371071Y-78629065D01*
X85369400Y-78636748D01*
X85369400Y-79521585D01*
X84861400Y-79521585D01*
X84861400Y-78641316D01*
X84856925Y-78626077D01*
X84855535Y-78624872D01*
X84847852Y-78623201D01*
X84418305Y-78623201D01*
X84411786Y-78623538D01*
X84316194Y-78633457D01*
X84302800Y-78636349D01*
X84148616Y-78687788D01*
X84135438Y-78693961D01*
X83997593Y-78779263D01*
X83986192Y-78788299D01*
X83871661Y-78903029D01*
X83862649Y-78914440D01*
X83777584Y-79052443D01*
X83771437Y-79065624D01*
X83720262Y-79219910D01*
X83717395Y-79233286D01*
X83707728Y-79327638D01*
X83707400Y-79334055D01*
X83707400Y-79521585D01*
X80756320Y-79521585D01*
X80738650Y-79509212D01*
X80647677Y-79445512D01*
X80642695Y-79443189D01*
X80642690Y-79443186D01*
X80537627Y-79394195D01*
X80484342Y-79347278D01*
X80464881Y-79279001D01*
X80485423Y-79211041D01*
X80537627Y-79165805D01*
X80642690Y-79116814D01*
X80642695Y-79116811D01*
X80647677Y-79114488D01*
X80796824Y-79010054D01*
X80825270Y-78990136D01*
X80825273Y-78990134D01*
X80829781Y-78986977D01*
X80986977Y-78829781D01*
X81000183Y-78810922D01*
X81111331Y-78652185D01*
X81111332Y-78652183D01*
X81114488Y-78647676D01*
X81116811Y-78642694D01*
X81116814Y-78642689D01*
X81206117Y-78451178D01*
X81206118Y-78451177D01*
X81208440Y-78446196D01*
X81211596Y-78434420D01*
X81241935Y-78321193D01*
X81265978Y-78231463D01*
X81285353Y-78010000D01*
X81265978Y-77788537D01*
X81208440Y-77573804D01*
X81206117Y-77568822D01*
X81116814Y-77377311D01*
X81116811Y-77377306D01*
X81114488Y-77372324D01*
X81064517Y-77300958D01*
X80990136Y-77194730D01*
X80990134Y-77194727D01*
X80986977Y-77190219D01*
X80829781Y-77033023D01*
X80825273Y-77029866D01*
X80825270Y-77029864D01*
X80749505Y-76976813D01*
X80647677Y-76905512D01*
X80642695Y-76903189D01*
X80642690Y-76903186D01*
X80451178Y-76813883D01*
X80451177Y-76813882D01*
X80446196Y-76811560D01*
X80440888Y-76810138D01*
X80440886Y-76810137D01*
X80334444Y-76781616D01*
X80231463Y-76754022D01*
X80010000Y-76734647D01*
X79788537Y-76754022D01*
X79685556Y-76781616D01*
X79579114Y-76810137D01*
X79579112Y-76810138D01*
X79573804Y-76811560D01*
X79568823Y-76813882D01*
X79568822Y-76813883D01*
X79377311Y-76903186D01*
X79377306Y-76903189D01*
X79372324Y-76905512D01*
X79367817Y-76908668D01*
X79367815Y-76908669D01*
X79194730Y-77029864D01*
X79194727Y-77029866D01*
X79190219Y-77033023D01*
X79033023Y-77190219D01*
X79029865Y-77194729D01*
X79029860Y-77194735D01*
X78969212Y-77281350D01*
X78913755Y-77325679D01*
X78843136Y-77332988D01*
X78779775Y-77300958D01*
X78743790Y-77239756D01*
X78739999Y-77209080D01*
X78739999Y-77203331D01*
X78739629Y-77196510D01*
X78734105Y-77145648D01*
X78730479Y-77130396D01*
X78685324Y-77009946D01*
X78676786Y-76994351D01*
X78600285Y-76892276D01*
X78587724Y-76879715D01*
X78485649Y-76803214D01*
X78470054Y-76794676D01*
X78349606Y-76749522D01*
X78334351Y-76745895D01*
X78283486Y-76740369D01*
X78276672Y-76740000D01*
X77742115Y-76740000D01*
X77726876Y-76744475D01*
X77725671Y-76745865D01*
X77724000Y-76753548D01*
X77724000Y-78138000D01*
X77703998Y-78206121D01*
X77650342Y-78252614D01*
X77598000Y-78264000D01*
X77342000Y-78264000D01*
X77273879Y-78243998D01*
X77227386Y-78190342D01*
X77216000Y-78138000D01*
X77216000Y-76758116D01*
X77211525Y-76742877D01*
X77210135Y-76741672D01*
X77202452Y-76740001D01*
X76809566Y-76740001D01*
X76741445Y-76719999D01*
X76694952Y-76666343D01*
X76683566Y-76614071D01*
X76683463Y-76427706D01*
X76683449Y-76403095D01*
X76703413Y-76334964D01*
X76757043Y-76288441D01*
X76809514Y-76277026D01*
X90060315Y-76283821D01*
G37*
%TD.AperFunction*%
%TA.AperFunction,Conductor*%
G36*
X107994032Y-101935924D02*
G01*
X108039095Y-101964885D01*
X108220115Y-102145905D01*
X108254141Y-102208217D01*
X108249076Y-102279032D01*
X108220115Y-102324095D01*
X107262207Y-103282003D01*
X107255777Y-103293777D01*
X107265074Y-103305793D01*
X107308069Y-103335898D01*
X107317555Y-103341376D01*
X107417604Y-103388029D01*
X107470889Y-103434946D01*
X107490350Y-103503223D01*
X107469808Y-103571183D01*
X107417604Y-103616419D01*
X107317311Y-103663186D01*
X107317306Y-103663189D01*
X107312324Y-103665512D01*
X107307817Y-103668668D01*
X107307815Y-103668669D01*
X107134730Y-103789864D01*
X107134727Y-103789866D01*
X107130219Y-103793023D01*
X107010135Y-103913107D01*
X106947823Y-103947133D01*
X106877008Y-103942068D01*
X106820172Y-103899521D01*
X106795361Y-103833001D01*
X106795040Y-103824012D01*
X106795040Y-103055313D01*
X106815042Y-102987192D01*
X106862415Y-102943782D01*
X106903719Y-102922071D01*
X107860905Y-101964885D01*
X107923217Y-101930859D01*
X107994032Y-101935924D01*
G37*
%TD.AperFunction*%
%TA.AperFunction,Conductor*%
G36*
X109167553Y-87918502D02*
G01*
X109214046Y-87972158D01*
X109220328Y-87989002D01*
X109224475Y-88003124D01*
X109225865Y-88004329D01*
X109233548Y-88006000D01*
X111741884Y-88006000D01*
X111757123Y-88001525D01*
X111773292Y-87982865D01*
X111833018Y-87944481D01*
X111904015Y-87944481D01*
X111963741Y-87982864D01*
X111993827Y-88052207D01*
X112002083Y-88130754D01*
X112009458Y-88200928D01*
X112068473Y-88382556D01*
X112163960Y-88547944D01*
X112168378Y-88552851D01*
X112168379Y-88552852D01*
X112228037Y-88619109D01*
X112291747Y-88689866D01*
X112367478Y-88744888D01*
X112426792Y-88787982D01*
X112446248Y-88802118D01*
X112452276Y-88804802D01*
X112452278Y-88804803D01*
X112601149Y-88871084D01*
X112655245Y-88917064D01*
X112675900Y-88986191D01*
X112675900Y-99914628D01*
X112655898Y-99982749D01*
X112602242Y-100029242D01*
X112531968Y-100039346D01*
X112469584Y-100011712D01*
X112445395Y-99991701D01*
X112436616Y-99983712D01*
X109534805Y-97081900D01*
X109500779Y-97019588D01*
X109497900Y-96992805D01*
X109497900Y-90934563D01*
X109498427Y-90923379D01*
X109500101Y-90915891D01*
X109497962Y-90847832D01*
X109497900Y-90843875D01*
X109497900Y-90815944D01*
X109497394Y-90811938D01*
X109496461Y-90800092D01*
X109495322Y-90763837D01*
X109495073Y-90755910D01*
X109489422Y-90736458D01*
X109485414Y-90717106D01*
X109483868Y-90704868D01*
X109483867Y-90704866D01*
X109482874Y-90697003D01*
X109466594Y-90655886D01*
X109462759Y-90644685D01*
X109450418Y-90602206D01*
X109446385Y-90595387D01*
X109446383Y-90595382D01*
X109440107Y-90584771D01*
X109431410Y-90567021D01*
X109423952Y-90548183D01*
X109397971Y-90512423D01*
X109391453Y-90502501D01*
X109372978Y-90471260D01*
X109372974Y-90471255D01*
X109368942Y-90464437D01*
X109354618Y-90450113D01*
X109341776Y-90435078D01*
X109329872Y-90418693D01*
X109295806Y-90390511D01*
X109287027Y-90382522D01*
X107971174Y-89066669D01*
X109220001Y-89066669D01*
X109220371Y-89073490D01*
X109225895Y-89124352D01*
X109229521Y-89139604D01*
X109274676Y-89260054D01*
X109283214Y-89275649D01*
X109359715Y-89377724D01*
X109372276Y-89390285D01*
X109474351Y-89466786D01*
X109489946Y-89475324D01*
X109610394Y-89520478D01*
X109625649Y-89524105D01*
X109676514Y-89529631D01*
X109683328Y-89530000D01*
X110217885Y-89530000D01*
X110233124Y-89525525D01*
X110234329Y-89524135D01*
X110236000Y-89516452D01*
X110236000Y-89511884D01*
X110744000Y-89511884D01*
X110748475Y-89527123D01*
X110749865Y-89528328D01*
X110757548Y-89529999D01*
X111296669Y-89529999D01*
X111303490Y-89529629D01*
X111354352Y-89524105D01*
X111369604Y-89520479D01*
X111490054Y-89475324D01*
X111505649Y-89466786D01*
X111607724Y-89390285D01*
X111620285Y-89377724D01*
X111696786Y-89275649D01*
X111705324Y-89260054D01*
X111750478Y-89139606D01*
X111754105Y-89124351D01*
X111759631Y-89073486D01*
X111760000Y-89066672D01*
X111760000Y-88532115D01*
X111755525Y-88516876D01*
X111754135Y-88515671D01*
X111746452Y-88514000D01*
X110762115Y-88514000D01*
X110746876Y-88518475D01*
X110745671Y-88519865D01*
X110744000Y-88527548D01*
X110744000Y-89511884D01*
X110236000Y-89511884D01*
X110236000Y-88532115D01*
X110231525Y-88516876D01*
X110230135Y-88515671D01*
X110222452Y-88514000D01*
X109238116Y-88514000D01*
X109222877Y-88518475D01*
X109221672Y-88519865D01*
X109220001Y-88527548D01*
X109220001Y-89066669D01*
X107971174Y-89066669D01*
X107533894Y-88629389D01*
X107499868Y-88567077D01*
X107496989Y-88540294D01*
X107496989Y-88348141D01*
X107516991Y-88280020D01*
X107570647Y-88233527D01*
X107640921Y-88223423D01*
X107655601Y-88226435D01*
X107723216Y-88244553D01*
X107723224Y-88244554D01*
X107728537Y-88245978D01*
X107950000Y-88265353D01*
X108171463Y-88245978D01*
X108364084Y-88194365D01*
X108380886Y-88189863D01*
X108380888Y-88189862D01*
X108386196Y-88188440D01*
X108449084Y-88159115D01*
X108582690Y-88096814D01*
X108582695Y-88096811D01*
X108587677Y-88094488D01*
X108718158Y-88003124D01*
X108765270Y-87970136D01*
X108765273Y-87970134D01*
X108769781Y-87966977D01*
X108801353Y-87935405D01*
X108863665Y-87901379D01*
X108890448Y-87898500D01*
X109099432Y-87898500D01*
X109167553Y-87918502D01*
G37*
%TD.AperFunction*%
%TA.AperFunction,Conductor*%
G36*
X101114215Y-78186391D02*
G01*
X101160708Y-78240047D01*
X101170812Y-78310321D01*
X101153353Y-78358506D01*
X101149064Y-78365465D01*
X101142285Y-78376462D01*
X101111246Y-78470044D01*
X101102581Y-78496168D01*
X101062151Y-78554528D01*
X100996587Y-78581765D01*
X100970145Y-78581845D01*
X100881160Y-78572728D01*
X100874745Y-78572400D01*
X100449715Y-78572400D01*
X100434476Y-78576875D01*
X100433271Y-78578265D01*
X100431600Y-78585948D01*
X100431600Y-80895284D01*
X100436075Y-80910523D01*
X100437465Y-80911728D01*
X100445148Y-80913399D01*
X100874695Y-80913399D01*
X100881214Y-80913062D01*
X100939253Y-80907040D01*
X101009074Y-80919905D01*
X101060856Y-80968476D01*
X101078158Y-81037332D01*
X101077601Y-81045201D01*
X101075900Y-81061800D01*
X101075900Y-81577607D01*
X101055898Y-81645728D01*
X101002242Y-81692221D01*
X100937057Y-81702951D01*
X100878000Y-81696900D01*
X99477200Y-81696900D01*
X99473956Y-81697237D01*
X99473948Y-81697237D01*
X99387003Y-81706258D01*
X99317182Y-81693393D01*
X99265400Y-81644822D01*
X99248000Y-81580931D01*
X99248000Y-81552115D01*
X99243525Y-81536876D01*
X99242135Y-81535671D01*
X99234452Y-81534000D01*
X97612000Y-81534000D01*
X97543879Y-81513998D01*
X97497386Y-81460342D01*
X97486000Y-81408000D01*
X97486000Y-81152000D01*
X97506002Y-81083879D01*
X97559658Y-81037386D01*
X97612000Y-81026000D01*
X99229884Y-81026000D01*
X99245123Y-81021525D01*
X99246328Y-81020135D01*
X99250137Y-81002624D01*
X99284162Y-80940311D01*
X99346474Y-80906286D01*
X99386101Y-80904062D01*
X99474040Y-80913072D01*
X99480454Y-80913400D01*
X99905485Y-80913400D01*
X99920724Y-80908925D01*
X99921929Y-80907535D01*
X99923600Y-80899852D01*
X99923600Y-78590516D01*
X99919125Y-78575277D01*
X99917735Y-78574072D01*
X99910052Y-78572401D01*
X99521202Y-78572401D01*
X99453081Y-78552399D01*
X99406588Y-78498743D01*
X99396484Y-78428469D01*
X99425978Y-78363889D01*
X99432107Y-78357306D01*
X99586119Y-78203294D01*
X99648431Y-78169268D01*
X99675214Y-78166389D01*
X101046094Y-78166389D01*
X101114215Y-78186391D01*
G37*
%TD.AperFunction*%
%TA.AperFunction,Conductor*%
G36*
X78948512Y-78715698D02*
G01*
X78969213Y-78738651D01*
X79019818Y-78810922D01*
X79033023Y-78829781D01*
X79190219Y-78986977D01*
X79194727Y-78990134D01*
X79194730Y-78990136D01*
X79223176Y-79010054D01*
X79372323Y-79114488D01*
X79377305Y-79116811D01*
X79377310Y-79116814D01*
X79482373Y-79165805D01*
X79535658Y-79212722D01*
X79555119Y-79280999D01*
X79534577Y-79348959D01*
X79482373Y-79394195D01*
X79377311Y-79443186D01*
X79377306Y-79443189D01*
X79372324Y-79445512D01*
X79367817Y-79448668D01*
X79367815Y-79448669D01*
X79194730Y-79569864D01*
X79194727Y-79569866D01*
X79190219Y-79573023D01*
X79033023Y-79730219D01*
X79029866Y-79734727D01*
X79029864Y-79734730D01*
X78908669Y-79907815D01*
X78905512Y-79912324D01*
X78903189Y-79917306D01*
X78903186Y-79917311D01*
X78854195Y-80022373D01*
X78807277Y-80075658D01*
X78739000Y-80095119D01*
X78671040Y-80074577D01*
X78625805Y-80022373D01*
X78576814Y-79917311D01*
X78576811Y-79917306D01*
X78574488Y-79912324D01*
X78571331Y-79907815D01*
X78450136Y-79734730D01*
X78450134Y-79734727D01*
X78446977Y-79730219D01*
X78289781Y-79573023D01*
X78285273Y-79569866D01*
X78285270Y-79569864D01*
X78198650Y-79509212D01*
X78154322Y-79453755D01*
X78147013Y-79383135D01*
X78179044Y-79319775D01*
X78240245Y-79283790D01*
X78270921Y-79279999D01*
X78276669Y-79279999D01*
X78283490Y-79279629D01*
X78334352Y-79274105D01*
X78349604Y-79270479D01*
X78470054Y-79225324D01*
X78485649Y-79216786D01*
X78587724Y-79140285D01*
X78600285Y-79127724D01*
X78676786Y-79025649D01*
X78685324Y-79010054D01*
X78730478Y-78889606D01*
X78734105Y-78874351D01*
X78739631Y-78823486D01*
X78740000Y-78816672D01*
X78740000Y-78810922D01*
X78760002Y-78742801D01*
X78813658Y-78696308D01*
X78883932Y-78686204D01*
X78948512Y-78715698D01*
G37*
%TD.AperFunction*%
M02*
