%TF.GenerationSoftware,KiCad,Pcbnew,5.1.6-c6e7f7d~87~ubuntu18.04.1*%
%TF.CreationDate,2021-03-27T09:05:47+01:00*%
%TF.ProjectId,sboxnet-modul,73626f78-6e65-4742-9d6d-6f64756c2e6b,rev?*%
%TF.SameCoordinates,Original*%
%TF.FileFunction,Paste,Bot*%
%TF.FilePolarity,Positive*%
%FSLAX46Y46*%
G04 Gerber Fmt 4.6, Leading zero omitted, Abs format (unit mm)*
G04 Created by KiCad (PCBNEW 5.1.6-c6e7f7d~87~ubuntu18.04.1) date 2021-03-27 09:05:47*
%MOMM*%
%LPD*%
G01*
G04 APERTURE LIST*
%ADD10R,3.500000X2.300000*%
%ADD11R,2.000000X1.500000*%
%ADD12R,2.000000X3.800000*%
G04 APERTURE END LIST*
G36*
G01*
X133032800Y-87975600D02*
X133032800Y-86725600D01*
G75*
G02*
X133282800Y-86475600I250000J0D01*
G01*
X134207800Y-86475600D01*
G75*
G02*
X134457800Y-86725600I0J-250000D01*
G01*
X134457800Y-87975600D01*
G75*
G02*
X134207800Y-88225600I-250000J0D01*
G01*
X133282800Y-88225600D01*
G75*
G02*
X133032800Y-87975600I0J250000D01*
G01*
G37*
G36*
G01*
X130057800Y-87975600D02*
X130057800Y-86725600D01*
G75*
G02*
X130307800Y-86475600I250000J0D01*
G01*
X131232800Y-86475600D01*
G75*
G02*
X131482800Y-86725600I0J-250000D01*
G01*
X131482800Y-87975600D01*
G75*
G02*
X131232800Y-88225600I-250000J0D01*
G01*
X130307800Y-88225600D01*
G75*
G02*
X130057800Y-87975600I0J250000D01*
G01*
G37*
G36*
G01*
X121602800Y-77333000D02*
X121602800Y-76083000D01*
G75*
G02*
X121852800Y-75833000I250000J0D01*
G01*
X122777800Y-75833000D01*
G75*
G02*
X123027800Y-76083000I0J-250000D01*
G01*
X123027800Y-77333000D01*
G75*
G02*
X122777800Y-77583000I-250000J0D01*
G01*
X121852800Y-77583000D01*
G75*
G02*
X121602800Y-77333000I0J250000D01*
G01*
G37*
G36*
G01*
X118627800Y-77333000D02*
X118627800Y-76083000D01*
G75*
G02*
X118877800Y-75833000I250000J0D01*
G01*
X119802800Y-75833000D01*
G75*
G02*
X120052800Y-76083000I0J-250000D01*
G01*
X120052800Y-77333000D01*
G75*
G02*
X119802800Y-77583000I-250000J0D01*
G01*
X118877800Y-77583000D01*
G75*
G02*
X118627800Y-77333000I0J250000D01*
G01*
G37*
D10*
X150450000Y-82490000D03*
X145050000Y-82490000D03*
D11*
X133857600Y-84113400D03*
X133857600Y-79513400D03*
X133857600Y-81813400D03*
D12*
X140157600Y-81813400D03*
D11*
X122707000Y-84088000D03*
X122707000Y-79488000D03*
X122707000Y-81788000D03*
D12*
X129007000Y-81788000D03*
G36*
G01*
X114732100Y-98453100D02*
X114732100Y-97203100D01*
G75*
G02*
X114982100Y-96953100I250000J0D01*
G01*
X115907100Y-96953100D01*
G75*
G02*
X116157100Y-97203100I0J-250000D01*
G01*
X116157100Y-98453100D01*
G75*
G02*
X115907100Y-98703100I-250000J0D01*
G01*
X114982100Y-98703100D01*
G75*
G02*
X114732100Y-98453100I0J250000D01*
G01*
G37*
G36*
G01*
X111757100Y-98453100D02*
X111757100Y-97203100D01*
G75*
G02*
X112007100Y-96953100I250000J0D01*
G01*
X112932100Y-96953100D01*
G75*
G02*
X113182100Y-97203100I0J-250000D01*
G01*
X113182100Y-98453100D01*
G75*
G02*
X112932100Y-98703100I-250000J0D01*
G01*
X112007100Y-98703100D01*
G75*
G02*
X111757100Y-98453100I0J250000D01*
G01*
G37*
G36*
G01*
X113906600Y-94960600D02*
X113906600Y-93710600D01*
G75*
G02*
X114156600Y-93460600I250000J0D01*
G01*
X115081600Y-93460600D01*
G75*
G02*
X115331600Y-93710600I0J-250000D01*
G01*
X115331600Y-94960600D01*
G75*
G02*
X115081600Y-95210600I-250000J0D01*
G01*
X114156600Y-95210600D01*
G75*
G02*
X113906600Y-94960600I0J250000D01*
G01*
G37*
G36*
G01*
X110931600Y-94960600D02*
X110931600Y-93710600D01*
G75*
G02*
X111181600Y-93460600I250000J0D01*
G01*
X112106600Y-93460600D01*
G75*
G02*
X112356600Y-93710600I0J-250000D01*
G01*
X112356600Y-94960600D01*
G75*
G02*
X112106600Y-95210600I-250000J0D01*
G01*
X111181600Y-95210600D01*
G75*
G02*
X110931600Y-94960600I0J250000D01*
G01*
G37*
G36*
G01*
X130644600Y-75371800D02*
X130644600Y-76621800D01*
G75*
G02*
X130394600Y-76871800I-250000J0D01*
G01*
X129644600Y-76871800D01*
G75*
G02*
X129394600Y-76621800I0J250000D01*
G01*
X129394600Y-75371800D01*
G75*
G02*
X129644600Y-75121800I250000J0D01*
G01*
X130394600Y-75121800D01*
G75*
G02*
X130644600Y-75371800I0J-250000D01*
G01*
G37*
G36*
G01*
X133444600Y-75371800D02*
X133444600Y-76621800D01*
G75*
G02*
X133194600Y-76871800I-250000J0D01*
G01*
X132444600Y-76871800D01*
G75*
G02*
X132194600Y-76621800I0J250000D01*
G01*
X132194600Y-75371800D01*
G75*
G02*
X132444600Y-75121800I250000J0D01*
G01*
X133194600Y-75121800D01*
G75*
G02*
X133444600Y-75371800I0J-250000D01*
G01*
G37*
G36*
G01*
X128357600Y-72430800D02*
X128357600Y-71180800D01*
G75*
G02*
X128607600Y-70930800I250000J0D01*
G01*
X129532600Y-70930800D01*
G75*
G02*
X129782600Y-71180800I0J-250000D01*
G01*
X129782600Y-72430800D01*
G75*
G02*
X129532600Y-72680800I-250000J0D01*
G01*
X128607600Y-72680800D01*
G75*
G02*
X128357600Y-72430800I0J250000D01*
G01*
G37*
G36*
G01*
X125382600Y-72430800D02*
X125382600Y-71180800D01*
G75*
G02*
X125632600Y-70930800I250000J0D01*
G01*
X126557600Y-70930800D01*
G75*
G02*
X126807600Y-71180800I0J-250000D01*
G01*
X126807600Y-72430800D01*
G75*
G02*
X126557600Y-72680800I-250000J0D01*
G01*
X125632600Y-72680800D01*
G75*
G02*
X125382600Y-72430800I0J250000D01*
G01*
G37*
M02*
