%TF.GenerationSoftware,KiCad,Pcbnew,5.1.6-c6e7f7d~87~ubuntu18.04.1*%
%TF.CreationDate,2021-03-27T09:05:47+01:00*%
%TF.ProjectId,sboxnet-modul,73626f78-6e65-4742-9d6d-6f64756c2e6b,rev?*%
%TF.SameCoordinates,Original*%
%TF.FileFunction,Copper,L2,Bot*%
%TF.FilePolarity,Positive*%
%FSLAX46Y46*%
G04 Gerber Fmt 4.6, Leading zero omitted, Abs format (unit mm)*
G04 Created by KiCad (PCBNEW 5.1.6-c6e7f7d~87~ubuntu18.04.1) date 2021-03-27 09:05:47*
%MOMM*%
%LPD*%
G01*
G04 APERTURE LIST*
%TA.AperFunction,ComponentPad*%
%ADD10R,1.524000X1.524000*%
%TD*%
%TA.AperFunction,ComponentPad*%
%ADD11C,1.524000*%
%TD*%
%TA.AperFunction,ComponentPad*%
%ADD12O,1.700000X1.700000*%
%TD*%
%TA.AperFunction,ComponentPad*%
%ADD13R,1.700000X1.700000*%
%TD*%
%TA.AperFunction,ComponentPad*%
%ADD14C,1.500000*%
%TD*%
%TA.AperFunction,SMDPad,CuDef*%
%ADD15R,3.500000X2.300000*%
%TD*%
%TA.AperFunction,SMDPad,CuDef*%
%ADD16R,2.000000X1.500000*%
%TD*%
%TA.AperFunction,SMDPad,CuDef*%
%ADD17R,2.000000X3.800000*%
%TD*%
%TA.AperFunction,ComponentPad*%
%ADD18C,2.000000*%
%TD*%
%TA.AperFunction,ViaPad*%
%ADD19C,0.800000*%
%TD*%
%TA.AperFunction,Conductor*%
%ADD20C,0.250000*%
%TD*%
%TA.AperFunction,Conductor*%
%ADD21C,0.800000*%
%TD*%
%TA.AperFunction,Conductor*%
%ADD22C,1.000000*%
%TD*%
%TA.AperFunction,Conductor*%
%ADD23C,0.254000*%
%TD*%
G04 APERTURE END LIST*
D10*
X136956800Y-121407000D03*
D11*
X134416800Y-120137000D03*
X136956800Y-118867000D03*
X134416800Y-117597000D03*
X136956800Y-116327000D03*
X136956800Y-113787000D03*
X134416800Y-115062000D03*
X134416800Y-112522000D03*
D10*
X137060000Y-103040000D03*
D11*
X134520000Y-101770000D03*
X137060000Y-100500000D03*
X134520000Y-99230000D03*
X137060000Y-97960000D03*
X137060000Y-95420000D03*
X134520000Y-96695000D03*
X134520000Y-94155000D03*
D10*
X128625600Y-110896400D03*
D11*
X126085600Y-110896400D03*
X128625600Y-108356400D03*
X126085600Y-108356400D03*
X128625600Y-105816400D03*
X126085600Y-105816400D03*
D12*
X117602000Y-116078000D03*
X117602000Y-113538000D03*
X117602000Y-110998000D03*
D13*
X117602000Y-108458000D03*
%TA.AperFunction,SMDPad,CuDef*%
G36*
G01*
X133032800Y-87975600D02*
X133032800Y-86725600D01*
G75*
G02*
X133282800Y-86475600I250000J0D01*
G01*
X134207800Y-86475600D01*
G75*
G02*
X134457800Y-86725600I0J-250000D01*
G01*
X134457800Y-87975600D01*
G75*
G02*
X134207800Y-88225600I-250000J0D01*
G01*
X133282800Y-88225600D01*
G75*
G02*
X133032800Y-87975600I0J250000D01*
G01*
G37*
%TD.AperFunction*%
%TA.AperFunction,SMDPad,CuDef*%
G36*
G01*
X130057800Y-87975600D02*
X130057800Y-86725600D01*
G75*
G02*
X130307800Y-86475600I250000J0D01*
G01*
X131232800Y-86475600D01*
G75*
G02*
X131482800Y-86725600I0J-250000D01*
G01*
X131482800Y-87975600D01*
G75*
G02*
X131232800Y-88225600I-250000J0D01*
G01*
X130307800Y-88225600D01*
G75*
G02*
X130057800Y-87975600I0J250000D01*
G01*
G37*
%TD.AperFunction*%
D12*
X141846300Y-87731600D03*
X144386300Y-87731600D03*
D13*
X146926300Y-87731600D03*
D14*
X108140681Y-80619319D03*
X104690000Y-84070000D03*
%TA.AperFunction,SMDPad,CuDef*%
G36*
G01*
X121602800Y-77333000D02*
X121602800Y-76083000D01*
G75*
G02*
X121852800Y-75833000I250000J0D01*
G01*
X122777800Y-75833000D01*
G75*
G02*
X123027800Y-76083000I0J-250000D01*
G01*
X123027800Y-77333000D01*
G75*
G02*
X122777800Y-77583000I-250000J0D01*
G01*
X121852800Y-77583000D01*
G75*
G02*
X121602800Y-77333000I0J250000D01*
G01*
G37*
%TD.AperFunction*%
%TA.AperFunction,SMDPad,CuDef*%
G36*
G01*
X118627800Y-77333000D02*
X118627800Y-76083000D01*
G75*
G02*
X118877800Y-75833000I250000J0D01*
G01*
X119802800Y-75833000D01*
G75*
G02*
X120052800Y-76083000I0J-250000D01*
G01*
X120052800Y-77333000D01*
G75*
G02*
X119802800Y-77583000I-250000J0D01*
G01*
X118877800Y-77583000D01*
G75*
G02*
X118627800Y-77333000I0J250000D01*
G01*
G37*
%TD.AperFunction*%
D15*
X150450000Y-82490000D03*
X145050000Y-82490000D03*
D16*
X133857600Y-84113400D03*
X133857600Y-79513400D03*
X133857600Y-81813400D03*
D17*
X140157600Y-81813400D03*
D16*
X122707000Y-84088000D03*
X122707000Y-79488000D03*
X122707000Y-81788000D03*
D17*
X129007000Y-81788000D03*
D18*
X116990000Y-127690000D03*
X110490000Y-127690000D03*
X116990000Y-123190000D03*
X110490000Y-123190000D03*
D11*
X96075500Y-98552000D03*
X96075500Y-116332000D03*
X96075500Y-96012000D03*
X96075500Y-80772000D03*
X96075500Y-83312000D03*
X96075500Y-88392000D03*
X96075500Y-93472000D03*
X96075500Y-85852000D03*
X96075500Y-90932000D03*
X96075500Y-101092000D03*
X96075500Y-103632000D03*
X96075500Y-78232000D03*
X96075500Y-111252000D03*
X96075500Y-113792000D03*
X96075500Y-106172000D03*
X96075500Y-108712000D03*
X96075500Y-75692000D03*
D10*
X93535500Y-75692000D03*
D11*
X93535500Y-78232000D03*
X93535500Y-80772000D03*
X93535500Y-83312000D03*
X93535500Y-85852000D03*
X93535500Y-88392000D03*
X93535500Y-90932000D03*
X93535500Y-93472000D03*
X93535500Y-96012000D03*
X93535500Y-98552000D03*
X93535500Y-101092000D03*
X93535500Y-103632000D03*
X93535500Y-106172000D03*
X93535500Y-108712000D03*
X93535500Y-111252000D03*
X93535500Y-113792000D03*
X93535500Y-116332000D03*
%TA.AperFunction,SMDPad,CuDef*%
G36*
G01*
X114732100Y-98453100D02*
X114732100Y-97203100D01*
G75*
G02*
X114982100Y-96953100I250000J0D01*
G01*
X115907100Y-96953100D01*
G75*
G02*
X116157100Y-97203100I0J-250000D01*
G01*
X116157100Y-98453100D01*
G75*
G02*
X115907100Y-98703100I-250000J0D01*
G01*
X114982100Y-98703100D01*
G75*
G02*
X114732100Y-98453100I0J250000D01*
G01*
G37*
%TD.AperFunction*%
%TA.AperFunction,SMDPad,CuDef*%
G36*
G01*
X111757100Y-98453100D02*
X111757100Y-97203100D01*
G75*
G02*
X112007100Y-96953100I250000J0D01*
G01*
X112932100Y-96953100D01*
G75*
G02*
X113182100Y-97203100I0J-250000D01*
G01*
X113182100Y-98453100D01*
G75*
G02*
X112932100Y-98703100I-250000J0D01*
G01*
X112007100Y-98703100D01*
G75*
G02*
X111757100Y-98453100I0J250000D01*
G01*
G37*
%TD.AperFunction*%
%TA.AperFunction,SMDPad,CuDef*%
G36*
G01*
X113906600Y-94960600D02*
X113906600Y-93710600D01*
G75*
G02*
X114156600Y-93460600I250000J0D01*
G01*
X115081600Y-93460600D01*
G75*
G02*
X115331600Y-93710600I0J-250000D01*
G01*
X115331600Y-94960600D01*
G75*
G02*
X115081600Y-95210600I-250000J0D01*
G01*
X114156600Y-95210600D01*
G75*
G02*
X113906600Y-94960600I0J250000D01*
G01*
G37*
%TD.AperFunction*%
%TA.AperFunction,SMDPad,CuDef*%
G36*
G01*
X110931600Y-94960600D02*
X110931600Y-93710600D01*
G75*
G02*
X111181600Y-93460600I250000J0D01*
G01*
X112106600Y-93460600D01*
G75*
G02*
X112356600Y-93710600I0J-250000D01*
G01*
X112356600Y-94960600D01*
G75*
G02*
X112106600Y-95210600I-250000J0D01*
G01*
X111181600Y-95210600D01*
G75*
G02*
X110931600Y-94960600I0J250000D01*
G01*
G37*
%TD.AperFunction*%
%TA.AperFunction,SMDPad,CuDef*%
G36*
G01*
X130644600Y-75371800D02*
X130644600Y-76621800D01*
G75*
G02*
X130394600Y-76871800I-250000J0D01*
G01*
X129644600Y-76871800D01*
G75*
G02*
X129394600Y-76621800I0J250000D01*
G01*
X129394600Y-75371800D01*
G75*
G02*
X129644600Y-75121800I250000J0D01*
G01*
X130394600Y-75121800D01*
G75*
G02*
X130644600Y-75371800I0J-250000D01*
G01*
G37*
%TD.AperFunction*%
%TA.AperFunction,SMDPad,CuDef*%
G36*
G01*
X133444600Y-75371800D02*
X133444600Y-76621800D01*
G75*
G02*
X133194600Y-76871800I-250000J0D01*
G01*
X132444600Y-76871800D01*
G75*
G02*
X132194600Y-76621800I0J250000D01*
G01*
X132194600Y-75371800D01*
G75*
G02*
X132444600Y-75121800I250000J0D01*
G01*
X133194600Y-75121800D01*
G75*
G02*
X133444600Y-75371800I0J-250000D01*
G01*
G37*
%TD.AperFunction*%
%TA.AperFunction,SMDPad,CuDef*%
G36*
G01*
X128357600Y-72430800D02*
X128357600Y-71180800D01*
G75*
G02*
X128607600Y-70930800I250000J0D01*
G01*
X129532600Y-70930800D01*
G75*
G02*
X129782600Y-71180800I0J-250000D01*
G01*
X129782600Y-72430800D01*
G75*
G02*
X129532600Y-72680800I-250000J0D01*
G01*
X128607600Y-72680800D01*
G75*
G02*
X128357600Y-72430800I0J250000D01*
G01*
G37*
%TD.AperFunction*%
%TA.AperFunction,SMDPad,CuDef*%
G36*
G01*
X125382600Y-72430800D02*
X125382600Y-71180800D01*
G75*
G02*
X125632600Y-70930800I250000J0D01*
G01*
X126557600Y-70930800D01*
G75*
G02*
X126807600Y-71180800I0J-250000D01*
G01*
X126807600Y-72430800D01*
G75*
G02*
X126557600Y-72680800I-250000J0D01*
G01*
X125632600Y-72680800D01*
G75*
G02*
X125382600Y-72430800I0J250000D01*
G01*
G37*
%TD.AperFunction*%
D19*
X114860000Y-80570000D03*
X129108200Y-71882000D03*
X114757200Y-73025000D03*
X147180300Y-75488800D03*
X129007000Y-78866600D03*
X125653800Y-78841600D03*
X130019600Y-75996800D03*
X112469600Y-97828100D03*
X111644100Y-94455900D03*
X121196100Y-120989700D03*
X119070000Y-91240000D03*
X118566000Y-121614000D03*
X99409250Y-82962750D03*
X124470000Y-91720000D03*
X117100000Y-84100000D03*
X122320850Y-76713550D03*
X121246900Y-124028200D03*
X121424700Y-126707900D03*
X104406450Y-74993550D03*
X120450000Y-81200000D03*
X122707000Y-79488000D03*
X118000000Y-98400000D03*
X113450000Y-101150000D03*
X115444600Y-96005400D03*
X123605000Y-73025000D03*
X121945400Y-106781600D03*
X122795000Y-84088000D03*
X137436200Y-75311000D03*
X116080000Y-85840000D03*
X108640000Y-72900000D03*
X130971801Y-115826599D03*
X129180000Y-117510000D03*
X129280999Y-118684001D03*
X106519000Y-114329500D03*
X109444500Y-114329500D03*
X110617000Y-118618000D03*
X139217400Y-112039400D03*
X101955600Y-117500400D03*
X119507000Y-102616000D03*
X107746800Y-118908500D03*
X122796300Y-118833900D03*
X122759795Y-102081005D03*
X122047000Y-100203000D03*
X124206000Y-121920000D03*
X124206000Y-121920000D03*
X121600000Y-97010000D03*
X120996000Y-94650000D03*
D20*
X133657800Y-84313200D02*
X133857600Y-84113400D01*
X133657800Y-87350600D02*
X133657800Y-84313200D01*
D21*
X145050000Y-83890000D02*
X145050000Y-82490000D01*
X143770000Y-85170000D02*
X145050000Y-83890000D01*
X136164200Y-85170000D02*
X143770000Y-85170000D01*
X135107600Y-84113400D02*
X136164200Y-85170000D01*
X133857600Y-84113400D02*
X135107600Y-84113400D01*
D20*
X137968800Y-121407000D02*
X138861800Y-120514000D01*
X136956800Y-121407000D02*
X137968800Y-121407000D01*
X138861800Y-116623238D02*
X138887200Y-116597838D01*
X138861800Y-120514000D02*
X138861800Y-116623238D01*
X138887200Y-116597838D02*
X138887200Y-115011200D01*
X138836400Y-115062000D02*
X134416800Y-115062000D01*
X138887200Y-115011200D02*
X138836400Y-115062000D01*
X133857600Y-81813400D02*
X140157600Y-81813400D01*
X133832200Y-81788000D02*
X133857600Y-81813400D01*
X129007000Y-81788000D02*
X133832200Y-81788000D01*
X129007000Y-76384400D02*
X129394600Y-75996800D01*
X129394600Y-75996800D02*
X130019600Y-75996800D01*
X129007000Y-81788000D02*
X129007000Y-78866600D01*
X129007000Y-83938000D02*
X128549400Y-84395600D01*
X129007000Y-81788000D02*
X129007000Y-83938000D01*
X130232800Y-87350600D02*
X130857800Y-87350600D01*
X128549400Y-85667200D02*
X130232800Y-87350600D01*
X128549400Y-84395600D02*
X128549400Y-85667200D01*
X119340300Y-77583000D02*
X119303800Y-77619500D01*
X119340300Y-76708000D02*
X119340300Y-77583000D01*
X119303800Y-77619500D02*
X119303800Y-79634800D01*
X129007000Y-78866600D02*
X129007000Y-76384400D01*
X123957000Y-81788000D02*
X125653800Y-80091200D01*
X122707000Y-81788000D02*
X123957000Y-81788000D01*
X125653800Y-80091200D02*
X125653800Y-78841600D01*
X125653800Y-78841600D02*
X125653800Y-78841600D01*
X140157600Y-80913400D02*
X143855000Y-77216000D01*
X140157600Y-81813400D02*
X140157600Y-80913400D01*
X143855000Y-77216000D02*
X147053300Y-77216000D01*
X147180300Y-77089000D02*
X147180300Y-75488800D01*
X147053300Y-77216000D02*
X147180300Y-77089000D01*
X118440200Y-76708000D02*
X119340300Y-76708000D01*
X114757200Y-73025000D02*
X118440200Y-76708000D01*
X130019600Y-75996800D02*
X130019600Y-75996800D01*
X111757100Y-97828100D02*
X112469600Y-97828100D01*
X111644100Y-97715100D02*
X111757100Y-97828100D01*
X111644100Y-94335600D02*
X111644100Y-94335600D01*
X111644100Y-94335600D02*
X111644100Y-94455900D01*
X112469600Y-97828100D02*
X112469600Y-97828100D01*
X119303800Y-79634800D02*
X121050000Y-80250000D01*
X112469600Y-97828100D02*
X112469600Y-97828100D01*
X111644100Y-94455900D02*
X111644100Y-97715100D01*
X116059999Y-80969999D02*
X117000000Y-81910000D01*
X115259999Y-80969999D02*
X116059999Y-80969999D01*
X114860000Y-80570000D02*
X115259999Y-80969999D01*
X117000000Y-81910000D02*
X119303800Y-79634800D01*
X121175001Y-84891003D02*
X121175001Y-80525001D01*
X121175001Y-80525001D02*
X121070000Y-80420000D01*
X125195001Y-88911003D02*
X121175001Y-84891003D01*
X125195001Y-92068001D02*
X125195001Y-88911003D01*
X120275001Y-92445001D02*
X124818001Y-92445001D01*
X124818001Y-92445001D02*
X125195001Y-92068001D01*
X119070000Y-91240000D02*
X120275001Y-92445001D01*
X121070000Y-80420000D02*
X122707000Y-81788000D01*
X121050000Y-80250000D02*
X121070000Y-80420000D01*
X129489200Y-93827600D02*
X134520000Y-96695000D01*
X129489200Y-92887800D02*
X129489200Y-93827600D01*
X130857800Y-87350600D02*
X130857800Y-91519200D01*
X130857800Y-91519200D02*
X129489200Y-92887800D01*
X117602000Y-116078000D02*
X117602000Y-120650000D01*
X117602000Y-120650000D02*
X118491000Y-121539000D01*
X99409250Y-82962750D02*
X110628250Y-96520000D01*
X110628250Y-96520000D02*
X112469600Y-97828100D01*
X99409250Y-82496988D02*
X99409250Y-82962750D01*
X94547500Y-75692000D02*
X94805500Y-76454000D01*
X93535500Y-75692000D02*
X94547500Y-75692000D01*
X94805500Y-76454000D02*
X94805500Y-79057500D01*
X94805500Y-79057500D02*
X96075500Y-79629000D01*
X96075500Y-79629000D02*
X96774000Y-79565500D01*
X96774000Y-79565500D02*
X99409250Y-82496988D01*
X126898400Y-114943281D02*
X128676400Y-110769400D01*
X122071100Y-120989700D02*
X122821700Y-122135900D01*
X121196100Y-120989700D02*
X122071100Y-120989700D01*
X123190000Y-122872500D02*
X124396500Y-122872500D01*
X124396500Y-122872500D02*
X126898400Y-120654602D01*
X122821700Y-122135900D02*
X123190000Y-122872500D01*
X126898400Y-120654602D02*
X126898400Y-114943281D01*
X122707000Y-77099700D02*
X122320850Y-76713550D01*
X122707000Y-79488000D02*
X122707000Y-79488000D01*
X122315300Y-76708000D02*
X122315300Y-75588800D01*
X123574200Y-74329900D02*
X123574200Y-73025000D01*
X122315300Y-75588800D02*
X123574200Y-74329900D01*
X126095100Y-72680800D02*
X126095100Y-71805800D01*
X125750900Y-73025000D02*
X126095100Y-72680800D01*
X123574200Y-73025000D02*
X123605000Y-73025000D01*
X122320850Y-76713550D02*
X122315300Y-76708000D01*
X121246900Y-124028200D02*
X121259600Y-124040900D01*
X121424700Y-124206000D02*
X121246900Y-124028200D01*
X121424700Y-126707900D02*
X121424700Y-124206000D01*
X115444600Y-94448600D02*
X115331600Y-94335600D01*
X115444600Y-97828100D02*
X115444600Y-96005400D01*
X117100000Y-84100000D02*
X120000000Y-81200000D01*
X120000000Y-81200000D02*
X120450000Y-81200000D01*
X120450000Y-81200000D02*
X120450000Y-81200000D01*
X122707000Y-79488000D02*
X122707000Y-77099700D01*
X116157100Y-97828100D02*
X116729000Y-98400000D01*
X115444600Y-97828100D02*
X116157100Y-97828100D01*
X116729000Y-98400000D02*
X118000000Y-98400000D01*
X118000000Y-98400000D02*
X118000000Y-98400000D01*
X115444600Y-98703100D02*
X113450000Y-100697700D01*
X115444600Y-97828100D02*
X115444600Y-98703100D01*
X113450000Y-100697700D02*
X113450000Y-101150000D01*
X113450000Y-101150000D02*
X113450000Y-101150000D01*
X117100000Y-84665685D02*
X117100000Y-84100000D01*
X117100000Y-92567200D02*
X117100000Y-84665685D01*
X115331600Y-94335600D02*
X117100000Y-92567200D01*
X114619100Y-94335600D02*
X115331600Y-94335600D01*
X115444600Y-96005400D02*
X115444600Y-94448600D01*
X117100000Y-84350000D02*
X117100000Y-84100000D01*
X124470000Y-91720000D02*
X117100000Y-84350000D01*
X123605000Y-73025000D02*
X125750900Y-73025000D01*
X104406450Y-74993550D02*
X104406450Y-75559235D01*
X119926100Y-122707400D02*
X121246900Y-124028200D01*
X121945400Y-106781600D02*
X121545401Y-116109699D01*
X119926100Y-119811800D02*
X119926100Y-122707400D01*
X121545401Y-116109699D02*
X121545401Y-118192499D01*
X121545401Y-118192499D02*
X119926100Y-119811800D01*
X98748265Y-75559235D02*
X96075500Y-78232000D01*
X104406450Y-75559235D02*
X98748265Y-75559235D01*
X133444600Y-75996800D02*
X132819600Y-75996800D01*
X133857600Y-76409800D02*
X133444600Y-75996800D01*
X125501400Y-84099400D02*
X125490000Y-84088000D01*
X132819600Y-75121800D02*
X131459400Y-73761600D01*
X125490000Y-84088000D02*
X122795000Y-84088000D01*
X131459400Y-73761600D02*
X127609600Y-73761600D01*
X132819600Y-75996800D02*
X132819600Y-75121800D01*
X127609600Y-73761600D02*
X126619000Y-74752200D01*
X126619000Y-74752200D02*
X126619000Y-82981800D01*
X126619000Y-82981800D02*
X125501400Y-84099400D01*
X135216900Y-75311000D02*
X137436200Y-75311000D01*
X133857600Y-76670300D02*
X135216900Y-75311000D01*
X133857600Y-76670300D02*
X133857600Y-76409800D01*
X133857600Y-79513400D02*
X133857600Y-76670300D01*
X122795000Y-84088000D02*
X122707000Y-84088000D01*
X122795000Y-84088000D02*
X122795000Y-84088000D01*
X137436200Y-75311000D02*
X137436200Y-75311000D01*
X108623100Y-72885300D02*
X108623100Y-78383100D01*
X108623100Y-78383100D02*
X116080000Y-85840000D01*
X116080000Y-85840000D02*
X116080000Y-85840000D01*
D21*
X144386300Y-87731600D02*
X144386300Y-86461600D01*
X144386300Y-86461600D02*
X145834100Y-85013800D01*
X145834100Y-85013800D02*
X147853400Y-85013800D01*
D20*
X147853400Y-85013800D02*
X148018500Y-85013800D01*
D21*
X148018500Y-85013800D02*
X150342600Y-82689700D01*
D20*
X130962400Y-113411000D02*
X130962400Y-113411000D01*
X130842498Y-115448602D02*
X130835400Y-115214400D01*
X134450000Y-104530000D02*
X134429500Y-104559100D01*
D22*
X134429500Y-104559100D02*
X134520000Y-101770000D01*
D20*
X130842498Y-115448602D02*
X130848100Y-115633500D01*
D22*
X134493000Y-109728000D02*
X134450000Y-104530000D01*
D21*
X130771900Y-113271300D02*
X134518400Y-109855000D01*
X130971801Y-115826599D02*
X130771900Y-113271300D01*
D20*
X134329800Y-117510000D02*
X134416800Y-117597000D01*
X129180000Y-117510000D02*
X134329800Y-117510000D01*
X129180000Y-117510000D02*
X129180000Y-113339200D01*
X129180000Y-113339200D02*
X132613400Y-109905800D01*
X132613400Y-101136600D02*
X134520000Y-99230000D01*
X132613400Y-109905800D02*
X132613400Y-101136600D01*
X132022010Y-100119228D02*
X132022010Y-109760590D01*
X137060000Y-97960000D02*
X134181238Y-97960000D01*
X134181238Y-97960000D02*
X132022010Y-100119228D01*
X132022010Y-109760590D02*
X128270000Y-113512600D01*
X134938561Y-118684001D02*
X136956800Y-116665762D01*
X136956800Y-116665762D02*
X136956800Y-116327000D01*
X129280999Y-118684001D02*
X129280999Y-118684001D01*
X128270000Y-117673002D02*
X129280999Y-118684001D01*
X128270000Y-113512600D02*
X128270000Y-117673002D01*
X129280999Y-118684001D02*
X134938561Y-118684001D01*
X136956800Y-113787000D02*
X136956800Y-112709370D01*
X139303170Y-110363000D02*
X139303170Y-97088370D01*
X136956800Y-112709370D02*
X139303170Y-110363000D01*
X138728370Y-97088370D02*
X137060000Y-95420000D01*
X139303170Y-97088370D02*
X138728370Y-97088370D01*
X96075500Y-116332000D02*
X98425000Y-116332000D01*
X98425000Y-116332000D02*
X100457000Y-114300000D01*
X100486500Y-114329500D02*
X106519000Y-114329500D01*
X100457000Y-114300000D02*
X100486500Y-114329500D01*
X106519000Y-114329500D02*
X106519000Y-114329500D01*
X109444500Y-114329500D02*
X109444500Y-117445500D01*
X109444500Y-117445500D02*
X110617000Y-118618000D01*
X110617000Y-118618000D02*
X110617000Y-118618000D01*
X139217400Y-112039400D02*
X139217400Y-112039400D01*
X140480000Y-110776800D02*
X139217400Y-112039400D01*
X135597630Y-94155000D02*
X135902630Y-93850000D01*
X134520000Y-94155000D02*
X135597630Y-94155000D01*
X135902630Y-93850000D02*
X140500000Y-93850000D01*
X140500000Y-93850000D02*
X140500000Y-100970000D01*
X140500000Y-100970000D02*
X140480000Y-100990000D01*
X140480000Y-100990000D02*
X140480000Y-110776800D01*
X94703900Y-117500400D02*
X93535500Y-116332000D01*
X101955600Y-117500400D02*
X94703900Y-117500400D01*
X119507000Y-102616000D02*
X119507000Y-102616000D01*
X107746800Y-114452400D02*
X119507000Y-102616000D01*
X107746800Y-118908500D02*
X107746800Y-114452400D01*
X122796300Y-118833900D02*
X122758200Y-118872000D01*
X122809000Y-118287800D02*
X122796300Y-118833900D01*
X122783600Y-114730000D02*
X122809000Y-118287800D01*
X122783600Y-114223800D02*
X122783600Y-114730000D01*
X122790000Y-112700000D02*
X122783600Y-114223800D01*
X122759795Y-102081005D02*
X122790000Y-105390000D01*
X122790000Y-105390000D02*
X122790000Y-112700000D01*
X123484796Y-101640796D02*
X123484796Y-113116204D01*
X122047000Y-100203000D02*
X123484796Y-101640796D01*
X123484796Y-113116204D02*
X124206000Y-113837408D01*
X124206000Y-113837408D02*
X124206000Y-121920000D01*
X124206000Y-121920000D02*
X124206000Y-121920000D01*
X124206000Y-121920000D02*
X124206000Y-121920000D01*
X126136400Y-101546400D02*
X126136400Y-105689400D01*
X121600000Y-97010000D02*
X126136400Y-101546400D01*
X126136400Y-110769400D02*
X124056851Y-110769400D01*
X124031451Y-110744000D02*
X124031317Y-110744000D01*
X124056851Y-110769400D02*
X124031451Y-110744000D01*
X124031317Y-110744000D02*
X124031317Y-103552683D01*
X124499201Y-103084799D02*
X124499201Y-101258201D01*
X124031317Y-103552683D02*
X124499201Y-103084799D01*
X124499201Y-101258201D02*
X121031000Y-97790000D01*
X120874999Y-94771001D02*
X120996000Y-94650000D01*
X120874999Y-97358001D02*
X120874999Y-94771001D01*
X121031000Y-97514002D02*
X120874999Y-97358001D01*
X121031000Y-97790000D02*
X121031000Y-97514002D01*
D23*
G36*
X152909498Y-130201060D02*
G01*
X92442500Y-130188654D01*
X92442500Y-128099117D01*
X92499000Y-128099117D01*
X92499000Y-128440883D01*
X92565675Y-128776081D01*
X92696463Y-129091831D01*
X92886337Y-129375998D01*
X93128002Y-129617663D01*
X93412169Y-129807537D01*
X93727919Y-129938325D01*
X94063117Y-130005000D01*
X94404883Y-130005000D01*
X94740081Y-129938325D01*
X95055831Y-129807537D01*
X95339998Y-129617663D01*
X95581663Y-129375998D01*
X95771537Y-129091831D01*
X95902325Y-128776081D01*
X95969000Y-128440883D01*
X95969000Y-128099117D01*
X95902325Y-127763919D01*
X95805005Y-127528967D01*
X108855000Y-127528967D01*
X108855000Y-127851033D01*
X108917832Y-128166912D01*
X109041082Y-128464463D01*
X109220013Y-128732252D01*
X109447748Y-128959987D01*
X109715537Y-129138918D01*
X110013088Y-129262168D01*
X110328967Y-129325000D01*
X110651033Y-129325000D01*
X110966912Y-129262168D01*
X111264463Y-129138918D01*
X111532252Y-128959987D01*
X111759987Y-128732252D01*
X111938918Y-128464463D01*
X112062168Y-128166912D01*
X112125000Y-127851033D01*
X112125000Y-127528967D01*
X115355000Y-127528967D01*
X115355000Y-127851033D01*
X115417832Y-128166912D01*
X115541082Y-128464463D01*
X115720013Y-128732252D01*
X115947748Y-128959987D01*
X116215537Y-129138918D01*
X116513088Y-129262168D01*
X116828967Y-129325000D01*
X117151033Y-129325000D01*
X117466912Y-129262168D01*
X117764463Y-129138918D01*
X118032252Y-128959987D01*
X118259987Y-128732252D01*
X118438918Y-128464463D01*
X118548165Y-128200717D01*
X149344200Y-128200717D01*
X149344200Y-128542483D01*
X149410875Y-128877681D01*
X149541663Y-129193431D01*
X149731537Y-129477598D01*
X149973202Y-129719263D01*
X150257369Y-129909137D01*
X150573119Y-130039925D01*
X150908317Y-130106600D01*
X151250083Y-130106600D01*
X151585281Y-130039925D01*
X151901031Y-129909137D01*
X152185198Y-129719263D01*
X152426863Y-129477598D01*
X152616737Y-129193431D01*
X152747525Y-128877681D01*
X152814200Y-128542483D01*
X152814200Y-128200717D01*
X152747525Y-127865519D01*
X152616737Y-127549769D01*
X152426863Y-127265602D01*
X152185198Y-127023937D01*
X151901031Y-126834063D01*
X151585281Y-126703275D01*
X151250083Y-126636600D01*
X150908317Y-126636600D01*
X150573119Y-126703275D01*
X150257369Y-126834063D01*
X149973202Y-127023937D01*
X149731537Y-127265602D01*
X149541663Y-127549769D01*
X149410875Y-127865519D01*
X149344200Y-128200717D01*
X118548165Y-128200717D01*
X118562168Y-128166912D01*
X118625000Y-127851033D01*
X118625000Y-127528967D01*
X118562168Y-127213088D01*
X118438918Y-126915537D01*
X118259987Y-126647748D01*
X118032252Y-126420013D01*
X117764463Y-126241082D01*
X117466912Y-126117832D01*
X117151033Y-126055000D01*
X116828967Y-126055000D01*
X116513088Y-126117832D01*
X116215537Y-126241082D01*
X115947748Y-126420013D01*
X115720013Y-126647748D01*
X115541082Y-126915537D01*
X115417832Y-127213088D01*
X115355000Y-127528967D01*
X112125000Y-127528967D01*
X112062168Y-127213088D01*
X111938918Y-126915537D01*
X111759987Y-126647748D01*
X111532252Y-126420013D01*
X111264463Y-126241082D01*
X110966912Y-126117832D01*
X110651033Y-126055000D01*
X110328967Y-126055000D01*
X110013088Y-126117832D01*
X109715537Y-126241082D01*
X109447748Y-126420013D01*
X109220013Y-126647748D01*
X109041082Y-126915537D01*
X108917832Y-127213088D01*
X108855000Y-127528967D01*
X95805005Y-127528967D01*
X95771537Y-127448169D01*
X95581663Y-127164002D01*
X95339998Y-126922337D01*
X95055831Y-126732463D01*
X94740081Y-126601675D01*
X94404883Y-126535000D01*
X94063117Y-126535000D01*
X93727919Y-126601675D01*
X93412169Y-126732463D01*
X93128002Y-126922337D01*
X92886337Y-127164002D01*
X92696463Y-127448169D01*
X92565675Y-127763919D01*
X92499000Y-128099117D01*
X92442500Y-128099117D01*
X92442500Y-124325413D01*
X109534192Y-124325413D01*
X109629956Y-124589814D01*
X109919571Y-124730704D01*
X110231108Y-124812384D01*
X110552595Y-124831718D01*
X110871675Y-124787961D01*
X111176088Y-124682795D01*
X111350044Y-124589814D01*
X111445808Y-124325413D01*
X116034192Y-124325413D01*
X116129956Y-124589814D01*
X116419571Y-124730704D01*
X116731108Y-124812384D01*
X117052595Y-124831718D01*
X117371675Y-124787961D01*
X117676088Y-124682795D01*
X117850044Y-124589814D01*
X117945808Y-124325413D01*
X116990000Y-123369605D01*
X116034192Y-124325413D01*
X111445808Y-124325413D01*
X110490000Y-123369605D01*
X109534192Y-124325413D01*
X92442500Y-124325413D01*
X92442500Y-123252595D01*
X108848282Y-123252595D01*
X108892039Y-123571675D01*
X108997205Y-123876088D01*
X109090186Y-124050044D01*
X109354587Y-124145808D01*
X110310395Y-123190000D01*
X110669605Y-123190000D01*
X111625413Y-124145808D01*
X111889814Y-124050044D01*
X112030704Y-123760429D01*
X112112384Y-123448892D01*
X112124189Y-123252595D01*
X115348282Y-123252595D01*
X115392039Y-123571675D01*
X115497205Y-123876088D01*
X115590186Y-124050044D01*
X115854587Y-124145808D01*
X116810395Y-123190000D01*
X117169605Y-123190000D01*
X118125413Y-124145808D01*
X118389814Y-124050044D01*
X118530704Y-123760429D01*
X118612384Y-123448892D01*
X118631718Y-123127405D01*
X118587961Y-122808325D01*
X118482795Y-122503912D01*
X118389814Y-122329956D01*
X118125413Y-122234192D01*
X117169605Y-123190000D01*
X116810395Y-123190000D01*
X115854587Y-122234192D01*
X115590186Y-122329956D01*
X115449296Y-122619571D01*
X115367616Y-122931108D01*
X115348282Y-123252595D01*
X112124189Y-123252595D01*
X112131718Y-123127405D01*
X112087961Y-122808325D01*
X111982795Y-122503912D01*
X111889814Y-122329956D01*
X111625413Y-122234192D01*
X110669605Y-123190000D01*
X110310395Y-123190000D01*
X109354587Y-122234192D01*
X109090186Y-122329956D01*
X108949296Y-122619571D01*
X108867616Y-122931108D01*
X108848282Y-123252595D01*
X92442500Y-123252595D01*
X92442500Y-122054587D01*
X109534192Y-122054587D01*
X110490000Y-123010395D01*
X111445808Y-122054587D01*
X116034192Y-122054587D01*
X116990000Y-123010395D01*
X117945808Y-122054587D01*
X117850044Y-121790186D01*
X117560429Y-121649296D01*
X117248892Y-121567616D01*
X116927405Y-121548282D01*
X116608325Y-121592039D01*
X116303912Y-121697205D01*
X116129956Y-121790186D01*
X116034192Y-122054587D01*
X111445808Y-122054587D01*
X111350044Y-121790186D01*
X111060429Y-121649296D01*
X110748892Y-121567616D01*
X110427405Y-121548282D01*
X110108325Y-121592039D01*
X109803912Y-121697205D01*
X109629956Y-121790186D01*
X109534192Y-122054587D01*
X92442500Y-122054587D01*
X92442500Y-117210742D01*
X92450380Y-117222535D01*
X92644965Y-117417120D01*
X92873773Y-117570005D01*
X93128010Y-117675314D01*
X93397908Y-117729000D01*
X93673092Y-117729000D01*
X93827070Y-117698372D01*
X94140101Y-118011403D01*
X94163899Y-118040401D01*
X94192897Y-118064199D01*
X94279623Y-118135374D01*
X94388827Y-118193745D01*
X94411653Y-118205946D01*
X94554914Y-118249403D01*
X94666567Y-118260400D01*
X94666576Y-118260400D01*
X94703899Y-118264076D01*
X94741222Y-118260400D01*
X101251889Y-118260400D01*
X101295826Y-118304337D01*
X101465344Y-118417605D01*
X101653702Y-118495626D01*
X101853661Y-118535400D01*
X102057539Y-118535400D01*
X102257498Y-118495626D01*
X102445856Y-118417605D01*
X102615374Y-118304337D01*
X102759537Y-118160174D01*
X102872805Y-117990656D01*
X102950826Y-117802298D01*
X102990600Y-117602339D01*
X102990600Y-117398461D01*
X102950826Y-117198502D01*
X102872805Y-117010144D01*
X102759537Y-116840626D01*
X102615374Y-116696463D01*
X102445856Y-116583195D01*
X102257498Y-116505174D01*
X102057539Y-116465400D01*
X101853661Y-116465400D01*
X101653702Y-116505174D01*
X101465344Y-116583195D01*
X101295826Y-116696463D01*
X101251889Y-116740400D01*
X99091401Y-116740400D01*
X100742302Y-115089500D01*
X105815289Y-115089500D01*
X105859226Y-115133437D01*
X106028744Y-115246705D01*
X106217102Y-115324726D01*
X106417061Y-115364500D01*
X106620939Y-115364500D01*
X106820898Y-115324726D01*
X106986801Y-115256006D01*
X106986800Y-118204789D01*
X106942863Y-118248726D01*
X106829595Y-118418244D01*
X106751574Y-118606602D01*
X106711800Y-118806561D01*
X106711800Y-119010439D01*
X106751574Y-119210398D01*
X106829595Y-119398756D01*
X106942863Y-119568274D01*
X107087026Y-119712437D01*
X107256544Y-119825705D01*
X107444902Y-119903726D01*
X107644861Y-119943500D01*
X107848739Y-119943500D01*
X108048698Y-119903726D01*
X108237056Y-119825705D01*
X108257866Y-119811800D01*
X119162424Y-119811800D01*
X119166100Y-119849123D01*
X119166101Y-122670068D01*
X119162424Y-122707400D01*
X119177098Y-122856385D01*
X119220554Y-122999646D01*
X119291126Y-123131676D01*
X119338992Y-123190000D01*
X119386100Y-123247401D01*
X119415098Y-123271199D01*
X120211900Y-124068002D01*
X120211900Y-124130139D01*
X120251674Y-124330098D01*
X120329695Y-124518456D01*
X120442963Y-124687974D01*
X120587126Y-124832137D01*
X120664701Y-124883971D01*
X120664700Y-126004189D01*
X120620763Y-126048126D01*
X120507495Y-126217644D01*
X120429474Y-126406002D01*
X120389700Y-126605961D01*
X120389700Y-126809839D01*
X120429474Y-127009798D01*
X120507495Y-127198156D01*
X120620763Y-127367674D01*
X120764926Y-127511837D01*
X120934444Y-127625105D01*
X121122802Y-127703126D01*
X121322761Y-127742900D01*
X121526639Y-127742900D01*
X121726598Y-127703126D01*
X121914956Y-127625105D01*
X122084474Y-127511837D01*
X122228637Y-127367674D01*
X122341905Y-127198156D01*
X122419926Y-127009798D01*
X122459700Y-126809839D01*
X122459700Y-126605961D01*
X122419926Y-126406002D01*
X122341905Y-126217644D01*
X122228637Y-126048126D01*
X122184700Y-126004189D01*
X122184700Y-124468736D01*
X122242126Y-124330098D01*
X122281900Y-124130139D01*
X122281900Y-123926261D01*
X122242126Y-123726302D01*
X122164105Y-123537944D01*
X122050837Y-123368426D01*
X121906674Y-123224263D01*
X121737156Y-123110995D01*
X121548798Y-123032974D01*
X121348839Y-122993200D01*
X121286702Y-122993200D01*
X120686100Y-122392599D01*
X120686100Y-120126601D01*
X121780473Y-119032229D01*
X121801074Y-119135798D01*
X121879095Y-119324156D01*
X121992363Y-119493674D01*
X122136526Y-119637837D01*
X122306044Y-119751105D01*
X122494402Y-119829126D01*
X122694361Y-119868900D01*
X122898239Y-119868900D01*
X123098198Y-119829126D01*
X123286556Y-119751105D01*
X123446001Y-119644568D01*
X123446001Y-121216288D01*
X123402063Y-121260226D01*
X123288795Y-121429744D01*
X123210774Y-121618102D01*
X123171000Y-121818061D01*
X123171000Y-122021939D01*
X123210774Y-122221898D01*
X123288795Y-122410256D01*
X123402063Y-122579774D01*
X123546226Y-122723937D01*
X123715744Y-122837205D01*
X123904102Y-122915226D01*
X124104061Y-122955000D01*
X124307939Y-122955000D01*
X124507898Y-122915226D01*
X124696256Y-122837205D01*
X124865774Y-122723937D01*
X125009937Y-122579774D01*
X125123205Y-122410256D01*
X125201226Y-122221898D01*
X125211747Y-122169000D01*
X135556728Y-122169000D01*
X135568988Y-122293482D01*
X135605298Y-122413180D01*
X135664263Y-122523494D01*
X135743615Y-122620185D01*
X135840306Y-122699537D01*
X135950620Y-122758502D01*
X136070318Y-122794812D01*
X136194800Y-122807072D01*
X136671050Y-122804000D01*
X136829800Y-122645250D01*
X136829800Y-121534000D01*
X137083800Y-121534000D01*
X137083800Y-122645250D01*
X137242550Y-122804000D01*
X137718800Y-122807072D01*
X137843282Y-122794812D01*
X137962980Y-122758502D01*
X138073294Y-122699537D01*
X138169985Y-122620185D01*
X138249337Y-122523494D01*
X138281485Y-122463349D01*
X141086800Y-122463349D01*
X141086800Y-122900651D01*
X141172113Y-123329550D01*
X141339461Y-123733564D01*
X141582413Y-124097168D01*
X141891632Y-124406387D01*
X142255236Y-124649339D01*
X142659250Y-124816687D01*
X143088149Y-124902000D01*
X143525451Y-124902000D01*
X143954350Y-124816687D01*
X144358364Y-124649339D01*
X144721968Y-124406387D01*
X145031187Y-124097168D01*
X145274139Y-123733564D01*
X145441487Y-123329550D01*
X145526800Y-122900651D01*
X145526800Y-122463349D01*
X145441487Y-122034450D01*
X145274139Y-121630436D01*
X145031187Y-121266832D01*
X144721968Y-120957613D01*
X144358364Y-120714661D01*
X143954350Y-120547313D01*
X143525451Y-120462000D01*
X143088149Y-120462000D01*
X142659250Y-120547313D01*
X142255236Y-120714661D01*
X141891632Y-120957613D01*
X141582413Y-121266832D01*
X141339461Y-121630436D01*
X141172113Y-122034450D01*
X141086800Y-122463349D01*
X138281485Y-122463349D01*
X138308302Y-122413180D01*
X138344612Y-122293482D01*
X138356872Y-122169000D01*
X138353800Y-121692750D01*
X138195050Y-121534000D01*
X137083800Y-121534000D01*
X136829800Y-121534000D01*
X135718550Y-121534000D01*
X135559800Y-121692750D01*
X135556728Y-122169000D01*
X125211747Y-122169000D01*
X125241000Y-122021939D01*
X125241000Y-121818061D01*
X125201226Y-121618102D01*
X125123205Y-121429744D01*
X125009937Y-121260226D01*
X124966000Y-121216289D01*
X124966000Y-113874730D01*
X124969676Y-113837407D01*
X124966000Y-113800084D01*
X124966000Y-113800075D01*
X124955003Y-113688422D01*
X124911546Y-113545161D01*
X124840974Y-113413132D01*
X124813381Y-113379510D01*
X124769799Y-113326404D01*
X124769795Y-113326400D01*
X124746001Y-113297407D01*
X124717009Y-113273614D01*
X124244796Y-112801402D01*
X124244796Y-111529400D01*
X124835696Y-111529400D01*
X124847595Y-111558127D01*
X125000480Y-111786935D01*
X125195065Y-111981520D01*
X125423873Y-112134405D01*
X125678110Y-112239714D01*
X125948008Y-112293400D01*
X126223192Y-112293400D01*
X126493090Y-112239714D01*
X126747327Y-112134405D01*
X126976135Y-111981520D01*
X127170720Y-111786935D01*
X127229520Y-111698935D01*
X127237788Y-111782882D01*
X127274098Y-111902580D01*
X127333063Y-112012894D01*
X127412415Y-112109585D01*
X127509106Y-112188937D01*
X127619420Y-112247902D01*
X127739118Y-112284212D01*
X127863600Y-112296472D01*
X128339850Y-112293400D01*
X128498598Y-112134652D01*
X128498598Y-112209200D01*
X127759003Y-112948796D01*
X127729999Y-112972599D01*
X127706186Y-113001616D01*
X127635026Y-113088324D01*
X127610801Y-113133646D01*
X127564454Y-113220354D01*
X127520997Y-113363615D01*
X127510000Y-113475268D01*
X127510000Y-113475278D01*
X127506324Y-113512600D01*
X127510000Y-113549923D01*
X127510001Y-117635670D01*
X127506324Y-117673002D01*
X127510001Y-117710335D01*
X127520218Y-117814063D01*
X127520998Y-117821987D01*
X127564454Y-117965248D01*
X127635026Y-118097278D01*
X127698094Y-118174126D01*
X127730000Y-118213003D01*
X127758998Y-118236801D01*
X128245999Y-118723803D01*
X128245999Y-118785940D01*
X128285773Y-118985899D01*
X128363794Y-119174257D01*
X128477062Y-119343775D01*
X128621225Y-119487938D01*
X128790743Y-119601206D01*
X128979101Y-119679227D01*
X129179060Y-119719001D01*
X129382938Y-119719001D01*
X129582897Y-119679227D01*
X129771255Y-119601206D01*
X129940773Y-119487938D01*
X129984710Y-119444001D01*
X133199690Y-119444001D01*
X133178795Y-119475273D01*
X133073486Y-119729510D01*
X133019800Y-119999408D01*
X133019800Y-120274592D01*
X133073486Y-120544490D01*
X133178795Y-120798727D01*
X133331680Y-121027535D01*
X133526265Y-121222120D01*
X133755073Y-121375005D01*
X134009310Y-121480314D01*
X134279208Y-121534000D01*
X134554392Y-121534000D01*
X134824290Y-121480314D01*
X135078527Y-121375005D01*
X135307335Y-121222120D01*
X135501920Y-121027535D01*
X135558648Y-120942636D01*
X135559800Y-121121250D01*
X135718550Y-121280000D01*
X136829800Y-121280000D01*
X136829800Y-121260000D01*
X137083800Y-121260000D01*
X137083800Y-121280000D01*
X138195050Y-121280000D01*
X138353800Y-121121250D01*
X138356872Y-120645000D01*
X138344612Y-120520518D01*
X138308302Y-120400820D01*
X138249337Y-120290506D01*
X138169985Y-120193815D01*
X138073294Y-120114463D01*
X137962980Y-120055498D01*
X137843282Y-120019188D01*
X137759335Y-120010920D01*
X137847335Y-119952120D01*
X138041920Y-119757535D01*
X138194805Y-119528727D01*
X138300114Y-119274490D01*
X138353800Y-119004592D01*
X138353800Y-118729408D01*
X138300114Y-118459510D01*
X138194805Y-118205273D01*
X138041920Y-117976465D01*
X137847335Y-117781880D01*
X137618527Y-117628995D01*
X137541285Y-117597000D01*
X137618527Y-117565005D01*
X137847335Y-117412120D01*
X138041920Y-117217535D01*
X138194805Y-116988727D01*
X138300114Y-116734490D01*
X138353800Y-116464592D01*
X138353800Y-116189408D01*
X138300114Y-115919510D01*
X138194805Y-115665273D01*
X138041920Y-115436465D01*
X137847335Y-115241880D01*
X137618527Y-115088995D01*
X137541285Y-115057000D01*
X137618527Y-115025005D01*
X137847335Y-114872120D01*
X138041920Y-114677535D01*
X138194805Y-114448727D01*
X138300114Y-114194490D01*
X138353800Y-113924592D01*
X138353800Y-113649408D01*
X138300114Y-113379510D01*
X138194805Y-113125273D01*
X138041920Y-112896465D01*
X137943213Y-112797758D01*
X138274163Y-112466809D01*
X138300195Y-112529656D01*
X138413463Y-112699174D01*
X138557626Y-112843337D01*
X138727144Y-112956605D01*
X138915502Y-113034626D01*
X139115461Y-113074400D01*
X139319339Y-113074400D01*
X139519298Y-113034626D01*
X139707656Y-112956605D01*
X139877174Y-112843337D01*
X140021337Y-112699174D01*
X140134605Y-112529656D01*
X140212626Y-112341298D01*
X140252400Y-112141339D01*
X140252400Y-112079201D01*
X140991003Y-111340599D01*
X141020001Y-111316801D01*
X141070718Y-111255002D01*
X141114974Y-111201077D01*
X141185546Y-111069047D01*
X141193091Y-111044174D01*
X141219390Y-110957476D01*
X141211260Y-110998349D01*
X141211260Y-111435651D01*
X141296573Y-111864550D01*
X141463921Y-112268564D01*
X141706873Y-112632168D01*
X142016092Y-112941387D01*
X142379696Y-113184339D01*
X142783710Y-113351687D01*
X143212609Y-113437000D01*
X143649911Y-113437000D01*
X144078810Y-113351687D01*
X144482824Y-113184339D01*
X144846428Y-112941387D01*
X145155647Y-112632168D01*
X145398599Y-112268564D01*
X145565947Y-111864550D01*
X145651260Y-111435651D01*
X145651260Y-110998349D01*
X145565947Y-110569450D01*
X145398599Y-110165436D01*
X145155647Y-109801832D01*
X144846428Y-109492613D01*
X144482824Y-109249661D01*
X144078810Y-109082313D01*
X143649911Y-108997000D01*
X143212609Y-108997000D01*
X142783710Y-109082313D01*
X142379696Y-109249661D01*
X142016092Y-109492613D01*
X141706873Y-109801832D01*
X141463921Y-110165436D01*
X141296573Y-110569450D01*
X141232249Y-110892830D01*
X141240000Y-110814133D01*
X141240000Y-110814124D01*
X141243676Y-110776801D01*
X141240000Y-110739478D01*
X141240000Y-104785019D01*
X141275313Y-104962550D01*
X141442661Y-105366564D01*
X141685613Y-105730168D01*
X141994832Y-106039387D01*
X142358436Y-106282339D01*
X142762450Y-106449687D01*
X143191349Y-106535000D01*
X143628651Y-106535000D01*
X144057550Y-106449687D01*
X144461564Y-106282339D01*
X144825168Y-106039387D01*
X145134387Y-105730168D01*
X145377339Y-105366564D01*
X145544687Y-104962550D01*
X145630000Y-104533651D01*
X145630000Y-104096349D01*
X145544687Y-103667450D01*
X145377339Y-103263436D01*
X145134387Y-102899832D01*
X144825168Y-102590613D01*
X144461564Y-102347661D01*
X144057550Y-102180313D01*
X143628651Y-102095000D01*
X143191349Y-102095000D01*
X142762450Y-102180313D01*
X142358436Y-102347661D01*
X141994832Y-102590613D01*
X141685613Y-102899832D01*
X141442661Y-103263436D01*
X141275313Y-103667450D01*
X141240000Y-103844981D01*
X141240000Y-101148665D01*
X141249003Y-101118986D01*
X141260000Y-101007333D01*
X141260000Y-101007323D01*
X141263676Y-100970001D01*
X141260000Y-100932678D01*
X141260000Y-93887333D01*
X141263677Y-93850000D01*
X141249003Y-93701014D01*
X141205546Y-93557753D01*
X141134974Y-93425724D01*
X141040001Y-93309999D01*
X140924276Y-93215026D01*
X140792247Y-93144454D01*
X140648986Y-93100997D01*
X140537333Y-93090000D01*
X140500000Y-93086323D01*
X140462667Y-93090000D01*
X135939952Y-93090000D01*
X135902629Y-93086324D01*
X135865306Y-93090000D01*
X135865297Y-93090000D01*
X135753644Y-93100997D01*
X135610383Y-93144454D01*
X135528746Y-93188091D01*
X135410535Y-93069880D01*
X135181727Y-92916995D01*
X134927490Y-92811686D01*
X134657592Y-92758000D01*
X134382408Y-92758000D01*
X134112510Y-92811686D01*
X133858273Y-92916995D01*
X133629465Y-93069880D01*
X133434880Y-93264465D01*
X133281995Y-93493273D01*
X133176686Y-93747510D01*
X133123000Y-94017408D01*
X133123000Y-94292592D01*
X133176686Y-94562490D01*
X133281995Y-94816727D01*
X133434880Y-95045535D01*
X133629465Y-95240120D01*
X133858273Y-95393005D01*
X133929943Y-95422692D01*
X133916977Y-95427364D01*
X133801020Y-95489344D01*
X133734040Y-95729435D01*
X134520000Y-96515395D01*
X135305960Y-95729435D01*
X135238980Y-95489344D01*
X135103240Y-95425515D01*
X135181727Y-95393005D01*
X135410535Y-95240120D01*
X135605120Y-95045535D01*
X135696383Y-94908951D01*
X135746616Y-94904003D01*
X135763789Y-94898794D01*
X135716686Y-95012510D01*
X135663000Y-95282408D01*
X135663000Y-95557592D01*
X135716686Y-95827490D01*
X135821995Y-96081727D01*
X135974880Y-96310535D01*
X136169465Y-96505120D01*
X136398273Y-96658005D01*
X136475515Y-96690000D01*
X136398273Y-96721995D01*
X136169465Y-96874880D01*
X135974880Y-97069465D01*
X135887659Y-97200000D01*
X135826275Y-97200000D01*
X135842756Y-97164952D01*
X135909023Y-96897865D01*
X135921910Y-96622983D01*
X135880922Y-96350867D01*
X135787636Y-96091977D01*
X135725656Y-95976020D01*
X135485565Y-95909040D01*
X134699605Y-96695000D01*
X134713748Y-96709143D01*
X134534143Y-96888748D01*
X134520000Y-96874605D01*
X134505858Y-96888748D01*
X134326253Y-96709143D01*
X134340395Y-96695000D01*
X133554435Y-95909040D01*
X133314344Y-95976020D01*
X133197244Y-96225048D01*
X133130977Y-96492135D01*
X133118090Y-96767017D01*
X133159078Y-97039133D01*
X133252364Y-97298023D01*
X133314344Y-97413980D01*
X133554433Y-97480959D01*
X133438023Y-97597369D01*
X133453545Y-97612891D01*
X131511013Y-99555424D01*
X131482009Y-99579227D01*
X131457194Y-99609465D01*
X131387036Y-99694952D01*
X131342259Y-99778724D01*
X131316464Y-99826982D01*
X131273007Y-99970243D01*
X131262010Y-100081896D01*
X131262010Y-100081906D01*
X131258334Y-100119228D01*
X131262010Y-100156550D01*
X131262011Y-109445786D01*
X129938400Y-110769398D01*
X129863852Y-110769398D01*
X130022600Y-110610650D01*
X130025672Y-110134400D01*
X130013412Y-110009918D01*
X129977102Y-109890220D01*
X129918137Y-109779906D01*
X129838785Y-109683215D01*
X129742094Y-109603863D01*
X129631780Y-109544898D01*
X129512082Y-109508588D01*
X129428135Y-109500320D01*
X129516135Y-109441520D01*
X129710720Y-109246935D01*
X129863605Y-109018127D01*
X129968914Y-108763890D01*
X130022600Y-108493992D01*
X130022600Y-108218808D01*
X129968914Y-107948910D01*
X129863605Y-107694673D01*
X129710720Y-107465865D01*
X129516135Y-107271280D01*
X129287327Y-107118395D01*
X129210085Y-107086400D01*
X129287327Y-107054405D01*
X129516135Y-106901520D01*
X129710720Y-106706935D01*
X129863605Y-106478127D01*
X129968914Y-106223890D01*
X130022600Y-105953992D01*
X130022600Y-105678808D01*
X129968914Y-105408910D01*
X129863605Y-105154673D01*
X129710720Y-104925865D01*
X129516135Y-104731280D01*
X129287327Y-104578395D01*
X129033090Y-104473086D01*
X128763192Y-104419400D01*
X128488008Y-104419400D01*
X128218110Y-104473086D01*
X127963873Y-104578395D01*
X127735065Y-104731280D01*
X127540480Y-104925865D01*
X127387595Y-105154673D01*
X127355600Y-105231915D01*
X127323605Y-105154673D01*
X127170720Y-104925865D01*
X126976135Y-104731280D01*
X126896400Y-104678003D01*
X126896400Y-101583722D01*
X126900076Y-101546399D01*
X126896400Y-101509076D01*
X126896400Y-101509067D01*
X126885403Y-101397414D01*
X126841946Y-101254153D01*
X126771374Y-101122124D01*
X126752616Y-101099267D01*
X126700199Y-101035396D01*
X126700195Y-101035392D01*
X126676401Y-101006399D01*
X126647409Y-100982606D01*
X122635000Y-96970199D01*
X122635000Y-96908061D01*
X122595226Y-96708102D01*
X122517205Y-96519744D01*
X122403937Y-96350226D01*
X122259774Y-96206063D01*
X122090256Y-96092795D01*
X121901898Y-96014774D01*
X121701939Y-95975000D01*
X121634999Y-95975000D01*
X121634999Y-95467818D01*
X121655774Y-95453937D01*
X121799937Y-95309774D01*
X121913205Y-95140256D01*
X121991226Y-94951898D01*
X122031000Y-94751939D01*
X122031000Y-94548061D01*
X121991226Y-94348102D01*
X121913205Y-94159744D01*
X121799937Y-93990226D01*
X121655774Y-93846063D01*
X121486256Y-93732795D01*
X121297898Y-93654774D01*
X121097939Y-93615000D01*
X120894061Y-93615000D01*
X120694102Y-93654774D01*
X120505744Y-93732795D01*
X120336226Y-93846063D01*
X120192063Y-93990226D01*
X120078795Y-94159744D01*
X120000774Y-94348102D01*
X119961000Y-94548061D01*
X119961000Y-94751939D01*
X120000774Y-94951898D01*
X120078795Y-95140256D01*
X120115000Y-95194440D01*
X120114999Y-97320678D01*
X120111323Y-97358001D01*
X120114999Y-97395323D01*
X120114999Y-97395333D01*
X120125996Y-97506986D01*
X120153017Y-97596063D01*
X120169453Y-97650247D01*
X120240025Y-97782277D01*
X120259698Y-97806248D01*
X120270183Y-97819023D01*
X120271000Y-97827322D01*
X120271000Y-97827332D01*
X120281997Y-97938985D01*
X120299764Y-97997555D01*
X120325454Y-98082246D01*
X120396026Y-98214276D01*
X120427294Y-98252376D01*
X120490999Y-98330001D01*
X120520003Y-98353804D01*
X121493951Y-99327752D01*
X121387226Y-99399063D01*
X121243063Y-99543226D01*
X121129795Y-99712744D01*
X121051774Y-99901102D01*
X121012000Y-100101061D01*
X121012000Y-100304939D01*
X121051774Y-100504898D01*
X121129795Y-100693256D01*
X121243063Y-100862774D01*
X121387226Y-101006937D01*
X121556744Y-101120205D01*
X121745102Y-101198226D01*
X121945061Y-101238000D01*
X122007199Y-101238000D01*
X122073144Y-101303945D01*
X121955858Y-101421231D01*
X121842590Y-101590749D01*
X121764569Y-101779107D01*
X121724795Y-101979066D01*
X121724795Y-102182944D01*
X121764569Y-102382903D01*
X121842590Y-102571261D01*
X121955858Y-102740779D01*
X122006246Y-102791167D01*
X122030000Y-105393407D01*
X122030000Y-105746600D01*
X121843461Y-105746600D01*
X121643502Y-105786374D01*
X121455144Y-105864395D01*
X121285626Y-105977663D01*
X121141463Y-106121826D01*
X121028195Y-106291344D01*
X120950174Y-106479702D01*
X120910400Y-106679661D01*
X120910400Y-106883539D01*
X120950174Y-107083498D01*
X121028195Y-107271856D01*
X121141463Y-107441374D01*
X121155796Y-107455707D01*
X120787000Y-116056128D01*
X120785401Y-116072367D01*
X120785401Y-116093426D01*
X120784500Y-116114438D01*
X120785401Y-116130710D01*
X120785402Y-117877695D01*
X119415102Y-119247997D01*
X119386099Y-119271799D01*
X119347384Y-119318974D01*
X119291126Y-119387524D01*
X119258533Y-119448501D01*
X119220554Y-119519554D01*
X119177097Y-119662815D01*
X119166100Y-119774468D01*
X119166100Y-119774478D01*
X119162424Y-119811800D01*
X108257866Y-119811800D01*
X108406574Y-119712437D01*
X108550737Y-119568274D01*
X108664005Y-119398756D01*
X108742026Y-119210398D01*
X108781800Y-119010439D01*
X108781800Y-118806561D01*
X108742026Y-118606602D01*
X108664005Y-118418244D01*
X108550737Y-118248726D01*
X108506800Y-118204789D01*
X108506800Y-114770277D01*
X108527295Y-114819756D01*
X108640563Y-114989274D01*
X108684500Y-115033211D01*
X108684501Y-117408168D01*
X108680824Y-117445500D01*
X108695498Y-117594485D01*
X108738954Y-117737746D01*
X108809526Y-117869776D01*
X108863053Y-117934998D01*
X108904500Y-117985501D01*
X108933498Y-118009299D01*
X109582000Y-118657802D01*
X109582000Y-118719939D01*
X109621774Y-118919898D01*
X109699795Y-119108256D01*
X109813063Y-119277774D01*
X109957226Y-119421937D01*
X110126744Y-119535205D01*
X110315102Y-119613226D01*
X110515061Y-119653000D01*
X110718939Y-119653000D01*
X110918898Y-119613226D01*
X111107256Y-119535205D01*
X111276774Y-119421937D01*
X111420937Y-119277774D01*
X111534205Y-119108256D01*
X111612226Y-118919898D01*
X111652000Y-118719939D01*
X111652000Y-118516061D01*
X111612226Y-118316102D01*
X111534205Y-118127744D01*
X111420937Y-117958226D01*
X111276774Y-117814063D01*
X111107256Y-117700795D01*
X110918898Y-117622774D01*
X110718939Y-117583000D01*
X110656802Y-117583000D01*
X110204500Y-117130699D01*
X110204500Y-116434890D01*
X116160524Y-116434890D01*
X116205175Y-116582099D01*
X116330359Y-116844920D01*
X116504412Y-117078269D01*
X116720645Y-117273178D01*
X116970748Y-117422157D01*
X117245109Y-117519481D01*
X117475000Y-117398814D01*
X117475000Y-116205000D01*
X117729000Y-116205000D01*
X117729000Y-117398814D01*
X117958891Y-117519481D01*
X118233252Y-117422157D01*
X118483355Y-117273178D01*
X118699588Y-117078269D01*
X118873641Y-116844920D01*
X118998825Y-116582099D01*
X119043476Y-116434890D01*
X118922155Y-116205000D01*
X117729000Y-116205000D01*
X117475000Y-116205000D01*
X116281845Y-116205000D01*
X116160524Y-116434890D01*
X110204500Y-116434890D01*
X110204500Y-115033211D01*
X110248437Y-114989274D01*
X110361705Y-114819756D01*
X110439726Y-114631398D01*
X110479500Y-114431439D01*
X110479500Y-114227561D01*
X110439726Y-114027602D01*
X110361705Y-113839244D01*
X110248437Y-113669726D01*
X110104274Y-113525563D01*
X109934756Y-113412295D01*
X109875814Y-113387880D01*
X115618484Y-107608000D01*
X116113928Y-107608000D01*
X116113928Y-109308000D01*
X116126188Y-109432482D01*
X116162498Y-109552180D01*
X116221463Y-109662494D01*
X116300815Y-109759185D01*
X116397506Y-109838537D01*
X116507820Y-109897502D01*
X116580380Y-109919513D01*
X116448525Y-110051368D01*
X116286010Y-110294589D01*
X116174068Y-110564842D01*
X116117000Y-110851740D01*
X116117000Y-111144260D01*
X116174068Y-111431158D01*
X116286010Y-111701411D01*
X116448525Y-111944632D01*
X116655368Y-112151475D01*
X116829760Y-112268000D01*
X116655368Y-112384525D01*
X116448525Y-112591368D01*
X116286010Y-112834589D01*
X116174068Y-113104842D01*
X116117000Y-113391740D01*
X116117000Y-113684260D01*
X116174068Y-113971158D01*
X116286010Y-114241411D01*
X116448525Y-114484632D01*
X116655368Y-114691475D01*
X116837534Y-114813195D01*
X116720645Y-114882822D01*
X116504412Y-115077731D01*
X116330359Y-115311080D01*
X116205175Y-115573901D01*
X116160524Y-115721110D01*
X116281845Y-115951000D01*
X117475000Y-115951000D01*
X117475000Y-115931000D01*
X117729000Y-115931000D01*
X117729000Y-115951000D01*
X118922155Y-115951000D01*
X119043476Y-115721110D01*
X118998825Y-115573901D01*
X118873641Y-115311080D01*
X118699588Y-115077731D01*
X118483355Y-114882822D01*
X118366466Y-114813195D01*
X118548632Y-114691475D01*
X118755475Y-114484632D01*
X118917990Y-114241411D01*
X119029932Y-113971158D01*
X119087000Y-113684260D01*
X119087000Y-113391740D01*
X119029932Y-113104842D01*
X118917990Y-112834589D01*
X118755475Y-112591368D01*
X118548632Y-112384525D01*
X118374240Y-112268000D01*
X118548632Y-112151475D01*
X118755475Y-111944632D01*
X118917990Y-111701411D01*
X119029932Y-111431158D01*
X119087000Y-111144260D01*
X119087000Y-110851740D01*
X119029932Y-110564842D01*
X118917990Y-110294589D01*
X118755475Y-110051368D01*
X118623620Y-109919513D01*
X118696180Y-109897502D01*
X118806494Y-109838537D01*
X118903185Y-109759185D01*
X118982537Y-109662494D01*
X119041502Y-109552180D01*
X119077812Y-109432482D01*
X119090072Y-109308000D01*
X119090072Y-107608000D01*
X119077812Y-107483518D01*
X119041502Y-107363820D01*
X118982537Y-107253506D01*
X118903185Y-107156815D01*
X118806494Y-107077463D01*
X118696180Y-107018498D01*
X118576482Y-106982188D01*
X118452000Y-106969928D01*
X116752000Y-106969928D01*
X116627518Y-106982188D01*
X116507820Y-107018498D01*
X116397506Y-107077463D01*
X116300815Y-107156815D01*
X116221463Y-107253506D01*
X116162498Y-107363820D01*
X116126188Y-107483518D01*
X116113928Y-107608000D01*
X115618484Y-107608000D01*
X119550011Y-103651000D01*
X119608939Y-103651000D01*
X119808898Y-103611226D01*
X119997256Y-103533205D01*
X120166774Y-103419937D01*
X120310937Y-103275774D01*
X120424205Y-103106256D01*
X120502226Y-102917898D01*
X120542000Y-102717939D01*
X120542000Y-102514061D01*
X120502226Y-102314102D01*
X120424205Y-102125744D01*
X120310937Y-101956226D01*
X120166774Y-101812063D01*
X119997256Y-101698795D01*
X119808898Y-101620774D01*
X119608939Y-101581000D01*
X119405061Y-101581000D01*
X119205102Y-101620774D01*
X119016744Y-101698795D01*
X118847226Y-101812063D01*
X118703063Y-101956226D01*
X118589795Y-102125744D01*
X118511774Y-102314102D01*
X118472000Y-102514061D01*
X118472000Y-102579416D01*
X107375270Y-113748048D01*
X107322937Y-113669726D01*
X107178774Y-113525563D01*
X107009256Y-113412295D01*
X106820898Y-113334274D01*
X106620939Y-113294500D01*
X106417061Y-113294500D01*
X106217102Y-113334274D01*
X106028744Y-113412295D01*
X105859226Y-113525563D01*
X105815289Y-113569500D01*
X100666981Y-113569500D01*
X100605986Y-113550998D01*
X100457000Y-113536324D01*
X100308014Y-113550998D01*
X100164753Y-113594454D01*
X100032723Y-113665026D01*
X99949083Y-113733668D01*
X99916999Y-113759999D01*
X99893201Y-113788997D01*
X98110199Y-115572000D01*
X97247841Y-115572000D01*
X97160620Y-115441465D01*
X96966035Y-115246880D01*
X96737227Y-115093995D01*
X96659985Y-115062000D01*
X96737227Y-115030005D01*
X96966035Y-114877120D01*
X97160620Y-114682535D01*
X97313505Y-114453727D01*
X97418814Y-114199490D01*
X97472500Y-113929592D01*
X97472500Y-113654408D01*
X97418814Y-113384510D01*
X97313505Y-113130273D01*
X97160620Y-112901465D01*
X96966035Y-112706880D01*
X96737227Y-112553995D01*
X96659985Y-112522000D01*
X96737227Y-112490005D01*
X96966035Y-112337120D01*
X97160620Y-112142535D01*
X97313505Y-111913727D01*
X97418814Y-111659490D01*
X97472500Y-111389592D01*
X97472500Y-111114408D01*
X97418814Y-110844510D01*
X97313505Y-110590273D01*
X97160620Y-110361465D01*
X96966035Y-110166880D01*
X96737227Y-110013995D01*
X96659985Y-109982000D01*
X96737227Y-109950005D01*
X96966035Y-109797120D01*
X97160620Y-109602535D01*
X97313505Y-109373727D01*
X97418814Y-109119490D01*
X97472500Y-108849592D01*
X97472500Y-108574408D01*
X97418814Y-108304510D01*
X97313505Y-108050273D01*
X97160620Y-107821465D01*
X96966035Y-107626880D01*
X96737227Y-107473995D01*
X96659985Y-107442000D01*
X96737227Y-107410005D01*
X96966035Y-107257120D01*
X97160620Y-107062535D01*
X97313505Y-106833727D01*
X97418814Y-106579490D01*
X97472500Y-106309592D01*
X97472500Y-106034408D01*
X97418814Y-105764510D01*
X97313505Y-105510273D01*
X97160620Y-105281465D01*
X96966035Y-105086880D01*
X96737227Y-104933995D01*
X96659985Y-104902000D01*
X96737227Y-104870005D01*
X96966035Y-104717120D01*
X97160620Y-104522535D01*
X97313505Y-104293727D01*
X97418814Y-104039490D01*
X97472500Y-103769592D01*
X97472500Y-103494408D01*
X97418814Y-103224510D01*
X97313505Y-102970273D01*
X97160620Y-102741465D01*
X96966035Y-102546880D01*
X96737227Y-102393995D01*
X96659985Y-102362000D01*
X96737227Y-102330005D01*
X96966035Y-102177120D01*
X97160620Y-101982535D01*
X97313505Y-101753727D01*
X97418814Y-101499490D01*
X97472500Y-101229592D01*
X97472500Y-100954408D01*
X97418814Y-100684510D01*
X97313505Y-100430273D01*
X97160620Y-100201465D01*
X96966035Y-100006880D01*
X96737227Y-99853995D01*
X96659985Y-99822000D01*
X96737227Y-99790005D01*
X96966035Y-99637120D01*
X97160620Y-99442535D01*
X97313505Y-99213727D01*
X97418814Y-98959490D01*
X97469813Y-98703100D01*
X111119028Y-98703100D01*
X111131288Y-98827582D01*
X111167598Y-98947280D01*
X111226563Y-99057594D01*
X111305915Y-99154285D01*
X111402606Y-99233637D01*
X111512920Y-99292602D01*
X111632618Y-99328912D01*
X111757100Y-99341172D01*
X112183850Y-99338100D01*
X112342600Y-99179350D01*
X112342600Y-97955100D01*
X112596600Y-97955100D01*
X112596600Y-99179350D01*
X112755350Y-99338100D01*
X113182100Y-99341172D01*
X113306582Y-99328912D01*
X113426280Y-99292602D01*
X113536594Y-99233637D01*
X113633285Y-99154285D01*
X113712637Y-99057594D01*
X113771602Y-98947280D01*
X113807912Y-98827582D01*
X113820172Y-98703100D01*
X113817100Y-98113850D01*
X113658350Y-97955100D01*
X112596600Y-97955100D01*
X112342600Y-97955100D01*
X111280850Y-97955100D01*
X111122100Y-98113850D01*
X111119028Y-98703100D01*
X97469813Y-98703100D01*
X97472500Y-98689592D01*
X97472500Y-98414408D01*
X97418814Y-98144510D01*
X97313505Y-97890273D01*
X97160620Y-97661465D01*
X96966035Y-97466880D01*
X96737227Y-97313995D01*
X96659985Y-97282000D01*
X96737227Y-97250005D01*
X96966035Y-97097120D01*
X97110055Y-96953100D01*
X111119028Y-96953100D01*
X111122100Y-97542350D01*
X111280850Y-97701100D01*
X112342600Y-97701100D01*
X112342600Y-96476850D01*
X112596600Y-96476850D01*
X112596600Y-97701100D01*
X113658350Y-97701100D01*
X113817100Y-97542350D01*
X113820172Y-96953100D01*
X113807912Y-96828618D01*
X113771602Y-96708920D01*
X113712637Y-96598606D01*
X113633285Y-96501915D01*
X113536594Y-96422563D01*
X113426280Y-96363598D01*
X113306582Y-96327288D01*
X113182100Y-96315028D01*
X112755350Y-96318100D01*
X112596600Y-96476850D01*
X112342600Y-96476850D01*
X112183850Y-96318100D01*
X111757100Y-96315028D01*
X111632618Y-96327288D01*
X111512920Y-96363598D01*
X111402606Y-96422563D01*
X111305915Y-96501915D01*
X111226563Y-96598606D01*
X111167598Y-96708920D01*
X111131288Y-96828618D01*
X111119028Y-96953100D01*
X97110055Y-96953100D01*
X97160620Y-96902535D01*
X97313505Y-96673727D01*
X97418814Y-96419490D01*
X97472500Y-96149592D01*
X97472500Y-95874408D01*
X97418814Y-95604510D01*
X97313505Y-95350273D01*
X97220179Y-95210600D01*
X110293528Y-95210600D01*
X110305788Y-95335082D01*
X110342098Y-95454780D01*
X110401063Y-95565094D01*
X110480415Y-95661785D01*
X110577106Y-95741137D01*
X110687420Y-95800102D01*
X110807118Y-95836412D01*
X110931600Y-95848672D01*
X111358350Y-95845600D01*
X111517100Y-95686850D01*
X111517100Y-94462600D01*
X111771100Y-94462600D01*
X111771100Y-95686850D01*
X111929850Y-95845600D01*
X112356600Y-95848672D01*
X112481082Y-95836412D01*
X112600780Y-95800102D01*
X112711094Y-95741137D01*
X112807785Y-95661785D01*
X112887137Y-95565094D01*
X112946102Y-95454780D01*
X112982412Y-95335082D01*
X112994672Y-95210600D01*
X112991600Y-94621350D01*
X112832850Y-94462600D01*
X111771100Y-94462600D01*
X111517100Y-94462600D01*
X110455350Y-94462600D01*
X110296600Y-94621350D01*
X110293528Y-95210600D01*
X97220179Y-95210600D01*
X97160620Y-95121465D01*
X96966035Y-94926880D01*
X96737227Y-94773995D01*
X96659985Y-94742000D01*
X96737227Y-94710005D01*
X96966035Y-94557120D01*
X97160620Y-94362535D01*
X97313505Y-94133727D01*
X97418814Y-93879490D01*
X97472500Y-93609592D01*
X97472500Y-93460600D01*
X110293528Y-93460600D01*
X110296600Y-94049850D01*
X110455350Y-94208600D01*
X111517100Y-94208600D01*
X111517100Y-92984350D01*
X111771100Y-92984350D01*
X111771100Y-94208600D01*
X112832850Y-94208600D01*
X112991600Y-94049850D01*
X112994672Y-93460600D01*
X112982412Y-93336118D01*
X112946102Y-93216420D01*
X112887137Y-93106106D01*
X112807785Y-93009415D01*
X112711094Y-92930063D01*
X112600780Y-92871098D01*
X112481082Y-92834788D01*
X112356600Y-92822528D01*
X111929850Y-92825600D01*
X111771100Y-92984350D01*
X111517100Y-92984350D01*
X111358350Y-92825600D01*
X110931600Y-92822528D01*
X110807118Y-92834788D01*
X110687420Y-92871098D01*
X110577106Y-92930063D01*
X110480415Y-93009415D01*
X110401063Y-93106106D01*
X110342098Y-93216420D01*
X110305788Y-93336118D01*
X110293528Y-93460600D01*
X97472500Y-93460600D01*
X97472500Y-93334408D01*
X97418814Y-93064510D01*
X97313505Y-92810273D01*
X97160620Y-92581465D01*
X96966035Y-92386880D01*
X96737227Y-92233995D01*
X96659985Y-92202000D01*
X96737227Y-92170005D01*
X96966035Y-92017120D01*
X97160620Y-91822535D01*
X97313505Y-91593727D01*
X97418814Y-91339490D01*
X97472500Y-91069592D01*
X97472500Y-90794408D01*
X97418814Y-90524510D01*
X97313505Y-90270273D01*
X97160620Y-90041465D01*
X96966035Y-89846880D01*
X96737227Y-89693995D01*
X96659985Y-89662000D01*
X96737227Y-89630005D01*
X96966035Y-89477120D01*
X97160620Y-89282535D01*
X97313505Y-89053727D01*
X97418814Y-88799490D01*
X97472500Y-88529592D01*
X97472500Y-88254408D01*
X97418814Y-87984510D01*
X97313505Y-87730273D01*
X97160620Y-87501465D01*
X96966035Y-87306880D01*
X96737227Y-87153995D01*
X96659985Y-87122000D01*
X96737227Y-87090005D01*
X96966035Y-86937120D01*
X97160620Y-86742535D01*
X97313505Y-86513727D01*
X97418814Y-86259490D01*
X97472500Y-85989592D01*
X97472500Y-85714408D01*
X97418814Y-85444510D01*
X97313505Y-85190273D01*
X97160620Y-84961465D01*
X96966035Y-84766880D01*
X96737227Y-84613995D01*
X96659985Y-84582000D01*
X96737227Y-84550005D01*
X96966035Y-84397120D01*
X97160620Y-84202535D01*
X97313505Y-83973727D01*
X97330130Y-83933589D01*
X103305000Y-83933589D01*
X103305000Y-84206411D01*
X103358225Y-84473989D01*
X103462629Y-84726043D01*
X103614201Y-84952886D01*
X103807114Y-85145799D01*
X104033957Y-85297371D01*
X104286011Y-85401775D01*
X104553589Y-85455000D01*
X104826411Y-85455000D01*
X105093989Y-85401775D01*
X105346043Y-85297371D01*
X105572886Y-85145799D01*
X105765799Y-84952886D01*
X105917371Y-84726043D01*
X106021775Y-84473989D01*
X106075000Y-84206411D01*
X106075000Y-83933589D01*
X106021775Y-83666011D01*
X105917371Y-83413957D01*
X105765799Y-83187114D01*
X105572886Y-82994201D01*
X105346043Y-82842629D01*
X105093989Y-82738225D01*
X104826411Y-82685000D01*
X104553589Y-82685000D01*
X104286011Y-82738225D01*
X104033957Y-82842629D01*
X103807114Y-82994201D01*
X103614201Y-83187114D01*
X103462629Y-83413957D01*
X103358225Y-83666011D01*
X103305000Y-83933589D01*
X97330130Y-83933589D01*
X97418814Y-83719490D01*
X97472500Y-83449592D01*
X97472500Y-83174408D01*
X97418814Y-82904510D01*
X97313505Y-82650273D01*
X97160620Y-82421465D01*
X96966035Y-82226880D01*
X96737227Y-82073995D01*
X96659985Y-82042000D01*
X96737227Y-82010005D01*
X96966035Y-81857120D01*
X97160620Y-81662535D01*
X97313505Y-81433727D01*
X97418814Y-81179490D01*
X97472500Y-80909592D01*
X97472500Y-80634408D01*
X97442365Y-80482908D01*
X106755681Y-80482908D01*
X106755681Y-80755730D01*
X106808906Y-81023308D01*
X106913310Y-81275362D01*
X107064882Y-81502205D01*
X107257795Y-81695118D01*
X107484638Y-81846690D01*
X107736692Y-81951094D01*
X108004270Y-82004319D01*
X108277092Y-82004319D01*
X108544670Y-81951094D01*
X108796724Y-81846690D01*
X109023567Y-81695118D01*
X109216480Y-81502205D01*
X109368052Y-81275362D01*
X109472456Y-81023308D01*
X109525681Y-80755730D01*
X109525681Y-80482908D01*
X109495282Y-80330083D01*
X115045000Y-85879802D01*
X115045000Y-85941939D01*
X115084774Y-86141898D01*
X115162795Y-86330256D01*
X115276063Y-86499774D01*
X115420226Y-86643937D01*
X115589744Y-86757205D01*
X115778102Y-86835226D01*
X115978061Y-86875000D01*
X116181939Y-86875000D01*
X116340001Y-86843560D01*
X116340000Y-92252398D01*
X115599822Y-92992577D01*
X115574986Y-92972195D01*
X115421450Y-92890128D01*
X115254854Y-92839592D01*
X115081600Y-92822528D01*
X114156600Y-92822528D01*
X113983346Y-92839592D01*
X113816750Y-92890128D01*
X113663214Y-92972195D01*
X113528638Y-93082638D01*
X113418195Y-93217214D01*
X113336128Y-93370750D01*
X113285592Y-93537346D01*
X113268528Y-93710600D01*
X113268528Y-94960600D01*
X113285592Y-95133854D01*
X113336128Y-95300450D01*
X113418195Y-95453986D01*
X113528638Y-95588562D01*
X113663214Y-95699005D01*
X113816750Y-95781072D01*
X113983346Y-95831608D01*
X114156600Y-95848672D01*
X114420498Y-95848672D01*
X114409600Y-95903461D01*
X114409600Y-96107339D01*
X114449374Y-96307298D01*
X114509883Y-96453380D01*
X114488714Y-96464695D01*
X114354138Y-96575138D01*
X114243695Y-96709714D01*
X114161628Y-96863250D01*
X114111092Y-97029846D01*
X114094028Y-97203100D01*
X114094028Y-98453100D01*
X114111092Y-98626354D01*
X114161628Y-98792950D01*
X114202842Y-98870056D01*
X112939003Y-100133896D01*
X112909999Y-100157699D01*
X112874082Y-100201465D01*
X112815026Y-100273424D01*
X112773034Y-100351985D01*
X112760093Y-100376196D01*
X112646063Y-100490226D01*
X112532795Y-100659744D01*
X112454774Y-100848102D01*
X112415000Y-101048061D01*
X112415000Y-101251939D01*
X112454774Y-101451898D01*
X112532795Y-101640256D01*
X112646063Y-101809774D01*
X112790226Y-101953937D01*
X112959744Y-102067205D01*
X113148102Y-102145226D01*
X113348061Y-102185000D01*
X113551939Y-102185000D01*
X113751898Y-102145226D01*
X113940256Y-102067205D01*
X114109774Y-101953937D01*
X114253937Y-101809774D01*
X114367205Y-101640256D01*
X114445226Y-101451898D01*
X114485000Y-101251939D01*
X114485000Y-101048061D01*
X114445226Y-100848102D01*
X114424481Y-100798020D01*
X115881330Y-99341172D01*
X115907100Y-99341172D01*
X116080354Y-99324108D01*
X116246950Y-99273572D01*
X116400486Y-99191505D01*
X116486748Y-99120712D01*
X116580014Y-99149003D01*
X116691667Y-99160000D01*
X116691675Y-99160000D01*
X116729000Y-99163676D01*
X116766325Y-99160000D01*
X117296289Y-99160000D01*
X117340226Y-99203937D01*
X117509744Y-99317205D01*
X117698102Y-99395226D01*
X117898061Y-99435000D01*
X118101939Y-99435000D01*
X118301898Y-99395226D01*
X118490256Y-99317205D01*
X118659774Y-99203937D01*
X118803937Y-99059774D01*
X118917205Y-98890256D01*
X118995226Y-98701898D01*
X119035000Y-98501939D01*
X119035000Y-98298061D01*
X118995226Y-98098102D01*
X118917205Y-97909744D01*
X118803937Y-97740226D01*
X118659774Y-97596063D01*
X118490256Y-97482795D01*
X118301898Y-97404774D01*
X118101939Y-97365000D01*
X117898061Y-97365000D01*
X117698102Y-97404774D01*
X117509744Y-97482795D01*
X117340226Y-97596063D01*
X117296289Y-97640000D01*
X117043802Y-97640000D01*
X116795172Y-97391371D01*
X116795172Y-97203100D01*
X116778108Y-97029846D01*
X116727572Y-96863250D01*
X116645505Y-96709714D01*
X116535062Y-96575138D01*
X116400486Y-96464695D01*
X116379317Y-96453380D01*
X116439826Y-96307298D01*
X116479600Y-96107339D01*
X116479600Y-95903461D01*
X116439826Y-95703502D01*
X116361805Y-95515144D01*
X116248537Y-95345626D01*
X116204600Y-95301689D01*
X116204600Y-94537401D01*
X117611004Y-93130998D01*
X117640001Y-93107201D01*
X117734974Y-92991476D01*
X117805546Y-92859447D01*
X117849003Y-92716186D01*
X117860000Y-92604533D01*
X117860000Y-92604524D01*
X117863676Y-92567201D01*
X117860000Y-92529878D01*
X117860000Y-86184801D01*
X123435000Y-91759802D01*
X123435000Y-91821939D01*
X123474774Y-92021898D01*
X123552795Y-92210256D01*
X123666063Y-92379774D01*
X123810226Y-92523937D01*
X123979744Y-92637205D01*
X124168102Y-92715226D01*
X124368061Y-92755000D01*
X124571939Y-92755000D01*
X124771898Y-92715226D01*
X124960256Y-92637205D01*
X124969020Y-92631349D01*
X141314460Y-92631349D01*
X141314460Y-93068651D01*
X141399773Y-93497550D01*
X141567121Y-93901564D01*
X141810073Y-94265168D01*
X142119292Y-94574387D01*
X142482896Y-94817339D01*
X142886910Y-94984687D01*
X143315809Y-95070000D01*
X143753111Y-95070000D01*
X144182010Y-94984687D01*
X144586024Y-94817339D01*
X144949628Y-94574387D01*
X145258847Y-94265168D01*
X145501799Y-93901564D01*
X145669147Y-93497550D01*
X145754460Y-93068651D01*
X145754460Y-92631349D01*
X145669147Y-92202450D01*
X145501799Y-91798436D01*
X145258847Y-91434832D01*
X144949628Y-91125613D01*
X144586024Y-90882661D01*
X144182010Y-90715313D01*
X143753111Y-90630000D01*
X143315809Y-90630000D01*
X142886910Y-90715313D01*
X142482896Y-90882661D01*
X142119292Y-91125613D01*
X141810073Y-91434832D01*
X141567121Y-91798436D01*
X141399773Y-92202450D01*
X141314460Y-92631349D01*
X124969020Y-92631349D01*
X125129774Y-92523937D01*
X125273937Y-92379774D01*
X125387205Y-92210256D01*
X125465226Y-92021898D01*
X125505000Y-91821939D01*
X125505000Y-91618061D01*
X125465226Y-91418102D01*
X125387205Y-91229744D01*
X125273937Y-91060226D01*
X125129774Y-90916063D01*
X124960256Y-90802795D01*
X124771898Y-90724774D01*
X124571939Y-90685000D01*
X124509802Y-90685000D01*
X122050402Y-88225600D01*
X129419728Y-88225600D01*
X129431988Y-88350082D01*
X129468298Y-88469780D01*
X129527263Y-88580094D01*
X129606615Y-88676785D01*
X129703306Y-88756137D01*
X129813620Y-88815102D01*
X129933318Y-88851412D01*
X130057800Y-88863672D01*
X130484550Y-88860600D01*
X130643300Y-88701850D01*
X130643300Y-87477600D01*
X130897300Y-87477600D01*
X130897300Y-88701850D01*
X131056050Y-88860600D01*
X131482800Y-88863672D01*
X131607282Y-88851412D01*
X131726980Y-88815102D01*
X131837294Y-88756137D01*
X131933985Y-88676785D01*
X132013337Y-88580094D01*
X132072302Y-88469780D01*
X132108612Y-88350082D01*
X132120872Y-88225600D01*
X132117800Y-87636350D01*
X131959050Y-87477600D01*
X130897300Y-87477600D01*
X130643300Y-87477600D01*
X129581550Y-87477600D01*
X129422800Y-87636350D01*
X129419728Y-88225600D01*
X122050402Y-88225600D01*
X120300402Y-86475600D01*
X129419728Y-86475600D01*
X129422800Y-87064850D01*
X129581550Y-87223600D01*
X130643300Y-87223600D01*
X130643300Y-85999350D01*
X130897300Y-85999350D01*
X130897300Y-87223600D01*
X131959050Y-87223600D01*
X132117800Y-87064850D01*
X132120872Y-86475600D01*
X132108612Y-86351118D01*
X132072302Y-86231420D01*
X132013337Y-86121106D01*
X131933985Y-86024415D01*
X131837294Y-85945063D01*
X131726980Y-85886098D01*
X131607282Y-85849788D01*
X131482800Y-85837528D01*
X131056050Y-85840600D01*
X130897300Y-85999350D01*
X130643300Y-85999350D01*
X130484550Y-85840600D01*
X130057800Y-85837528D01*
X129933318Y-85849788D01*
X129813620Y-85886098D01*
X129703306Y-85945063D01*
X129606615Y-86024415D01*
X129527263Y-86121106D01*
X129468298Y-86231420D01*
X129431988Y-86351118D01*
X129419728Y-86475600D01*
X120300402Y-86475600D01*
X118117039Y-84292238D01*
X118135000Y-84201939D01*
X118135000Y-84139801D01*
X120099647Y-82175155D01*
X120148102Y-82195226D01*
X120348061Y-82235000D01*
X120551939Y-82235000D01*
X120751898Y-82195226D01*
X120940256Y-82117205D01*
X121109774Y-82003937D01*
X121198709Y-81915002D01*
X121230748Y-81915002D01*
X121072000Y-82073750D01*
X121068928Y-82538000D01*
X121081188Y-82662482D01*
X121117498Y-82782180D01*
X121176463Y-82892494D01*
X121213809Y-82938000D01*
X121176463Y-82983506D01*
X121117498Y-83093820D01*
X121081188Y-83213518D01*
X121068928Y-83338000D01*
X121068928Y-84838000D01*
X121081188Y-84962482D01*
X121117498Y-85082180D01*
X121176463Y-85192494D01*
X121255815Y-85289185D01*
X121352506Y-85368537D01*
X121462820Y-85427502D01*
X121582518Y-85463812D01*
X121707000Y-85476072D01*
X123707000Y-85476072D01*
X123831482Y-85463812D01*
X123951180Y-85427502D01*
X124061494Y-85368537D01*
X124158185Y-85289185D01*
X124237537Y-85192494D01*
X124296502Y-85082180D01*
X124332812Y-84962482D01*
X124344087Y-84848000D01*
X125351089Y-84848000D01*
X125352414Y-84848402D01*
X125501399Y-84863076D01*
X125501400Y-84863076D01*
X125650385Y-84848402D01*
X125793646Y-84804946D01*
X125925676Y-84734374D01*
X125963883Y-84703018D01*
X126041401Y-84639401D01*
X126065204Y-84610398D01*
X127130003Y-83545599D01*
X127159001Y-83521801D01*
X127205595Y-83465026D01*
X127253974Y-83406077D01*
X127324546Y-83274047D01*
X127350916Y-83187114D01*
X127368003Y-83130786D01*
X127370028Y-83110231D01*
X127368928Y-83688000D01*
X127381188Y-83812482D01*
X127417498Y-83932180D01*
X127476463Y-84042494D01*
X127555815Y-84139185D01*
X127652506Y-84218537D01*
X127762820Y-84277502D01*
X127882518Y-84313812D01*
X128007000Y-84326072D01*
X128721250Y-84323000D01*
X128880000Y-84164250D01*
X128880000Y-81915000D01*
X129134000Y-81915000D01*
X129134000Y-84164250D01*
X129292750Y-84323000D01*
X130007000Y-84326072D01*
X130131482Y-84313812D01*
X130251180Y-84277502D01*
X130361494Y-84218537D01*
X130458185Y-84139185D01*
X130537537Y-84042494D01*
X130596502Y-83932180D01*
X130632812Y-83812482D01*
X130645072Y-83688000D01*
X130642932Y-82563400D01*
X132219528Y-82563400D01*
X132231788Y-82687882D01*
X132268098Y-82807580D01*
X132327063Y-82917894D01*
X132364409Y-82963400D01*
X132327063Y-83008906D01*
X132268098Y-83119220D01*
X132231788Y-83238918D01*
X132219528Y-83363400D01*
X132219528Y-84863400D01*
X132231788Y-84987882D01*
X132268098Y-85107580D01*
X132327063Y-85217894D01*
X132406415Y-85314585D01*
X132503106Y-85393937D01*
X132613420Y-85452902D01*
X132733118Y-85489212D01*
X132857600Y-85501472D01*
X132897801Y-85501472D01*
X132897800Y-85929261D01*
X132789414Y-85987195D01*
X132654838Y-86097638D01*
X132544395Y-86232214D01*
X132462328Y-86385750D01*
X132411792Y-86552346D01*
X132394728Y-86725600D01*
X132394728Y-87975600D01*
X132411792Y-88148854D01*
X132462328Y-88315450D01*
X132544395Y-88468986D01*
X132654838Y-88603562D01*
X132789414Y-88714005D01*
X132942950Y-88796072D01*
X133109546Y-88846608D01*
X133282800Y-88863672D01*
X134207800Y-88863672D01*
X134381054Y-88846608D01*
X134547650Y-88796072D01*
X134701186Y-88714005D01*
X134835762Y-88603562D01*
X134946205Y-88468986D01*
X135028272Y-88315450D01*
X135078808Y-88148854D01*
X135095872Y-87975600D01*
X135095872Y-86725600D01*
X135078808Y-86552346D01*
X135028272Y-86385750D01*
X134946205Y-86232214D01*
X134835762Y-86097638D01*
X134701186Y-85987195D01*
X134547650Y-85905128D01*
X134417800Y-85865739D01*
X134417800Y-85501472D01*
X134857600Y-85501472D01*
X134982082Y-85489212D01*
X135010946Y-85480456D01*
X135396397Y-85865908D01*
X135428804Y-85905396D01*
X135468292Y-85937803D01*
X135586402Y-86034734D01*
X135682509Y-86086104D01*
X135766207Y-86130841D01*
X135961305Y-86190024D01*
X136113362Y-86205000D01*
X136113371Y-86205000D01*
X136164199Y-86210006D01*
X136215027Y-86205000D01*
X143382568Y-86205000D01*
X143366277Y-86258705D01*
X143346294Y-86461600D01*
X143351301Y-86512437D01*
X143351301Y-86666492D01*
X143232825Y-86784968D01*
X143116300Y-86959360D01*
X142999775Y-86784968D01*
X142792932Y-86578125D01*
X142549711Y-86415610D01*
X142279458Y-86303668D01*
X141992560Y-86246600D01*
X141700040Y-86246600D01*
X141413142Y-86303668D01*
X141142889Y-86415610D01*
X140899668Y-86578125D01*
X140692825Y-86784968D01*
X140530310Y-87028189D01*
X140418368Y-87298442D01*
X140361300Y-87585340D01*
X140361300Y-87877860D01*
X140418368Y-88164758D01*
X140530310Y-88435011D01*
X140692825Y-88678232D01*
X140899668Y-88885075D01*
X141142889Y-89047590D01*
X141413142Y-89159532D01*
X141700040Y-89216600D01*
X141992560Y-89216600D01*
X142279458Y-89159532D01*
X142549711Y-89047590D01*
X142792932Y-88885075D01*
X142999775Y-88678232D01*
X143116300Y-88503840D01*
X143232825Y-88678232D01*
X143439668Y-88885075D01*
X143682889Y-89047590D01*
X143953142Y-89159532D01*
X144240040Y-89216600D01*
X144532560Y-89216600D01*
X144819458Y-89159532D01*
X145089711Y-89047590D01*
X145332932Y-88885075D01*
X145464787Y-88753220D01*
X145486798Y-88825780D01*
X145545763Y-88936094D01*
X145625115Y-89032785D01*
X145721806Y-89112137D01*
X145832120Y-89171102D01*
X145951818Y-89207412D01*
X146076300Y-89219672D01*
X147776300Y-89219672D01*
X147900782Y-89207412D01*
X148020480Y-89171102D01*
X148130794Y-89112137D01*
X148227485Y-89032785D01*
X148306837Y-88936094D01*
X148365802Y-88825780D01*
X148402112Y-88706082D01*
X148414372Y-88581600D01*
X148414372Y-86881600D01*
X148402112Y-86757118D01*
X148365802Y-86637420D01*
X148306837Y-86527106D01*
X148227485Y-86430415D01*
X148130794Y-86351063D01*
X148020480Y-86292098D01*
X147900782Y-86255788D01*
X147776300Y-86243528D01*
X146076300Y-86243528D01*
X146067185Y-86244426D01*
X146262811Y-86048800D01*
X147904238Y-86048800D01*
X147935955Y-86045676D01*
X148018500Y-86053806D01*
X148221395Y-86033823D01*
X148416493Y-85974640D01*
X148596297Y-85878534D01*
X148714407Y-85781603D01*
X150217939Y-84278072D01*
X152200000Y-84278072D01*
X152324482Y-84265812D01*
X152444180Y-84229502D01*
X152554494Y-84170537D01*
X152651185Y-84091185D01*
X152730537Y-83994494D01*
X152789502Y-83884180D01*
X152825812Y-83764482D01*
X152838072Y-83640000D01*
X152838072Y-81340000D01*
X152825812Y-81215518D01*
X152789502Y-81095820D01*
X152730537Y-80985506D01*
X152651185Y-80888815D01*
X152554494Y-80809463D01*
X152444180Y-80750498D01*
X152324482Y-80714188D01*
X152200000Y-80701928D01*
X148700000Y-80701928D01*
X148575518Y-80714188D01*
X148455820Y-80750498D01*
X148345506Y-80809463D01*
X148248815Y-80888815D01*
X148169463Y-80985506D01*
X148110498Y-81095820D01*
X148074188Y-81215518D01*
X148061928Y-81340000D01*
X148061928Y-83506662D01*
X147589790Y-83978800D01*
X147338926Y-83978800D01*
X147389502Y-83884180D01*
X147425812Y-83764482D01*
X147438072Y-83640000D01*
X147438072Y-81340000D01*
X147425812Y-81215518D01*
X147389502Y-81095820D01*
X147330537Y-80985506D01*
X147251185Y-80888815D01*
X147154494Y-80809463D01*
X147044180Y-80750498D01*
X146924482Y-80714188D01*
X146800000Y-80701928D01*
X143300000Y-80701928D01*
X143175518Y-80714188D01*
X143055820Y-80750498D01*
X142945506Y-80809463D01*
X142848815Y-80888815D01*
X142769463Y-80985506D01*
X142710498Y-81095820D01*
X142674188Y-81215518D01*
X142661928Y-81340000D01*
X142661928Y-83640000D01*
X142674188Y-83764482D01*
X142710498Y-83884180D01*
X142769463Y-83994494D01*
X142848815Y-84091185D01*
X142902204Y-84135000D01*
X141633065Y-84135000D01*
X141688137Y-84067894D01*
X141747102Y-83957580D01*
X141783412Y-83837882D01*
X141795672Y-83713400D01*
X141792600Y-82099150D01*
X141633850Y-81940400D01*
X140284600Y-81940400D01*
X140284600Y-81960400D01*
X140030600Y-81960400D01*
X140030600Y-81940400D01*
X138681350Y-81940400D01*
X138522600Y-82099150D01*
X138519528Y-83713400D01*
X138531788Y-83837882D01*
X138568098Y-83957580D01*
X138627063Y-84067894D01*
X138682135Y-84135000D01*
X136592911Y-84135000D01*
X135875407Y-83417497D01*
X135842996Y-83378004D01*
X135685397Y-83248666D01*
X135505593Y-83152559D01*
X135452312Y-83136396D01*
X135447102Y-83119220D01*
X135388137Y-83008906D01*
X135350791Y-82963400D01*
X135388137Y-82917894D01*
X135447102Y-82807580D01*
X135483412Y-82687882D01*
X135495672Y-82563400D01*
X135492600Y-82099150D01*
X135333850Y-81940400D01*
X133984600Y-81940400D01*
X133984600Y-81960400D01*
X133730600Y-81960400D01*
X133730600Y-81940400D01*
X132381350Y-81940400D01*
X132222600Y-82099150D01*
X132219528Y-82563400D01*
X130642932Y-82563400D01*
X130642000Y-82073750D01*
X130483250Y-81915000D01*
X129134000Y-81915000D01*
X128880000Y-81915000D01*
X128860000Y-81915000D01*
X128860000Y-81661000D01*
X128880000Y-81661000D01*
X128880000Y-79411750D01*
X129134000Y-79411750D01*
X129134000Y-81661000D01*
X130483250Y-81661000D01*
X130642000Y-81502250D01*
X130645072Y-79888000D01*
X130632812Y-79763518D01*
X130596502Y-79643820D01*
X130537537Y-79533506D01*
X130458185Y-79436815D01*
X130361494Y-79357463D01*
X130251180Y-79298498D01*
X130131482Y-79262188D01*
X130007000Y-79249928D01*
X129292750Y-79253000D01*
X129134000Y-79411750D01*
X128880000Y-79411750D01*
X128721250Y-79253000D01*
X128007000Y-79249928D01*
X127882518Y-79262188D01*
X127762820Y-79298498D01*
X127652506Y-79357463D01*
X127555815Y-79436815D01*
X127476463Y-79533506D01*
X127417498Y-79643820D01*
X127381188Y-79763518D01*
X127379000Y-79785734D01*
X127379000Y-76871800D01*
X128756528Y-76871800D01*
X128768788Y-76996282D01*
X128805098Y-77115980D01*
X128864063Y-77226294D01*
X128943415Y-77322985D01*
X129040106Y-77402337D01*
X129150420Y-77461302D01*
X129270118Y-77497612D01*
X129394600Y-77509872D01*
X129733850Y-77506800D01*
X129892600Y-77348050D01*
X129892600Y-76123800D01*
X130146600Y-76123800D01*
X130146600Y-77348050D01*
X130305350Y-77506800D01*
X130644600Y-77509872D01*
X130769082Y-77497612D01*
X130888780Y-77461302D01*
X130999094Y-77402337D01*
X131095785Y-77322985D01*
X131175137Y-77226294D01*
X131234102Y-77115980D01*
X131270412Y-76996282D01*
X131282672Y-76871800D01*
X131279600Y-76282550D01*
X131120850Y-76123800D01*
X130146600Y-76123800D01*
X129892600Y-76123800D01*
X128918350Y-76123800D01*
X128759600Y-76282550D01*
X128756528Y-76871800D01*
X127379000Y-76871800D01*
X127379000Y-75067001D01*
X127924402Y-74521600D01*
X129185687Y-74521600D01*
X129150420Y-74532298D01*
X129040106Y-74591263D01*
X128943415Y-74670615D01*
X128864063Y-74767306D01*
X128805098Y-74877620D01*
X128768788Y-74997318D01*
X128756528Y-75121800D01*
X128759600Y-75711050D01*
X128918350Y-75869800D01*
X129892600Y-75869800D01*
X129892600Y-75849800D01*
X130146600Y-75849800D01*
X130146600Y-75869800D01*
X131120850Y-75869800D01*
X131279600Y-75711050D01*
X131282672Y-75121800D01*
X131270412Y-74997318D01*
X131234102Y-74877620D01*
X131175137Y-74767306D01*
X131095785Y-74670615D01*
X130999094Y-74591263D01*
X130888780Y-74532298D01*
X130853513Y-74521600D01*
X131144599Y-74521600D01*
X131634864Y-75011865D01*
X131624128Y-75031950D01*
X131573592Y-75198546D01*
X131556528Y-75371800D01*
X131556528Y-76621800D01*
X131573592Y-76795054D01*
X131624128Y-76961650D01*
X131706195Y-77115186D01*
X131816638Y-77249762D01*
X131951214Y-77360205D01*
X132104750Y-77442272D01*
X132271346Y-77492808D01*
X132444600Y-77509872D01*
X133097601Y-77509872D01*
X133097600Y-78125328D01*
X132857600Y-78125328D01*
X132733118Y-78137588D01*
X132613420Y-78173898D01*
X132503106Y-78232863D01*
X132406415Y-78312215D01*
X132327063Y-78408906D01*
X132268098Y-78519220D01*
X132231788Y-78638918D01*
X132219528Y-78763400D01*
X132219528Y-80263400D01*
X132231788Y-80387882D01*
X132268098Y-80507580D01*
X132327063Y-80617894D01*
X132364409Y-80663400D01*
X132327063Y-80708906D01*
X132268098Y-80819220D01*
X132231788Y-80938918D01*
X132219528Y-81063400D01*
X132222600Y-81527650D01*
X132381350Y-81686400D01*
X133730600Y-81686400D01*
X133730600Y-81666400D01*
X133984600Y-81666400D01*
X133984600Y-81686400D01*
X135333850Y-81686400D01*
X135492600Y-81527650D01*
X135495672Y-81063400D01*
X135483412Y-80938918D01*
X135447102Y-80819220D01*
X135388137Y-80708906D01*
X135350791Y-80663400D01*
X135388137Y-80617894D01*
X135447102Y-80507580D01*
X135483412Y-80387882D01*
X135495672Y-80263400D01*
X135495672Y-79913400D01*
X138519528Y-79913400D01*
X138522600Y-81527650D01*
X138681350Y-81686400D01*
X140030600Y-81686400D01*
X140030600Y-79437150D01*
X140284600Y-79437150D01*
X140284600Y-81686400D01*
X141633850Y-81686400D01*
X141792600Y-81527650D01*
X141795672Y-79913400D01*
X141783412Y-79788918D01*
X141747102Y-79669220D01*
X141688137Y-79558906D01*
X141608785Y-79462215D01*
X141512094Y-79382863D01*
X141401780Y-79323898D01*
X141282082Y-79287588D01*
X141157600Y-79275328D01*
X140443350Y-79278400D01*
X140284600Y-79437150D01*
X140030600Y-79437150D01*
X139871850Y-79278400D01*
X139157600Y-79275328D01*
X139033118Y-79287588D01*
X138913420Y-79323898D01*
X138803106Y-79382863D01*
X138706415Y-79462215D01*
X138627063Y-79558906D01*
X138568098Y-79669220D01*
X138531788Y-79788918D01*
X138519528Y-79913400D01*
X135495672Y-79913400D01*
X135495672Y-78763400D01*
X135483412Y-78638918D01*
X135447102Y-78519220D01*
X135388137Y-78408906D01*
X135308785Y-78312215D01*
X135212094Y-78232863D01*
X135101780Y-78173898D01*
X134982082Y-78137588D01*
X134857600Y-78125328D01*
X134617600Y-78125328D01*
X134617600Y-76985101D01*
X135531703Y-76071000D01*
X136732489Y-76071000D01*
X136776426Y-76114937D01*
X136945944Y-76228205D01*
X137134302Y-76306226D01*
X137334261Y-76346000D01*
X137538139Y-76346000D01*
X137738098Y-76306226D01*
X137926456Y-76228205D01*
X138095974Y-76114937D01*
X138240137Y-75970774D01*
X138353405Y-75801256D01*
X138431426Y-75612898D01*
X138471200Y-75412939D01*
X138471200Y-75209061D01*
X138431426Y-75009102D01*
X138353405Y-74820744D01*
X138240137Y-74651226D01*
X138095974Y-74507063D01*
X137926456Y-74393795D01*
X137738098Y-74315774D01*
X137538139Y-74276000D01*
X137334261Y-74276000D01*
X137134302Y-74315774D01*
X136945944Y-74393795D01*
X136776426Y-74507063D01*
X136732489Y-74551000D01*
X135254222Y-74551000D01*
X135216899Y-74547324D01*
X135179576Y-74551000D01*
X135179567Y-74551000D01*
X135067914Y-74561997D01*
X134924653Y-74605454D01*
X134792624Y-74676026D01*
X134792622Y-74676027D01*
X134792623Y-74676027D01*
X134705896Y-74747201D01*
X134705892Y-74747205D01*
X134676899Y-74770999D01*
X134653105Y-74799992D01*
X134082549Y-75370549D01*
X134065608Y-75198546D01*
X134015072Y-75031950D01*
X133933005Y-74878414D01*
X133822562Y-74743838D01*
X133687986Y-74633395D01*
X133534450Y-74551328D01*
X133367854Y-74500792D01*
X133263074Y-74490472D01*
X132023204Y-73250603D01*
X131999401Y-73221599D01*
X131883676Y-73126626D01*
X131751647Y-73056054D01*
X131608386Y-73012597D01*
X131496733Y-73001600D01*
X131496722Y-73001600D01*
X131459400Y-72997924D01*
X131422078Y-73001600D01*
X130331147Y-73001600D01*
X130372102Y-72924980D01*
X130408412Y-72805282D01*
X130420672Y-72680800D01*
X130417600Y-72091550D01*
X130258850Y-71932800D01*
X129197100Y-71932800D01*
X129197100Y-71952800D01*
X128943100Y-71952800D01*
X128943100Y-71932800D01*
X127881350Y-71932800D01*
X127722600Y-72091550D01*
X127719528Y-72680800D01*
X127731788Y-72805282D01*
X127768098Y-72924980D01*
X127809053Y-73001600D01*
X127646923Y-73001600D01*
X127609600Y-72997924D01*
X127572277Y-73001600D01*
X127572267Y-73001600D01*
X127460614Y-73012597D01*
X127317353Y-73056054D01*
X127185323Y-73126626D01*
X127105907Y-73191802D01*
X127069599Y-73221599D01*
X127045801Y-73250597D01*
X126108002Y-74188396D01*
X126078999Y-74212199D01*
X126029428Y-74272602D01*
X125984026Y-74327924D01*
X125936812Y-74416254D01*
X125913454Y-74459954D01*
X125869997Y-74603215D01*
X125859000Y-74714868D01*
X125859000Y-74714878D01*
X125855324Y-74752200D01*
X125859000Y-74789522D01*
X125859001Y-82666997D01*
X125197999Y-83328000D01*
X124344087Y-83328000D01*
X124332812Y-83213518D01*
X124296502Y-83093820D01*
X124237537Y-82983506D01*
X124200191Y-82938000D01*
X124237537Y-82892494D01*
X124296502Y-82782180D01*
X124332812Y-82662482D01*
X124345072Y-82538000D01*
X124342000Y-82073750D01*
X124183250Y-81915000D01*
X122834000Y-81915000D01*
X122834000Y-81935000D01*
X122580000Y-81935000D01*
X122580000Y-81915000D01*
X122560000Y-81915000D01*
X122560000Y-81661000D01*
X122580000Y-81661000D01*
X122580000Y-81641000D01*
X122834000Y-81641000D01*
X122834000Y-81661000D01*
X124183250Y-81661000D01*
X124342000Y-81502250D01*
X124345072Y-81038000D01*
X124332812Y-80913518D01*
X124296502Y-80793820D01*
X124237537Y-80683506D01*
X124200191Y-80638000D01*
X124237537Y-80592494D01*
X124296502Y-80482180D01*
X124332812Y-80362482D01*
X124345072Y-80238000D01*
X124345072Y-78738000D01*
X124332812Y-78613518D01*
X124296502Y-78493820D01*
X124237537Y-78383506D01*
X124158185Y-78286815D01*
X124061494Y-78207463D01*
X123951180Y-78148498D01*
X123831482Y-78112188D01*
X123707000Y-78099928D01*
X123467000Y-78099928D01*
X123467000Y-77886343D01*
X123516205Y-77826386D01*
X123598272Y-77672850D01*
X123648808Y-77506254D01*
X123665872Y-77333000D01*
X123665872Y-76083000D01*
X123648808Y-75909746D01*
X123598272Y-75743150D01*
X123516205Y-75589614D01*
X123458997Y-75519905D01*
X124085209Y-74893694D01*
X124114201Y-74869901D01*
X124137995Y-74840908D01*
X124137999Y-74840904D01*
X124209173Y-74754177D01*
X124209174Y-74754176D01*
X124279746Y-74622147D01*
X124323203Y-74478886D01*
X124334200Y-74367233D01*
X124334200Y-74367224D01*
X124337876Y-74329901D01*
X124334200Y-74292578D01*
X124334200Y-73785000D01*
X125713578Y-73785000D01*
X125750900Y-73788676D01*
X125788222Y-73785000D01*
X125788233Y-73785000D01*
X125899886Y-73774003D01*
X126043147Y-73730546D01*
X126175176Y-73659974D01*
X126290901Y-73565001D01*
X126314704Y-73535997D01*
X126531829Y-73318872D01*
X126557600Y-73318872D01*
X126730854Y-73301808D01*
X126897450Y-73251272D01*
X127050986Y-73169205D01*
X127185562Y-73058762D01*
X127296005Y-72924186D01*
X127378072Y-72770650D01*
X127428608Y-72604054D01*
X127445672Y-72430800D01*
X127445672Y-71180800D01*
X127428608Y-71007546D01*
X127405328Y-70930800D01*
X127719528Y-70930800D01*
X127722600Y-71520050D01*
X127881350Y-71678800D01*
X128943100Y-71678800D01*
X128943100Y-70454550D01*
X129197100Y-70454550D01*
X129197100Y-71678800D01*
X130258850Y-71678800D01*
X130417600Y-71520050D01*
X130420576Y-70949117D01*
X149395000Y-70949117D01*
X149395000Y-71290883D01*
X149461675Y-71626081D01*
X149592463Y-71941831D01*
X149782337Y-72225998D01*
X150024002Y-72467663D01*
X150308169Y-72657537D01*
X150623919Y-72788325D01*
X150959117Y-72855000D01*
X151300883Y-72855000D01*
X151636081Y-72788325D01*
X151951831Y-72657537D01*
X152235998Y-72467663D01*
X152477663Y-72225998D01*
X152667537Y-71941831D01*
X152798325Y-71626081D01*
X152865000Y-71290883D01*
X152865000Y-70949117D01*
X152798325Y-70613919D01*
X152667537Y-70298169D01*
X152477663Y-70014002D01*
X152235998Y-69772337D01*
X151951831Y-69582463D01*
X151636081Y-69451675D01*
X151300883Y-69385000D01*
X150959117Y-69385000D01*
X150623919Y-69451675D01*
X150308169Y-69582463D01*
X150024002Y-69772337D01*
X149782337Y-70014002D01*
X149592463Y-70298169D01*
X149461675Y-70613919D01*
X149395000Y-70949117D01*
X130420576Y-70949117D01*
X130420672Y-70930800D01*
X130408412Y-70806318D01*
X130372102Y-70686620D01*
X130313137Y-70576306D01*
X130233785Y-70479615D01*
X130137094Y-70400263D01*
X130026780Y-70341298D01*
X129907082Y-70304988D01*
X129782600Y-70292728D01*
X129355850Y-70295800D01*
X129197100Y-70454550D01*
X128943100Y-70454550D01*
X128784350Y-70295800D01*
X128357600Y-70292728D01*
X128233118Y-70304988D01*
X128113420Y-70341298D01*
X128003106Y-70400263D01*
X127906415Y-70479615D01*
X127827063Y-70576306D01*
X127768098Y-70686620D01*
X127731788Y-70806318D01*
X127719528Y-70930800D01*
X127405328Y-70930800D01*
X127378072Y-70840950D01*
X127296005Y-70687414D01*
X127185562Y-70552838D01*
X127050986Y-70442395D01*
X126897450Y-70360328D01*
X126730854Y-70309792D01*
X126557600Y-70292728D01*
X125632600Y-70292728D01*
X125459346Y-70309792D01*
X125292750Y-70360328D01*
X125139214Y-70442395D01*
X125004638Y-70552838D01*
X124894195Y-70687414D01*
X124812128Y-70840950D01*
X124761592Y-71007546D01*
X124744528Y-71180800D01*
X124744528Y-72265000D01*
X124308711Y-72265000D01*
X124264774Y-72221063D01*
X124095256Y-72107795D01*
X123906898Y-72029774D01*
X123706939Y-71990000D01*
X123503061Y-71990000D01*
X123303102Y-72029774D01*
X123114744Y-72107795D01*
X122945226Y-72221063D01*
X122801063Y-72365226D01*
X122687795Y-72534744D01*
X122609774Y-72723102D01*
X122570000Y-72923061D01*
X122570000Y-73126939D01*
X122609774Y-73326898D01*
X122687795Y-73515256D01*
X122801063Y-73684774D01*
X122814200Y-73697911D01*
X122814200Y-74015097D01*
X121804298Y-75025001D01*
X121775300Y-75048799D01*
X121751502Y-75077797D01*
X121751501Y-75077798D01*
X121680326Y-75164524D01*
X121650195Y-75220896D01*
X121512950Y-75262528D01*
X121359414Y-75344595D01*
X121224838Y-75455038D01*
X121114395Y-75589614D01*
X121032328Y-75743150D01*
X120981792Y-75909746D01*
X120964728Y-76083000D01*
X120964728Y-77333000D01*
X120981792Y-77506254D01*
X121032328Y-77672850D01*
X121114395Y-77826386D01*
X121224838Y-77960962D01*
X121359414Y-78071405D01*
X121488864Y-78140598D01*
X121462820Y-78148498D01*
X121352506Y-78207463D01*
X121255815Y-78286815D01*
X121176463Y-78383506D01*
X121117498Y-78493820D01*
X121081188Y-78613518D01*
X121068928Y-78738000D01*
X121068928Y-80238000D01*
X121081188Y-80362482D01*
X121086697Y-80380644D01*
X120940256Y-80282795D01*
X120751898Y-80204774D01*
X120551939Y-80165000D01*
X120348061Y-80165000D01*
X120148102Y-80204774D01*
X119959744Y-80282795D01*
X119790226Y-80396063D01*
X119673556Y-80512733D01*
X119575724Y-80565026D01*
X119459999Y-80659999D01*
X119436201Y-80688997D01*
X117060199Y-83065000D01*
X116998061Y-83065000D01*
X116798102Y-83104774D01*
X116609744Y-83182795D01*
X116440226Y-83296063D01*
X116296063Y-83440226D01*
X116182795Y-83609744D01*
X116104774Y-83798102D01*
X116065000Y-83998061D01*
X116065000Y-84201939D01*
X116104774Y-84401898D01*
X116182795Y-84590256D01*
X116296063Y-84759774D01*
X116340001Y-84803712D01*
X116340001Y-84836440D01*
X116181939Y-84805000D01*
X116119802Y-84805000D01*
X109383100Y-78068299D01*
X109383100Y-77583000D01*
X117989728Y-77583000D01*
X118001988Y-77707482D01*
X118038298Y-77827180D01*
X118097263Y-77937494D01*
X118176615Y-78034185D01*
X118273306Y-78113537D01*
X118383620Y-78172502D01*
X118503318Y-78208812D01*
X118627800Y-78221072D01*
X119054550Y-78218000D01*
X119213300Y-78059250D01*
X119213300Y-76835000D01*
X119467300Y-76835000D01*
X119467300Y-78059250D01*
X119626050Y-78218000D01*
X120052800Y-78221072D01*
X120177282Y-78208812D01*
X120296980Y-78172502D01*
X120407294Y-78113537D01*
X120503985Y-78034185D01*
X120583337Y-77937494D01*
X120642302Y-77827180D01*
X120678612Y-77707482D01*
X120690872Y-77583000D01*
X120687800Y-76993750D01*
X120529050Y-76835000D01*
X119467300Y-76835000D01*
X119213300Y-76835000D01*
X118151550Y-76835000D01*
X117992800Y-76993750D01*
X117989728Y-77583000D01*
X109383100Y-77583000D01*
X109383100Y-75833000D01*
X117989728Y-75833000D01*
X117992800Y-76422250D01*
X118151550Y-76581000D01*
X119213300Y-76581000D01*
X119213300Y-75356750D01*
X119467300Y-75356750D01*
X119467300Y-76581000D01*
X120529050Y-76581000D01*
X120687800Y-76422250D01*
X120690872Y-75833000D01*
X120678612Y-75708518D01*
X120642302Y-75588820D01*
X120583337Y-75478506D01*
X120503985Y-75381815D01*
X120407294Y-75302463D01*
X120296980Y-75243498D01*
X120177282Y-75207188D01*
X120052800Y-75194928D01*
X119626050Y-75198000D01*
X119467300Y-75356750D01*
X119213300Y-75356750D01*
X119054550Y-75198000D01*
X118627800Y-75194928D01*
X118503318Y-75207188D01*
X118383620Y-75243498D01*
X118273306Y-75302463D01*
X118176615Y-75381815D01*
X118097263Y-75478506D01*
X118038298Y-75588820D01*
X118001988Y-75708518D01*
X117989728Y-75833000D01*
X109383100Y-75833000D01*
X109383100Y-73620611D01*
X109443937Y-73559774D01*
X109557205Y-73390256D01*
X109635226Y-73201898D01*
X109675000Y-73001939D01*
X109675000Y-72798061D01*
X109635226Y-72598102D01*
X109557205Y-72409744D01*
X109443937Y-72240226D01*
X109299774Y-72096063D01*
X109130256Y-71982795D01*
X108941898Y-71904774D01*
X108741939Y-71865000D01*
X108538061Y-71865000D01*
X108338102Y-71904774D01*
X108149744Y-71982795D01*
X107980226Y-72096063D01*
X107836063Y-72240226D01*
X107722795Y-72409744D01*
X107644774Y-72598102D01*
X107605000Y-72798061D01*
X107605000Y-73001939D01*
X107644774Y-73201898D01*
X107722795Y-73390256D01*
X107836063Y-73559774D01*
X107863100Y-73586811D01*
X107863101Y-78345768D01*
X107859424Y-78383100D01*
X107874098Y-78532085D01*
X107917554Y-78675346D01*
X107988126Y-78807376D01*
X108058993Y-78893727D01*
X108083100Y-78923101D01*
X108112098Y-78946899D01*
X108429917Y-79264718D01*
X108277092Y-79234319D01*
X108004270Y-79234319D01*
X107736692Y-79287544D01*
X107484638Y-79391948D01*
X107257795Y-79543520D01*
X107064882Y-79736433D01*
X106913310Y-79963276D01*
X106808906Y-80215330D01*
X106755681Y-80482908D01*
X97442365Y-80482908D01*
X97418814Y-80364510D01*
X97313505Y-80110273D01*
X97160620Y-79881465D01*
X96966035Y-79686880D01*
X96737227Y-79533995D01*
X96659985Y-79502000D01*
X96737227Y-79470005D01*
X96966035Y-79317120D01*
X97160620Y-79122535D01*
X97313505Y-78893727D01*
X97418814Y-78639490D01*
X97472500Y-78369592D01*
X97472500Y-78094408D01*
X97441872Y-77940430D01*
X99063067Y-76319235D01*
X104369117Y-76319235D01*
X104406450Y-76322912D01*
X104555436Y-76308238D01*
X104698697Y-76264781D01*
X104830726Y-76194209D01*
X104946451Y-76099236D01*
X105041424Y-75983511D01*
X105111996Y-75851482D01*
X105155437Y-75708274D01*
X105210387Y-75653324D01*
X105323655Y-75483806D01*
X105401676Y-75295448D01*
X105441450Y-75095489D01*
X105441450Y-74891611D01*
X105401676Y-74691652D01*
X105323655Y-74503294D01*
X105210387Y-74333776D01*
X105066224Y-74189613D01*
X104896706Y-74076345D01*
X104708348Y-73998324D01*
X104508389Y-73958550D01*
X104304511Y-73958550D01*
X104104552Y-73998324D01*
X103916194Y-74076345D01*
X103746676Y-74189613D01*
X103602513Y-74333776D01*
X103489245Y-74503294D01*
X103411224Y-74691652D01*
X103389825Y-74799235D01*
X98785598Y-74799235D01*
X98748265Y-74795558D01*
X98710932Y-74799235D01*
X98599279Y-74810232D01*
X98456018Y-74853689D01*
X98323989Y-74924261D01*
X98208264Y-75019234D01*
X98184466Y-75048232D01*
X97472500Y-75760198D01*
X97472500Y-75554408D01*
X97418814Y-75284510D01*
X97313505Y-75030273D01*
X97160620Y-74801465D01*
X96966035Y-74606880D01*
X96737227Y-74453995D01*
X96482990Y-74348686D01*
X96213092Y-74295000D01*
X95937908Y-74295000D01*
X95668010Y-74348686D01*
X95413773Y-74453995D01*
X95184965Y-74606880D01*
X94990380Y-74801465D01*
X94931580Y-74889465D01*
X94923312Y-74805518D01*
X94887002Y-74685820D01*
X94828037Y-74575506D01*
X94748685Y-74478815D01*
X94651994Y-74399463D01*
X94541680Y-74340498D01*
X94421982Y-74304188D01*
X94297500Y-74291928D01*
X93821250Y-74295000D01*
X93662500Y-74453750D01*
X93662500Y-75565000D01*
X93682500Y-75565000D01*
X93682500Y-75819000D01*
X93662500Y-75819000D01*
X93662500Y-75839000D01*
X93408500Y-75839000D01*
X93408500Y-75819000D01*
X93388500Y-75819000D01*
X93388500Y-75565000D01*
X93408500Y-75565000D01*
X93408500Y-74453750D01*
X93249750Y-74295000D01*
X92773500Y-74291928D01*
X92649018Y-74304188D01*
X92529320Y-74340498D01*
X92442500Y-74386905D01*
X92442500Y-70898317D01*
X92549800Y-70898317D01*
X92549800Y-71240083D01*
X92616475Y-71575281D01*
X92747263Y-71891031D01*
X92937137Y-72175198D01*
X93178802Y-72416863D01*
X93462969Y-72606737D01*
X93778719Y-72737525D01*
X94113917Y-72804200D01*
X94455683Y-72804200D01*
X94790881Y-72737525D01*
X95106631Y-72606737D01*
X95390798Y-72416863D01*
X95632463Y-72175198D01*
X95822337Y-71891031D01*
X95953125Y-71575281D01*
X96019800Y-71240083D01*
X96019800Y-70898317D01*
X95953125Y-70563119D01*
X95822337Y-70247369D01*
X95632463Y-69963202D01*
X95390798Y-69721537D01*
X95106631Y-69531663D01*
X94790881Y-69400875D01*
X94455683Y-69334200D01*
X94113917Y-69334200D01*
X93778719Y-69400875D01*
X93462969Y-69531663D01*
X93178802Y-69721537D01*
X92937137Y-69963202D01*
X92747263Y-70247369D01*
X92616475Y-70563119D01*
X92549800Y-70898317D01*
X92442500Y-70898317D01*
X92442500Y-69201500D01*
X152971603Y-69201500D01*
X152909498Y-130201060D01*
G37*
X152909498Y-130201060D02*
X92442500Y-130188654D01*
X92442500Y-128099117D01*
X92499000Y-128099117D01*
X92499000Y-128440883D01*
X92565675Y-128776081D01*
X92696463Y-129091831D01*
X92886337Y-129375998D01*
X93128002Y-129617663D01*
X93412169Y-129807537D01*
X93727919Y-129938325D01*
X94063117Y-130005000D01*
X94404883Y-130005000D01*
X94740081Y-129938325D01*
X95055831Y-129807537D01*
X95339998Y-129617663D01*
X95581663Y-129375998D01*
X95771537Y-129091831D01*
X95902325Y-128776081D01*
X95969000Y-128440883D01*
X95969000Y-128099117D01*
X95902325Y-127763919D01*
X95805005Y-127528967D01*
X108855000Y-127528967D01*
X108855000Y-127851033D01*
X108917832Y-128166912D01*
X109041082Y-128464463D01*
X109220013Y-128732252D01*
X109447748Y-128959987D01*
X109715537Y-129138918D01*
X110013088Y-129262168D01*
X110328967Y-129325000D01*
X110651033Y-129325000D01*
X110966912Y-129262168D01*
X111264463Y-129138918D01*
X111532252Y-128959987D01*
X111759987Y-128732252D01*
X111938918Y-128464463D01*
X112062168Y-128166912D01*
X112125000Y-127851033D01*
X112125000Y-127528967D01*
X115355000Y-127528967D01*
X115355000Y-127851033D01*
X115417832Y-128166912D01*
X115541082Y-128464463D01*
X115720013Y-128732252D01*
X115947748Y-128959987D01*
X116215537Y-129138918D01*
X116513088Y-129262168D01*
X116828967Y-129325000D01*
X117151033Y-129325000D01*
X117466912Y-129262168D01*
X117764463Y-129138918D01*
X118032252Y-128959987D01*
X118259987Y-128732252D01*
X118438918Y-128464463D01*
X118548165Y-128200717D01*
X149344200Y-128200717D01*
X149344200Y-128542483D01*
X149410875Y-128877681D01*
X149541663Y-129193431D01*
X149731537Y-129477598D01*
X149973202Y-129719263D01*
X150257369Y-129909137D01*
X150573119Y-130039925D01*
X150908317Y-130106600D01*
X151250083Y-130106600D01*
X151585281Y-130039925D01*
X151901031Y-129909137D01*
X152185198Y-129719263D01*
X152426863Y-129477598D01*
X152616737Y-129193431D01*
X152747525Y-128877681D01*
X152814200Y-128542483D01*
X152814200Y-128200717D01*
X152747525Y-127865519D01*
X152616737Y-127549769D01*
X152426863Y-127265602D01*
X152185198Y-127023937D01*
X151901031Y-126834063D01*
X151585281Y-126703275D01*
X151250083Y-126636600D01*
X150908317Y-126636600D01*
X150573119Y-126703275D01*
X150257369Y-126834063D01*
X149973202Y-127023937D01*
X149731537Y-127265602D01*
X149541663Y-127549769D01*
X149410875Y-127865519D01*
X149344200Y-128200717D01*
X118548165Y-128200717D01*
X118562168Y-128166912D01*
X118625000Y-127851033D01*
X118625000Y-127528967D01*
X118562168Y-127213088D01*
X118438918Y-126915537D01*
X118259987Y-126647748D01*
X118032252Y-126420013D01*
X117764463Y-126241082D01*
X117466912Y-126117832D01*
X117151033Y-126055000D01*
X116828967Y-126055000D01*
X116513088Y-126117832D01*
X116215537Y-126241082D01*
X115947748Y-126420013D01*
X115720013Y-126647748D01*
X115541082Y-126915537D01*
X115417832Y-127213088D01*
X115355000Y-127528967D01*
X112125000Y-127528967D01*
X112062168Y-127213088D01*
X111938918Y-126915537D01*
X111759987Y-126647748D01*
X111532252Y-126420013D01*
X111264463Y-126241082D01*
X110966912Y-126117832D01*
X110651033Y-126055000D01*
X110328967Y-126055000D01*
X110013088Y-126117832D01*
X109715537Y-126241082D01*
X109447748Y-126420013D01*
X109220013Y-126647748D01*
X109041082Y-126915537D01*
X108917832Y-127213088D01*
X108855000Y-127528967D01*
X95805005Y-127528967D01*
X95771537Y-127448169D01*
X95581663Y-127164002D01*
X95339998Y-126922337D01*
X95055831Y-126732463D01*
X94740081Y-126601675D01*
X94404883Y-126535000D01*
X94063117Y-126535000D01*
X93727919Y-126601675D01*
X93412169Y-126732463D01*
X93128002Y-126922337D01*
X92886337Y-127164002D01*
X92696463Y-127448169D01*
X92565675Y-127763919D01*
X92499000Y-128099117D01*
X92442500Y-128099117D01*
X92442500Y-124325413D01*
X109534192Y-124325413D01*
X109629956Y-124589814D01*
X109919571Y-124730704D01*
X110231108Y-124812384D01*
X110552595Y-124831718D01*
X110871675Y-124787961D01*
X111176088Y-124682795D01*
X111350044Y-124589814D01*
X111445808Y-124325413D01*
X116034192Y-124325413D01*
X116129956Y-124589814D01*
X116419571Y-124730704D01*
X116731108Y-124812384D01*
X117052595Y-124831718D01*
X117371675Y-124787961D01*
X117676088Y-124682795D01*
X117850044Y-124589814D01*
X117945808Y-124325413D01*
X116990000Y-123369605D01*
X116034192Y-124325413D01*
X111445808Y-124325413D01*
X110490000Y-123369605D01*
X109534192Y-124325413D01*
X92442500Y-124325413D01*
X92442500Y-123252595D01*
X108848282Y-123252595D01*
X108892039Y-123571675D01*
X108997205Y-123876088D01*
X109090186Y-124050044D01*
X109354587Y-124145808D01*
X110310395Y-123190000D01*
X110669605Y-123190000D01*
X111625413Y-124145808D01*
X111889814Y-124050044D01*
X112030704Y-123760429D01*
X112112384Y-123448892D01*
X112124189Y-123252595D01*
X115348282Y-123252595D01*
X115392039Y-123571675D01*
X115497205Y-123876088D01*
X115590186Y-124050044D01*
X115854587Y-124145808D01*
X116810395Y-123190000D01*
X117169605Y-123190000D01*
X118125413Y-124145808D01*
X118389814Y-124050044D01*
X118530704Y-123760429D01*
X118612384Y-123448892D01*
X118631718Y-123127405D01*
X118587961Y-122808325D01*
X118482795Y-122503912D01*
X118389814Y-122329956D01*
X118125413Y-122234192D01*
X117169605Y-123190000D01*
X116810395Y-123190000D01*
X115854587Y-122234192D01*
X115590186Y-122329956D01*
X115449296Y-122619571D01*
X115367616Y-122931108D01*
X115348282Y-123252595D01*
X112124189Y-123252595D01*
X112131718Y-123127405D01*
X112087961Y-122808325D01*
X111982795Y-122503912D01*
X111889814Y-122329956D01*
X111625413Y-122234192D01*
X110669605Y-123190000D01*
X110310395Y-123190000D01*
X109354587Y-122234192D01*
X109090186Y-122329956D01*
X108949296Y-122619571D01*
X108867616Y-122931108D01*
X108848282Y-123252595D01*
X92442500Y-123252595D01*
X92442500Y-122054587D01*
X109534192Y-122054587D01*
X110490000Y-123010395D01*
X111445808Y-122054587D01*
X116034192Y-122054587D01*
X116990000Y-123010395D01*
X117945808Y-122054587D01*
X117850044Y-121790186D01*
X117560429Y-121649296D01*
X117248892Y-121567616D01*
X116927405Y-121548282D01*
X116608325Y-121592039D01*
X116303912Y-121697205D01*
X116129956Y-121790186D01*
X116034192Y-122054587D01*
X111445808Y-122054587D01*
X111350044Y-121790186D01*
X111060429Y-121649296D01*
X110748892Y-121567616D01*
X110427405Y-121548282D01*
X110108325Y-121592039D01*
X109803912Y-121697205D01*
X109629956Y-121790186D01*
X109534192Y-122054587D01*
X92442500Y-122054587D01*
X92442500Y-117210742D01*
X92450380Y-117222535D01*
X92644965Y-117417120D01*
X92873773Y-117570005D01*
X93128010Y-117675314D01*
X93397908Y-117729000D01*
X93673092Y-117729000D01*
X93827070Y-117698372D01*
X94140101Y-118011403D01*
X94163899Y-118040401D01*
X94192897Y-118064199D01*
X94279623Y-118135374D01*
X94388827Y-118193745D01*
X94411653Y-118205946D01*
X94554914Y-118249403D01*
X94666567Y-118260400D01*
X94666576Y-118260400D01*
X94703899Y-118264076D01*
X94741222Y-118260400D01*
X101251889Y-118260400D01*
X101295826Y-118304337D01*
X101465344Y-118417605D01*
X101653702Y-118495626D01*
X101853661Y-118535400D01*
X102057539Y-118535400D01*
X102257498Y-118495626D01*
X102445856Y-118417605D01*
X102615374Y-118304337D01*
X102759537Y-118160174D01*
X102872805Y-117990656D01*
X102950826Y-117802298D01*
X102990600Y-117602339D01*
X102990600Y-117398461D01*
X102950826Y-117198502D01*
X102872805Y-117010144D01*
X102759537Y-116840626D01*
X102615374Y-116696463D01*
X102445856Y-116583195D01*
X102257498Y-116505174D01*
X102057539Y-116465400D01*
X101853661Y-116465400D01*
X101653702Y-116505174D01*
X101465344Y-116583195D01*
X101295826Y-116696463D01*
X101251889Y-116740400D01*
X99091401Y-116740400D01*
X100742302Y-115089500D01*
X105815289Y-115089500D01*
X105859226Y-115133437D01*
X106028744Y-115246705D01*
X106217102Y-115324726D01*
X106417061Y-115364500D01*
X106620939Y-115364500D01*
X106820898Y-115324726D01*
X106986801Y-115256006D01*
X106986800Y-118204789D01*
X106942863Y-118248726D01*
X106829595Y-118418244D01*
X106751574Y-118606602D01*
X106711800Y-118806561D01*
X106711800Y-119010439D01*
X106751574Y-119210398D01*
X106829595Y-119398756D01*
X106942863Y-119568274D01*
X107087026Y-119712437D01*
X107256544Y-119825705D01*
X107444902Y-119903726D01*
X107644861Y-119943500D01*
X107848739Y-119943500D01*
X108048698Y-119903726D01*
X108237056Y-119825705D01*
X108257866Y-119811800D01*
X119162424Y-119811800D01*
X119166100Y-119849123D01*
X119166101Y-122670068D01*
X119162424Y-122707400D01*
X119177098Y-122856385D01*
X119220554Y-122999646D01*
X119291126Y-123131676D01*
X119338992Y-123190000D01*
X119386100Y-123247401D01*
X119415098Y-123271199D01*
X120211900Y-124068002D01*
X120211900Y-124130139D01*
X120251674Y-124330098D01*
X120329695Y-124518456D01*
X120442963Y-124687974D01*
X120587126Y-124832137D01*
X120664701Y-124883971D01*
X120664700Y-126004189D01*
X120620763Y-126048126D01*
X120507495Y-126217644D01*
X120429474Y-126406002D01*
X120389700Y-126605961D01*
X120389700Y-126809839D01*
X120429474Y-127009798D01*
X120507495Y-127198156D01*
X120620763Y-127367674D01*
X120764926Y-127511837D01*
X120934444Y-127625105D01*
X121122802Y-127703126D01*
X121322761Y-127742900D01*
X121526639Y-127742900D01*
X121726598Y-127703126D01*
X121914956Y-127625105D01*
X122084474Y-127511837D01*
X122228637Y-127367674D01*
X122341905Y-127198156D01*
X122419926Y-127009798D01*
X122459700Y-126809839D01*
X122459700Y-126605961D01*
X122419926Y-126406002D01*
X122341905Y-126217644D01*
X122228637Y-126048126D01*
X122184700Y-126004189D01*
X122184700Y-124468736D01*
X122242126Y-124330098D01*
X122281900Y-124130139D01*
X122281900Y-123926261D01*
X122242126Y-123726302D01*
X122164105Y-123537944D01*
X122050837Y-123368426D01*
X121906674Y-123224263D01*
X121737156Y-123110995D01*
X121548798Y-123032974D01*
X121348839Y-122993200D01*
X121286702Y-122993200D01*
X120686100Y-122392599D01*
X120686100Y-120126601D01*
X121780473Y-119032229D01*
X121801074Y-119135798D01*
X121879095Y-119324156D01*
X121992363Y-119493674D01*
X122136526Y-119637837D01*
X122306044Y-119751105D01*
X122494402Y-119829126D01*
X122694361Y-119868900D01*
X122898239Y-119868900D01*
X123098198Y-119829126D01*
X123286556Y-119751105D01*
X123446001Y-119644568D01*
X123446001Y-121216288D01*
X123402063Y-121260226D01*
X123288795Y-121429744D01*
X123210774Y-121618102D01*
X123171000Y-121818061D01*
X123171000Y-122021939D01*
X123210774Y-122221898D01*
X123288795Y-122410256D01*
X123402063Y-122579774D01*
X123546226Y-122723937D01*
X123715744Y-122837205D01*
X123904102Y-122915226D01*
X124104061Y-122955000D01*
X124307939Y-122955000D01*
X124507898Y-122915226D01*
X124696256Y-122837205D01*
X124865774Y-122723937D01*
X125009937Y-122579774D01*
X125123205Y-122410256D01*
X125201226Y-122221898D01*
X125211747Y-122169000D01*
X135556728Y-122169000D01*
X135568988Y-122293482D01*
X135605298Y-122413180D01*
X135664263Y-122523494D01*
X135743615Y-122620185D01*
X135840306Y-122699537D01*
X135950620Y-122758502D01*
X136070318Y-122794812D01*
X136194800Y-122807072D01*
X136671050Y-122804000D01*
X136829800Y-122645250D01*
X136829800Y-121534000D01*
X137083800Y-121534000D01*
X137083800Y-122645250D01*
X137242550Y-122804000D01*
X137718800Y-122807072D01*
X137843282Y-122794812D01*
X137962980Y-122758502D01*
X138073294Y-122699537D01*
X138169985Y-122620185D01*
X138249337Y-122523494D01*
X138281485Y-122463349D01*
X141086800Y-122463349D01*
X141086800Y-122900651D01*
X141172113Y-123329550D01*
X141339461Y-123733564D01*
X141582413Y-124097168D01*
X141891632Y-124406387D01*
X142255236Y-124649339D01*
X142659250Y-124816687D01*
X143088149Y-124902000D01*
X143525451Y-124902000D01*
X143954350Y-124816687D01*
X144358364Y-124649339D01*
X144721968Y-124406387D01*
X145031187Y-124097168D01*
X145274139Y-123733564D01*
X145441487Y-123329550D01*
X145526800Y-122900651D01*
X145526800Y-122463349D01*
X145441487Y-122034450D01*
X145274139Y-121630436D01*
X145031187Y-121266832D01*
X144721968Y-120957613D01*
X144358364Y-120714661D01*
X143954350Y-120547313D01*
X143525451Y-120462000D01*
X143088149Y-120462000D01*
X142659250Y-120547313D01*
X142255236Y-120714661D01*
X141891632Y-120957613D01*
X141582413Y-121266832D01*
X141339461Y-121630436D01*
X141172113Y-122034450D01*
X141086800Y-122463349D01*
X138281485Y-122463349D01*
X138308302Y-122413180D01*
X138344612Y-122293482D01*
X138356872Y-122169000D01*
X138353800Y-121692750D01*
X138195050Y-121534000D01*
X137083800Y-121534000D01*
X136829800Y-121534000D01*
X135718550Y-121534000D01*
X135559800Y-121692750D01*
X135556728Y-122169000D01*
X125211747Y-122169000D01*
X125241000Y-122021939D01*
X125241000Y-121818061D01*
X125201226Y-121618102D01*
X125123205Y-121429744D01*
X125009937Y-121260226D01*
X124966000Y-121216289D01*
X124966000Y-113874730D01*
X124969676Y-113837407D01*
X124966000Y-113800084D01*
X124966000Y-113800075D01*
X124955003Y-113688422D01*
X124911546Y-113545161D01*
X124840974Y-113413132D01*
X124813381Y-113379510D01*
X124769799Y-113326404D01*
X124769795Y-113326400D01*
X124746001Y-113297407D01*
X124717009Y-113273614D01*
X124244796Y-112801402D01*
X124244796Y-111529400D01*
X124835696Y-111529400D01*
X124847595Y-111558127D01*
X125000480Y-111786935D01*
X125195065Y-111981520D01*
X125423873Y-112134405D01*
X125678110Y-112239714D01*
X125948008Y-112293400D01*
X126223192Y-112293400D01*
X126493090Y-112239714D01*
X126747327Y-112134405D01*
X126976135Y-111981520D01*
X127170720Y-111786935D01*
X127229520Y-111698935D01*
X127237788Y-111782882D01*
X127274098Y-111902580D01*
X127333063Y-112012894D01*
X127412415Y-112109585D01*
X127509106Y-112188937D01*
X127619420Y-112247902D01*
X127739118Y-112284212D01*
X127863600Y-112296472D01*
X128339850Y-112293400D01*
X128498598Y-112134652D01*
X128498598Y-112209200D01*
X127759003Y-112948796D01*
X127729999Y-112972599D01*
X127706186Y-113001616D01*
X127635026Y-113088324D01*
X127610801Y-113133646D01*
X127564454Y-113220354D01*
X127520997Y-113363615D01*
X127510000Y-113475268D01*
X127510000Y-113475278D01*
X127506324Y-113512600D01*
X127510000Y-113549923D01*
X127510001Y-117635670D01*
X127506324Y-117673002D01*
X127510001Y-117710335D01*
X127520218Y-117814063D01*
X127520998Y-117821987D01*
X127564454Y-117965248D01*
X127635026Y-118097278D01*
X127698094Y-118174126D01*
X127730000Y-118213003D01*
X127758998Y-118236801D01*
X128245999Y-118723803D01*
X128245999Y-118785940D01*
X128285773Y-118985899D01*
X128363794Y-119174257D01*
X128477062Y-119343775D01*
X128621225Y-119487938D01*
X128790743Y-119601206D01*
X128979101Y-119679227D01*
X129179060Y-119719001D01*
X129382938Y-119719001D01*
X129582897Y-119679227D01*
X129771255Y-119601206D01*
X129940773Y-119487938D01*
X129984710Y-119444001D01*
X133199690Y-119444001D01*
X133178795Y-119475273D01*
X133073486Y-119729510D01*
X133019800Y-119999408D01*
X133019800Y-120274592D01*
X133073486Y-120544490D01*
X133178795Y-120798727D01*
X133331680Y-121027535D01*
X133526265Y-121222120D01*
X133755073Y-121375005D01*
X134009310Y-121480314D01*
X134279208Y-121534000D01*
X134554392Y-121534000D01*
X134824290Y-121480314D01*
X135078527Y-121375005D01*
X135307335Y-121222120D01*
X135501920Y-121027535D01*
X135558648Y-120942636D01*
X135559800Y-121121250D01*
X135718550Y-121280000D01*
X136829800Y-121280000D01*
X136829800Y-121260000D01*
X137083800Y-121260000D01*
X137083800Y-121280000D01*
X138195050Y-121280000D01*
X138353800Y-121121250D01*
X138356872Y-120645000D01*
X138344612Y-120520518D01*
X138308302Y-120400820D01*
X138249337Y-120290506D01*
X138169985Y-120193815D01*
X138073294Y-120114463D01*
X137962980Y-120055498D01*
X137843282Y-120019188D01*
X137759335Y-120010920D01*
X137847335Y-119952120D01*
X138041920Y-119757535D01*
X138194805Y-119528727D01*
X138300114Y-119274490D01*
X138353800Y-119004592D01*
X138353800Y-118729408D01*
X138300114Y-118459510D01*
X138194805Y-118205273D01*
X138041920Y-117976465D01*
X137847335Y-117781880D01*
X137618527Y-117628995D01*
X137541285Y-117597000D01*
X137618527Y-117565005D01*
X137847335Y-117412120D01*
X138041920Y-117217535D01*
X138194805Y-116988727D01*
X138300114Y-116734490D01*
X138353800Y-116464592D01*
X138353800Y-116189408D01*
X138300114Y-115919510D01*
X138194805Y-115665273D01*
X138041920Y-115436465D01*
X137847335Y-115241880D01*
X137618527Y-115088995D01*
X137541285Y-115057000D01*
X137618527Y-115025005D01*
X137847335Y-114872120D01*
X138041920Y-114677535D01*
X138194805Y-114448727D01*
X138300114Y-114194490D01*
X138353800Y-113924592D01*
X138353800Y-113649408D01*
X138300114Y-113379510D01*
X138194805Y-113125273D01*
X138041920Y-112896465D01*
X137943213Y-112797758D01*
X138274163Y-112466809D01*
X138300195Y-112529656D01*
X138413463Y-112699174D01*
X138557626Y-112843337D01*
X138727144Y-112956605D01*
X138915502Y-113034626D01*
X139115461Y-113074400D01*
X139319339Y-113074400D01*
X139519298Y-113034626D01*
X139707656Y-112956605D01*
X139877174Y-112843337D01*
X140021337Y-112699174D01*
X140134605Y-112529656D01*
X140212626Y-112341298D01*
X140252400Y-112141339D01*
X140252400Y-112079201D01*
X140991003Y-111340599D01*
X141020001Y-111316801D01*
X141070718Y-111255002D01*
X141114974Y-111201077D01*
X141185546Y-111069047D01*
X141193091Y-111044174D01*
X141219390Y-110957476D01*
X141211260Y-110998349D01*
X141211260Y-111435651D01*
X141296573Y-111864550D01*
X141463921Y-112268564D01*
X141706873Y-112632168D01*
X142016092Y-112941387D01*
X142379696Y-113184339D01*
X142783710Y-113351687D01*
X143212609Y-113437000D01*
X143649911Y-113437000D01*
X144078810Y-113351687D01*
X144482824Y-113184339D01*
X144846428Y-112941387D01*
X145155647Y-112632168D01*
X145398599Y-112268564D01*
X145565947Y-111864550D01*
X145651260Y-111435651D01*
X145651260Y-110998349D01*
X145565947Y-110569450D01*
X145398599Y-110165436D01*
X145155647Y-109801832D01*
X144846428Y-109492613D01*
X144482824Y-109249661D01*
X144078810Y-109082313D01*
X143649911Y-108997000D01*
X143212609Y-108997000D01*
X142783710Y-109082313D01*
X142379696Y-109249661D01*
X142016092Y-109492613D01*
X141706873Y-109801832D01*
X141463921Y-110165436D01*
X141296573Y-110569450D01*
X141232249Y-110892830D01*
X141240000Y-110814133D01*
X141240000Y-110814124D01*
X141243676Y-110776801D01*
X141240000Y-110739478D01*
X141240000Y-104785019D01*
X141275313Y-104962550D01*
X141442661Y-105366564D01*
X141685613Y-105730168D01*
X141994832Y-106039387D01*
X142358436Y-106282339D01*
X142762450Y-106449687D01*
X143191349Y-106535000D01*
X143628651Y-106535000D01*
X144057550Y-106449687D01*
X144461564Y-106282339D01*
X144825168Y-106039387D01*
X145134387Y-105730168D01*
X145377339Y-105366564D01*
X145544687Y-104962550D01*
X145630000Y-104533651D01*
X145630000Y-104096349D01*
X145544687Y-103667450D01*
X145377339Y-103263436D01*
X145134387Y-102899832D01*
X144825168Y-102590613D01*
X144461564Y-102347661D01*
X144057550Y-102180313D01*
X143628651Y-102095000D01*
X143191349Y-102095000D01*
X142762450Y-102180313D01*
X142358436Y-102347661D01*
X141994832Y-102590613D01*
X141685613Y-102899832D01*
X141442661Y-103263436D01*
X141275313Y-103667450D01*
X141240000Y-103844981D01*
X141240000Y-101148665D01*
X141249003Y-101118986D01*
X141260000Y-101007333D01*
X141260000Y-101007323D01*
X141263676Y-100970001D01*
X141260000Y-100932678D01*
X141260000Y-93887333D01*
X141263677Y-93850000D01*
X141249003Y-93701014D01*
X141205546Y-93557753D01*
X141134974Y-93425724D01*
X141040001Y-93309999D01*
X140924276Y-93215026D01*
X140792247Y-93144454D01*
X140648986Y-93100997D01*
X140537333Y-93090000D01*
X140500000Y-93086323D01*
X140462667Y-93090000D01*
X135939952Y-93090000D01*
X135902629Y-93086324D01*
X135865306Y-93090000D01*
X135865297Y-93090000D01*
X135753644Y-93100997D01*
X135610383Y-93144454D01*
X135528746Y-93188091D01*
X135410535Y-93069880D01*
X135181727Y-92916995D01*
X134927490Y-92811686D01*
X134657592Y-92758000D01*
X134382408Y-92758000D01*
X134112510Y-92811686D01*
X133858273Y-92916995D01*
X133629465Y-93069880D01*
X133434880Y-93264465D01*
X133281995Y-93493273D01*
X133176686Y-93747510D01*
X133123000Y-94017408D01*
X133123000Y-94292592D01*
X133176686Y-94562490D01*
X133281995Y-94816727D01*
X133434880Y-95045535D01*
X133629465Y-95240120D01*
X133858273Y-95393005D01*
X133929943Y-95422692D01*
X133916977Y-95427364D01*
X133801020Y-95489344D01*
X133734040Y-95729435D01*
X134520000Y-96515395D01*
X135305960Y-95729435D01*
X135238980Y-95489344D01*
X135103240Y-95425515D01*
X135181727Y-95393005D01*
X135410535Y-95240120D01*
X135605120Y-95045535D01*
X135696383Y-94908951D01*
X135746616Y-94904003D01*
X135763789Y-94898794D01*
X135716686Y-95012510D01*
X135663000Y-95282408D01*
X135663000Y-95557592D01*
X135716686Y-95827490D01*
X135821995Y-96081727D01*
X135974880Y-96310535D01*
X136169465Y-96505120D01*
X136398273Y-96658005D01*
X136475515Y-96690000D01*
X136398273Y-96721995D01*
X136169465Y-96874880D01*
X135974880Y-97069465D01*
X135887659Y-97200000D01*
X135826275Y-97200000D01*
X135842756Y-97164952D01*
X135909023Y-96897865D01*
X135921910Y-96622983D01*
X135880922Y-96350867D01*
X135787636Y-96091977D01*
X135725656Y-95976020D01*
X135485565Y-95909040D01*
X134699605Y-96695000D01*
X134713748Y-96709143D01*
X134534143Y-96888748D01*
X134520000Y-96874605D01*
X134505858Y-96888748D01*
X134326253Y-96709143D01*
X134340395Y-96695000D01*
X133554435Y-95909040D01*
X133314344Y-95976020D01*
X133197244Y-96225048D01*
X133130977Y-96492135D01*
X133118090Y-96767017D01*
X133159078Y-97039133D01*
X133252364Y-97298023D01*
X133314344Y-97413980D01*
X133554433Y-97480959D01*
X133438023Y-97597369D01*
X133453545Y-97612891D01*
X131511013Y-99555424D01*
X131482009Y-99579227D01*
X131457194Y-99609465D01*
X131387036Y-99694952D01*
X131342259Y-99778724D01*
X131316464Y-99826982D01*
X131273007Y-99970243D01*
X131262010Y-100081896D01*
X131262010Y-100081906D01*
X131258334Y-100119228D01*
X131262010Y-100156550D01*
X131262011Y-109445786D01*
X129938400Y-110769398D01*
X129863852Y-110769398D01*
X130022600Y-110610650D01*
X130025672Y-110134400D01*
X130013412Y-110009918D01*
X129977102Y-109890220D01*
X129918137Y-109779906D01*
X129838785Y-109683215D01*
X129742094Y-109603863D01*
X129631780Y-109544898D01*
X129512082Y-109508588D01*
X129428135Y-109500320D01*
X129516135Y-109441520D01*
X129710720Y-109246935D01*
X129863605Y-109018127D01*
X129968914Y-108763890D01*
X130022600Y-108493992D01*
X130022600Y-108218808D01*
X129968914Y-107948910D01*
X129863605Y-107694673D01*
X129710720Y-107465865D01*
X129516135Y-107271280D01*
X129287327Y-107118395D01*
X129210085Y-107086400D01*
X129287327Y-107054405D01*
X129516135Y-106901520D01*
X129710720Y-106706935D01*
X129863605Y-106478127D01*
X129968914Y-106223890D01*
X130022600Y-105953992D01*
X130022600Y-105678808D01*
X129968914Y-105408910D01*
X129863605Y-105154673D01*
X129710720Y-104925865D01*
X129516135Y-104731280D01*
X129287327Y-104578395D01*
X129033090Y-104473086D01*
X128763192Y-104419400D01*
X128488008Y-104419400D01*
X128218110Y-104473086D01*
X127963873Y-104578395D01*
X127735065Y-104731280D01*
X127540480Y-104925865D01*
X127387595Y-105154673D01*
X127355600Y-105231915D01*
X127323605Y-105154673D01*
X127170720Y-104925865D01*
X126976135Y-104731280D01*
X126896400Y-104678003D01*
X126896400Y-101583722D01*
X126900076Y-101546399D01*
X126896400Y-101509076D01*
X126896400Y-101509067D01*
X126885403Y-101397414D01*
X126841946Y-101254153D01*
X126771374Y-101122124D01*
X126752616Y-101099267D01*
X126700199Y-101035396D01*
X126700195Y-101035392D01*
X126676401Y-101006399D01*
X126647409Y-100982606D01*
X122635000Y-96970199D01*
X122635000Y-96908061D01*
X122595226Y-96708102D01*
X122517205Y-96519744D01*
X122403937Y-96350226D01*
X122259774Y-96206063D01*
X122090256Y-96092795D01*
X121901898Y-96014774D01*
X121701939Y-95975000D01*
X121634999Y-95975000D01*
X121634999Y-95467818D01*
X121655774Y-95453937D01*
X121799937Y-95309774D01*
X121913205Y-95140256D01*
X121991226Y-94951898D01*
X122031000Y-94751939D01*
X122031000Y-94548061D01*
X121991226Y-94348102D01*
X121913205Y-94159744D01*
X121799937Y-93990226D01*
X121655774Y-93846063D01*
X121486256Y-93732795D01*
X121297898Y-93654774D01*
X121097939Y-93615000D01*
X120894061Y-93615000D01*
X120694102Y-93654774D01*
X120505744Y-93732795D01*
X120336226Y-93846063D01*
X120192063Y-93990226D01*
X120078795Y-94159744D01*
X120000774Y-94348102D01*
X119961000Y-94548061D01*
X119961000Y-94751939D01*
X120000774Y-94951898D01*
X120078795Y-95140256D01*
X120115000Y-95194440D01*
X120114999Y-97320678D01*
X120111323Y-97358001D01*
X120114999Y-97395323D01*
X120114999Y-97395333D01*
X120125996Y-97506986D01*
X120153017Y-97596063D01*
X120169453Y-97650247D01*
X120240025Y-97782277D01*
X120259698Y-97806248D01*
X120270183Y-97819023D01*
X120271000Y-97827322D01*
X120271000Y-97827332D01*
X120281997Y-97938985D01*
X120299764Y-97997555D01*
X120325454Y-98082246D01*
X120396026Y-98214276D01*
X120427294Y-98252376D01*
X120490999Y-98330001D01*
X120520003Y-98353804D01*
X121493951Y-99327752D01*
X121387226Y-99399063D01*
X121243063Y-99543226D01*
X121129795Y-99712744D01*
X121051774Y-99901102D01*
X121012000Y-100101061D01*
X121012000Y-100304939D01*
X121051774Y-100504898D01*
X121129795Y-100693256D01*
X121243063Y-100862774D01*
X121387226Y-101006937D01*
X121556744Y-101120205D01*
X121745102Y-101198226D01*
X121945061Y-101238000D01*
X122007199Y-101238000D01*
X122073144Y-101303945D01*
X121955858Y-101421231D01*
X121842590Y-101590749D01*
X121764569Y-101779107D01*
X121724795Y-101979066D01*
X121724795Y-102182944D01*
X121764569Y-102382903D01*
X121842590Y-102571261D01*
X121955858Y-102740779D01*
X122006246Y-102791167D01*
X122030000Y-105393407D01*
X122030000Y-105746600D01*
X121843461Y-105746600D01*
X121643502Y-105786374D01*
X121455144Y-105864395D01*
X121285626Y-105977663D01*
X121141463Y-106121826D01*
X121028195Y-106291344D01*
X120950174Y-106479702D01*
X120910400Y-106679661D01*
X120910400Y-106883539D01*
X120950174Y-107083498D01*
X121028195Y-107271856D01*
X121141463Y-107441374D01*
X121155796Y-107455707D01*
X120787000Y-116056128D01*
X120785401Y-116072367D01*
X120785401Y-116093426D01*
X120784500Y-116114438D01*
X120785401Y-116130710D01*
X120785402Y-117877695D01*
X119415102Y-119247997D01*
X119386099Y-119271799D01*
X119347384Y-119318974D01*
X119291126Y-119387524D01*
X119258533Y-119448501D01*
X119220554Y-119519554D01*
X119177097Y-119662815D01*
X119166100Y-119774468D01*
X119166100Y-119774478D01*
X119162424Y-119811800D01*
X108257866Y-119811800D01*
X108406574Y-119712437D01*
X108550737Y-119568274D01*
X108664005Y-119398756D01*
X108742026Y-119210398D01*
X108781800Y-119010439D01*
X108781800Y-118806561D01*
X108742026Y-118606602D01*
X108664005Y-118418244D01*
X108550737Y-118248726D01*
X108506800Y-118204789D01*
X108506800Y-114770277D01*
X108527295Y-114819756D01*
X108640563Y-114989274D01*
X108684500Y-115033211D01*
X108684501Y-117408168D01*
X108680824Y-117445500D01*
X108695498Y-117594485D01*
X108738954Y-117737746D01*
X108809526Y-117869776D01*
X108863053Y-117934998D01*
X108904500Y-117985501D01*
X108933498Y-118009299D01*
X109582000Y-118657802D01*
X109582000Y-118719939D01*
X109621774Y-118919898D01*
X109699795Y-119108256D01*
X109813063Y-119277774D01*
X109957226Y-119421937D01*
X110126744Y-119535205D01*
X110315102Y-119613226D01*
X110515061Y-119653000D01*
X110718939Y-119653000D01*
X110918898Y-119613226D01*
X111107256Y-119535205D01*
X111276774Y-119421937D01*
X111420937Y-119277774D01*
X111534205Y-119108256D01*
X111612226Y-118919898D01*
X111652000Y-118719939D01*
X111652000Y-118516061D01*
X111612226Y-118316102D01*
X111534205Y-118127744D01*
X111420937Y-117958226D01*
X111276774Y-117814063D01*
X111107256Y-117700795D01*
X110918898Y-117622774D01*
X110718939Y-117583000D01*
X110656802Y-117583000D01*
X110204500Y-117130699D01*
X110204500Y-116434890D01*
X116160524Y-116434890D01*
X116205175Y-116582099D01*
X116330359Y-116844920D01*
X116504412Y-117078269D01*
X116720645Y-117273178D01*
X116970748Y-117422157D01*
X117245109Y-117519481D01*
X117475000Y-117398814D01*
X117475000Y-116205000D01*
X117729000Y-116205000D01*
X117729000Y-117398814D01*
X117958891Y-117519481D01*
X118233252Y-117422157D01*
X118483355Y-117273178D01*
X118699588Y-117078269D01*
X118873641Y-116844920D01*
X118998825Y-116582099D01*
X119043476Y-116434890D01*
X118922155Y-116205000D01*
X117729000Y-116205000D01*
X117475000Y-116205000D01*
X116281845Y-116205000D01*
X116160524Y-116434890D01*
X110204500Y-116434890D01*
X110204500Y-115033211D01*
X110248437Y-114989274D01*
X110361705Y-114819756D01*
X110439726Y-114631398D01*
X110479500Y-114431439D01*
X110479500Y-114227561D01*
X110439726Y-114027602D01*
X110361705Y-113839244D01*
X110248437Y-113669726D01*
X110104274Y-113525563D01*
X109934756Y-113412295D01*
X109875814Y-113387880D01*
X115618484Y-107608000D01*
X116113928Y-107608000D01*
X116113928Y-109308000D01*
X116126188Y-109432482D01*
X116162498Y-109552180D01*
X116221463Y-109662494D01*
X116300815Y-109759185D01*
X116397506Y-109838537D01*
X116507820Y-109897502D01*
X116580380Y-109919513D01*
X116448525Y-110051368D01*
X116286010Y-110294589D01*
X116174068Y-110564842D01*
X116117000Y-110851740D01*
X116117000Y-111144260D01*
X116174068Y-111431158D01*
X116286010Y-111701411D01*
X116448525Y-111944632D01*
X116655368Y-112151475D01*
X116829760Y-112268000D01*
X116655368Y-112384525D01*
X116448525Y-112591368D01*
X116286010Y-112834589D01*
X116174068Y-113104842D01*
X116117000Y-113391740D01*
X116117000Y-113684260D01*
X116174068Y-113971158D01*
X116286010Y-114241411D01*
X116448525Y-114484632D01*
X116655368Y-114691475D01*
X116837534Y-114813195D01*
X116720645Y-114882822D01*
X116504412Y-115077731D01*
X116330359Y-115311080D01*
X116205175Y-115573901D01*
X116160524Y-115721110D01*
X116281845Y-115951000D01*
X117475000Y-115951000D01*
X117475000Y-115931000D01*
X117729000Y-115931000D01*
X117729000Y-115951000D01*
X118922155Y-115951000D01*
X119043476Y-115721110D01*
X118998825Y-115573901D01*
X118873641Y-115311080D01*
X118699588Y-115077731D01*
X118483355Y-114882822D01*
X118366466Y-114813195D01*
X118548632Y-114691475D01*
X118755475Y-114484632D01*
X118917990Y-114241411D01*
X119029932Y-113971158D01*
X119087000Y-113684260D01*
X119087000Y-113391740D01*
X119029932Y-113104842D01*
X118917990Y-112834589D01*
X118755475Y-112591368D01*
X118548632Y-112384525D01*
X118374240Y-112268000D01*
X118548632Y-112151475D01*
X118755475Y-111944632D01*
X118917990Y-111701411D01*
X119029932Y-111431158D01*
X119087000Y-111144260D01*
X119087000Y-110851740D01*
X119029932Y-110564842D01*
X118917990Y-110294589D01*
X118755475Y-110051368D01*
X118623620Y-109919513D01*
X118696180Y-109897502D01*
X118806494Y-109838537D01*
X118903185Y-109759185D01*
X118982537Y-109662494D01*
X119041502Y-109552180D01*
X119077812Y-109432482D01*
X119090072Y-109308000D01*
X119090072Y-107608000D01*
X119077812Y-107483518D01*
X119041502Y-107363820D01*
X118982537Y-107253506D01*
X118903185Y-107156815D01*
X118806494Y-107077463D01*
X118696180Y-107018498D01*
X118576482Y-106982188D01*
X118452000Y-106969928D01*
X116752000Y-106969928D01*
X116627518Y-106982188D01*
X116507820Y-107018498D01*
X116397506Y-107077463D01*
X116300815Y-107156815D01*
X116221463Y-107253506D01*
X116162498Y-107363820D01*
X116126188Y-107483518D01*
X116113928Y-107608000D01*
X115618484Y-107608000D01*
X119550011Y-103651000D01*
X119608939Y-103651000D01*
X119808898Y-103611226D01*
X119997256Y-103533205D01*
X120166774Y-103419937D01*
X120310937Y-103275774D01*
X120424205Y-103106256D01*
X120502226Y-102917898D01*
X120542000Y-102717939D01*
X120542000Y-102514061D01*
X120502226Y-102314102D01*
X120424205Y-102125744D01*
X120310937Y-101956226D01*
X120166774Y-101812063D01*
X119997256Y-101698795D01*
X119808898Y-101620774D01*
X119608939Y-101581000D01*
X119405061Y-101581000D01*
X119205102Y-101620774D01*
X119016744Y-101698795D01*
X118847226Y-101812063D01*
X118703063Y-101956226D01*
X118589795Y-102125744D01*
X118511774Y-102314102D01*
X118472000Y-102514061D01*
X118472000Y-102579416D01*
X107375270Y-113748048D01*
X107322937Y-113669726D01*
X107178774Y-113525563D01*
X107009256Y-113412295D01*
X106820898Y-113334274D01*
X106620939Y-113294500D01*
X106417061Y-113294500D01*
X106217102Y-113334274D01*
X106028744Y-113412295D01*
X105859226Y-113525563D01*
X105815289Y-113569500D01*
X100666981Y-113569500D01*
X100605986Y-113550998D01*
X100457000Y-113536324D01*
X100308014Y-113550998D01*
X100164753Y-113594454D01*
X100032723Y-113665026D01*
X99949083Y-113733668D01*
X99916999Y-113759999D01*
X99893201Y-113788997D01*
X98110199Y-115572000D01*
X97247841Y-115572000D01*
X97160620Y-115441465D01*
X96966035Y-115246880D01*
X96737227Y-115093995D01*
X96659985Y-115062000D01*
X96737227Y-115030005D01*
X96966035Y-114877120D01*
X97160620Y-114682535D01*
X97313505Y-114453727D01*
X97418814Y-114199490D01*
X97472500Y-113929592D01*
X97472500Y-113654408D01*
X97418814Y-113384510D01*
X97313505Y-113130273D01*
X97160620Y-112901465D01*
X96966035Y-112706880D01*
X96737227Y-112553995D01*
X96659985Y-112522000D01*
X96737227Y-112490005D01*
X96966035Y-112337120D01*
X97160620Y-112142535D01*
X97313505Y-111913727D01*
X97418814Y-111659490D01*
X97472500Y-111389592D01*
X97472500Y-111114408D01*
X97418814Y-110844510D01*
X97313505Y-110590273D01*
X97160620Y-110361465D01*
X96966035Y-110166880D01*
X96737227Y-110013995D01*
X96659985Y-109982000D01*
X96737227Y-109950005D01*
X96966035Y-109797120D01*
X97160620Y-109602535D01*
X97313505Y-109373727D01*
X97418814Y-109119490D01*
X97472500Y-108849592D01*
X97472500Y-108574408D01*
X97418814Y-108304510D01*
X97313505Y-108050273D01*
X97160620Y-107821465D01*
X96966035Y-107626880D01*
X96737227Y-107473995D01*
X96659985Y-107442000D01*
X96737227Y-107410005D01*
X96966035Y-107257120D01*
X97160620Y-107062535D01*
X97313505Y-106833727D01*
X97418814Y-106579490D01*
X97472500Y-106309592D01*
X97472500Y-106034408D01*
X97418814Y-105764510D01*
X97313505Y-105510273D01*
X97160620Y-105281465D01*
X96966035Y-105086880D01*
X96737227Y-104933995D01*
X96659985Y-104902000D01*
X96737227Y-104870005D01*
X96966035Y-104717120D01*
X97160620Y-104522535D01*
X97313505Y-104293727D01*
X97418814Y-104039490D01*
X97472500Y-103769592D01*
X97472500Y-103494408D01*
X97418814Y-103224510D01*
X97313505Y-102970273D01*
X97160620Y-102741465D01*
X96966035Y-102546880D01*
X96737227Y-102393995D01*
X96659985Y-102362000D01*
X96737227Y-102330005D01*
X96966035Y-102177120D01*
X97160620Y-101982535D01*
X97313505Y-101753727D01*
X97418814Y-101499490D01*
X97472500Y-101229592D01*
X97472500Y-100954408D01*
X97418814Y-100684510D01*
X97313505Y-100430273D01*
X97160620Y-100201465D01*
X96966035Y-100006880D01*
X96737227Y-99853995D01*
X96659985Y-99822000D01*
X96737227Y-99790005D01*
X96966035Y-99637120D01*
X97160620Y-99442535D01*
X97313505Y-99213727D01*
X97418814Y-98959490D01*
X97469813Y-98703100D01*
X111119028Y-98703100D01*
X111131288Y-98827582D01*
X111167598Y-98947280D01*
X111226563Y-99057594D01*
X111305915Y-99154285D01*
X111402606Y-99233637D01*
X111512920Y-99292602D01*
X111632618Y-99328912D01*
X111757100Y-99341172D01*
X112183850Y-99338100D01*
X112342600Y-99179350D01*
X112342600Y-97955100D01*
X112596600Y-97955100D01*
X112596600Y-99179350D01*
X112755350Y-99338100D01*
X113182100Y-99341172D01*
X113306582Y-99328912D01*
X113426280Y-99292602D01*
X113536594Y-99233637D01*
X113633285Y-99154285D01*
X113712637Y-99057594D01*
X113771602Y-98947280D01*
X113807912Y-98827582D01*
X113820172Y-98703100D01*
X113817100Y-98113850D01*
X113658350Y-97955100D01*
X112596600Y-97955100D01*
X112342600Y-97955100D01*
X111280850Y-97955100D01*
X111122100Y-98113850D01*
X111119028Y-98703100D01*
X97469813Y-98703100D01*
X97472500Y-98689592D01*
X97472500Y-98414408D01*
X97418814Y-98144510D01*
X97313505Y-97890273D01*
X97160620Y-97661465D01*
X96966035Y-97466880D01*
X96737227Y-97313995D01*
X96659985Y-97282000D01*
X96737227Y-97250005D01*
X96966035Y-97097120D01*
X97110055Y-96953100D01*
X111119028Y-96953100D01*
X111122100Y-97542350D01*
X111280850Y-97701100D01*
X112342600Y-97701100D01*
X112342600Y-96476850D01*
X112596600Y-96476850D01*
X112596600Y-97701100D01*
X113658350Y-97701100D01*
X113817100Y-97542350D01*
X113820172Y-96953100D01*
X113807912Y-96828618D01*
X113771602Y-96708920D01*
X113712637Y-96598606D01*
X113633285Y-96501915D01*
X113536594Y-96422563D01*
X113426280Y-96363598D01*
X113306582Y-96327288D01*
X113182100Y-96315028D01*
X112755350Y-96318100D01*
X112596600Y-96476850D01*
X112342600Y-96476850D01*
X112183850Y-96318100D01*
X111757100Y-96315028D01*
X111632618Y-96327288D01*
X111512920Y-96363598D01*
X111402606Y-96422563D01*
X111305915Y-96501915D01*
X111226563Y-96598606D01*
X111167598Y-96708920D01*
X111131288Y-96828618D01*
X111119028Y-96953100D01*
X97110055Y-96953100D01*
X97160620Y-96902535D01*
X97313505Y-96673727D01*
X97418814Y-96419490D01*
X97472500Y-96149592D01*
X97472500Y-95874408D01*
X97418814Y-95604510D01*
X97313505Y-95350273D01*
X97220179Y-95210600D01*
X110293528Y-95210600D01*
X110305788Y-95335082D01*
X110342098Y-95454780D01*
X110401063Y-95565094D01*
X110480415Y-95661785D01*
X110577106Y-95741137D01*
X110687420Y-95800102D01*
X110807118Y-95836412D01*
X110931600Y-95848672D01*
X111358350Y-95845600D01*
X111517100Y-95686850D01*
X111517100Y-94462600D01*
X111771100Y-94462600D01*
X111771100Y-95686850D01*
X111929850Y-95845600D01*
X112356600Y-95848672D01*
X112481082Y-95836412D01*
X112600780Y-95800102D01*
X112711094Y-95741137D01*
X112807785Y-95661785D01*
X112887137Y-95565094D01*
X112946102Y-95454780D01*
X112982412Y-95335082D01*
X112994672Y-95210600D01*
X112991600Y-94621350D01*
X112832850Y-94462600D01*
X111771100Y-94462600D01*
X111517100Y-94462600D01*
X110455350Y-94462600D01*
X110296600Y-94621350D01*
X110293528Y-95210600D01*
X97220179Y-95210600D01*
X97160620Y-95121465D01*
X96966035Y-94926880D01*
X96737227Y-94773995D01*
X96659985Y-94742000D01*
X96737227Y-94710005D01*
X96966035Y-94557120D01*
X97160620Y-94362535D01*
X97313505Y-94133727D01*
X97418814Y-93879490D01*
X97472500Y-93609592D01*
X97472500Y-93460600D01*
X110293528Y-93460600D01*
X110296600Y-94049850D01*
X110455350Y-94208600D01*
X111517100Y-94208600D01*
X111517100Y-92984350D01*
X111771100Y-92984350D01*
X111771100Y-94208600D01*
X112832850Y-94208600D01*
X112991600Y-94049850D01*
X112994672Y-93460600D01*
X112982412Y-93336118D01*
X112946102Y-93216420D01*
X112887137Y-93106106D01*
X112807785Y-93009415D01*
X112711094Y-92930063D01*
X112600780Y-92871098D01*
X112481082Y-92834788D01*
X112356600Y-92822528D01*
X111929850Y-92825600D01*
X111771100Y-92984350D01*
X111517100Y-92984350D01*
X111358350Y-92825600D01*
X110931600Y-92822528D01*
X110807118Y-92834788D01*
X110687420Y-92871098D01*
X110577106Y-92930063D01*
X110480415Y-93009415D01*
X110401063Y-93106106D01*
X110342098Y-93216420D01*
X110305788Y-93336118D01*
X110293528Y-93460600D01*
X97472500Y-93460600D01*
X97472500Y-93334408D01*
X97418814Y-93064510D01*
X97313505Y-92810273D01*
X97160620Y-92581465D01*
X96966035Y-92386880D01*
X96737227Y-92233995D01*
X96659985Y-92202000D01*
X96737227Y-92170005D01*
X96966035Y-92017120D01*
X97160620Y-91822535D01*
X97313505Y-91593727D01*
X97418814Y-91339490D01*
X97472500Y-91069592D01*
X97472500Y-90794408D01*
X97418814Y-90524510D01*
X97313505Y-90270273D01*
X97160620Y-90041465D01*
X96966035Y-89846880D01*
X96737227Y-89693995D01*
X96659985Y-89662000D01*
X96737227Y-89630005D01*
X96966035Y-89477120D01*
X97160620Y-89282535D01*
X97313505Y-89053727D01*
X97418814Y-88799490D01*
X97472500Y-88529592D01*
X97472500Y-88254408D01*
X97418814Y-87984510D01*
X97313505Y-87730273D01*
X97160620Y-87501465D01*
X96966035Y-87306880D01*
X96737227Y-87153995D01*
X96659985Y-87122000D01*
X96737227Y-87090005D01*
X96966035Y-86937120D01*
X97160620Y-86742535D01*
X97313505Y-86513727D01*
X97418814Y-86259490D01*
X97472500Y-85989592D01*
X97472500Y-85714408D01*
X97418814Y-85444510D01*
X97313505Y-85190273D01*
X97160620Y-84961465D01*
X96966035Y-84766880D01*
X96737227Y-84613995D01*
X96659985Y-84582000D01*
X96737227Y-84550005D01*
X96966035Y-84397120D01*
X97160620Y-84202535D01*
X97313505Y-83973727D01*
X97330130Y-83933589D01*
X103305000Y-83933589D01*
X103305000Y-84206411D01*
X103358225Y-84473989D01*
X103462629Y-84726043D01*
X103614201Y-84952886D01*
X103807114Y-85145799D01*
X104033957Y-85297371D01*
X104286011Y-85401775D01*
X104553589Y-85455000D01*
X104826411Y-85455000D01*
X105093989Y-85401775D01*
X105346043Y-85297371D01*
X105572886Y-85145799D01*
X105765799Y-84952886D01*
X105917371Y-84726043D01*
X106021775Y-84473989D01*
X106075000Y-84206411D01*
X106075000Y-83933589D01*
X106021775Y-83666011D01*
X105917371Y-83413957D01*
X105765799Y-83187114D01*
X105572886Y-82994201D01*
X105346043Y-82842629D01*
X105093989Y-82738225D01*
X104826411Y-82685000D01*
X104553589Y-82685000D01*
X104286011Y-82738225D01*
X104033957Y-82842629D01*
X103807114Y-82994201D01*
X103614201Y-83187114D01*
X103462629Y-83413957D01*
X103358225Y-83666011D01*
X103305000Y-83933589D01*
X97330130Y-83933589D01*
X97418814Y-83719490D01*
X97472500Y-83449592D01*
X97472500Y-83174408D01*
X97418814Y-82904510D01*
X97313505Y-82650273D01*
X97160620Y-82421465D01*
X96966035Y-82226880D01*
X96737227Y-82073995D01*
X96659985Y-82042000D01*
X96737227Y-82010005D01*
X96966035Y-81857120D01*
X97160620Y-81662535D01*
X97313505Y-81433727D01*
X97418814Y-81179490D01*
X97472500Y-80909592D01*
X97472500Y-80634408D01*
X97442365Y-80482908D01*
X106755681Y-80482908D01*
X106755681Y-80755730D01*
X106808906Y-81023308D01*
X106913310Y-81275362D01*
X107064882Y-81502205D01*
X107257795Y-81695118D01*
X107484638Y-81846690D01*
X107736692Y-81951094D01*
X108004270Y-82004319D01*
X108277092Y-82004319D01*
X108544670Y-81951094D01*
X108796724Y-81846690D01*
X109023567Y-81695118D01*
X109216480Y-81502205D01*
X109368052Y-81275362D01*
X109472456Y-81023308D01*
X109525681Y-80755730D01*
X109525681Y-80482908D01*
X109495282Y-80330083D01*
X115045000Y-85879802D01*
X115045000Y-85941939D01*
X115084774Y-86141898D01*
X115162795Y-86330256D01*
X115276063Y-86499774D01*
X115420226Y-86643937D01*
X115589744Y-86757205D01*
X115778102Y-86835226D01*
X115978061Y-86875000D01*
X116181939Y-86875000D01*
X116340001Y-86843560D01*
X116340000Y-92252398D01*
X115599822Y-92992577D01*
X115574986Y-92972195D01*
X115421450Y-92890128D01*
X115254854Y-92839592D01*
X115081600Y-92822528D01*
X114156600Y-92822528D01*
X113983346Y-92839592D01*
X113816750Y-92890128D01*
X113663214Y-92972195D01*
X113528638Y-93082638D01*
X113418195Y-93217214D01*
X113336128Y-93370750D01*
X113285592Y-93537346D01*
X113268528Y-93710600D01*
X113268528Y-94960600D01*
X113285592Y-95133854D01*
X113336128Y-95300450D01*
X113418195Y-95453986D01*
X113528638Y-95588562D01*
X113663214Y-95699005D01*
X113816750Y-95781072D01*
X113983346Y-95831608D01*
X114156600Y-95848672D01*
X114420498Y-95848672D01*
X114409600Y-95903461D01*
X114409600Y-96107339D01*
X114449374Y-96307298D01*
X114509883Y-96453380D01*
X114488714Y-96464695D01*
X114354138Y-96575138D01*
X114243695Y-96709714D01*
X114161628Y-96863250D01*
X114111092Y-97029846D01*
X114094028Y-97203100D01*
X114094028Y-98453100D01*
X114111092Y-98626354D01*
X114161628Y-98792950D01*
X114202842Y-98870056D01*
X112939003Y-100133896D01*
X112909999Y-100157699D01*
X112874082Y-100201465D01*
X112815026Y-100273424D01*
X112773034Y-100351985D01*
X112760093Y-100376196D01*
X112646063Y-100490226D01*
X112532795Y-100659744D01*
X112454774Y-100848102D01*
X112415000Y-101048061D01*
X112415000Y-101251939D01*
X112454774Y-101451898D01*
X112532795Y-101640256D01*
X112646063Y-101809774D01*
X112790226Y-101953937D01*
X112959744Y-102067205D01*
X113148102Y-102145226D01*
X113348061Y-102185000D01*
X113551939Y-102185000D01*
X113751898Y-102145226D01*
X113940256Y-102067205D01*
X114109774Y-101953937D01*
X114253937Y-101809774D01*
X114367205Y-101640256D01*
X114445226Y-101451898D01*
X114485000Y-101251939D01*
X114485000Y-101048061D01*
X114445226Y-100848102D01*
X114424481Y-100798020D01*
X115881330Y-99341172D01*
X115907100Y-99341172D01*
X116080354Y-99324108D01*
X116246950Y-99273572D01*
X116400486Y-99191505D01*
X116486748Y-99120712D01*
X116580014Y-99149003D01*
X116691667Y-99160000D01*
X116691675Y-99160000D01*
X116729000Y-99163676D01*
X116766325Y-99160000D01*
X117296289Y-99160000D01*
X117340226Y-99203937D01*
X117509744Y-99317205D01*
X117698102Y-99395226D01*
X117898061Y-99435000D01*
X118101939Y-99435000D01*
X118301898Y-99395226D01*
X118490256Y-99317205D01*
X118659774Y-99203937D01*
X118803937Y-99059774D01*
X118917205Y-98890256D01*
X118995226Y-98701898D01*
X119035000Y-98501939D01*
X119035000Y-98298061D01*
X118995226Y-98098102D01*
X118917205Y-97909744D01*
X118803937Y-97740226D01*
X118659774Y-97596063D01*
X118490256Y-97482795D01*
X118301898Y-97404774D01*
X118101939Y-97365000D01*
X117898061Y-97365000D01*
X117698102Y-97404774D01*
X117509744Y-97482795D01*
X117340226Y-97596063D01*
X117296289Y-97640000D01*
X117043802Y-97640000D01*
X116795172Y-97391371D01*
X116795172Y-97203100D01*
X116778108Y-97029846D01*
X116727572Y-96863250D01*
X116645505Y-96709714D01*
X116535062Y-96575138D01*
X116400486Y-96464695D01*
X116379317Y-96453380D01*
X116439826Y-96307298D01*
X116479600Y-96107339D01*
X116479600Y-95903461D01*
X116439826Y-95703502D01*
X116361805Y-95515144D01*
X116248537Y-95345626D01*
X116204600Y-95301689D01*
X116204600Y-94537401D01*
X117611004Y-93130998D01*
X117640001Y-93107201D01*
X117734974Y-92991476D01*
X117805546Y-92859447D01*
X117849003Y-92716186D01*
X117860000Y-92604533D01*
X117860000Y-92604524D01*
X117863676Y-92567201D01*
X117860000Y-92529878D01*
X117860000Y-86184801D01*
X123435000Y-91759802D01*
X123435000Y-91821939D01*
X123474774Y-92021898D01*
X123552795Y-92210256D01*
X123666063Y-92379774D01*
X123810226Y-92523937D01*
X123979744Y-92637205D01*
X124168102Y-92715226D01*
X124368061Y-92755000D01*
X124571939Y-92755000D01*
X124771898Y-92715226D01*
X124960256Y-92637205D01*
X124969020Y-92631349D01*
X141314460Y-92631349D01*
X141314460Y-93068651D01*
X141399773Y-93497550D01*
X141567121Y-93901564D01*
X141810073Y-94265168D01*
X142119292Y-94574387D01*
X142482896Y-94817339D01*
X142886910Y-94984687D01*
X143315809Y-95070000D01*
X143753111Y-95070000D01*
X144182010Y-94984687D01*
X144586024Y-94817339D01*
X144949628Y-94574387D01*
X145258847Y-94265168D01*
X145501799Y-93901564D01*
X145669147Y-93497550D01*
X145754460Y-93068651D01*
X145754460Y-92631349D01*
X145669147Y-92202450D01*
X145501799Y-91798436D01*
X145258847Y-91434832D01*
X144949628Y-91125613D01*
X144586024Y-90882661D01*
X144182010Y-90715313D01*
X143753111Y-90630000D01*
X143315809Y-90630000D01*
X142886910Y-90715313D01*
X142482896Y-90882661D01*
X142119292Y-91125613D01*
X141810073Y-91434832D01*
X141567121Y-91798436D01*
X141399773Y-92202450D01*
X141314460Y-92631349D01*
X124969020Y-92631349D01*
X125129774Y-92523937D01*
X125273937Y-92379774D01*
X125387205Y-92210256D01*
X125465226Y-92021898D01*
X125505000Y-91821939D01*
X125505000Y-91618061D01*
X125465226Y-91418102D01*
X125387205Y-91229744D01*
X125273937Y-91060226D01*
X125129774Y-90916063D01*
X124960256Y-90802795D01*
X124771898Y-90724774D01*
X124571939Y-90685000D01*
X124509802Y-90685000D01*
X122050402Y-88225600D01*
X129419728Y-88225600D01*
X129431988Y-88350082D01*
X129468298Y-88469780D01*
X129527263Y-88580094D01*
X129606615Y-88676785D01*
X129703306Y-88756137D01*
X129813620Y-88815102D01*
X129933318Y-88851412D01*
X130057800Y-88863672D01*
X130484550Y-88860600D01*
X130643300Y-88701850D01*
X130643300Y-87477600D01*
X130897300Y-87477600D01*
X130897300Y-88701850D01*
X131056050Y-88860600D01*
X131482800Y-88863672D01*
X131607282Y-88851412D01*
X131726980Y-88815102D01*
X131837294Y-88756137D01*
X131933985Y-88676785D01*
X132013337Y-88580094D01*
X132072302Y-88469780D01*
X132108612Y-88350082D01*
X132120872Y-88225600D01*
X132117800Y-87636350D01*
X131959050Y-87477600D01*
X130897300Y-87477600D01*
X130643300Y-87477600D01*
X129581550Y-87477600D01*
X129422800Y-87636350D01*
X129419728Y-88225600D01*
X122050402Y-88225600D01*
X120300402Y-86475600D01*
X129419728Y-86475600D01*
X129422800Y-87064850D01*
X129581550Y-87223600D01*
X130643300Y-87223600D01*
X130643300Y-85999350D01*
X130897300Y-85999350D01*
X130897300Y-87223600D01*
X131959050Y-87223600D01*
X132117800Y-87064850D01*
X132120872Y-86475600D01*
X132108612Y-86351118D01*
X132072302Y-86231420D01*
X132013337Y-86121106D01*
X131933985Y-86024415D01*
X131837294Y-85945063D01*
X131726980Y-85886098D01*
X131607282Y-85849788D01*
X131482800Y-85837528D01*
X131056050Y-85840600D01*
X130897300Y-85999350D01*
X130643300Y-85999350D01*
X130484550Y-85840600D01*
X130057800Y-85837528D01*
X129933318Y-85849788D01*
X129813620Y-85886098D01*
X129703306Y-85945063D01*
X129606615Y-86024415D01*
X129527263Y-86121106D01*
X129468298Y-86231420D01*
X129431988Y-86351118D01*
X129419728Y-86475600D01*
X120300402Y-86475600D01*
X118117039Y-84292238D01*
X118135000Y-84201939D01*
X118135000Y-84139801D01*
X120099647Y-82175155D01*
X120148102Y-82195226D01*
X120348061Y-82235000D01*
X120551939Y-82235000D01*
X120751898Y-82195226D01*
X120940256Y-82117205D01*
X121109774Y-82003937D01*
X121198709Y-81915002D01*
X121230748Y-81915002D01*
X121072000Y-82073750D01*
X121068928Y-82538000D01*
X121081188Y-82662482D01*
X121117498Y-82782180D01*
X121176463Y-82892494D01*
X121213809Y-82938000D01*
X121176463Y-82983506D01*
X121117498Y-83093820D01*
X121081188Y-83213518D01*
X121068928Y-83338000D01*
X121068928Y-84838000D01*
X121081188Y-84962482D01*
X121117498Y-85082180D01*
X121176463Y-85192494D01*
X121255815Y-85289185D01*
X121352506Y-85368537D01*
X121462820Y-85427502D01*
X121582518Y-85463812D01*
X121707000Y-85476072D01*
X123707000Y-85476072D01*
X123831482Y-85463812D01*
X123951180Y-85427502D01*
X124061494Y-85368537D01*
X124158185Y-85289185D01*
X124237537Y-85192494D01*
X124296502Y-85082180D01*
X124332812Y-84962482D01*
X124344087Y-84848000D01*
X125351089Y-84848000D01*
X125352414Y-84848402D01*
X125501399Y-84863076D01*
X125501400Y-84863076D01*
X125650385Y-84848402D01*
X125793646Y-84804946D01*
X125925676Y-84734374D01*
X125963883Y-84703018D01*
X126041401Y-84639401D01*
X126065204Y-84610398D01*
X127130003Y-83545599D01*
X127159001Y-83521801D01*
X127205595Y-83465026D01*
X127253974Y-83406077D01*
X127324546Y-83274047D01*
X127350916Y-83187114D01*
X127368003Y-83130786D01*
X127370028Y-83110231D01*
X127368928Y-83688000D01*
X127381188Y-83812482D01*
X127417498Y-83932180D01*
X127476463Y-84042494D01*
X127555815Y-84139185D01*
X127652506Y-84218537D01*
X127762820Y-84277502D01*
X127882518Y-84313812D01*
X128007000Y-84326072D01*
X128721250Y-84323000D01*
X128880000Y-84164250D01*
X128880000Y-81915000D01*
X129134000Y-81915000D01*
X129134000Y-84164250D01*
X129292750Y-84323000D01*
X130007000Y-84326072D01*
X130131482Y-84313812D01*
X130251180Y-84277502D01*
X130361494Y-84218537D01*
X130458185Y-84139185D01*
X130537537Y-84042494D01*
X130596502Y-83932180D01*
X130632812Y-83812482D01*
X130645072Y-83688000D01*
X130642932Y-82563400D01*
X132219528Y-82563400D01*
X132231788Y-82687882D01*
X132268098Y-82807580D01*
X132327063Y-82917894D01*
X132364409Y-82963400D01*
X132327063Y-83008906D01*
X132268098Y-83119220D01*
X132231788Y-83238918D01*
X132219528Y-83363400D01*
X132219528Y-84863400D01*
X132231788Y-84987882D01*
X132268098Y-85107580D01*
X132327063Y-85217894D01*
X132406415Y-85314585D01*
X132503106Y-85393937D01*
X132613420Y-85452902D01*
X132733118Y-85489212D01*
X132857600Y-85501472D01*
X132897801Y-85501472D01*
X132897800Y-85929261D01*
X132789414Y-85987195D01*
X132654838Y-86097638D01*
X132544395Y-86232214D01*
X132462328Y-86385750D01*
X132411792Y-86552346D01*
X132394728Y-86725600D01*
X132394728Y-87975600D01*
X132411792Y-88148854D01*
X132462328Y-88315450D01*
X132544395Y-88468986D01*
X132654838Y-88603562D01*
X132789414Y-88714005D01*
X132942950Y-88796072D01*
X133109546Y-88846608D01*
X133282800Y-88863672D01*
X134207800Y-88863672D01*
X134381054Y-88846608D01*
X134547650Y-88796072D01*
X134701186Y-88714005D01*
X134835762Y-88603562D01*
X134946205Y-88468986D01*
X135028272Y-88315450D01*
X135078808Y-88148854D01*
X135095872Y-87975600D01*
X135095872Y-86725600D01*
X135078808Y-86552346D01*
X135028272Y-86385750D01*
X134946205Y-86232214D01*
X134835762Y-86097638D01*
X134701186Y-85987195D01*
X134547650Y-85905128D01*
X134417800Y-85865739D01*
X134417800Y-85501472D01*
X134857600Y-85501472D01*
X134982082Y-85489212D01*
X135010946Y-85480456D01*
X135396397Y-85865908D01*
X135428804Y-85905396D01*
X135468292Y-85937803D01*
X135586402Y-86034734D01*
X135682509Y-86086104D01*
X135766207Y-86130841D01*
X135961305Y-86190024D01*
X136113362Y-86205000D01*
X136113371Y-86205000D01*
X136164199Y-86210006D01*
X136215027Y-86205000D01*
X143382568Y-86205000D01*
X143366277Y-86258705D01*
X143346294Y-86461600D01*
X143351301Y-86512437D01*
X143351301Y-86666492D01*
X143232825Y-86784968D01*
X143116300Y-86959360D01*
X142999775Y-86784968D01*
X142792932Y-86578125D01*
X142549711Y-86415610D01*
X142279458Y-86303668D01*
X141992560Y-86246600D01*
X141700040Y-86246600D01*
X141413142Y-86303668D01*
X141142889Y-86415610D01*
X140899668Y-86578125D01*
X140692825Y-86784968D01*
X140530310Y-87028189D01*
X140418368Y-87298442D01*
X140361300Y-87585340D01*
X140361300Y-87877860D01*
X140418368Y-88164758D01*
X140530310Y-88435011D01*
X140692825Y-88678232D01*
X140899668Y-88885075D01*
X141142889Y-89047590D01*
X141413142Y-89159532D01*
X141700040Y-89216600D01*
X141992560Y-89216600D01*
X142279458Y-89159532D01*
X142549711Y-89047590D01*
X142792932Y-88885075D01*
X142999775Y-88678232D01*
X143116300Y-88503840D01*
X143232825Y-88678232D01*
X143439668Y-88885075D01*
X143682889Y-89047590D01*
X143953142Y-89159532D01*
X144240040Y-89216600D01*
X144532560Y-89216600D01*
X144819458Y-89159532D01*
X145089711Y-89047590D01*
X145332932Y-88885075D01*
X145464787Y-88753220D01*
X145486798Y-88825780D01*
X145545763Y-88936094D01*
X145625115Y-89032785D01*
X145721806Y-89112137D01*
X145832120Y-89171102D01*
X145951818Y-89207412D01*
X146076300Y-89219672D01*
X147776300Y-89219672D01*
X147900782Y-89207412D01*
X148020480Y-89171102D01*
X148130794Y-89112137D01*
X148227485Y-89032785D01*
X148306837Y-88936094D01*
X148365802Y-88825780D01*
X148402112Y-88706082D01*
X148414372Y-88581600D01*
X148414372Y-86881600D01*
X148402112Y-86757118D01*
X148365802Y-86637420D01*
X148306837Y-86527106D01*
X148227485Y-86430415D01*
X148130794Y-86351063D01*
X148020480Y-86292098D01*
X147900782Y-86255788D01*
X147776300Y-86243528D01*
X146076300Y-86243528D01*
X146067185Y-86244426D01*
X146262811Y-86048800D01*
X147904238Y-86048800D01*
X147935955Y-86045676D01*
X148018500Y-86053806D01*
X148221395Y-86033823D01*
X148416493Y-85974640D01*
X148596297Y-85878534D01*
X148714407Y-85781603D01*
X150217939Y-84278072D01*
X152200000Y-84278072D01*
X152324482Y-84265812D01*
X152444180Y-84229502D01*
X152554494Y-84170537D01*
X152651185Y-84091185D01*
X152730537Y-83994494D01*
X152789502Y-83884180D01*
X152825812Y-83764482D01*
X152838072Y-83640000D01*
X152838072Y-81340000D01*
X152825812Y-81215518D01*
X152789502Y-81095820D01*
X152730537Y-80985506D01*
X152651185Y-80888815D01*
X152554494Y-80809463D01*
X152444180Y-80750498D01*
X152324482Y-80714188D01*
X152200000Y-80701928D01*
X148700000Y-80701928D01*
X148575518Y-80714188D01*
X148455820Y-80750498D01*
X148345506Y-80809463D01*
X148248815Y-80888815D01*
X148169463Y-80985506D01*
X148110498Y-81095820D01*
X148074188Y-81215518D01*
X148061928Y-81340000D01*
X148061928Y-83506662D01*
X147589790Y-83978800D01*
X147338926Y-83978800D01*
X147389502Y-83884180D01*
X147425812Y-83764482D01*
X147438072Y-83640000D01*
X147438072Y-81340000D01*
X147425812Y-81215518D01*
X147389502Y-81095820D01*
X147330537Y-80985506D01*
X147251185Y-80888815D01*
X147154494Y-80809463D01*
X147044180Y-80750498D01*
X146924482Y-80714188D01*
X146800000Y-80701928D01*
X143300000Y-80701928D01*
X143175518Y-80714188D01*
X143055820Y-80750498D01*
X142945506Y-80809463D01*
X142848815Y-80888815D01*
X142769463Y-80985506D01*
X142710498Y-81095820D01*
X142674188Y-81215518D01*
X142661928Y-81340000D01*
X142661928Y-83640000D01*
X142674188Y-83764482D01*
X142710498Y-83884180D01*
X142769463Y-83994494D01*
X142848815Y-84091185D01*
X142902204Y-84135000D01*
X141633065Y-84135000D01*
X141688137Y-84067894D01*
X141747102Y-83957580D01*
X141783412Y-83837882D01*
X141795672Y-83713400D01*
X141792600Y-82099150D01*
X141633850Y-81940400D01*
X140284600Y-81940400D01*
X140284600Y-81960400D01*
X140030600Y-81960400D01*
X140030600Y-81940400D01*
X138681350Y-81940400D01*
X138522600Y-82099150D01*
X138519528Y-83713400D01*
X138531788Y-83837882D01*
X138568098Y-83957580D01*
X138627063Y-84067894D01*
X138682135Y-84135000D01*
X136592911Y-84135000D01*
X135875407Y-83417497D01*
X135842996Y-83378004D01*
X135685397Y-83248666D01*
X135505593Y-83152559D01*
X135452312Y-83136396D01*
X135447102Y-83119220D01*
X135388137Y-83008906D01*
X135350791Y-82963400D01*
X135388137Y-82917894D01*
X135447102Y-82807580D01*
X135483412Y-82687882D01*
X135495672Y-82563400D01*
X135492600Y-82099150D01*
X135333850Y-81940400D01*
X133984600Y-81940400D01*
X133984600Y-81960400D01*
X133730600Y-81960400D01*
X133730600Y-81940400D01*
X132381350Y-81940400D01*
X132222600Y-82099150D01*
X132219528Y-82563400D01*
X130642932Y-82563400D01*
X130642000Y-82073750D01*
X130483250Y-81915000D01*
X129134000Y-81915000D01*
X128880000Y-81915000D01*
X128860000Y-81915000D01*
X128860000Y-81661000D01*
X128880000Y-81661000D01*
X128880000Y-79411750D01*
X129134000Y-79411750D01*
X129134000Y-81661000D01*
X130483250Y-81661000D01*
X130642000Y-81502250D01*
X130645072Y-79888000D01*
X130632812Y-79763518D01*
X130596502Y-79643820D01*
X130537537Y-79533506D01*
X130458185Y-79436815D01*
X130361494Y-79357463D01*
X130251180Y-79298498D01*
X130131482Y-79262188D01*
X130007000Y-79249928D01*
X129292750Y-79253000D01*
X129134000Y-79411750D01*
X128880000Y-79411750D01*
X128721250Y-79253000D01*
X128007000Y-79249928D01*
X127882518Y-79262188D01*
X127762820Y-79298498D01*
X127652506Y-79357463D01*
X127555815Y-79436815D01*
X127476463Y-79533506D01*
X127417498Y-79643820D01*
X127381188Y-79763518D01*
X127379000Y-79785734D01*
X127379000Y-76871800D01*
X128756528Y-76871800D01*
X128768788Y-76996282D01*
X128805098Y-77115980D01*
X128864063Y-77226294D01*
X128943415Y-77322985D01*
X129040106Y-77402337D01*
X129150420Y-77461302D01*
X129270118Y-77497612D01*
X129394600Y-77509872D01*
X129733850Y-77506800D01*
X129892600Y-77348050D01*
X129892600Y-76123800D01*
X130146600Y-76123800D01*
X130146600Y-77348050D01*
X130305350Y-77506800D01*
X130644600Y-77509872D01*
X130769082Y-77497612D01*
X130888780Y-77461302D01*
X130999094Y-77402337D01*
X131095785Y-77322985D01*
X131175137Y-77226294D01*
X131234102Y-77115980D01*
X131270412Y-76996282D01*
X131282672Y-76871800D01*
X131279600Y-76282550D01*
X131120850Y-76123800D01*
X130146600Y-76123800D01*
X129892600Y-76123800D01*
X128918350Y-76123800D01*
X128759600Y-76282550D01*
X128756528Y-76871800D01*
X127379000Y-76871800D01*
X127379000Y-75067001D01*
X127924402Y-74521600D01*
X129185687Y-74521600D01*
X129150420Y-74532298D01*
X129040106Y-74591263D01*
X128943415Y-74670615D01*
X128864063Y-74767306D01*
X128805098Y-74877620D01*
X128768788Y-74997318D01*
X128756528Y-75121800D01*
X128759600Y-75711050D01*
X128918350Y-75869800D01*
X129892600Y-75869800D01*
X129892600Y-75849800D01*
X130146600Y-75849800D01*
X130146600Y-75869800D01*
X131120850Y-75869800D01*
X131279600Y-75711050D01*
X131282672Y-75121800D01*
X131270412Y-74997318D01*
X131234102Y-74877620D01*
X131175137Y-74767306D01*
X131095785Y-74670615D01*
X130999094Y-74591263D01*
X130888780Y-74532298D01*
X130853513Y-74521600D01*
X131144599Y-74521600D01*
X131634864Y-75011865D01*
X131624128Y-75031950D01*
X131573592Y-75198546D01*
X131556528Y-75371800D01*
X131556528Y-76621800D01*
X131573592Y-76795054D01*
X131624128Y-76961650D01*
X131706195Y-77115186D01*
X131816638Y-77249762D01*
X131951214Y-77360205D01*
X132104750Y-77442272D01*
X132271346Y-77492808D01*
X132444600Y-77509872D01*
X133097601Y-77509872D01*
X133097600Y-78125328D01*
X132857600Y-78125328D01*
X132733118Y-78137588D01*
X132613420Y-78173898D01*
X132503106Y-78232863D01*
X132406415Y-78312215D01*
X132327063Y-78408906D01*
X132268098Y-78519220D01*
X132231788Y-78638918D01*
X132219528Y-78763400D01*
X132219528Y-80263400D01*
X132231788Y-80387882D01*
X132268098Y-80507580D01*
X132327063Y-80617894D01*
X132364409Y-80663400D01*
X132327063Y-80708906D01*
X132268098Y-80819220D01*
X132231788Y-80938918D01*
X132219528Y-81063400D01*
X132222600Y-81527650D01*
X132381350Y-81686400D01*
X133730600Y-81686400D01*
X133730600Y-81666400D01*
X133984600Y-81666400D01*
X133984600Y-81686400D01*
X135333850Y-81686400D01*
X135492600Y-81527650D01*
X135495672Y-81063400D01*
X135483412Y-80938918D01*
X135447102Y-80819220D01*
X135388137Y-80708906D01*
X135350791Y-80663400D01*
X135388137Y-80617894D01*
X135447102Y-80507580D01*
X135483412Y-80387882D01*
X135495672Y-80263400D01*
X135495672Y-79913400D01*
X138519528Y-79913400D01*
X138522600Y-81527650D01*
X138681350Y-81686400D01*
X140030600Y-81686400D01*
X140030600Y-79437150D01*
X140284600Y-79437150D01*
X140284600Y-81686400D01*
X141633850Y-81686400D01*
X141792600Y-81527650D01*
X141795672Y-79913400D01*
X141783412Y-79788918D01*
X141747102Y-79669220D01*
X141688137Y-79558906D01*
X141608785Y-79462215D01*
X141512094Y-79382863D01*
X141401780Y-79323898D01*
X141282082Y-79287588D01*
X141157600Y-79275328D01*
X140443350Y-79278400D01*
X140284600Y-79437150D01*
X140030600Y-79437150D01*
X139871850Y-79278400D01*
X139157600Y-79275328D01*
X139033118Y-79287588D01*
X138913420Y-79323898D01*
X138803106Y-79382863D01*
X138706415Y-79462215D01*
X138627063Y-79558906D01*
X138568098Y-79669220D01*
X138531788Y-79788918D01*
X138519528Y-79913400D01*
X135495672Y-79913400D01*
X135495672Y-78763400D01*
X135483412Y-78638918D01*
X135447102Y-78519220D01*
X135388137Y-78408906D01*
X135308785Y-78312215D01*
X135212094Y-78232863D01*
X135101780Y-78173898D01*
X134982082Y-78137588D01*
X134857600Y-78125328D01*
X134617600Y-78125328D01*
X134617600Y-76985101D01*
X135531703Y-76071000D01*
X136732489Y-76071000D01*
X136776426Y-76114937D01*
X136945944Y-76228205D01*
X137134302Y-76306226D01*
X137334261Y-76346000D01*
X137538139Y-76346000D01*
X137738098Y-76306226D01*
X137926456Y-76228205D01*
X138095974Y-76114937D01*
X138240137Y-75970774D01*
X138353405Y-75801256D01*
X138431426Y-75612898D01*
X138471200Y-75412939D01*
X138471200Y-75209061D01*
X138431426Y-75009102D01*
X138353405Y-74820744D01*
X138240137Y-74651226D01*
X138095974Y-74507063D01*
X137926456Y-74393795D01*
X137738098Y-74315774D01*
X137538139Y-74276000D01*
X137334261Y-74276000D01*
X137134302Y-74315774D01*
X136945944Y-74393795D01*
X136776426Y-74507063D01*
X136732489Y-74551000D01*
X135254222Y-74551000D01*
X135216899Y-74547324D01*
X135179576Y-74551000D01*
X135179567Y-74551000D01*
X135067914Y-74561997D01*
X134924653Y-74605454D01*
X134792624Y-74676026D01*
X134792622Y-74676027D01*
X134792623Y-74676027D01*
X134705896Y-74747201D01*
X134705892Y-74747205D01*
X134676899Y-74770999D01*
X134653105Y-74799992D01*
X134082549Y-75370549D01*
X134065608Y-75198546D01*
X134015072Y-75031950D01*
X133933005Y-74878414D01*
X133822562Y-74743838D01*
X133687986Y-74633395D01*
X133534450Y-74551328D01*
X133367854Y-74500792D01*
X133263074Y-74490472D01*
X132023204Y-73250603D01*
X131999401Y-73221599D01*
X131883676Y-73126626D01*
X131751647Y-73056054D01*
X131608386Y-73012597D01*
X131496733Y-73001600D01*
X131496722Y-73001600D01*
X131459400Y-72997924D01*
X131422078Y-73001600D01*
X130331147Y-73001600D01*
X130372102Y-72924980D01*
X130408412Y-72805282D01*
X130420672Y-72680800D01*
X130417600Y-72091550D01*
X130258850Y-71932800D01*
X129197100Y-71932800D01*
X129197100Y-71952800D01*
X128943100Y-71952800D01*
X128943100Y-71932800D01*
X127881350Y-71932800D01*
X127722600Y-72091550D01*
X127719528Y-72680800D01*
X127731788Y-72805282D01*
X127768098Y-72924980D01*
X127809053Y-73001600D01*
X127646923Y-73001600D01*
X127609600Y-72997924D01*
X127572277Y-73001600D01*
X127572267Y-73001600D01*
X127460614Y-73012597D01*
X127317353Y-73056054D01*
X127185323Y-73126626D01*
X127105907Y-73191802D01*
X127069599Y-73221599D01*
X127045801Y-73250597D01*
X126108002Y-74188396D01*
X126078999Y-74212199D01*
X126029428Y-74272602D01*
X125984026Y-74327924D01*
X125936812Y-74416254D01*
X125913454Y-74459954D01*
X125869997Y-74603215D01*
X125859000Y-74714868D01*
X125859000Y-74714878D01*
X125855324Y-74752200D01*
X125859000Y-74789522D01*
X125859001Y-82666997D01*
X125197999Y-83328000D01*
X124344087Y-83328000D01*
X124332812Y-83213518D01*
X124296502Y-83093820D01*
X124237537Y-82983506D01*
X124200191Y-82938000D01*
X124237537Y-82892494D01*
X124296502Y-82782180D01*
X124332812Y-82662482D01*
X124345072Y-82538000D01*
X124342000Y-82073750D01*
X124183250Y-81915000D01*
X122834000Y-81915000D01*
X122834000Y-81935000D01*
X122580000Y-81935000D01*
X122580000Y-81915000D01*
X122560000Y-81915000D01*
X122560000Y-81661000D01*
X122580000Y-81661000D01*
X122580000Y-81641000D01*
X122834000Y-81641000D01*
X122834000Y-81661000D01*
X124183250Y-81661000D01*
X124342000Y-81502250D01*
X124345072Y-81038000D01*
X124332812Y-80913518D01*
X124296502Y-80793820D01*
X124237537Y-80683506D01*
X124200191Y-80638000D01*
X124237537Y-80592494D01*
X124296502Y-80482180D01*
X124332812Y-80362482D01*
X124345072Y-80238000D01*
X124345072Y-78738000D01*
X124332812Y-78613518D01*
X124296502Y-78493820D01*
X124237537Y-78383506D01*
X124158185Y-78286815D01*
X124061494Y-78207463D01*
X123951180Y-78148498D01*
X123831482Y-78112188D01*
X123707000Y-78099928D01*
X123467000Y-78099928D01*
X123467000Y-77886343D01*
X123516205Y-77826386D01*
X123598272Y-77672850D01*
X123648808Y-77506254D01*
X123665872Y-77333000D01*
X123665872Y-76083000D01*
X123648808Y-75909746D01*
X123598272Y-75743150D01*
X123516205Y-75589614D01*
X123458997Y-75519905D01*
X124085209Y-74893694D01*
X124114201Y-74869901D01*
X124137995Y-74840908D01*
X124137999Y-74840904D01*
X124209173Y-74754177D01*
X124209174Y-74754176D01*
X124279746Y-74622147D01*
X124323203Y-74478886D01*
X124334200Y-74367233D01*
X124334200Y-74367224D01*
X124337876Y-74329901D01*
X124334200Y-74292578D01*
X124334200Y-73785000D01*
X125713578Y-73785000D01*
X125750900Y-73788676D01*
X125788222Y-73785000D01*
X125788233Y-73785000D01*
X125899886Y-73774003D01*
X126043147Y-73730546D01*
X126175176Y-73659974D01*
X126290901Y-73565001D01*
X126314704Y-73535997D01*
X126531829Y-73318872D01*
X126557600Y-73318872D01*
X126730854Y-73301808D01*
X126897450Y-73251272D01*
X127050986Y-73169205D01*
X127185562Y-73058762D01*
X127296005Y-72924186D01*
X127378072Y-72770650D01*
X127428608Y-72604054D01*
X127445672Y-72430800D01*
X127445672Y-71180800D01*
X127428608Y-71007546D01*
X127405328Y-70930800D01*
X127719528Y-70930800D01*
X127722600Y-71520050D01*
X127881350Y-71678800D01*
X128943100Y-71678800D01*
X128943100Y-70454550D01*
X129197100Y-70454550D01*
X129197100Y-71678800D01*
X130258850Y-71678800D01*
X130417600Y-71520050D01*
X130420576Y-70949117D01*
X149395000Y-70949117D01*
X149395000Y-71290883D01*
X149461675Y-71626081D01*
X149592463Y-71941831D01*
X149782337Y-72225998D01*
X150024002Y-72467663D01*
X150308169Y-72657537D01*
X150623919Y-72788325D01*
X150959117Y-72855000D01*
X151300883Y-72855000D01*
X151636081Y-72788325D01*
X151951831Y-72657537D01*
X152235998Y-72467663D01*
X152477663Y-72225998D01*
X152667537Y-71941831D01*
X152798325Y-71626081D01*
X152865000Y-71290883D01*
X152865000Y-70949117D01*
X152798325Y-70613919D01*
X152667537Y-70298169D01*
X152477663Y-70014002D01*
X152235998Y-69772337D01*
X151951831Y-69582463D01*
X151636081Y-69451675D01*
X151300883Y-69385000D01*
X150959117Y-69385000D01*
X150623919Y-69451675D01*
X150308169Y-69582463D01*
X150024002Y-69772337D01*
X149782337Y-70014002D01*
X149592463Y-70298169D01*
X149461675Y-70613919D01*
X149395000Y-70949117D01*
X130420576Y-70949117D01*
X130420672Y-70930800D01*
X130408412Y-70806318D01*
X130372102Y-70686620D01*
X130313137Y-70576306D01*
X130233785Y-70479615D01*
X130137094Y-70400263D01*
X130026780Y-70341298D01*
X129907082Y-70304988D01*
X129782600Y-70292728D01*
X129355850Y-70295800D01*
X129197100Y-70454550D01*
X128943100Y-70454550D01*
X128784350Y-70295800D01*
X128357600Y-70292728D01*
X128233118Y-70304988D01*
X128113420Y-70341298D01*
X128003106Y-70400263D01*
X127906415Y-70479615D01*
X127827063Y-70576306D01*
X127768098Y-70686620D01*
X127731788Y-70806318D01*
X127719528Y-70930800D01*
X127405328Y-70930800D01*
X127378072Y-70840950D01*
X127296005Y-70687414D01*
X127185562Y-70552838D01*
X127050986Y-70442395D01*
X126897450Y-70360328D01*
X126730854Y-70309792D01*
X126557600Y-70292728D01*
X125632600Y-70292728D01*
X125459346Y-70309792D01*
X125292750Y-70360328D01*
X125139214Y-70442395D01*
X125004638Y-70552838D01*
X124894195Y-70687414D01*
X124812128Y-70840950D01*
X124761592Y-71007546D01*
X124744528Y-71180800D01*
X124744528Y-72265000D01*
X124308711Y-72265000D01*
X124264774Y-72221063D01*
X124095256Y-72107795D01*
X123906898Y-72029774D01*
X123706939Y-71990000D01*
X123503061Y-71990000D01*
X123303102Y-72029774D01*
X123114744Y-72107795D01*
X122945226Y-72221063D01*
X122801063Y-72365226D01*
X122687795Y-72534744D01*
X122609774Y-72723102D01*
X122570000Y-72923061D01*
X122570000Y-73126939D01*
X122609774Y-73326898D01*
X122687795Y-73515256D01*
X122801063Y-73684774D01*
X122814200Y-73697911D01*
X122814200Y-74015097D01*
X121804298Y-75025001D01*
X121775300Y-75048799D01*
X121751502Y-75077797D01*
X121751501Y-75077798D01*
X121680326Y-75164524D01*
X121650195Y-75220896D01*
X121512950Y-75262528D01*
X121359414Y-75344595D01*
X121224838Y-75455038D01*
X121114395Y-75589614D01*
X121032328Y-75743150D01*
X120981792Y-75909746D01*
X120964728Y-76083000D01*
X120964728Y-77333000D01*
X120981792Y-77506254D01*
X121032328Y-77672850D01*
X121114395Y-77826386D01*
X121224838Y-77960962D01*
X121359414Y-78071405D01*
X121488864Y-78140598D01*
X121462820Y-78148498D01*
X121352506Y-78207463D01*
X121255815Y-78286815D01*
X121176463Y-78383506D01*
X121117498Y-78493820D01*
X121081188Y-78613518D01*
X121068928Y-78738000D01*
X121068928Y-80238000D01*
X121081188Y-80362482D01*
X121086697Y-80380644D01*
X120940256Y-80282795D01*
X120751898Y-80204774D01*
X120551939Y-80165000D01*
X120348061Y-80165000D01*
X120148102Y-80204774D01*
X119959744Y-80282795D01*
X119790226Y-80396063D01*
X119673556Y-80512733D01*
X119575724Y-80565026D01*
X119459999Y-80659999D01*
X119436201Y-80688997D01*
X117060199Y-83065000D01*
X116998061Y-83065000D01*
X116798102Y-83104774D01*
X116609744Y-83182795D01*
X116440226Y-83296063D01*
X116296063Y-83440226D01*
X116182795Y-83609744D01*
X116104774Y-83798102D01*
X116065000Y-83998061D01*
X116065000Y-84201939D01*
X116104774Y-84401898D01*
X116182795Y-84590256D01*
X116296063Y-84759774D01*
X116340001Y-84803712D01*
X116340001Y-84836440D01*
X116181939Y-84805000D01*
X116119802Y-84805000D01*
X109383100Y-78068299D01*
X109383100Y-77583000D01*
X117989728Y-77583000D01*
X118001988Y-77707482D01*
X118038298Y-77827180D01*
X118097263Y-77937494D01*
X118176615Y-78034185D01*
X118273306Y-78113537D01*
X118383620Y-78172502D01*
X118503318Y-78208812D01*
X118627800Y-78221072D01*
X119054550Y-78218000D01*
X119213300Y-78059250D01*
X119213300Y-76835000D01*
X119467300Y-76835000D01*
X119467300Y-78059250D01*
X119626050Y-78218000D01*
X120052800Y-78221072D01*
X120177282Y-78208812D01*
X120296980Y-78172502D01*
X120407294Y-78113537D01*
X120503985Y-78034185D01*
X120583337Y-77937494D01*
X120642302Y-77827180D01*
X120678612Y-77707482D01*
X120690872Y-77583000D01*
X120687800Y-76993750D01*
X120529050Y-76835000D01*
X119467300Y-76835000D01*
X119213300Y-76835000D01*
X118151550Y-76835000D01*
X117992800Y-76993750D01*
X117989728Y-77583000D01*
X109383100Y-77583000D01*
X109383100Y-75833000D01*
X117989728Y-75833000D01*
X117992800Y-76422250D01*
X118151550Y-76581000D01*
X119213300Y-76581000D01*
X119213300Y-75356750D01*
X119467300Y-75356750D01*
X119467300Y-76581000D01*
X120529050Y-76581000D01*
X120687800Y-76422250D01*
X120690872Y-75833000D01*
X120678612Y-75708518D01*
X120642302Y-75588820D01*
X120583337Y-75478506D01*
X120503985Y-75381815D01*
X120407294Y-75302463D01*
X120296980Y-75243498D01*
X120177282Y-75207188D01*
X120052800Y-75194928D01*
X119626050Y-75198000D01*
X119467300Y-75356750D01*
X119213300Y-75356750D01*
X119054550Y-75198000D01*
X118627800Y-75194928D01*
X118503318Y-75207188D01*
X118383620Y-75243498D01*
X118273306Y-75302463D01*
X118176615Y-75381815D01*
X118097263Y-75478506D01*
X118038298Y-75588820D01*
X118001988Y-75708518D01*
X117989728Y-75833000D01*
X109383100Y-75833000D01*
X109383100Y-73620611D01*
X109443937Y-73559774D01*
X109557205Y-73390256D01*
X109635226Y-73201898D01*
X109675000Y-73001939D01*
X109675000Y-72798061D01*
X109635226Y-72598102D01*
X109557205Y-72409744D01*
X109443937Y-72240226D01*
X109299774Y-72096063D01*
X109130256Y-71982795D01*
X108941898Y-71904774D01*
X108741939Y-71865000D01*
X108538061Y-71865000D01*
X108338102Y-71904774D01*
X108149744Y-71982795D01*
X107980226Y-72096063D01*
X107836063Y-72240226D01*
X107722795Y-72409744D01*
X107644774Y-72598102D01*
X107605000Y-72798061D01*
X107605000Y-73001939D01*
X107644774Y-73201898D01*
X107722795Y-73390256D01*
X107836063Y-73559774D01*
X107863100Y-73586811D01*
X107863101Y-78345768D01*
X107859424Y-78383100D01*
X107874098Y-78532085D01*
X107917554Y-78675346D01*
X107988126Y-78807376D01*
X108058993Y-78893727D01*
X108083100Y-78923101D01*
X108112098Y-78946899D01*
X108429917Y-79264718D01*
X108277092Y-79234319D01*
X108004270Y-79234319D01*
X107736692Y-79287544D01*
X107484638Y-79391948D01*
X107257795Y-79543520D01*
X107064882Y-79736433D01*
X106913310Y-79963276D01*
X106808906Y-80215330D01*
X106755681Y-80482908D01*
X97442365Y-80482908D01*
X97418814Y-80364510D01*
X97313505Y-80110273D01*
X97160620Y-79881465D01*
X96966035Y-79686880D01*
X96737227Y-79533995D01*
X96659985Y-79502000D01*
X96737227Y-79470005D01*
X96966035Y-79317120D01*
X97160620Y-79122535D01*
X97313505Y-78893727D01*
X97418814Y-78639490D01*
X97472500Y-78369592D01*
X97472500Y-78094408D01*
X97441872Y-77940430D01*
X99063067Y-76319235D01*
X104369117Y-76319235D01*
X104406450Y-76322912D01*
X104555436Y-76308238D01*
X104698697Y-76264781D01*
X104830726Y-76194209D01*
X104946451Y-76099236D01*
X105041424Y-75983511D01*
X105111996Y-75851482D01*
X105155437Y-75708274D01*
X105210387Y-75653324D01*
X105323655Y-75483806D01*
X105401676Y-75295448D01*
X105441450Y-75095489D01*
X105441450Y-74891611D01*
X105401676Y-74691652D01*
X105323655Y-74503294D01*
X105210387Y-74333776D01*
X105066224Y-74189613D01*
X104896706Y-74076345D01*
X104708348Y-73998324D01*
X104508389Y-73958550D01*
X104304511Y-73958550D01*
X104104552Y-73998324D01*
X103916194Y-74076345D01*
X103746676Y-74189613D01*
X103602513Y-74333776D01*
X103489245Y-74503294D01*
X103411224Y-74691652D01*
X103389825Y-74799235D01*
X98785598Y-74799235D01*
X98748265Y-74795558D01*
X98710932Y-74799235D01*
X98599279Y-74810232D01*
X98456018Y-74853689D01*
X98323989Y-74924261D01*
X98208264Y-75019234D01*
X98184466Y-75048232D01*
X97472500Y-75760198D01*
X97472500Y-75554408D01*
X97418814Y-75284510D01*
X97313505Y-75030273D01*
X97160620Y-74801465D01*
X96966035Y-74606880D01*
X96737227Y-74453995D01*
X96482990Y-74348686D01*
X96213092Y-74295000D01*
X95937908Y-74295000D01*
X95668010Y-74348686D01*
X95413773Y-74453995D01*
X95184965Y-74606880D01*
X94990380Y-74801465D01*
X94931580Y-74889465D01*
X94923312Y-74805518D01*
X94887002Y-74685820D01*
X94828037Y-74575506D01*
X94748685Y-74478815D01*
X94651994Y-74399463D01*
X94541680Y-74340498D01*
X94421982Y-74304188D01*
X94297500Y-74291928D01*
X93821250Y-74295000D01*
X93662500Y-74453750D01*
X93662500Y-75565000D01*
X93682500Y-75565000D01*
X93682500Y-75819000D01*
X93662500Y-75819000D01*
X93662500Y-75839000D01*
X93408500Y-75839000D01*
X93408500Y-75819000D01*
X93388500Y-75819000D01*
X93388500Y-75565000D01*
X93408500Y-75565000D01*
X93408500Y-74453750D01*
X93249750Y-74295000D01*
X92773500Y-74291928D01*
X92649018Y-74304188D01*
X92529320Y-74340498D01*
X92442500Y-74386905D01*
X92442500Y-70898317D01*
X92549800Y-70898317D01*
X92549800Y-71240083D01*
X92616475Y-71575281D01*
X92747263Y-71891031D01*
X92937137Y-72175198D01*
X93178802Y-72416863D01*
X93462969Y-72606737D01*
X93778719Y-72737525D01*
X94113917Y-72804200D01*
X94455683Y-72804200D01*
X94790881Y-72737525D01*
X95106631Y-72606737D01*
X95390798Y-72416863D01*
X95632463Y-72175198D01*
X95822337Y-71891031D01*
X95953125Y-71575281D01*
X96019800Y-71240083D01*
X96019800Y-70898317D01*
X95953125Y-70563119D01*
X95822337Y-70247369D01*
X95632463Y-69963202D01*
X95390798Y-69721537D01*
X95106631Y-69531663D01*
X94790881Y-69400875D01*
X94455683Y-69334200D01*
X94113917Y-69334200D01*
X93778719Y-69400875D01*
X93462969Y-69531663D01*
X93178802Y-69721537D01*
X92937137Y-69963202D01*
X92747263Y-70247369D01*
X92616475Y-70563119D01*
X92549800Y-70898317D01*
X92442500Y-70898317D01*
X92442500Y-69201500D01*
X152971603Y-69201500D01*
X152909498Y-130201060D01*
G36*
X138543171Y-97826388D02*
G01*
X138543170Y-110048198D01*
X136445798Y-112145571D01*
X136416800Y-112169369D01*
X136393002Y-112198367D01*
X136393001Y-112198368D01*
X136321826Y-112285094D01*
X136251254Y-112417124D01*
X136231272Y-112483000D01*
X136207798Y-112560384D01*
X136202850Y-112610616D01*
X136066265Y-112701880D01*
X135871680Y-112896465D01*
X135718795Y-113125273D01*
X135613486Y-113379510D01*
X135559800Y-113649408D01*
X135559800Y-113924592D01*
X135613486Y-114194490D01*
X135718795Y-114448727D01*
X135871680Y-114677535D01*
X136066265Y-114872120D01*
X136295073Y-115025005D01*
X136372315Y-115057000D01*
X136295073Y-115088995D01*
X136066265Y-115241880D01*
X135871680Y-115436465D01*
X135718795Y-115665273D01*
X135613486Y-115919510D01*
X135559800Y-116189408D01*
X135559800Y-116464592D01*
X135613486Y-116734490D01*
X135672002Y-116875759D01*
X135637855Y-116909905D01*
X135501920Y-116706465D01*
X135307335Y-116511880D01*
X135078527Y-116358995D01*
X135013312Y-116331982D01*
X135019823Y-116329636D01*
X135135780Y-116267656D01*
X135202760Y-116027565D01*
X134416800Y-115241605D01*
X133630840Y-116027565D01*
X133697820Y-116267656D01*
X133827906Y-116328826D01*
X133755073Y-116358995D01*
X133526265Y-116511880D01*
X133331680Y-116706465D01*
X133302591Y-116750000D01*
X131448948Y-116750000D01*
X131452350Y-116747825D01*
X131462057Y-116743804D01*
X131538242Y-116692899D01*
X131615280Y-116643635D01*
X131622842Y-116636371D01*
X131631575Y-116630536D01*
X131696355Y-116565756D01*
X131762311Y-116502400D01*
X131768310Y-116493801D01*
X131775738Y-116486373D01*
X131826638Y-116410196D01*
X131878964Y-116335193D01*
X131883170Y-116325589D01*
X131889006Y-116316855D01*
X131924073Y-116232196D01*
X131960755Y-116148441D01*
X131963006Y-116138204D01*
X131967027Y-116128497D01*
X131984899Y-116038646D01*
X132004542Y-115949322D01*
X132004753Y-115938835D01*
X132006801Y-115928538D01*
X132006801Y-115836952D01*
X132007613Y-115796560D01*
X132006801Y-115786180D01*
X132006801Y-115724660D01*
X131998868Y-115684780D01*
X131955783Y-115134017D01*
X133014890Y-115134017D01*
X133055878Y-115406133D01*
X133149164Y-115665023D01*
X133211144Y-115780980D01*
X133451235Y-115847960D01*
X134237195Y-115062000D01*
X134596405Y-115062000D01*
X135382365Y-115847960D01*
X135622456Y-115780980D01*
X135739556Y-115531952D01*
X135805823Y-115264865D01*
X135818710Y-114989983D01*
X135777722Y-114717867D01*
X135684436Y-114458977D01*
X135622456Y-114343020D01*
X135382365Y-114276040D01*
X134596405Y-115062000D01*
X134237195Y-115062000D01*
X133451235Y-114276040D01*
X133211144Y-114343020D01*
X133094044Y-114592048D01*
X133027777Y-114859135D01*
X133014890Y-115134017D01*
X131955783Y-115134017D01*
X131843216Y-113695099D01*
X133019800Y-112622214D01*
X133019800Y-112659592D01*
X133073486Y-112929490D01*
X133178795Y-113183727D01*
X133331680Y-113412535D01*
X133526265Y-113607120D01*
X133755073Y-113760005D01*
X133826743Y-113789692D01*
X133813777Y-113794364D01*
X133697820Y-113856344D01*
X133630840Y-114096435D01*
X134416800Y-114882395D01*
X135202760Y-114096435D01*
X135135780Y-113856344D01*
X135000040Y-113792515D01*
X135078527Y-113760005D01*
X135307335Y-113607120D01*
X135501920Y-113412535D01*
X135654805Y-113183727D01*
X135760114Y-112929490D01*
X135813800Y-112659592D01*
X135813800Y-112384408D01*
X135760114Y-112114510D01*
X135654805Y-111860273D01*
X135501920Y-111631465D01*
X135307335Y-111436880D01*
X135078527Y-111283995D01*
X134824290Y-111178686D01*
X134642506Y-111142527D01*
X135253341Y-110585528D01*
X135303267Y-110530108D01*
X135306092Y-110527750D01*
X135312113Y-110520289D01*
X135355608Y-110472007D01*
X135368364Y-110450579D01*
X135446492Y-110353757D01*
X135550250Y-110155716D01*
X135613379Y-109941238D01*
X135628422Y-109774361D01*
X135584499Y-104464862D01*
X135571962Y-104347521D01*
X135589663Y-103802000D01*
X135659928Y-103802000D01*
X135672188Y-103926482D01*
X135708498Y-104046180D01*
X135767463Y-104156494D01*
X135846815Y-104253185D01*
X135943506Y-104332537D01*
X136053820Y-104391502D01*
X136173518Y-104427812D01*
X136298000Y-104440072D01*
X136774250Y-104437000D01*
X136933000Y-104278250D01*
X136933000Y-103167000D01*
X137187000Y-103167000D01*
X137187000Y-104278250D01*
X137345750Y-104437000D01*
X137822000Y-104440072D01*
X137946482Y-104427812D01*
X138066180Y-104391502D01*
X138176494Y-104332537D01*
X138273185Y-104253185D01*
X138352537Y-104156494D01*
X138411502Y-104046180D01*
X138447812Y-103926482D01*
X138460072Y-103802000D01*
X138457000Y-103325750D01*
X138298250Y-103167000D01*
X137187000Y-103167000D01*
X136933000Y-103167000D01*
X135821750Y-103167000D01*
X135663000Y-103325750D01*
X135659928Y-103802000D01*
X135589663Y-103802000D01*
X135627803Y-102626588D01*
X135661848Y-102575636D01*
X135663000Y-102754250D01*
X135821750Y-102913000D01*
X136933000Y-102913000D01*
X136933000Y-102893000D01*
X137187000Y-102893000D01*
X137187000Y-102913000D01*
X138298250Y-102913000D01*
X138457000Y-102754250D01*
X138460072Y-102278000D01*
X138447812Y-102153518D01*
X138411502Y-102033820D01*
X138352537Y-101923506D01*
X138273185Y-101826815D01*
X138176494Y-101747463D01*
X138066180Y-101688498D01*
X137946482Y-101652188D01*
X137862535Y-101643920D01*
X137950535Y-101585120D01*
X138145120Y-101390535D01*
X138298005Y-101161727D01*
X138403314Y-100907490D01*
X138457000Y-100637592D01*
X138457000Y-100362408D01*
X138403314Y-100092510D01*
X138298005Y-99838273D01*
X138145120Y-99609465D01*
X137950535Y-99414880D01*
X137721727Y-99261995D01*
X137644485Y-99230000D01*
X137721727Y-99198005D01*
X137950535Y-99045120D01*
X138145120Y-98850535D01*
X138298005Y-98621727D01*
X138403314Y-98367490D01*
X138457000Y-98097592D01*
X138457000Y-97822408D01*
X138452309Y-97798826D01*
X138543171Y-97826388D01*
G37*
X138543171Y-97826388D02*
X138543170Y-110048198D01*
X136445798Y-112145571D01*
X136416800Y-112169369D01*
X136393002Y-112198367D01*
X136393001Y-112198368D01*
X136321826Y-112285094D01*
X136251254Y-112417124D01*
X136231272Y-112483000D01*
X136207798Y-112560384D01*
X136202850Y-112610616D01*
X136066265Y-112701880D01*
X135871680Y-112896465D01*
X135718795Y-113125273D01*
X135613486Y-113379510D01*
X135559800Y-113649408D01*
X135559800Y-113924592D01*
X135613486Y-114194490D01*
X135718795Y-114448727D01*
X135871680Y-114677535D01*
X136066265Y-114872120D01*
X136295073Y-115025005D01*
X136372315Y-115057000D01*
X136295073Y-115088995D01*
X136066265Y-115241880D01*
X135871680Y-115436465D01*
X135718795Y-115665273D01*
X135613486Y-115919510D01*
X135559800Y-116189408D01*
X135559800Y-116464592D01*
X135613486Y-116734490D01*
X135672002Y-116875759D01*
X135637855Y-116909905D01*
X135501920Y-116706465D01*
X135307335Y-116511880D01*
X135078527Y-116358995D01*
X135013312Y-116331982D01*
X135019823Y-116329636D01*
X135135780Y-116267656D01*
X135202760Y-116027565D01*
X134416800Y-115241605D01*
X133630840Y-116027565D01*
X133697820Y-116267656D01*
X133827906Y-116328826D01*
X133755073Y-116358995D01*
X133526265Y-116511880D01*
X133331680Y-116706465D01*
X133302591Y-116750000D01*
X131448948Y-116750000D01*
X131452350Y-116747825D01*
X131462057Y-116743804D01*
X131538242Y-116692899D01*
X131615280Y-116643635D01*
X131622842Y-116636371D01*
X131631575Y-116630536D01*
X131696355Y-116565756D01*
X131762311Y-116502400D01*
X131768310Y-116493801D01*
X131775738Y-116486373D01*
X131826638Y-116410196D01*
X131878964Y-116335193D01*
X131883170Y-116325589D01*
X131889006Y-116316855D01*
X131924073Y-116232196D01*
X131960755Y-116148441D01*
X131963006Y-116138204D01*
X131967027Y-116128497D01*
X131984899Y-116038646D01*
X132004542Y-115949322D01*
X132004753Y-115938835D01*
X132006801Y-115928538D01*
X132006801Y-115836952D01*
X132007613Y-115796560D01*
X132006801Y-115786180D01*
X132006801Y-115724660D01*
X131998868Y-115684780D01*
X131955783Y-115134017D01*
X133014890Y-115134017D01*
X133055878Y-115406133D01*
X133149164Y-115665023D01*
X133211144Y-115780980D01*
X133451235Y-115847960D01*
X134237195Y-115062000D01*
X134596405Y-115062000D01*
X135382365Y-115847960D01*
X135622456Y-115780980D01*
X135739556Y-115531952D01*
X135805823Y-115264865D01*
X135818710Y-114989983D01*
X135777722Y-114717867D01*
X135684436Y-114458977D01*
X135622456Y-114343020D01*
X135382365Y-114276040D01*
X134596405Y-115062000D01*
X134237195Y-115062000D01*
X133451235Y-114276040D01*
X133211144Y-114343020D01*
X133094044Y-114592048D01*
X133027777Y-114859135D01*
X133014890Y-115134017D01*
X131955783Y-115134017D01*
X131843216Y-113695099D01*
X133019800Y-112622214D01*
X133019800Y-112659592D01*
X133073486Y-112929490D01*
X133178795Y-113183727D01*
X133331680Y-113412535D01*
X133526265Y-113607120D01*
X133755073Y-113760005D01*
X133826743Y-113789692D01*
X133813777Y-113794364D01*
X133697820Y-113856344D01*
X133630840Y-114096435D01*
X134416800Y-114882395D01*
X135202760Y-114096435D01*
X135135780Y-113856344D01*
X135000040Y-113792515D01*
X135078527Y-113760005D01*
X135307335Y-113607120D01*
X135501920Y-113412535D01*
X135654805Y-113183727D01*
X135760114Y-112929490D01*
X135813800Y-112659592D01*
X135813800Y-112384408D01*
X135760114Y-112114510D01*
X135654805Y-111860273D01*
X135501920Y-111631465D01*
X135307335Y-111436880D01*
X135078527Y-111283995D01*
X134824290Y-111178686D01*
X134642506Y-111142527D01*
X135253341Y-110585528D01*
X135303267Y-110530108D01*
X135306092Y-110527750D01*
X135312113Y-110520289D01*
X135355608Y-110472007D01*
X135368364Y-110450579D01*
X135446492Y-110353757D01*
X135550250Y-110155716D01*
X135613379Y-109941238D01*
X135628422Y-109774361D01*
X135584499Y-104464862D01*
X135571962Y-104347521D01*
X135589663Y-103802000D01*
X135659928Y-103802000D01*
X135672188Y-103926482D01*
X135708498Y-104046180D01*
X135767463Y-104156494D01*
X135846815Y-104253185D01*
X135943506Y-104332537D01*
X136053820Y-104391502D01*
X136173518Y-104427812D01*
X136298000Y-104440072D01*
X136774250Y-104437000D01*
X136933000Y-104278250D01*
X136933000Y-103167000D01*
X137187000Y-103167000D01*
X137187000Y-104278250D01*
X137345750Y-104437000D01*
X137822000Y-104440072D01*
X137946482Y-104427812D01*
X138066180Y-104391502D01*
X138176494Y-104332537D01*
X138273185Y-104253185D01*
X138352537Y-104156494D01*
X138411502Y-104046180D01*
X138447812Y-103926482D01*
X138460072Y-103802000D01*
X138457000Y-103325750D01*
X138298250Y-103167000D01*
X137187000Y-103167000D01*
X136933000Y-103167000D01*
X135821750Y-103167000D01*
X135663000Y-103325750D01*
X135659928Y-103802000D01*
X135589663Y-103802000D01*
X135627803Y-102626588D01*
X135661848Y-102575636D01*
X135663000Y-102754250D01*
X135821750Y-102913000D01*
X136933000Y-102913000D01*
X136933000Y-102893000D01*
X137187000Y-102893000D01*
X137187000Y-102913000D01*
X138298250Y-102913000D01*
X138457000Y-102754250D01*
X138460072Y-102278000D01*
X138447812Y-102153518D01*
X138411502Y-102033820D01*
X138352537Y-101923506D01*
X138273185Y-101826815D01*
X138176494Y-101747463D01*
X138066180Y-101688498D01*
X137946482Y-101652188D01*
X137862535Y-101643920D01*
X137950535Y-101585120D01*
X138145120Y-101390535D01*
X138298005Y-101161727D01*
X138403314Y-100907490D01*
X138457000Y-100637592D01*
X138457000Y-100362408D01*
X138403314Y-100092510D01*
X138298005Y-99838273D01*
X138145120Y-99609465D01*
X137950535Y-99414880D01*
X137721727Y-99261995D01*
X137644485Y-99230000D01*
X137721727Y-99198005D01*
X137950535Y-99045120D01*
X138145120Y-98850535D01*
X138298005Y-98621727D01*
X138403314Y-98367490D01*
X138457000Y-98097592D01*
X138457000Y-97822408D01*
X138452309Y-97798826D01*
X138543171Y-97826388D01*
G36*
X128752600Y-110769400D02*
G01*
X128772600Y-110769400D01*
X128772600Y-111023400D01*
X128752600Y-111023400D01*
X128752600Y-111043400D01*
X128498600Y-111043400D01*
X128498600Y-111023400D01*
X128478600Y-111023400D01*
X128478600Y-110769400D01*
X128498600Y-110769400D01*
X128498600Y-110749400D01*
X128752600Y-110749400D01*
X128752600Y-110769400D01*
G37*
X128752600Y-110769400D02*
X128772600Y-110769400D01*
X128772600Y-111023400D01*
X128752600Y-111023400D01*
X128752600Y-111043400D01*
X128498600Y-111043400D01*
X128498600Y-111023400D01*
X128478600Y-111023400D01*
X128478600Y-110769400D01*
X128498600Y-110769400D01*
X128498600Y-110749400D01*
X128752600Y-110749400D01*
X128752600Y-110769400D01*
G36*
X94837495Y-78893727D02*
G01*
X94990380Y-79122535D01*
X95184965Y-79317120D01*
X95413773Y-79470005D01*
X95491015Y-79502000D01*
X95413773Y-79533995D01*
X95184965Y-79686880D01*
X94990380Y-79881465D01*
X94837495Y-80110273D01*
X94805500Y-80187515D01*
X94773505Y-80110273D01*
X94620620Y-79881465D01*
X94426035Y-79686880D01*
X94197227Y-79533995D01*
X94119985Y-79502000D01*
X94197227Y-79470005D01*
X94426035Y-79317120D01*
X94620620Y-79122535D01*
X94773505Y-78893727D01*
X94805500Y-78816485D01*
X94837495Y-78893727D01*
G37*
X94837495Y-78893727D02*
X94990380Y-79122535D01*
X95184965Y-79317120D01*
X95413773Y-79470005D01*
X95491015Y-79502000D01*
X95413773Y-79533995D01*
X95184965Y-79686880D01*
X94990380Y-79881465D01*
X94837495Y-80110273D01*
X94805500Y-80187515D01*
X94773505Y-80110273D01*
X94620620Y-79881465D01*
X94426035Y-79686880D01*
X94197227Y-79533995D01*
X94119985Y-79502000D01*
X94197227Y-79470005D01*
X94426035Y-79317120D01*
X94620620Y-79122535D01*
X94773505Y-78893727D01*
X94805500Y-78816485D01*
X94837495Y-78893727D01*
M02*
