%TF.GenerationSoftware,KiCad,Pcbnew,5.1.6-c6e7f7d~87~ubuntu18.04.1*%
%TF.CreationDate,2021-03-29T12:27:15+02:00*%
%TF.ProjectId,sboxnet2usb,73626f78-6e65-4743-9275-73622e6b6963,rev?*%
%TF.SameCoordinates,Original*%
%TF.FileFunction,Legend,Top*%
%TF.FilePolarity,Positive*%
%FSLAX46Y46*%
G04 Gerber Fmt 4.6, Leading zero omitted, Abs format (unit mm)*
G04 Created by KiCad (PCBNEW 5.1.6-c6e7f7d~87~ubuntu18.04.1) date 2021-03-29 12:27:15*
%MOMM*%
%LPD*%
G01*
G04 APERTURE LIST*
%ADD10C,0.150000*%
%ADD11C,0.120000*%
G04 APERTURE END LIST*
D10*
X212978571Y-80402380D02*
X212978571Y-79402380D01*
X213311904Y-80116666D01*
X213645238Y-79402380D01*
X213645238Y-80402380D01*
X214121428Y-80402380D02*
X214121428Y-79402380D01*
X214550000Y-80354761D02*
X214692857Y-80402380D01*
X214930952Y-80402380D01*
X215026190Y-80354761D01*
X215073809Y-80307142D01*
X215121428Y-80211904D01*
X215121428Y-80116666D01*
X215073809Y-80021428D01*
X215026190Y-79973809D01*
X214930952Y-79926190D01*
X214740476Y-79878571D01*
X214645238Y-79830952D01*
X214597619Y-79783333D01*
X214550000Y-79688095D01*
X214550000Y-79592857D01*
X214597619Y-79497619D01*
X214645238Y-79450000D01*
X214740476Y-79402380D01*
X214978571Y-79402380D01*
X215121428Y-79450000D01*
X215740476Y-79402380D02*
X215930952Y-79402380D01*
X216026190Y-79450000D01*
X216121428Y-79545238D01*
X216169047Y-79735714D01*
X216169047Y-80069047D01*
X216121428Y-80259523D01*
X216026190Y-80354761D01*
X215930952Y-80402380D01*
X215740476Y-80402380D01*
X215645238Y-80354761D01*
X215550000Y-80259523D01*
X215502380Y-80069047D01*
X215502380Y-79735714D01*
X215550000Y-79545238D01*
X215645238Y-79450000D01*
X215740476Y-79402380D01*
X208534523Y-80354761D02*
X208677380Y-80402380D01*
X208915476Y-80402380D01*
X209010714Y-80354761D01*
X209058333Y-80307142D01*
X209105952Y-80211904D01*
X209105952Y-80116666D01*
X209058333Y-80021428D01*
X209010714Y-79973809D01*
X208915476Y-79926190D01*
X208725000Y-79878571D01*
X208629761Y-79830952D01*
X208582142Y-79783333D01*
X208534523Y-79688095D01*
X208534523Y-79592857D01*
X208582142Y-79497619D01*
X208629761Y-79450000D01*
X208725000Y-79402380D01*
X208963095Y-79402380D01*
X209105952Y-79450000D01*
X210105952Y-80307142D02*
X210058333Y-80354761D01*
X209915476Y-80402380D01*
X209820238Y-80402380D01*
X209677380Y-80354761D01*
X209582142Y-80259523D01*
X209534523Y-80164285D01*
X209486904Y-79973809D01*
X209486904Y-79830952D01*
X209534523Y-79640476D01*
X209582142Y-79545238D01*
X209677380Y-79450000D01*
X209820238Y-79402380D01*
X209915476Y-79402380D01*
X210058333Y-79450000D01*
X210105952Y-79497619D01*
X211010714Y-80402380D02*
X210534523Y-80402380D01*
X210534523Y-79402380D01*
X211344047Y-80402380D02*
X211344047Y-79402380D01*
X211915476Y-80402380D02*
X211486904Y-79830952D01*
X211915476Y-79402380D02*
X211344047Y-79973809D01*
X204386904Y-80402380D02*
X204053571Y-79926190D01*
X203815476Y-80402380D02*
X203815476Y-79402380D01*
X204196428Y-79402380D01*
X204291666Y-79450000D01*
X204339285Y-79497619D01*
X204386904Y-79592857D01*
X204386904Y-79735714D01*
X204339285Y-79830952D01*
X204291666Y-79878571D01*
X204196428Y-79926190D01*
X203815476Y-79926190D01*
X205196428Y-80354761D02*
X205101190Y-80402380D01*
X204910714Y-80402380D01*
X204815476Y-80354761D01*
X204767857Y-80259523D01*
X204767857Y-79878571D01*
X204815476Y-79783333D01*
X204910714Y-79735714D01*
X205101190Y-79735714D01*
X205196428Y-79783333D01*
X205244047Y-79878571D01*
X205244047Y-79973809D01*
X204767857Y-80069047D01*
X205625000Y-80354761D02*
X205720238Y-80402380D01*
X205910714Y-80402380D01*
X206005952Y-80354761D01*
X206053571Y-80259523D01*
X206053571Y-80211904D01*
X206005952Y-80116666D01*
X205910714Y-80069047D01*
X205767857Y-80069047D01*
X205672619Y-80021428D01*
X205625000Y-79926190D01*
X205625000Y-79878571D01*
X205672619Y-79783333D01*
X205767857Y-79735714D01*
X205910714Y-79735714D01*
X206005952Y-79783333D01*
X206863095Y-80354761D02*
X206767857Y-80402380D01*
X206577380Y-80402380D01*
X206482142Y-80354761D01*
X206434523Y-80259523D01*
X206434523Y-79878571D01*
X206482142Y-79783333D01*
X206577380Y-79735714D01*
X206767857Y-79735714D01*
X206863095Y-79783333D01*
X206910714Y-79878571D01*
X206910714Y-79973809D01*
X206434523Y-80069047D01*
X207196428Y-79735714D02*
X207577380Y-79735714D01*
X207339285Y-79402380D02*
X207339285Y-80259523D01*
X207386904Y-80354761D01*
X207482142Y-80402380D01*
X207577380Y-80402380D01*
X218114285Y-88796428D02*
X218876190Y-88796428D01*
X218495238Y-89177380D02*
X218495238Y-88415476D01*
X219828571Y-88177380D02*
X219352380Y-88177380D01*
X219304761Y-88653571D01*
X219352380Y-88605952D01*
X219447619Y-88558333D01*
X219685714Y-88558333D01*
X219780952Y-88605952D01*
X219828571Y-88653571D01*
X219876190Y-88748809D01*
X219876190Y-88986904D01*
X219828571Y-89082142D01*
X219780952Y-89129761D01*
X219685714Y-89177380D01*
X219447619Y-89177380D01*
X219352380Y-89129761D01*
X219304761Y-89082142D01*
X220161904Y-88177380D02*
X220495238Y-89177380D01*
X220828571Y-88177380D01*
X208328571Y-93727380D02*
X208328571Y-92727380D01*
X208661904Y-93441666D01*
X208995238Y-92727380D01*
X208995238Y-93727380D01*
X209661904Y-92727380D02*
X209852380Y-92727380D01*
X209947619Y-92775000D01*
X210042857Y-92870238D01*
X210090476Y-93060714D01*
X210090476Y-93394047D01*
X210042857Y-93584523D01*
X209947619Y-93679761D01*
X209852380Y-93727380D01*
X209661904Y-93727380D01*
X209566666Y-93679761D01*
X209471428Y-93584523D01*
X209423809Y-93394047D01*
X209423809Y-93060714D01*
X209471428Y-92870238D01*
X209566666Y-92775000D01*
X209661904Y-92727380D01*
X210471428Y-93679761D02*
X210614285Y-93727380D01*
X210852380Y-93727380D01*
X210947619Y-93679761D01*
X210995238Y-93632142D01*
X211042857Y-93536904D01*
X211042857Y-93441666D01*
X210995238Y-93346428D01*
X210947619Y-93298809D01*
X210852380Y-93251190D01*
X210661904Y-93203571D01*
X210566666Y-93155952D01*
X210519047Y-93108333D01*
X210471428Y-93013095D01*
X210471428Y-92917857D01*
X210519047Y-92822619D01*
X210566666Y-92775000D01*
X210661904Y-92727380D01*
X210900000Y-92727380D01*
X211042857Y-92775000D01*
X211471428Y-93727380D02*
X211471428Y-92727380D01*
X205413095Y-90600000D02*
X205317857Y-90552380D01*
X205175000Y-90552380D01*
X205032142Y-90600000D01*
X204936904Y-90695238D01*
X204889285Y-90790476D01*
X204841666Y-90980952D01*
X204841666Y-91123809D01*
X204889285Y-91314285D01*
X204936904Y-91409523D01*
X205032142Y-91504761D01*
X205175000Y-91552380D01*
X205270238Y-91552380D01*
X205413095Y-91504761D01*
X205460714Y-91457142D01*
X205460714Y-91123809D01*
X205270238Y-91123809D01*
X205889285Y-91552380D02*
X205889285Y-90552380D01*
X206460714Y-91552380D01*
X206460714Y-90552380D01*
X206936904Y-91552380D02*
X206936904Y-90552380D01*
X207175000Y-90552380D01*
X207317857Y-90600000D01*
X207413095Y-90695238D01*
X207460714Y-90790476D01*
X207508333Y-90980952D01*
X207508333Y-91123809D01*
X207460714Y-91314285D01*
X207413095Y-91409523D01*
X207317857Y-91504761D01*
X207175000Y-91552380D01*
X206936904Y-91552380D01*
X235301190Y-87252380D02*
X235539285Y-88252380D01*
X235729761Y-87538095D01*
X235920238Y-88252380D01*
X236158333Y-87252380D01*
X237729761Y-87585714D02*
X237729761Y-88395238D01*
X237682142Y-88490476D01*
X237634523Y-88538095D01*
X237539285Y-88585714D01*
X237396428Y-88585714D01*
X237301190Y-88538095D01*
X237729761Y-88204761D02*
X237634523Y-88252380D01*
X237444047Y-88252380D01*
X237348809Y-88204761D01*
X237301190Y-88157142D01*
X237253571Y-88061904D01*
X237253571Y-87776190D01*
X237301190Y-87680952D01*
X237348809Y-87633333D01*
X237444047Y-87585714D01*
X237634523Y-87585714D01*
X237729761Y-87633333D01*
X238348809Y-88252380D02*
X238253571Y-88204761D01*
X238205952Y-88109523D01*
X238205952Y-87252380D01*
X230523809Y-88302380D02*
X230190476Y-87826190D01*
X229952380Y-88302380D02*
X229952380Y-87302380D01*
X230333333Y-87302380D01*
X230428571Y-87350000D01*
X230476190Y-87397619D01*
X230523809Y-87492857D01*
X230523809Y-87635714D01*
X230476190Y-87730952D01*
X230428571Y-87778571D01*
X230333333Y-87826190D01*
X229952380Y-87826190D01*
X232142857Y-87635714D02*
X232142857Y-88445238D01*
X232095238Y-88540476D01*
X232047619Y-88588095D01*
X231952380Y-88635714D01*
X231809523Y-88635714D01*
X231714285Y-88588095D01*
X232142857Y-88254761D02*
X232047619Y-88302380D01*
X231857142Y-88302380D01*
X231761904Y-88254761D01*
X231714285Y-88207142D01*
X231666666Y-88111904D01*
X231666666Y-87826190D01*
X231714285Y-87730952D01*
X231761904Y-87683333D01*
X231857142Y-87635714D01*
X232047619Y-87635714D01*
X232142857Y-87683333D01*
X232619047Y-87635714D02*
X232619047Y-88302380D01*
X232619047Y-87730952D02*
X232666666Y-87683333D01*
X232761904Y-87635714D01*
X232904761Y-87635714D01*
X233000000Y-87683333D01*
X233047619Y-87778571D01*
X233047619Y-88302380D01*
X224610714Y-87891666D02*
X225086904Y-87891666D01*
X224515476Y-88177380D02*
X224848809Y-87177380D01*
X225182142Y-88177380D01*
X226277380Y-88177380D02*
X226277380Y-87510714D01*
X226277380Y-87701190D02*
X226325000Y-87605952D01*
X226372619Y-87558333D01*
X226467857Y-87510714D01*
X226563095Y-87510714D01*
X226753571Y-87510714D02*
X227134523Y-87510714D01*
X226896428Y-87177380D02*
X226896428Y-88034523D01*
X226944047Y-88129761D01*
X227039285Y-88177380D01*
X227134523Y-88177380D01*
X179511904Y-124652380D02*
X179511904Y-123985714D01*
X179511904Y-124176190D02*
X179559523Y-124080952D01*
X179607142Y-124033333D01*
X179702380Y-123985714D01*
X179797619Y-123985714D01*
X180273809Y-124652380D02*
X180178571Y-124604761D01*
X180130952Y-124557142D01*
X180083333Y-124461904D01*
X180083333Y-124176190D01*
X180130952Y-124080952D01*
X180178571Y-124033333D01*
X180273809Y-123985714D01*
X180416666Y-123985714D01*
X180511904Y-124033333D01*
X180559523Y-124080952D01*
X180607142Y-124176190D01*
X180607142Y-124461904D01*
X180559523Y-124557142D01*
X180511904Y-124604761D01*
X180416666Y-124652380D01*
X180273809Y-124652380D01*
X180892857Y-123985714D02*
X181273809Y-123985714D01*
X181035714Y-123652380D02*
X181035714Y-124509523D01*
X181083333Y-124604761D01*
X181178571Y-124652380D01*
X181273809Y-124652380D01*
X182369047Y-124652380D02*
X182369047Y-123652380D01*
X182750000Y-123652380D01*
X182845238Y-123700000D01*
X182892857Y-123747619D01*
X182940476Y-123842857D01*
X182940476Y-123985714D01*
X182892857Y-124080952D01*
X182845238Y-124128571D01*
X182750000Y-124176190D01*
X182369047Y-124176190D01*
X183559523Y-123652380D02*
X183750000Y-123652380D01*
X183845238Y-123700000D01*
X183940476Y-123795238D01*
X183988095Y-123985714D01*
X183988095Y-124319047D01*
X183940476Y-124509523D01*
X183845238Y-124604761D01*
X183750000Y-124652380D01*
X183559523Y-124652380D01*
X183464285Y-124604761D01*
X183369047Y-124509523D01*
X183321428Y-124319047D01*
X183321428Y-123985714D01*
X183369047Y-123795238D01*
X183464285Y-123700000D01*
X183559523Y-123652380D01*
X184321428Y-123652380D02*
X184559523Y-124652380D01*
X184750000Y-123938095D01*
X184940476Y-124652380D01*
X185178571Y-123652380D01*
X185559523Y-124128571D02*
X185892857Y-124128571D01*
X186035714Y-124652380D02*
X185559523Y-124652380D01*
X185559523Y-123652380D01*
X186035714Y-123652380D01*
X187035714Y-124652380D02*
X186702380Y-124176190D01*
X186464285Y-124652380D02*
X186464285Y-123652380D01*
X186845238Y-123652380D01*
X186940476Y-123700000D01*
X186988095Y-123747619D01*
X187035714Y-123842857D01*
X187035714Y-123985714D01*
X186988095Y-124080952D01*
X186940476Y-124128571D01*
X186845238Y-124176190D01*
X186464285Y-124176190D01*
X170088095Y-112125000D02*
X169992857Y-112077380D01*
X169850000Y-112077380D01*
X169707142Y-112125000D01*
X169611904Y-112220238D01*
X169564285Y-112315476D01*
X169516666Y-112505952D01*
X169516666Y-112648809D01*
X169564285Y-112839285D01*
X169611904Y-112934523D01*
X169707142Y-113029761D01*
X169850000Y-113077380D01*
X169945238Y-113077380D01*
X170088095Y-113029761D01*
X170135714Y-112982142D01*
X170135714Y-112648809D01*
X169945238Y-112648809D01*
X170564285Y-113077380D02*
X170564285Y-112077380D01*
X171135714Y-113077380D01*
X171135714Y-112077380D01*
X171611904Y-113077380D02*
X171611904Y-112077380D01*
X171850000Y-112077380D01*
X171992857Y-112125000D01*
X172088095Y-112220238D01*
X172135714Y-112315476D01*
X172183333Y-112505952D01*
X172183333Y-112648809D01*
X172135714Y-112839285D01*
X172088095Y-112934523D01*
X171992857Y-113029761D01*
X171850000Y-113077380D01*
X171611904Y-113077380D01*
X154590476Y-112771428D02*
X155352380Y-112771428D01*
X154971428Y-113152380D02*
X154971428Y-112390476D01*
X155685714Y-112152380D02*
X156019047Y-113152380D01*
X156352380Y-112152380D01*
X177032142Y-87807142D02*
X176984523Y-87854761D01*
X176841666Y-87902380D01*
X176746428Y-87902380D01*
X176603571Y-87854761D01*
X176508333Y-87759523D01*
X176460714Y-87664285D01*
X176413095Y-87473809D01*
X176413095Y-87330952D01*
X176460714Y-87140476D01*
X176508333Y-87045238D01*
X176603571Y-86950000D01*
X176746428Y-86902380D01*
X176841666Y-86902380D01*
X176984523Y-86950000D01*
X177032142Y-86997619D01*
X177413095Y-87616666D02*
X177889285Y-87616666D01*
X177317857Y-87902380D02*
X177651190Y-86902380D01*
X177984523Y-87902380D01*
X178317857Y-87902380D02*
X178317857Y-86902380D01*
X178889285Y-87902380D01*
X178889285Y-86902380D01*
X175288095Y-102952380D02*
X175288095Y-101952380D01*
X175526190Y-101952380D01*
X175669047Y-102000000D01*
X175764285Y-102095238D01*
X175811904Y-102190476D01*
X175859523Y-102380952D01*
X175859523Y-102523809D01*
X175811904Y-102714285D01*
X175764285Y-102809523D01*
X175669047Y-102904761D01*
X175526190Y-102952380D01*
X175288095Y-102952380D01*
X176859523Y-102857142D02*
X176811904Y-102904761D01*
X176669047Y-102952380D01*
X176573809Y-102952380D01*
X176430952Y-102904761D01*
X176335714Y-102809523D01*
X176288095Y-102714285D01*
X176240476Y-102523809D01*
X176240476Y-102380952D01*
X176288095Y-102190476D01*
X176335714Y-102095238D01*
X176430952Y-102000000D01*
X176573809Y-101952380D01*
X176669047Y-101952380D01*
X176811904Y-102000000D01*
X176859523Y-102047619D01*
X177859523Y-102857142D02*
X177811904Y-102904761D01*
X177669047Y-102952380D01*
X177573809Y-102952380D01*
X177430952Y-102904761D01*
X177335714Y-102809523D01*
X177288095Y-102714285D01*
X177240476Y-102523809D01*
X177240476Y-102380952D01*
X177288095Y-102190476D01*
X177335714Y-102095238D01*
X177430952Y-102000000D01*
X177573809Y-101952380D01*
X177669047Y-101952380D01*
X177811904Y-102000000D01*
X177859523Y-102047619D01*
X175390476Y-100977380D02*
X174819047Y-100977380D01*
X175104761Y-100977380D02*
X175104761Y-99977380D01*
X175009523Y-100120238D01*
X174914285Y-100215476D01*
X174819047Y-100263095D01*
X175771428Y-100072619D02*
X175819047Y-100025000D01*
X175914285Y-99977380D01*
X176152380Y-99977380D01*
X176247619Y-100025000D01*
X176295238Y-100072619D01*
X176342857Y-100167857D01*
X176342857Y-100263095D01*
X176295238Y-100405952D01*
X175723809Y-100977380D01*
X176342857Y-100977380D01*
X176961904Y-99977380D02*
X177057142Y-99977380D01*
X177152380Y-100025000D01*
X177200000Y-100072619D01*
X177247619Y-100167857D01*
X177295238Y-100358333D01*
X177295238Y-100596428D01*
X177247619Y-100786904D01*
X177200000Y-100882142D01*
X177152380Y-100929761D01*
X177057142Y-100977380D01*
X176961904Y-100977380D01*
X176866666Y-100929761D01*
X176819047Y-100882142D01*
X176771428Y-100786904D01*
X176723809Y-100596428D01*
X176723809Y-100358333D01*
X176771428Y-100167857D01*
X176819047Y-100072619D01*
X176866666Y-100025000D01*
X176961904Y-99977380D01*
X177914285Y-99977380D02*
X178104761Y-99977380D01*
X178200000Y-100025000D01*
X178295238Y-100120238D01*
X178342857Y-100310714D01*
X178342857Y-100644047D01*
X178295238Y-100834523D01*
X178200000Y-100929761D01*
X178104761Y-100977380D01*
X177914285Y-100977380D01*
X177819047Y-100929761D01*
X177723809Y-100834523D01*
X177676190Y-100644047D01*
X177676190Y-100310714D01*
X177723809Y-100120238D01*
X177819047Y-100025000D01*
X177914285Y-99977380D01*
X178771428Y-100977380D02*
X178771428Y-99977380D01*
X179200000Y-100977380D02*
X179200000Y-100453571D01*
X179152380Y-100358333D01*
X179057142Y-100310714D01*
X178914285Y-100310714D01*
X178819047Y-100358333D01*
X178771428Y-100405952D01*
X179676190Y-100977380D02*
X179676190Y-100310714D01*
X179676190Y-100405952D02*
X179723809Y-100358333D01*
X179819047Y-100310714D01*
X179961904Y-100310714D01*
X180057142Y-100358333D01*
X180104761Y-100453571D01*
X180104761Y-100977380D01*
X180104761Y-100453571D02*
X180152380Y-100358333D01*
X180247619Y-100310714D01*
X180390476Y-100310714D01*
X180485714Y-100358333D01*
X180533333Y-100453571D01*
X180533333Y-100977380D01*
X176490476Y-85977380D02*
X175919047Y-85977380D01*
X176204761Y-85977380D02*
X176204761Y-84977380D01*
X176109523Y-85120238D01*
X176014285Y-85215476D01*
X175919047Y-85263095D01*
X176871428Y-85072619D02*
X176919047Y-85025000D01*
X177014285Y-84977380D01*
X177252380Y-84977380D01*
X177347619Y-85025000D01*
X177395238Y-85072619D01*
X177442857Y-85167857D01*
X177442857Y-85263095D01*
X177395238Y-85405952D01*
X176823809Y-85977380D01*
X177442857Y-85977380D01*
X178061904Y-84977380D02*
X178157142Y-84977380D01*
X178252380Y-85025000D01*
X178300000Y-85072619D01*
X178347619Y-85167857D01*
X178395238Y-85358333D01*
X178395238Y-85596428D01*
X178347619Y-85786904D01*
X178300000Y-85882142D01*
X178252380Y-85929761D01*
X178157142Y-85977380D01*
X178061904Y-85977380D01*
X177966666Y-85929761D01*
X177919047Y-85882142D01*
X177871428Y-85786904D01*
X177823809Y-85596428D01*
X177823809Y-85358333D01*
X177871428Y-85167857D01*
X177919047Y-85072619D01*
X177966666Y-85025000D01*
X178061904Y-84977380D01*
X179014285Y-84977380D02*
X179204761Y-84977380D01*
X179300000Y-85025000D01*
X179395238Y-85120238D01*
X179442857Y-85310714D01*
X179442857Y-85644047D01*
X179395238Y-85834523D01*
X179300000Y-85929761D01*
X179204761Y-85977380D01*
X179014285Y-85977380D01*
X178919047Y-85929761D01*
X178823809Y-85834523D01*
X178776190Y-85644047D01*
X178776190Y-85310714D01*
X178823809Y-85120238D01*
X178919047Y-85025000D01*
X179014285Y-84977380D01*
X179871428Y-85977380D02*
X179871428Y-84977380D01*
X180300000Y-85977380D02*
X180300000Y-85453571D01*
X180252380Y-85358333D01*
X180157142Y-85310714D01*
X180014285Y-85310714D01*
X179919047Y-85358333D01*
X179871428Y-85405952D01*
X180776190Y-85977380D02*
X180776190Y-85310714D01*
X180776190Y-85405952D02*
X180823809Y-85358333D01*
X180919047Y-85310714D01*
X181061904Y-85310714D01*
X181157142Y-85358333D01*
X181204761Y-85453571D01*
X181204761Y-85977380D01*
X181204761Y-85453571D02*
X181252380Y-85358333D01*
X181347619Y-85310714D01*
X181490476Y-85310714D01*
X181585714Y-85358333D01*
X181633333Y-85453571D01*
X181633333Y-85977380D01*
D11*
X253800000Y-104000000D02*
X239700000Y-104000000D01*
%TO.C,J1*%
X262080000Y-110560000D02*
X253970000Y-110560000D01*
X262080000Y-110560000D02*
X262080000Y-111210000D01*
X247120000Y-110560000D02*
X247120000Y-97240000D01*
X247120000Y-110560000D02*
X250450000Y-110560000D01*
X247120000Y-97240000D02*
X250450000Y-97240000D01*
X262600000Y-96590000D02*
X262080000Y-96590000D01*
X262600000Y-111210000D02*
X262600000Y-96590000D01*
X253970000Y-97240000D02*
X262080000Y-97240000D01*
X262080000Y-111210000D02*
X262600000Y-111210000D01*
X262080000Y-96590000D02*
X262080000Y-97240000D01*
X246900000Y-108300000D02*
X246900000Y-106500000D01*
%TO.C,J3*%
X145700000Y-96480000D02*
X145700000Y-111720000D01*
X145700000Y-96480000D02*
X166270000Y-96480000D01*
X166270000Y-96480000D02*
X166270000Y-111720000D01*
X166270000Y-111720000D02*
X145700000Y-111720000D01*
%TO.C,J4*%
X145800000Y-80380000D02*
X145800000Y-95620000D01*
X145800000Y-80380000D02*
X166370000Y-80380000D01*
X166370000Y-80380000D02*
X166370000Y-95620000D01*
X166370000Y-95620000D02*
X145800000Y-95620000D01*
%TO.C,J6*%
X175130000Y-89705000D02*
X173800000Y-89705000D01*
X175130000Y-88375000D02*
X175130000Y-89705000D01*
X175130000Y-87105000D02*
X172470000Y-87105000D01*
X172470000Y-87105000D02*
X172470000Y-84505000D01*
X175130000Y-87105000D02*
X175130000Y-84505000D01*
X175130000Y-84505000D02*
X172470000Y-84505000D01*
%TO.C,J7*%
X149200000Y-116400000D02*
X149200000Y-113400000D01*
X149200000Y-113400000D02*
X152200000Y-113400000D01*
X149580000Y-113780000D02*
X159820000Y-113780000D01*
X159820000Y-113780000D02*
X159820000Y-126520000D01*
X149580000Y-126520000D02*
X159820000Y-126520000D01*
X149580000Y-113780000D02*
X149580000Y-126520000D01*
X149580000Y-113780000D02*
X159820000Y-113780000D01*
X159820000Y-113780000D02*
X159820000Y-126520000D01*
X149580000Y-126520000D02*
X159820000Y-126520000D01*
X149580000Y-113780000D02*
X149580000Y-126520000D01*
%TO.C,J2*%
X194000000Y-126600000D02*
X198400000Y-126600000D01*
X198200000Y-126600000D02*
X198500000Y-126600000D01*
X194000000Y-112100000D02*
X198500000Y-112100000D01*
X198500000Y-126600000D02*
X198500000Y-112100000D01*
X194000000Y-112100000D02*
X189500000Y-112100000D01*
X194000000Y-126600000D02*
X189500000Y-126600000D01*
X189500000Y-126600000D02*
X189500000Y-112100000D01*
%TO.C,J8*%
X159800000Y-116400000D02*
X159800000Y-113400000D01*
X159800000Y-113400000D02*
X162800000Y-113400000D01*
X160180000Y-113780000D02*
X170420000Y-113780000D01*
X170420000Y-113780000D02*
X170420000Y-126520000D01*
X160180000Y-126520000D02*
X170420000Y-126520000D01*
X160180000Y-113780000D02*
X160180000Y-126520000D01*
X160180000Y-113780000D02*
X170420000Y-113780000D01*
X170420000Y-113780000D02*
X170420000Y-126520000D01*
X160180000Y-126520000D02*
X170420000Y-126520000D01*
X160180000Y-113780000D02*
X160180000Y-126520000D01*
%TO.C,Y1*%
X238725000Y-109815000D02*
X238725000Y-116065000D01*
X233675000Y-109815000D02*
X233675000Y-116065000D01*
X233675000Y-116065000D02*
G75*
G03*
X238725000Y-116065000I2525000J0D01*
G01*
X233675000Y-109815000D02*
G75*
G02*
X238725000Y-109815000I2525000J0D01*
G01*
%TO.C,U4*%
X196710000Y-96570000D02*
X195060000Y-96570000D01*
X195060000Y-96570000D02*
X195060000Y-106850000D01*
X195060000Y-106850000D02*
X200360000Y-106850000D01*
X200360000Y-106850000D02*
X200360000Y-96570000D01*
X200360000Y-96570000D02*
X198710000Y-96570000D01*
X198710000Y-96570000D02*
G75*
G02*
X196710000Y-96570000I-1000000J0D01*
G01*
%TO.C,U3*%
X198690000Y-94230000D02*
X200340000Y-94230000D01*
X200340000Y-94230000D02*
X200340000Y-83950000D01*
X200340000Y-83950000D02*
X195040000Y-83950000D01*
X195040000Y-83950000D02*
X195040000Y-94230000D01*
X195040000Y-94230000D02*
X196690000Y-94230000D01*
X196690000Y-94230000D02*
G75*
G02*
X198690000Y-94230000I1000000J0D01*
G01*
%TO.C,U2*%
X217700000Y-80600000D02*
X217700000Y-87600000D01*
X213200000Y-80600000D02*
X217700000Y-80600000D01*
X217700000Y-87600000D02*
X217700000Y-89600000D01*
X217700000Y-89600000D02*
X205200000Y-89600000D01*
X205200000Y-80600000D02*
X207700000Y-80600000D01*
X205200000Y-80600000D02*
X203200000Y-80600000D01*
X203200000Y-80600000D02*
X203200000Y-89600000D01*
X203200000Y-89600000D02*
X205200000Y-89600000D01*
%TO.C,D3*%
X224931134Y-82653850D02*
G75*
G02*
X226800000Y-82713239I968866J1053850D01*
G01*
%TO.C,D2*%
X230231134Y-82853850D02*
G75*
G02*
X232100000Y-82913239I968866J1053850D01*
G01*
%TO.C,D1*%
X235831134Y-82853850D02*
G75*
G02*
X237700000Y-82913239I968866J1053850D01*
G01*
%TO.C,D4*%
X176153850Y-124818866D02*
G75*
G02*
X176213239Y-122950000I-1053850J968866D01*
G01*
%TO.C,J1*%
D10*
X245762380Y-104233333D02*
X246476666Y-104233333D01*
X246619523Y-104280952D01*
X246714761Y-104376190D01*
X246762380Y-104519047D01*
X246762380Y-104614285D01*
X246762380Y-103233333D02*
X246762380Y-103804761D01*
X246762380Y-103519047D02*
X245762380Y-103519047D01*
X245905238Y-103614285D01*
X246000476Y-103709523D01*
X246048095Y-103804761D01*
%TO.C,REF\u002A\u002A*%
X252266666Y-121352380D02*
X251933333Y-120876190D01*
X251695238Y-121352380D02*
X251695238Y-120352380D01*
X252076190Y-120352380D01*
X252171428Y-120400000D01*
X252219047Y-120447619D01*
X252266666Y-120542857D01*
X252266666Y-120685714D01*
X252219047Y-120780952D01*
X252171428Y-120828571D01*
X252076190Y-120876190D01*
X251695238Y-120876190D01*
X252695238Y-120828571D02*
X253028571Y-120828571D01*
X253171428Y-121352380D02*
X252695238Y-121352380D01*
X252695238Y-120352380D01*
X253171428Y-120352380D01*
X253933333Y-120828571D02*
X253600000Y-120828571D01*
X253600000Y-121352380D02*
X253600000Y-120352380D01*
X254076190Y-120352380D01*
X254600000Y-120352380D02*
X254600000Y-120590476D01*
X254361904Y-120495238D02*
X254600000Y-120590476D01*
X254838095Y-120495238D01*
X254457142Y-120780952D02*
X254600000Y-120590476D01*
X254742857Y-120780952D01*
X255361904Y-120352380D02*
X255361904Y-120590476D01*
X255123809Y-120495238D02*
X255361904Y-120590476D01*
X255600000Y-120495238D01*
X255219047Y-120780952D02*
X255361904Y-120590476D01*
X255504761Y-120780952D01*
X252166666Y-78752380D02*
X251833333Y-78276190D01*
X251595238Y-78752380D02*
X251595238Y-77752380D01*
X251976190Y-77752380D01*
X252071428Y-77800000D01*
X252119047Y-77847619D01*
X252166666Y-77942857D01*
X252166666Y-78085714D01*
X252119047Y-78180952D01*
X252071428Y-78228571D01*
X251976190Y-78276190D01*
X251595238Y-78276190D01*
X252595238Y-78228571D02*
X252928571Y-78228571D01*
X253071428Y-78752380D02*
X252595238Y-78752380D01*
X252595238Y-77752380D01*
X253071428Y-77752380D01*
X253833333Y-78228571D02*
X253500000Y-78228571D01*
X253500000Y-78752380D02*
X253500000Y-77752380D01*
X253976190Y-77752380D01*
X254500000Y-77752380D02*
X254500000Y-77990476D01*
X254261904Y-77895238D02*
X254500000Y-77990476D01*
X254738095Y-77895238D01*
X254357142Y-78180952D02*
X254500000Y-77990476D01*
X254642857Y-78180952D01*
X255261904Y-77752380D02*
X255261904Y-77990476D01*
X255023809Y-77895238D02*
X255261904Y-77990476D01*
X255500000Y-77895238D01*
X255119047Y-78180952D02*
X255261904Y-77990476D01*
X255404761Y-78180952D01*
X203566666Y-117252380D02*
X203233333Y-116776190D01*
X202995238Y-117252380D02*
X202995238Y-116252380D01*
X203376190Y-116252380D01*
X203471428Y-116300000D01*
X203519047Y-116347619D01*
X203566666Y-116442857D01*
X203566666Y-116585714D01*
X203519047Y-116680952D01*
X203471428Y-116728571D01*
X203376190Y-116776190D01*
X202995238Y-116776190D01*
X203995238Y-116728571D02*
X204328571Y-116728571D01*
X204471428Y-117252380D02*
X203995238Y-117252380D01*
X203995238Y-116252380D01*
X204471428Y-116252380D01*
X205233333Y-116728571D02*
X204900000Y-116728571D01*
X204900000Y-117252380D02*
X204900000Y-116252380D01*
X205376190Y-116252380D01*
X205900000Y-116252380D02*
X205900000Y-116490476D01*
X205661904Y-116395238D02*
X205900000Y-116490476D01*
X206138095Y-116395238D01*
X205757142Y-116680952D02*
X205900000Y-116490476D01*
X206042857Y-116680952D01*
X206661904Y-116252380D02*
X206661904Y-116490476D01*
X206423809Y-116395238D02*
X206661904Y-116490476D01*
X206900000Y-116395238D01*
X206519047Y-116680952D02*
X206661904Y-116490476D01*
X206804761Y-116680952D01*
%TO.C,J3*%
X159523340Y-104679713D02*
X160237626Y-104679713D01*
X160380483Y-104727332D01*
X160475721Y-104822570D01*
X160523340Y-104965427D01*
X160523340Y-105060665D01*
X159523340Y-104298760D02*
X159523340Y-103679713D01*
X159904293Y-104013046D01*
X159904293Y-103870189D01*
X159951912Y-103774951D01*
X159999531Y-103727332D01*
X160094769Y-103679713D01*
X160332864Y-103679713D01*
X160428102Y-103727332D01*
X160475721Y-103774951D01*
X160523340Y-103870189D01*
X160523340Y-104155903D01*
X160475721Y-104251141D01*
X160428102Y-104298760D01*
%TO.C,J4*%
X159837626Y-87698760D02*
X159837626Y-88413046D01*
X159790007Y-88555903D01*
X159694769Y-88651141D01*
X159551912Y-88698760D01*
X159456674Y-88698760D01*
X160742388Y-88032094D02*
X160742388Y-88698760D01*
X160504293Y-87651141D02*
X160266198Y-88365427D01*
X160885245Y-88365427D01*
%TO.C,J6*%
X173466666Y-90157380D02*
X173466666Y-90871666D01*
X173419047Y-91014523D01*
X173323809Y-91109761D01*
X173180952Y-91157380D01*
X173085714Y-91157380D01*
X174371428Y-90157380D02*
X174180952Y-90157380D01*
X174085714Y-90205000D01*
X174038095Y-90252619D01*
X173942857Y-90395476D01*
X173895238Y-90585952D01*
X173895238Y-90966904D01*
X173942857Y-91062142D01*
X173990476Y-91109761D01*
X174085714Y-91157380D01*
X174276190Y-91157380D01*
X174371428Y-91109761D01*
X174419047Y-91062142D01*
X174466666Y-90966904D01*
X174466666Y-90728809D01*
X174419047Y-90633571D01*
X174371428Y-90585952D01*
X174276190Y-90538333D01*
X174085714Y-90538333D01*
X173990476Y-90585952D01*
X173942857Y-90633571D01*
X173895238Y-90728809D01*
%TO.C,J7*%
X152416666Y-115402380D02*
X152416666Y-116116666D01*
X152369047Y-116259523D01*
X152273809Y-116354761D01*
X152130952Y-116402380D01*
X152035714Y-116402380D01*
X152797619Y-115402380D02*
X153464285Y-115402380D01*
X153035714Y-116402380D01*
%TO.C,J2*%
X201352380Y-107733333D02*
X202066666Y-107733333D01*
X202209523Y-107780952D01*
X202304761Y-107876190D01*
X202352380Y-108019047D01*
X202352380Y-108114285D01*
X201447619Y-107304761D02*
X201400000Y-107257142D01*
X201352380Y-107161904D01*
X201352380Y-106923809D01*
X201400000Y-106828571D01*
X201447619Y-106780952D01*
X201542857Y-106733333D01*
X201638095Y-106733333D01*
X201780952Y-106780952D01*
X202352380Y-107352380D01*
X202352380Y-106733333D01*
%TO.C,J8*%
X162266666Y-115677380D02*
X162266666Y-116391666D01*
X162219047Y-116534523D01*
X162123809Y-116629761D01*
X161980952Y-116677380D01*
X161885714Y-116677380D01*
X162885714Y-116105952D02*
X162790476Y-116058333D01*
X162742857Y-116010714D01*
X162695238Y-115915476D01*
X162695238Y-115867857D01*
X162742857Y-115772619D01*
X162790476Y-115725000D01*
X162885714Y-115677380D01*
X163076190Y-115677380D01*
X163171428Y-115725000D01*
X163219047Y-115772619D01*
X163266666Y-115867857D01*
X163266666Y-115915476D01*
X163219047Y-116010714D01*
X163171428Y-116058333D01*
X163076190Y-116105952D01*
X162885714Y-116105952D01*
X162790476Y-116153571D01*
X162742857Y-116201190D01*
X162695238Y-116296428D01*
X162695238Y-116486904D01*
X162742857Y-116582142D01*
X162790476Y-116629761D01*
X162885714Y-116677380D01*
X163076190Y-116677380D01*
X163171428Y-116629761D01*
X163219047Y-116582142D01*
X163266666Y-116486904D01*
X163266666Y-116296428D01*
X163219047Y-116201190D01*
X163171428Y-116153571D01*
X163076190Y-116105952D01*
%TO.C,Y1*%
X239701190Y-113416190D02*
X240177380Y-113416190D01*
X239177380Y-113749523D02*
X239701190Y-113416190D01*
X239177380Y-113082857D01*
X240177380Y-112225714D02*
X240177380Y-112797142D01*
X240177380Y-112511428D02*
X239177380Y-112511428D01*
X239320238Y-112606666D01*
X239415476Y-112701904D01*
X239463095Y-112797142D01*
%TO.C,U4*%
X196948095Y-95022380D02*
X196948095Y-95831904D01*
X196995714Y-95927142D01*
X197043333Y-95974761D01*
X197138571Y-96022380D01*
X197329047Y-96022380D01*
X197424285Y-95974761D01*
X197471904Y-95927142D01*
X197519523Y-95831904D01*
X197519523Y-95022380D01*
X198424285Y-95355714D02*
X198424285Y-96022380D01*
X198186190Y-94974761D02*
X197948095Y-95689047D01*
X198567142Y-95689047D01*
%TO.C,U3*%
X196928095Y-94682380D02*
X196928095Y-95491904D01*
X196975714Y-95587142D01*
X197023333Y-95634761D01*
X197118571Y-95682380D01*
X197309047Y-95682380D01*
X197404285Y-95634761D01*
X197451904Y-95587142D01*
X197499523Y-95491904D01*
X197499523Y-94682380D01*
X197880476Y-94682380D02*
X198499523Y-94682380D01*
X198166190Y-95063333D01*
X198309047Y-95063333D01*
X198404285Y-95110952D01*
X198451904Y-95158571D01*
X198499523Y-95253809D01*
X198499523Y-95491904D01*
X198451904Y-95587142D01*
X198404285Y-95634761D01*
X198309047Y-95682380D01*
X198023333Y-95682380D01*
X197928095Y-95634761D01*
X197880476Y-95587142D01*
%TO.C,U2*%
X201002380Y-82486904D02*
X201811904Y-82486904D01*
X201907142Y-82439285D01*
X201954761Y-82391666D01*
X202002380Y-82296428D01*
X202002380Y-82105952D01*
X201954761Y-82010714D01*
X201907142Y-81963095D01*
X201811904Y-81915476D01*
X201002380Y-81915476D01*
X201097619Y-81486904D02*
X201050000Y-81439285D01*
X201002380Y-81344047D01*
X201002380Y-81105952D01*
X201050000Y-81010714D01*
X201097619Y-80963095D01*
X201192857Y-80915476D01*
X201288095Y-80915476D01*
X201430952Y-80963095D01*
X202002380Y-81534523D01*
X202002380Y-80915476D01*
%TO.C,D3*%
X228822380Y-83608095D02*
X227822380Y-83608095D01*
X227822380Y-83370000D01*
X227870000Y-83227142D01*
X227965238Y-83131904D01*
X228060476Y-83084285D01*
X228250952Y-83036666D01*
X228393809Y-83036666D01*
X228584285Y-83084285D01*
X228679523Y-83131904D01*
X228774761Y-83227142D01*
X228822380Y-83370000D01*
X228822380Y-83608095D01*
X227822380Y-82703333D02*
X227822380Y-82084285D01*
X228203333Y-82417619D01*
X228203333Y-82274761D01*
X228250952Y-82179523D01*
X228298571Y-82131904D01*
X228393809Y-82084285D01*
X228631904Y-82084285D01*
X228727142Y-82131904D01*
X228774761Y-82179523D01*
X228822380Y-82274761D01*
X228822380Y-82560476D01*
X228774761Y-82655714D01*
X228727142Y-82703333D01*
X226066666Y-86278095D02*
X226066666Y-85801904D01*
X226352380Y-86373333D02*
X225352380Y-86040000D01*
X226352380Y-85706666D01*
%TO.C,D2*%
X234122380Y-83808095D02*
X233122380Y-83808095D01*
X233122380Y-83570000D01*
X233170000Y-83427142D01*
X233265238Y-83331904D01*
X233360476Y-83284285D01*
X233550952Y-83236666D01*
X233693809Y-83236666D01*
X233884285Y-83284285D01*
X233979523Y-83331904D01*
X234074761Y-83427142D01*
X234122380Y-83570000D01*
X234122380Y-83808095D01*
X233217619Y-82855714D02*
X233170000Y-82808095D01*
X233122380Y-82712857D01*
X233122380Y-82474761D01*
X233170000Y-82379523D01*
X233217619Y-82331904D01*
X233312857Y-82284285D01*
X233408095Y-82284285D01*
X233550952Y-82331904D01*
X234122380Y-82903333D01*
X234122380Y-82284285D01*
X231366666Y-86478095D02*
X231366666Y-86001904D01*
X231652380Y-86573333D02*
X230652380Y-86240000D01*
X231652380Y-85906666D01*
%TO.C,D1*%
X239722380Y-83808095D02*
X238722380Y-83808095D01*
X238722380Y-83570000D01*
X238770000Y-83427142D01*
X238865238Y-83331904D01*
X238960476Y-83284285D01*
X239150952Y-83236666D01*
X239293809Y-83236666D01*
X239484285Y-83284285D01*
X239579523Y-83331904D01*
X239674761Y-83427142D01*
X239722380Y-83570000D01*
X239722380Y-83808095D01*
X239722380Y-82284285D02*
X239722380Y-82855714D01*
X239722380Y-82570000D02*
X238722380Y-82570000D01*
X238865238Y-82665238D01*
X238960476Y-82760476D01*
X239008095Y-82855714D01*
X236966666Y-86478095D02*
X236966666Y-86001904D01*
X237252380Y-86573333D02*
X236252380Y-86240000D01*
X237252380Y-85906666D01*
%TO.C,D4*%
X175631904Y-121832380D02*
X175631904Y-120832380D01*
X175870000Y-120832380D01*
X176012857Y-120880000D01*
X176108095Y-120975238D01*
X176155714Y-121070476D01*
X176203333Y-121260952D01*
X176203333Y-121403809D01*
X176155714Y-121594285D01*
X176108095Y-121689523D01*
X176012857Y-121784761D01*
X175870000Y-121832380D01*
X175631904Y-121832380D01*
X177060476Y-121165714D02*
X177060476Y-121832380D01*
X176822380Y-120784761D02*
X176584285Y-121499047D01*
X177203333Y-121499047D01*
X179301904Y-124016666D02*
X179778095Y-124016666D01*
X179206666Y-124302380D02*
X179540000Y-123302380D01*
X179873333Y-124302380D01*
%TD*%
M02*
