M48
; DRILL file {KiCad 5.1.6-c6e7f7d~87~ubuntu18.04.1} date Mon Mar 29 12:27:24 2021
; FORMAT={-:-/ absolute / inch / decimal}
; #@! TF.CreationDate,2021-03-29T12:27:24+02:00
; #@! TF.GenerationSoftware,Kicad,Pcbnew,5.1.6-c6e7f7d~87~ubuntu18.04.1
; #@! TF.FileFunction,Plated,1,2,PTH
FMAT,2
INCH
T1C0.0300
T2C0.0315
T3C0.0354
T4C0.0374
T5C0.0394
T6C0.0591
T7C0.0630
T8C0.0906
%
G90
G05
T1
X8.174Y-3.2913
X8.174Y-3.3913
X8.274Y-3.2913
X8.274Y-3.3913
X8.374Y-3.2913
X8.374Y-3.3913
T2
X9.2992Y-4.3504
X9.2992Y-4.5425
X7.6339Y-3.8543
X7.6339Y-3.9543
X7.6339Y-4.0543
X7.6339Y-4.1543
X7.9339Y-3.8543
X7.9339Y-3.9543
X7.9339Y-4.0543
X7.9339Y-4.1543
X7.6331Y-3.3575
X7.6331Y-3.4575
X7.6331Y-3.5575
X7.6331Y-3.6575
X7.9331Y-3.3575
X7.9331Y-3.4575
X7.9331Y-3.5575
X7.9331Y-3.6575
T3
X9.1024Y-3.2205
X9.1024Y-3.3205
X9.3228Y-3.2205
X9.3228Y-3.3205
X6.3996Y-4.0236
X6.3996Y-4.1236
X6.3996Y-4.2236
X6.4996Y-3.9736
X6.4996Y-4.0736
X6.4996Y-4.1734
X6.4996Y-4.2734
X8.8937Y-3.2126
X8.8937Y-3.3126
X6.8937Y-4.876
X6.9937Y-4.876
X6.4035Y-3.3898
X6.4035Y-3.4898
X6.4035Y-3.5898
X6.5035Y-3.3398
X6.5035Y-3.4398
X6.5035Y-3.5396
X6.5035Y-3.6396
T4
X9.8228Y-3.9528
X9.8228Y-4.0512
X9.8228Y-4.1299
X9.8228Y-4.2283
T5
X6.8425Y-3.3793
X6.8425Y-3.4793
X6.8228Y-3.9827
X6.8228Y-4.0827
T6
X5.9921Y-4.7205
X6.189Y-4.7205
X6.4094Y-4.7205
X6.6063Y-4.7205
T7
X7.6378Y-4.437
X7.6378Y-4.6811
X7.8346Y-4.5591
T8
X9.9295Y-3.8319
X9.9295Y-4.3492
T3
G00X6.3996Y-3.9236
M15
G01X6.3996Y-3.9236
M16
G05
G00X6.4035Y-3.2898
M15
G01X6.4035Y-3.2898
M16
G05
T0
M30
