%TF.GenerationSoftware,KiCad,Pcbnew,5.1.6-c6e7f7d~87~ubuntu18.04.1*%
%TF.CreationDate,2021-03-29T12:27:15+02:00*%
%TF.ProjectId,sboxnet2usb,73626f78-6e65-4743-9275-73622e6b6963,rev?*%
%TF.SameCoordinates,Original*%
%TF.FileFunction,Soldermask,Bot*%
%TF.FilePolarity,Negative*%
%FSLAX46Y46*%
G04 Gerber Fmt 4.6, Leading zero omitted, Abs format (unit mm)*
G04 Created by KiCad (PCBNEW 5.1.6-c6e7f7d~87~ubuntu18.04.1) date 2021-03-29 12:27:15*
%MOMM*%
%LPD*%
G01*
G04 APERTURE LIST*
%ADD10R,1.900000X2.600000*%
%ADD11C,1.700000*%
%ADD12R,1.600000X1.700000*%
%ADD13C,3.100000*%
%ADD14C,2.300000*%
%ADD15C,3.270000*%
%ADD16R,1.624000X1.624000*%
%ADD17C,1.624000*%
%ADD18O,1.800000X1.800000*%
%ADD19R,1.800000X1.800000*%
%ADD20R,3.100000X3.100000*%
%ADD21R,2.100000X1.600000*%
%ADD22R,2.100000X3.900000*%
%ADD23C,1.600000*%
%ADD24O,1.700000X1.700000*%
%ADD25R,1.700000X1.700000*%
%ADD26R,1.700000X0.650000*%
%ADD27R,0.650000X1.700000*%
%ADD28O,1.900000X1.900000*%
%ADD29R,1.900000X1.900000*%
G04 APERTURE END LIST*
%TO.C,R10*%
G36*
G01*
X176230000Y-92775000D02*
X174920000Y-92775000D01*
G75*
G02*
X174650000Y-92505000I0J270000D01*
G01*
X174650000Y-91695000D01*
G75*
G02*
X174920000Y-91425000I270000J0D01*
G01*
X176230000Y-91425000D01*
G75*
G02*
X176500000Y-91695000I0J-270000D01*
G01*
X176500000Y-92505000D01*
G75*
G02*
X176230000Y-92775000I-270000J0D01*
G01*
G37*
G36*
G01*
X176230000Y-95575000D02*
X174920000Y-95575000D01*
G75*
G02*
X174650000Y-95305000I0J270000D01*
G01*
X174650000Y-94495000D01*
G75*
G02*
X174920000Y-94225000I270000J0D01*
G01*
X176230000Y-94225000D01*
G75*
G02*
X176500000Y-94495000I0J-270000D01*
G01*
X176500000Y-95305000D01*
G75*
G02*
X176230000Y-95575000I-270000J0D01*
G01*
G37*
%TD*%
D10*
%TO.C,D5*%
X174600000Y-108700000D03*
X174600000Y-112700000D03*
%TD*%
D11*
%TO.C,J1*%
X249500000Y-100400000D03*
X249500000Y-102900000D03*
X249500000Y-104900000D03*
D12*
X249500000Y-107400000D03*
D13*
X252210000Y-97330000D03*
X252210000Y-110470000D03*
%TD*%
D14*
%TO.C,REF\u002A\u002A*%
X253600000Y-124100000D03*
%TD*%
%TO.C,REF\u002A\u002A*%
X253500000Y-81500000D03*
%TD*%
%TO.C,REF\u002A\u002A*%
X204900000Y-120000000D03*
%TD*%
%TO.C,R13*%
G36*
G01*
X168975001Y-97145000D02*
X168975001Y-98455000D01*
G75*
G02*
X168705001Y-98725000I-270000J0D01*
G01*
X167895001Y-98725000D01*
G75*
G02*
X167625001Y-98455000I0J270000D01*
G01*
X167625001Y-97145000D01*
G75*
G02*
X167895001Y-96875000I270000J0D01*
G01*
X168705001Y-96875000D01*
G75*
G02*
X168975001Y-97145000I0J-270000D01*
G01*
G37*
G36*
G01*
X171775001Y-97145000D02*
X171775001Y-98455000D01*
G75*
G02*
X171505001Y-98725000I-270000J0D01*
G01*
X170695001Y-98725000D01*
G75*
G02*
X170425001Y-98455000I0J270000D01*
G01*
X170425001Y-97145000D01*
G75*
G02*
X170695001Y-96875000I270000J0D01*
G01*
X171505001Y-96875000D01*
G75*
G02*
X171775001Y-97145000I0J-270000D01*
G01*
G37*
%TD*%
D15*
%TO.C,J3*%
X156075540Y-109850000D03*
X156200000Y-98385000D03*
D16*
X162550000Y-99660000D03*
D17*
X165090000Y-100930000D03*
X162550000Y-102200000D03*
X165090000Y-103470000D03*
X162550000Y-104740000D03*
X162550000Y-107280000D03*
X165090000Y-106005000D03*
X165090000Y-108545000D03*
%TD*%
D15*
%TO.C,J4*%
X156175540Y-93750000D03*
X156300000Y-82285000D03*
D16*
X162650000Y-83560000D03*
D17*
X165190000Y-84830000D03*
X162650000Y-86100000D03*
X165190000Y-87370000D03*
X162650000Y-88640000D03*
X162650000Y-91180000D03*
X165190000Y-89905000D03*
X165190000Y-92445000D03*
%TD*%
%TO.C,R17*%
G36*
G01*
X170025000Y-87955000D02*
X170025000Y-86645000D01*
G75*
G02*
X170295000Y-86375000I270000J0D01*
G01*
X171105000Y-86375000D01*
G75*
G02*
X171375000Y-86645000I0J-270000D01*
G01*
X171375000Y-87955000D01*
G75*
G02*
X171105000Y-88225000I-270000J0D01*
G01*
X170295000Y-88225000D01*
G75*
G02*
X170025000Y-87955000I0J270000D01*
G01*
G37*
G36*
G01*
X167225000Y-87955000D02*
X167225000Y-86645000D01*
G75*
G02*
X167495000Y-86375000I270000J0D01*
G01*
X168305000Y-86375000D01*
G75*
G02*
X168575000Y-86645000I0J-270000D01*
G01*
X168575000Y-87955000D01*
G75*
G02*
X168305000Y-88225000I-270000J0D01*
G01*
X167495000Y-88225000D01*
G75*
G02*
X167225000Y-87955000I0J270000D01*
G01*
G37*
%TD*%
D18*
%TO.C,J5*%
X173300000Y-101160000D03*
D19*
X173300000Y-103700000D03*
%TD*%
%TO.C,R18*%
G36*
G01*
X157775000Y-101145000D02*
X157775000Y-102455000D01*
G75*
G02*
X157505000Y-102725000I-270000J0D01*
G01*
X156695000Y-102725000D01*
G75*
G02*
X156425000Y-102455000I0J270000D01*
G01*
X156425000Y-101145000D01*
G75*
G02*
X156695000Y-100875000I270000J0D01*
G01*
X157505000Y-100875000D01*
G75*
G02*
X157775000Y-101145000I0J-270000D01*
G01*
G37*
G36*
G01*
X160575000Y-101145000D02*
X160575000Y-102455000D01*
G75*
G02*
X160305000Y-102725000I-270000J0D01*
G01*
X159495000Y-102725000D01*
G75*
G02*
X159225000Y-102455000I0J270000D01*
G01*
X159225000Y-101145000D01*
G75*
G02*
X159495000Y-100875000I270000J0D01*
G01*
X160305000Y-100875000D01*
G75*
G02*
X160575000Y-101145000I0J-270000D01*
G01*
G37*
%TD*%
%TO.C,R14*%
G36*
G01*
X168475000Y-90045000D02*
X168475000Y-91355000D01*
G75*
G02*
X168205000Y-91625000I-270000J0D01*
G01*
X167395000Y-91625000D01*
G75*
G02*
X167125000Y-91355000I0J270000D01*
G01*
X167125000Y-90045000D01*
G75*
G02*
X167395000Y-89775000I270000J0D01*
G01*
X168205000Y-89775000D01*
G75*
G02*
X168475000Y-90045000I0J-270000D01*
G01*
G37*
G36*
G01*
X171275000Y-90045000D02*
X171275000Y-91355000D01*
G75*
G02*
X171005000Y-91625000I-270000J0D01*
G01*
X170195000Y-91625000D01*
G75*
G02*
X169925000Y-91355000I0J270000D01*
G01*
X169925000Y-90045000D01*
G75*
G02*
X170195000Y-89775000I270000J0D01*
G01*
X171005000Y-89775000D01*
G75*
G02*
X171275000Y-90045000I0J-270000D01*
G01*
G37*
%TD*%
%TO.C,U5*%
G36*
G01*
X180050000Y-94620000D02*
X180050000Y-94970000D01*
G75*
G02*
X179875000Y-95145000I-175000J0D01*
G01*
X178175000Y-95145000D01*
G75*
G02*
X178000000Y-94970000I0J175000D01*
G01*
X178000000Y-94620000D01*
G75*
G02*
X178175000Y-94445000I175000J0D01*
G01*
X179875000Y-94445000D01*
G75*
G02*
X180050000Y-94620000I0J-175000D01*
G01*
G37*
G36*
G01*
X180050000Y-95890000D02*
X180050000Y-96240000D01*
G75*
G02*
X179875000Y-96415000I-175000J0D01*
G01*
X178175000Y-96415000D01*
G75*
G02*
X178000000Y-96240000I0J175000D01*
G01*
X178000000Y-95890000D01*
G75*
G02*
X178175000Y-95715000I175000J0D01*
G01*
X179875000Y-95715000D01*
G75*
G02*
X180050000Y-95890000I0J-175000D01*
G01*
G37*
G36*
G01*
X180050000Y-97160000D02*
X180050000Y-97510000D01*
G75*
G02*
X179875000Y-97685000I-175000J0D01*
G01*
X178175000Y-97685000D01*
G75*
G02*
X178000000Y-97510000I0J175000D01*
G01*
X178000000Y-97160000D01*
G75*
G02*
X178175000Y-96985000I175000J0D01*
G01*
X179875000Y-96985000D01*
G75*
G02*
X180050000Y-97160000I0J-175000D01*
G01*
G37*
G36*
G01*
X180050000Y-98430000D02*
X180050000Y-98780000D01*
G75*
G02*
X179875000Y-98955000I-175000J0D01*
G01*
X178175000Y-98955000D01*
G75*
G02*
X178000000Y-98780000I0J175000D01*
G01*
X178000000Y-98430000D01*
G75*
G02*
X178175000Y-98255000I175000J0D01*
G01*
X179875000Y-98255000D01*
G75*
G02*
X180050000Y-98430000I0J-175000D01*
G01*
G37*
G36*
G01*
X185000000Y-98430000D02*
X185000000Y-98780000D01*
G75*
G02*
X184825000Y-98955000I-175000J0D01*
G01*
X183125000Y-98955000D01*
G75*
G02*
X182950000Y-98780000I0J175000D01*
G01*
X182950000Y-98430000D01*
G75*
G02*
X183125000Y-98255000I175000J0D01*
G01*
X184825000Y-98255000D01*
G75*
G02*
X185000000Y-98430000I0J-175000D01*
G01*
G37*
G36*
G01*
X185000000Y-97160000D02*
X185000000Y-97510000D01*
G75*
G02*
X184825000Y-97685000I-175000J0D01*
G01*
X183125000Y-97685000D01*
G75*
G02*
X182950000Y-97510000I0J175000D01*
G01*
X182950000Y-97160000D01*
G75*
G02*
X183125000Y-96985000I175000J0D01*
G01*
X184825000Y-96985000D01*
G75*
G02*
X185000000Y-97160000I0J-175000D01*
G01*
G37*
G36*
G01*
X185000000Y-95890000D02*
X185000000Y-96240000D01*
G75*
G02*
X184825000Y-96415000I-175000J0D01*
G01*
X183125000Y-96415000D01*
G75*
G02*
X182950000Y-96240000I0J175000D01*
G01*
X182950000Y-95890000D01*
G75*
G02*
X183125000Y-95715000I175000J0D01*
G01*
X184825000Y-95715000D01*
G75*
G02*
X185000000Y-95890000I0J-175000D01*
G01*
G37*
G36*
G01*
X185000000Y-94620000D02*
X185000000Y-94970000D01*
G75*
G02*
X184825000Y-95145000I-175000J0D01*
G01*
X183125000Y-95145000D01*
G75*
G02*
X182950000Y-94970000I0J175000D01*
G01*
X182950000Y-94620000D01*
G75*
G02*
X183125000Y-94445000I175000J0D01*
G01*
X184825000Y-94445000D01*
G75*
G02*
X185000000Y-94620000I0J-175000D01*
G01*
G37*
%TD*%
D18*
%TO.C,J6*%
X173800000Y-85835000D03*
D19*
X173800000Y-88375000D03*
%TD*%
D13*
%TO.C,J7*%
X157200000Y-119900000D03*
D20*
X152200000Y-119900000D03*
%TD*%
%TO.C,R11*%
G36*
G01*
X173720000Y-119900000D02*
X175030000Y-119900000D01*
G75*
G02*
X175300000Y-120170000I0J-270000D01*
G01*
X175300000Y-120980000D01*
G75*
G02*
X175030000Y-121250000I-270000J0D01*
G01*
X173720000Y-121250000D01*
G75*
G02*
X173450000Y-120980000I0J270000D01*
G01*
X173450000Y-120170000D01*
G75*
G02*
X173720000Y-119900000I270000J0D01*
G01*
G37*
G36*
G01*
X173720000Y-117100000D02*
X175030000Y-117100000D01*
G75*
G02*
X175300000Y-117370000I0J-270000D01*
G01*
X175300000Y-118180000D01*
G75*
G02*
X175030000Y-118450000I-270000J0D01*
G01*
X173720000Y-118450000D01*
G75*
G02*
X173450000Y-118180000I0J270000D01*
G01*
X173450000Y-117370000D01*
G75*
G02*
X173720000Y-117100000I270000J0D01*
G01*
G37*
%TD*%
%TO.C,TH2*%
G36*
G01*
X181750000Y-109916735D02*
X181750000Y-105883265D01*
G75*
G02*
X182008265Y-105625000I258265J0D01*
G01*
X184616735Y-105625000D01*
G75*
G02*
X184875000Y-105883265I0J-258265D01*
G01*
X184875000Y-109916735D01*
G75*
G02*
X184616735Y-110175000I-258265J0D01*
G01*
X182008265Y-110175000D01*
G75*
G02*
X181750000Y-109916735I0J258265D01*
G01*
G37*
G36*
G01*
X176725000Y-109916735D02*
X176725000Y-105883265D01*
G75*
G02*
X176983265Y-105625000I258265J0D01*
G01*
X179591735Y-105625000D01*
G75*
G02*
X179850000Y-105883265I0J-258265D01*
G01*
X179850000Y-109916735D01*
G75*
G02*
X179591735Y-110175000I-258265J0D01*
G01*
X176983265Y-110175000D01*
G75*
G02*
X176725000Y-109916735I0J258265D01*
G01*
G37*
%TD*%
%TO.C,C8*%
G36*
G01*
X184675000Y-121545000D02*
X184675000Y-122855000D01*
G75*
G02*
X184405000Y-123125000I-270000J0D01*
G01*
X183595000Y-123125000D01*
G75*
G02*
X183325000Y-122855000I0J270000D01*
G01*
X183325000Y-121545000D01*
G75*
G02*
X183595000Y-121275000I270000J0D01*
G01*
X184405000Y-121275000D01*
G75*
G02*
X184675000Y-121545000I0J-270000D01*
G01*
G37*
G36*
G01*
X187475000Y-121545000D02*
X187475000Y-122855000D01*
G75*
G02*
X187205000Y-123125000I-270000J0D01*
G01*
X186395000Y-123125000D01*
G75*
G02*
X186125000Y-122855000I0J270000D01*
G01*
X186125000Y-121545000D01*
G75*
G02*
X186395000Y-121275000I270000J0D01*
G01*
X187205000Y-121275000D01*
G75*
G02*
X187475000Y-121545000I0J-270000D01*
G01*
G37*
%TD*%
%TO.C,R8*%
G36*
G01*
X190980000Y-98300000D02*
X189670000Y-98300000D01*
G75*
G02*
X189400000Y-98030000I0J270000D01*
G01*
X189400000Y-97220000D01*
G75*
G02*
X189670000Y-96950000I270000J0D01*
G01*
X190980000Y-96950000D01*
G75*
G02*
X191250000Y-97220000I0J-270000D01*
G01*
X191250000Y-98030000D01*
G75*
G02*
X190980000Y-98300000I-270000J0D01*
G01*
G37*
G36*
G01*
X190980000Y-101100000D02*
X189670000Y-101100000D01*
G75*
G02*
X189400000Y-100830000I0J270000D01*
G01*
X189400000Y-100020000D01*
G75*
G02*
X189670000Y-99750000I270000J0D01*
G01*
X190980000Y-99750000D01*
G75*
G02*
X191250000Y-100020000I0J-270000D01*
G01*
X191250000Y-100830000D01*
G75*
G02*
X190980000Y-101100000I-270000J0D01*
G01*
G37*
%TD*%
D13*
%TO.C,J2*%
X194000000Y-118900000D03*
X199000000Y-115800000D03*
X194000000Y-112700000D03*
%TD*%
%TO.C,J8*%
X167800000Y-119900000D03*
D20*
X162800000Y-119900000D03*
%TD*%
%TO.C,R21*%
G36*
G01*
X213375000Y-91930000D02*
X213375000Y-90620000D01*
G75*
G02*
X213645000Y-90350000I270000J0D01*
G01*
X214455000Y-90350000D01*
G75*
G02*
X214725000Y-90620000I0J-270000D01*
G01*
X214725000Y-91930000D01*
G75*
G02*
X214455000Y-92200000I-270000J0D01*
G01*
X213645000Y-92200000D01*
G75*
G02*
X213375000Y-91930000I0J270000D01*
G01*
G37*
G36*
G01*
X210575000Y-91930000D02*
X210575000Y-90620000D01*
G75*
G02*
X210845000Y-90350000I270000J0D01*
G01*
X211655000Y-90350000D01*
G75*
G02*
X211925000Y-90620000I0J-270000D01*
G01*
X211925000Y-91930000D01*
G75*
G02*
X211655000Y-92200000I-270000J0D01*
G01*
X210845000Y-92200000D01*
G75*
G02*
X210575000Y-91930000I0J270000D01*
G01*
G37*
%TD*%
%TO.C,R20*%
G36*
G01*
X218125000Y-91955000D02*
X218125000Y-90645000D01*
G75*
G02*
X218395000Y-90375000I270000J0D01*
G01*
X219205000Y-90375000D01*
G75*
G02*
X219475000Y-90645000I0J-270000D01*
G01*
X219475000Y-91955000D01*
G75*
G02*
X219205000Y-92225000I-270000J0D01*
G01*
X218395000Y-92225000D01*
G75*
G02*
X218125000Y-91955000I0J270000D01*
G01*
G37*
G36*
G01*
X215325000Y-91955000D02*
X215325000Y-90645000D01*
G75*
G02*
X215595000Y-90375000I270000J0D01*
G01*
X216405000Y-90375000D01*
G75*
G02*
X216675000Y-90645000I0J-270000D01*
G01*
X216675000Y-91955000D01*
G75*
G02*
X216405000Y-92225000I-270000J0D01*
G01*
X215595000Y-92225000D01*
G75*
G02*
X215325000Y-91955000I0J270000D01*
G01*
G37*
%TD*%
%TO.C,C7*%
G36*
G01*
X183245000Y-87049999D02*
X184555000Y-87049999D01*
G75*
G02*
X184825000Y-87319999I0J-270000D01*
G01*
X184825000Y-88129999D01*
G75*
G02*
X184555000Y-88399999I-270000J0D01*
G01*
X183245000Y-88399999D01*
G75*
G02*
X182975000Y-88129999I0J270000D01*
G01*
X182975000Y-87319999D01*
G75*
G02*
X183245000Y-87049999I270000J0D01*
G01*
G37*
G36*
G01*
X183245000Y-84249999D02*
X184555000Y-84249999D01*
G75*
G02*
X184825000Y-84519999I0J-270000D01*
G01*
X184825000Y-85329999D01*
G75*
G02*
X184555000Y-85599999I-270000J0D01*
G01*
X183245000Y-85599999D01*
G75*
G02*
X182975000Y-85329999I0J270000D01*
G01*
X182975000Y-84519999D01*
G75*
G02*
X183245000Y-84249999I270000J0D01*
G01*
G37*
%TD*%
%TO.C,C9*%
G36*
G01*
X189845000Y-87225000D02*
X191155000Y-87225000D01*
G75*
G02*
X191425000Y-87495000I0J-270000D01*
G01*
X191425000Y-88305000D01*
G75*
G02*
X191155000Y-88575000I-270000J0D01*
G01*
X189845000Y-88575000D01*
G75*
G02*
X189575000Y-88305000I0J270000D01*
G01*
X189575000Y-87495000D01*
G75*
G02*
X189845000Y-87225000I270000J0D01*
G01*
G37*
G36*
G01*
X189845000Y-84425000D02*
X191155000Y-84425000D01*
G75*
G02*
X191425000Y-84695000I0J-270000D01*
G01*
X191425000Y-85505000D01*
G75*
G02*
X191155000Y-85775000I-270000J0D01*
G01*
X189845000Y-85775000D01*
G75*
G02*
X189575000Y-85505000I0J270000D01*
G01*
X189575000Y-84695000D01*
G75*
G02*
X189845000Y-84425000I270000J0D01*
G01*
G37*
%TD*%
D21*
%TO.C,U6*%
X180250000Y-117300000D03*
X180250000Y-112700000D03*
X180250000Y-115000000D03*
D22*
X186550000Y-115000000D03*
%TD*%
%TO.C,R16*%
G36*
G01*
X216625000Y-108355000D02*
X216625000Y-107045000D01*
G75*
G02*
X216895000Y-106775000I270000J0D01*
G01*
X217705000Y-106775000D01*
G75*
G02*
X217975000Y-107045000I0J-270000D01*
G01*
X217975000Y-108355000D01*
G75*
G02*
X217705000Y-108625000I-270000J0D01*
G01*
X216895000Y-108625000D01*
G75*
G02*
X216625000Y-108355000I0J270000D01*
G01*
G37*
G36*
G01*
X213825000Y-108355000D02*
X213825000Y-107045000D01*
G75*
G02*
X214095000Y-106775000I270000J0D01*
G01*
X214905000Y-106775000D01*
G75*
G02*
X215175000Y-107045000I0J-270000D01*
G01*
X215175000Y-108355000D01*
G75*
G02*
X214905000Y-108625000I-270000J0D01*
G01*
X214095000Y-108625000D01*
G75*
G02*
X213825000Y-108355000I0J270000D01*
G01*
G37*
%TD*%
%TO.C,R15*%
G36*
G01*
X216725000Y-102855000D02*
X216725000Y-101545000D01*
G75*
G02*
X216995000Y-101275000I270000J0D01*
G01*
X217805000Y-101275000D01*
G75*
G02*
X218075000Y-101545000I0J-270000D01*
G01*
X218075000Y-102855000D01*
G75*
G02*
X217805000Y-103125000I-270000J0D01*
G01*
X216995000Y-103125000D01*
G75*
G02*
X216725000Y-102855000I0J270000D01*
G01*
G37*
G36*
G01*
X213925000Y-102855000D02*
X213925000Y-101545000D01*
G75*
G02*
X214195000Y-101275000I270000J0D01*
G01*
X215005000Y-101275000D01*
G75*
G02*
X215275000Y-101545000I0J-270000D01*
G01*
X215275000Y-102855000D01*
G75*
G02*
X215005000Y-103125000I-270000J0D01*
G01*
X214195000Y-103125000D01*
G75*
G02*
X213925000Y-102855000I0J270000D01*
G01*
G37*
%TD*%
%TO.C,R12*%
G36*
G01*
X213675000Y-93645000D02*
X213675000Y-94955000D01*
G75*
G02*
X213405000Y-95225000I-270000J0D01*
G01*
X212595000Y-95225000D01*
G75*
G02*
X212325000Y-94955000I0J270000D01*
G01*
X212325000Y-93645000D01*
G75*
G02*
X212595000Y-93375000I270000J0D01*
G01*
X213405000Y-93375000D01*
G75*
G02*
X213675000Y-93645000I0J-270000D01*
G01*
G37*
G36*
G01*
X216475000Y-93645000D02*
X216475000Y-94955000D01*
G75*
G02*
X216205000Y-95225000I-270000J0D01*
G01*
X215395000Y-95225000D01*
G75*
G02*
X215125000Y-94955000I0J270000D01*
G01*
X215125000Y-93645000D01*
G75*
G02*
X215395000Y-93375000I270000J0D01*
G01*
X216205000Y-93375000D01*
G75*
G02*
X216475000Y-93645000I0J-270000D01*
G01*
G37*
%TD*%
%TO.C,C5*%
G36*
G01*
X225754999Y-112975000D02*
X224444999Y-112975000D01*
G75*
G02*
X224174999Y-112705000I0J270000D01*
G01*
X224174999Y-111895000D01*
G75*
G02*
X224444999Y-111625000I270000J0D01*
G01*
X225754999Y-111625000D01*
G75*
G02*
X226024999Y-111895000I0J-270000D01*
G01*
X226024999Y-112705000D01*
G75*
G02*
X225754999Y-112975000I-270000J0D01*
G01*
G37*
G36*
G01*
X225754999Y-115775000D02*
X224444999Y-115775000D01*
G75*
G02*
X224174999Y-115505000I0J270000D01*
G01*
X224174999Y-114695000D01*
G75*
G02*
X224444999Y-114425000I270000J0D01*
G01*
X225754999Y-114425000D01*
G75*
G02*
X226024999Y-114695000I0J-270000D01*
G01*
X226024999Y-115505000D01*
G75*
G02*
X225754999Y-115775000I-270000J0D01*
G01*
G37*
%TD*%
D23*
%TO.C,Y1*%
X236200000Y-115380000D03*
X236200000Y-110500000D03*
%TD*%
D24*
%TO.C,U4*%
X201520000Y-97900000D03*
X193900000Y-105520000D03*
X201520000Y-100440000D03*
X193900000Y-102980000D03*
X201520000Y-102980000D03*
X193900000Y-100440000D03*
X201520000Y-105520000D03*
D25*
X193900000Y-97900000D03*
%TD*%
D24*
%TO.C,U3*%
X193880000Y-92900000D03*
X201500000Y-85280000D03*
X193880000Y-90360000D03*
X201500000Y-87820000D03*
X193880000Y-87820000D03*
X201500000Y-90360000D03*
X193880000Y-85280000D03*
D25*
X201500000Y-92900000D03*
%TD*%
D16*
%TO.C,U2*%
X207620000Y-86140000D03*
D17*
X207620000Y-83600000D03*
X210160000Y-86140000D03*
X210160000Y-83600000D03*
X212700000Y-86140000D03*
X212700000Y-83600000D03*
%TD*%
D26*
%TO.C,U1*%
X231350000Y-106800000D03*
X231350000Y-106000000D03*
X231350000Y-105200000D03*
X231350000Y-104400000D03*
X231350000Y-103600000D03*
X231350000Y-102800000D03*
X231350000Y-102000000D03*
X231350000Y-101200000D03*
D27*
X229900000Y-99750000D03*
X229100000Y-99750000D03*
X228300000Y-99750000D03*
X227500000Y-99750000D03*
X226700000Y-99750000D03*
X225900000Y-99750000D03*
X225100000Y-99750000D03*
X224300000Y-99750000D03*
D26*
X222850000Y-101200000D03*
X222850000Y-102000000D03*
X222850000Y-102800000D03*
X222850000Y-103600000D03*
X222850000Y-104400000D03*
X222850000Y-105200000D03*
X222850000Y-106000000D03*
X222850000Y-106800000D03*
D27*
X224300000Y-108250000D03*
X225100000Y-108250000D03*
X225900000Y-108250000D03*
X226700000Y-108250000D03*
X227500000Y-108250000D03*
X228300000Y-108250000D03*
X229100000Y-108250000D03*
X229900000Y-108250000D03*
%TD*%
%TO.C,TH1*%
G36*
G01*
X249055000Y-117275000D02*
X247745000Y-117275000D01*
G75*
G02*
X247475000Y-117005000I0J270000D01*
G01*
X247475000Y-116195000D01*
G75*
G02*
X247745000Y-115925000I270000J0D01*
G01*
X249055000Y-115925000D01*
G75*
G02*
X249325000Y-116195000I0J-270000D01*
G01*
X249325000Y-117005000D01*
G75*
G02*
X249055000Y-117275000I-270000J0D01*
G01*
G37*
G36*
G01*
X249055000Y-120075000D02*
X247745000Y-120075000D01*
G75*
G02*
X247475000Y-119805000I0J270000D01*
G01*
X247475000Y-118995000D01*
G75*
G02*
X247745000Y-118725000I270000J0D01*
G01*
X249055000Y-118725000D01*
G75*
G02*
X249325000Y-118995000I0J-270000D01*
G01*
X249325000Y-119805000D01*
G75*
G02*
X249055000Y-120075000I-270000J0D01*
G01*
G37*
%TD*%
%TO.C,R7*%
G36*
G01*
X226455000Y-92975000D02*
X225145000Y-92975000D01*
G75*
G02*
X224875000Y-92705000I0J270000D01*
G01*
X224875000Y-91895000D01*
G75*
G02*
X225145000Y-91625000I270000J0D01*
G01*
X226455000Y-91625000D01*
G75*
G02*
X226725000Y-91895000I0J-270000D01*
G01*
X226725000Y-92705000D01*
G75*
G02*
X226455000Y-92975000I-270000J0D01*
G01*
G37*
G36*
G01*
X226455000Y-95775000D02*
X225145000Y-95775000D01*
G75*
G02*
X224875000Y-95505000I0J270000D01*
G01*
X224875000Y-94695000D01*
G75*
G02*
X225145000Y-94425000I270000J0D01*
G01*
X226455000Y-94425000D01*
G75*
G02*
X226725000Y-94695000I0J-270000D01*
G01*
X226725000Y-95505000D01*
G75*
G02*
X226455000Y-95775000I-270000J0D01*
G01*
G37*
%TD*%
%TO.C,R6*%
G36*
G01*
X213775000Y-104345000D02*
X213775000Y-105655000D01*
G75*
G02*
X213505000Y-105925000I-270000J0D01*
G01*
X212695000Y-105925000D01*
G75*
G02*
X212425000Y-105655000I0J270000D01*
G01*
X212425000Y-104345000D01*
G75*
G02*
X212695000Y-104075000I270000J0D01*
G01*
X213505000Y-104075000D01*
G75*
G02*
X213775000Y-104345000I0J-270000D01*
G01*
G37*
G36*
G01*
X216575000Y-104345000D02*
X216575000Y-105655000D01*
G75*
G02*
X216305000Y-105925000I-270000J0D01*
G01*
X215495000Y-105925000D01*
G75*
G02*
X215225000Y-105655000I0J270000D01*
G01*
X215225000Y-104345000D01*
G75*
G02*
X215495000Y-104075000I270000J0D01*
G01*
X216305000Y-104075000D01*
G75*
G02*
X216575000Y-104345000I0J-270000D01*
G01*
G37*
%TD*%
%TO.C,R5*%
G36*
G01*
X231955000Y-93075000D02*
X230645000Y-93075000D01*
G75*
G02*
X230375000Y-92805000I0J270000D01*
G01*
X230375000Y-91995000D01*
G75*
G02*
X230645000Y-91725000I270000J0D01*
G01*
X231955000Y-91725000D01*
G75*
G02*
X232225000Y-91995000I0J-270000D01*
G01*
X232225000Y-92805000D01*
G75*
G02*
X231955000Y-93075000I-270000J0D01*
G01*
G37*
G36*
G01*
X231955000Y-95875000D02*
X230645000Y-95875000D01*
G75*
G02*
X230375000Y-95605000I0J270000D01*
G01*
X230375000Y-94795000D01*
G75*
G02*
X230645000Y-94525000I270000J0D01*
G01*
X231955000Y-94525000D01*
G75*
G02*
X232225000Y-94795000I0J-270000D01*
G01*
X232225000Y-95605000D01*
G75*
G02*
X231955000Y-95875000I-270000J0D01*
G01*
G37*
%TD*%
%TO.C,R4*%
G36*
G01*
X213875000Y-109745000D02*
X213875000Y-111055000D01*
G75*
G02*
X213605000Y-111325000I-270000J0D01*
G01*
X212795000Y-111325000D01*
G75*
G02*
X212525000Y-111055000I0J270000D01*
G01*
X212525000Y-109745000D01*
G75*
G02*
X212795000Y-109475000I270000J0D01*
G01*
X213605000Y-109475000D01*
G75*
G02*
X213875000Y-109745000I0J-270000D01*
G01*
G37*
G36*
G01*
X216675000Y-109745000D02*
X216675000Y-111055000D01*
G75*
G02*
X216405000Y-111325000I-270000J0D01*
G01*
X215595000Y-111325000D01*
G75*
G02*
X215325000Y-111055000I0J270000D01*
G01*
X215325000Y-109745000D01*
G75*
G02*
X215595000Y-109475000I270000J0D01*
G01*
X216405000Y-109475000D01*
G75*
G02*
X216675000Y-109745000I0J-270000D01*
G01*
G37*
%TD*%
%TO.C,R3*%
G36*
G01*
X237655000Y-93075000D02*
X236345000Y-93075000D01*
G75*
G02*
X236075000Y-92805000I0J270000D01*
G01*
X236075000Y-91995000D01*
G75*
G02*
X236345000Y-91725000I270000J0D01*
G01*
X237655000Y-91725000D01*
G75*
G02*
X237925000Y-91995000I0J-270000D01*
G01*
X237925000Y-92805000D01*
G75*
G02*
X237655000Y-93075000I-270000J0D01*
G01*
G37*
G36*
G01*
X237655000Y-95875000D02*
X236345000Y-95875000D01*
G75*
G02*
X236075000Y-95605000I0J270000D01*
G01*
X236075000Y-94795000D01*
G75*
G02*
X236345000Y-94525000I270000J0D01*
G01*
X237655000Y-94525000D01*
G75*
G02*
X237925000Y-94795000I0J-270000D01*
G01*
X237925000Y-95605000D01*
G75*
G02*
X237655000Y-95875000I-270000J0D01*
G01*
G37*
%TD*%
%TO.C,R2*%
G36*
G01*
X244725000Y-105955000D02*
X244725000Y-104645000D01*
G75*
G02*
X244995000Y-104375000I270000J0D01*
G01*
X245805000Y-104375000D01*
G75*
G02*
X246075000Y-104645000I0J-270000D01*
G01*
X246075000Y-105955000D01*
G75*
G02*
X245805000Y-106225000I-270000J0D01*
G01*
X244995000Y-106225000D01*
G75*
G02*
X244725000Y-105955000I0J270000D01*
G01*
G37*
G36*
G01*
X241925000Y-105955000D02*
X241925000Y-104645000D01*
G75*
G02*
X242195000Y-104375000I270000J0D01*
G01*
X243005000Y-104375000D01*
G75*
G02*
X243275000Y-104645000I0J-270000D01*
G01*
X243275000Y-105955000D01*
G75*
G02*
X243005000Y-106225000I-270000J0D01*
G01*
X242195000Y-106225000D01*
G75*
G02*
X241925000Y-105955000I0J270000D01*
G01*
G37*
%TD*%
%TO.C,R1*%
G36*
G01*
X244725000Y-103355000D02*
X244725000Y-102045000D01*
G75*
G02*
X244995000Y-101775000I270000J0D01*
G01*
X245805000Y-101775000D01*
G75*
G02*
X246075000Y-102045000I0J-270000D01*
G01*
X246075000Y-103355000D01*
G75*
G02*
X245805000Y-103625000I-270000J0D01*
G01*
X244995000Y-103625000D01*
G75*
G02*
X244725000Y-103355000I0J270000D01*
G01*
G37*
G36*
G01*
X241925000Y-103355000D02*
X241925000Y-102045000D01*
G75*
G02*
X242195000Y-101775000I270000J0D01*
G01*
X243005000Y-101775000D01*
G75*
G02*
X243275000Y-102045000I0J-270000D01*
G01*
X243275000Y-103355000D01*
G75*
G02*
X243005000Y-103625000I-270000J0D01*
G01*
X242195000Y-103625000D01*
G75*
G02*
X241925000Y-103355000I0J270000D01*
G01*
G37*
%TD*%
D28*
%TO.C,D3*%
X225900000Y-84140000D03*
D29*
X225900000Y-81600000D03*
%TD*%
D28*
%TO.C,D2*%
X231200000Y-84340000D03*
D29*
X231200000Y-81800000D03*
%TD*%
D28*
%TO.C,D1*%
X236800000Y-84340000D03*
D29*
X236800000Y-81800000D03*
%TD*%
%TO.C,C6*%
G36*
G01*
X206945000Y-112825000D02*
X208255000Y-112825000D01*
G75*
G02*
X208525000Y-113095000I0J-270000D01*
G01*
X208525000Y-113905000D01*
G75*
G02*
X208255000Y-114175000I-270000J0D01*
G01*
X206945000Y-114175000D01*
G75*
G02*
X206675000Y-113905000I0J270000D01*
G01*
X206675000Y-113095000D01*
G75*
G02*
X206945000Y-112825000I270000J0D01*
G01*
G37*
G36*
G01*
X206945000Y-110025000D02*
X208255000Y-110025000D01*
G75*
G02*
X208525000Y-110295000I0J-270000D01*
G01*
X208525000Y-111105000D01*
G75*
G02*
X208255000Y-111375000I-270000J0D01*
G01*
X206945000Y-111375000D01*
G75*
G02*
X206675000Y-111105000I0J270000D01*
G01*
X206675000Y-110295000D01*
G75*
G02*
X206945000Y-110025000I270000J0D01*
G01*
G37*
%TD*%
%TO.C,C4*%
G36*
G01*
X238925000Y-101555000D02*
X238925000Y-100245000D01*
G75*
G02*
X239195000Y-99975000I270000J0D01*
G01*
X240005000Y-99975000D01*
G75*
G02*
X240275000Y-100245000I0J-270000D01*
G01*
X240275000Y-101555000D01*
G75*
G02*
X240005000Y-101825000I-270000J0D01*
G01*
X239195000Y-101825000D01*
G75*
G02*
X238925000Y-101555000I0J270000D01*
G01*
G37*
G36*
G01*
X236125000Y-101555000D02*
X236125000Y-100245000D01*
G75*
G02*
X236395000Y-99975000I270000J0D01*
G01*
X237205000Y-99975000D01*
G75*
G02*
X237475000Y-100245000I0J-270000D01*
G01*
X237475000Y-101555000D01*
G75*
G02*
X237205000Y-101825000I-270000J0D01*
G01*
X236395000Y-101825000D01*
G75*
G02*
X236125000Y-101555000I0J270000D01*
G01*
G37*
%TD*%
%TO.C,C3*%
G36*
G01*
X240575000Y-120245000D02*
X240575000Y-121555000D01*
G75*
G02*
X240305000Y-121825000I-270000J0D01*
G01*
X239495000Y-121825000D01*
G75*
G02*
X239225000Y-121555000I0J270000D01*
G01*
X239225000Y-120245000D01*
G75*
G02*
X239495000Y-119975000I270000J0D01*
G01*
X240305000Y-119975000D01*
G75*
G02*
X240575000Y-120245000I0J-270000D01*
G01*
G37*
G36*
G01*
X243375000Y-120245000D02*
X243375000Y-121555000D01*
G75*
G02*
X243105000Y-121825000I-270000J0D01*
G01*
X242295000Y-121825000D01*
G75*
G02*
X242025000Y-121555000I0J270000D01*
G01*
X242025000Y-120245000D01*
G75*
G02*
X242295000Y-119975000I270000J0D01*
G01*
X243105000Y-119975000D01*
G75*
G02*
X243375000Y-120245000I0J-270000D01*
G01*
G37*
%TD*%
%TO.C,C2*%
G36*
G01*
X229375000Y-115545000D02*
X229375000Y-116855000D01*
G75*
G02*
X229105000Y-117125000I-270000J0D01*
G01*
X228295000Y-117125000D01*
G75*
G02*
X228025000Y-116855000I0J270000D01*
G01*
X228025000Y-115545000D01*
G75*
G02*
X228295000Y-115275000I270000J0D01*
G01*
X229105000Y-115275000D01*
G75*
G02*
X229375000Y-115545000I0J-270000D01*
G01*
G37*
G36*
G01*
X232175000Y-115545000D02*
X232175000Y-116855000D01*
G75*
G02*
X231905000Y-117125000I-270000J0D01*
G01*
X231095000Y-117125000D01*
G75*
G02*
X230825000Y-116855000I0J270000D01*
G01*
X230825000Y-115545000D01*
G75*
G02*
X231095000Y-115275000I270000J0D01*
G01*
X231905000Y-115275000D01*
G75*
G02*
X232175000Y-115545000I0J-270000D01*
G01*
G37*
%TD*%
%TO.C,C1*%
G36*
G01*
X229375000Y-113145000D02*
X229375000Y-114455000D01*
G75*
G02*
X229105000Y-114725000I-270000J0D01*
G01*
X228295000Y-114725000D01*
G75*
G02*
X228025000Y-114455000I0J270000D01*
G01*
X228025000Y-113145000D01*
G75*
G02*
X228295000Y-112875000I270000J0D01*
G01*
X229105000Y-112875000D01*
G75*
G02*
X229375000Y-113145000I0J-270000D01*
G01*
G37*
G36*
G01*
X232175000Y-113145000D02*
X232175000Y-114455000D01*
G75*
G02*
X231905000Y-114725000I-270000J0D01*
G01*
X231095000Y-114725000D01*
G75*
G02*
X230825000Y-114455000I0J270000D01*
G01*
X230825000Y-113145000D01*
G75*
G02*
X231095000Y-112875000I270000J0D01*
G01*
X231905000Y-112875000D01*
G75*
G02*
X232175000Y-113145000I0J-270000D01*
G01*
G37*
%TD*%
%TO.C,R9*%
G36*
G01*
X188230000Y-87075000D02*
X186920000Y-87075000D01*
G75*
G02*
X186650000Y-86805000I0J270000D01*
G01*
X186650000Y-85995000D01*
G75*
G02*
X186920000Y-85725000I270000J0D01*
G01*
X188230000Y-85725000D01*
G75*
G02*
X188500000Y-85995000I0J-270000D01*
G01*
X188500000Y-86805000D01*
G75*
G02*
X188230000Y-87075000I-270000J0D01*
G01*
G37*
G36*
G01*
X188230000Y-89875000D02*
X186920000Y-89875000D01*
G75*
G02*
X186650000Y-89605000I0J270000D01*
G01*
X186650000Y-88795000D01*
G75*
G02*
X186920000Y-88525000I270000J0D01*
G01*
X188230000Y-88525000D01*
G75*
G02*
X188500000Y-88795000I0J-270000D01*
G01*
X188500000Y-89605000D01*
G75*
G02*
X188230000Y-89875000I-270000J0D01*
G01*
G37*
%TD*%
D28*
%TO.C,D4*%
X177640000Y-123850000D03*
D29*
X175100000Y-123850000D03*
%TD*%
M02*
