%TF.GenerationSoftware,KiCad,Pcbnew,5.1.6-c6e7f7d~87~ubuntu18.04.1*%
%TF.CreationDate,2021-03-29T12:27:15+02:00*%
%TF.ProjectId,sboxnet2usb,73626f78-6e65-4743-9275-73622e6b6963,rev?*%
%TF.SameCoordinates,Original*%
%TF.FileFunction,Soldermask,Top*%
%TF.FilePolarity,Negative*%
%FSLAX46Y46*%
G04 Gerber Fmt 4.6, Leading zero omitted, Abs format (unit mm)*
G04 Created by KiCad (PCBNEW 5.1.6-c6e7f7d~87~ubuntu18.04.1) date 2021-03-29 12:27:15*
%MOMM*%
%LPD*%
G01*
G04 APERTURE LIST*
%ADD10C,1.700000*%
%ADD11R,1.600000X1.700000*%
%ADD12C,3.100000*%
%ADD13C,2.300000*%
%ADD14C,3.270000*%
%ADD15R,1.624000X1.624000*%
%ADD16C,1.624000*%
%ADD17O,1.800000X1.800000*%
%ADD18R,1.800000X1.800000*%
%ADD19R,3.100000X3.100000*%
%ADD20C,1.600000*%
%ADD21O,1.700000X1.700000*%
%ADD22R,1.700000X1.700000*%
%ADD23O,1.900000X1.900000*%
%ADD24R,1.900000X1.900000*%
G04 APERTURE END LIST*
D10*
%TO.C,J1*%
X249500000Y-100400000D03*
X249500000Y-102900000D03*
X249500000Y-104900000D03*
D11*
X249500000Y-107400000D03*
D12*
X252210000Y-97330000D03*
X252210000Y-110470000D03*
%TD*%
D13*
%TO.C,REF\u002A\u002A*%
X253600000Y-124100000D03*
%TD*%
%TO.C,REF\u002A\u002A*%
X253500000Y-81500000D03*
%TD*%
%TO.C,REF\u002A\u002A*%
X204900000Y-120000000D03*
%TD*%
D14*
%TO.C,J3*%
X156075540Y-109850000D03*
X156200000Y-98385000D03*
D15*
X162550000Y-99660000D03*
D16*
X165090000Y-100930000D03*
X162550000Y-102200000D03*
X165090000Y-103470000D03*
X162550000Y-104740000D03*
X162550000Y-107280000D03*
X165090000Y-106005000D03*
X165090000Y-108545000D03*
%TD*%
D14*
%TO.C,J4*%
X156175540Y-93750000D03*
X156300000Y-82285000D03*
D15*
X162650000Y-83560000D03*
D16*
X165190000Y-84830000D03*
X162650000Y-86100000D03*
X165190000Y-87370000D03*
X162650000Y-88640000D03*
X162650000Y-91180000D03*
X165190000Y-89905000D03*
X165190000Y-92445000D03*
%TD*%
D17*
%TO.C,J5*%
X173300000Y-101160000D03*
D18*
X173300000Y-103700000D03*
%TD*%
D17*
%TO.C,J6*%
X173800000Y-85835000D03*
D18*
X173800000Y-88375000D03*
%TD*%
D12*
%TO.C,J7*%
X157200000Y-119900000D03*
D19*
X152200000Y-119900000D03*
%TD*%
D12*
%TO.C,J2*%
X194000000Y-118900000D03*
X199000000Y-115800000D03*
X194000000Y-112700000D03*
%TD*%
%TO.C,J8*%
X167800000Y-119900000D03*
D19*
X162800000Y-119900000D03*
%TD*%
D20*
%TO.C,Y1*%
X236200000Y-115380000D03*
X236200000Y-110500000D03*
%TD*%
D21*
%TO.C,U4*%
X201520000Y-97900000D03*
X193900000Y-105520000D03*
X201520000Y-100440000D03*
X193900000Y-102980000D03*
X201520000Y-102980000D03*
X193900000Y-100440000D03*
X201520000Y-105520000D03*
D22*
X193900000Y-97900000D03*
%TD*%
D21*
%TO.C,U3*%
X193880000Y-92900000D03*
X201500000Y-85280000D03*
X193880000Y-90360000D03*
X201500000Y-87820000D03*
X193880000Y-87820000D03*
X201500000Y-90360000D03*
X193880000Y-85280000D03*
D22*
X201500000Y-92900000D03*
%TD*%
D15*
%TO.C,U2*%
X207620000Y-86140000D03*
D16*
X207620000Y-83600000D03*
X210160000Y-86140000D03*
X210160000Y-83600000D03*
X212700000Y-86140000D03*
X212700000Y-83600000D03*
%TD*%
D23*
%TO.C,D3*%
X225900000Y-84140000D03*
D24*
X225900000Y-81600000D03*
%TD*%
D23*
%TO.C,D2*%
X231200000Y-84340000D03*
D24*
X231200000Y-81800000D03*
%TD*%
D23*
%TO.C,D1*%
X236800000Y-84340000D03*
D24*
X236800000Y-81800000D03*
%TD*%
D23*
%TO.C,D4*%
X177640000Y-123850000D03*
D24*
X175100000Y-123850000D03*
%TD*%
M02*
