M48
; DRILL file {KiCad 5.1.6-c6e7f7d~87~ubuntu18.04.1} date Sun Aug  9 11:57:51 2020
; FORMAT={-:-/ absolute / inch / decimal}
; #@! TF.CreationDate,2020-08-09T11:57:51+02:00
; #@! TF.GenerationSoftware,Kicad,Pcbnew,5.1.6-c6e7f7d~87~ubuntu18.04.1
; #@! TF.FileFunction,Plated,1,2,PTH
FMAT,2
INCH
T1C0.0157
T2C0.0276
T3C0.0300
T4C0.0315
T5C0.0354
T6C0.0394
T7C0.0472
T8C0.0520
T9C0.0551
T10C0.0591
%
G90
G05
T1
X1.234Y-3.266
X1.24Y-3.552
X1.348Y-3.126
X2.0Y-4.15
X2.159Y-3.224
X2.164Y-3.126
X2.224Y-3.791
X2.233Y-3.42
X2.4Y-3.9
X2.55Y-3.006
X2.646Y-3.195
X2.758Y-3.196
X2.836Y-3.011
X2.928Y-3.124
X2.99Y-3.116
X3.037Y-3.436
X3.0732Y-4.3262
X3.086Y-3.257
X3.108Y-5.236
X3.11Y-4.437
X3.12Y-3.23
X3.136Y-3.007
X3.1709Y-3.3378
X3.18Y-2.844
X3.199Y-4.096
X3.203Y-3.67
X3.229Y-4.244
X3.232Y-5.396
X3.2379Y-3.8479
X3.2445Y-4.16
X3.2685Y-2.9985
X3.2885Y-6.092
X3.324Y-4.942
X3.331Y-2.991
X3.384Y-2.834
X3.3855Y-3.9665
X3.4179Y-5.0071
X3.418Y-5.497
X3.42Y-4.242
X3.439Y-3.792
X3.443Y-4.529
X3.4443Y-4.8663
X3.4485Y-4.0565
X3.453Y-5.121
X3.477Y-4.187
X3.477Y-5.076
X3.483Y-3.9755
X3.488Y-5.226
X3.4917Y-3.1768
X3.516Y-5.047
X3.536Y-4.0615
X3.5799Y-2.9555
X3.6421Y-4.8366
X3.6478Y-5.019
X3.6704Y-5.0712
X3.6768Y-4.8124
X3.81Y-3.83
X3.9177Y-3.0646
X3.9551Y-3.1197
X4.0026Y-4.8518
X4.0026Y-5.0702
X4.0314Y-4.9654
X4.175Y-4.1902
X4.1928Y-4.94
X4.1955Y-4.9897
X4.196Y-5.286
X4.1986Y-5.18
X4.2389Y-5.2245
X4.2787Y-4.9547
X4.2892Y-4.5732
X4.3136Y-4.1902
X4.321Y-4.242
X4.321Y-5.016
X4.3422Y-4.1417
X4.3539Y-4.3315
X4.402Y-4.2731
X4.402Y-4.6735
X4.651Y-5.0895
T2
X3.7434Y-4.9838
X3.7434Y-5.0838
X3.7434Y-5.1838
X3.7934Y-4.8838
X3.7934Y-4.9838
X3.7934Y-5.0838
X3.7934Y-5.1838
X3.7934Y-5.2838
X3.8434Y-4.8838
X3.8434Y-4.9838
X3.8434Y-5.0838
X3.8434Y-5.1838
X3.8434Y-5.2838
X3.8934Y-4.8838
X3.8934Y-4.9838
X3.8934Y-5.0838
X3.8934Y-5.1838
X3.8934Y-5.2838
X3.9434Y-4.9838
X3.9434Y-5.0838
X3.9434Y-5.1838
T3
X3.6434Y-4.4088
X3.6434Y-4.4838
X3.6434Y-4.5588
X3.6434Y-4.6338
X3.6434Y-4.7088
X3.6434Y-5.4838
X3.6434Y-5.5588
X3.6434Y-5.6338
X3.6434Y-5.7088
X3.6434Y-5.7838
X3.7434Y-4.4088
X3.7434Y-4.4838
X3.7434Y-4.5588
X3.7434Y-4.6338
X3.7434Y-4.7088
X3.7434Y-5.4838
X3.7434Y-5.5588
X3.7434Y-5.6338
X3.7434Y-5.7088
X3.7434Y-5.7838
X3.8434Y-4.4088
X3.8434Y-4.4838
X3.8434Y-4.5588
X3.8434Y-4.6338
X3.8434Y-4.7088
X3.8434Y-5.4838
X3.8434Y-5.5588
X3.8434Y-5.6338
X3.8434Y-5.7088
X3.8434Y-5.7838
X3.9434Y-4.4088
X3.9434Y-4.4838
X3.9434Y-4.5588
X3.9434Y-4.6338
X3.9434Y-4.7088
X3.9434Y-5.4838
X3.9434Y-5.5588
X3.9434Y-5.6338
X3.9434Y-5.7088
X3.9434Y-5.7838
X4.0434Y-4.4088
X4.0434Y-4.4838
X4.0434Y-4.5588
X4.0434Y-4.6338
X4.0434Y-4.7088
X4.0434Y-5.4838
X4.0434Y-5.5588
X4.0434Y-5.6338
X4.0434Y-5.7088
X4.0434Y-5.7838
T4
X2.4Y-2.65
X2.4Y-2.75
X2.5Y-2.65
X2.5Y-2.75
X2.6Y-2.65
X2.6Y-2.75
X2.7Y-2.65
X2.7Y-2.75
X2.8Y-2.65
X2.8Y-2.75
X2.9Y-2.65
X2.9Y-2.75
X3.0Y-2.65
X3.0Y-2.75
X3.1Y-2.65
X3.1Y-2.75
X3.2Y-2.65
X3.2Y-2.75
X3.3Y-2.65
X3.3Y-2.75
X3.4Y-2.65
X3.4Y-2.75
X3.5Y-2.65
X3.5Y-2.75
X3.6Y-2.65
X3.6Y-2.75
X3.7Y-2.65
X3.7Y-2.75
X3.8Y-2.65
X3.8Y-2.75
X3.9Y-2.65
X3.9Y-2.75
X4.0Y-2.65
X4.0Y-2.75
X2.4015Y-3.3175
X2.4802Y-3.3175
T5
X1.516Y-2.972
X1.616Y-2.972
X1.513Y-3.554
X1.613Y-3.554
X3.519Y-6.364
X3.519Y-6.464
X1.512Y-3.266
X1.612Y-3.266
X1.6Y-4.15
X1.7Y-4.15
X3.776Y-6.366
X3.776Y-6.466
T6
X3.143Y-5.993
X3.572Y-5.97
X3.672Y-5.97
X4.512Y-5.022
X4.479Y-5.483
X4.4192Y-4.835
X3.627Y-3.841
X2.142Y-3.588
X4.1614Y-5.975
X4.232Y-5.626
X4.332Y-5.626
X3.339Y-3.692
X3.2736Y-5.0824
X3.311Y-5.565
X4.347Y-5.2956
X1.57Y-3.778
X1.57Y-3.878
X1.57Y-3.978
T7
X5.1405Y-3.347
X5.1405Y-5.147
X2.812Y-3.35
X2.812Y-5.15
X2.5315Y-5.577
X2.7284Y-5.577
T8
X4.65Y-6.15
X4.8469Y-6.15
X5.0437Y-6.15
X5.2406Y-6.15
X2.3Y-6.15
X2.4969Y-6.15
X2.6937Y-6.15
X2.8906Y-6.15
T9
X1.504Y-5.634
X1.904Y-5.634
T10
X1.504Y-4.852
X1.504Y-5.302
X2.004Y-4.852
X2.004Y-5.302
T0
M30
