G04 #@! TF.GenerationSoftware,KiCad,Pcbnew,6.0.7-f9a2dced07~116~ubuntu20.04.1*
G04 #@! TF.CreationDate,2022-08-19T20:43:36+02:00*
G04 #@! TF.ProjectId,sboxnet-booster,73626f78-6e65-4742-9d62-6f6f73746572,rev?*
G04 #@! TF.SameCoordinates,Original*
G04 #@! TF.FileFunction,Soldermask,Bot*
G04 #@! TF.FilePolarity,Negative*
%FSLAX46Y46*%
G04 Gerber Fmt 4.6, Leading zero omitted, Abs format (unit mm)*
G04 Created by KiCad (PCBNEW 6.0.7-f9a2dced07~116~ubuntu20.04.1) date 2022-08-19 20:43:36*
%MOMM*%
%LPD*%
G01*
G04 APERTURE LIST*
%ADD10R,1.700000X1.700000*%
%ADD11R,1.980000X3.960000*%
%ADD12O,1.980000X3.960000*%
%ADD13C,1.524000*%
%ADD14R,1.524000X1.524000*%
%ADD15C,2.200000*%
%ADD16R,1.800000X1.800000*%
%ADD17C,1.800000*%
%ADD18R,1.600000X1.600000*%
%ADD19O,1.600000X1.600000*%
%ADD20C,2.800000*%
%ADD21O,2.800000X2.800000*%
%ADD22C,3.000000*%
%ADD23O,1.700000X1.700000*%
%ADD24R,2.400000X2.400000*%
%ADD25C,2.400000*%
G04 APERTURE END LIST*
D10*
X122210000Y-93250000D03*
D11*
X123660000Y-60700000D03*
D12*
X118660000Y-60700000D03*
X113660000Y-60700000D03*
X108660000Y-60700000D03*
D10*
X102750000Y-147000000D03*
X124800000Y-85100000D03*
X66700000Y-138450000D03*
D13*
X118810000Y-150900000D03*
D14*
X118810000Y-153440000D03*
D13*
X116270000Y-150900000D03*
X116270000Y-153440000D03*
X113730000Y-150900000D03*
X113730000Y-153440000D03*
X111190000Y-150900000D03*
X111190000Y-153440000D03*
X108650000Y-150900000D03*
X108650000Y-153440000D03*
X106110000Y-150900000D03*
X106110000Y-153440000D03*
X103570000Y-150900000D03*
X103570000Y-153440000D03*
X101030000Y-150900000D03*
X101030000Y-153440000D03*
X98490000Y-150900000D03*
X98490000Y-153440000D03*
X95950000Y-150900000D03*
X95950000Y-153440000D03*
X93410000Y-150900000D03*
X93410000Y-153440000D03*
X90870000Y-150900000D03*
X90870000Y-153440000D03*
X88330000Y-150900000D03*
X88330000Y-153440000D03*
X85790000Y-150900000D03*
X85790000Y-153440000D03*
X83250000Y-150900000D03*
X83250000Y-153440000D03*
X80710000Y-150900000D03*
X80710000Y-153440000D03*
X78170000Y-150900000D03*
X78170000Y-153440000D03*
D10*
X134100000Y-86250000D03*
D15*
X60700000Y-56700000D03*
D16*
X97175000Y-58550000D03*
D17*
X99715000Y-58550000D03*
D10*
X69500000Y-70350000D03*
D18*
X93995000Y-106480000D03*
D19*
X96535000Y-106480000D03*
X99075000Y-106480000D03*
X101615000Y-106480000D03*
X104155000Y-106480000D03*
X106695000Y-106480000D03*
X109235000Y-106480000D03*
X111775000Y-106480000D03*
X114315000Y-106480000D03*
X116855000Y-106480000D03*
X119395000Y-106480000D03*
X121935000Y-106480000D03*
X121935000Y-98860000D03*
X119395000Y-98860000D03*
X116855000Y-98860000D03*
X114315000Y-98860000D03*
X111775000Y-98860000D03*
X109235000Y-98860000D03*
X106695000Y-98860000D03*
X104155000Y-98860000D03*
X101615000Y-98860000D03*
X99075000Y-98860000D03*
X96535000Y-98860000D03*
X93995000Y-98860000D03*
D20*
X113920000Y-113800000D03*
D21*
X98680000Y-113800000D03*
D16*
X70075000Y-94950000D03*
D17*
X67535000Y-94950000D03*
D22*
X69030000Y-79480000D03*
X65930000Y-84480000D03*
X62830000Y-79480000D03*
D10*
X132000000Y-70500000D03*
D20*
X101630000Y-120750000D03*
D21*
X116870000Y-120750000D03*
D16*
X115900000Y-134075000D03*
D17*
X115900000Y-131535000D03*
D10*
X124800000Y-88900000D03*
X124750000Y-109982000D03*
D16*
X101900000Y-134075000D03*
D17*
X101900000Y-131535000D03*
D10*
X121000000Y-109982000D03*
D11*
X84600000Y-60700000D03*
D12*
X79600000Y-60700000D03*
X74600000Y-60700000D03*
X69600000Y-60700000D03*
D15*
X133600000Y-56600000D03*
D10*
X130490000Y-86250000D03*
D23*
X130490000Y-83710000D03*
D15*
X60700000Y-152800000D03*
D24*
X83453959Y-91380000D03*
D25*
X78453959Y-91380000D03*
D10*
X86700000Y-116300000D03*
X133550000Y-114750000D03*
D16*
X99750000Y-63500000D03*
D17*
X97210000Y-63500000D03*
D15*
X133600000Y-152700000D03*
D10*
X129550000Y-110575000D03*
D23*
X129550000Y-108035000D03*
D16*
X111250000Y-134050000D03*
D17*
X111250000Y-131510000D03*
D16*
X106600000Y-134075000D03*
D17*
X106600000Y-131535000D03*
D10*
X80375000Y-147150000D03*
D23*
X82915000Y-147150000D03*
M02*
