G04 #@! TF.GenerationSoftware,KiCad,Pcbnew,5.1.6-c6e7f7d~87~ubuntu18.04.1*
G04 #@! TF.CreationDate,2020-08-09T11:57:43+02:00*
G04 #@! TF.ProjectId,sboxnet-booster,73626f78-6e65-4742-9d62-6f6f73746572,rev?*
G04 #@! TF.SameCoordinates,Original*
G04 #@! TF.FileFunction,Legend,Top*
G04 #@! TF.FilePolarity,Positive*
%FSLAX46Y46*%
G04 Gerber Fmt 4.6, Leading zero omitted, Abs format (unit mm)*
G04 Created by KiCad (PCBNEW 5.1.6-c6e7f7d~87~ubuntu18.04.1) date 2020-08-09 11:57:43*
%MOMM*%
%LPD*%
G01*
G04 APERTURE LIST*
%ADD10C,0.150000*%
%ADD11C,0.120000*%
G04 APERTURE END LIST*
D10*
X33436157Y-96841060D02*
X33626633Y-96841060D01*
X33721871Y-96888680D01*
X33817109Y-96983918D01*
X33864728Y-97174394D01*
X33864728Y-97507727D01*
X33817109Y-97698203D01*
X33721871Y-97793441D01*
X33626633Y-97841060D01*
X33436157Y-97841060D01*
X33340919Y-97793441D01*
X33245680Y-97698203D01*
X33198061Y-97507727D01*
X33198061Y-97174394D01*
X33245680Y-96983918D01*
X33340919Y-96888680D01*
X33436157Y-96841060D01*
X33340919Y-96507727D02*
X33388538Y-96555346D01*
X33340919Y-96602965D01*
X33293300Y-96555346D01*
X33340919Y-96507727D01*
X33340919Y-96602965D01*
X33721871Y-96507727D02*
X33769490Y-96555346D01*
X33721871Y-96602965D01*
X33674252Y-96555346D01*
X33721871Y-96507727D01*
X33721871Y-96602965D01*
X34150442Y-97174394D02*
X34531395Y-97174394D01*
X34293300Y-97841060D02*
X34293300Y-96983918D01*
X34340919Y-96888680D01*
X34436157Y-96841060D01*
X34531395Y-96841060D01*
X34721871Y-97174394D02*
X35102823Y-97174394D01*
X34864728Y-97841060D02*
X34864728Y-96983918D01*
X34912347Y-96888680D01*
X35007585Y-96841060D01*
X35102823Y-96841060D01*
X35436157Y-97174394D02*
X35436157Y-97841060D01*
X35436157Y-97269632D02*
X35483776Y-97222013D01*
X35579014Y-97174394D01*
X35721871Y-97174394D01*
X35817109Y-97222013D01*
X35864728Y-97317251D01*
X35864728Y-97841060D01*
X36721871Y-97793441D02*
X36626633Y-97841060D01*
X36436157Y-97841060D01*
X36340919Y-97793441D01*
X36293300Y-97698203D01*
X36293300Y-97317251D01*
X36340919Y-97222013D01*
X36436157Y-97174394D01*
X36626633Y-97174394D01*
X36721871Y-97222013D01*
X36769490Y-97317251D01*
X36769490Y-97412489D01*
X36293300Y-97507727D01*
X37198061Y-97841060D02*
X37198061Y-97174394D01*
X37198061Y-97364870D02*
X37245680Y-97269632D01*
X37293300Y-97222013D01*
X37388538Y-97174394D01*
X37483776Y-97174394D01*
X32465972Y-96083380D02*
X32465972Y-95083380D01*
X33037400Y-96083380D01*
X33037400Y-95083380D01*
X33704067Y-95083380D02*
X33894543Y-95083380D01*
X33989781Y-95131000D01*
X34085020Y-95226238D01*
X34132639Y-95416714D01*
X34132639Y-95750047D01*
X34085020Y-95940523D01*
X33989781Y-96035761D01*
X33894543Y-96083380D01*
X33704067Y-96083380D01*
X33608829Y-96035761D01*
X33513591Y-95940523D01*
X33465972Y-95750047D01*
X33465972Y-95416714D01*
X33513591Y-95226238D01*
X33608829Y-95131000D01*
X33704067Y-95083380D01*
X34418353Y-95083380D02*
X34989781Y-95083380D01*
X34704067Y-96083380D02*
X34704067Y-95083380D01*
X35275496Y-95797666D02*
X35751686Y-95797666D01*
X35180258Y-96083380D02*
X35513591Y-95083380D01*
X35846924Y-96083380D01*
X36180258Y-95083380D02*
X36180258Y-95892904D01*
X36227877Y-95988142D01*
X36275496Y-96035761D01*
X36370734Y-96083380D01*
X36561210Y-96083380D01*
X36656448Y-96035761D01*
X36704067Y-95988142D01*
X36751686Y-95892904D01*
X36751686Y-95083380D01*
X37180258Y-96035761D02*
X37323115Y-96083380D01*
X37561210Y-96083380D01*
X37656448Y-96035761D01*
X37704067Y-95988142D01*
X37751686Y-95892904D01*
X37751686Y-95797666D01*
X37704067Y-95702428D01*
X37656448Y-95654809D01*
X37561210Y-95607190D01*
X37370734Y-95559571D01*
X37275496Y-95511952D01*
X37227877Y-95464333D01*
X37180258Y-95369095D01*
X37180258Y-95273857D01*
X37227877Y-95178619D01*
X37275496Y-95131000D01*
X37370734Y-95083380D01*
X37608829Y-95083380D01*
X37751686Y-95131000D01*
X39095016Y-109553000D02*
X39095016Y-108553000D01*
X39475968Y-108553000D01*
X39571206Y-108600620D01*
X39618825Y-108648239D01*
X39666444Y-108743477D01*
X39666444Y-108886334D01*
X39618825Y-108981572D01*
X39571206Y-109029191D01*
X39475968Y-109076810D01*
X39095016Y-109076810D01*
X40285492Y-108553000D02*
X40475968Y-108553000D01*
X40571206Y-108600620D01*
X40666444Y-108695858D01*
X40714063Y-108886334D01*
X40714063Y-109219667D01*
X40666444Y-109410143D01*
X40571206Y-109505381D01*
X40475968Y-109553000D01*
X40285492Y-109553000D01*
X40190254Y-109505381D01*
X40095016Y-109410143D01*
X40047397Y-109219667D01*
X40047397Y-108886334D01*
X40095016Y-108695858D01*
X40190254Y-108600620D01*
X40285492Y-108553000D01*
X41047397Y-108553000D02*
X41285492Y-109553000D01*
X41475968Y-108838715D01*
X41666444Y-109553000D01*
X41904540Y-108553000D01*
X42285492Y-109029191D02*
X42618825Y-109029191D01*
X42761682Y-109553000D02*
X42285492Y-109553000D01*
X42285492Y-108553000D01*
X42761682Y-108553000D01*
X43761682Y-109553000D02*
X43428349Y-109076810D01*
X43190254Y-109553000D02*
X43190254Y-108553000D01*
X43571206Y-108553000D01*
X43666444Y-108600620D01*
X43714063Y-108648239D01*
X43761682Y-108743477D01*
X43761682Y-108886334D01*
X43714063Y-108981572D01*
X43666444Y-109029191D01*
X43571206Y-109076810D01*
X43190254Y-109076810D01*
X108292188Y-151293580D02*
X108482664Y-151293580D01*
X108577902Y-151341200D01*
X108673140Y-151436438D01*
X108720760Y-151626914D01*
X108720760Y-151960247D01*
X108673140Y-152150723D01*
X108577902Y-152245961D01*
X108482664Y-152293580D01*
X108292188Y-152293580D01*
X108196950Y-152245961D01*
X108101712Y-152150723D01*
X108054093Y-151960247D01*
X108054093Y-151626914D01*
X108101712Y-151436438D01*
X108196950Y-151341200D01*
X108292188Y-151293580D01*
X109149331Y-151293580D02*
X109149331Y-152103104D01*
X109196950Y-152198342D01*
X109244569Y-152245961D01*
X109339807Y-152293580D01*
X109530283Y-152293580D01*
X109625521Y-152245961D01*
X109673140Y-152198342D01*
X109720760Y-152103104D01*
X109720760Y-151293580D01*
X110054093Y-151293580D02*
X110625521Y-151293580D01*
X110339807Y-152293580D02*
X110339807Y-151293580D01*
X111482664Y-152293580D02*
X110911236Y-152293580D01*
X111196950Y-152293580D02*
X111196950Y-151293580D01*
X111101712Y-151436438D01*
X111006474Y-151531676D01*
X110911236Y-151579295D01*
X111911236Y-152293580D02*
X111911236Y-151293580D01*
X111911236Y-151674533D02*
X112006474Y-151626914D01*
X112196950Y-151626914D01*
X112292188Y-151674533D01*
X112339807Y-151722152D01*
X112387426Y-151817390D01*
X112387426Y-152103104D01*
X112339807Y-152198342D01*
X112292188Y-152245961D01*
X112196950Y-152293580D01*
X112006474Y-152293580D01*
X111911236Y-152245961D01*
X112914988Y-134102860D02*
X113105464Y-134102860D01*
X113200702Y-134150480D01*
X113295940Y-134245718D01*
X113343560Y-134436194D01*
X113343560Y-134769527D01*
X113295940Y-134960003D01*
X113200702Y-135055241D01*
X113105464Y-135102860D01*
X112914988Y-135102860D01*
X112819750Y-135055241D01*
X112724512Y-134960003D01*
X112676893Y-134769527D01*
X112676893Y-134436194D01*
X112724512Y-134245718D01*
X112819750Y-134150480D01*
X112914988Y-134102860D01*
X113772131Y-134102860D02*
X113772131Y-134912384D01*
X113819750Y-135007622D01*
X113867369Y-135055241D01*
X113962607Y-135102860D01*
X114153083Y-135102860D01*
X114248321Y-135055241D01*
X114295940Y-135007622D01*
X114343560Y-134912384D01*
X114343560Y-134102860D01*
X114676893Y-134102860D02*
X115248321Y-134102860D01*
X114962607Y-135102860D02*
X114962607Y-134102860D01*
X115534036Y-134198099D02*
X115581655Y-134150480D01*
X115676893Y-134102860D01*
X115914988Y-134102860D01*
X116010226Y-134150480D01*
X116057845Y-134198099D01*
X116105464Y-134293337D01*
X116105464Y-134388575D01*
X116057845Y-134531432D01*
X115486417Y-135102860D01*
X116105464Y-135102860D01*
X116534036Y-135102860D02*
X116534036Y-134102860D01*
X116534036Y-134483813D02*
X116629274Y-134436194D01*
X116819750Y-134436194D01*
X116914988Y-134483813D01*
X116962607Y-134531432D01*
X117010226Y-134626670D01*
X117010226Y-134912384D01*
X116962607Y-135007622D01*
X116914988Y-135055241D01*
X116819750Y-135102860D01*
X116629274Y-135102860D01*
X116534036Y-135055241D01*
X48592337Y-88306660D02*
X48925670Y-89306660D01*
X49259003Y-88306660D01*
X49592337Y-89306660D02*
X49592337Y-88639994D01*
X49592337Y-88735232D02*
X49639956Y-88687613D01*
X49735194Y-88639994D01*
X49878051Y-88639994D01*
X49973289Y-88687613D01*
X50020908Y-88782851D01*
X50020908Y-89306660D01*
X50020908Y-88782851D02*
X50068527Y-88687613D01*
X50163765Y-88639994D01*
X50306622Y-88639994D01*
X50401860Y-88687613D01*
X50449480Y-88782851D01*
X50449480Y-89306660D01*
X50878051Y-89259041D02*
X50973289Y-89306660D01*
X51163765Y-89306660D01*
X51259003Y-89259041D01*
X51306622Y-89163803D01*
X51306622Y-89116184D01*
X51259003Y-89020946D01*
X51163765Y-88973327D01*
X51020908Y-88973327D01*
X50925670Y-88925708D01*
X50878051Y-88830470D01*
X50878051Y-88782851D01*
X50925670Y-88687613D01*
X51020908Y-88639994D01*
X51163765Y-88639994D01*
X51259003Y-88687613D01*
X52163765Y-88639994D02*
X52163765Y-89449518D01*
X52116146Y-89544756D01*
X52068527Y-89592375D01*
X51973289Y-89639994D01*
X51830432Y-89639994D01*
X51735194Y-89592375D01*
X52163765Y-89259041D02*
X52068527Y-89306660D01*
X51878051Y-89306660D01*
X51782813Y-89259041D01*
X51735194Y-89211422D01*
X51687575Y-89116184D01*
X51687575Y-88830470D01*
X51735194Y-88735232D01*
X51782813Y-88687613D01*
X51878051Y-88639994D01*
X52068527Y-88639994D01*
X52163765Y-88687613D01*
X108273815Y-128337060D02*
X108607148Y-129337060D01*
X108940481Y-128337060D01*
X109607148Y-128813251D02*
X109750005Y-128860870D01*
X109797624Y-128908489D01*
X109845243Y-129003727D01*
X109845243Y-129146584D01*
X109797624Y-129241822D01*
X109750005Y-129289441D01*
X109654767Y-129337060D01*
X109273815Y-129337060D01*
X109273815Y-128337060D01*
X109607148Y-128337060D01*
X109702386Y-128384680D01*
X109750005Y-128432299D01*
X109797624Y-128527537D01*
X109797624Y-128622775D01*
X109750005Y-128718013D01*
X109702386Y-128765632D01*
X109607148Y-128813251D01*
X109273815Y-128813251D01*
X110464291Y-128337060D02*
X110654767Y-128337060D01*
X110750005Y-128384680D01*
X110845243Y-128479918D01*
X110892862Y-128670394D01*
X110892862Y-129003727D01*
X110845243Y-129194203D01*
X110750005Y-129289441D01*
X110654767Y-129337060D01*
X110464291Y-129337060D01*
X110369053Y-129289441D01*
X110273815Y-129194203D01*
X110226196Y-129003727D01*
X110226196Y-128670394D01*
X110273815Y-128479918D01*
X110369053Y-128384680D01*
X110464291Y-128337060D01*
X111511910Y-128337060D02*
X111702386Y-128337060D01*
X111797624Y-128384680D01*
X111892862Y-128479918D01*
X111940481Y-128670394D01*
X111940481Y-129003727D01*
X111892862Y-129194203D01*
X111797624Y-129289441D01*
X111702386Y-129337060D01*
X111511910Y-129337060D01*
X111416672Y-129289441D01*
X111321434Y-129194203D01*
X111273815Y-129003727D01*
X111273815Y-128670394D01*
X111321434Y-128479918D01*
X111416672Y-128384680D01*
X111511910Y-128337060D01*
X112226196Y-128337060D02*
X112797624Y-128337060D01*
X112511910Y-129337060D02*
X112511910Y-128337060D01*
X108863213Y-122865140D02*
X108529880Y-122388950D01*
X108291784Y-122865140D02*
X108291784Y-121865140D01*
X108672737Y-121865140D01*
X108767975Y-121912760D01*
X108815594Y-121960379D01*
X108863213Y-122055617D01*
X108863213Y-122198474D01*
X108815594Y-122293712D01*
X108767975Y-122341331D01*
X108672737Y-122388950D01*
X108291784Y-122388950D01*
X109863213Y-122769902D02*
X109815594Y-122817521D01*
X109672737Y-122865140D01*
X109577499Y-122865140D01*
X109434641Y-122817521D01*
X109339403Y-122722283D01*
X109291784Y-122627045D01*
X109244165Y-122436569D01*
X109244165Y-122293712D01*
X109291784Y-122103236D01*
X109339403Y-122007998D01*
X109434641Y-121912760D01*
X109577499Y-121865140D01*
X109672737Y-121865140D01*
X109815594Y-121912760D01*
X109863213Y-121960379D01*
X110815594Y-122865140D02*
X110244165Y-122865140D01*
X110529880Y-122865140D02*
X110529880Y-121865140D01*
X110434641Y-122007998D01*
X110339403Y-122103236D01*
X110244165Y-122150855D01*
X77715668Y-147783300D02*
X77906144Y-147783300D01*
X78001382Y-147830920D01*
X78096620Y-147926158D01*
X78144240Y-148116634D01*
X78144240Y-148449967D01*
X78096620Y-148640443D01*
X78001382Y-148735681D01*
X77906144Y-148783300D01*
X77715668Y-148783300D01*
X77620430Y-148735681D01*
X77525192Y-148640443D01*
X77477573Y-148449967D01*
X77477573Y-148116634D01*
X77525192Y-147926158D01*
X77620430Y-147830920D01*
X77715668Y-147783300D01*
X78572811Y-147783300D02*
X78572811Y-148592824D01*
X78620430Y-148688062D01*
X78668049Y-148735681D01*
X78763287Y-148783300D01*
X78953763Y-148783300D01*
X79049001Y-148735681D01*
X79096620Y-148688062D01*
X79144240Y-148592824D01*
X79144240Y-147783300D01*
X79477573Y-147783300D02*
X80049001Y-147783300D01*
X79763287Y-148783300D02*
X79763287Y-147783300D01*
X80906144Y-148783300D02*
X80334716Y-148783300D01*
X80620430Y-148783300D02*
X80620430Y-147783300D01*
X80525192Y-147926158D01*
X80429954Y-148021396D01*
X80334716Y-148069015D01*
X81763287Y-148783300D02*
X81763287Y-148259491D01*
X81715668Y-148164253D01*
X81620430Y-148116634D01*
X81429954Y-148116634D01*
X81334716Y-148164253D01*
X81763287Y-148735681D02*
X81668049Y-148783300D01*
X81429954Y-148783300D01*
X81334716Y-148735681D01*
X81287097Y-148640443D01*
X81287097Y-148545205D01*
X81334716Y-148449967D01*
X81429954Y-148402348D01*
X81668049Y-148402348D01*
X81763287Y-148354729D01*
X77964588Y-140666220D02*
X78155064Y-140666220D01*
X78250302Y-140713840D01*
X78345540Y-140809078D01*
X78393160Y-140999554D01*
X78393160Y-141332887D01*
X78345540Y-141523363D01*
X78250302Y-141618601D01*
X78155064Y-141666220D01*
X77964588Y-141666220D01*
X77869350Y-141618601D01*
X77774112Y-141523363D01*
X77726493Y-141332887D01*
X77726493Y-140999554D01*
X77774112Y-140809078D01*
X77869350Y-140713840D01*
X77964588Y-140666220D01*
X78821731Y-140666220D02*
X78821731Y-141475744D01*
X78869350Y-141570982D01*
X78916969Y-141618601D01*
X79012207Y-141666220D01*
X79202683Y-141666220D01*
X79297921Y-141618601D01*
X79345540Y-141570982D01*
X79393160Y-141475744D01*
X79393160Y-140666220D01*
X79726493Y-140666220D02*
X80297921Y-140666220D01*
X80012207Y-141666220D02*
X80012207Y-140666220D01*
X80583636Y-140761459D02*
X80631255Y-140713840D01*
X80726493Y-140666220D01*
X80964588Y-140666220D01*
X81059826Y-140713840D01*
X81107445Y-140761459D01*
X81155064Y-140856697D01*
X81155064Y-140951935D01*
X81107445Y-141094792D01*
X80536017Y-141666220D01*
X81155064Y-141666220D01*
X82012207Y-141666220D02*
X82012207Y-141142411D01*
X81964588Y-141047173D01*
X81869350Y-140999554D01*
X81678874Y-140999554D01*
X81583636Y-141047173D01*
X82012207Y-141618601D02*
X81916969Y-141666220D01*
X81678874Y-141666220D01*
X81583636Y-141618601D01*
X81536017Y-141523363D01*
X81536017Y-141428125D01*
X81583636Y-141332887D01*
X81678874Y-141285268D01*
X81916969Y-141285268D01*
X82012207Y-141237649D01*
X116446323Y-139847580D02*
X116112990Y-139371390D01*
X115874895Y-139847580D02*
X115874895Y-138847580D01*
X116255847Y-138847580D01*
X116351085Y-138895200D01*
X116398704Y-138942819D01*
X116446323Y-139038057D01*
X116446323Y-139180914D01*
X116398704Y-139276152D01*
X116351085Y-139323771D01*
X116255847Y-139371390D01*
X115874895Y-139371390D01*
X117446323Y-139752342D02*
X117398704Y-139799961D01*
X117255847Y-139847580D01*
X117160609Y-139847580D01*
X117017752Y-139799961D01*
X116922514Y-139704723D01*
X116874895Y-139609485D01*
X116827276Y-139419009D01*
X116827276Y-139276152D01*
X116874895Y-139085676D01*
X116922514Y-138990438D01*
X117017752Y-138895200D01*
X117160609Y-138847580D01*
X117255847Y-138847580D01*
X117398704Y-138895200D01*
X117446323Y-138942819D01*
X85573644Y-129605731D02*
X85906978Y-129605731D01*
X86049835Y-130129540D02*
X85573644Y-130129540D01*
X85573644Y-129129540D01*
X86049835Y-129129540D01*
X86478406Y-130129540D02*
X86478406Y-129129540D01*
X87049835Y-130129540D01*
X87049835Y-129129540D01*
X86726520Y-94178380D02*
X86726520Y-93178380D01*
X87202710Y-94178380D02*
X87202710Y-93178380D01*
X87774139Y-94178380D01*
X87774139Y-93178380D01*
X88202710Y-93273619D02*
X88250329Y-93226000D01*
X88345567Y-93178380D01*
X88583662Y-93178380D01*
X88678900Y-93226000D01*
X88726520Y-93273619D01*
X88774139Y-93368857D01*
X88774139Y-93464095D01*
X88726520Y-93606952D01*
X88155091Y-94178380D01*
X88774139Y-94178380D01*
X94138240Y-97947740D02*
X94138240Y-96947740D01*
X94614430Y-97947740D02*
X94614430Y-96947740D01*
X95185859Y-97947740D01*
X95185859Y-96947740D01*
X96185859Y-97947740D02*
X95614430Y-97947740D01*
X95900144Y-97947740D02*
X95900144Y-96947740D01*
X95804906Y-97090598D01*
X95709668Y-97185836D01*
X95614430Y-97233455D01*
D11*
X59436000Y-71120000D02*
X104140000Y-71374000D01*
X104140000Y-71374000D02*
X104140000Y-65532000D01*
X104140000Y-65532000D02*
X60198000Y-65532000D01*
X60198000Y-65532000D02*
X59436000Y-65532000D01*
X59436000Y-65532000D02*
X59436000Y-71120000D01*
X105445001Y-77235001D02*
X101995001Y-77235001D01*
X105445001Y-77235001D02*
X107395001Y-77235001D01*
X105445001Y-82355001D02*
X103495001Y-82355001D01*
X105445001Y-82355001D02*
X107395001Y-82355001D01*
X111872937Y-79125001D02*
X113077065Y-79125001D01*
X111872937Y-77305001D02*
X113077065Y-77305001D01*
X103222360Y-121078520D02*
X103222360Y-123128520D01*
X103222360Y-137178520D02*
X103222360Y-135128520D01*
X95622360Y-137178520D02*
X92022360Y-137178520D01*
X92022360Y-137178520D02*
X92022360Y-135128520D01*
X103222360Y-121078520D02*
X99622360Y-121078520D01*
X92022360Y-121078520D02*
X92022360Y-123128520D01*
X92022360Y-123128520D02*
X90022360Y-123128520D01*
X95622360Y-121078520D02*
X92022360Y-121078520D01*
X103222360Y-137178520D02*
X99622360Y-137178520D01*
X104369560Y-153095000D02*
X107029560Y-153095000D01*
X104369560Y-153035000D02*
X104369560Y-153095000D01*
X107029560Y-153035000D02*
X107029560Y-153095000D01*
X104369560Y-153035000D02*
X107029560Y-153035000D01*
X104369560Y-151765000D02*
X104369560Y-150435000D01*
X104369560Y-150435000D02*
X105699560Y-150435000D01*
X109083800Y-135838240D02*
X111743800Y-135838240D01*
X109083800Y-135778240D02*
X109083800Y-135838240D01*
X111743800Y-135778240D02*
X111743800Y-135838240D01*
X109083800Y-135778240D02*
X111743800Y-135778240D01*
X109083800Y-134508240D02*
X109083800Y-133178240D01*
X109083800Y-133178240D02*
X110413800Y-133178240D01*
X53076800Y-92465200D02*
X55736800Y-92465200D01*
X53076800Y-92405200D02*
X53076800Y-92465200D01*
X55736800Y-92405200D02*
X55736800Y-92465200D01*
X53076800Y-92405200D02*
X55736800Y-92405200D01*
X53076800Y-91135200D02*
X53076800Y-89805200D01*
X53076800Y-89805200D02*
X54406800Y-89805200D01*
X113274800Y-128888800D02*
X115934800Y-128888800D01*
X113274800Y-128828800D02*
X113274800Y-128888800D01*
X115934800Y-128828800D02*
X115934800Y-128888800D01*
X113274800Y-128828800D02*
X115934800Y-128828800D01*
X113274800Y-127558800D02*
X113274800Y-126228800D01*
X113274800Y-126228800D02*
X114604800Y-126228800D01*
X110917680Y-124139000D02*
X113577680Y-124139000D01*
X110917680Y-124079000D02*
X110917680Y-124139000D01*
X113577680Y-124079000D02*
X113577680Y-124139000D01*
X110917680Y-124079000D02*
X113577680Y-124079000D01*
X110917680Y-122809000D02*
X110917680Y-121479000D01*
X110917680Y-121479000D02*
X112247680Y-121479000D01*
X78502200Y-153552200D02*
X81162200Y-153552200D01*
X78502200Y-153492200D02*
X78502200Y-153552200D01*
X81162200Y-153492200D02*
X81162200Y-153552200D01*
X78502200Y-153492200D02*
X81162200Y-153492200D01*
X78502200Y-152222200D02*
X78502200Y-150892200D01*
X78502200Y-150892200D02*
X79832200Y-150892200D01*
X82769400Y-142681000D02*
X85429400Y-142681000D01*
X82769400Y-142621000D02*
X82769400Y-142681000D01*
X85429400Y-142621000D02*
X85429400Y-142681000D01*
X82769400Y-142621000D02*
X85429400Y-142621000D01*
X82769400Y-141351000D02*
X82769400Y-140021000D01*
X82769400Y-140021000D02*
X84099400Y-140021000D01*
X112436600Y-140598200D02*
X115096600Y-140598200D01*
X112436600Y-140538200D02*
X112436600Y-140598200D01*
X115096600Y-140538200D02*
X115096600Y-140598200D01*
X112436600Y-140538200D02*
X115096600Y-140538200D01*
X112436600Y-139268200D02*
X112436600Y-137938200D01*
X112436600Y-137938200D02*
X113766600Y-137938200D01*
X81819440Y-130422960D02*
X84479440Y-130422960D01*
X81819440Y-130362960D02*
X81819440Y-130422960D01*
X84479440Y-130362960D02*
X84479440Y-130422960D01*
X81819440Y-130362960D02*
X84479440Y-130362960D01*
X81819440Y-129092960D02*
X81819440Y-127762960D01*
X81819440Y-127762960D02*
X83149440Y-127762960D01*
X83480600Y-95106800D02*
X86140600Y-95106800D01*
X83480600Y-95046800D02*
X83480600Y-95106800D01*
X86140600Y-95046800D02*
X86140600Y-95106800D01*
X83480600Y-95046800D02*
X86140600Y-95046800D01*
X83480600Y-93776800D02*
X83480600Y-92446800D01*
X83480600Y-92446800D02*
X84810600Y-92446800D01*
X90795800Y-98891400D02*
X93455800Y-98891400D01*
X90795800Y-98831400D02*
X90795800Y-98891400D01*
X93455800Y-98831400D02*
X93455800Y-98891400D01*
X90795800Y-98831400D02*
X93455800Y-98831400D01*
X90795800Y-97561400D02*
X90795800Y-96231400D01*
X90795800Y-96231400D02*
X92125800Y-96231400D01*
X68003336Y-82113800D02*
X69207464Y-82113800D01*
X68003336Y-80293800D02*
X69207464Y-80293800D01*
X87634400Y-78620536D02*
X87634400Y-79824664D01*
X89454400Y-78620536D02*
X89454400Y-79824664D01*
X33215664Y-74578800D02*
X32011536Y-74578800D01*
X33215664Y-76398800D02*
X32011536Y-76398800D01*
X81347900Y-135224436D02*
X81347900Y-136428564D01*
X83167900Y-135224436D02*
X83167900Y-136428564D01*
X60608018Y-137455800D02*
X60608018Y-138705800D01*
X59983018Y-138080800D02*
X61233018Y-138080800D01*
X73161100Y-141338800D02*
X73161100Y-141972800D01*
X73121100Y-140898800D02*
X73121100Y-142412800D01*
X73081100Y-140627800D02*
X73081100Y-142683800D01*
X73041100Y-140414800D02*
X73041100Y-142896800D01*
X73001100Y-140233800D02*
X73001100Y-143077800D01*
X72961100Y-140072800D02*
X72961100Y-143238800D01*
X72921100Y-139927800D02*
X72921100Y-143383800D01*
X72881100Y-139794800D02*
X72881100Y-143516800D01*
X72841100Y-139671800D02*
X72841100Y-143639800D01*
X72801100Y-139555800D02*
X72801100Y-143755800D01*
X72761100Y-139446800D02*
X72761100Y-143864800D01*
X72721100Y-139343800D02*
X72721100Y-143967800D01*
X72681100Y-139245800D02*
X72681100Y-144065800D01*
X72641100Y-139151800D02*
X72641100Y-144159800D01*
X72601100Y-139061800D02*
X72601100Y-144249800D01*
X72561100Y-138974800D02*
X72561100Y-144336800D01*
X72521100Y-138891800D02*
X72521100Y-144419800D01*
X72481100Y-138811800D02*
X72481100Y-144499800D01*
X72441100Y-138734800D02*
X72441100Y-144576800D01*
X72401100Y-138659800D02*
X72401100Y-144651800D01*
X72361100Y-138586800D02*
X72361100Y-144724800D01*
X72321100Y-138515800D02*
X72321100Y-144795800D01*
X72281100Y-138447800D02*
X72281100Y-144863800D01*
X72241100Y-138380800D02*
X72241100Y-144930800D01*
X72201100Y-138316800D02*
X72201100Y-144994800D01*
X72161100Y-138253800D02*
X72161100Y-145057800D01*
X72121100Y-138191800D02*
X72121100Y-145119800D01*
X72081100Y-138131800D02*
X72081100Y-145179800D01*
X72041100Y-138072800D02*
X72041100Y-145238800D01*
X72001100Y-138015800D02*
X72001100Y-145295800D01*
X71961100Y-137959800D02*
X71961100Y-145351800D01*
X71921100Y-137905800D02*
X71921100Y-145405800D01*
X71881100Y-137851800D02*
X71881100Y-145459800D01*
X71841100Y-137799800D02*
X71841100Y-145511800D01*
X71801100Y-137748800D02*
X71801100Y-145562800D01*
X71761100Y-137698800D02*
X71761100Y-145612800D01*
X71721100Y-137648800D02*
X71721100Y-145662800D01*
X71681100Y-137600800D02*
X71681100Y-145710800D01*
X71641100Y-137553800D02*
X71641100Y-145757800D01*
X71601100Y-137507800D02*
X71601100Y-145803800D01*
X71561100Y-137461800D02*
X71561100Y-145849800D01*
X71521100Y-137417800D02*
X71521100Y-145893800D01*
X71481100Y-137373800D02*
X71481100Y-145937800D01*
X71441100Y-137330800D02*
X71441100Y-145980800D01*
X71401100Y-137288800D02*
X71401100Y-146022800D01*
X71361100Y-137247800D02*
X71361100Y-146063800D01*
X71321100Y-137206800D02*
X71321100Y-146104800D01*
X71281100Y-137166800D02*
X71281100Y-146144800D01*
X71241100Y-137127800D02*
X71241100Y-146183800D01*
X71201100Y-137088800D02*
X71201100Y-146222800D01*
X71161100Y-137050800D02*
X71161100Y-146260800D01*
X71121100Y-137013800D02*
X71121100Y-146297800D01*
X71081100Y-136977800D02*
X71081100Y-146333800D01*
X71041100Y-136941800D02*
X71041100Y-146369800D01*
X71001100Y-136905800D02*
X71001100Y-146405800D01*
X70961100Y-136870800D02*
X70961100Y-146440800D01*
X70921100Y-136836800D02*
X70921100Y-146474800D01*
X70881100Y-136803800D02*
X70881100Y-146507800D01*
X70841100Y-136770800D02*
X70841100Y-146540800D01*
X70801100Y-136737800D02*
X70801100Y-146573800D01*
X70761100Y-136705800D02*
X70761100Y-146605800D01*
X70721100Y-143095800D02*
X70721100Y-146637800D01*
X70721100Y-136673800D02*
X70721100Y-140215800D01*
X70681100Y-143095800D02*
X70681100Y-146667800D01*
X70681100Y-136643800D02*
X70681100Y-140215800D01*
X70641100Y-143095800D02*
X70641100Y-146698800D01*
X70641100Y-136612800D02*
X70641100Y-140215800D01*
X70601100Y-143095800D02*
X70601100Y-146728800D01*
X70601100Y-136582800D02*
X70601100Y-140215800D01*
X70561100Y-143095800D02*
X70561100Y-146757800D01*
X70561100Y-136553800D02*
X70561100Y-140215800D01*
X70521100Y-143095800D02*
X70521100Y-146786800D01*
X70521100Y-136524800D02*
X70521100Y-140215800D01*
X70481100Y-143095800D02*
X70481100Y-146815800D01*
X70481100Y-136495800D02*
X70481100Y-140215800D01*
X70441100Y-143095800D02*
X70441100Y-146843800D01*
X70441100Y-136467800D02*
X70441100Y-140215800D01*
X70401100Y-143095800D02*
X70401100Y-146871800D01*
X70401100Y-136439800D02*
X70401100Y-140215800D01*
X70361100Y-143095800D02*
X70361100Y-146898800D01*
X70361100Y-136412800D02*
X70361100Y-140215800D01*
X70321100Y-143095800D02*
X70321100Y-146925800D01*
X70321100Y-136385800D02*
X70321100Y-140215800D01*
X70281100Y-143095800D02*
X70281100Y-146951800D01*
X70281100Y-136359800D02*
X70281100Y-140215800D01*
X70241100Y-143095800D02*
X70241100Y-146977800D01*
X70241100Y-136333800D02*
X70241100Y-140215800D01*
X70201100Y-143095800D02*
X70201100Y-147002800D01*
X70201100Y-136308800D02*
X70201100Y-140215800D01*
X70161100Y-143095800D02*
X70161100Y-147027800D01*
X70161100Y-136283800D02*
X70161100Y-140215800D01*
X70121100Y-143095800D02*
X70121100Y-147052800D01*
X70121100Y-136258800D02*
X70121100Y-140215800D01*
X70081100Y-143095800D02*
X70081100Y-147076800D01*
X70081100Y-136234800D02*
X70081100Y-140215800D01*
X70041100Y-143095800D02*
X70041100Y-147100800D01*
X70041100Y-136210800D02*
X70041100Y-140215800D01*
X70001100Y-143095800D02*
X70001100Y-147123800D01*
X70001100Y-136187800D02*
X70001100Y-140215800D01*
X69961100Y-143095800D02*
X69961100Y-147146800D01*
X69961100Y-136164800D02*
X69961100Y-140215800D01*
X69921100Y-143095800D02*
X69921100Y-147169800D01*
X69921100Y-136141800D02*
X69921100Y-140215800D01*
X69881100Y-143095800D02*
X69881100Y-147191800D01*
X69881100Y-136119800D02*
X69881100Y-140215800D01*
X69841100Y-143095800D02*
X69841100Y-147213800D01*
X69841100Y-136097800D02*
X69841100Y-140215800D01*
X69801100Y-143095800D02*
X69801100Y-147235800D01*
X69801100Y-136075800D02*
X69801100Y-140215800D01*
X69761100Y-143095800D02*
X69761100Y-147256800D01*
X69761100Y-136054800D02*
X69761100Y-140215800D01*
X69721100Y-143095800D02*
X69721100Y-147277800D01*
X69721100Y-136033800D02*
X69721100Y-140215800D01*
X69681100Y-143095800D02*
X69681100Y-147297800D01*
X69681100Y-136013800D02*
X69681100Y-140215800D01*
X69641100Y-143095800D02*
X69641100Y-147317800D01*
X69641100Y-135993800D02*
X69641100Y-140215800D01*
X69601100Y-143095800D02*
X69601100Y-147337800D01*
X69601100Y-135973800D02*
X69601100Y-140215800D01*
X69561100Y-143095800D02*
X69561100Y-147357800D01*
X69561100Y-135953800D02*
X69561100Y-140215800D01*
X69521100Y-143095800D02*
X69521100Y-147376800D01*
X69521100Y-135934800D02*
X69521100Y-140215800D01*
X69481100Y-143095800D02*
X69481100Y-147394800D01*
X69481100Y-135916800D02*
X69481100Y-140215800D01*
X69441100Y-143095800D02*
X69441100Y-147413800D01*
X69441100Y-135897800D02*
X69441100Y-140215800D01*
X69401100Y-143095800D02*
X69401100Y-147431800D01*
X69401100Y-135879800D02*
X69401100Y-140215800D01*
X69361100Y-143095800D02*
X69361100Y-147448800D01*
X69361100Y-135862800D02*
X69361100Y-140215800D01*
X69321100Y-143095800D02*
X69321100Y-147466800D01*
X69321100Y-135844800D02*
X69321100Y-140215800D01*
X69281100Y-143095800D02*
X69281100Y-147483800D01*
X69281100Y-135827800D02*
X69281100Y-140215800D01*
X69241100Y-143095800D02*
X69241100Y-147500800D01*
X69241100Y-135810800D02*
X69241100Y-140215800D01*
X69201100Y-143095800D02*
X69201100Y-147516800D01*
X69201100Y-135794800D02*
X69201100Y-140215800D01*
X69161100Y-143095800D02*
X69161100Y-147532800D01*
X69161100Y-135778800D02*
X69161100Y-140215800D01*
X69121100Y-143095800D02*
X69121100Y-147548800D01*
X69121100Y-135762800D02*
X69121100Y-140215800D01*
X69081100Y-143095800D02*
X69081100Y-147563800D01*
X69081100Y-135747800D02*
X69081100Y-140215800D01*
X69041100Y-143095800D02*
X69041100Y-147579800D01*
X69041100Y-135731800D02*
X69041100Y-140215800D01*
X69001100Y-143095800D02*
X69001100Y-147594800D01*
X69001100Y-135716800D02*
X69001100Y-140215800D01*
X68961100Y-143095800D02*
X68961100Y-147608800D01*
X68961100Y-135702800D02*
X68961100Y-140215800D01*
X68921100Y-143095800D02*
X68921100Y-147622800D01*
X68921100Y-135688800D02*
X68921100Y-140215800D01*
X68881100Y-143095800D02*
X68881100Y-147636800D01*
X68881100Y-135674800D02*
X68881100Y-140215800D01*
X68841100Y-143095800D02*
X68841100Y-147650800D01*
X68841100Y-135660800D02*
X68841100Y-140215800D01*
X68801100Y-143095800D02*
X68801100Y-147663800D01*
X68801100Y-135647800D02*
X68801100Y-140215800D01*
X68761100Y-143095800D02*
X68761100Y-147676800D01*
X68761100Y-135634800D02*
X68761100Y-140215800D01*
X68721100Y-143095800D02*
X68721100Y-147689800D01*
X68721100Y-135621800D02*
X68721100Y-140215800D01*
X68681100Y-143095800D02*
X68681100Y-147702800D01*
X68681100Y-135608800D02*
X68681100Y-140215800D01*
X68641100Y-143095800D02*
X68641100Y-147714800D01*
X68641100Y-135596800D02*
X68641100Y-140215800D01*
X68601100Y-143095800D02*
X68601100Y-147726800D01*
X68601100Y-135584800D02*
X68601100Y-140215800D01*
X68561100Y-143095800D02*
X68561100Y-147738800D01*
X68561100Y-135572800D02*
X68561100Y-140215800D01*
X68521100Y-143095800D02*
X68521100Y-147749800D01*
X68521100Y-135561800D02*
X68521100Y-140215800D01*
X68481100Y-143095800D02*
X68481100Y-147760800D01*
X68481100Y-135550800D02*
X68481100Y-140215800D01*
X68441100Y-143095800D02*
X68441100Y-147771800D01*
X68441100Y-135539800D02*
X68441100Y-140215800D01*
X68401100Y-143095800D02*
X68401100Y-147781800D01*
X68401100Y-135529800D02*
X68401100Y-140215800D01*
X68361100Y-143095800D02*
X68361100Y-147792800D01*
X68361100Y-135518800D02*
X68361100Y-140215800D01*
X68321100Y-143095800D02*
X68321100Y-147801800D01*
X68321100Y-135509800D02*
X68321100Y-140215800D01*
X68281100Y-143095800D02*
X68281100Y-147811800D01*
X68281100Y-135499800D02*
X68281100Y-140215800D01*
X68241100Y-143095800D02*
X68241100Y-147821800D01*
X68241100Y-135489800D02*
X68241100Y-140215800D01*
X68201100Y-143095800D02*
X68201100Y-147830800D01*
X68201100Y-135480800D02*
X68201100Y-140215800D01*
X68161100Y-143095800D02*
X68161100Y-147839800D01*
X68161100Y-135471800D02*
X68161100Y-140215800D01*
X68121100Y-143095800D02*
X68121100Y-147847800D01*
X68121100Y-135463800D02*
X68121100Y-140215800D01*
X68081100Y-143095800D02*
X68081100Y-147856800D01*
X68081100Y-135454800D02*
X68081100Y-140215800D01*
X68041100Y-143095800D02*
X68041100Y-147864800D01*
X68041100Y-135446800D02*
X68041100Y-140215800D01*
X68001100Y-143095800D02*
X68001100Y-147871800D01*
X68001100Y-135439800D02*
X68001100Y-140215800D01*
X67961100Y-143095800D02*
X67961100Y-147879800D01*
X67961100Y-135431800D02*
X67961100Y-140215800D01*
X67921100Y-143095800D02*
X67921100Y-147886800D01*
X67921100Y-135424800D02*
X67921100Y-140215800D01*
X67881100Y-143095800D02*
X67881100Y-147893800D01*
X67881100Y-135417800D02*
X67881100Y-140215800D01*
X67841100Y-135410800D02*
X67841100Y-147900800D01*
X67801100Y-135403800D02*
X67801100Y-147907800D01*
X67761100Y-135397800D02*
X67761100Y-147913800D01*
X67721100Y-135391800D02*
X67721100Y-147919800D01*
X67681100Y-135386800D02*
X67681100Y-147924800D01*
X67641100Y-135380800D02*
X67641100Y-147930800D01*
X67601100Y-135375800D02*
X67601100Y-147935800D01*
X67561100Y-135370800D02*
X67561100Y-147940800D01*
X67521100Y-135365800D02*
X67521100Y-147945800D01*
X67480100Y-135361800D02*
X67480100Y-147949800D01*
X67440100Y-135357800D02*
X67440100Y-147953800D01*
X67400100Y-135353800D02*
X67400100Y-147957800D01*
X67360100Y-135349800D02*
X67360100Y-147961800D01*
X67320100Y-135346800D02*
X67320100Y-147964800D01*
X67280100Y-135343800D02*
X67280100Y-147967800D01*
X67240100Y-135340800D02*
X67240100Y-147970800D01*
X67200100Y-135337800D02*
X67200100Y-147973800D01*
X67160100Y-135335800D02*
X67160100Y-147975800D01*
X67120100Y-135333800D02*
X67120100Y-147977800D01*
X67080100Y-135331800D02*
X67080100Y-147979800D01*
X67040100Y-135329800D02*
X67040100Y-147981800D01*
X67000100Y-135328800D02*
X67000100Y-147982800D01*
X66960100Y-135327800D02*
X66960100Y-147983800D01*
X66920100Y-135326800D02*
X66920100Y-147984800D01*
X66880100Y-135325800D02*
X66880100Y-147985800D01*
X66840100Y-135325800D02*
X66840100Y-147985800D01*
X66800100Y-135325800D02*
X66800100Y-147985800D01*
X73170100Y-141655800D02*
G75*
G03*
X73170100Y-141655800I-6370000J0D01*
G01*
X89398800Y-150308000D02*
X89398800Y-152968000D01*
X91998800Y-150308000D02*
X89398800Y-150308000D01*
X91998800Y-152968000D02*
X89398800Y-152968000D01*
X91998800Y-150308000D02*
X91998800Y-152968000D01*
X93268800Y-150308000D02*
X94598800Y-150308000D01*
X94598800Y-150308000D02*
X94598800Y-151638000D01*
X64207500Y-92451900D02*
X64207500Y-93761900D01*
X64207500Y-93761900D02*
X61487500Y-93761900D01*
X60347500Y-89271900D02*
X61487500Y-89271900D01*
X64207500Y-89041900D02*
X64207500Y-90351900D01*
X61487500Y-89041900D02*
X64207500Y-89041900D01*
X61487500Y-89041900D02*
X61487500Y-89271900D01*
X61487500Y-93761900D02*
X61487500Y-93531900D01*
X38548000Y-102371200D02*
X41208000Y-102371200D01*
X38548000Y-97231200D02*
X38548000Y-102371200D01*
X41208000Y-97231200D02*
X41208000Y-102371200D01*
X38548000Y-97231200D02*
X41208000Y-97231200D01*
X38548000Y-95961200D02*
X38548000Y-94631200D01*
X38548000Y-94631200D02*
X39878000Y-94631200D01*
X124084164Y-130094400D02*
X122880036Y-130094400D01*
X124084164Y-128274400D02*
X122880036Y-128274400D01*
X48927936Y-104500000D02*
X50132064Y-104500000D01*
X48927936Y-106320000D02*
X50132064Y-106320000D01*
X48927936Y-98150000D02*
X50132064Y-98150000D01*
X48927936Y-99970000D02*
X50132064Y-99970000D01*
X59087936Y-98150000D02*
X60292064Y-98150000D01*
X59087936Y-99970000D02*
X60292064Y-99970000D01*
X85720464Y-155608700D02*
X84516336Y-155608700D01*
X85720464Y-153788700D02*
X84516336Y-153788700D01*
X89771900Y-155976236D02*
X89771900Y-157180364D01*
X87951900Y-155976236D02*
X87951900Y-157180364D01*
X78455436Y-128033100D02*
X79659564Y-128033100D01*
X78455436Y-129853100D02*
X79659564Y-129853100D01*
X135188700Y-88753800D02*
X125948700Y-88753800D01*
X125948700Y-88753800D02*
X125948700Y-126993800D01*
X125948700Y-126993800D02*
X135188700Y-126993800D01*
X135188700Y-126993800D02*
X135188700Y-88753800D01*
X130568700Y-86453800D02*
X130568700Y-88753800D01*
X130568700Y-129293800D02*
X130568700Y-126993800D01*
X66804800Y-127070000D02*
X76044800Y-127070000D01*
X76044800Y-127070000D02*
X76044800Y-88830000D01*
X76044800Y-88830000D02*
X66804800Y-88830000D01*
X66804800Y-88830000D02*
X66804800Y-127070000D01*
X71424800Y-129370000D02*
X71424800Y-127070000D01*
X71424800Y-86530000D02*
X71424800Y-88830000D01*
X109926800Y-112237436D02*
X109926800Y-113441564D01*
X108106800Y-112237436D02*
X108106800Y-113441564D01*
X86516800Y-116959464D02*
X86516800Y-115755336D01*
X88336800Y-116959464D02*
X88336800Y-115755336D01*
X116276800Y-121911836D02*
X116276800Y-123115964D01*
X114456800Y-121911836D02*
X114456800Y-123115964D01*
X80437400Y-118079436D02*
X80437400Y-119283564D01*
X78617400Y-118079436D02*
X78617400Y-119283564D01*
X78849136Y-109008500D02*
X80053264Y-109008500D01*
X78849136Y-110828500D02*
X80053264Y-110828500D01*
X82596400Y-78668336D02*
X82596400Y-79872464D01*
X80776400Y-78668336D02*
X80776400Y-79872464D01*
X84434000Y-79850064D02*
X84434000Y-78645936D01*
X86254000Y-79850064D02*
X86254000Y-78645936D01*
X33393464Y-83917200D02*
X32189336Y-83917200D01*
X33393464Y-82097200D02*
X32189336Y-82097200D01*
X33520464Y-91207000D02*
X32316336Y-91207000D01*
X33520464Y-89387000D02*
X32316336Y-89387000D01*
X58371600Y-120890800D02*
X33831600Y-120890800D01*
X58371600Y-120890800D02*
X58371600Y-136880800D01*
X24931600Y-121820800D02*
X33831600Y-121820800D01*
X24931600Y-121820800D02*
X24931600Y-133060800D01*
X24931600Y-133060800D02*
X33831600Y-133060800D01*
X33831600Y-136880800D02*
X33831600Y-120890800D01*
X58371600Y-136880800D02*
X33831600Y-136880800D01*
X55770000Y-149910000D02*
X76570000Y-149910000D01*
X76570000Y-149910000D02*
X76570000Y-154960000D01*
X76570000Y-154960000D02*
X76070000Y-154710000D01*
X76070000Y-154710000D02*
X76070000Y-160110000D01*
X76070000Y-160110000D02*
X76620000Y-159810000D01*
X76620000Y-159810000D02*
X76620000Y-161860000D01*
X76620000Y-161860000D02*
X76070000Y-161560000D01*
X76070000Y-161560000D02*
X76070000Y-162510000D01*
X76070000Y-162510000D02*
X55770000Y-162510000D01*
X55770000Y-162510000D02*
X55770000Y-149910000D01*
X115460000Y-149910000D02*
X136260000Y-149910000D01*
X136260000Y-149910000D02*
X136260000Y-154960000D01*
X136260000Y-154960000D02*
X135760000Y-154710000D01*
X135760000Y-154710000D02*
X135760000Y-160110000D01*
X135760000Y-160110000D02*
X136310000Y-159810000D01*
X136310000Y-159810000D02*
X136310000Y-161860000D01*
X136310000Y-161860000D02*
X135760000Y-161560000D01*
X135760000Y-161560000D02*
X135760000Y-162510000D01*
X135760000Y-162510000D02*
X115460000Y-162510000D01*
X115460000Y-162510000D02*
X115460000Y-149910000D01*
X106162800Y-141570400D02*
X106162800Y-144230400D01*
X108762800Y-141570400D02*
X106162800Y-141570400D01*
X108762800Y-144230400D02*
X106162800Y-144230400D01*
X108762800Y-141570400D02*
X108762800Y-144230400D01*
X110032800Y-141570400D02*
X111362800Y-141570400D01*
X111362800Y-141570400D02*
X111362800Y-142900400D01*
X47851600Y-144743600D02*
X47851600Y-145073600D01*
X47851600Y-145073600D02*
X38711600Y-145073600D01*
X38711600Y-145073600D02*
X38711600Y-144743600D01*
X47851600Y-141463600D02*
X47851600Y-141133600D01*
X47851600Y-141133600D02*
X38711600Y-141133600D01*
X38711600Y-141133600D02*
X38711600Y-141463600D01*
X46396600Y-145073600D02*
X46396600Y-141133600D01*
X46276600Y-145073600D02*
X46276600Y-141133600D01*
X46516600Y-145073600D02*
X46516600Y-141133600D01*
X40350000Y-104174000D02*
X40350000Y-104330000D01*
X40350000Y-106490000D02*
X40350000Y-106646000D01*
X42951130Y-106489837D02*
G75*
G02*
X40869039Y-106490000I-1041130J1079837D01*
G01*
X42951130Y-104330163D02*
G75*
G03*
X40869039Y-104330000I-1041130J-1079837D01*
G01*
X43582335Y-106488608D02*
G75*
G02*
X40350000Y-106645516I-1672335J1078608D01*
G01*
X43582335Y-104331392D02*
G75*
G03*
X40350000Y-104174484I-1672335J-1078608D01*
G01*
X88146600Y-164475600D02*
X88302600Y-164475600D01*
X90462600Y-164475600D02*
X90618600Y-164475600D01*
X90462437Y-161874470D02*
G75*
G02*
X90462600Y-163956561I-1079837J-1041130D01*
G01*
X88302763Y-161874470D02*
G75*
G03*
X88302600Y-163956561I1079837J-1041130D01*
G01*
X90461208Y-161243265D02*
G75*
G02*
X90618116Y-164475600I-1078608J-1672335D01*
G01*
X88303992Y-161243265D02*
G75*
G03*
X88147084Y-164475600I1078608J-1672335D01*
G01*
X97146400Y-161406400D02*
X96990400Y-161406400D01*
X94830400Y-161406400D02*
X94674400Y-161406400D01*
X94830563Y-164007530D02*
G75*
G02*
X94830400Y-161925439I1079837J1041130D01*
G01*
X96990237Y-164007530D02*
G75*
G03*
X96990400Y-161925439I-1079837J1041130D01*
G01*
X94831792Y-164638735D02*
G75*
G02*
X94674884Y-161406400I1078608J1672335D01*
G01*
X96989008Y-164638735D02*
G75*
G03*
X97145916Y-161406400I-1078608J1672335D01*
G01*
X108266100Y-124943500D02*
X108266100Y-126643500D01*
X108266100Y-126643500D02*
X110816100Y-126643500D01*
X108266100Y-124943500D02*
X110816100Y-124943500D01*
X117181500Y-124943500D02*
X117181500Y-126643500D01*
X117181500Y-126643500D02*
X119731500Y-126643500D01*
X117181500Y-124943500D02*
X119731500Y-124943500D01*
X80815300Y-112803400D02*
X79885300Y-112803400D01*
X77655300Y-112803400D02*
X78585300Y-112803400D01*
X77655300Y-112803400D02*
X77655300Y-114963400D01*
X80815300Y-112803400D02*
X80815300Y-114263400D01*
X83596600Y-124804900D02*
X82666600Y-124804900D01*
X80436600Y-124804900D02*
X81366600Y-124804900D01*
X80436600Y-124804900D02*
X80436600Y-126964900D01*
X83596600Y-124804900D02*
X83596600Y-126264900D01*
X79712700Y-103820500D02*
X80642700Y-103820500D01*
X82872700Y-103820500D02*
X81942700Y-103820500D01*
X82872700Y-103820500D02*
X82872700Y-101660500D01*
X79712700Y-103820500D02*
X79712700Y-102360500D01*
X38216400Y-74252800D02*
X38216400Y-74408800D01*
X38216400Y-76568800D02*
X38216400Y-76724800D01*
X40817530Y-76568637D02*
G75*
G02*
X38735439Y-76568800I-1041130J1079837D01*
G01*
X40817530Y-74408963D02*
G75*
G03*
X38735439Y-74408800I-1041130J-1079837D01*
G01*
X41448735Y-76567408D02*
G75*
G02*
X38216400Y-76724316I-1672335J1078608D01*
G01*
X41448735Y-74410192D02*
G75*
G03*
X38216400Y-74253284I-1672335J-1078608D01*
G01*
X38114800Y-81720400D02*
X38114800Y-81876400D01*
X38114800Y-84036400D02*
X38114800Y-84192400D01*
X40715930Y-84036237D02*
G75*
G02*
X38633839Y-84036400I-1041130J1079837D01*
G01*
X40715930Y-81876563D02*
G75*
G03*
X38633839Y-81876400I-1041130J-1079837D01*
G01*
X41347135Y-84035008D02*
G75*
G02*
X38114800Y-84191916I-1672335J1078608D01*
G01*
X41347135Y-81877792D02*
G75*
G03*
X38114800Y-81720884I-1672335J-1078608D01*
G01*
X38140200Y-89035600D02*
X38140200Y-89191600D01*
X38140200Y-91351600D02*
X38140200Y-91507600D01*
X40741330Y-91351437D02*
G75*
G02*
X38659239Y-91351600I-1041130J1079837D01*
G01*
X40741330Y-89191763D02*
G75*
G03*
X38659239Y-89191600I-1041130J-1079837D01*
G01*
X41372535Y-91350208D02*
G75*
G02*
X38140200Y-91507116I-1672335J1078608D01*
G01*
X41372535Y-89192992D02*
G75*
G03*
X38140200Y-89036084I-1672335J-1078608D01*
G01*
X120632136Y-120997300D02*
X121836264Y-120997300D01*
X120632136Y-122817300D02*
X121836264Y-122817300D01*
X78671336Y-98950100D02*
X79875464Y-98950100D01*
X78671336Y-100770100D02*
X79875464Y-100770100D01*
X64618100Y-84264500D02*
G75*
G03*
X64618100Y-84264500I-2620000J0D01*
G01*
X61998100Y-85304500D02*
X61998100Y-86844500D01*
X61998100Y-81684500D02*
X61998100Y-83224500D01*
X62038100Y-85304500D02*
X62038100Y-86844500D01*
X62038100Y-81684500D02*
X62038100Y-83224500D01*
X62078100Y-81685500D02*
X62078100Y-83224500D01*
X62078100Y-85304500D02*
X62078100Y-86843500D01*
X62118100Y-81686500D02*
X62118100Y-83224500D01*
X62118100Y-85304500D02*
X62118100Y-86842500D01*
X62158100Y-81688500D02*
X62158100Y-83224500D01*
X62158100Y-85304500D02*
X62158100Y-86840500D01*
X62198100Y-81691500D02*
X62198100Y-83224500D01*
X62198100Y-85304500D02*
X62198100Y-86837500D01*
X62238100Y-81695500D02*
X62238100Y-83224500D01*
X62238100Y-85304500D02*
X62238100Y-86833500D01*
X62278100Y-81699500D02*
X62278100Y-83224500D01*
X62278100Y-85304500D02*
X62278100Y-86829500D01*
X62318100Y-81703500D02*
X62318100Y-83224500D01*
X62318100Y-85304500D02*
X62318100Y-86825500D01*
X62358100Y-81708500D02*
X62358100Y-83224500D01*
X62358100Y-85304500D02*
X62358100Y-86820500D01*
X62398100Y-81714500D02*
X62398100Y-83224500D01*
X62398100Y-85304500D02*
X62398100Y-86814500D01*
X62438100Y-81721500D02*
X62438100Y-83224500D01*
X62438100Y-85304500D02*
X62438100Y-86807500D01*
X62478100Y-81728500D02*
X62478100Y-83224500D01*
X62478100Y-85304500D02*
X62478100Y-86800500D01*
X62518100Y-81736500D02*
X62518100Y-83224500D01*
X62518100Y-85304500D02*
X62518100Y-86792500D01*
X62558100Y-81744500D02*
X62558100Y-83224500D01*
X62558100Y-85304500D02*
X62558100Y-86784500D01*
X62598100Y-81753500D02*
X62598100Y-83224500D01*
X62598100Y-85304500D02*
X62598100Y-86775500D01*
X62638100Y-81763500D02*
X62638100Y-83224500D01*
X62638100Y-85304500D02*
X62638100Y-86765500D01*
X62678100Y-81773500D02*
X62678100Y-83224500D01*
X62678100Y-85304500D02*
X62678100Y-86755500D01*
X62719100Y-81784500D02*
X62719100Y-83224500D01*
X62719100Y-85304500D02*
X62719100Y-86744500D01*
X62759100Y-81796500D02*
X62759100Y-83224500D01*
X62759100Y-85304500D02*
X62759100Y-86732500D01*
X62799100Y-81809500D02*
X62799100Y-83224500D01*
X62799100Y-85304500D02*
X62799100Y-86719500D01*
X62839100Y-81822500D02*
X62839100Y-83224500D01*
X62839100Y-85304500D02*
X62839100Y-86706500D01*
X62879100Y-81836500D02*
X62879100Y-83224500D01*
X62879100Y-85304500D02*
X62879100Y-86692500D01*
X62919100Y-81850500D02*
X62919100Y-83224500D01*
X62919100Y-85304500D02*
X62919100Y-86678500D01*
X62959100Y-81866500D02*
X62959100Y-83224500D01*
X62959100Y-85304500D02*
X62959100Y-86662500D01*
X62999100Y-81882500D02*
X62999100Y-83224500D01*
X62999100Y-85304500D02*
X62999100Y-86646500D01*
X63039100Y-81899500D02*
X63039100Y-83224500D01*
X63039100Y-85304500D02*
X63039100Y-86629500D01*
X63079100Y-81916500D02*
X63079100Y-83224500D01*
X63079100Y-85304500D02*
X63079100Y-86612500D01*
X63119100Y-81935500D02*
X63119100Y-83224500D01*
X63119100Y-85304500D02*
X63119100Y-86593500D01*
X63159100Y-81954500D02*
X63159100Y-83224500D01*
X63159100Y-85304500D02*
X63159100Y-86574500D01*
X63199100Y-81974500D02*
X63199100Y-83224500D01*
X63199100Y-85304500D02*
X63199100Y-86554500D01*
X63239100Y-81996500D02*
X63239100Y-83224500D01*
X63239100Y-85304500D02*
X63239100Y-86532500D01*
X63279100Y-82017500D02*
X63279100Y-83224500D01*
X63279100Y-85304500D02*
X63279100Y-86511500D01*
X63319100Y-82040500D02*
X63319100Y-83224500D01*
X63319100Y-85304500D02*
X63319100Y-86488500D01*
X63359100Y-82064500D02*
X63359100Y-83224500D01*
X63359100Y-85304500D02*
X63359100Y-86464500D01*
X63399100Y-82089500D02*
X63399100Y-83224500D01*
X63399100Y-85304500D02*
X63399100Y-86439500D01*
X63439100Y-82115500D02*
X63439100Y-83224500D01*
X63439100Y-85304500D02*
X63439100Y-86413500D01*
X63479100Y-82142500D02*
X63479100Y-83224500D01*
X63479100Y-85304500D02*
X63479100Y-86386500D01*
X63519100Y-82169500D02*
X63519100Y-83224500D01*
X63519100Y-85304500D02*
X63519100Y-86359500D01*
X63559100Y-82199500D02*
X63559100Y-83224500D01*
X63559100Y-85304500D02*
X63559100Y-86329500D01*
X63599100Y-82229500D02*
X63599100Y-83224500D01*
X63599100Y-85304500D02*
X63599100Y-86299500D01*
X63639100Y-82260500D02*
X63639100Y-83224500D01*
X63639100Y-85304500D02*
X63639100Y-86268500D01*
X63679100Y-82293500D02*
X63679100Y-83224500D01*
X63679100Y-85304500D02*
X63679100Y-86235500D01*
X63719100Y-82327500D02*
X63719100Y-83224500D01*
X63719100Y-85304500D02*
X63719100Y-86201500D01*
X63759100Y-82363500D02*
X63759100Y-83224500D01*
X63759100Y-85304500D02*
X63759100Y-86165500D01*
X63799100Y-82400500D02*
X63799100Y-83224500D01*
X63799100Y-85304500D02*
X63799100Y-86128500D01*
X63839100Y-82438500D02*
X63839100Y-83224500D01*
X63839100Y-85304500D02*
X63839100Y-86090500D01*
X63879100Y-82479500D02*
X63879100Y-83224500D01*
X63879100Y-85304500D02*
X63879100Y-86049500D01*
X63919100Y-82521500D02*
X63919100Y-83224500D01*
X63919100Y-85304500D02*
X63919100Y-86007500D01*
X63959100Y-82565500D02*
X63959100Y-83224500D01*
X63959100Y-85304500D02*
X63959100Y-85963500D01*
X63999100Y-82611500D02*
X63999100Y-83224500D01*
X63999100Y-85304500D02*
X63999100Y-85917500D01*
X64039100Y-82659500D02*
X64039100Y-85869500D01*
X64079100Y-82710500D02*
X64079100Y-85818500D01*
X64119100Y-82764500D02*
X64119100Y-85764500D01*
X64159100Y-82821500D02*
X64159100Y-85707500D01*
X64199100Y-82881500D02*
X64199100Y-85647500D01*
X64239100Y-82945500D02*
X64239100Y-85583500D01*
X64279100Y-83013500D02*
X64279100Y-85515500D01*
X64319100Y-83086500D02*
X64319100Y-85442500D01*
X64359100Y-83166500D02*
X64359100Y-85362500D01*
X64399100Y-83253500D02*
X64399100Y-85275500D01*
X64439100Y-83349500D02*
X64439100Y-85179500D01*
X64479100Y-83459500D02*
X64479100Y-85069500D01*
X64519100Y-83587500D02*
X64519100Y-84941500D01*
X64559100Y-83746500D02*
X64559100Y-84782500D01*
X64599100Y-83980500D02*
X64599100Y-84548500D01*
X59193325Y-82789500D02*
X59693325Y-82789500D01*
X59443325Y-82539500D02*
X59443325Y-83039500D01*
X48797936Y-93070000D02*
X50002064Y-93070000D01*
X48797936Y-94890000D02*
X50002064Y-94890000D01*
X64168564Y-97658600D02*
X62964436Y-97658600D01*
X64168564Y-95838600D02*
X62964436Y-95838600D01*
X116289500Y-117276336D02*
X116289500Y-118480464D01*
X114469500Y-117276336D02*
X114469500Y-118480464D01*
X110929964Y-119616900D02*
X109725836Y-119616900D01*
X110929964Y-117796900D02*
X109725836Y-117796900D01*
X79773864Y-107361400D02*
X78569736Y-107361400D01*
X79773864Y-105541400D02*
X78569736Y-105541400D01*
D10*
X57618380Y-67897333D02*
X58332666Y-67897333D01*
X58475523Y-67944952D01*
X58570761Y-68040190D01*
X58618380Y-68183047D01*
X58618380Y-68278285D01*
X58618380Y-66897333D02*
X58618380Y-67468761D01*
X58618380Y-67183047D02*
X57618380Y-67183047D01*
X57761238Y-67278285D01*
X57856476Y-67373523D01*
X57904095Y-67468761D01*
X104683096Y-75847381D02*
X104683096Y-76656905D01*
X104730715Y-76752143D01*
X104778334Y-76799762D01*
X104873572Y-76847381D01*
X105064048Y-76847381D01*
X105159286Y-76799762D01*
X105206905Y-76752143D01*
X105254524Y-76656905D01*
X105254524Y-75847381D01*
X105635477Y-75847381D02*
X106254524Y-75847381D01*
X105921191Y-76228334D01*
X106064048Y-76228334D01*
X106159286Y-76275953D01*
X106206905Y-76323572D01*
X106254524Y-76418810D01*
X106254524Y-76656905D01*
X106206905Y-76752143D01*
X106159286Y-76799762D01*
X106064048Y-76847381D01*
X105778334Y-76847381D01*
X105683096Y-76799762D01*
X105635477Y-76752143D01*
X111832143Y-76847381D02*
X111498810Y-76371191D01*
X111260715Y-76847381D02*
X111260715Y-75847381D01*
X111641667Y-75847381D01*
X111736905Y-75895001D01*
X111784524Y-75942620D01*
X111832143Y-76037858D01*
X111832143Y-76180715D01*
X111784524Y-76275953D01*
X111736905Y-76323572D01*
X111641667Y-76371191D01*
X111260715Y-76371191D01*
X112213096Y-75942620D02*
X112260715Y-75895001D01*
X112355953Y-75847381D01*
X112594048Y-75847381D01*
X112689286Y-75895001D01*
X112736905Y-75942620D01*
X112784524Y-76037858D01*
X112784524Y-76133096D01*
X112736905Y-76275953D01*
X112165477Y-76847381D01*
X112784524Y-76847381D01*
X113165477Y-75942620D02*
X113213096Y-75895001D01*
X113308334Y-75847381D01*
X113546429Y-75847381D01*
X113641667Y-75895001D01*
X113689286Y-75942620D01*
X113736905Y-76037858D01*
X113736905Y-76133096D01*
X113689286Y-76275953D01*
X113117858Y-76847381D01*
X113736905Y-76847381D01*
X96860455Y-119580900D02*
X96860455Y-120390424D01*
X96908074Y-120485662D01*
X96955693Y-120533281D01*
X97050931Y-120580900D01*
X97241407Y-120580900D01*
X97336645Y-120533281D01*
X97384264Y-120485662D01*
X97431883Y-120390424D01*
X97431883Y-119580900D01*
X98431883Y-120580900D02*
X97860455Y-120580900D01*
X98146169Y-120580900D02*
X98146169Y-119580900D01*
X98050931Y-119723758D01*
X97955693Y-119818996D01*
X97860455Y-119866615D01*
X103961464Y-148887380D02*
X104532893Y-148887380D01*
X104247179Y-149887380D02*
X104247179Y-148887380D01*
X104866226Y-149887380D02*
X104866226Y-148887380D01*
X105247179Y-148887380D01*
X105342417Y-148935000D01*
X105390036Y-148982619D01*
X105437655Y-149077857D01*
X105437655Y-149220714D01*
X105390036Y-149315952D01*
X105342417Y-149363571D01*
X105247179Y-149411190D01*
X104866226Y-149411190D01*
X106390036Y-149887380D02*
X105818607Y-149887380D01*
X106104321Y-149887380D02*
X106104321Y-148887380D01*
X106009083Y-149030238D01*
X105913845Y-149125476D01*
X105818607Y-149173095D01*
X107342417Y-149887380D02*
X106770988Y-149887380D01*
X107056702Y-149887380D02*
X107056702Y-148887380D01*
X106961464Y-149030238D01*
X106866226Y-149125476D01*
X106770988Y-149173095D01*
X108675704Y-131630620D02*
X109247133Y-131630620D01*
X108961419Y-132630620D02*
X108961419Y-131630620D01*
X109580466Y-132630620D02*
X109580466Y-131630620D01*
X109961419Y-131630620D01*
X110056657Y-131678240D01*
X110104276Y-131725859D01*
X110151895Y-131821097D01*
X110151895Y-131963954D01*
X110104276Y-132059192D01*
X110056657Y-132106811D01*
X109961419Y-132154430D01*
X109580466Y-132154430D01*
X111104276Y-132630620D02*
X110532847Y-132630620D01*
X110818561Y-132630620D02*
X110818561Y-131630620D01*
X110723323Y-131773478D01*
X110628085Y-131868716D01*
X110532847Y-131916335D01*
X111723323Y-131630620D02*
X111818561Y-131630620D01*
X111913800Y-131678240D01*
X111961419Y-131725859D01*
X112009038Y-131821097D01*
X112056657Y-132011573D01*
X112056657Y-132249668D01*
X112009038Y-132440144D01*
X111961419Y-132535382D01*
X111913800Y-132583001D01*
X111818561Y-132630620D01*
X111723323Y-132630620D01*
X111628085Y-132583001D01*
X111580466Y-132535382D01*
X111532847Y-132440144D01*
X111485228Y-132249668D01*
X111485228Y-132011573D01*
X111532847Y-131821097D01*
X111580466Y-131725859D01*
X111628085Y-131678240D01*
X111723323Y-131630620D01*
X53144895Y-88257580D02*
X53716323Y-88257580D01*
X53430609Y-89257580D02*
X53430609Y-88257580D01*
X54049657Y-89257580D02*
X54049657Y-88257580D01*
X54430609Y-88257580D01*
X54525847Y-88305200D01*
X54573466Y-88352819D01*
X54621085Y-88448057D01*
X54621085Y-88590914D01*
X54573466Y-88686152D01*
X54525847Y-88733771D01*
X54430609Y-88781390D01*
X54049657Y-88781390D01*
X55097276Y-89257580D02*
X55287752Y-89257580D01*
X55382990Y-89209961D01*
X55430609Y-89162342D01*
X55525847Y-89019485D01*
X55573466Y-88829009D01*
X55573466Y-88448057D01*
X55525847Y-88352819D01*
X55478228Y-88305200D01*
X55382990Y-88257580D01*
X55192514Y-88257580D01*
X55097276Y-88305200D01*
X55049657Y-88352819D01*
X55002038Y-88448057D01*
X55002038Y-88686152D01*
X55049657Y-88781390D01*
X55097276Y-88829009D01*
X55192514Y-88876628D01*
X55382990Y-88876628D01*
X55478228Y-88829009D01*
X55525847Y-88781390D01*
X55573466Y-88686152D01*
X113342895Y-124681180D02*
X113914323Y-124681180D01*
X113628609Y-125681180D02*
X113628609Y-124681180D01*
X114247657Y-125681180D02*
X114247657Y-124681180D01*
X114628609Y-124681180D01*
X114723847Y-124728800D01*
X114771466Y-124776419D01*
X114819085Y-124871657D01*
X114819085Y-125014514D01*
X114771466Y-125109752D01*
X114723847Y-125157371D01*
X114628609Y-125204990D01*
X114247657Y-125204990D01*
X115390514Y-125109752D02*
X115295276Y-125062133D01*
X115247657Y-125014514D01*
X115200038Y-124919276D01*
X115200038Y-124871657D01*
X115247657Y-124776419D01*
X115295276Y-124728800D01*
X115390514Y-124681180D01*
X115580990Y-124681180D01*
X115676228Y-124728800D01*
X115723847Y-124776419D01*
X115771466Y-124871657D01*
X115771466Y-124919276D01*
X115723847Y-125014514D01*
X115676228Y-125062133D01*
X115580990Y-125109752D01*
X115390514Y-125109752D01*
X115295276Y-125157371D01*
X115247657Y-125204990D01*
X115200038Y-125300228D01*
X115200038Y-125490704D01*
X115247657Y-125585942D01*
X115295276Y-125633561D01*
X115390514Y-125681180D01*
X115580990Y-125681180D01*
X115676228Y-125633561D01*
X115723847Y-125585942D01*
X115771466Y-125490704D01*
X115771466Y-125300228D01*
X115723847Y-125204990D01*
X115676228Y-125157371D01*
X115580990Y-125109752D01*
X110985775Y-119931380D02*
X111557203Y-119931380D01*
X111271489Y-120931380D02*
X111271489Y-119931380D01*
X111890537Y-120931380D02*
X111890537Y-119931380D01*
X112271489Y-119931380D01*
X112366727Y-119979000D01*
X112414346Y-120026619D01*
X112461965Y-120121857D01*
X112461965Y-120264714D01*
X112414346Y-120359952D01*
X112366727Y-120407571D01*
X112271489Y-120455190D01*
X111890537Y-120455190D01*
X112795299Y-119931380D02*
X113461965Y-119931380D01*
X113033394Y-120931380D01*
X78570295Y-149344580D02*
X79141723Y-149344580D01*
X78856009Y-150344580D02*
X78856009Y-149344580D01*
X79475057Y-150344580D02*
X79475057Y-149344580D01*
X79856009Y-149344580D01*
X79951247Y-149392200D01*
X79998866Y-149439819D01*
X80046485Y-149535057D01*
X80046485Y-149677914D01*
X79998866Y-149773152D01*
X79951247Y-149820771D01*
X79856009Y-149868390D01*
X79475057Y-149868390D01*
X80903628Y-149344580D02*
X80713152Y-149344580D01*
X80617914Y-149392200D01*
X80570295Y-149439819D01*
X80475057Y-149582676D01*
X80427438Y-149773152D01*
X80427438Y-150154104D01*
X80475057Y-150249342D01*
X80522676Y-150296961D01*
X80617914Y-150344580D01*
X80808390Y-150344580D01*
X80903628Y-150296961D01*
X80951247Y-150249342D01*
X80998866Y-150154104D01*
X80998866Y-149916009D01*
X80951247Y-149820771D01*
X80903628Y-149773152D01*
X80808390Y-149725533D01*
X80617914Y-149725533D01*
X80522676Y-149773152D01*
X80475057Y-149820771D01*
X80427438Y-149916009D01*
X82837495Y-138473380D02*
X83408923Y-138473380D01*
X83123209Y-139473380D02*
X83123209Y-138473380D01*
X83742257Y-139473380D02*
X83742257Y-138473380D01*
X84123209Y-138473380D01*
X84218447Y-138521000D01*
X84266066Y-138568619D01*
X84313685Y-138663857D01*
X84313685Y-138806714D01*
X84266066Y-138901952D01*
X84218447Y-138949571D01*
X84123209Y-138997190D01*
X83742257Y-138997190D01*
X85218447Y-138473380D02*
X84742257Y-138473380D01*
X84694638Y-138949571D01*
X84742257Y-138901952D01*
X84837495Y-138854333D01*
X85075590Y-138854333D01*
X85170828Y-138901952D01*
X85218447Y-138949571D01*
X85266066Y-139044809D01*
X85266066Y-139282904D01*
X85218447Y-139378142D01*
X85170828Y-139425761D01*
X85075590Y-139473380D01*
X84837495Y-139473380D01*
X84742257Y-139425761D01*
X84694638Y-139378142D01*
X112504695Y-136390580D02*
X113076123Y-136390580D01*
X112790409Y-137390580D02*
X112790409Y-136390580D01*
X113409457Y-137390580D02*
X113409457Y-136390580D01*
X113790409Y-136390580D01*
X113885647Y-136438200D01*
X113933266Y-136485819D01*
X113980885Y-136581057D01*
X113980885Y-136723914D01*
X113933266Y-136819152D01*
X113885647Y-136866771D01*
X113790409Y-136914390D01*
X113409457Y-136914390D01*
X114838028Y-136723914D02*
X114838028Y-137390580D01*
X114599933Y-136342961D02*
X114361838Y-137057247D01*
X114980885Y-137057247D01*
X81887535Y-126215340D02*
X82458963Y-126215340D01*
X82173249Y-127215340D02*
X82173249Y-126215340D01*
X82792297Y-127215340D02*
X82792297Y-126215340D01*
X83173249Y-126215340D01*
X83268487Y-126262960D01*
X83316106Y-126310579D01*
X83363725Y-126405817D01*
X83363725Y-126548674D01*
X83316106Y-126643912D01*
X83268487Y-126691531D01*
X83173249Y-126739150D01*
X82792297Y-126739150D01*
X83697059Y-126215340D02*
X84316106Y-126215340D01*
X83982773Y-126596293D01*
X84125630Y-126596293D01*
X84220868Y-126643912D01*
X84268487Y-126691531D01*
X84316106Y-126786769D01*
X84316106Y-127024864D01*
X84268487Y-127120102D01*
X84220868Y-127167721D01*
X84125630Y-127215340D01*
X83839916Y-127215340D01*
X83744678Y-127167721D01*
X83697059Y-127120102D01*
X83548695Y-90899180D02*
X84120123Y-90899180D01*
X83834409Y-91899180D02*
X83834409Y-90899180D01*
X84453457Y-91899180D02*
X84453457Y-90899180D01*
X84834409Y-90899180D01*
X84929647Y-90946800D01*
X84977266Y-90994419D01*
X85024885Y-91089657D01*
X85024885Y-91232514D01*
X84977266Y-91327752D01*
X84929647Y-91375371D01*
X84834409Y-91422990D01*
X84453457Y-91422990D01*
X85405838Y-90994419D02*
X85453457Y-90946800D01*
X85548695Y-90899180D01*
X85786790Y-90899180D01*
X85882028Y-90946800D01*
X85929647Y-90994419D01*
X85977266Y-91089657D01*
X85977266Y-91184895D01*
X85929647Y-91327752D01*
X85358219Y-91899180D01*
X85977266Y-91899180D01*
X90863895Y-94683780D02*
X91435323Y-94683780D01*
X91149609Y-95683780D02*
X91149609Y-94683780D01*
X91768657Y-95683780D02*
X91768657Y-94683780D01*
X92149609Y-94683780D01*
X92244847Y-94731400D01*
X92292466Y-94779019D01*
X92340085Y-94874257D01*
X92340085Y-95017114D01*
X92292466Y-95112352D01*
X92244847Y-95159971D01*
X92149609Y-95207590D01*
X91768657Y-95207590D01*
X93292466Y-95683780D02*
X92721038Y-95683780D01*
X93006752Y-95683780D02*
X93006752Y-94683780D01*
X92911514Y-94826638D01*
X92816276Y-94921876D01*
X92721038Y-94969495D01*
X68438733Y-79836180D02*
X68105400Y-79359990D01*
X67867304Y-79836180D02*
X67867304Y-78836180D01*
X68248257Y-78836180D01*
X68343495Y-78883800D01*
X68391114Y-78931419D01*
X68438733Y-79026657D01*
X68438733Y-79169514D01*
X68391114Y-79264752D01*
X68343495Y-79312371D01*
X68248257Y-79359990D01*
X67867304Y-79359990D01*
X69343495Y-78836180D02*
X68867304Y-78836180D01*
X68819685Y-79312371D01*
X68867304Y-79264752D01*
X68962542Y-79217133D01*
X69200638Y-79217133D01*
X69295876Y-79264752D01*
X69343495Y-79312371D01*
X69391114Y-79407609D01*
X69391114Y-79645704D01*
X69343495Y-79740942D01*
X69295876Y-79788561D01*
X69200638Y-79836180D01*
X68962542Y-79836180D01*
X68867304Y-79788561D01*
X68819685Y-79740942D01*
X90816780Y-79389266D02*
X90340590Y-79722600D01*
X90816780Y-79960695D02*
X89816780Y-79960695D01*
X89816780Y-79579742D01*
X89864400Y-79484504D01*
X89912019Y-79436885D01*
X90007257Y-79389266D01*
X90150114Y-79389266D01*
X90245352Y-79436885D01*
X90292971Y-79484504D01*
X90340590Y-79579742D01*
X90340590Y-79960695D01*
X90150114Y-78532123D02*
X90816780Y-78532123D01*
X89769161Y-78770219D02*
X90483447Y-79008314D01*
X90483447Y-78389266D01*
X32446933Y-77761180D02*
X32113600Y-77284990D01*
X31875504Y-77761180D02*
X31875504Y-76761180D01*
X32256457Y-76761180D01*
X32351695Y-76808800D01*
X32399314Y-76856419D01*
X32446933Y-76951657D01*
X32446933Y-77094514D01*
X32399314Y-77189752D01*
X32351695Y-77237371D01*
X32256457Y-77284990D01*
X31875504Y-77284990D01*
X32780266Y-76761180D02*
X33399314Y-76761180D01*
X33065980Y-77142133D01*
X33208838Y-77142133D01*
X33304076Y-77189752D01*
X33351695Y-77237371D01*
X33399314Y-77332609D01*
X33399314Y-77570704D01*
X33351695Y-77665942D01*
X33304076Y-77713561D01*
X33208838Y-77761180D01*
X32923123Y-77761180D01*
X32827885Y-77713561D01*
X32780266Y-77665942D01*
X84435042Y-135993166D02*
X84482661Y-136040785D01*
X84530280Y-136183642D01*
X84530280Y-136278880D01*
X84482661Y-136421738D01*
X84387423Y-136516976D01*
X84292185Y-136564595D01*
X84101709Y-136612214D01*
X83958852Y-136612214D01*
X83768376Y-136564595D01*
X83673138Y-136516976D01*
X83577900Y-136421738D01*
X83530280Y-136278880D01*
X83530280Y-136183642D01*
X83577900Y-136040785D01*
X83625519Y-135993166D01*
X83530280Y-135136023D02*
X83530280Y-135326500D01*
X83577900Y-135421738D01*
X83625519Y-135469357D01*
X83768376Y-135564595D01*
X83958852Y-135612214D01*
X84339804Y-135612214D01*
X84435042Y-135564595D01*
X84482661Y-135516976D01*
X84530280Y-135421738D01*
X84530280Y-135231261D01*
X84482661Y-135136023D01*
X84435042Y-135088404D01*
X84339804Y-135040785D01*
X84101709Y-135040785D01*
X84006471Y-135088404D01*
X83958852Y-135136023D01*
X83911233Y-135231261D01*
X83911233Y-135421738D01*
X83958852Y-135516976D01*
X84006471Y-135564595D01*
X84101709Y-135612214D01*
X66633433Y-134512942D02*
X66585814Y-134560561D01*
X66442957Y-134608180D01*
X66347719Y-134608180D01*
X66204861Y-134560561D01*
X66109623Y-134465323D01*
X66062004Y-134370085D01*
X66014385Y-134179609D01*
X66014385Y-134036752D01*
X66062004Y-133846276D01*
X66109623Y-133751038D01*
X66204861Y-133655800D01*
X66347719Y-133608180D01*
X66442957Y-133608180D01*
X66585814Y-133655800D01*
X66633433Y-133703419D01*
X66966766Y-133608180D02*
X67633433Y-133608180D01*
X67204861Y-134608180D01*
X95051180Y-151971333D02*
X95765466Y-151971333D01*
X95908323Y-152018952D01*
X96003561Y-152114190D01*
X96051180Y-152257047D01*
X96051180Y-152352285D01*
X95384514Y-151066571D02*
X96051180Y-151066571D01*
X95003561Y-151304666D02*
X95717847Y-151542761D01*
X95717847Y-150923714D01*
X62085595Y-87354280D02*
X62085595Y-88163804D01*
X62133214Y-88259042D01*
X62180833Y-88306661D01*
X62276071Y-88354280D01*
X62466547Y-88354280D01*
X62561785Y-88306661D01*
X62609404Y-88259042D01*
X62657023Y-88163804D01*
X62657023Y-87354280D01*
X63085595Y-87449519D02*
X63133214Y-87401900D01*
X63228452Y-87354280D01*
X63466547Y-87354280D01*
X63561785Y-87401900D01*
X63609404Y-87449519D01*
X63657023Y-87544757D01*
X63657023Y-87639995D01*
X63609404Y-87782852D01*
X63037976Y-88354280D01*
X63657023Y-88354280D01*
X38544666Y-94035961D02*
X38687523Y-94083580D01*
X38925619Y-94083580D01*
X39020857Y-94035961D01*
X39068476Y-93988342D01*
X39116095Y-93893104D01*
X39116095Y-93797866D01*
X39068476Y-93702628D01*
X39020857Y-93655009D01*
X38925619Y-93607390D01*
X38735142Y-93559771D01*
X38639904Y-93512152D01*
X38592285Y-93464533D01*
X38544666Y-93369295D01*
X38544666Y-93274057D01*
X38592285Y-93178819D01*
X38639904Y-93131200D01*
X38735142Y-93083580D01*
X38973238Y-93083580D01*
X39116095Y-93131200D01*
X39449428Y-93083580D02*
X39687523Y-94083580D01*
X39878000Y-93369295D01*
X40068476Y-94083580D01*
X40306571Y-93083580D01*
X41211333Y-94083580D02*
X40639904Y-94083580D01*
X40925619Y-94083580D02*
X40925619Y-93083580D01*
X40830380Y-93226438D01*
X40735142Y-93321676D01*
X40639904Y-93369295D01*
X122839242Y-131456780D02*
X122505909Y-130980590D01*
X122267814Y-131456780D02*
X122267814Y-130456780D01*
X122648766Y-130456780D01*
X122744004Y-130504400D01*
X122791623Y-130552019D01*
X122839242Y-130647257D01*
X122839242Y-130790114D01*
X122791623Y-130885352D01*
X122744004Y-130932971D01*
X122648766Y-130980590D01*
X122267814Y-130980590D01*
X123220195Y-130552019D02*
X123267814Y-130504400D01*
X123363052Y-130456780D01*
X123601147Y-130456780D01*
X123696385Y-130504400D01*
X123744004Y-130552019D01*
X123791623Y-130647257D01*
X123791623Y-130742495D01*
X123744004Y-130885352D01*
X123172576Y-131456780D01*
X123791623Y-131456780D01*
X124744004Y-131456780D02*
X124172576Y-131456780D01*
X124458290Y-131456780D02*
X124458290Y-130456780D01*
X124363052Y-130599638D01*
X124267814Y-130694876D01*
X124172576Y-130742495D01*
X48887142Y-104042380D02*
X48553809Y-103566190D01*
X48315714Y-104042380D02*
X48315714Y-103042380D01*
X48696666Y-103042380D01*
X48791904Y-103090000D01*
X48839523Y-103137619D01*
X48887142Y-103232857D01*
X48887142Y-103375714D01*
X48839523Y-103470952D01*
X48791904Y-103518571D01*
X48696666Y-103566190D01*
X48315714Y-103566190D01*
X49268095Y-103137619D02*
X49315714Y-103090000D01*
X49410952Y-103042380D01*
X49649047Y-103042380D01*
X49744285Y-103090000D01*
X49791904Y-103137619D01*
X49839523Y-103232857D01*
X49839523Y-103328095D01*
X49791904Y-103470952D01*
X49220476Y-104042380D01*
X49839523Y-104042380D01*
X50458571Y-103042380D02*
X50553809Y-103042380D01*
X50649047Y-103090000D01*
X50696666Y-103137619D01*
X50744285Y-103232857D01*
X50791904Y-103423333D01*
X50791904Y-103661428D01*
X50744285Y-103851904D01*
X50696666Y-103947142D01*
X50649047Y-103994761D01*
X50553809Y-104042380D01*
X50458571Y-104042380D01*
X50363333Y-103994761D01*
X50315714Y-103947142D01*
X50268095Y-103851904D01*
X50220476Y-103661428D01*
X50220476Y-103423333D01*
X50268095Y-103232857D01*
X50315714Y-103137619D01*
X50363333Y-103090000D01*
X50458571Y-103042380D01*
X48887142Y-97692380D02*
X48553809Y-97216190D01*
X48315714Y-97692380D02*
X48315714Y-96692380D01*
X48696666Y-96692380D01*
X48791904Y-96740000D01*
X48839523Y-96787619D01*
X48887142Y-96882857D01*
X48887142Y-97025714D01*
X48839523Y-97120952D01*
X48791904Y-97168571D01*
X48696666Y-97216190D01*
X48315714Y-97216190D01*
X49839523Y-97692380D02*
X49268095Y-97692380D01*
X49553809Y-97692380D02*
X49553809Y-96692380D01*
X49458571Y-96835238D01*
X49363333Y-96930476D01*
X49268095Y-96978095D01*
X50315714Y-97692380D02*
X50506190Y-97692380D01*
X50601428Y-97644761D01*
X50649047Y-97597142D01*
X50744285Y-97454285D01*
X50791904Y-97263809D01*
X50791904Y-96882857D01*
X50744285Y-96787619D01*
X50696666Y-96740000D01*
X50601428Y-96692380D01*
X50410952Y-96692380D01*
X50315714Y-96740000D01*
X50268095Y-96787619D01*
X50220476Y-96882857D01*
X50220476Y-97120952D01*
X50268095Y-97216190D01*
X50315714Y-97263809D01*
X50410952Y-97311428D01*
X50601428Y-97311428D01*
X50696666Y-97263809D01*
X50744285Y-97216190D01*
X50791904Y-97120952D01*
X59047142Y-97692380D02*
X58713809Y-97216190D01*
X58475714Y-97692380D02*
X58475714Y-96692380D01*
X58856666Y-96692380D01*
X58951904Y-96740000D01*
X58999523Y-96787619D01*
X59047142Y-96882857D01*
X59047142Y-97025714D01*
X58999523Y-97120952D01*
X58951904Y-97168571D01*
X58856666Y-97216190D01*
X58475714Y-97216190D01*
X59999523Y-97692380D02*
X59428095Y-97692380D01*
X59713809Y-97692380D02*
X59713809Y-96692380D01*
X59618571Y-96835238D01*
X59523333Y-96930476D01*
X59428095Y-96978095D01*
X60570952Y-97120952D02*
X60475714Y-97073333D01*
X60428095Y-97025714D01*
X60380476Y-96930476D01*
X60380476Y-96882857D01*
X60428095Y-96787619D01*
X60475714Y-96740000D01*
X60570952Y-96692380D01*
X60761428Y-96692380D01*
X60856666Y-96740000D01*
X60904285Y-96787619D01*
X60951904Y-96882857D01*
X60951904Y-96930476D01*
X60904285Y-97025714D01*
X60856666Y-97073333D01*
X60761428Y-97120952D01*
X60570952Y-97120952D01*
X60475714Y-97168571D01*
X60428095Y-97216190D01*
X60380476Y-97311428D01*
X60380476Y-97501904D01*
X60428095Y-97597142D01*
X60475714Y-97644761D01*
X60570952Y-97692380D01*
X60761428Y-97692380D01*
X60856666Y-97644761D01*
X60904285Y-97597142D01*
X60951904Y-97501904D01*
X60951904Y-97311428D01*
X60904285Y-97216190D01*
X60856666Y-97168571D01*
X60761428Y-97120952D01*
X84475542Y-156971080D02*
X84142209Y-156494890D01*
X83904114Y-156971080D02*
X83904114Y-155971080D01*
X84285066Y-155971080D01*
X84380304Y-156018700D01*
X84427923Y-156066319D01*
X84475542Y-156161557D01*
X84475542Y-156304414D01*
X84427923Y-156399652D01*
X84380304Y-156447271D01*
X84285066Y-156494890D01*
X83904114Y-156494890D01*
X85427923Y-156971080D02*
X84856495Y-156971080D01*
X85142209Y-156971080D02*
X85142209Y-155971080D01*
X85046971Y-156113938D01*
X84951733Y-156209176D01*
X84856495Y-156256795D01*
X85761257Y-155971080D02*
X86427923Y-155971080D01*
X85999352Y-156971080D01*
X91134280Y-157221157D02*
X90658090Y-157554490D01*
X91134280Y-157792585D02*
X90134280Y-157792585D01*
X90134280Y-157411633D01*
X90181900Y-157316395D01*
X90229519Y-157268776D01*
X90324757Y-157221157D01*
X90467614Y-157221157D01*
X90562852Y-157268776D01*
X90610471Y-157316395D01*
X90658090Y-157411633D01*
X90658090Y-157792585D01*
X91134280Y-156268776D02*
X91134280Y-156840204D01*
X91134280Y-156554490D02*
X90134280Y-156554490D01*
X90277138Y-156649728D01*
X90372376Y-156744966D01*
X90419995Y-156840204D01*
X90134280Y-155411633D02*
X90134280Y-155602109D01*
X90181900Y-155697347D01*
X90229519Y-155744966D01*
X90372376Y-155840204D01*
X90562852Y-155887823D01*
X90943804Y-155887823D01*
X91039042Y-155840204D01*
X91086661Y-155792585D01*
X91134280Y-155697347D01*
X91134280Y-155506871D01*
X91086661Y-155411633D01*
X91039042Y-155364014D01*
X90943804Y-155316395D01*
X90705709Y-155316395D01*
X90610471Y-155364014D01*
X90562852Y-155411633D01*
X90515233Y-155506871D01*
X90515233Y-155697347D01*
X90562852Y-155792585D01*
X90610471Y-155840204D01*
X90705709Y-155887823D01*
X78414642Y-127575480D02*
X78081309Y-127099290D01*
X77843214Y-127575480D02*
X77843214Y-126575480D01*
X78224166Y-126575480D01*
X78319404Y-126623100D01*
X78367023Y-126670719D01*
X78414642Y-126765957D01*
X78414642Y-126908814D01*
X78367023Y-127004052D01*
X78319404Y-127051671D01*
X78224166Y-127099290D01*
X77843214Y-127099290D01*
X79367023Y-127575480D02*
X78795595Y-127575480D01*
X79081309Y-127575480D02*
X79081309Y-126575480D01*
X78986071Y-126718338D01*
X78890833Y-126813576D01*
X78795595Y-126861195D01*
X80271785Y-126575480D02*
X79795595Y-126575480D01*
X79747976Y-127051671D01*
X79795595Y-127004052D01*
X79890833Y-126956433D01*
X80128928Y-126956433D01*
X80224166Y-127004052D01*
X80271785Y-127051671D01*
X80319404Y-127146909D01*
X80319404Y-127385004D01*
X80271785Y-127480242D01*
X80224166Y-127527861D01*
X80128928Y-127575480D01*
X79890833Y-127575480D01*
X79795595Y-127527861D01*
X79747976Y-127480242D01*
X136641080Y-108516657D02*
X136164890Y-108849990D01*
X136641080Y-109088085D02*
X135641080Y-109088085D01*
X135641080Y-108707133D01*
X135688700Y-108611895D01*
X135736319Y-108564276D01*
X135831557Y-108516657D01*
X135974414Y-108516657D01*
X136069652Y-108564276D01*
X136117271Y-108611895D01*
X136164890Y-108707133D01*
X136164890Y-109088085D01*
X136641080Y-107564276D02*
X136641080Y-108135704D01*
X136641080Y-107849990D02*
X135641080Y-107849990D01*
X135783938Y-107945228D01*
X135879176Y-108040466D01*
X135926795Y-108135704D01*
X135974414Y-106707133D02*
X136641080Y-106707133D01*
X135593461Y-106945228D02*
X136307747Y-107183323D01*
X136307747Y-106564276D01*
X66257180Y-108592857D02*
X65780990Y-108926190D01*
X66257180Y-109164285D02*
X65257180Y-109164285D01*
X65257180Y-108783333D01*
X65304800Y-108688095D01*
X65352419Y-108640476D01*
X65447657Y-108592857D01*
X65590514Y-108592857D01*
X65685752Y-108640476D01*
X65733371Y-108688095D01*
X65780990Y-108783333D01*
X65780990Y-109164285D01*
X66257180Y-107640476D02*
X66257180Y-108211904D01*
X66257180Y-107926190D02*
X65257180Y-107926190D01*
X65400038Y-108021428D01*
X65495276Y-108116666D01*
X65542895Y-108211904D01*
X65257180Y-107307142D02*
X65257180Y-106688095D01*
X65638133Y-107021428D01*
X65638133Y-106878571D01*
X65685752Y-106783333D01*
X65733371Y-106735714D01*
X65828609Y-106688095D01*
X66066704Y-106688095D01*
X66161942Y-106735714D01*
X66209561Y-106783333D01*
X66257180Y-106878571D01*
X66257180Y-107164285D01*
X66209561Y-107259523D01*
X66161942Y-107307142D01*
X111289180Y-113482357D02*
X110812990Y-113815690D01*
X111289180Y-114053785D02*
X110289180Y-114053785D01*
X110289180Y-113672833D01*
X110336800Y-113577595D01*
X110384419Y-113529976D01*
X110479657Y-113482357D01*
X110622514Y-113482357D01*
X110717752Y-113529976D01*
X110765371Y-113577595D01*
X110812990Y-113672833D01*
X110812990Y-114053785D01*
X111289180Y-112529976D02*
X111289180Y-113101404D01*
X111289180Y-112815690D02*
X110289180Y-112815690D01*
X110432038Y-112910928D01*
X110527276Y-113006166D01*
X110574895Y-113101404D01*
X110384419Y-112149023D02*
X110336800Y-112101404D01*
X110289180Y-112006166D01*
X110289180Y-111768071D01*
X110336800Y-111672833D01*
X110384419Y-111625214D01*
X110479657Y-111577595D01*
X110574895Y-111577595D01*
X110717752Y-111625214D01*
X111289180Y-112196642D01*
X111289180Y-111577595D01*
X86059180Y-117000257D02*
X85582990Y-117333590D01*
X86059180Y-117571685D02*
X85059180Y-117571685D01*
X85059180Y-117190733D01*
X85106800Y-117095495D01*
X85154419Y-117047876D01*
X85249657Y-117000257D01*
X85392514Y-117000257D01*
X85487752Y-117047876D01*
X85535371Y-117095495D01*
X85582990Y-117190733D01*
X85582990Y-117571685D01*
X86059180Y-116047876D02*
X86059180Y-116619304D01*
X86059180Y-116333590D02*
X85059180Y-116333590D01*
X85202038Y-116428828D01*
X85297276Y-116524066D01*
X85344895Y-116619304D01*
X86059180Y-115095495D02*
X86059180Y-115666923D01*
X86059180Y-115381209D02*
X85059180Y-115381209D01*
X85202038Y-115476447D01*
X85297276Y-115571685D01*
X85344895Y-115666923D01*
X117639180Y-123156757D02*
X117162990Y-123490090D01*
X117639180Y-123728185D02*
X116639180Y-123728185D01*
X116639180Y-123347233D01*
X116686800Y-123251995D01*
X116734419Y-123204376D01*
X116829657Y-123156757D01*
X116972514Y-123156757D01*
X117067752Y-123204376D01*
X117115371Y-123251995D01*
X117162990Y-123347233D01*
X117162990Y-123728185D01*
X117639180Y-122204376D02*
X117639180Y-122775804D01*
X117639180Y-122490090D02*
X116639180Y-122490090D01*
X116782038Y-122585328D01*
X116877276Y-122680566D01*
X116924895Y-122775804D01*
X116639180Y-121585328D02*
X116639180Y-121490090D01*
X116686800Y-121394852D01*
X116734419Y-121347233D01*
X116829657Y-121299614D01*
X117020133Y-121251995D01*
X117258228Y-121251995D01*
X117448704Y-121299614D01*
X117543942Y-121347233D01*
X117591561Y-121394852D01*
X117639180Y-121490090D01*
X117639180Y-121585328D01*
X117591561Y-121680566D01*
X117543942Y-121728185D01*
X117448704Y-121775804D01*
X117258228Y-121823423D01*
X117020133Y-121823423D01*
X116829657Y-121775804D01*
X116734419Y-121728185D01*
X116686800Y-121680566D01*
X116639180Y-121585328D01*
X81799780Y-118848166D02*
X81323590Y-119181500D01*
X81799780Y-119419595D02*
X80799780Y-119419595D01*
X80799780Y-119038642D01*
X80847400Y-118943404D01*
X80895019Y-118895785D01*
X80990257Y-118848166D01*
X81133114Y-118848166D01*
X81228352Y-118895785D01*
X81275971Y-118943404D01*
X81323590Y-119038642D01*
X81323590Y-119419595D01*
X81799780Y-118371976D02*
X81799780Y-118181500D01*
X81752161Y-118086261D01*
X81704542Y-118038642D01*
X81561685Y-117943404D01*
X81371209Y-117895785D01*
X80990257Y-117895785D01*
X80895019Y-117943404D01*
X80847400Y-117991023D01*
X80799780Y-118086261D01*
X80799780Y-118276738D01*
X80847400Y-118371976D01*
X80895019Y-118419595D01*
X80990257Y-118467214D01*
X81228352Y-118467214D01*
X81323590Y-118419595D01*
X81371209Y-118371976D01*
X81418828Y-118276738D01*
X81418828Y-118086261D01*
X81371209Y-117991023D01*
X81323590Y-117943404D01*
X81228352Y-117895785D01*
X79284533Y-108550880D02*
X78951200Y-108074690D01*
X78713104Y-108550880D02*
X78713104Y-107550880D01*
X79094057Y-107550880D01*
X79189295Y-107598500D01*
X79236914Y-107646119D01*
X79284533Y-107741357D01*
X79284533Y-107884214D01*
X79236914Y-107979452D01*
X79189295Y-108027071D01*
X79094057Y-108074690D01*
X78713104Y-108074690D01*
X79855961Y-107979452D02*
X79760723Y-107931833D01*
X79713104Y-107884214D01*
X79665485Y-107788976D01*
X79665485Y-107741357D01*
X79713104Y-107646119D01*
X79760723Y-107598500D01*
X79855961Y-107550880D01*
X80046438Y-107550880D01*
X80141676Y-107598500D01*
X80189295Y-107646119D01*
X80236914Y-107741357D01*
X80236914Y-107788976D01*
X80189295Y-107884214D01*
X80141676Y-107931833D01*
X80046438Y-107979452D01*
X79855961Y-107979452D01*
X79760723Y-108027071D01*
X79713104Y-108074690D01*
X79665485Y-108169928D01*
X79665485Y-108360404D01*
X79713104Y-108455642D01*
X79760723Y-108503261D01*
X79855961Y-108550880D01*
X80046438Y-108550880D01*
X80141676Y-108503261D01*
X80189295Y-108455642D01*
X80236914Y-108360404D01*
X80236914Y-108169928D01*
X80189295Y-108074690D01*
X80141676Y-108027071D01*
X80046438Y-107979452D01*
X83958780Y-79437066D02*
X83482590Y-79770400D01*
X83958780Y-80008495D02*
X82958780Y-80008495D01*
X82958780Y-79627542D01*
X83006400Y-79532304D01*
X83054019Y-79484685D01*
X83149257Y-79437066D01*
X83292114Y-79437066D01*
X83387352Y-79484685D01*
X83434971Y-79532304D01*
X83482590Y-79627542D01*
X83482590Y-80008495D01*
X82958780Y-79103733D02*
X82958780Y-78437066D01*
X83958780Y-78865638D01*
X83976380Y-79414666D02*
X83500190Y-79748000D01*
X83976380Y-79986095D02*
X82976380Y-79986095D01*
X82976380Y-79605142D01*
X83024000Y-79509904D01*
X83071619Y-79462285D01*
X83166857Y-79414666D01*
X83309714Y-79414666D01*
X83404952Y-79462285D01*
X83452571Y-79509904D01*
X83500190Y-79605142D01*
X83500190Y-79986095D01*
X82976380Y-78557523D02*
X82976380Y-78748000D01*
X83024000Y-78843238D01*
X83071619Y-78890857D01*
X83214476Y-78986095D01*
X83404952Y-79033714D01*
X83785904Y-79033714D01*
X83881142Y-78986095D01*
X83928761Y-78938476D01*
X83976380Y-78843238D01*
X83976380Y-78652761D01*
X83928761Y-78557523D01*
X83881142Y-78509904D01*
X83785904Y-78462285D01*
X83547809Y-78462285D01*
X83452571Y-78509904D01*
X83404952Y-78557523D01*
X83357333Y-78652761D01*
X83357333Y-78843238D01*
X83404952Y-78938476D01*
X83452571Y-78986095D01*
X83547809Y-79033714D01*
X32624733Y-85279580D02*
X32291400Y-84803390D01*
X32053304Y-85279580D02*
X32053304Y-84279580D01*
X32434257Y-84279580D01*
X32529495Y-84327200D01*
X32577114Y-84374819D01*
X32624733Y-84470057D01*
X32624733Y-84612914D01*
X32577114Y-84708152D01*
X32529495Y-84755771D01*
X32434257Y-84803390D01*
X32053304Y-84803390D01*
X33005685Y-84374819D02*
X33053304Y-84327200D01*
X33148542Y-84279580D01*
X33386638Y-84279580D01*
X33481876Y-84327200D01*
X33529495Y-84374819D01*
X33577114Y-84470057D01*
X33577114Y-84565295D01*
X33529495Y-84708152D01*
X32958066Y-85279580D01*
X33577114Y-85279580D01*
X32751733Y-92569380D02*
X32418400Y-92093190D01*
X32180304Y-92569380D02*
X32180304Y-91569380D01*
X32561257Y-91569380D01*
X32656495Y-91617000D01*
X32704114Y-91664619D01*
X32751733Y-91759857D01*
X32751733Y-91902714D01*
X32704114Y-91997952D01*
X32656495Y-92045571D01*
X32561257Y-92093190D01*
X32180304Y-92093190D01*
X33704114Y-92569380D02*
X33132685Y-92569380D01*
X33418400Y-92569380D02*
X33418400Y-91569380D01*
X33323161Y-91712238D01*
X33227923Y-91807476D01*
X33132685Y-91855095D01*
X44218266Y-137623180D02*
X44218266Y-138337466D01*
X44170647Y-138480323D01*
X44075409Y-138575561D01*
X43932552Y-138623180D01*
X43837314Y-138623180D01*
X44599219Y-137623180D02*
X45265885Y-137623180D01*
X44837314Y-138623180D01*
X65586666Y-148512380D02*
X65586666Y-149226666D01*
X65539047Y-149369523D01*
X65443809Y-149464761D01*
X65300952Y-149512380D01*
X65205714Y-149512380D01*
X66491428Y-148512380D02*
X66300952Y-148512380D01*
X66205714Y-148560000D01*
X66158095Y-148607619D01*
X66062857Y-148750476D01*
X66015238Y-148940952D01*
X66015238Y-149321904D01*
X66062857Y-149417142D01*
X66110476Y-149464761D01*
X66205714Y-149512380D01*
X66396190Y-149512380D01*
X66491428Y-149464761D01*
X66539047Y-149417142D01*
X66586666Y-149321904D01*
X66586666Y-149083809D01*
X66539047Y-148988571D01*
X66491428Y-148940952D01*
X66396190Y-148893333D01*
X66205714Y-148893333D01*
X66110476Y-148940952D01*
X66062857Y-148988571D01*
X66015238Y-149083809D01*
X125276666Y-148512380D02*
X125276666Y-149226666D01*
X125229047Y-149369523D01*
X125133809Y-149464761D01*
X124990952Y-149512380D01*
X124895714Y-149512380D01*
X126229047Y-148512380D02*
X125752857Y-148512380D01*
X125705238Y-148988571D01*
X125752857Y-148940952D01*
X125848095Y-148893333D01*
X126086190Y-148893333D01*
X126181428Y-148940952D01*
X126229047Y-148988571D01*
X126276666Y-149083809D01*
X126276666Y-149321904D01*
X126229047Y-149417142D01*
X126181428Y-149464761D01*
X126086190Y-149512380D01*
X125848095Y-149512380D01*
X125752857Y-149464761D01*
X125705238Y-149417142D01*
X111815180Y-143233733D02*
X112529466Y-143233733D01*
X112672323Y-143281352D01*
X112767561Y-143376590D01*
X112815180Y-143519447D01*
X112815180Y-143614685D01*
X111815180Y-142852780D02*
X111815180Y-142233733D01*
X112196133Y-142567066D01*
X112196133Y-142424209D01*
X112243752Y-142328971D01*
X112291371Y-142281352D01*
X112386609Y-142233733D01*
X112624704Y-142233733D01*
X112719942Y-142281352D01*
X112767561Y-142328971D01*
X112815180Y-142424209D01*
X112815180Y-142709923D01*
X112767561Y-142805161D01*
X112719942Y-142852780D01*
X42067314Y-146525980D02*
X42067314Y-145525980D01*
X42305409Y-145525980D01*
X42448266Y-145573600D01*
X42543504Y-145668838D01*
X42591123Y-145764076D01*
X42638742Y-145954552D01*
X42638742Y-146097409D01*
X42591123Y-146287885D01*
X42543504Y-146383123D01*
X42448266Y-146478361D01*
X42305409Y-146525980D01*
X42067314Y-146525980D01*
X43591123Y-146525980D02*
X43019695Y-146525980D01*
X43305409Y-146525980D02*
X43305409Y-145525980D01*
X43210171Y-145668838D01*
X43114933Y-145764076D01*
X43019695Y-145811695D01*
X43972076Y-145621219D02*
X44019695Y-145573600D01*
X44114933Y-145525980D01*
X44353028Y-145525980D01*
X44448266Y-145573600D01*
X44495885Y-145621219D01*
X44543504Y-145716457D01*
X44543504Y-145811695D01*
X44495885Y-145954552D01*
X43924457Y-146525980D01*
X44543504Y-146525980D01*
X48099695Y-145955980D02*
X48099695Y-144955980D01*
X48671123Y-145955980D02*
X48242552Y-145384552D01*
X48671123Y-144955980D02*
X48099695Y-145527409D01*
X40695714Y-102902380D02*
X40695714Y-101902380D01*
X40933809Y-101902380D01*
X41076666Y-101950000D01*
X41171904Y-102045238D01*
X41219523Y-102140476D01*
X41267142Y-102330952D01*
X41267142Y-102473809D01*
X41219523Y-102664285D01*
X41171904Y-102759523D01*
X41076666Y-102854761D01*
X40933809Y-102902380D01*
X40695714Y-102902380D01*
X42219523Y-102902380D02*
X41648095Y-102902380D01*
X41933809Y-102902380D02*
X41933809Y-101902380D01*
X41838571Y-102045238D01*
X41743333Y-102140476D01*
X41648095Y-102188095D01*
X43171904Y-102902380D02*
X42600476Y-102902380D01*
X42886190Y-102902380D02*
X42886190Y-101902380D01*
X42790952Y-102045238D01*
X42695714Y-102140476D01*
X42600476Y-102188095D01*
X86874980Y-164129885D02*
X85874980Y-164129885D01*
X85874980Y-163891790D01*
X85922600Y-163748933D01*
X86017838Y-163653695D01*
X86113076Y-163606076D01*
X86303552Y-163558457D01*
X86446409Y-163558457D01*
X86636885Y-163606076D01*
X86732123Y-163653695D01*
X86827361Y-163748933D01*
X86874980Y-163891790D01*
X86874980Y-164129885D01*
X86874980Y-162606076D02*
X86874980Y-163177504D01*
X86874980Y-162891790D02*
X85874980Y-162891790D01*
X86017838Y-162987028D01*
X86113076Y-163082266D01*
X86160695Y-163177504D01*
X85874980Y-161987028D02*
X85874980Y-161891790D01*
X85922600Y-161796552D01*
X85970219Y-161748933D01*
X86065457Y-161701314D01*
X86255933Y-161653695D01*
X86494028Y-161653695D01*
X86684504Y-161701314D01*
X86779742Y-161748933D01*
X86827361Y-161796552D01*
X86874980Y-161891790D01*
X86874980Y-161987028D01*
X86827361Y-162082266D01*
X86779742Y-162129885D01*
X86684504Y-162177504D01*
X86494028Y-162225123D01*
X86255933Y-162225123D01*
X86065457Y-162177504D01*
X85970219Y-162129885D01*
X85922600Y-162082266D01*
X85874980Y-161987028D01*
X99322780Y-163704495D02*
X98322780Y-163704495D01*
X98322780Y-163466400D01*
X98370400Y-163323542D01*
X98465638Y-163228304D01*
X98560876Y-163180685D01*
X98751352Y-163133066D01*
X98894209Y-163133066D01*
X99084685Y-163180685D01*
X99179923Y-163228304D01*
X99275161Y-163323542D01*
X99322780Y-163466400D01*
X99322780Y-163704495D01*
X99322780Y-162656876D02*
X99322780Y-162466400D01*
X99275161Y-162371161D01*
X99227542Y-162323542D01*
X99084685Y-162228304D01*
X98894209Y-162180685D01*
X98513257Y-162180685D01*
X98418019Y-162228304D01*
X98370400Y-162275923D01*
X98322780Y-162371161D01*
X98322780Y-162561638D01*
X98370400Y-162656876D01*
X98418019Y-162704495D01*
X98513257Y-162752114D01*
X98751352Y-162752114D01*
X98846590Y-162704495D01*
X98894209Y-162656876D01*
X98941828Y-162561638D01*
X98941828Y-162371161D01*
X98894209Y-162275923D01*
X98846590Y-162228304D01*
X98751352Y-162180685D01*
X109028004Y-124395880D02*
X109028004Y-123395880D01*
X109266100Y-123395880D01*
X109408957Y-123443500D01*
X109504195Y-123538738D01*
X109551814Y-123633976D01*
X109599433Y-123824452D01*
X109599433Y-123967309D01*
X109551814Y-124157785D01*
X109504195Y-124253023D01*
X109408957Y-124348261D01*
X109266100Y-124395880D01*
X109028004Y-124395880D01*
X110170861Y-123824452D02*
X110075623Y-123776833D01*
X110028004Y-123729214D01*
X109980385Y-123633976D01*
X109980385Y-123586357D01*
X110028004Y-123491119D01*
X110075623Y-123443500D01*
X110170861Y-123395880D01*
X110361338Y-123395880D01*
X110456576Y-123443500D01*
X110504195Y-123491119D01*
X110551814Y-123586357D01*
X110551814Y-123633976D01*
X110504195Y-123729214D01*
X110456576Y-123776833D01*
X110361338Y-123824452D01*
X110170861Y-123824452D01*
X110075623Y-123872071D01*
X110028004Y-123919690D01*
X109980385Y-124014928D01*
X109980385Y-124205404D01*
X110028004Y-124300642D01*
X110075623Y-124348261D01*
X110170861Y-124395880D01*
X110361338Y-124395880D01*
X110456576Y-124348261D01*
X110504195Y-124300642D01*
X110551814Y-124205404D01*
X110551814Y-124014928D01*
X110504195Y-123919690D01*
X110456576Y-123872071D01*
X110361338Y-123824452D01*
X117943404Y-124395880D02*
X117943404Y-123395880D01*
X118181500Y-123395880D01*
X118324357Y-123443500D01*
X118419595Y-123538738D01*
X118467214Y-123633976D01*
X118514833Y-123824452D01*
X118514833Y-123967309D01*
X118467214Y-124157785D01*
X118419595Y-124253023D01*
X118324357Y-124348261D01*
X118181500Y-124395880D01*
X117943404Y-124395880D01*
X118848166Y-123395880D02*
X119514833Y-123395880D01*
X119086261Y-124395880D01*
X77187680Y-114301495D02*
X76187680Y-114301495D01*
X76187680Y-114063400D01*
X76235300Y-113920542D01*
X76330538Y-113825304D01*
X76425776Y-113777685D01*
X76616252Y-113730066D01*
X76759109Y-113730066D01*
X76949585Y-113777685D01*
X77044823Y-113825304D01*
X77140061Y-113920542D01*
X77187680Y-114063400D01*
X77187680Y-114301495D01*
X76187680Y-112872923D02*
X76187680Y-113063400D01*
X76235300Y-113158638D01*
X76282919Y-113206257D01*
X76425776Y-113301495D01*
X76616252Y-113349114D01*
X76997204Y-113349114D01*
X77092442Y-113301495D01*
X77140061Y-113253876D01*
X77187680Y-113158638D01*
X77187680Y-112968161D01*
X77140061Y-112872923D01*
X77092442Y-112825304D01*
X76997204Y-112777685D01*
X76759109Y-112777685D01*
X76663871Y-112825304D01*
X76616252Y-112872923D01*
X76568633Y-112968161D01*
X76568633Y-113158638D01*
X76616252Y-113253876D01*
X76663871Y-113301495D01*
X76759109Y-113349114D01*
X79968980Y-126302995D02*
X78968980Y-126302995D01*
X78968980Y-126064900D01*
X79016600Y-125922042D01*
X79111838Y-125826804D01*
X79207076Y-125779185D01*
X79397552Y-125731566D01*
X79540409Y-125731566D01*
X79730885Y-125779185D01*
X79826123Y-125826804D01*
X79921361Y-125922042D01*
X79968980Y-126064900D01*
X79968980Y-126302995D01*
X78968980Y-124826804D02*
X78968980Y-125302995D01*
X79445171Y-125350614D01*
X79397552Y-125302995D01*
X79349933Y-125207757D01*
X79349933Y-124969661D01*
X79397552Y-124874423D01*
X79445171Y-124826804D01*
X79540409Y-124779185D01*
X79778504Y-124779185D01*
X79873742Y-124826804D01*
X79921361Y-124874423D01*
X79968980Y-124969661D01*
X79968980Y-125207757D01*
X79921361Y-125302995D01*
X79873742Y-125350614D01*
X84245080Y-103798595D02*
X83245080Y-103798595D01*
X83245080Y-103560500D01*
X83292700Y-103417642D01*
X83387938Y-103322404D01*
X83483176Y-103274785D01*
X83673652Y-103227166D01*
X83816509Y-103227166D01*
X84006985Y-103274785D01*
X84102223Y-103322404D01*
X84197461Y-103417642D01*
X84245080Y-103560500D01*
X84245080Y-103798595D01*
X83578414Y-102370023D02*
X84245080Y-102370023D01*
X83197461Y-102608119D02*
X83911747Y-102846214D01*
X83911747Y-102227166D01*
X39038304Y-72981180D02*
X39038304Y-71981180D01*
X39276400Y-71981180D01*
X39419257Y-72028800D01*
X39514495Y-72124038D01*
X39562114Y-72219276D01*
X39609733Y-72409752D01*
X39609733Y-72552609D01*
X39562114Y-72743085D01*
X39514495Y-72838323D01*
X39419257Y-72933561D01*
X39276400Y-72981180D01*
X39038304Y-72981180D01*
X39943066Y-71981180D02*
X40562114Y-71981180D01*
X40228780Y-72362133D01*
X40371638Y-72362133D01*
X40466876Y-72409752D01*
X40514495Y-72457371D01*
X40562114Y-72552609D01*
X40562114Y-72790704D01*
X40514495Y-72885942D01*
X40466876Y-72933561D01*
X40371638Y-72981180D01*
X40085923Y-72981180D01*
X39990685Y-72933561D01*
X39943066Y-72885942D01*
X38936704Y-80448780D02*
X38936704Y-79448780D01*
X39174800Y-79448780D01*
X39317657Y-79496400D01*
X39412895Y-79591638D01*
X39460514Y-79686876D01*
X39508133Y-79877352D01*
X39508133Y-80020209D01*
X39460514Y-80210685D01*
X39412895Y-80305923D01*
X39317657Y-80401161D01*
X39174800Y-80448780D01*
X38936704Y-80448780D01*
X39889085Y-79544019D02*
X39936704Y-79496400D01*
X40031942Y-79448780D01*
X40270038Y-79448780D01*
X40365276Y-79496400D01*
X40412895Y-79544019D01*
X40460514Y-79639257D01*
X40460514Y-79734495D01*
X40412895Y-79877352D01*
X39841466Y-80448780D01*
X40460514Y-80448780D01*
X38962104Y-87763980D02*
X38962104Y-86763980D01*
X39200200Y-86763980D01*
X39343057Y-86811600D01*
X39438295Y-86906838D01*
X39485914Y-87002076D01*
X39533533Y-87192552D01*
X39533533Y-87335409D01*
X39485914Y-87525885D01*
X39438295Y-87621123D01*
X39343057Y-87716361D01*
X39200200Y-87763980D01*
X38962104Y-87763980D01*
X40485914Y-87763980D02*
X39914485Y-87763980D01*
X40200200Y-87763980D02*
X40200200Y-86763980D01*
X40104961Y-86906838D01*
X40009723Y-87002076D01*
X39914485Y-87049695D01*
X120591342Y-120444442D02*
X120543723Y-120492061D01*
X120400866Y-120539680D01*
X120305628Y-120539680D01*
X120162771Y-120492061D01*
X120067533Y-120396823D01*
X120019914Y-120301585D01*
X119972295Y-120111109D01*
X119972295Y-119968252D01*
X120019914Y-119777776D01*
X120067533Y-119682538D01*
X120162771Y-119587300D01*
X120305628Y-119539680D01*
X120400866Y-119539680D01*
X120543723Y-119587300D01*
X120591342Y-119634919D01*
X121543723Y-120539680D02*
X120972295Y-120539680D01*
X121258009Y-120539680D02*
X121258009Y-119539680D01*
X121162771Y-119682538D01*
X121067533Y-119777776D01*
X120972295Y-119825395D01*
X122162771Y-119539680D02*
X122258009Y-119539680D01*
X122353247Y-119587300D01*
X122400866Y-119634919D01*
X122448485Y-119730157D01*
X122496104Y-119920633D01*
X122496104Y-120158728D01*
X122448485Y-120349204D01*
X122400866Y-120444442D01*
X122353247Y-120492061D01*
X122258009Y-120539680D01*
X122162771Y-120539680D01*
X122067533Y-120492061D01*
X122019914Y-120444442D01*
X121972295Y-120349204D01*
X121924676Y-120158728D01*
X121924676Y-119920633D01*
X121972295Y-119730157D01*
X122019914Y-119634919D01*
X122067533Y-119587300D01*
X122162771Y-119539680D01*
X79106733Y-98397242D02*
X79059114Y-98444861D01*
X78916257Y-98492480D01*
X78821019Y-98492480D01*
X78678161Y-98444861D01*
X78582923Y-98349623D01*
X78535304Y-98254385D01*
X78487685Y-98063909D01*
X78487685Y-97921052D01*
X78535304Y-97730576D01*
X78582923Y-97635338D01*
X78678161Y-97540100D01*
X78821019Y-97492480D01*
X78916257Y-97492480D01*
X79059114Y-97540100D01*
X79106733Y-97587719D01*
X79582923Y-98492480D02*
X79773400Y-98492480D01*
X79868638Y-98444861D01*
X79916257Y-98397242D01*
X80011495Y-98254385D01*
X80059114Y-98063909D01*
X80059114Y-97682957D01*
X80011495Y-97587719D01*
X79963876Y-97540100D01*
X79868638Y-97492480D01*
X79678161Y-97492480D01*
X79582923Y-97540100D01*
X79535304Y-97587719D01*
X79487685Y-97682957D01*
X79487685Y-97921052D01*
X79535304Y-98016290D01*
X79582923Y-98063909D01*
X79678161Y-98111528D01*
X79868638Y-98111528D01*
X79963876Y-98063909D01*
X80011495Y-98016290D01*
X80059114Y-97921052D01*
X61831433Y-80871642D02*
X61783814Y-80919261D01*
X61640957Y-80966880D01*
X61545719Y-80966880D01*
X61402861Y-80919261D01*
X61307623Y-80824023D01*
X61260004Y-80728785D01*
X61212385Y-80538309D01*
X61212385Y-80395452D01*
X61260004Y-80204976D01*
X61307623Y-80109738D01*
X61402861Y-80014500D01*
X61545719Y-79966880D01*
X61640957Y-79966880D01*
X61783814Y-80014500D01*
X61831433Y-80062119D01*
X62402861Y-80395452D02*
X62307623Y-80347833D01*
X62260004Y-80300214D01*
X62212385Y-80204976D01*
X62212385Y-80157357D01*
X62260004Y-80062119D01*
X62307623Y-80014500D01*
X62402861Y-79966880D01*
X62593338Y-79966880D01*
X62688576Y-80014500D01*
X62736195Y-80062119D01*
X62783814Y-80157357D01*
X62783814Y-80204976D01*
X62736195Y-80300214D01*
X62688576Y-80347833D01*
X62593338Y-80395452D01*
X62402861Y-80395452D01*
X62307623Y-80443071D01*
X62260004Y-80490690D01*
X62212385Y-80585928D01*
X62212385Y-80776404D01*
X62260004Y-80871642D01*
X62307623Y-80919261D01*
X62402861Y-80966880D01*
X62593338Y-80966880D01*
X62688576Y-80919261D01*
X62736195Y-80871642D01*
X62783814Y-80776404D01*
X62783814Y-80585928D01*
X62736195Y-80490690D01*
X62688576Y-80443071D01*
X62593338Y-80395452D01*
X49233333Y-92517142D02*
X49185714Y-92564761D01*
X49042857Y-92612380D01*
X48947619Y-92612380D01*
X48804761Y-92564761D01*
X48709523Y-92469523D01*
X48661904Y-92374285D01*
X48614285Y-92183809D01*
X48614285Y-92040952D01*
X48661904Y-91850476D01*
X48709523Y-91755238D01*
X48804761Y-91660000D01*
X48947619Y-91612380D01*
X49042857Y-91612380D01*
X49185714Y-91660000D01*
X49233333Y-91707619D01*
X50138095Y-91612380D02*
X49661904Y-91612380D01*
X49614285Y-92088571D01*
X49661904Y-92040952D01*
X49757142Y-91993333D01*
X49995238Y-91993333D01*
X50090476Y-92040952D01*
X50138095Y-92088571D01*
X50185714Y-92183809D01*
X50185714Y-92421904D01*
X50138095Y-92517142D01*
X50090476Y-92564761D01*
X49995238Y-92612380D01*
X49757142Y-92612380D01*
X49661904Y-92564761D01*
X49614285Y-92517142D01*
X63399833Y-98925742D02*
X63352214Y-98973361D01*
X63209357Y-99020980D01*
X63114119Y-99020980D01*
X62971261Y-98973361D01*
X62876023Y-98878123D01*
X62828404Y-98782885D01*
X62780785Y-98592409D01*
X62780785Y-98449552D01*
X62828404Y-98259076D01*
X62876023Y-98163838D01*
X62971261Y-98068600D01*
X63114119Y-98020980D01*
X63209357Y-98020980D01*
X63352214Y-98068600D01*
X63399833Y-98116219D01*
X64256976Y-98354314D02*
X64256976Y-99020980D01*
X64018880Y-97973361D02*
X63780785Y-98687647D01*
X64399833Y-98687647D01*
X117556642Y-118045066D02*
X117604261Y-118092685D01*
X117651880Y-118235542D01*
X117651880Y-118330780D01*
X117604261Y-118473638D01*
X117509023Y-118568876D01*
X117413785Y-118616495D01*
X117223309Y-118664114D01*
X117080452Y-118664114D01*
X116889976Y-118616495D01*
X116794738Y-118568876D01*
X116699500Y-118473638D01*
X116651880Y-118330780D01*
X116651880Y-118235542D01*
X116699500Y-118092685D01*
X116747119Y-118045066D01*
X116651880Y-117711733D02*
X116651880Y-117092685D01*
X117032833Y-117426019D01*
X117032833Y-117283161D01*
X117080452Y-117187923D01*
X117128071Y-117140304D01*
X117223309Y-117092685D01*
X117461404Y-117092685D01*
X117556642Y-117140304D01*
X117604261Y-117187923D01*
X117651880Y-117283161D01*
X117651880Y-117568876D01*
X117604261Y-117664114D01*
X117556642Y-117711733D01*
X110161233Y-120884042D02*
X110113614Y-120931661D01*
X109970757Y-120979280D01*
X109875519Y-120979280D01*
X109732661Y-120931661D01*
X109637423Y-120836423D01*
X109589804Y-120741185D01*
X109542185Y-120550709D01*
X109542185Y-120407852D01*
X109589804Y-120217376D01*
X109637423Y-120122138D01*
X109732661Y-120026900D01*
X109875519Y-119979280D01*
X109970757Y-119979280D01*
X110113614Y-120026900D01*
X110161233Y-120074519D01*
X110542185Y-120074519D02*
X110589804Y-120026900D01*
X110685042Y-119979280D01*
X110923138Y-119979280D01*
X111018376Y-120026900D01*
X111065995Y-120074519D01*
X111113614Y-120169757D01*
X111113614Y-120264995D01*
X111065995Y-120407852D01*
X110494566Y-120979280D01*
X111113614Y-120979280D01*
X79005133Y-108628542D02*
X78957514Y-108676161D01*
X78814657Y-108723780D01*
X78719419Y-108723780D01*
X78576561Y-108676161D01*
X78481323Y-108580923D01*
X78433704Y-108485685D01*
X78386085Y-108295209D01*
X78386085Y-108152352D01*
X78433704Y-107961876D01*
X78481323Y-107866638D01*
X78576561Y-107771400D01*
X78719419Y-107723780D01*
X78814657Y-107723780D01*
X78957514Y-107771400D01*
X79005133Y-107819019D01*
X79957514Y-108723780D02*
X79386085Y-108723780D01*
X79671800Y-108723780D02*
X79671800Y-107723780D01*
X79576561Y-107866638D01*
X79481323Y-107961876D01*
X79386085Y-108009495D01*
M02*
