M48
; DRILL file {KiCad 6.0.7-f9a2dced07~116~ubuntu20.04.1} date Fr 19 Aug 2022 20:43:42 CEST
; FORMAT={-:-/ absolute / inch / decimal}
; #@! TF.CreationDate,2022-08-19T20:43:42+02:00
; #@! TF.GenerationSoftware,Kicad,Pcbnew,6.0.7-f9a2dced07~116~ubuntu20.04.1
; #@! TF.FileFunction,Plated,1,2,PTH
FMAT,2
INCH
; #@! TA.AperFunction,Plated,PTH,ViaDrill
T1C0.0157
; #@! TA.AperFunction,Plated,PTH,ComponentDrill
T2C0.0315
; #@! TA.AperFunction,Plated,PTH,ComponentDrill
T3C0.0354
; #@! TA.AperFunction,Plated,PTH,ComponentDrill
T4C0.0374
; #@! TA.AperFunction,Plated,PTH,ComponentDrill
T5C0.0394
; #@! TA.AperFunction,Plated,PTH,ComponentDrill
T6C0.0472
; #@! TA.AperFunction,Plated,PTH,ComponentDrill
T7C0.0520
; #@! TA.AperFunction,Plated,PTH,ComponentDrill
T8C0.0551
; #@! TA.AperFunction,Plated,PTH,ComponentDrill
T9C0.0630
%
G90
G05
T1
X2.5472Y-5.8976
X2.9235Y-4.2384
X2.938Y-4.8346
X2.9409Y-6.0059
X2.9724Y-5.9173
X2.9764Y-4.9469
X2.9921Y-5.5768
X3.0315Y-5.874
X3.0945Y-5.6358
X3.1024Y-5.689
X3.1122Y-5.4331
X3.1535Y-5.5728
X3.2087Y-5.5354
X3.3051Y-5.687
X3.3425Y-5.7539
X3.343Y-3.969
X3.3622Y-4.1772
X3.378Y-5.5866
X3.4429Y-4.2067
X3.4493Y-4.3932
X3.5276Y-4.4921
X3.5866Y-5.8031
X3.6014Y-4.4911
X3.7087Y-5.7028
X3.7805Y-4.4232
X3.7998Y-3.7929
X3.8386Y-5.6752
X4.078Y-3.7929
X4.4006Y-3.9679
X4.4045Y-3.6988
X4.55Y-3.76
X4.6654Y-5.2126
X4.9154Y-5.8579
X4.9724Y-4.0209
X4.9744Y-3.8031
X5.002Y-3.8878
X5.0906Y-5.4275
X5.0906Y-5.5391
X5.0925Y-5.3153
X5.1437Y-3.9754
T2
X3.7006Y-3.8921
X3.7006Y-4.1921
X3.8006Y-3.8921
X3.8006Y-4.1921
X3.9006Y-3.8921
X3.9006Y-4.1921
X4.0006Y-3.8921
X4.0006Y-4.1921
X4.1006Y-3.8921
X4.1006Y-4.1921
X4.2006Y-3.8921
X4.2006Y-4.1921
X4.3006Y-3.8921
X4.3006Y-4.1921
X4.4006Y-3.8921
X4.4006Y-4.1921
X4.5006Y-3.8921
X4.5006Y-4.1921
X4.6006Y-3.8921
X4.6006Y-4.1921
X4.7006Y-3.8921
X4.7006Y-4.1921
X4.8006Y-3.8921
X4.8006Y-4.1921
T3
X2.6589Y-3.7382
X2.7589Y-3.7382
X3.8258Y-2.3051
X3.8272Y-2.5
X3.9258Y-2.3051
X3.9272Y-2.5
X4.0118Y-5.1785
X4.0118Y-5.2785
X4.1969Y-5.1785
X4.1969Y-5.2785
X4.3799Y-5.1776
X4.3799Y-5.2776
X4.563Y-5.1785
X4.563Y-5.2785
T4
X3.0776Y-5.9409
X3.0776Y-6.0409
X3.1776Y-5.9409
X3.1776Y-6.0409
X3.2776Y-5.9409
X3.2776Y-6.0409
X3.3776Y-5.9409
X3.3776Y-6.0409
X3.4776Y-5.9409
X3.4776Y-6.0409
X3.5776Y-5.9409
X3.5776Y-6.0409
X3.6776Y-5.9409
X3.6776Y-6.0409
X3.7776Y-5.9409
X3.7776Y-6.0409
X3.8776Y-5.9409
X3.8776Y-6.0409
X3.9776Y-5.9409
X3.9776Y-6.0409
X4.0776Y-5.9409
X4.0776Y-6.0409
X4.1776Y-5.9409
X4.1776Y-6.0409
X4.2776Y-5.9409
X4.2776Y-6.0409
X4.3776Y-5.9409
X4.3776Y-6.0409
X4.4776Y-5.9409
X4.4776Y-6.0409
X4.5776Y-5.9409
X4.5776Y-6.0409
X4.6776Y-5.9409
X4.6776Y-6.0409
T5
X2.626Y-5.4508
X2.7362Y-2.7697
X3.1644Y-5.7933
X3.2644Y-5.7933
X3.4134Y-4.5787
X4.0453Y-5.7874
X4.7638Y-4.33
X4.8114Y-3.6713
X4.9114Y-4.33
X4.9134Y-3.3504
X4.9134Y-3.5
X5.1004Y-4.2533
X5.1004Y-4.3533
X5.1374Y-3.2957
X5.1374Y-3.3957
X5.1969Y-2.7756
X5.2579Y-4.5177
X5.2795Y-3.3957
T6
X3.0887Y-3.5976
X3.2856Y-3.5976
T7
X2.7402Y-2.3898
X2.937Y-2.3898
X3.1339Y-2.3898
X3.3307Y-2.3898
X4.278Y-2.3898
X4.4748Y-2.3898
X4.6717Y-2.3898
X4.8685Y-2.3898
T8
X3.885Y-4.4803
X4.0012Y-4.7539
X4.485Y-4.4803
X4.6012Y-4.7539
T9
X2.4736Y-3.1291
X2.5957Y-3.326
X2.7177Y-3.1291
T0
M30
