G04 #@! TF.GenerationSoftware,KiCad,Pcbnew,6.0.7-f9a2dced07~116~ubuntu20.04.1*
G04 #@! TF.CreationDate,2022-08-19T20:43:36+02:00*
G04 #@! TF.ProjectId,sboxnet-booster,73626f78-6e65-4742-9d62-6f6f73746572,rev?*
G04 #@! TF.SameCoordinates,Original*
G04 #@! TF.FileFunction,Soldermask,Top*
G04 #@! TF.FilePolarity,Negative*
%FSLAX46Y46*%
G04 Gerber Fmt 4.6, Leading zero omitted, Abs format (unit mm)*
G04 Created by KiCad (PCBNEW 6.0.7-f9a2dced07~116~ubuntu20.04.1) date 2022-08-19 20:43:36*
%MOMM*%
%LPD*%
G01*
G04 APERTURE LIST*
G04 Aperture macros list*
%AMRoundRect*
0 Rectangle with rounded corners*
0 $1 Rounding radius*
0 $2 $3 $4 $5 $6 $7 $8 $9 X,Y pos of 4 corners*
0 Add a 4 corners polygon primitive as box body*
4,1,4,$2,$3,$4,$5,$6,$7,$8,$9,$2,$3,0*
0 Add four circle primitives for the rounded corners*
1,1,$1+$1,$2,$3*
1,1,$1+$1,$4,$5*
1,1,$1+$1,$6,$7*
1,1,$1+$1,$8,$9*
0 Add four rect primitives between the rounded corners*
20,1,$1+$1,$2,$3,$4,$5,0*
20,1,$1+$1,$4,$5,$6,$7,0*
20,1,$1+$1,$6,$7,$8,$9,0*
20,1,$1+$1,$8,$9,$2,$3,0*%
%AMFreePoly0*
4,1,22,0.550000,-0.750000,0.000000,-0.750000,0.000000,-0.745033,-0.079941,-0.743568,-0.215256,-0.701293,-0.333266,-0.622738,-0.424486,-0.514219,-0.481581,-0.384460,-0.499164,-0.250000,-0.500000,-0.250000,-0.500000,0.250000,-0.499164,0.250000,-0.499963,0.256109,-0.478152,0.396186,-0.417904,0.524511,-0.324060,0.630769,-0.204165,0.706417,-0.067858,0.745374,0.000000,0.744959,0.000000,0.750000,
0.550000,0.750000,0.550000,-0.750000,0.550000,-0.750000,$1*%
%AMFreePoly1*
4,1,20,0.000000,0.744959,0.073905,0.744508,0.209726,0.703889,0.328688,0.626782,0.421226,0.519385,0.479903,0.390333,0.500000,0.250000,0.500000,-0.250000,0.499851,-0.262216,0.476331,-0.402017,0.414519,-0.529596,0.319384,-0.634700,0.198574,-0.708877,0.061801,-0.746166,0.000000,-0.745033,0.000000,-0.750000,-0.550000,-0.750000,-0.550000,0.750000,0.000000,0.750000,0.000000,0.744959,
0.000000,0.744959,$1*%
G04 Aperture macros list end*
%ADD10R,1.700000X1.700000*%
%ADD11RoundRect,0.250000X0.625000X-0.400000X0.625000X0.400000X-0.625000X0.400000X-0.625000X-0.400000X0*%
%ADD12R,1.980000X3.960000*%
%ADD13O,1.980000X3.960000*%
%ADD14RoundRect,0.250000X-0.625000X0.400000X-0.625000X-0.400000X0.625000X-0.400000X0.625000X0.400000X0*%
%ADD15R,1.100000X1.100000*%
%ADD16C,1.524000*%
%ADD17R,1.524000X1.524000*%
%ADD18C,2.200000*%
%ADD19R,1.800000X1.800000*%
%ADD20C,1.800000*%
%ADD21RoundRect,0.250000X-0.400000X-0.625000X0.400000X-0.625000X0.400000X0.625000X-0.400000X0.625000X0*%
%ADD22RoundRect,0.250000X0.400000X0.625000X-0.400000X0.625000X-0.400000X-0.625000X0.400000X-0.625000X0*%
%ADD23RoundRect,0.250000X-0.325000X-0.650000X0.325000X-0.650000X0.325000X0.650000X-0.325000X0.650000X0*%
%ADD24RoundRect,0.250000X0.650000X-0.325000X0.650000X0.325000X-0.650000X0.325000X-0.650000X-0.325000X0*%
%ADD25RoundRect,0.250000X0.325000X0.650000X-0.325000X0.650000X-0.325000X-0.650000X0.325000X-0.650000X0*%
%ADD26R,1.600000X1.600000*%
%ADD27O,1.600000X1.600000*%
%ADD28RoundRect,0.150000X-0.587500X-0.150000X0.587500X-0.150000X0.587500X0.150000X-0.587500X0.150000X0*%
%ADD29FreePoly0,0.000000*%
%ADD30R,1.000000X1.500000*%
%ADD31FreePoly1,0.000000*%
%ADD32C,2.800000*%
%ADD33O,2.800000X2.800000*%
%ADD34R,3.500000X2.300000*%
%ADD35RoundRect,0.150000X0.587500X0.150000X-0.587500X0.150000X-0.587500X-0.150000X0.587500X-0.150000X0*%
%ADD36C,3.000000*%
%ADD37O,1.700000X1.700000*%
%ADD38R,2.400000X2.400000*%
%ADD39C,2.400000*%
%ADD40RoundRect,0.150000X0.825000X0.150000X-0.825000X0.150000X-0.825000X-0.150000X0.825000X-0.150000X0*%
G04 APERTURE END LIST*
D10*
X122210000Y-93250000D03*
D11*
X64600000Y-153050000D03*
X64600000Y-149950000D03*
D12*
X123660000Y-60700000D03*
D13*
X118660000Y-60700000D03*
X113660000Y-60700000D03*
X108660000Y-60700000D03*
D10*
X102750000Y-147000000D03*
D14*
X101900000Y-136800000D03*
X101900000Y-139900000D03*
D10*
X124800000Y-85100000D03*
D15*
X119312500Y-91510000D03*
X116512500Y-91510000D03*
D10*
X66700000Y-138450000D03*
D16*
X118810000Y-150900000D03*
D17*
X118810000Y-153440000D03*
D16*
X116270000Y-150900000D03*
X116270000Y-153440000D03*
X113730000Y-150900000D03*
X113730000Y-153440000D03*
X111190000Y-150900000D03*
X111190000Y-153440000D03*
X108650000Y-150900000D03*
X108650000Y-153440000D03*
X106110000Y-150900000D03*
X106110000Y-153440000D03*
X103570000Y-150900000D03*
X103570000Y-153440000D03*
X101030000Y-150900000D03*
X101030000Y-153440000D03*
X98490000Y-150900000D03*
X98490000Y-153440000D03*
X95950000Y-150900000D03*
X95950000Y-153440000D03*
X93410000Y-150900000D03*
X93410000Y-153440000D03*
X90870000Y-150900000D03*
X90870000Y-153440000D03*
X88330000Y-150900000D03*
X88330000Y-153440000D03*
X85790000Y-150900000D03*
X85790000Y-153440000D03*
X83250000Y-150900000D03*
X83250000Y-153440000D03*
X80710000Y-150900000D03*
X80710000Y-153440000D03*
X78170000Y-150900000D03*
X78170000Y-153440000D03*
D11*
X68950000Y-145250000D03*
X68950000Y-142150000D03*
D10*
X134100000Y-86250000D03*
D18*
X60700000Y-56700000D03*
D19*
X97175000Y-58550000D03*
D20*
X99715000Y-58550000D03*
D21*
X118200000Y-125100000D03*
X121300000Y-125100000D03*
D22*
X98250000Y-109150000D03*
X95150000Y-109150000D03*
D21*
X67250000Y-89550000D03*
X70350000Y-89550000D03*
D23*
X100125000Y-88300000D03*
X103075000Y-88300000D03*
D24*
X130650000Y-103925000D03*
X130650000Y-100975000D03*
D21*
X71650000Y-120000000D03*
X74750000Y-120000000D03*
D10*
X69500000Y-70350000D03*
D21*
X87450000Y-109250000D03*
X90550000Y-109250000D03*
D25*
X96025000Y-112350000D03*
X93075000Y-112350000D03*
D14*
X115900000Y-136800000D03*
X115900000Y-139900000D03*
D26*
X93995000Y-106480000D03*
D27*
X96535000Y-106480000D03*
X99075000Y-106480000D03*
X101615000Y-106480000D03*
X104155000Y-106480000D03*
X106695000Y-106480000D03*
X109235000Y-106480000D03*
X111775000Y-106480000D03*
X114315000Y-106480000D03*
X116855000Y-106480000D03*
X119395000Y-106480000D03*
X121935000Y-106480000D03*
X121935000Y-98860000D03*
X119395000Y-98860000D03*
X116855000Y-98860000D03*
X114315000Y-98860000D03*
X111775000Y-98860000D03*
X109235000Y-98860000D03*
X106695000Y-98860000D03*
X104155000Y-98860000D03*
X101615000Y-98860000D03*
X99075000Y-98860000D03*
X96535000Y-98860000D03*
X93995000Y-98860000D03*
D28*
X67512500Y-126000000D03*
X67512500Y-127900000D03*
X69387500Y-126950000D03*
D23*
X123575000Y-125100000D03*
X126525000Y-125100000D03*
X71675000Y-122800000D03*
X74625000Y-122800000D03*
D29*
X129300000Y-137857500D03*
D30*
X130600000Y-137857500D03*
D31*
X131900000Y-137857500D03*
D32*
X113920000Y-113800000D03*
D33*
X98680000Y-113800000D03*
D21*
X91100000Y-147400000D03*
X94200000Y-147400000D03*
D19*
X70075000Y-94950000D03*
D20*
X67535000Y-94950000D03*
D34*
X80930000Y-79540000D03*
X75530000Y-79540000D03*
D29*
X129300000Y-140692500D03*
D30*
X130600000Y-140692500D03*
D31*
X131900000Y-140692500D03*
D35*
X73437500Y-117250000D03*
X73437500Y-115350000D03*
X71562500Y-116300000D03*
D36*
X69030000Y-79480000D03*
X65930000Y-84480000D03*
X62830000Y-79480000D03*
D10*
X132000000Y-70500000D03*
D32*
X101630000Y-120750000D03*
D33*
X116870000Y-120750000D03*
D19*
X115900000Y-134075000D03*
D20*
X115900000Y-131535000D03*
D10*
X124800000Y-88900000D03*
D21*
X91100000Y-93500000D03*
X94200000Y-93500000D03*
X95250000Y-67600000D03*
X98350000Y-67600000D03*
D10*
X124750000Y-109982000D03*
D15*
X114670000Y-91500000D03*
X111870000Y-91500000D03*
D21*
X108000000Y-88350000D03*
X111100000Y-88350000D03*
D14*
X111300000Y-136750000D03*
X111300000Y-139850000D03*
D19*
X101900000Y-134075000D03*
D20*
X101900000Y-131535000D03*
D22*
X127950000Y-96200000D03*
X124850000Y-96200000D03*
D11*
X67850000Y-117250000D03*
X67850000Y-114150000D03*
D14*
X106600000Y-136850000D03*
X106600000Y-139950000D03*
D28*
X71662500Y-110250000D03*
X71662500Y-112150000D03*
X73537500Y-111200000D03*
D23*
X87625000Y-111600000D03*
X90575000Y-111600000D03*
D10*
X121000000Y-109982000D03*
D12*
X84600000Y-60700000D03*
D13*
X79600000Y-60700000D03*
X74600000Y-60700000D03*
X69600000Y-60700000D03*
D18*
X133600000Y-56600000D03*
D29*
X129350000Y-135007500D03*
D30*
X130650000Y-135007500D03*
D31*
X131950000Y-135007500D03*
D21*
X76600000Y-116250000D03*
X79700000Y-116250000D03*
D10*
X130490000Y-86250000D03*
D37*
X130490000Y-83710000D03*
D18*
X60700000Y-152800000D03*
D38*
X83453959Y-91380000D03*
D39*
X78453959Y-91380000D03*
D11*
X94550000Y-62550000D03*
X94550000Y-59450000D03*
D10*
X86700000Y-116300000D03*
X133550000Y-114750000D03*
D19*
X99750000Y-63500000D03*
D20*
X97210000Y-63500000D03*
D23*
X79975000Y-102800000D03*
X82925000Y-102800000D03*
D18*
X133600000Y-152700000D03*
D10*
X129550000Y-110575000D03*
D37*
X129550000Y-108035000D03*
D40*
X72125000Y-153055000D03*
X72125000Y-151785000D03*
X72125000Y-150515000D03*
X72125000Y-149245000D03*
X67175000Y-149245000D03*
X67175000Y-150515000D03*
X67175000Y-151785000D03*
X67175000Y-153055000D03*
D19*
X111250000Y-134050000D03*
D20*
X111250000Y-131510000D03*
D22*
X90550000Y-106850000D03*
X87450000Y-106850000D03*
X94200000Y-144850000D03*
X91100000Y-144850000D03*
D19*
X106600000Y-134075000D03*
D20*
X106600000Y-131535000D03*
D23*
X111805000Y-93840000D03*
X114755000Y-93840000D03*
D10*
X80375000Y-147150000D03*
D37*
X82915000Y-147150000D03*
M02*
