%TF.GenerationSoftware,KiCad,Pcbnew,6.0.7-f9a2dced07~116~ubuntu20.04.1*%
%TF.CreationDate,2022-08-19T20:43:40+02:00*%
%TF.ProjectId,sboxnet-booster,73626f78-6e65-4742-9d62-6f6f73746572,rev?*%
%TF.SameCoordinates,Original*%
%TF.FileFunction,Drillmap*%
%TF.FilePolarity,Positive*%
%FSLAX45Y45*%
G04 Gerber Fmt 4.5, Leading zero omitted, Abs format (unit mm)*
G04 Created by KiCad (PCBNEW 6.0.7-f9a2dced07~116~ubuntu20.04.1) date 2022-08-19 20:43:40*
%MOMM*%
%LPD*%
G01*
G04 APERTURE LIST*
%ADD10C,0.050000*%
%ADD11C,0.200000*%
%ADD12C,0.220000*%
G04 APERTURE END LIST*
D10*
X5822400Y-5416550D02*
X13611000Y-5416550D01*
X13611000Y-5416550D02*
X13611000Y-15527450D01*
X13611000Y-15527450D02*
X5822400Y-15527450D01*
X5822400Y-15527450D02*
X5822400Y-5416550D01*
D11*
D12*
X5960000Y-5560000D02*
X6180000Y-5780000D01*
X6180000Y-5560000D02*
X5960000Y-5780000D01*
X5960000Y-15170000D02*
X6180000Y-15390000D01*
X6180000Y-15170000D02*
X5960000Y-15390000D01*
X13250000Y-5550000D02*
X13470000Y-5770000D01*
X13470000Y-5550000D02*
X13250000Y-5770000D01*
X13250000Y-15160000D02*
X13470000Y-15380000D01*
X13470000Y-15160000D02*
X13250000Y-15380000D01*
D11*
X6077519Y-15840426D02*
X6077519Y-15640426D01*
X6125138Y-15640426D01*
X6153709Y-15649950D01*
X6172757Y-15668998D01*
X6182281Y-15688045D01*
X6191805Y-15726140D01*
X6191805Y-15754712D01*
X6182281Y-15792807D01*
X6172757Y-15811855D01*
X6153709Y-15830902D01*
X6125138Y-15840426D01*
X6077519Y-15840426D01*
X6277519Y-15840426D02*
X6277519Y-15707093D01*
X6277519Y-15745188D02*
X6287043Y-15726140D01*
X6296567Y-15716617D01*
X6315614Y-15707093D01*
X6334662Y-15707093D01*
X6401328Y-15840426D02*
X6401328Y-15707093D01*
X6401328Y-15640426D02*
X6391805Y-15649950D01*
X6401328Y-15659474D01*
X6410852Y-15649950D01*
X6401328Y-15640426D01*
X6401328Y-15659474D01*
X6525138Y-15840426D02*
X6506090Y-15830902D01*
X6496567Y-15811855D01*
X6496567Y-15640426D01*
X6629900Y-15840426D02*
X6610852Y-15830902D01*
X6601328Y-15811855D01*
X6601328Y-15640426D01*
X6858471Y-15840426D02*
X6858471Y-15640426D01*
X6925138Y-15783283D01*
X6991805Y-15640426D01*
X6991805Y-15840426D01*
X7172757Y-15840426D02*
X7172757Y-15735664D01*
X7163233Y-15716617D01*
X7144186Y-15707093D01*
X7106090Y-15707093D01*
X7087043Y-15716617D01*
X7172757Y-15830902D02*
X7153709Y-15840426D01*
X7106090Y-15840426D01*
X7087043Y-15830902D01*
X7077519Y-15811855D01*
X7077519Y-15792807D01*
X7087043Y-15773759D01*
X7106090Y-15764236D01*
X7153709Y-15764236D01*
X7172757Y-15754712D01*
X7267995Y-15707093D02*
X7267995Y-15907093D01*
X7267995Y-15716617D02*
X7287043Y-15707093D01*
X7325138Y-15707093D01*
X7344186Y-15716617D01*
X7353709Y-15726140D01*
X7363233Y-15745188D01*
X7363233Y-15802331D01*
X7353709Y-15821378D01*
X7344186Y-15830902D01*
X7325138Y-15840426D01*
X7287043Y-15840426D01*
X7267995Y-15830902D01*
X7448948Y-15821378D02*
X7458471Y-15830902D01*
X7448948Y-15840426D01*
X7439424Y-15830902D01*
X7448948Y-15821378D01*
X7448948Y-15840426D01*
X7448948Y-15716617D02*
X7458471Y-15726140D01*
X7448948Y-15735664D01*
X7439424Y-15726140D01*
X7448948Y-15716617D01*
X7448948Y-15735664D01*
X5619900Y-16069950D02*
X5819900Y-16269950D01*
X5819900Y-16069950D02*
X5619900Y-16269950D01*
X6067995Y-16079474D02*
X6077519Y-16069950D01*
X6096567Y-16060426D01*
X6144186Y-16060426D01*
X6163233Y-16069950D01*
X6172757Y-16079474D01*
X6182281Y-16098521D01*
X6182281Y-16117569D01*
X6172757Y-16146140D01*
X6058471Y-16260426D01*
X6182281Y-16260426D01*
X6267995Y-16241378D02*
X6277519Y-16250902D01*
X6267995Y-16260426D01*
X6258471Y-16250902D01*
X6267995Y-16241378D01*
X6267995Y-16260426D01*
X6353709Y-16079474D02*
X6363233Y-16069950D01*
X6382281Y-16060426D01*
X6429900Y-16060426D01*
X6448948Y-16069950D01*
X6458471Y-16079474D01*
X6467995Y-16098521D01*
X6467995Y-16117569D01*
X6458471Y-16146140D01*
X6344186Y-16260426D01*
X6467995Y-16260426D01*
X6591805Y-16060426D02*
X6610852Y-16060426D01*
X6629900Y-16069950D01*
X6639424Y-16079474D01*
X6648948Y-16098521D01*
X6658471Y-16136617D01*
X6658471Y-16184236D01*
X6648948Y-16222331D01*
X6639424Y-16241378D01*
X6629900Y-16250902D01*
X6610852Y-16260426D01*
X6591805Y-16260426D01*
X6572757Y-16250902D01*
X6563233Y-16241378D01*
X6553709Y-16222331D01*
X6544186Y-16184236D01*
X6544186Y-16136617D01*
X6553709Y-16098521D01*
X6563233Y-16079474D01*
X6572757Y-16069950D01*
X6591805Y-16060426D01*
X6782281Y-16060426D02*
X6801328Y-16060426D01*
X6820376Y-16069950D01*
X6829900Y-16079474D01*
X6839424Y-16098521D01*
X6848948Y-16136617D01*
X6848948Y-16184236D01*
X6839424Y-16222331D01*
X6829900Y-16241378D01*
X6820376Y-16250902D01*
X6801328Y-16260426D01*
X6782281Y-16260426D01*
X6763233Y-16250902D01*
X6753709Y-16241378D01*
X6744186Y-16222331D01*
X6734662Y-16184236D01*
X6734662Y-16136617D01*
X6744186Y-16098521D01*
X6753709Y-16079474D01*
X6763233Y-16069950D01*
X6782281Y-16060426D01*
X6934662Y-16260426D02*
X6934662Y-16127093D01*
X6934662Y-16146140D02*
X6944186Y-16136617D01*
X6963233Y-16127093D01*
X6991805Y-16127093D01*
X7010852Y-16136617D01*
X7020376Y-16155664D01*
X7020376Y-16260426D01*
X7020376Y-16155664D02*
X7029900Y-16136617D01*
X7048948Y-16127093D01*
X7077519Y-16127093D01*
X7096567Y-16136617D01*
X7106090Y-16155664D01*
X7106090Y-16260426D01*
X7201328Y-16260426D02*
X7201328Y-16127093D01*
X7201328Y-16146140D02*
X7210852Y-16136617D01*
X7229900Y-16127093D01*
X7258471Y-16127093D01*
X7277519Y-16136617D01*
X7287043Y-16155664D01*
X7287043Y-16260426D01*
X7287043Y-16155664D02*
X7296567Y-16136617D01*
X7315614Y-16127093D01*
X7344186Y-16127093D01*
X7363233Y-16136617D01*
X7372757Y-16155664D01*
X7372757Y-16260426D01*
X7763233Y-16050902D02*
X7591805Y-16308045D01*
X8020376Y-16060426D02*
X8039424Y-16060426D01*
X8058471Y-16069950D01*
X8067995Y-16079474D01*
X8077519Y-16098521D01*
X8087043Y-16136617D01*
X8087043Y-16184236D01*
X8077519Y-16222331D01*
X8067995Y-16241378D01*
X8058471Y-16250902D01*
X8039424Y-16260426D01*
X8020376Y-16260426D01*
X8001328Y-16250902D01*
X7991805Y-16241378D01*
X7982281Y-16222331D01*
X7972757Y-16184236D01*
X7972757Y-16136617D01*
X7982281Y-16098521D01*
X7991805Y-16079474D01*
X8001328Y-16069950D01*
X8020376Y-16060426D01*
X8172757Y-16241378D02*
X8182281Y-16250902D01*
X8172757Y-16260426D01*
X8163233Y-16250902D01*
X8172757Y-16241378D01*
X8172757Y-16260426D01*
X8306090Y-16060426D02*
X8325138Y-16060426D01*
X8344186Y-16069950D01*
X8353709Y-16079474D01*
X8363233Y-16098521D01*
X8372757Y-16136617D01*
X8372757Y-16184236D01*
X8363233Y-16222331D01*
X8353709Y-16241378D01*
X8344186Y-16250902D01*
X8325138Y-16260426D01*
X8306090Y-16260426D01*
X8287043Y-16250902D01*
X8277519Y-16241378D01*
X8267995Y-16222331D01*
X8258471Y-16184236D01*
X8258471Y-16136617D01*
X8267995Y-16098521D01*
X8277519Y-16079474D01*
X8287043Y-16069950D01*
X8306090Y-16060426D01*
X8487043Y-16146140D02*
X8467995Y-16136617D01*
X8458471Y-16127093D01*
X8448948Y-16108045D01*
X8448948Y-16098521D01*
X8458471Y-16079474D01*
X8467995Y-16069950D01*
X8487043Y-16060426D01*
X8525138Y-16060426D01*
X8544186Y-16069950D01*
X8553710Y-16079474D01*
X8563233Y-16098521D01*
X8563233Y-16108045D01*
X8553710Y-16127093D01*
X8544186Y-16136617D01*
X8525138Y-16146140D01*
X8487043Y-16146140D01*
X8467995Y-16155664D01*
X8458471Y-16165188D01*
X8448948Y-16184236D01*
X8448948Y-16222331D01*
X8458471Y-16241378D01*
X8467995Y-16250902D01*
X8487043Y-16260426D01*
X8525138Y-16260426D01*
X8544186Y-16250902D01*
X8553710Y-16241378D01*
X8563233Y-16222331D01*
X8563233Y-16184236D01*
X8553710Y-16165188D01*
X8544186Y-16155664D01*
X8525138Y-16146140D01*
X8734662Y-16060426D02*
X8696567Y-16060426D01*
X8677519Y-16069950D01*
X8667995Y-16079474D01*
X8648948Y-16108045D01*
X8639424Y-16146140D01*
X8639424Y-16222331D01*
X8648948Y-16241378D01*
X8658471Y-16250902D01*
X8677519Y-16260426D01*
X8715614Y-16260426D01*
X8734662Y-16250902D01*
X8744186Y-16241378D01*
X8753710Y-16222331D01*
X8753710Y-16174712D01*
X8744186Y-16155664D01*
X8734662Y-16146140D01*
X8715614Y-16136617D01*
X8677519Y-16136617D01*
X8658471Y-16146140D01*
X8648948Y-16155664D01*
X8639424Y-16174712D01*
X8925138Y-16060426D02*
X8887043Y-16060426D01*
X8867995Y-16069950D01*
X8858471Y-16079474D01*
X8839424Y-16108045D01*
X8829900Y-16146140D01*
X8829900Y-16222331D01*
X8839424Y-16241378D01*
X8848948Y-16250902D01*
X8867995Y-16260426D01*
X8906090Y-16260426D01*
X8925138Y-16250902D01*
X8934662Y-16241378D01*
X8944186Y-16222331D01*
X8944186Y-16174712D01*
X8934662Y-16155664D01*
X8925138Y-16146140D01*
X8906090Y-16136617D01*
X8867995Y-16136617D01*
X8848948Y-16146140D01*
X8839424Y-16155664D01*
X8829900Y-16174712D01*
X9020376Y-16060426D02*
X9020376Y-16098521D01*
X9096567Y-16060426D02*
X9096567Y-16098521D01*
X9391805Y-16336617D02*
X9382281Y-16327093D01*
X9363233Y-16298521D01*
X9353710Y-16279474D01*
X9344186Y-16250902D01*
X9334662Y-16203283D01*
X9334662Y-16165188D01*
X9344186Y-16117569D01*
X9353710Y-16088998D01*
X9363233Y-16069950D01*
X9382281Y-16041378D01*
X9391805Y-16031855D01*
X9553710Y-16127093D02*
X9553710Y-16260426D01*
X9506090Y-16050902D02*
X9458471Y-16193759D01*
X9582281Y-16193759D01*
X9810852Y-16260426D02*
X9810852Y-16060426D01*
X9896567Y-16260426D02*
X9896567Y-16155664D01*
X9887043Y-16136617D01*
X9867995Y-16127093D01*
X9839424Y-16127093D01*
X9820376Y-16136617D01*
X9810852Y-16146140D01*
X10020376Y-16260426D02*
X10001329Y-16250902D01*
X9991805Y-16241378D01*
X9982281Y-16222331D01*
X9982281Y-16165188D01*
X9991805Y-16146140D01*
X10001329Y-16136617D01*
X10020376Y-16127093D01*
X10048948Y-16127093D01*
X10067995Y-16136617D01*
X10077519Y-16146140D01*
X10087043Y-16165188D01*
X10087043Y-16222331D01*
X10077519Y-16241378D01*
X10067995Y-16250902D01*
X10048948Y-16260426D01*
X10020376Y-16260426D01*
X10201329Y-16260426D02*
X10182281Y-16250902D01*
X10172757Y-16231855D01*
X10172757Y-16060426D01*
X10353710Y-16250902D02*
X10334662Y-16260426D01*
X10296567Y-16260426D01*
X10277519Y-16250902D01*
X10267995Y-16231855D01*
X10267995Y-16155664D01*
X10277519Y-16136617D01*
X10296567Y-16127093D01*
X10334662Y-16127093D01*
X10353710Y-16136617D01*
X10363233Y-16155664D01*
X10363233Y-16174712D01*
X10267995Y-16193759D01*
X10439424Y-16250902D02*
X10458471Y-16260426D01*
X10496567Y-16260426D01*
X10515614Y-16250902D01*
X10525138Y-16231855D01*
X10525138Y-16222331D01*
X10515614Y-16203283D01*
X10496567Y-16193759D01*
X10467995Y-16193759D01*
X10448948Y-16184236D01*
X10439424Y-16165188D01*
X10439424Y-16155664D01*
X10448948Y-16136617D01*
X10467995Y-16127093D01*
X10496567Y-16127093D01*
X10515614Y-16136617D01*
X10591805Y-16336617D02*
X10601329Y-16327093D01*
X10620376Y-16298521D01*
X10629900Y-16279474D01*
X10639424Y-16250902D01*
X10648948Y-16203283D01*
X10648948Y-16165188D01*
X10639424Y-16117569D01*
X10629900Y-16088998D01*
X10620376Y-16069950D01*
X10601329Y-16041378D01*
X10591805Y-16031855D01*
X10953710Y-16336617D02*
X10944186Y-16327093D01*
X10925138Y-16298521D01*
X10915614Y-16279474D01*
X10906090Y-16250902D01*
X10896567Y-16203283D01*
X10896567Y-16165188D01*
X10906090Y-16117569D01*
X10915614Y-16088998D01*
X10925138Y-16069950D01*
X10944186Y-16041378D01*
X10953710Y-16031855D01*
X11029900Y-16127093D02*
X11029900Y-16260426D01*
X11029900Y-16146140D02*
X11039424Y-16136617D01*
X11058471Y-16127093D01*
X11087043Y-16127093D01*
X11106090Y-16136617D01*
X11115614Y-16155664D01*
X11115614Y-16260426D01*
X11239424Y-16260426D02*
X11220376Y-16250902D01*
X11210852Y-16241378D01*
X11201328Y-16222331D01*
X11201328Y-16165188D01*
X11210852Y-16146140D01*
X11220376Y-16136617D01*
X11239424Y-16127093D01*
X11267995Y-16127093D01*
X11287043Y-16136617D01*
X11296567Y-16146140D01*
X11306090Y-16165188D01*
X11306090Y-16222331D01*
X11296567Y-16241378D01*
X11287043Y-16250902D01*
X11267995Y-16260426D01*
X11239424Y-16260426D01*
X11363233Y-16127093D02*
X11439424Y-16127093D01*
X11391805Y-16060426D02*
X11391805Y-16231855D01*
X11401328Y-16250902D01*
X11420376Y-16260426D01*
X11439424Y-16260426D01*
X11658471Y-16127093D02*
X11658471Y-16327093D01*
X11658471Y-16136617D02*
X11677519Y-16127093D01*
X11715614Y-16127093D01*
X11734662Y-16136617D01*
X11744186Y-16146140D01*
X11753709Y-16165188D01*
X11753709Y-16222331D01*
X11744186Y-16241378D01*
X11734662Y-16250902D01*
X11715614Y-16260426D01*
X11677519Y-16260426D01*
X11658471Y-16250902D01*
X11867995Y-16260426D02*
X11848948Y-16250902D01*
X11839424Y-16231855D01*
X11839424Y-16060426D01*
X12029900Y-16260426D02*
X12029900Y-16155664D01*
X12020376Y-16136617D01*
X12001328Y-16127093D01*
X11963233Y-16127093D01*
X11944186Y-16136617D01*
X12029900Y-16250902D02*
X12010852Y-16260426D01*
X11963233Y-16260426D01*
X11944186Y-16250902D01*
X11934662Y-16231855D01*
X11934662Y-16212807D01*
X11944186Y-16193759D01*
X11963233Y-16184236D01*
X12010852Y-16184236D01*
X12029900Y-16174712D01*
X12096567Y-16127093D02*
X12172757Y-16127093D01*
X12125138Y-16060426D02*
X12125138Y-16231855D01*
X12134662Y-16250902D01*
X12153709Y-16260426D01*
X12172757Y-16260426D01*
X12315614Y-16250902D02*
X12296567Y-16260426D01*
X12258471Y-16260426D01*
X12239424Y-16250902D01*
X12229900Y-16231855D01*
X12229900Y-16155664D01*
X12239424Y-16136617D01*
X12258471Y-16127093D01*
X12296567Y-16127093D01*
X12315614Y-16136617D01*
X12325138Y-16155664D01*
X12325138Y-16174712D01*
X12229900Y-16193759D01*
X12496567Y-16260426D02*
X12496567Y-16060426D01*
X12496567Y-16250902D02*
X12477519Y-16260426D01*
X12439424Y-16260426D01*
X12420376Y-16250902D01*
X12410852Y-16241378D01*
X12401328Y-16222331D01*
X12401328Y-16165188D01*
X12410852Y-16146140D01*
X12420376Y-16136617D01*
X12439424Y-16127093D01*
X12477519Y-16127093D01*
X12496567Y-16136617D01*
X12572757Y-16336617D02*
X12582281Y-16327093D01*
X12601328Y-16298521D01*
X12610852Y-16279474D01*
X12620376Y-16250902D01*
X12629900Y-16203283D01*
X12629900Y-16165188D01*
X12620376Y-16117569D01*
X12610852Y-16088998D01*
X12601328Y-16069950D01*
X12582281Y-16041378D01*
X12572757Y-16031855D01*
M02*
