G04 #@! TF.GenerationSoftware,KiCad,Pcbnew,5.1.6-c6e7f7d~87~ubuntu18.04.1*
G04 #@! TF.CreationDate,2020-08-09T11:57:43+02:00*
G04 #@! TF.ProjectId,sboxnet-booster,73626f78-6e65-4742-9d62-6f6f73746572,rev?*
G04 #@! TF.SameCoordinates,Original*
G04 #@! TF.FileFunction,Copper,L2,Bot*
G04 #@! TF.FilePolarity,Positive*
%FSLAX46Y46*%
G04 Gerber Fmt 4.6, Leading zero omitted, Abs format (unit mm)*
G04 Created by KiCad (PCBNEW 5.1.6-c6e7f7d~87~ubuntu18.04.1) date 2020-08-09 11:57:43*
%MOMM*%
%LPD*%
G01*
G04 APERTURE LIST*
G04 #@! TA.AperFunction,EtchedComponent*
%ADD10C,0.100000*%
G04 #@! TD*
G04 #@! TA.AperFunction,ComponentPad*
%ADD11C,1.524000*%
G04 #@! TD*
G04 #@! TA.AperFunction,ComponentPad*
%ADD12R,1.524000X1.524000*%
G04 #@! TD*
G04 #@! TA.AperFunction,ViaPad*
%ADD13C,1.000000*%
G04 #@! TD*
G04 #@! TA.AperFunction,Conductor*
%ADD14R,6.780000X11.860000*%
G04 #@! TD*
G04 #@! TA.AperFunction,ComponentPad*
%ADD15R,1.700000X1.700000*%
G04 #@! TD*
G04 #@! TA.AperFunction,ComponentPad*
%ADD16C,2.400000*%
G04 #@! TD*
G04 #@! TA.AperFunction,ComponentPad*
%ADD17R,2.400000X2.400000*%
G04 #@! TD*
G04 #@! TA.AperFunction,ComponentPad*
%ADD18O,1.700000X1.700000*%
G04 #@! TD*
G04 #@! TA.AperFunction,ComponentPad*
%ADD19O,2.400000X2.400000*%
G04 #@! TD*
G04 #@! TA.AperFunction,ComponentPad*
%ADD20C,3.000000*%
G04 #@! TD*
G04 #@! TA.AperFunction,ComponentPad*
%ADD21O,1.980000X3.960000*%
G04 #@! TD*
G04 #@! TA.AperFunction,ComponentPad*
%ADD22R,1.980000X3.960000*%
G04 #@! TD*
G04 #@! TA.AperFunction,ComponentPad*
%ADD23O,2.800000X2.800000*%
G04 #@! TD*
G04 #@! TA.AperFunction,ComponentPad*
%ADD24R,2.800000X2.800000*%
G04 #@! TD*
G04 #@! TA.AperFunction,ComponentPad*
%ADD25C,1.800000*%
G04 #@! TD*
G04 #@! TA.AperFunction,ComponentPad*
%ADD26R,1.800000X1.800000*%
G04 #@! TD*
G04 #@! TA.AperFunction,ComponentPad*
%ADD27C,1.600000*%
G04 #@! TD*
G04 #@! TA.AperFunction,ComponentPad*
%ADD28R,1.600000X1.600000*%
G04 #@! TD*
G04 #@! TA.AperFunction,ViaPad*
%ADD29C,0.800000*%
G04 #@! TD*
G04 #@! TA.AperFunction,Conductor*
%ADD30C,1.000000*%
G04 #@! TD*
G04 #@! TA.AperFunction,Conductor*
%ADD31C,0.250000*%
G04 #@! TD*
G04 #@! TA.AperFunction,Conductor*
%ADD32C,0.254000*%
G04 #@! TD*
G04 APERTURE END LIST*
D10*
G36*
X100797360Y-136113520D02*
G01*
X94447360Y-136113520D01*
X94447360Y-134843520D01*
X100797360Y-134843520D01*
X100797360Y-136113520D01*
G37*
X100797360Y-136113520D02*
X94447360Y-136113520D01*
X94447360Y-134843520D01*
X100797360Y-134843520D01*
X100797360Y-136113520D01*
G36*
X105877360Y-149448520D02*
G01*
X89367360Y-149448520D01*
X89367360Y-136113520D01*
X105877360Y-136113520D01*
X105877360Y-149448520D01*
G37*
X105877360Y-149448520D02*
X89367360Y-149448520D01*
X89367360Y-136113520D01*
X105877360Y-136113520D01*
X105877360Y-149448520D01*
G36*
X105877360Y-121508520D02*
G01*
X100797360Y-121508520D01*
X100797360Y-123413520D01*
X94447360Y-123413520D01*
X94447360Y-121508520D01*
X89367360Y-121508520D01*
X89367360Y-110078520D01*
X105877360Y-110078520D01*
X105877360Y-121508520D01*
G37*
X105877360Y-121508520D02*
X100797360Y-121508520D01*
X100797360Y-123413520D01*
X94447360Y-123413520D01*
X94447360Y-121508520D01*
X89367360Y-121508520D01*
X89367360Y-110078520D01*
X105877360Y-110078520D01*
X105877360Y-121508520D01*
D11*
X101600000Y-67310000D03*
X99060000Y-67310000D03*
X96520000Y-67310000D03*
X93980000Y-67310000D03*
X91440000Y-67310000D03*
X88900000Y-67310000D03*
X86360000Y-67310000D03*
X101600000Y-69850000D03*
X99060000Y-69850000D03*
X96520000Y-69850000D03*
X93980000Y-69850000D03*
X91440000Y-69850000D03*
X88900000Y-69850000D03*
X86360000Y-69850000D03*
X83820000Y-67310000D03*
X83820000Y-69850000D03*
X81280000Y-67310000D03*
X81280000Y-69850000D03*
X78740000Y-67310000D03*
X78740000Y-69850000D03*
X76200000Y-67310000D03*
X76200000Y-69850000D03*
X73660000Y-67310000D03*
X73660000Y-69850000D03*
X71120000Y-67310000D03*
X71120000Y-69850000D03*
X68580000Y-67310000D03*
X68580000Y-69850000D03*
X66040000Y-67310000D03*
X66040000Y-69850000D03*
X63500000Y-67310000D03*
X63500000Y-69850000D03*
D12*
X60960000Y-67310000D03*
D11*
X60960000Y-69850000D03*
X92542360Y-111983520D03*
X92542360Y-113888520D03*
X92542360Y-115793520D03*
X92542360Y-117698520D03*
X92542360Y-119603520D03*
X95082360Y-111983520D03*
X95082360Y-113888520D03*
X95082360Y-115793520D03*
X95082360Y-117698520D03*
X95082360Y-119603520D03*
X102702360Y-111983520D03*
X102702360Y-113888520D03*
X102702360Y-115793520D03*
X102702360Y-117698520D03*
X102702360Y-119603520D03*
X100162360Y-111983520D03*
X100162360Y-113888520D03*
X100162360Y-115793520D03*
X100162360Y-117698520D03*
X100162360Y-119603520D03*
X97622360Y-111983520D03*
X97622360Y-113888520D03*
X97622360Y-115793520D03*
X97622360Y-117698520D03*
X97622360Y-119603520D03*
X92542360Y-146908520D03*
X92542360Y-145003520D03*
X92542360Y-143098520D03*
X92542360Y-141193520D03*
X92542360Y-139288520D03*
X95082360Y-146908520D03*
X95082360Y-145003520D03*
X95082360Y-143098520D03*
X95082360Y-141193520D03*
X95082360Y-139288520D03*
X102702360Y-146908520D03*
X102702360Y-145003520D03*
X102702360Y-143098520D03*
X102702360Y-141193520D03*
X102702360Y-139288520D03*
X100162360Y-146908520D03*
X100162360Y-145003520D03*
X100162360Y-143098520D03*
X100162360Y-141193520D03*
X100162360Y-139288520D03*
X97622360Y-146908520D03*
X97622360Y-145003520D03*
X97622360Y-143098520D03*
X97622360Y-141193520D03*
X97622360Y-139288520D03*
D13*
X98892360Y-134208520D03*
X97622360Y-134208520D03*
X96352360Y-134208520D03*
X100162360Y-131668520D03*
X98892360Y-131668520D03*
X97622360Y-131668520D03*
X96352360Y-131668520D03*
X95082360Y-131668520D03*
X100162360Y-129128520D03*
X98892360Y-129128520D03*
X97622360Y-129128520D03*
X96352360Y-129128520D03*
X95082360Y-129128520D03*
X100162360Y-126588520D03*
X98892360Y-126588520D03*
X97622360Y-126588520D03*
X96352360Y-126588520D03*
X95082360Y-126588520D03*
X98892360Y-124048520D03*
X97622360Y-124048520D03*
X96352360Y-124048520D03*
D14*
X97622360Y-129128520D03*
D15*
X105699560Y-151765000D03*
X110413800Y-134508240D03*
X54406800Y-91135200D03*
X114604800Y-127558800D03*
X112247680Y-122809000D03*
X79832200Y-152222200D03*
X84099400Y-141351000D03*
X113766600Y-139268200D03*
X83149440Y-129092960D03*
X84810600Y-93776800D03*
X92125800Y-97561400D03*
D16*
X69300100Y-141655800D03*
D17*
X64300100Y-141655800D03*
D18*
X90728800Y-151638000D03*
D15*
X93268800Y-151638000D03*
D18*
X39878000Y-101041200D03*
X39878000Y-98501200D03*
D15*
X39878000Y-95961200D03*
D19*
X130568700Y-130733800D03*
D16*
X130568700Y-85013800D03*
D19*
X71424800Y-85090000D03*
D16*
X71424800Y-130810000D03*
D20*
X50901600Y-123240800D03*
X38201600Y-123240800D03*
X38201600Y-134670800D03*
X50901600Y-134670800D03*
D21*
X68420000Y-156210000D03*
X73420000Y-156210000D03*
X63420000Y-156210000D03*
D22*
X58420000Y-156210000D03*
D21*
X128110000Y-156210000D03*
X133110000Y-156210000D03*
X123110000Y-156210000D03*
D22*
X118110000Y-156210000D03*
D18*
X107492800Y-142900400D03*
D15*
X110032800Y-142900400D03*
D23*
X38201600Y-143103600D03*
D24*
X48361600Y-143103600D03*
D25*
X43180000Y-105410000D03*
D26*
X40640000Y-105410000D03*
D25*
X89382600Y-161645600D03*
D26*
X89382600Y-164185600D03*
D25*
X95910400Y-164236400D03*
D26*
X95910400Y-161696400D03*
D25*
X41046400Y-75488800D03*
D26*
X38506400Y-75488800D03*
D25*
X40944800Y-82956400D03*
D26*
X38404800Y-82956400D03*
D25*
X40970200Y-90271600D03*
D26*
X38430200Y-90271600D03*
D27*
X62998100Y-84264500D03*
D28*
X60998100Y-84264500D03*
D29*
X87452200Y-115036600D03*
X111810800Y-118706900D03*
X111810800Y-108536740D03*
X99510000Y-77840000D03*
X88690000Y-80690000D03*
X87486480Y-123603520D03*
X74371200Y-79349600D03*
X67208400Y-81153000D03*
X100460000Y-79240000D03*
X80540000Y-84780000D03*
X85953600Y-71983600D03*
X84607400Y-75971400D03*
X87350600Y-96316800D03*
X82242700Y-97736700D03*
X89306400Y-128193800D03*
X106045000Y-106431080D03*
X109565440Y-106431080D03*
X108945680Y-116159280D03*
X56489600Y-96291400D03*
X78943200Y-132994400D03*
X56718200Y-86868000D03*
X70053200Y-81178400D03*
X72034400Y-76479400D03*
X79654400Y-76377800D03*
X106644440Y-131572000D03*
X106578400Y-134264400D03*
X78994000Y-112699800D03*
X60960000Y-99060000D03*
X50800000Y-105410000D03*
X118135400Y-129273300D03*
X82092800Y-137058400D03*
X84429600Y-125526800D03*
X106497120Y-125476000D03*
X31343600Y-82956400D03*
X54838600Y-81889600D03*
X83019900Y-76161900D03*
X34239200Y-79400400D03*
X54965600Y-79400400D03*
X31496000Y-90220800D03*
X109753400Y-127406400D03*
X109753400Y-107746800D03*
X86868000Y-107746800D03*
X85991700Y-100749100D03*
X87591900Y-103035100D03*
X80772000Y-72237600D03*
X79248000Y-82042000D03*
X87706200Y-130073400D03*
X88315800Y-128930400D03*
X88315800Y-106349800D03*
X88468200Y-100977700D03*
X89814400Y-103162100D03*
X78384400Y-82727800D03*
X110291616Y-105198916D03*
X110588746Y-110020414D03*
X64770000Y-76352400D03*
X81356200Y-93218000D03*
X108680250Y-125850650D03*
X102397560Y-126121160D03*
X92509473Y-122849773D03*
X92654120Y-127482600D03*
X83527900Y-154736800D03*
X88595200Y-132740400D03*
X86817200Y-139623800D03*
X86814660Y-127180340D03*
X106566191Y-126739650D03*
X107666840Y-132703520D03*
X93228040Y-128808600D03*
X93390720Y-122234960D03*
X101666040Y-128783080D03*
X101666040Y-123235720D03*
X96774000Y-97282000D03*
X77139800Y-87274400D03*
X75946000Y-79146400D03*
X81254600Y-104038400D03*
X82410300Y-105664000D03*
X82016600Y-107797600D03*
X78060550Y-109886750D03*
X90930000Y-75070000D03*
D30*
X111810800Y-118706900D02*
X111810800Y-108536740D01*
X111810800Y-103733600D02*
X130302000Y-85242400D01*
X111810800Y-108536740D02*
X111810800Y-103733600D01*
D31*
X99510000Y-77840000D02*
X94260000Y-77840000D01*
X92543700Y-79556300D02*
X89672613Y-80690000D01*
X94260000Y-77840000D02*
X92543700Y-79556300D01*
X89672613Y-80690000D02*
X88690000Y-80690000D01*
X88690000Y-80690000D02*
X88690000Y-80690000D01*
X87452200Y-115036600D02*
X87484720Y-123603520D01*
X74371200Y-77743198D02*
X66630402Y-70002400D01*
X74371200Y-79349600D02*
X74371200Y-77743198D01*
X67208400Y-83007200D02*
X64363600Y-85852000D01*
X67208400Y-81153000D02*
X67208400Y-83007200D01*
X64363600Y-85852000D02*
X57023000Y-85852000D01*
X55186601Y-81164599D02*
X43066801Y-81164599D01*
X57023000Y-85852000D02*
X57023000Y-83000998D01*
X57023000Y-83000998D02*
X55186601Y-81164599D01*
X43066801Y-81164599D02*
X41148000Y-83083400D01*
X94570000Y-79240000D02*
X80540000Y-84780000D01*
X100460000Y-79240000D02*
X94570000Y-79240000D01*
X80540000Y-84780000D02*
X80540000Y-84780000D01*
X85953600Y-71983600D02*
X85953600Y-74625200D01*
X85953600Y-74625200D02*
X84607400Y-75971400D01*
X84607400Y-75971400D02*
X84607400Y-75971400D01*
X85930700Y-97736700D02*
X87350600Y-96316800D01*
X82242700Y-97736700D02*
X85930700Y-97736700D01*
X89306400Y-128193800D02*
X89306400Y-128193800D01*
X106045000Y-106431080D02*
X106045000Y-106431080D01*
X109565440Y-106861758D02*
X108945680Y-107481518D01*
X109565440Y-106431080D02*
X109565440Y-106861758D01*
X108945680Y-107481518D02*
X108945680Y-116159280D01*
X108945680Y-116159280D02*
X108945680Y-116159280D01*
X88950000Y-127837400D02*
X89306400Y-128193800D01*
X88950000Y-121760000D02*
X88950000Y-127837400D01*
X106045000Y-107035000D02*
X105990000Y-107090000D01*
X106045000Y-106431080D02*
X106045000Y-107035000D01*
X89270000Y-107090000D02*
X88940000Y-107420000D01*
X88940000Y-121750000D02*
X88950000Y-121760000D01*
X105990000Y-107090000D02*
X89270000Y-107090000D01*
X88940000Y-107420000D02*
X88940000Y-121750000D01*
X79413100Y-112864900D02*
X78943200Y-132994400D01*
X79413100Y-112864900D02*
X79159100Y-112864900D01*
X79159100Y-112864900D02*
X78994000Y-112699800D01*
X77038200Y-110744000D02*
X77038200Y-108280200D01*
X77038200Y-108280200D02*
X47625000Y-108280200D01*
X47625000Y-108280200D02*
X46532800Y-107188000D01*
X46532800Y-107188000D02*
X46532800Y-102514400D01*
X46532800Y-102514400D02*
X50368200Y-102514400D01*
X50368200Y-102514400D02*
X56464200Y-96418400D01*
X56718200Y-86868000D02*
X65786000Y-86868000D01*
X65786000Y-86868000D02*
X70053200Y-82600800D01*
X70053200Y-82600800D02*
X70053200Y-81178400D01*
X70053200Y-81178400D02*
X70053200Y-81178400D01*
X70053200Y-81178400D02*
X70053200Y-81178400D01*
X70053200Y-81178400D02*
X70053200Y-78460600D01*
X70053200Y-78460600D02*
X72034400Y-76479400D01*
X72034400Y-76479400D02*
X72034400Y-76479400D01*
X82423000Y-68783200D02*
X83693000Y-67513200D01*
X82423000Y-72212200D02*
X82423000Y-68783200D01*
X79654400Y-76377800D02*
X82423000Y-72212200D01*
X106644440Y-134198360D02*
X106578400Y-134264400D01*
X106644440Y-131572000D02*
X106644440Y-134198360D01*
X78994000Y-112699800D02*
X77038200Y-110744000D01*
D30*
X84429600Y-125526800D02*
X84429600Y-125526800D01*
X107391200Y-119735600D02*
X107391200Y-125476000D01*
X107391200Y-125476000D02*
X107391200Y-125476000D01*
X84429600Y-104267000D02*
X84480400Y-104317800D01*
X84480400Y-104317800D02*
X107467400Y-104317800D01*
X107467400Y-119659400D02*
X107391200Y-119735600D01*
X107467400Y-104317800D02*
X107467400Y-119659400D01*
D31*
X107391200Y-125476000D02*
X107391200Y-126885700D01*
X107391200Y-126885700D02*
X109766100Y-129260600D01*
X109766100Y-129260600D02*
X109778800Y-129273300D01*
X109778800Y-129273300D02*
X118135400Y-129273300D01*
X118135400Y-129273300D02*
X118135400Y-129273300D01*
D30*
X48361600Y-143103600D02*
X55727600Y-143103600D01*
X55727600Y-143103600D02*
X62115700Y-136715500D01*
X64300100Y-136893300D02*
X64477900Y-136715500D01*
X64300100Y-141655800D02*
X64300100Y-136893300D01*
X62115700Y-136715500D02*
X64477900Y-136715500D01*
X82092800Y-137058400D02*
X82092800Y-137058400D01*
X81749900Y-136715500D02*
X82092800Y-137058400D01*
X64477900Y-136715500D02*
X81749900Y-136715500D01*
X84429600Y-125526800D02*
X84429600Y-104800400D01*
X84429600Y-104800400D02*
X84429600Y-104267000D01*
D31*
X60960000Y-99060000D02*
X60960000Y-105410000D01*
X50800000Y-105410000D02*
X60960000Y-105410000D01*
X77571600Y-105435400D02*
X84353400Y-107340400D01*
X60960000Y-105410000D02*
X77571600Y-105435400D01*
D30*
X84429600Y-125526800D02*
X84429600Y-125526800D01*
D31*
X107391200Y-125476000D02*
X106497120Y-125476000D01*
X106497120Y-125476000D02*
X106497120Y-125476000D01*
D30*
X84429600Y-134721600D02*
X82092800Y-137058400D01*
X84795360Y-132542280D02*
X84429600Y-134721600D01*
X84429600Y-125526800D02*
X84780120Y-125877320D01*
X84780120Y-125877320D02*
X84795360Y-132542280D01*
D31*
X89382600Y-164185600D02*
X96278700Y-164185600D01*
X31343600Y-82956400D02*
X33375600Y-84988400D01*
X33375600Y-84988400D02*
X54305200Y-84988400D01*
X54305200Y-84988400D02*
X54305200Y-82423000D01*
X54305200Y-82423000D02*
X54838600Y-81889600D01*
X54838600Y-81889600D02*
X54838600Y-81889600D01*
X83019900Y-76161900D02*
X83019900Y-72859900D01*
X83019900Y-72859900D02*
X85090000Y-70789800D01*
X85090000Y-70789800D02*
X85140800Y-70739000D01*
X85140800Y-70739000D02*
X85140800Y-68224400D01*
X85140800Y-68224400D02*
X85521800Y-68224400D01*
X85521800Y-68224400D02*
X86309200Y-67437000D01*
X34239200Y-79400400D02*
X54965600Y-79400400D01*
X54965600Y-79400400D02*
X54965600Y-79400400D01*
X34899600Y-90220800D02*
X37947600Y-86690200D01*
X56311800Y-88138000D02*
X71440000Y-87860000D01*
X31496000Y-90220800D02*
X34899600Y-90220800D01*
X71440000Y-87860000D02*
X92120000Y-78210000D01*
X37947600Y-86690200D02*
X56311800Y-88138000D01*
X91380000Y-69910000D02*
X91440000Y-69850000D01*
X92120000Y-78210000D02*
X91380000Y-69910000D01*
X87706200Y-130073400D02*
X87706200Y-130073400D01*
X109753400Y-107746800D02*
X109753400Y-107746800D01*
X109753400Y-107746800D02*
X109753400Y-107746800D01*
X109867700Y-120180100D02*
X109753400Y-107746800D01*
X109753400Y-127406400D02*
X109715300Y-127368300D01*
X109715300Y-127368300D02*
X109867700Y-120180100D01*
X87590799Y-129957999D02*
X87706200Y-130073400D01*
X87590799Y-128582399D02*
X87590799Y-129957999D01*
X85699600Y-125869700D02*
X86906100Y-125844300D01*
X85623400Y-112179100D02*
X85699600Y-125869700D01*
X86906100Y-125844300D02*
X87642209Y-126810669D01*
X87642209Y-126810669D02*
X87642209Y-128530989D01*
X87642209Y-128530989D02*
X87590799Y-128582399D01*
X85623400Y-108991400D02*
X86868000Y-107746800D01*
X85623400Y-112179100D02*
X85623400Y-108991400D01*
X85991700Y-100749100D02*
X85991700Y-101434900D01*
X85991700Y-101434900D02*
X87591900Y-103035100D01*
X87591900Y-103035100D02*
X87591900Y-103035100D01*
X78929399Y-74080201D02*
X80772000Y-72237600D01*
X78929399Y-80935999D02*
X78929399Y-74080201D01*
X79248000Y-82042000D02*
X78929399Y-80935999D01*
X87706200Y-130073400D02*
X87706200Y-130073400D01*
X88315800Y-128930400D02*
X88315800Y-106349800D01*
X88315800Y-106349800D02*
X88315800Y-106349800D01*
X88468200Y-100977700D02*
X88468200Y-101815900D01*
X88468200Y-101815900D02*
X89814400Y-103162100D01*
X89814400Y-103162100D02*
X89839800Y-103187500D01*
X78359000Y-82626200D02*
X78359000Y-82626200D01*
X77430799Y-73699201D02*
X81280000Y-69850000D01*
X77430799Y-78191389D02*
X77430799Y-73699201D01*
X78359000Y-79119590D02*
X77430799Y-78191389D01*
X78384400Y-82727800D02*
X78359000Y-79119590D01*
X110588746Y-105496046D02*
X110588746Y-110020414D01*
X110291616Y-105198916D02*
X110588746Y-105496046D01*
X110588746Y-110020414D02*
X110588746Y-110022954D01*
X64744600Y-68884800D02*
X65963800Y-67411600D01*
X64770000Y-76352400D02*
X64744600Y-68884800D01*
X42341800Y-93218000D02*
X39776400Y-95783400D01*
X81356200Y-93218000D02*
X42341800Y-93218000D01*
X60960000Y-69850000D02*
X60960000Y-84328000D01*
X109405399Y-128131401D02*
X108788200Y-127514202D01*
X114604800Y-127558800D02*
X114032199Y-128131401D01*
X114032199Y-128131401D02*
X109405399Y-128131401D01*
X108788200Y-125958600D02*
X108680250Y-125850650D01*
X108788200Y-126542800D02*
X108788200Y-125958600D01*
X108788200Y-126542800D02*
X108788200Y-125882400D01*
X108788200Y-127514202D02*
X108788200Y-126542800D01*
X108680250Y-127538340D02*
X108680250Y-125850650D01*
X118860401Y-128925299D02*
X118483401Y-128548299D01*
X118483401Y-128548299D02*
X109690209Y-128548299D01*
X108857799Y-130685779D02*
X108857799Y-144010401D01*
X109690209Y-128548299D02*
X108680250Y-127538340D01*
X108857799Y-144010401D02*
X108922799Y-144075401D01*
X102397560Y-126121160D02*
X108857799Y-130685779D01*
X111142801Y-144075401D02*
X118860401Y-136357801D01*
X108922799Y-144075401D02*
X111142801Y-144075401D01*
X118860401Y-136357801D02*
X118860401Y-128925299D01*
X92509473Y-122849773D02*
X92654120Y-127482600D01*
D30*
X88595200Y-132740400D02*
X88595200Y-132740400D01*
X90017600Y-154736800D02*
X83527900Y-154736800D01*
X75133200Y-154736800D02*
X73660000Y-156210000D01*
X73420000Y-156210000D02*
X68580000Y-156210000D01*
X68420000Y-156210000D02*
X63500000Y-156210000D01*
X63420000Y-156210000D02*
X58420000Y-156210000D01*
D31*
X89382600Y-161645600D02*
X96151700Y-161645600D01*
X89382600Y-155371800D02*
X90017600Y-154736800D01*
X89382600Y-161645600D02*
X89382600Y-155371800D01*
D30*
X88595200Y-139496800D02*
X88595200Y-132740400D01*
X90017600Y-152171400D02*
X90551000Y-151638000D01*
X90017600Y-154736800D02*
X90017600Y-152171400D01*
X90551000Y-151638000D02*
X87122000Y-151638000D01*
X87122000Y-151638000D02*
X87122000Y-140970000D01*
X87122000Y-140970000D02*
X88595200Y-139496800D01*
D31*
X79832200Y-154559000D02*
X79654400Y-154736800D01*
X79832200Y-152222200D02*
X79832200Y-154559000D01*
D30*
X83527900Y-154736800D02*
X79654400Y-154736800D01*
X79654400Y-154736800D02*
X75133200Y-154736800D01*
X88595200Y-132740400D02*
X88595200Y-132740400D01*
X86817200Y-127152400D02*
X86817200Y-127152400D01*
X85996599Y-127973001D02*
X85996599Y-138777799D01*
X86817200Y-127152400D02*
X85996599Y-127973001D01*
X85996599Y-138777799D02*
X86715600Y-139496800D01*
D31*
X85090000Y-141351000D02*
X86817200Y-139623800D01*
X84099400Y-141351000D02*
X85090000Y-141351000D01*
X110413800Y-133558280D02*
X110032800Y-133177280D01*
X110413800Y-134508240D02*
X110413800Y-133558280D01*
D30*
X110032800Y-142900400D02*
X110032800Y-133177280D01*
X106566191Y-126739650D02*
X106566191Y-126739650D01*
X106566191Y-126739650D02*
X106566191Y-126739650D01*
X110032800Y-133177280D02*
X110032800Y-130694040D01*
X110032800Y-130694040D02*
X106566191Y-127227431D01*
X106566191Y-127227431D02*
X106566191Y-126739650D01*
X107594400Y-132740400D02*
X107645200Y-132689600D01*
X108013500Y-133718300D02*
X108013500Y-133159500D01*
X93319600Y-151638000D02*
X105664000Y-151638000D01*
X93268800Y-151688800D02*
X93319600Y-151638000D01*
X108013500Y-133159500D02*
X107594400Y-132740400D01*
X105613200Y-138684000D02*
X106730800Y-138595100D01*
X106730800Y-138595100D02*
X108000800Y-138328400D01*
D31*
X108066840Y-136453880D02*
X108006132Y-136393172D01*
X108066840Y-138252200D02*
X108066840Y-136453880D01*
D30*
X108000800Y-138328400D02*
X108006132Y-136393172D01*
X108006132Y-136393172D02*
X108013500Y-133718300D01*
D31*
X105699560Y-150685658D02*
X105660111Y-150646209D01*
X105699560Y-151765000D02*
X105699560Y-150685658D01*
D30*
X105664000Y-151638000D02*
X105660111Y-150646209D01*
X105660111Y-150646209D02*
X105613200Y-138684000D01*
D31*
X93628039Y-128408601D02*
X93628039Y-122472279D01*
X93228040Y-128808600D02*
X93628039Y-128408601D01*
X93628039Y-122472279D02*
X93390720Y-122234960D01*
X93390720Y-122234960D02*
X93390720Y-122234960D01*
X101666040Y-128783080D02*
X101666040Y-123235720D01*
X101666040Y-123235720D02*
X101666040Y-123235720D01*
X96774000Y-97282000D02*
X96774000Y-97282000D01*
X96774000Y-97282000D02*
X86766400Y-87274400D01*
X86766400Y-87274400D02*
X77139800Y-87274400D01*
X77139800Y-87274400D02*
X77139800Y-87274400D01*
X75946000Y-79146400D02*
X75946000Y-77419200D01*
X75946000Y-77419200D02*
X68554600Y-70027800D01*
X81254600Y-104038400D02*
X82410300Y-105194100D01*
X82410300Y-105194100D02*
X82410300Y-105664000D01*
X82410300Y-105664000D02*
X82410300Y-105664000D01*
X82016600Y-107797600D02*
X80149700Y-107797600D01*
X80149700Y-107797600D02*
X78060550Y-109886750D01*
X78060550Y-109886750D02*
X78028800Y-109918500D01*
X90760000Y-74250000D02*
X90930000Y-75070000D01*
X86360000Y-69850000D02*
X90760000Y-74250000D01*
X90930000Y-75070000D02*
X90930000Y-75070000D01*
D32*
G36*
X139040001Y-174600000D02*
G01*
X26060000Y-174600000D01*
X26060000Y-142903170D01*
X36166600Y-142903170D01*
X36166600Y-143304030D01*
X36244804Y-143697187D01*
X36398207Y-144067534D01*
X36620913Y-144400837D01*
X36904363Y-144684287D01*
X37237666Y-144906993D01*
X37608013Y-145060396D01*
X38001170Y-145138600D01*
X38402030Y-145138600D01*
X38795187Y-145060396D01*
X39165534Y-144906993D01*
X39498837Y-144684287D01*
X39782287Y-144400837D01*
X40004993Y-144067534D01*
X40158396Y-143697187D01*
X40236600Y-143304030D01*
X40236600Y-142903170D01*
X40158396Y-142510013D01*
X40004993Y-142139666D01*
X39782287Y-141806363D01*
X39498837Y-141522913D01*
X39165534Y-141300207D01*
X38795187Y-141146804D01*
X38402030Y-141068600D01*
X38001170Y-141068600D01*
X37608013Y-141146804D01*
X37237666Y-141300207D01*
X36904363Y-141522913D01*
X36620913Y-141806363D01*
X36398207Y-142139666D01*
X36244804Y-142510013D01*
X36166600Y-142903170D01*
X26060000Y-142903170D01*
X26060000Y-134460521D01*
X36066600Y-134460521D01*
X36066600Y-134881079D01*
X36148647Y-135293556D01*
X36309588Y-135682102D01*
X36543237Y-136031783D01*
X36840617Y-136329163D01*
X37190298Y-136562812D01*
X37578844Y-136723753D01*
X37991321Y-136805800D01*
X38411879Y-136805800D01*
X38824356Y-136723753D01*
X39212902Y-136562812D01*
X39562583Y-136329163D01*
X39859963Y-136031783D01*
X40093612Y-135682102D01*
X40100240Y-135666100D01*
X40131613Y-135713052D01*
X40359348Y-135940787D01*
X40627137Y-136119718D01*
X40924688Y-136242968D01*
X41240567Y-136305800D01*
X41562633Y-136305800D01*
X41878512Y-136242968D01*
X42176063Y-136119718D01*
X42443852Y-135940787D01*
X42671587Y-135713052D01*
X42850518Y-135445263D01*
X42973768Y-135147712D01*
X43036600Y-134831833D01*
X43036600Y-134509767D01*
X42973768Y-134193888D01*
X42850518Y-133896337D01*
X42671587Y-133628548D01*
X42443852Y-133400813D01*
X42176063Y-133221882D01*
X41878512Y-133098632D01*
X41562633Y-133035800D01*
X41240567Y-133035800D01*
X40924688Y-133098632D01*
X40627137Y-133221882D01*
X40359348Y-133400813D01*
X40131613Y-133628548D01*
X40100240Y-133675500D01*
X40093612Y-133659498D01*
X39859963Y-133309817D01*
X39562583Y-133012437D01*
X39212902Y-132778788D01*
X38824356Y-132617847D01*
X38411879Y-132535800D01*
X37991321Y-132535800D01*
X37578844Y-132617847D01*
X37190298Y-132778788D01*
X36840617Y-133012437D01*
X36543237Y-133309817D01*
X36309588Y-133659498D01*
X36148647Y-134048044D01*
X36066600Y-134460521D01*
X26060000Y-134460521D01*
X26060000Y-132330521D01*
X45616600Y-132330521D01*
X45616600Y-132751079D01*
X45698647Y-133163556D01*
X45859588Y-133552102D01*
X46093237Y-133901783D01*
X46390617Y-134199163D01*
X46740298Y-134432812D01*
X47128844Y-134593753D01*
X47541321Y-134675800D01*
X47961879Y-134675800D01*
X48374356Y-134593753D01*
X48762902Y-134432812D01*
X49112583Y-134199163D01*
X49409963Y-133901783D01*
X49643612Y-133552102D01*
X49804553Y-133163556D01*
X49886600Y-132751079D01*
X49886600Y-132330521D01*
X49804553Y-131918044D01*
X49643612Y-131529498D01*
X49409963Y-131179817D01*
X49112583Y-130882437D01*
X48762902Y-130648788D01*
X48715777Y-130629268D01*
X69589800Y-130629268D01*
X69589800Y-130990732D01*
X69660318Y-131345250D01*
X69798644Y-131679199D01*
X69999462Y-131979744D01*
X70255056Y-132235338D01*
X70555601Y-132436156D01*
X70889550Y-132574482D01*
X71244068Y-132645000D01*
X71605532Y-132645000D01*
X71960050Y-132574482D01*
X72293999Y-132436156D01*
X72594544Y-132235338D01*
X72850138Y-131979744D01*
X73050956Y-131679199D01*
X73189282Y-131345250D01*
X73259800Y-130990732D01*
X73259800Y-130629268D01*
X73189282Y-130274750D01*
X73050956Y-129940801D01*
X72850138Y-129640256D01*
X72594544Y-129384662D01*
X72293999Y-129183844D01*
X71960050Y-129045518D01*
X71605532Y-128975000D01*
X71244068Y-128975000D01*
X70889550Y-129045518D01*
X70555601Y-129183844D01*
X70255056Y-129384662D01*
X69999462Y-129640256D01*
X69798644Y-129940801D01*
X69660318Y-130274750D01*
X69589800Y-130629268D01*
X48715777Y-130629268D01*
X48374356Y-130487847D01*
X47961879Y-130405800D01*
X47541321Y-130405800D01*
X47128844Y-130487847D01*
X46740298Y-130648788D01*
X46390617Y-130882437D01*
X46093237Y-131179817D01*
X45859588Y-131529498D01*
X45698647Y-131918044D01*
X45616600Y-132330521D01*
X26060000Y-132330521D01*
X26060000Y-123030521D01*
X36066600Y-123030521D01*
X36066600Y-123451079D01*
X36148647Y-123863556D01*
X36309588Y-124252102D01*
X36543237Y-124601783D01*
X36840617Y-124899163D01*
X37190298Y-125132812D01*
X37578844Y-125293753D01*
X37991321Y-125375800D01*
X38411879Y-125375800D01*
X38824356Y-125293753D01*
X39212902Y-125132812D01*
X39562583Y-124899163D01*
X39859963Y-124601783D01*
X40093612Y-124252102D01*
X40100240Y-124236100D01*
X40131613Y-124283052D01*
X40359348Y-124510787D01*
X40627137Y-124689718D01*
X40924688Y-124812968D01*
X41240567Y-124875800D01*
X41562633Y-124875800D01*
X41878512Y-124812968D01*
X42176063Y-124689718D01*
X42443852Y-124510787D01*
X42671587Y-124283052D01*
X42850518Y-124015263D01*
X42973768Y-123717712D01*
X43036600Y-123401833D01*
X43036600Y-123079767D01*
X43026805Y-123030521D01*
X48766600Y-123030521D01*
X48766600Y-123451079D01*
X48848647Y-123863556D01*
X49009588Y-124252102D01*
X49243237Y-124601783D01*
X49540617Y-124899163D01*
X49890298Y-125132812D01*
X50278844Y-125293753D01*
X50691321Y-125375800D01*
X51111879Y-125375800D01*
X51524356Y-125293753D01*
X51912902Y-125132812D01*
X52262583Y-124899163D01*
X52559963Y-124601783D01*
X52793612Y-124252102D01*
X52954553Y-123863556D01*
X53036600Y-123451079D01*
X53036600Y-123030521D01*
X52954553Y-122618044D01*
X52793612Y-122229498D01*
X52559963Y-121879817D01*
X52262583Y-121582437D01*
X51912902Y-121348788D01*
X51524356Y-121187847D01*
X51111879Y-121105800D01*
X50691321Y-121105800D01*
X50278844Y-121187847D01*
X49890298Y-121348788D01*
X49540617Y-121582437D01*
X49243237Y-121879817D01*
X49009588Y-122229498D01*
X48848647Y-122618044D01*
X48766600Y-123030521D01*
X43026805Y-123030521D01*
X42973768Y-122763888D01*
X42850518Y-122466337D01*
X42671587Y-122198548D01*
X42443852Y-121970813D01*
X42176063Y-121791882D01*
X41878512Y-121668632D01*
X41562633Y-121605800D01*
X41240567Y-121605800D01*
X40924688Y-121668632D01*
X40627137Y-121791882D01*
X40359348Y-121970813D01*
X40131613Y-122198548D01*
X40100240Y-122245500D01*
X40093612Y-122229498D01*
X39859963Y-121879817D01*
X39562583Y-121582437D01*
X39212902Y-121348788D01*
X38824356Y-121187847D01*
X38411879Y-121105800D01*
X37991321Y-121105800D01*
X37578844Y-121187847D01*
X37190298Y-121348788D01*
X36840617Y-121582437D01*
X36543237Y-121879817D01*
X36309588Y-122229498D01*
X36148647Y-122618044D01*
X36066600Y-123030521D01*
X26060000Y-123030521D01*
X26060000Y-105258816D01*
X41645000Y-105258816D01*
X41645000Y-105561184D01*
X41703989Y-105857743D01*
X41819701Y-106137095D01*
X41987688Y-106388505D01*
X42201495Y-106602312D01*
X42452905Y-106770299D01*
X42732257Y-106886011D01*
X43028816Y-106945000D01*
X43331184Y-106945000D01*
X43627743Y-106886011D01*
X43907095Y-106770299D01*
X44158505Y-106602312D01*
X44372312Y-106388505D01*
X44540299Y-106137095D01*
X44656011Y-105857743D01*
X44715000Y-105561184D01*
X44715000Y-105258816D01*
X44656011Y-104962257D01*
X44540299Y-104682905D01*
X44372312Y-104431495D01*
X44158505Y-104217688D01*
X43907095Y-104049701D01*
X43627743Y-103933989D01*
X43331184Y-103875000D01*
X43028816Y-103875000D01*
X42732257Y-103933989D01*
X42452905Y-104049701D01*
X42201495Y-104217688D01*
X41987688Y-104431495D01*
X41819701Y-104682905D01*
X41703989Y-104962257D01*
X41645000Y-105258816D01*
X26060000Y-105258816D01*
X26060000Y-95111200D01*
X38389928Y-95111200D01*
X38389928Y-96811200D01*
X38402188Y-96935682D01*
X38438498Y-97055380D01*
X38497463Y-97165694D01*
X38576815Y-97262385D01*
X38673506Y-97341737D01*
X38783820Y-97400702D01*
X38856380Y-97422713D01*
X38724525Y-97554568D01*
X38562010Y-97797789D01*
X38450068Y-98068042D01*
X38393000Y-98354940D01*
X38393000Y-98647460D01*
X38450068Y-98934358D01*
X38562010Y-99204611D01*
X38724525Y-99447832D01*
X38931368Y-99654675D01*
X39105760Y-99771200D01*
X38931368Y-99887725D01*
X38724525Y-100094568D01*
X38562010Y-100337789D01*
X38450068Y-100608042D01*
X38393000Y-100894940D01*
X38393000Y-101187460D01*
X38450068Y-101474358D01*
X38562010Y-101744611D01*
X38724525Y-101987832D01*
X38931368Y-102194675D01*
X39174589Y-102357190D01*
X39444842Y-102469132D01*
X39731740Y-102526200D01*
X40024260Y-102526200D01*
X40083582Y-102514400D01*
X45769123Y-102514400D01*
X45772801Y-102551743D01*
X45772800Y-107150677D01*
X45769124Y-107188000D01*
X45772800Y-107225322D01*
X45772800Y-107225332D01*
X45783797Y-107336985D01*
X45803446Y-107401759D01*
X45827254Y-107480246D01*
X45897826Y-107612276D01*
X45937671Y-107660826D01*
X45992799Y-107728001D01*
X46021802Y-107751804D01*
X47061201Y-108791203D01*
X47084999Y-108820201D01*
X47113997Y-108843999D01*
X47200723Y-108915174D01*
X47332132Y-108985414D01*
X47332753Y-108985746D01*
X47476014Y-109029203D01*
X47587667Y-109040200D01*
X47587676Y-109040200D01*
X47624999Y-109043876D01*
X47662322Y-109040200D01*
X76278201Y-109040200D01*
X76278200Y-110706677D01*
X76274524Y-110744000D01*
X76278200Y-110781322D01*
X76278200Y-110781332D01*
X76289197Y-110892985D01*
X76326403Y-111015640D01*
X76332654Y-111036246D01*
X76403226Y-111168276D01*
X76443071Y-111216826D01*
X76498199Y-111284001D01*
X76527203Y-111307804D01*
X77959000Y-112739602D01*
X77959000Y-112801739D01*
X77998774Y-113001698D01*
X78076795Y-113190056D01*
X78190063Y-113359574D01*
X78334226Y-113503737D01*
X78503744Y-113617005D01*
X78634076Y-113670991D01*
X78199808Y-132274081D01*
X78139263Y-132334626D01*
X78025995Y-132504144D01*
X77947974Y-132692502D01*
X77908200Y-132892461D01*
X77908200Y-133096339D01*
X77947974Y-133296298D01*
X78025995Y-133484656D01*
X78139263Y-133654174D01*
X78283426Y-133798337D01*
X78452944Y-133911605D01*
X78641302Y-133989626D01*
X78841261Y-134029400D01*
X79045139Y-134029400D01*
X79245098Y-133989626D01*
X79433456Y-133911605D01*
X79602974Y-133798337D01*
X79747137Y-133654174D01*
X79860405Y-133484656D01*
X79938426Y-133296298D01*
X79978200Y-133096339D01*
X79978200Y-132892461D01*
X79938426Y-132692502D01*
X79860405Y-132504144D01*
X79747137Y-132334626D01*
X79719454Y-132306943D01*
X80172229Y-112911078D01*
X80176777Y-112864900D01*
X80170307Y-112799208D01*
X80165375Y-112733435D01*
X80162980Y-112724822D01*
X80162103Y-112715914D01*
X80142942Y-112652747D01*
X80125274Y-112589199D01*
X80121243Y-112581216D01*
X80118646Y-112572653D01*
X80087525Y-112514430D01*
X80057802Y-112455559D01*
X80052293Y-112448518D01*
X80048074Y-112440624D01*
X80006195Y-112389594D01*
X79965556Y-112337649D01*
X79963555Y-112335927D01*
X79911205Y-112209544D01*
X79797937Y-112040026D01*
X79653774Y-111895863D01*
X79484256Y-111782595D01*
X79295898Y-111704574D01*
X79095939Y-111664800D01*
X79033802Y-111664800D01*
X78269471Y-110900470D01*
X78362448Y-110881976D01*
X78550806Y-110803955D01*
X78720324Y-110690687D01*
X78864487Y-110546524D01*
X78977755Y-110377006D01*
X79055776Y-110188648D01*
X79095550Y-109988689D01*
X79095550Y-109926551D01*
X80464502Y-108557600D01*
X81312889Y-108557600D01*
X81356826Y-108601537D01*
X81526344Y-108714805D01*
X81714702Y-108792826D01*
X81914661Y-108832600D01*
X82118539Y-108832600D01*
X82318498Y-108792826D01*
X82506856Y-108714805D01*
X82676374Y-108601537D01*
X82820537Y-108457374D01*
X82933805Y-108287856D01*
X83011826Y-108099498D01*
X83051600Y-107899539D01*
X83051600Y-107764140D01*
X83294601Y-107832398D01*
X83294600Y-125471048D01*
X83289109Y-125526800D01*
X83311023Y-125749299D01*
X83375924Y-125963247D01*
X83481316Y-126160423D01*
X83623151Y-126333249D01*
X83646203Y-126352168D01*
X83649068Y-127604888D01*
X82299440Y-127604888D01*
X82174958Y-127617148D01*
X82055260Y-127653458D01*
X81944946Y-127712423D01*
X81848255Y-127791775D01*
X81768903Y-127888466D01*
X81709938Y-127998780D01*
X81673628Y-128118478D01*
X81661368Y-128242960D01*
X81661368Y-129942960D01*
X81673628Y-130067442D01*
X81709938Y-130187140D01*
X81768903Y-130297454D01*
X81848255Y-130394145D01*
X81944946Y-130473497D01*
X82055260Y-130532462D01*
X82174958Y-130568772D01*
X82299440Y-130581032D01*
X83655873Y-130581032D01*
X83660144Y-132448988D01*
X83370342Y-134175726D01*
X81951231Y-135594838D01*
X81805652Y-135580500D01*
X81805651Y-135580500D01*
X81749900Y-135575009D01*
X81694149Y-135580500D01*
X64533643Y-135580500D01*
X64477899Y-135575010D01*
X64422155Y-135580500D01*
X62171452Y-135580500D01*
X62115700Y-135575009D01*
X61893201Y-135596923D01*
X61679253Y-135661824D01*
X61482077Y-135767216D01*
X61352556Y-135873511D01*
X61352555Y-135873512D01*
X61309251Y-135909051D01*
X61273713Y-135952354D01*
X55257469Y-141968600D01*
X50399672Y-141968600D01*
X50399672Y-141703600D01*
X50387412Y-141579118D01*
X50351102Y-141459420D01*
X50292137Y-141349106D01*
X50212785Y-141252415D01*
X50116094Y-141173063D01*
X50005780Y-141114098D01*
X49886082Y-141077788D01*
X49761600Y-141065528D01*
X46961600Y-141065528D01*
X46837118Y-141077788D01*
X46717420Y-141114098D01*
X46607106Y-141173063D01*
X46510415Y-141252415D01*
X46431063Y-141349106D01*
X46372098Y-141459420D01*
X46335788Y-141579118D01*
X46323528Y-141703600D01*
X46323528Y-144503600D01*
X46335788Y-144628082D01*
X46372098Y-144747780D01*
X46431063Y-144858094D01*
X46510415Y-144954785D01*
X46607106Y-145034137D01*
X46717420Y-145093102D01*
X46837118Y-145129412D01*
X46961600Y-145141672D01*
X49761600Y-145141672D01*
X49886082Y-145129412D01*
X50005780Y-145093102D01*
X50116094Y-145034137D01*
X50212785Y-144954785D01*
X50292137Y-144858094D01*
X50351102Y-144747780D01*
X50387412Y-144628082D01*
X50399672Y-144503600D01*
X50399672Y-144238600D01*
X55671849Y-144238600D01*
X55727600Y-144244091D01*
X55783351Y-144238600D01*
X55783352Y-144238600D01*
X55950099Y-144222177D01*
X56164047Y-144157276D01*
X56361223Y-144051884D01*
X56534049Y-143910049D01*
X56569596Y-143866735D01*
X62585833Y-137850500D01*
X63165101Y-137850500D01*
X63165100Y-139817728D01*
X63100100Y-139817728D01*
X62975618Y-139829988D01*
X62855920Y-139866298D01*
X62745606Y-139925263D01*
X62648915Y-140004615D01*
X62569563Y-140101306D01*
X62510598Y-140211620D01*
X62474288Y-140331318D01*
X62462028Y-140455800D01*
X62462028Y-142855800D01*
X62474288Y-142980282D01*
X62510598Y-143099980D01*
X62569563Y-143210294D01*
X62648915Y-143306985D01*
X62745606Y-143386337D01*
X62855920Y-143445302D01*
X62975618Y-143481612D01*
X63100100Y-143493872D01*
X65500100Y-143493872D01*
X65624582Y-143481612D01*
X65744280Y-143445302D01*
X65854594Y-143386337D01*
X65951285Y-143306985D01*
X66030637Y-143210294D01*
X66089602Y-143099980D01*
X66125912Y-142980282D01*
X66138172Y-142855800D01*
X66138172Y-140455800D01*
X66125912Y-140331318D01*
X66089602Y-140211620D01*
X66030637Y-140101306D01*
X65951285Y-140004615D01*
X65854594Y-139925263D01*
X65744280Y-139866298D01*
X65624582Y-139829988D01*
X65500100Y-139817728D01*
X65435100Y-139817728D01*
X65435100Y-137850500D01*
X81274575Y-137850500D01*
X81286351Y-137864849D01*
X81459177Y-138006684D01*
X81656353Y-138112076D01*
X81707420Y-138127567D01*
X81870301Y-138176977D01*
X82092800Y-138198891D01*
X82315299Y-138176977D01*
X82478180Y-138127567D01*
X82529247Y-138112076D01*
X82726423Y-138006684D01*
X82899249Y-137864849D01*
X82934796Y-137821535D01*
X84861600Y-135894732D01*
X84861600Y-138722038D01*
X84856108Y-138777799D01*
X84878022Y-139000297D01*
X84942923Y-139214245D01*
X84972664Y-139269886D01*
X85048316Y-139411422D01*
X85190151Y-139584248D01*
X85233459Y-139619790D01*
X85489934Y-139876265D01*
X85354338Y-140011861D01*
X85303894Y-139970463D01*
X85193580Y-139911498D01*
X85073882Y-139875188D01*
X84949400Y-139862928D01*
X83249400Y-139862928D01*
X83124918Y-139875188D01*
X83005220Y-139911498D01*
X82894906Y-139970463D01*
X82798215Y-140049815D01*
X82718863Y-140146506D01*
X82659898Y-140256820D01*
X82623588Y-140376518D01*
X82611328Y-140501000D01*
X82611328Y-142201000D01*
X82623588Y-142325482D01*
X82659898Y-142445180D01*
X82718863Y-142555494D01*
X82798215Y-142652185D01*
X82894906Y-142731537D01*
X83005220Y-142790502D01*
X83124918Y-142826812D01*
X83249400Y-142839072D01*
X84949400Y-142839072D01*
X85073882Y-142826812D01*
X85193580Y-142790502D01*
X85303894Y-142731537D01*
X85400585Y-142652185D01*
X85479937Y-142555494D01*
X85538902Y-142445180D01*
X85575212Y-142325482D01*
X85587472Y-142201000D01*
X85587472Y-141925904D01*
X85630001Y-141891001D01*
X85653804Y-141861997D01*
X85987001Y-141528800D01*
X85987000Y-151582248D01*
X85981509Y-151638000D01*
X86003423Y-151860499D01*
X86068324Y-152074447D01*
X86129701Y-152189276D01*
X86173716Y-152271623D01*
X86315551Y-152444449D01*
X86488377Y-152586284D01*
X86685553Y-152691676D01*
X86899501Y-152756577D01*
X87122000Y-152778491D01*
X87177751Y-152773000D01*
X88882601Y-152773000D01*
X88882600Y-153601800D01*
X81037836Y-153601800D01*
X81133385Y-153523385D01*
X81212737Y-153426694D01*
X81271702Y-153316380D01*
X81308012Y-153196682D01*
X81320272Y-153072200D01*
X81320272Y-151372200D01*
X81308012Y-151247718D01*
X81271702Y-151128020D01*
X81212737Y-151017706D01*
X81133385Y-150921015D01*
X81036694Y-150841663D01*
X80926380Y-150782698D01*
X80806682Y-150746388D01*
X80682200Y-150734128D01*
X78982200Y-150734128D01*
X78857718Y-150746388D01*
X78738020Y-150782698D01*
X78627706Y-150841663D01*
X78531015Y-150921015D01*
X78451663Y-151017706D01*
X78392698Y-151128020D01*
X78356388Y-151247718D01*
X78344128Y-151372200D01*
X78344128Y-153072200D01*
X78356388Y-153196682D01*
X78392698Y-153316380D01*
X78451663Y-153426694D01*
X78531015Y-153523385D01*
X78626564Y-153601800D01*
X75188941Y-153601800D01*
X75133199Y-153596310D01*
X75077457Y-153601800D01*
X75077448Y-153601800D01*
X74910701Y-153618223D01*
X74696753Y-153683124D01*
X74499577Y-153788516D01*
X74368405Y-153896166D01*
X74327169Y-153862325D01*
X74044868Y-153711432D01*
X73738555Y-153618513D01*
X73420000Y-153587138D01*
X73101444Y-153618513D01*
X72795131Y-153711432D01*
X72512830Y-153862325D01*
X72265392Y-154065392D01*
X72062325Y-154312831D01*
X71911432Y-154595132D01*
X71818513Y-154901445D01*
X71801419Y-155075000D01*
X70038581Y-155075000D01*
X70021487Y-154901444D01*
X69928568Y-154595131D01*
X69777675Y-154312830D01*
X69574608Y-154065392D01*
X69327169Y-153862325D01*
X69044868Y-153711432D01*
X68738555Y-153618513D01*
X68420000Y-153587138D01*
X68101444Y-153618513D01*
X67795131Y-153711432D01*
X67512830Y-153862325D01*
X67265392Y-154065392D01*
X67062325Y-154312831D01*
X66911432Y-154595132D01*
X66818513Y-154901445D01*
X66801419Y-155075000D01*
X65038581Y-155075000D01*
X65021487Y-154901444D01*
X64928568Y-154595131D01*
X64777675Y-154312830D01*
X64574608Y-154065392D01*
X64327169Y-153862325D01*
X64044868Y-153711432D01*
X63738555Y-153618513D01*
X63420000Y-153587138D01*
X63101444Y-153618513D01*
X62795131Y-153711432D01*
X62512830Y-153862325D01*
X62265392Y-154065392D01*
X62062325Y-154312831D01*
X61911432Y-154595132D01*
X61818513Y-154901445D01*
X61801419Y-155075000D01*
X60048072Y-155075000D01*
X60048072Y-154230000D01*
X60035812Y-154105518D01*
X59999502Y-153985820D01*
X59940537Y-153875506D01*
X59861185Y-153778815D01*
X59764494Y-153699463D01*
X59654180Y-153640498D01*
X59534482Y-153604188D01*
X59410000Y-153591928D01*
X57430000Y-153591928D01*
X57305518Y-153604188D01*
X57185820Y-153640498D01*
X57075506Y-153699463D01*
X56978815Y-153778815D01*
X56899463Y-153875506D01*
X56840498Y-153985820D01*
X56804188Y-154105518D01*
X56791928Y-154230000D01*
X56791928Y-158190000D01*
X56804188Y-158314482D01*
X56840498Y-158434180D01*
X56899463Y-158544494D01*
X56978815Y-158641185D01*
X57075506Y-158720537D01*
X57185820Y-158779502D01*
X57305518Y-158815812D01*
X57430000Y-158828072D01*
X59410000Y-158828072D01*
X59534482Y-158815812D01*
X59654180Y-158779502D01*
X59764494Y-158720537D01*
X59861185Y-158641185D01*
X59940537Y-158544494D01*
X59999502Y-158434180D01*
X60035812Y-158314482D01*
X60048072Y-158190000D01*
X60048072Y-157345000D01*
X61801420Y-157345000D01*
X61818514Y-157518556D01*
X61911433Y-157824869D01*
X62062326Y-158107170D01*
X62265393Y-158354608D01*
X62512831Y-158557675D01*
X62795132Y-158708568D01*
X63101445Y-158801487D01*
X63420000Y-158832862D01*
X63738556Y-158801487D01*
X64044869Y-158708568D01*
X64327170Y-158557675D01*
X64574608Y-158354608D01*
X64777675Y-158107170D01*
X64928568Y-157824869D01*
X65021487Y-157518556D01*
X65038581Y-157345000D01*
X66801420Y-157345000D01*
X66818514Y-157518556D01*
X66911433Y-157824869D01*
X67062326Y-158107170D01*
X67265393Y-158354608D01*
X67512831Y-158557675D01*
X67795132Y-158708568D01*
X68101445Y-158801487D01*
X68420000Y-158832862D01*
X68738556Y-158801487D01*
X69044869Y-158708568D01*
X69327170Y-158557675D01*
X69574608Y-158354608D01*
X69777675Y-158107170D01*
X69928568Y-157824869D01*
X70021487Y-157518556D01*
X70038581Y-157345000D01*
X71801420Y-157345000D01*
X71818514Y-157518556D01*
X71911433Y-157824869D01*
X72062326Y-158107170D01*
X72265393Y-158354608D01*
X72512831Y-158557675D01*
X72795132Y-158708568D01*
X73101445Y-158801487D01*
X73420000Y-158832862D01*
X73738556Y-158801487D01*
X74044869Y-158708568D01*
X74327170Y-158557675D01*
X74574608Y-158354608D01*
X74777675Y-158107170D01*
X74928568Y-157824869D01*
X75021487Y-157518556D01*
X75045000Y-157279824D01*
X75045000Y-156430131D01*
X75603332Y-155871800D01*
X88622601Y-155871800D01*
X88622600Y-160307287D01*
X88404095Y-160453288D01*
X88190288Y-160667095D01*
X88022301Y-160918505D01*
X87906589Y-161197857D01*
X87847600Y-161494416D01*
X87847600Y-161796784D01*
X87906589Y-162093343D01*
X88022301Y-162372695D01*
X88190288Y-162624105D01*
X88256727Y-162690544D01*
X88238420Y-162696098D01*
X88128106Y-162755063D01*
X88031415Y-162834415D01*
X87952063Y-162931106D01*
X87893098Y-163041420D01*
X87856788Y-163161118D01*
X87844528Y-163285600D01*
X87844528Y-165085600D01*
X87856788Y-165210082D01*
X87893098Y-165329780D01*
X87952063Y-165440094D01*
X88031415Y-165536785D01*
X88128106Y-165616137D01*
X88238420Y-165675102D01*
X88358118Y-165711412D01*
X88482600Y-165723672D01*
X90282600Y-165723672D01*
X90407082Y-165711412D01*
X90526780Y-165675102D01*
X90637094Y-165616137D01*
X90733785Y-165536785D01*
X90813137Y-165440094D01*
X90872102Y-165329780D01*
X90908412Y-165210082D01*
X90920672Y-165085600D01*
X90920672Y-164945600D01*
X94542689Y-164945600D01*
X94550101Y-164963495D01*
X94718088Y-165214905D01*
X94931895Y-165428712D01*
X95183305Y-165596699D01*
X95462657Y-165712411D01*
X95759216Y-165771400D01*
X96061584Y-165771400D01*
X96358143Y-165712411D01*
X96637495Y-165596699D01*
X96888905Y-165428712D01*
X97102712Y-165214905D01*
X97270699Y-164963495D01*
X97386411Y-164684143D01*
X97445400Y-164387584D01*
X97445400Y-164085216D01*
X97386411Y-163788657D01*
X97270699Y-163509305D01*
X97102712Y-163257895D01*
X97036273Y-163191456D01*
X97054580Y-163185902D01*
X97164894Y-163126937D01*
X97261585Y-163047585D01*
X97340937Y-162950894D01*
X97399902Y-162840580D01*
X97436212Y-162720882D01*
X97448472Y-162596400D01*
X97448472Y-160796400D01*
X97436212Y-160671918D01*
X97399902Y-160552220D01*
X97340937Y-160441906D01*
X97261585Y-160345215D01*
X97164894Y-160265863D01*
X97054580Y-160206898D01*
X96934882Y-160170588D01*
X96810400Y-160158328D01*
X95010400Y-160158328D01*
X94885918Y-160170588D01*
X94766220Y-160206898D01*
X94655906Y-160265863D01*
X94559215Y-160345215D01*
X94479863Y-160441906D01*
X94420898Y-160552220D01*
X94384588Y-160671918D01*
X94372328Y-160796400D01*
X94372328Y-160885600D01*
X90720913Y-160885600D01*
X90574912Y-160667095D01*
X90361105Y-160453288D01*
X90142600Y-160307287D01*
X90142600Y-155864980D01*
X90240099Y-155855377D01*
X90454047Y-155790476D01*
X90651223Y-155685084D01*
X90824049Y-155543249D01*
X90965884Y-155370423D01*
X91071276Y-155173247D01*
X91136177Y-154959299D01*
X91158091Y-154736800D01*
X91152600Y-154681048D01*
X91152600Y-154230000D01*
X116481928Y-154230000D01*
X116481928Y-158190000D01*
X116494188Y-158314482D01*
X116530498Y-158434180D01*
X116589463Y-158544494D01*
X116668815Y-158641185D01*
X116765506Y-158720537D01*
X116875820Y-158779502D01*
X116995518Y-158815812D01*
X117120000Y-158828072D01*
X119100000Y-158828072D01*
X119224482Y-158815812D01*
X119344180Y-158779502D01*
X119454494Y-158720537D01*
X119551185Y-158641185D01*
X119630537Y-158544494D01*
X119689502Y-158434180D01*
X119725812Y-158314482D01*
X119738072Y-158190000D01*
X119738072Y-155140177D01*
X121485000Y-155140177D01*
X121485001Y-157279824D01*
X121508514Y-157518556D01*
X121601433Y-157824869D01*
X121752326Y-158107170D01*
X121955393Y-158354608D01*
X122202831Y-158557675D01*
X122485132Y-158708568D01*
X122791445Y-158801487D01*
X123110000Y-158832862D01*
X123428556Y-158801487D01*
X123734869Y-158708568D01*
X124017170Y-158557675D01*
X124264608Y-158354608D01*
X124467675Y-158107170D01*
X124618568Y-157824869D01*
X124711487Y-157518556D01*
X124735000Y-157279824D01*
X124735000Y-155140177D01*
X126485000Y-155140177D01*
X126485001Y-157279824D01*
X126508514Y-157518556D01*
X126601433Y-157824869D01*
X126752326Y-158107170D01*
X126955393Y-158354608D01*
X127202831Y-158557675D01*
X127485132Y-158708568D01*
X127791445Y-158801487D01*
X128110000Y-158832862D01*
X128428556Y-158801487D01*
X128734869Y-158708568D01*
X129017170Y-158557675D01*
X129264608Y-158354608D01*
X129467675Y-158107170D01*
X129618568Y-157824869D01*
X129711487Y-157518556D01*
X129735000Y-157279824D01*
X129735000Y-155140177D01*
X131485000Y-155140177D01*
X131485001Y-157279824D01*
X131508514Y-157518556D01*
X131601433Y-157824869D01*
X131752326Y-158107170D01*
X131955393Y-158354608D01*
X132202831Y-158557675D01*
X132485132Y-158708568D01*
X132791445Y-158801487D01*
X133110000Y-158832862D01*
X133428556Y-158801487D01*
X133734869Y-158708568D01*
X134017170Y-158557675D01*
X134264608Y-158354608D01*
X134467675Y-158107170D01*
X134618568Y-157824869D01*
X134711487Y-157518556D01*
X134735000Y-157279824D01*
X134735000Y-155140176D01*
X134711487Y-154901444D01*
X134618568Y-154595131D01*
X134467675Y-154312830D01*
X134264608Y-154065392D01*
X134017169Y-153862325D01*
X133734868Y-153711432D01*
X133428555Y-153618513D01*
X133110000Y-153587138D01*
X132791444Y-153618513D01*
X132485131Y-153711432D01*
X132202830Y-153862325D01*
X131955392Y-154065392D01*
X131752325Y-154312831D01*
X131601432Y-154595132D01*
X131508513Y-154901445D01*
X131485000Y-155140177D01*
X129735000Y-155140177D01*
X129735000Y-155140176D01*
X129711487Y-154901444D01*
X129618568Y-154595131D01*
X129467675Y-154312830D01*
X129264608Y-154065392D01*
X129017169Y-153862325D01*
X128734868Y-153711432D01*
X128428555Y-153618513D01*
X128110000Y-153587138D01*
X127791444Y-153618513D01*
X127485131Y-153711432D01*
X127202830Y-153862325D01*
X126955392Y-154065392D01*
X126752325Y-154312831D01*
X126601432Y-154595132D01*
X126508513Y-154901445D01*
X126485000Y-155140177D01*
X124735000Y-155140177D01*
X124735000Y-155140176D01*
X124711487Y-154901444D01*
X124618568Y-154595131D01*
X124467675Y-154312830D01*
X124264608Y-154065392D01*
X124017169Y-153862325D01*
X123734868Y-153711432D01*
X123428555Y-153618513D01*
X123110000Y-153587138D01*
X122791444Y-153618513D01*
X122485131Y-153711432D01*
X122202830Y-153862325D01*
X121955392Y-154065392D01*
X121752325Y-154312831D01*
X121601432Y-154595132D01*
X121508513Y-154901445D01*
X121485000Y-155140177D01*
X119738072Y-155140177D01*
X119738072Y-154230000D01*
X119725812Y-154105518D01*
X119689502Y-153985820D01*
X119630537Y-153875506D01*
X119551185Y-153778815D01*
X119454494Y-153699463D01*
X119344180Y-153640498D01*
X119224482Y-153604188D01*
X119100000Y-153591928D01*
X117120000Y-153591928D01*
X116995518Y-153604188D01*
X116875820Y-153640498D01*
X116765506Y-153699463D01*
X116668815Y-153778815D01*
X116589463Y-153875506D01*
X116530498Y-153985820D01*
X116494188Y-154105518D01*
X116481928Y-154230000D01*
X91152600Y-154230000D01*
X91152600Y-153067793D01*
X91161958Y-153065932D01*
X91432211Y-152953990D01*
X91675432Y-152791475D01*
X91807287Y-152659620D01*
X91829298Y-152732180D01*
X91888263Y-152842494D01*
X91967615Y-152939185D01*
X92064306Y-153018537D01*
X92174620Y-153077502D01*
X92294318Y-153113812D01*
X92418800Y-153126072D01*
X94118800Y-153126072D01*
X94243282Y-153113812D01*
X94362980Y-153077502D01*
X94473294Y-153018537D01*
X94569985Y-152939185D01*
X94649337Y-152842494D01*
X94686483Y-152773000D01*
X104233916Y-152773000D01*
X104260058Y-152859180D01*
X104319023Y-152969494D01*
X104398375Y-153066185D01*
X104495066Y-153145537D01*
X104605380Y-153204502D01*
X104725078Y-153240812D01*
X104849560Y-153253072D01*
X106549560Y-153253072D01*
X106674042Y-153240812D01*
X106793740Y-153204502D01*
X106904054Y-153145537D01*
X107000745Y-153066185D01*
X107080097Y-152969494D01*
X107139062Y-152859180D01*
X107175372Y-152739482D01*
X107187632Y-152615000D01*
X107187632Y-150915000D01*
X107175372Y-150790518D01*
X107139062Y-150670820D01*
X107080097Y-150560506D01*
X107000745Y-150463815D01*
X106904054Y-150384463D01*
X106793861Y-150325563D01*
X106769853Y-144203336D01*
X106789389Y-144216390D01*
X107059642Y-144328332D01*
X107346540Y-144385400D01*
X107639060Y-144385400D01*
X107925958Y-144328332D01*
X108133915Y-144242194D01*
X108152253Y-144302647D01*
X108222825Y-144434677D01*
X108294000Y-144521403D01*
X108317799Y-144550402D01*
X108346797Y-144574200D01*
X108358995Y-144586398D01*
X108382798Y-144615402D01*
X108498523Y-144710375D01*
X108630552Y-144780947D01*
X108773813Y-144824404D01*
X108885466Y-144835401D01*
X108885477Y-144835401D01*
X108922799Y-144839077D01*
X108960122Y-144835401D01*
X111105479Y-144835401D01*
X111142801Y-144839077D01*
X111180123Y-144835401D01*
X111180134Y-144835401D01*
X111291787Y-144824404D01*
X111435048Y-144780947D01*
X111567077Y-144710375D01*
X111682802Y-144615402D01*
X111706605Y-144586398D01*
X119371405Y-136921599D01*
X119400402Y-136897802D01*
X119495375Y-136782077D01*
X119565947Y-136650048D01*
X119609404Y-136506787D01*
X119620401Y-136395134D01*
X119620401Y-136395133D01*
X119624078Y-136357801D01*
X119620401Y-136320468D01*
X119620401Y-130553068D01*
X128733700Y-130553068D01*
X128733700Y-130914532D01*
X128804218Y-131269050D01*
X128942544Y-131602999D01*
X129143362Y-131903544D01*
X129398956Y-132159138D01*
X129699501Y-132359956D01*
X130033450Y-132498282D01*
X130387968Y-132568800D01*
X130749432Y-132568800D01*
X131103950Y-132498282D01*
X131437899Y-132359956D01*
X131738444Y-132159138D01*
X131994038Y-131903544D01*
X132194856Y-131602999D01*
X132333182Y-131269050D01*
X132403700Y-130914532D01*
X132403700Y-130553068D01*
X132333182Y-130198550D01*
X132194856Y-129864601D01*
X131994038Y-129564056D01*
X131738444Y-129308462D01*
X131437899Y-129107644D01*
X131103950Y-128969318D01*
X130749432Y-128898800D01*
X130387968Y-128898800D01*
X130033450Y-128969318D01*
X129699501Y-129107644D01*
X129398956Y-129308462D01*
X129143362Y-129564056D01*
X128942544Y-129864601D01*
X128804218Y-130198550D01*
X128733700Y-130553068D01*
X119620401Y-130553068D01*
X119620401Y-128962632D01*
X119624078Y-128925299D01*
X119609404Y-128776313D01*
X119565947Y-128633052D01*
X119538872Y-128582399D01*
X119495375Y-128501023D01*
X119400402Y-128385298D01*
X119371398Y-128361495D01*
X119047205Y-128037302D01*
X119023402Y-128008298D01*
X118907677Y-127913325D01*
X118775648Y-127842753D01*
X118632387Y-127799296D01*
X118520734Y-127788299D01*
X118520723Y-127788299D01*
X118483401Y-127784623D01*
X118446079Y-127788299D01*
X116092872Y-127788299D01*
X116092872Y-126708800D01*
X116080612Y-126584318D01*
X116044302Y-126464620D01*
X115985337Y-126354306D01*
X115905985Y-126257615D01*
X115809294Y-126178263D01*
X115698980Y-126119298D01*
X115579282Y-126082988D01*
X115454800Y-126070728D01*
X113754800Y-126070728D01*
X113630318Y-126082988D01*
X113510620Y-126119298D01*
X113400306Y-126178263D01*
X113303615Y-126257615D01*
X113224263Y-126354306D01*
X113165298Y-126464620D01*
X113128988Y-126584318D01*
X113116728Y-126708800D01*
X113116728Y-127371401D01*
X110788400Y-127371401D01*
X110788400Y-127304461D01*
X110748626Y-127104502D01*
X110670605Y-126916144D01*
X110557337Y-126746626D01*
X110490076Y-126679365D01*
X110590155Y-121959000D01*
X110759608Y-121959000D01*
X110759608Y-123659000D01*
X110771868Y-123783482D01*
X110808178Y-123903180D01*
X110867143Y-124013494D01*
X110946495Y-124110185D01*
X111043186Y-124189537D01*
X111153500Y-124248502D01*
X111273198Y-124284812D01*
X111397680Y-124297072D01*
X113097680Y-124297072D01*
X113222162Y-124284812D01*
X113341860Y-124248502D01*
X113452174Y-124189537D01*
X113548865Y-124110185D01*
X113628217Y-124013494D01*
X113687182Y-123903180D01*
X113723492Y-123783482D01*
X113735752Y-123659000D01*
X113735752Y-121959000D01*
X113723492Y-121834518D01*
X113687182Y-121714820D01*
X113628217Y-121604506D01*
X113548865Y-121507815D01*
X113452174Y-121428463D01*
X113341860Y-121369498D01*
X113222162Y-121333188D01*
X113097680Y-121320928D01*
X111397680Y-121320928D01*
X111273198Y-121333188D01*
X111153500Y-121369498D01*
X111043186Y-121428463D01*
X110946495Y-121507815D01*
X110867143Y-121604506D01*
X110808178Y-121714820D01*
X110771868Y-121834518D01*
X110759608Y-121959000D01*
X110590155Y-121959000D01*
X110626983Y-120221971D01*
X110628011Y-120210444D01*
X110627774Y-120184646D01*
X110628320Y-120158886D01*
X110627431Y-120147361D01*
X110543848Y-111055414D01*
X110690685Y-111055414D01*
X110890644Y-111015640D01*
X111079002Y-110937619D01*
X111248520Y-110824351D01*
X111392683Y-110680188D01*
X111505951Y-110510670D01*
X111583972Y-110322312D01*
X111623746Y-110122353D01*
X111623746Y-109918475D01*
X111583972Y-109718516D01*
X111505951Y-109530158D01*
X111392683Y-109360640D01*
X111348746Y-109316703D01*
X111348746Y-105533368D01*
X111352422Y-105496045D01*
X111348746Y-105458722D01*
X111348746Y-105458713D01*
X111337749Y-105347060D01*
X111325474Y-105306595D01*
X111326616Y-105300855D01*
X111326616Y-105096977D01*
X111286842Y-104897018D01*
X111208821Y-104708660D01*
X111095553Y-104539142D01*
X110951390Y-104394979D01*
X110781872Y-104281711D01*
X110593514Y-104203690D01*
X110393555Y-104163916D01*
X110189677Y-104163916D01*
X109989718Y-104203690D01*
X109801360Y-104281711D01*
X109631842Y-104394979D01*
X109487679Y-104539142D01*
X109374411Y-104708660D01*
X109296390Y-104897018D01*
X109256616Y-105096977D01*
X109256616Y-105300855D01*
X109282710Y-105432041D01*
X109263542Y-105435854D01*
X109075184Y-105513875D01*
X108905666Y-105627143D01*
X108761503Y-105771306D01*
X108648235Y-105940824D01*
X108602400Y-106051479D01*
X108602400Y-104373552D01*
X108607891Y-104317800D01*
X108585977Y-104095301D01*
X108521076Y-103881353D01*
X108415684Y-103684177D01*
X108273849Y-103511351D01*
X108101023Y-103369516D01*
X107903847Y-103264124D01*
X107689899Y-103199223D01*
X107523152Y-103182800D01*
X107523151Y-103182800D01*
X107467400Y-103177309D01*
X107411648Y-103182800D01*
X90849400Y-103182800D01*
X90849400Y-103060161D01*
X90809626Y-102860202D01*
X90731605Y-102671844D01*
X90618337Y-102502326D01*
X90474174Y-102358163D01*
X90304656Y-102244895D01*
X90116298Y-102166874D01*
X89916339Y-102127100D01*
X89854202Y-102127100D01*
X89309163Y-101582061D01*
X89385405Y-101467956D01*
X89463426Y-101279598D01*
X89503200Y-101079639D01*
X89503200Y-100875761D01*
X89463426Y-100675802D01*
X89385405Y-100487444D01*
X89272137Y-100317926D01*
X89127974Y-100173763D01*
X88958456Y-100060495D01*
X88770098Y-99982474D01*
X88570139Y-99942700D01*
X88366261Y-99942700D01*
X88166302Y-99982474D01*
X87977944Y-100060495D01*
X87808426Y-100173763D01*
X87664263Y-100317926D01*
X87550995Y-100487444D01*
X87472974Y-100675802D01*
X87433200Y-100875761D01*
X87433200Y-101079639D01*
X87472974Y-101279598D01*
X87550995Y-101467956D01*
X87664263Y-101637474D01*
X87708200Y-101681411D01*
X87708200Y-101778578D01*
X87704524Y-101815900D01*
X87708200Y-101853222D01*
X87708200Y-101853233D01*
X87719198Y-101964886D01*
X87729880Y-102000100D01*
X87732194Y-102007729D01*
X87693839Y-102000100D01*
X87631702Y-102000100D01*
X86893705Y-101262104D01*
X86908905Y-101239356D01*
X86986926Y-101050998D01*
X87026700Y-100851039D01*
X87026700Y-100647161D01*
X86986926Y-100447202D01*
X86908905Y-100258844D01*
X86795637Y-100089326D01*
X86651474Y-99945163D01*
X86481956Y-99831895D01*
X86293598Y-99753874D01*
X86093639Y-99714100D01*
X85889761Y-99714100D01*
X85689802Y-99753874D01*
X85501444Y-99831895D01*
X85331926Y-99945163D01*
X85187763Y-100089326D01*
X85074495Y-100258844D01*
X84996474Y-100447202D01*
X84956700Y-100647161D01*
X84956700Y-100851039D01*
X84996474Y-101050998D01*
X85074495Y-101239356D01*
X85187763Y-101408874D01*
X85229579Y-101450690D01*
X85231700Y-101472222D01*
X85231700Y-101472233D01*
X85242697Y-101583886D01*
X85258953Y-101637474D01*
X85286154Y-101727146D01*
X85356726Y-101859176D01*
X85427901Y-101945902D01*
X85451700Y-101974901D01*
X85480698Y-101998699D01*
X86556900Y-103074902D01*
X86556900Y-103137039D01*
X86566002Y-103182800D01*
X84765424Y-103182800D01*
X84652099Y-103148423D01*
X84429600Y-103126509D01*
X84207102Y-103148423D01*
X83993154Y-103213324D01*
X83795978Y-103318716D01*
X83623152Y-103460551D01*
X83481317Y-103633377D01*
X83375924Y-103830553D01*
X83311023Y-104044501D01*
X83295344Y-104203690D01*
X83289109Y-104267000D01*
X83294600Y-104322751D01*
X83294600Y-104856151D01*
X83294601Y-104856161D01*
X83294601Y-105124500D01*
X83214237Y-105004226D01*
X83117580Y-104907569D01*
X83115846Y-104901853D01*
X83045274Y-104769824D01*
X82974099Y-104683097D01*
X82950301Y-104654099D01*
X82921304Y-104630302D01*
X82289600Y-103998599D01*
X82289600Y-103936461D01*
X82249826Y-103736502D01*
X82171805Y-103548144D01*
X82058537Y-103378626D01*
X81914374Y-103234463D01*
X81744856Y-103121195D01*
X81556498Y-103043174D01*
X81356539Y-103003400D01*
X81152661Y-103003400D01*
X80952702Y-103043174D01*
X80764344Y-103121195D01*
X80594826Y-103234463D01*
X80450663Y-103378626D01*
X80337395Y-103548144D01*
X80259374Y-103736502D01*
X80219600Y-103936461D01*
X80219600Y-104140339D01*
X80259374Y-104340298D01*
X80337395Y-104528656D01*
X80450663Y-104698174D01*
X80594826Y-104842337D01*
X80764344Y-104955605D01*
X80952702Y-105033626D01*
X81152661Y-105073400D01*
X81214799Y-105073400D01*
X81440974Y-105299575D01*
X81415074Y-105362102D01*
X81375300Y-105562061D01*
X81375300Y-105714441D01*
X77785260Y-104706003D01*
X77721730Y-104686626D01*
X77675984Y-104682050D01*
X77630719Y-104674015D01*
X77564340Y-104675388D01*
X61720000Y-104651161D01*
X61720000Y-99763711D01*
X61763937Y-99719774D01*
X61877205Y-99550256D01*
X61955226Y-99361898D01*
X61995000Y-99161939D01*
X61995000Y-98958061D01*
X61955226Y-98758102D01*
X61877205Y-98569744D01*
X61763937Y-98400226D01*
X61619774Y-98256063D01*
X61450256Y-98142795D01*
X61261898Y-98064774D01*
X61061939Y-98025000D01*
X60858061Y-98025000D01*
X60658102Y-98064774D01*
X60469744Y-98142795D01*
X60300226Y-98256063D01*
X60156063Y-98400226D01*
X60042795Y-98569744D01*
X59964774Y-98758102D01*
X59925000Y-98958061D01*
X59925000Y-99161939D01*
X59964774Y-99361898D01*
X60042795Y-99550256D01*
X60156063Y-99719774D01*
X60200000Y-99763711D01*
X60200001Y-104650000D01*
X51503711Y-104650000D01*
X51459774Y-104606063D01*
X51290256Y-104492795D01*
X51101898Y-104414774D01*
X50901939Y-104375000D01*
X50698061Y-104375000D01*
X50498102Y-104414774D01*
X50309744Y-104492795D01*
X50140226Y-104606063D01*
X49996063Y-104750226D01*
X49882795Y-104919744D01*
X49804774Y-105108102D01*
X49765000Y-105308061D01*
X49765000Y-105511939D01*
X49804774Y-105711898D01*
X49882795Y-105900256D01*
X49996063Y-106069774D01*
X50140226Y-106213937D01*
X50309744Y-106327205D01*
X50498102Y-106405226D01*
X50698061Y-106445000D01*
X50901939Y-106445000D01*
X51101898Y-106405226D01*
X51290256Y-106327205D01*
X51459774Y-106213937D01*
X51503711Y-106170000D01*
X60922667Y-106170000D01*
X60960000Y-106173677D01*
X60996753Y-106170057D01*
X77466317Y-106195240D01*
X80465119Y-107037600D01*
X80187022Y-107037600D01*
X80149699Y-107033924D01*
X80112376Y-107037600D01*
X80112367Y-107037600D01*
X80000714Y-107048597D01*
X79857453Y-107092054D01*
X79725424Y-107162626D01*
X79609699Y-107257599D01*
X79585901Y-107286597D01*
X78020749Y-108851750D01*
X77958611Y-108851750D01*
X77798200Y-108883657D01*
X77798200Y-108317533D01*
X77801877Y-108280200D01*
X77787203Y-108131214D01*
X77743746Y-107987953D01*
X77673174Y-107855924D01*
X77578201Y-107740199D01*
X77462476Y-107645226D01*
X77330447Y-107574654D01*
X77187186Y-107531197D01*
X77075533Y-107520200D01*
X77038200Y-107516523D01*
X77000867Y-107520200D01*
X47939802Y-107520200D01*
X47292800Y-106873199D01*
X47292800Y-103274400D01*
X50330878Y-103274400D01*
X50368200Y-103278076D01*
X50405522Y-103274400D01*
X50405533Y-103274400D01*
X50517186Y-103263403D01*
X50660447Y-103219946D01*
X50792476Y-103149374D01*
X50908201Y-103054401D01*
X50932004Y-103025397D01*
X56322640Y-97634761D01*
X81207700Y-97634761D01*
X81207700Y-97838639D01*
X81247474Y-98038598D01*
X81325495Y-98226956D01*
X81438763Y-98396474D01*
X81582926Y-98540637D01*
X81752444Y-98653905D01*
X81940802Y-98731926D01*
X82140761Y-98771700D01*
X82344639Y-98771700D01*
X82544598Y-98731926D01*
X82732956Y-98653905D01*
X82902474Y-98540637D01*
X82946411Y-98496700D01*
X85893378Y-98496700D01*
X85930700Y-98500376D01*
X85968022Y-98496700D01*
X85968033Y-98496700D01*
X86079686Y-98485703D01*
X86222947Y-98442246D01*
X86354976Y-98371674D01*
X86470701Y-98276701D01*
X86494504Y-98247697D01*
X87390402Y-97351800D01*
X87452539Y-97351800D01*
X87652498Y-97312026D01*
X87840856Y-97234005D01*
X88010374Y-97120737D01*
X88154537Y-96976574D01*
X88267805Y-96807056D01*
X88307427Y-96711400D01*
X90637728Y-96711400D01*
X90637728Y-98411400D01*
X90649988Y-98535882D01*
X90686298Y-98655580D01*
X90745263Y-98765894D01*
X90824615Y-98862585D01*
X90921306Y-98941937D01*
X91031620Y-99000902D01*
X91151318Y-99037212D01*
X91275800Y-99049472D01*
X92975800Y-99049472D01*
X93100282Y-99037212D01*
X93219980Y-99000902D01*
X93330294Y-98941937D01*
X93426985Y-98862585D01*
X93506337Y-98765894D01*
X93565302Y-98655580D01*
X93601612Y-98535882D01*
X93613872Y-98411400D01*
X93613872Y-96711400D01*
X93601612Y-96586918D01*
X93565302Y-96467220D01*
X93506337Y-96356906D01*
X93426985Y-96260215D01*
X93330294Y-96180863D01*
X93219980Y-96121898D01*
X93100282Y-96085588D01*
X92975800Y-96073328D01*
X91275800Y-96073328D01*
X91151318Y-96085588D01*
X91031620Y-96121898D01*
X90921306Y-96180863D01*
X90824615Y-96260215D01*
X90745263Y-96356906D01*
X90686298Y-96467220D01*
X90649988Y-96586918D01*
X90637728Y-96711400D01*
X88307427Y-96711400D01*
X88345826Y-96618698D01*
X88385600Y-96418739D01*
X88385600Y-96214861D01*
X88345826Y-96014902D01*
X88267805Y-95826544D01*
X88154537Y-95657026D01*
X88010374Y-95512863D01*
X87840856Y-95399595D01*
X87652498Y-95321574D01*
X87452539Y-95281800D01*
X87248661Y-95281800D01*
X87048702Y-95321574D01*
X86860344Y-95399595D01*
X86690826Y-95512863D01*
X86546663Y-95657026D01*
X86433395Y-95826544D01*
X86355374Y-96014902D01*
X86315600Y-96214861D01*
X86315600Y-96276998D01*
X85615899Y-96976700D01*
X82946411Y-96976700D01*
X82902474Y-96932763D01*
X82732956Y-96819495D01*
X82544598Y-96741474D01*
X82344639Y-96701700D01*
X82140761Y-96701700D01*
X81940802Y-96741474D01*
X81752444Y-96819495D01*
X81582926Y-96932763D01*
X81438763Y-97076926D01*
X81325495Y-97246444D01*
X81247474Y-97434802D01*
X81207700Y-97634761D01*
X56322640Y-97634761D01*
X56640801Y-97316601D01*
X56791498Y-97286626D01*
X56979856Y-97208605D01*
X57149374Y-97095337D01*
X57293537Y-96951174D01*
X57406805Y-96781656D01*
X57484826Y-96593298D01*
X57524600Y-96393339D01*
X57524600Y-96189461D01*
X57484826Y-95989502D01*
X57406805Y-95801144D01*
X57293537Y-95631626D01*
X57149374Y-95487463D01*
X56979856Y-95374195D01*
X56791498Y-95296174D01*
X56591539Y-95256400D01*
X56387661Y-95256400D01*
X56187702Y-95296174D01*
X55999344Y-95374195D01*
X55829826Y-95487463D01*
X55685663Y-95631626D01*
X55572395Y-95801144D01*
X55494374Y-95989502D01*
X55454600Y-96189461D01*
X55454600Y-96353198D01*
X50053399Y-101754400D01*
X46570133Y-101754400D01*
X46532800Y-101750723D01*
X46495467Y-101754400D01*
X46383814Y-101765397D01*
X46240553Y-101808854D01*
X46108524Y-101879426D01*
X45992799Y-101974399D01*
X45897826Y-102090124D01*
X45827254Y-102222153D01*
X45783797Y-102365414D01*
X45769123Y-102514400D01*
X40083582Y-102514400D01*
X40311158Y-102469132D01*
X40581411Y-102357190D01*
X40824632Y-102194675D01*
X41031475Y-101987832D01*
X41193990Y-101744611D01*
X41305932Y-101474358D01*
X41363000Y-101187460D01*
X41363000Y-100894940D01*
X41305932Y-100608042D01*
X41193990Y-100337789D01*
X41031475Y-100094568D01*
X40824632Y-99887725D01*
X40650240Y-99771200D01*
X40824632Y-99654675D01*
X41031475Y-99447832D01*
X41193990Y-99204611D01*
X41305932Y-98934358D01*
X41363000Y-98647460D01*
X41363000Y-98354940D01*
X41305932Y-98068042D01*
X41193990Y-97797789D01*
X41031475Y-97554568D01*
X40899620Y-97422713D01*
X40972180Y-97400702D01*
X41082494Y-97341737D01*
X41179185Y-97262385D01*
X41258537Y-97165694D01*
X41317502Y-97055380D01*
X41353812Y-96935682D01*
X41366072Y-96811200D01*
X41366072Y-95268530D01*
X42656603Y-93978000D01*
X80652489Y-93978000D01*
X80696426Y-94021937D01*
X80865944Y-94135205D01*
X81054302Y-94213226D01*
X81254261Y-94253000D01*
X81458139Y-94253000D01*
X81658098Y-94213226D01*
X81846456Y-94135205D01*
X82015974Y-94021937D01*
X82160137Y-93877774D01*
X82273405Y-93708256D01*
X82351426Y-93519898D01*
X82391200Y-93319939D01*
X82391200Y-93116061D01*
X82353554Y-92926800D01*
X83322528Y-92926800D01*
X83322528Y-94626800D01*
X83334788Y-94751282D01*
X83371098Y-94870980D01*
X83430063Y-94981294D01*
X83509415Y-95077985D01*
X83606106Y-95157337D01*
X83716420Y-95216302D01*
X83836118Y-95252612D01*
X83960600Y-95264872D01*
X85660600Y-95264872D01*
X85785082Y-95252612D01*
X85904780Y-95216302D01*
X86015094Y-95157337D01*
X86111785Y-95077985D01*
X86191137Y-94981294D01*
X86250102Y-94870980D01*
X86286412Y-94751282D01*
X86298672Y-94626800D01*
X86298672Y-92926800D01*
X86286412Y-92802318D01*
X86250102Y-92682620D01*
X86191137Y-92572306D01*
X86111785Y-92475615D01*
X86015094Y-92396263D01*
X85904780Y-92337298D01*
X85785082Y-92300988D01*
X85660600Y-92288728D01*
X83960600Y-92288728D01*
X83836118Y-92300988D01*
X83716420Y-92337298D01*
X83606106Y-92396263D01*
X83509415Y-92475615D01*
X83430063Y-92572306D01*
X83371098Y-92682620D01*
X83334788Y-92802318D01*
X83322528Y-92926800D01*
X82353554Y-92926800D01*
X82351426Y-92916102D01*
X82273405Y-92727744D01*
X82160137Y-92558226D01*
X82015974Y-92414063D01*
X81846456Y-92300795D01*
X81658098Y-92222774D01*
X81458139Y-92183000D01*
X81254261Y-92183000D01*
X81054302Y-92222774D01*
X80865944Y-92300795D01*
X80696426Y-92414063D01*
X80652489Y-92458000D01*
X55681647Y-92458000D01*
X55707985Y-92436385D01*
X55787337Y-92339694D01*
X55846302Y-92229380D01*
X55882612Y-92109682D01*
X55894872Y-91985200D01*
X55894872Y-90285200D01*
X55882612Y-90160718D01*
X55846302Y-90041020D01*
X55787337Y-89930706D01*
X55707985Y-89834015D01*
X55611294Y-89754663D01*
X55500980Y-89695698D01*
X55381282Y-89659388D01*
X55256800Y-89647128D01*
X53556800Y-89647128D01*
X53432318Y-89659388D01*
X53312620Y-89695698D01*
X53202306Y-89754663D01*
X53105615Y-89834015D01*
X53026263Y-89930706D01*
X52967298Y-90041020D01*
X52930988Y-90160718D01*
X52918728Y-90285200D01*
X52918728Y-91985200D01*
X52930988Y-92109682D01*
X52967298Y-92229380D01*
X53026263Y-92339694D01*
X53105615Y-92436385D01*
X53131953Y-92458000D01*
X42379122Y-92458000D01*
X42341799Y-92454324D01*
X42304476Y-92458000D01*
X42304467Y-92458000D01*
X42192814Y-92468997D01*
X42049553Y-92512454D01*
X41917524Y-92583026D01*
X41917522Y-92583027D01*
X41917523Y-92583027D01*
X41830796Y-92654201D01*
X41830792Y-92654205D01*
X41801799Y-92677999D01*
X41778005Y-92706992D01*
X40011870Y-94473128D01*
X39028000Y-94473128D01*
X38903518Y-94485388D01*
X38783820Y-94521698D01*
X38673506Y-94580663D01*
X38576815Y-94660015D01*
X38497463Y-94756706D01*
X38438498Y-94867020D01*
X38402188Y-94986718D01*
X38389928Y-95111200D01*
X26060000Y-95111200D01*
X26060000Y-82854461D01*
X30308600Y-82854461D01*
X30308600Y-83058339D01*
X30348374Y-83258298D01*
X30426395Y-83446656D01*
X30539663Y-83616174D01*
X30683826Y-83760337D01*
X30853344Y-83873605D01*
X31041702Y-83951626D01*
X31241661Y-83991400D01*
X31303799Y-83991400D01*
X32811801Y-85499403D01*
X32835599Y-85528401D01*
X32864597Y-85552199D01*
X32951323Y-85623374D01*
X33008624Y-85654002D01*
X33083353Y-85693946D01*
X33226614Y-85737403D01*
X33338267Y-85748400D01*
X33338277Y-85748400D01*
X33375600Y-85752076D01*
X33412923Y-85748400D01*
X54267867Y-85748400D01*
X54305200Y-85752077D01*
X54342533Y-85748400D01*
X54454186Y-85737403D01*
X54597447Y-85693946D01*
X54729476Y-85623374D01*
X54845201Y-85528401D01*
X54940174Y-85412676D01*
X55010746Y-85280647D01*
X55054203Y-85137386D01*
X55068877Y-84988400D01*
X55065200Y-84951067D01*
X55065200Y-82899804D01*
X55140498Y-82884826D01*
X55328856Y-82806805D01*
X55498374Y-82693537D01*
X55569556Y-82622355D01*
X56263001Y-83315801D01*
X56263000Y-85814667D01*
X56259323Y-85852000D01*
X56267442Y-85934434D01*
X56227944Y-85950795D01*
X56058426Y-86064063D01*
X55914263Y-86208226D01*
X55800995Y-86377744D01*
X55722974Y-86566102D01*
X55683200Y-86766061D01*
X55683200Y-86969939D01*
X55722974Y-87169898D01*
X55791196Y-87334598D01*
X38061445Y-85936817D01*
X38041387Y-85932305D01*
X37986989Y-85930947D01*
X37970114Y-85929617D01*
X37949664Y-85930016D01*
X37891727Y-85928570D01*
X37874956Y-85931473D01*
X37857943Y-85931805D01*
X37801326Y-85944219D01*
X37744214Y-85954105D01*
X37728335Y-85960223D01*
X37711709Y-85963868D01*
X37658614Y-85987084D01*
X37604517Y-86007926D01*
X37590127Y-86017030D01*
X37574542Y-86023845D01*
X37527009Y-86056964D01*
X37478004Y-86087969D01*
X37465668Y-86099704D01*
X37451711Y-86109429D01*
X37411553Y-86151184D01*
X37396717Y-86165298D01*
X37385646Y-86178122D01*
X37347936Y-86217332D01*
X37336852Y-86234642D01*
X34551681Y-89460800D01*
X32199711Y-89460800D01*
X32155774Y-89416863D01*
X31986256Y-89303595D01*
X31797898Y-89225574D01*
X31597939Y-89185800D01*
X31394061Y-89185800D01*
X31194102Y-89225574D01*
X31005744Y-89303595D01*
X30836226Y-89416863D01*
X30692063Y-89561026D01*
X30578795Y-89730544D01*
X30500774Y-89918902D01*
X30461000Y-90118861D01*
X30461000Y-90322739D01*
X30500774Y-90522698D01*
X30578795Y-90711056D01*
X30692063Y-90880574D01*
X30836226Y-91024737D01*
X31005744Y-91138005D01*
X31194102Y-91216026D01*
X31394061Y-91255800D01*
X31597939Y-91255800D01*
X31797898Y-91216026D01*
X31986256Y-91138005D01*
X32155774Y-91024737D01*
X32199711Y-90980800D01*
X34890159Y-90980800D01*
X34955472Y-90982430D01*
X35001792Y-90974412D01*
X35048586Y-90969803D01*
X35075393Y-90961671D01*
X35102985Y-90956895D01*
X35146842Y-90939998D01*
X35191847Y-90926346D01*
X35216555Y-90913139D01*
X35242682Y-90903073D01*
X35282406Y-90877941D01*
X35323876Y-90855774D01*
X35345528Y-90838004D01*
X35369195Y-90823031D01*
X35403255Y-90790629D01*
X35439601Y-90760801D01*
X35481069Y-90710272D01*
X36636757Y-89371600D01*
X36892128Y-89371600D01*
X36892128Y-91171600D01*
X36904388Y-91296082D01*
X36940698Y-91415780D01*
X36999663Y-91526094D01*
X37079015Y-91622785D01*
X37175706Y-91702137D01*
X37286020Y-91761102D01*
X37405718Y-91797412D01*
X37530200Y-91809672D01*
X39330200Y-91809672D01*
X39454682Y-91797412D01*
X39574380Y-91761102D01*
X39684694Y-91702137D01*
X39781385Y-91622785D01*
X39860737Y-91526094D01*
X39919702Y-91415780D01*
X39925256Y-91397473D01*
X39991695Y-91463912D01*
X40243105Y-91631899D01*
X40522457Y-91747611D01*
X40819016Y-91806600D01*
X41121384Y-91806600D01*
X41417943Y-91747611D01*
X41697295Y-91631899D01*
X41948705Y-91463912D01*
X42162512Y-91250105D01*
X42330499Y-90998695D01*
X42446211Y-90719343D01*
X42505200Y-90422784D01*
X42505200Y-90120416D01*
X42446211Y-89823857D01*
X42330499Y-89544505D01*
X42162512Y-89293095D01*
X41948705Y-89079288D01*
X41697295Y-88911301D01*
X41417943Y-88795589D01*
X41121384Y-88736600D01*
X40819016Y-88736600D01*
X40522457Y-88795589D01*
X40243105Y-88911301D01*
X39991695Y-89079288D01*
X39925256Y-89145727D01*
X39919702Y-89127420D01*
X39860737Y-89017106D01*
X39781385Y-88920415D01*
X39684694Y-88841063D01*
X39574380Y-88782098D01*
X39454682Y-88745788D01*
X39330200Y-88733528D01*
X37530200Y-88733528D01*
X37405718Y-88745788D01*
X37286020Y-88782098D01*
X37175706Y-88841063D01*
X37079015Y-88920415D01*
X36999663Y-89017106D01*
X36940698Y-89127420D01*
X36904388Y-89247118D01*
X36892128Y-89371600D01*
X36636757Y-89371600D01*
X38271444Y-87478089D01*
X56252405Y-88895675D01*
X56288437Y-88898557D01*
X56288858Y-88898549D01*
X56289286Y-88898583D01*
X56326119Y-88897865D01*
X71426350Y-88620378D01*
X71473515Y-88622941D01*
X71538016Y-88613715D01*
X71602722Y-88606139D01*
X71612032Y-88603127D01*
X71621714Y-88601742D01*
X71683152Y-88580118D01*
X71745160Y-88560057D01*
X71786401Y-88537029D01*
X74710677Y-87172461D01*
X76104800Y-87172461D01*
X76104800Y-87376339D01*
X76144574Y-87576298D01*
X76222595Y-87764656D01*
X76335863Y-87934174D01*
X76480026Y-88078337D01*
X76649544Y-88191605D01*
X76837902Y-88269626D01*
X77037861Y-88309400D01*
X77241739Y-88309400D01*
X77441698Y-88269626D01*
X77630056Y-88191605D01*
X77799574Y-88078337D01*
X77843511Y-88034400D01*
X86451599Y-88034400D01*
X95739000Y-97321802D01*
X95739000Y-97383939D01*
X95778774Y-97583898D01*
X95856795Y-97772256D01*
X95970063Y-97941774D01*
X96114226Y-98085937D01*
X96283744Y-98199205D01*
X96472102Y-98277226D01*
X96672061Y-98317000D01*
X96875939Y-98317000D01*
X97075898Y-98277226D01*
X97264256Y-98199205D01*
X97433774Y-98085937D01*
X97577937Y-97941774D01*
X97691205Y-97772256D01*
X97769226Y-97583898D01*
X97809000Y-97383939D01*
X97809000Y-97180061D01*
X97769226Y-96980102D01*
X97691205Y-96791744D01*
X97577937Y-96622226D01*
X97433774Y-96478063D01*
X97264256Y-96364795D01*
X97075898Y-96286774D01*
X96875939Y-96247000D01*
X96813802Y-96247000D01*
X87330204Y-86763403D01*
X87306401Y-86734399D01*
X87190676Y-86639426D01*
X87058647Y-86568854D01*
X86915386Y-86525397D01*
X86803733Y-86514400D01*
X86803722Y-86514400D01*
X86766400Y-86510724D01*
X86729078Y-86514400D01*
X77843511Y-86514400D01*
X77799574Y-86470463D01*
X77630056Y-86357195D01*
X77441698Y-86279174D01*
X77241739Y-86239400D01*
X77037861Y-86239400D01*
X76837902Y-86279174D01*
X76649544Y-86357195D01*
X76480026Y-86470463D01*
X76335863Y-86614626D01*
X76222595Y-86784144D01*
X76144574Y-86972502D01*
X76104800Y-87172461D01*
X74710677Y-87172461D01*
X79514706Y-84930736D01*
X79544774Y-85081898D01*
X79622795Y-85270256D01*
X79736063Y-85439774D01*
X79880226Y-85583937D01*
X80049744Y-85697205D01*
X80238102Y-85775226D01*
X80438061Y-85815000D01*
X80641939Y-85815000D01*
X80841898Y-85775226D01*
X81030256Y-85697205D01*
X81199774Y-85583937D01*
X81343937Y-85439774D01*
X81457205Y-85270256D01*
X81474700Y-85228021D01*
X94714619Y-80000000D01*
X99756289Y-80000000D01*
X99800226Y-80043937D01*
X99969744Y-80157205D01*
X100158102Y-80235226D01*
X100358061Y-80275000D01*
X100561939Y-80275000D01*
X100761898Y-80235226D01*
X100950256Y-80157205D01*
X101119774Y-80043937D01*
X101263937Y-79899774D01*
X101377205Y-79730256D01*
X101455226Y-79541898D01*
X101495000Y-79341939D01*
X101495000Y-79138061D01*
X101455226Y-78938102D01*
X101377205Y-78749744D01*
X101263937Y-78580226D01*
X101119774Y-78436063D01*
X100950256Y-78322795D01*
X100761898Y-78244774D01*
X100561939Y-78205000D01*
X100358061Y-78205000D01*
X100158102Y-78244774D01*
X99969744Y-78322795D01*
X99800226Y-78436063D01*
X99756289Y-78480000D01*
X94613664Y-78480000D01*
X94582695Y-78476429D01*
X94539003Y-78480000D01*
X94532667Y-78480000D01*
X94501775Y-78483043D01*
X94433485Y-78488624D01*
X94427357Y-78490372D01*
X94421014Y-78490997D01*
X94355403Y-78510900D01*
X94325596Y-78519403D01*
X94319715Y-78521725D01*
X94277753Y-78534454D01*
X94250251Y-78549154D01*
X87359401Y-81270132D01*
X92423088Y-78907241D01*
X92473747Y-78886805D01*
X92522047Y-78855175D01*
X92571734Y-78825742D01*
X92584566Y-78814233D01*
X92598988Y-78804788D01*
X92640188Y-78764343D01*
X92683180Y-78725782D01*
X92693524Y-78711984D01*
X92705821Y-78699913D01*
X92738335Y-78652214D01*
X92772982Y-78606000D01*
X92780434Y-78590452D01*
X92790142Y-78576211D01*
X92812732Y-78523071D01*
X92837691Y-78471001D01*
X92841965Y-78454306D01*
X92848711Y-78438437D01*
X92860503Y-78381893D01*
X92874819Y-78325971D01*
X92875754Y-78308761D01*
X92879274Y-78291882D01*
X92879808Y-78234144D01*
X92882941Y-78176485D01*
X92875203Y-78122389D01*
X92239814Y-70995738D01*
X92330535Y-70935120D01*
X92525120Y-70740535D01*
X92678005Y-70511727D01*
X92710000Y-70434485D01*
X92741995Y-70511727D01*
X92894880Y-70740535D01*
X93089465Y-70935120D01*
X93318273Y-71088005D01*
X93572510Y-71193314D01*
X93842408Y-71247000D01*
X94117592Y-71247000D01*
X94387490Y-71193314D01*
X94641727Y-71088005D01*
X94870535Y-70935120D01*
X95065120Y-70740535D01*
X95218005Y-70511727D01*
X95250000Y-70434485D01*
X95281995Y-70511727D01*
X95434880Y-70740535D01*
X95629465Y-70935120D01*
X95858273Y-71088005D01*
X96112510Y-71193314D01*
X96382408Y-71247000D01*
X96657592Y-71247000D01*
X96927490Y-71193314D01*
X97181727Y-71088005D01*
X97410535Y-70935120D01*
X97605120Y-70740535D01*
X97758005Y-70511727D01*
X97790000Y-70434485D01*
X97821995Y-70511727D01*
X97974880Y-70740535D01*
X98169465Y-70935120D01*
X98398273Y-71088005D01*
X98652510Y-71193314D01*
X98922408Y-71247000D01*
X99197592Y-71247000D01*
X99467490Y-71193314D01*
X99721727Y-71088005D01*
X99950535Y-70935120D01*
X100145120Y-70740535D01*
X100298005Y-70511727D01*
X100330000Y-70434485D01*
X100361995Y-70511727D01*
X100514880Y-70740535D01*
X100709465Y-70935120D01*
X100938273Y-71088005D01*
X101192510Y-71193314D01*
X101462408Y-71247000D01*
X101737592Y-71247000D01*
X102007490Y-71193314D01*
X102261727Y-71088005D01*
X102490535Y-70935120D01*
X102685120Y-70740535D01*
X102838005Y-70511727D01*
X102943314Y-70257490D01*
X102997000Y-69987592D01*
X102997000Y-69712408D01*
X102943314Y-69442510D01*
X102838005Y-69188273D01*
X102685120Y-68959465D01*
X102490535Y-68764880D01*
X102261727Y-68611995D01*
X102184485Y-68580000D01*
X102261727Y-68548005D01*
X102490535Y-68395120D01*
X102685120Y-68200535D01*
X102838005Y-67971727D01*
X102943314Y-67717490D01*
X102997000Y-67447592D01*
X102997000Y-67172408D01*
X102943314Y-66902510D01*
X102838005Y-66648273D01*
X102685120Y-66419465D01*
X102490535Y-66224880D01*
X102261727Y-66071995D01*
X102007490Y-65966686D01*
X101737592Y-65913000D01*
X101462408Y-65913000D01*
X101192510Y-65966686D01*
X100938273Y-66071995D01*
X100709465Y-66224880D01*
X100514880Y-66419465D01*
X100361995Y-66648273D01*
X100330000Y-66725515D01*
X100298005Y-66648273D01*
X100145120Y-66419465D01*
X99950535Y-66224880D01*
X99721727Y-66071995D01*
X99467490Y-65966686D01*
X99197592Y-65913000D01*
X98922408Y-65913000D01*
X98652510Y-65966686D01*
X98398273Y-66071995D01*
X98169465Y-66224880D01*
X97974880Y-66419465D01*
X97821995Y-66648273D01*
X97790000Y-66725515D01*
X97758005Y-66648273D01*
X97605120Y-66419465D01*
X97410535Y-66224880D01*
X97181727Y-66071995D01*
X96927490Y-65966686D01*
X96657592Y-65913000D01*
X96382408Y-65913000D01*
X96112510Y-65966686D01*
X95858273Y-66071995D01*
X95629465Y-66224880D01*
X95434880Y-66419465D01*
X95281995Y-66648273D01*
X95250000Y-66725515D01*
X95218005Y-66648273D01*
X95065120Y-66419465D01*
X94870535Y-66224880D01*
X94641727Y-66071995D01*
X94387490Y-65966686D01*
X94117592Y-65913000D01*
X93842408Y-65913000D01*
X93572510Y-65966686D01*
X93318273Y-66071995D01*
X93089465Y-66224880D01*
X92894880Y-66419465D01*
X92741995Y-66648273D01*
X92710000Y-66725515D01*
X92678005Y-66648273D01*
X92525120Y-66419465D01*
X92330535Y-66224880D01*
X92101727Y-66071995D01*
X91847490Y-65966686D01*
X91577592Y-65913000D01*
X91302408Y-65913000D01*
X91032510Y-65966686D01*
X90778273Y-66071995D01*
X90549465Y-66224880D01*
X90354880Y-66419465D01*
X90201995Y-66648273D01*
X90170000Y-66725515D01*
X90138005Y-66648273D01*
X89985120Y-66419465D01*
X89790535Y-66224880D01*
X89561727Y-66071995D01*
X89307490Y-65966686D01*
X89037592Y-65913000D01*
X88762408Y-65913000D01*
X88492510Y-65966686D01*
X88238273Y-66071995D01*
X88009465Y-66224880D01*
X87814880Y-66419465D01*
X87661995Y-66648273D01*
X87630000Y-66725515D01*
X87598005Y-66648273D01*
X87445120Y-66419465D01*
X87250535Y-66224880D01*
X87021727Y-66071995D01*
X86767490Y-65966686D01*
X86497592Y-65913000D01*
X86222408Y-65913000D01*
X85952510Y-65966686D01*
X85698273Y-66071995D01*
X85469465Y-66224880D01*
X85274880Y-66419465D01*
X85121995Y-66648273D01*
X85090000Y-66725515D01*
X85058005Y-66648273D01*
X84905120Y-66419465D01*
X84710535Y-66224880D01*
X84481727Y-66071995D01*
X84227490Y-65966686D01*
X83957592Y-65913000D01*
X83682408Y-65913000D01*
X83412510Y-65966686D01*
X83158273Y-66071995D01*
X82929465Y-66224880D01*
X82734880Y-66419465D01*
X82581995Y-66648273D01*
X82550000Y-66725515D01*
X82518005Y-66648273D01*
X82365120Y-66419465D01*
X82170535Y-66224880D01*
X81941727Y-66071995D01*
X81687490Y-65966686D01*
X81417592Y-65913000D01*
X81142408Y-65913000D01*
X80872510Y-65966686D01*
X80618273Y-66071995D01*
X80389465Y-66224880D01*
X80194880Y-66419465D01*
X80041995Y-66648273D01*
X80010000Y-66725515D01*
X79978005Y-66648273D01*
X79825120Y-66419465D01*
X79630535Y-66224880D01*
X79401727Y-66071995D01*
X79147490Y-65966686D01*
X78877592Y-65913000D01*
X78602408Y-65913000D01*
X78332510Y-65966686D01*
X78078273Y-66071995D01*
X77849465Y-66224880D01*
X77654880Y-66419465D01*
X77501995Y-66648273D01*
X77470000Y-66725515D01*
X77438005Y-66648273D01*
X77285120Y-66419465D01*
X77090535Y-66224880D01*
X76861727Y-66071995D01*
X76607490Y-65966686D01*
X76337592Y-65913000D01*
X76062408Y-65913000D01*
X75792510Y-65966686D01*
X75538273Y-66071995D01*
X75309465Y-66224880D01*
X75114880Y-66419465D01*
X74961995Y-66648273D01*
X74930000Y-66725515D01*
X74898005Y-66648273D01*
X74745120Y-66419465D01*
X74550535Y-66224880D01*
X74321727Y-66071995D01*
X74067490Y-65966686D01*
X73797592Y-65913000D01*
X73522408Y-65913000D01*
X73252510Y-65966686D01*
X72998273Y-66071995D01*
X72769465Y-66224880D01*
X72574880Y-66419465D01*
X72421995Y-66648273D01*
X72390000Y-66725515D01*
X72358005Y-66648273D01*
X72205120Y-66419465D01*
X72010535Y-66224880D01*
X71781727Y-66071995D01*
X71527490Y-65966686D01*
X71257592Y-65913000D01*
X70982408Y-65913000D01*
X70712510Y-65966686D01*
X70458273Y-66071995D01*
X70229465Y-66224880D01*
X70034880Y-66419465D01*
X69881995Y-66648273D01*
X69850000Y-66725515D01*
X69818005Y-66648273D01*
X69665120Y-66419465D01*
X69470535Y-66224880D01*
X69241727Y-66071995D01*
X68987490Y-65966686D01*
X68717592Y-65913000D01*
X68442408Y-65913000D01*
X68172510Y-65966686D01*
X67918273Y-66071995D01*
X67689465Y-66224880D01*
X67494880Y-66419465D01*
X67341995Y-66648273D01*
X67310000Y-66725515D01*
X67278005Y-66648273D01*
X67125120Y-66419465D01*
X66930535Y-66224880D01*
X66701727Y-66071995D01*
X66447490Y-65966686D01*
X66177592Y-65913000D01*
X65902408Y-65913000D01*
X65632510Y-65966686D01*
X65378273Y-66071995D01*
X65149465Y-66224880D01*
X64954880Y-66419465D01*
X64801995Y-66648273D01*
X64770000Y-66725515D01*
X64738005Y-66648273D01*
X64585120Y-66419465D01*
X64390535Y-66224880D01*
X64161727Y-66071995D01*
X63907490Y-65966686D01*
X63637592Y-65913000D01*
X63362408Y-65913000D01*
X63092510Y-65966686D01*
X62838273Y-66071995D01*
X62609465Y-66224880D01*
X62414880Y-66419465D01*
X62261995Y-66648273D01*
X62156686Y-66902510D01*
X62103000Y-67172408D01*
X62103000Y-67447592D01*
X62156686Y-67717490D01*
X62261995Y-67971727D01*
X62414880Y-68200535D01*
X62609465Y-68395120D01*
X62838273Y-68548005D01*
X62915515Y-68580000D01*
X62838273Y-68611995D01*
X62609465Y-68764880D01*
X62414880Y-68959465D01*
X62261995Y-69188273D01*
X62230000Y-69265515D01*
X62198005Y-69188273D01*
X62045120Y-68959465D01*
X61850535Y-68764880D01*
X61621727Y-68611995D01*
X61367490Y-68506686D01*
X61097592Y-68453000D01*
X60822408Y-68453000D01*
X60552510Y-68506686D01*
X60298273Y-68611995D01*
X60069465Y-68764880D01*
X59874880Y-68959465D01*
X59721995Y-69188273D01*
X59616686Y-69442510D01*
X59563000Y-69712408D01*
X59563000Y-69987592D01*
X59616686Y-70257490D01*
X59721995Y-70511727D01*
X59874880Y-70740535D01*
X60069465Y-70935120D01*
X60200000Y-71022341D01*
X60200001Y-82826428D01*
X60198100Y-82826428D01*
X60073618Y-82838688D01*
X59953920Y-82874998D01*
X59843606Y-82933963D01*
X59746915Y-83013315D01*
X59667563Y-83110006D01*
X59608598Y-83220320D01*
X59572288Y-83340018D01*
X59560028Y-83464500D01*
X59560028Y-85064500D01*
X59562736Y-85092000D01*
X57783000Y-85092000D01*
X57783000Y-83038320D01*
X57786676Y-83000997D01*
X57783000Y-82963674D01*
X57783000Y-82963665D01*
X57772003Y-82852012D01*
X57728546Y-82708751D01*
X57657974Y-82576722D01*
X57563001Y-82460997D01*
X57534003Y-82437199D01*
X55750405Y-80653602D01*
X55726602Y-80624598D01*
X55610877Y-80529625D01*
X55478848Y-80459053D01*
X55335587Y-80415596D01*
X55223934Y-80404599D01*
X55223923Y-80404599D01*
X55222896Y-80404498D01*
X55267498Y-80395626D01*
X55455856Y-80317605D01*
X55625374Y-80204337D01*
X55769537Y-80060174D01*
X55882805Y-79890656D01*
X55960826Y-79702298D01*
X56000600Y-79502339D01*
X56000600Y-79298461D01*
X55960826Y-79098502D01*
X55882805Y-78910144D01*
X55769537Y-78740626D01*
X55625374Y-78596463D01*
X55455856Y-78483195D01*
X55267498Y-78405174D01*
X55067539Y-78365400D01*
X54863661Y-78365400D01*
X54663702Y-78405174D01*
X54475344Y-78483195D01*
X54305826Y-78596463D01*
X54261889Y-78640400D01*
X34942911Y-78640400D01*
X34898974Y-78596463D01*
X34729456Y-78483195D01*
X34541098Y-78405174D01*
X34341139Y-78365400D01*
X34137261Y-78365400D01*
X33937302Y-78405174D01*
X33748944Y-78483195D01*
X33579426Y-78596463D01*
X33435263Y-78740626D01*
X33321995Y-78910144D01*
X33243974Y-79098502D01*
X33204200Y-79298461D01*
X33204200Y-79502339D01*
X33243974Y-79702298D01*
X33321995Y-79890656D01*
X33435263Y-80060174D01*
X33579426Y-80204337D01*
X33748944Y-80317605D01*
X33937302Y-80395626D01*
X34137261Y-80435400D01*
X34341139Y-80435400D01*
X34541098Y-80395626D01*
X34729456Y-80317605D01*
X34898974Y-80204337D01*
X34942911Y-80160400D01*
X54261889Y-80160400D01*
X54305826Y-80204337D01*
X54475344Y-80317605D01*
X54663702Y-80395626D01*
X54708813Y-80404599D01*
X43104123Y-80404599D01*
X43066800Y-80400923D01*
X43029477Y-80404599D01*
X43029468Y-80404599D01*
X42917815Y-80415596D01*
X42774554Y-80459053D01*
X42642525Y-80529625D01*
X42642523Y-80529626D01*
X42642524Y-80529626D01*
X42555797Y-80600800D01*
X42555793Y-80600804D01*
X42526800Y-80624598D01*
X42503006Y-80653591D01*
X41593125Y-81563473D01*
X41392543Y-81480389D01*
X41095984Y-81421400D01*
X40793616Y-81421400D01*
X40497057Y-81480389D01*
X40217705Y-81596101D01*
X39966295Y-81764088D01*
X39899856Y-81830527D01*
X39894302Y-81812220D01*
X39835337Y-81701906D01*
X39755985Y-81605215D01*
X39659294Y-81525863D01*
X39548980Y-81466898D01*
X39429282Y-81430588D01*
X39304800Y-81418328D01*
X37504800Y-81418328D01*
X37380318Y-81430588D01*
X37260620Y-81466898D01*
X37150306Y-81525863D01*
X37053615Y-81605215D01*
X36974263Y-81701906D01*
X36915298Y-81812220D01*
X36878988Y-81931918D01*
X36866728Y-82056400D01*
X36866728Y-83856400D01*
X36878988Y-83980882D01*
X36915298Y-84100580D01*
X36974263Y-84210894D01*
X36988630Y-84228400D01*
X33690402Y-84228400D01*
X32378600Y-82916599D01*
X32378600Y-82854461D01*
X32338826Y-82654502D01*
X32260805Y-82466144D01*
X32147537Y-82296626D01*
X32003374Y-82152463D01*
X31833856Y-82039195D01*
X31645498Y-81961174D01*
X31445539Y-81921400D01*
X31241661Y-81921400D01*
X31041702Y-81961174D01*
X30853344Y-82039195D01*
X30683826Y-82152463D01*
X30539663Y-82296626D01*
X30426395Y-82466144D01*
X30348374Y-82654502D01*
X30308600Y-82854461D01*
X26060000Y-82854461D01*
X26060000Y-74588800D01*
X36968328Y-74588800D01*
X36968328Y-76388800D01*
X36980588Y-76513282D01*
X37016898Y-76632980D01*
X37075863Y-76743294D01*
X37155215Y-76839985D01*
X37251906Y-76919337D01*
X37362220Y-76978302D01*
X37481918Y-77014612D01*
X37606400Y-77026872D01*
X39406400Y-77026872D01*
X39530882Y-77014612D01*
X39650580Y-76978302D01*
X39760894Y-76919337D01*
X39857585Y-76839985D01*
X39936937Y-76743294D01*
X39995902Y-76632980D01*
X40001456Y-76614673D01*
X40067895Y-76681112D01*
X40319305Y-76849099D01*
X40598657Y-76964811D01*
X40895216Y-77023800D01*
X41197584Y-77023800D01*
X41494143Y-76964811D01*
X41773495Y-76849099D01*
X42024905Y-76681112D01*
X42238712Y-76467305D01*
X42406699Y-76215895D01*
X42522411Y-75936543D01*
X42581400Y-75639984D01*
X42581400Y-75337616D01*
X42522411Y-75041057D01*
X42406699Y-74761705D01*
X42238712Y-74510295D01*
X42024905Y-74296488D01*
X41773495Y-74128501D01*
X41494143Y-74012789D01*
X41197584Y-73953800D01*
X40895216Y-73953800D01*
X40598657Y-74012789D01*
X40319305Y-74128501D01*
X40067895Y-74296488D01*
X40001456Y-74362927D01*
X39995902Y-74344620D01*
X39936937Y-74234306D01*
X39857585Y-74137615D01*
X39760894Y-74058263D01*
X39650580Y-73999298D01*
X39530882Y-73962988D01*
X39406400Y-73950728D01*
X37606400Y-73950728D01*
X37481918Y-73962988D01*
X37362220Y-73999298D01*
X37251906Y-74058263D01*
X37155215Y-74137615D01*
X37075863Y-74234306D01*
X37016898Y-74344620D01*
X36980588Y-74464318D01*
X36968328Y-74588800D01*
X26060000Y-74588800D01*
X26060000Y-65430000D01*
X139040000Y-65430000D01*
X139040001Y-174600000D01*
G37*
X139040001Y-174600000D02*
X26060000Y-174600000D01*
X26060000Y-142903170D01*
X36166600Y-142903170D01*
X36166600Y-143304030D01*
X36244804Y-143697187D01*
X36398207Y-144067534D01*
X36620913Y-144400837D01*
X36904363Y-144684287D01*
X37237666Y-144906993D01*
X37608013Y-145060396D01*
X38001170Y-145138600D01*
X38402030Y-145138600D01*
X38795187Y-145060396D01*
X39165534Y-144906993D01*
X39498837Y-144684287D01*
X39782287Y-144400837D01*
X40004993Y-144067534D01*
X40158396Y-143697187D01*
X40236600Y-143304030D01*
X40236600Y-142903170D01*
X40158396Y-142510013D01*
X40004993Y-142139666D01*
X39782287Y-141806363D01*
X39498837Y-141522913D01*
X39165534Y-141300207D01*
X38795187Y-141146804D01*
X38402030Y-141068600D01*
X38001170Y-141068600D01*
X37608013Y-141146804D01*
X37237666Y-141300207D01*
X36904363Y-141522913D01*
X36620913Y-141806363D01*
X36398207Y-142139666D01*
X36244804Y-142510013D01*
X36166600Y-142903170D01*
X26060000Y-142903170D01*
X26060000Y-134460521D01*
X36066600Y-134460521D01*
X36066600Y-134881079D01*
X36148647Y-135293556D01*
X36309588Y-135682102D01*
X36543237Y-136031783D01*
X36840617Y-136329163D01*
X37190298Y-136562812D01*
X37578844Y-136723753D01*
X37991321Y-136805800D01*
X38411879Y-136805800D01*
X38824356Y-136723753D01*
X39212902Y-136562812D01*
X39562583Y-136329163D01*
X39859963Y-136031783D01*
X40093612Y-135682102D01*
X40100240Y-135666100D01*
X40131613Y-135713052D01*
X40359348Y-135940787D01*
X40627137Y-136119718D01*
X40924688Y-136242968D01*
X41240567Y-136305800D01*
X41562633Y-136305800D01*
X41878512Y-136242968D01*
X42176063Y-136119718D01*
X42443852Y-135940787D01*
X42671587Y-135713052D01*
X42850518Y-135445263D01*
X42973768Y-135147712D01*
X43036600Y-134831833D01*
X43036600Y-134509767D01*
X42973768Y-134193888D01*
X42850518Y-133896337D01*
X42671587Y-133628548D01*
X42443852Y-133400813D01*
X42176063Y-133221882D01*
X41878512Y-133098632D01*
X41562633Y-133035800D01*
X41240567Y-133035800D01*
X40924688Y-133098632D01*
X40627137Y-133221882D01*
X40359348Y-133400813D01*
X40131613Y-133628548D01*
X40100240Y-133675500D01*
X40093612Y-133659498D01*
X39859963Y-133309817D01*
X39562583Y-133012437D01*
X39212902Y-132778788D01*
X38824356Y-132617847D01*
X38411879Y-132535800D01*
X37991321Y-132535800D01*
X37578844Y-132617847D01*
X37190298Y-132778788D01*
X36840617Y-133012437D01*
X36543237Y-133309817D01*
X36309588Y-133659498D01*
X36148647Y-134048044D01*
X36066600Y-134460521D01*
X26060000Y-134460521D01*
X26060000Y-132330521D01*
X45616600Y-132330521D01*
X45616600Y-132751079D01*
X45698647Y-133163556D01*
X45859588Y-133552102D01*
X46093237Y-133901783D01*
X46390617Y-134199163D01*
X46740298Y-134432812D01*
X47128844Y-134593753D01*
X47541321Y-134675800D01*
X47961879Y-134675800D01*
X48374356Y-134593753D01*
X48762902Y-134432812D01*
X49112583Y-134199163D01*
X49409963Y-133901783D01*
X49643612Y-133552102D01*
X49804553Y-133163556D01*
X49886600Y-132751079D01*
X49886600Y-132330521D01*
X49804553Y-131918044D01*
X49643612Y-131529498D01*
X49409963Y-131179817D01*
X49112583Y-130882437D01*
X48762902Y-130648788D01*
X48715777Y-130629268D01*
X69589800Y-130629268D01*
X69589800Y-130990732D01*
X69660318Y-131345250D01*
X69798644Y-131679199D01*
X69999462Y-131979744D01*
X70255056Y-132235338D01*
X70555601Y-132436156D01*
X70889550Y-132574482D01*
X71244068Y-132645000D01*
X71605532Y-132645000D01*
X71960050Y-132574482D01*
X72293999Y-132436156D01*
X72594544Y-132235338D01*
X72850138Y-131979744D01*
X73050956Y-131679199D01*
X73189282Y-131345250D01*
X73259800Y-130990732D01*
X73259800Y-130629268D01*
X73189282Y-130274750D01*
X73050956Y-129940801D01*
X72850138Y-129640256D01*
X72594544Y-129384662D01*
X72293999Y-129183844D01*
X71960050Y-129045518D01*
X71605532Y-128975000D01*
X71244068Y-128975000D01*
X70889550Y-129045518D01*
X70555601Y-129183844D01*
X70255056Y-129384662D01*
X69999462Y-129640256D01*
X69798644Y-129940801D01*
X69660318Y-130274750D01*
X69589800Y-130629268D01*
X48715777Y-130629268D01*
X48374356Y-130487847D01*
X47961879Y-130405800D01*
X47541321Y-130405800D01*
X47128844Y-130487847D01*
X46740298Y-130648788D01*
X46390617Y-130882437D01*
X46093237Y-131179817D01*
X45859588Y-131529498D01*
X45698647Y-131918044D01*
X45616600Y-132330521D01*
X26060000Y-132330521D01*
X26060000Y-123030521D01*
X36066600Y-123030521D01*
X36066600Y-123451079D01*
X36148647Y-123863556D01*
X36309588Y-124252102D01*
X36543237Y-124601783D01*
X36840617Y-124899163D01*
X37190298Y-125132812D01*
X37578844Y-125293753D01*
X37991321Y-125375800D01*
X38411879Y-125375800D01*
X38824356Y-125293753D01*
X39212902Y-125132812D01*
X39562583Y-124899163D01*
X39859963Y-124601783D01*
X40093612Y-124252102D01*
X40100240Y-124236100D01*
X40131613Y-124283052D01*
X40359348Y-124510787D01*
X40627137Y-124689718D01*
X40924688Y-124812968D01*
X41240567Y-124875800D01*
X41562633Y-124875800D01*
X41878512Y-124812968D01*
X42176063Y-124689718D01*
X42443852Y-124510787D01*
X42671587Y-124283052D01*
X42850518Y-124015263D01*
X42973768Y-123717712D01*
X43036600Y-123401833D01*
X43036600Y-123079767D01*
X43026805Y-123030521D01*
X48766600Y-123030521D01*
X48766600Y-123451079D01*
X48848647Y-123863556D01*
X49009588Y-124252102D01*
X49243237Y-124601783D01*
X49540617Y-124899163D01*
X49890298Y-125132812D01*
X50278844Y-125293753D01*
X50691321Y-125375800D01*
X51111879Y-125375800D01*
X51524356Y-125293753D01*
X51912902Y-125132812D01*
X52262583Y-124899163D01*
X52559963Y-124601783D01*
X52793612Y-124252102D01*
X52954553Y-123863556D01*
X53036600Y-123451079D01*
X53036600Y-123030521D01*
X52954553Y-122618044D01*
X52793612Y-122229498D01*
X52559963Y-121879817D01*
X52262583Y-121582437D01*
X51912902Y-121348788D01*
X51524356Y-121187847D01*
X51111879Y-121105800D01*
X50691321Y-121105800D01*
X50278844Y-121187847D01*
X49890298Y-121348788D01*
X49540617Y-121582437D01*
X49243237Y-121879817D01*
X49009588Y-122229498D01*
X48848647Y-122618044D01*
X48766600Y-123030521D01*
X43026805Y-123030521D01*
X42973768Y-122763888D01*
X42850518Y-122466337D01*
X42671587Y-122198548D01*
X42443852Y-121970813D01*
X42176063Y-121791882D01*
X41878512Y-121668632D01*
X41562633Y-121605800D01*
X41240567Y-121605800D01*
X40924688Y-121668632D01*
X40627137Y-121791882D01*
X40359348Y-121970813D01*
X40131613Y-122198548D01*
X40100240Y-122245500D01*
X40093612Y-122229498D01*
X39859963Y-121879817D01*
X39562583Y-121582437D01*
X39212902Y-121348788D01*
X38824356Y-121187847D01*
X38411879Y-121105800D01*
X37991321Y-121105800D01*
X37578844Y-121187847D01*
X37190298Y-121348788D01*
X36840617Y-121582437D01*
X36543237Y-121879817D01*
X36309588Y-122229498D01*
X36148647Y-122618044D01*
X36066600Y-123030521D01*
X26060000Y-123030521D01*
X26060000Y-105258816D01*
X41645000Y-105258816D01*
X41645000Y-105561184D01*
X41703989Y-105857743D01*
X41819701Y-106137095D01*
X41987688Y-106388505D01*
X42201495Y-106602312D01*
X42452905Y-106770299D01*
X42732257Y-106886011D01*
X43028816Y-106945000D01*
X43331184Y-106945000D01*
X43627743Y-106886011D01*
X43907095Y-106770299D01*
X44158505Y-106602312D01*
X44372312Y-106388505D01*
X44540299Y-106137095D01*
X44656011Y-105857743D01*
X44715000Y-105561184D01*
X44715000Y-105258816D01*
X44656011Y-104962257D01*
X44540299Y-104682905D01*
X44372312Y-104431495D01*
X44158505Y-104217688D01*
X43907095Y-104049701D01*
X43627743Y-103933989D01*
X43331184Y-103875000D01*
X43028816Y-103875000D01*
X42732257Y-103933989D01*
X42452905Y-104049701D01*
X42201495Y-104217688D01*
X41987688Y-104431495D01*
X41819701Y-104682905D01*
X41703989Y-104962257D01*
X41645000Y-105258816D01*
X26060000Y-105258816D01*
X26060000Y-95111200D01*
X38389928Y-95111200D01*
X38389928Y-96811200D01*
X38402188Y-96935682D01*
X38438498Y-97055380D01*
X38497463Y-97165694D01*
X38576815Y-97262385D01*
X38673506Y-97341737D01*
X38783820Y-97400702D01*
X38856380Y-97422713D01*
X38724525Y-97554568D01*
X38562010Y-97797789D01*
X38450068Y-98068042D01*
X38393000Y-98354940D01*
X38393000Y-98647460D01*
X38450068Y-98934358D01*
X38562010Y-99204611D01*
X38724525Y-99447832D01*
X38931368Y-99654675D01*
X39105760Y-99771200D01*
X38931368Y-99887725D01*
X38724525Y-100094568D01*
X38562010Y-100337789D01*
X38450068Y-100608042D01*
X38393000Y-100894940D01*
X38393000Y-101187460D01*
X38450068Y-101474358D01*
X38562010Y-101744611D01*
X38724525Y-101987832D01*
X38931368Y-102194675D01*
X39174589Y-102357190D01*
X39444842Y-102469132D01*
X39731740Y-102526200D01*
X40024260Y-102526200D01*
X40083582Y-102514400D01*
X45769123Y-102514400D01*
X45772801Y-102551743D01*
X45772800Y-107150677D01*
X45769124Y-107188000D01*
X45772800Y-107225322D01*
X45772800Y-107225332D01*
X45783797Y-107336985D01*
X45803446Y-107401759D01*
X45827254Y-107480246D01*
X45897826Y-107612276D01*
X45937671Y-107660826D01*
X45992799Y-107728001D01*
X46021802Y-107751804D01*
X47061201Y-108791203D01*
X47084999Y-108820201D01*
X47113997Y-108843999D01*
X47200723Y-108915174D01*
X47332132Y-108985414D01*
X47332753Y-108985746D01*
X47476014Y-109029203D01*
X47587667Y-109040200D01*
X47587676Y-109040200D01*
X47624999Y-109043876D01*
X47662322Y-109040200D01*
X76278201Y-109040200D01*
X76278200Y-110706677D01*
X76274524Y-110744000D01*
X76278200Y-110781322D01*
X76278200Y-110781332D01*
X76289197Y-110892985D01*
X76326403Y-111015640D01*
X76332654Y-111036246D01*
X76403226Y-111168276D01*
X76443071Y-111216826D01*
X76498199Y-111284001D01*
X76527203Y-111307804D01*
X77959000Y-112739602D01*
X77959000Y-112801739D01*
X77998774Y-113001698D01*
X78076795Y-113190056D01*
X78190063Y-113359574D01*
X78334226Y-113503737D01*
X78503744Y-113617005D01*
X78634076Y-113670991D01*
X78199808Y-132274081D01*
X78139263Y-132334626D01*
X78025995Y-132504144D01*
X77947974Y-132692502D01*
X77908200Y-132892461D01*
X77908200Y-133096339D01*
X77947974Y-133296298D01*
X78025995Y-133484656D01*
X78139263Y-133654174D01*
X78283426Y-133798337D01*
X78452944Y-133911605D01*
X78641302Y-133989626D01*
X78841261Y-134029400D01*
X79045139Y-134029400D01*
X79245098Y-133989626D01*
X79433456Y-133911605D01*
X79602974Y-133798337D01*
X79747137Y-133654174D01*
X79860405Y-133484656D01*
X79938426Y-133296298D01*
X79978200Y-133096339D01*
X79978200Y-132892461D01*
X79938426Y-132692502D01*
X79860405Y-132504144D01*
X79747137Y-132334626D01*
X79719454Y-132306943D01*
X80172229Y-112911078D01*
X80176777Y-112864900D01*
X80170307Y-112799208D01*
X80165375Y-112733435D01*
X80162980Y-112724822D01*
X80162103Y-112715914D01*
X80142942Y-112652747D01*
X80125274Y-112589199D01*
X80121243Y-112581216D01*
X80118646Y-112572653D01*
X80087525Y-112514430D01*
X80057802Y-112455559D01*
X80052293Y-112448518D01*
X80048074Y-112440624D01*
X80006195Y-112389594D01*
X79965556Y-112337649D01*
X79963555Y-112335927D01*
X79911205Y-112209544D01*
X79797937Y-112040026D01*
X79653774Y-111895863D01*
X79484256Y-111782595D01*
X79295898Y-111704574D01*
X79095939Y-111664800D01*
X79033802Y-111664800D01*
X78269471Y-110900470D01*
X78362448Y-110881976D01*
X78550806Y-110803955D01*
X78720324Y-110690687D01*
X78864487Y-110546524D01*
X78977755Y-110377006D01*
X79055776Y-110188648D01*
X79095550Y-109988689D01*
X79095550Y-109926551D01*
X80464502Y-108557600D01*
X81312889Y-108557600D01*
X81356826Y-108601537D01*
X81526344Y-108714805D01*
X81714702Y-108792826D01*
X81914661Y-108832600D01*
X82118539Y-108832600D01*
X82318498Y-108792826D01*
X82506856Y-108714805D01*
X82676374Y-108601537D01*
X82820537Y-108457374D01*
X82933805Y-108287856D01*
X83011826Y-108099498D01*
X83051600Y-107899539D01*
X83051600Y-107764140D01*
X83294601Y-107832398D01*
X83294600Y-125471048D01*
X83289109Y-125526800D01*
X83311023Y-125749299D01*
X83375924Y-125963247D01*
X83481316Y-126160423D01*
X83623151Y-126333249D01*
X83646203Y-126352168D01*
X83649068Y-127604888D01*
X82299440Y-127604888D01*
X82174958Y-127617148D01*
X82055260Y-127653458D01*
X81944946Y-127712423D01*
X81848255Y-127791775D01*
X81768903Y-127888466D01*
X81709938Y-127998780D01*
X81673628Y-128118478D01*
X81661368Y-128242960D01*
X81661368Y-129942960D01*
X81673628Y-130067442D01*
X81709938Y-130187140D01*
X81768903Y-130297454D01*
X81848255Y-130394145D01*
X81944946Y-130473497D01*
X82055260Y-130532462D01*
X82174958Y-130568772D01*
X82299440Y-130581032D01*
X83655873Y-130581032D01*
X83660144Y-132448988D01*
X83370342Y-134175726D01*
X81951231Y-135594838D01*
X81805652Y-135580500D01*
X81805651Y-135580500D01*
X81749900Y-135575009D01*
X81694149Y-135580500D01*
X64533643Y-135580500D01*
X64477899Y-135575010D01*
X64422155Y-135580500D01*
X62171452Y-135580500D01*
X62115700Y-135575009D01*
X61893201Y-135596923D01*
X61679253Y-135661824D01*
X61482077Y-135767216D01*
X61352556Y-135873511D01*
X61352555Y-135873512D01*
X61309251Y-135909051D01*
X61273713Y-135952354D01*
X55257469Y-141968600D01*
X50399672Y-141968600D01*
X50399672Y-141703600D01*
X50387412Y-141579118D01*
X50351102Y-141459420D01*
X50292137Y-141349106D01*
X50212785Y-141252415D01*
X50116094Y-141173063D01*
X50005780Y-141114098D01*
X49886082Y-141077788D01*
X49761600Y-141065528D01*
X46961600Y-141065528D01*
X46837118Y-141077788D01*
X46717420Y-141114098D01*
X46607106Y-141173063D01*
X46510415Y-141252415D01*
X46431063Y-141349106D01*
X46372098Y-141459420D01*
X46335788Y-141579118D01*
X46323528Y-141703600D01*
X46323528Y-144503600D01*
X46335788Y-144628082D01*
X46372098Y-144747780D01*
X46431063Y-144858094D01*
X46510415Y-144954785D01*
X46607106Y-145034137D01*
X46717420Y-145093102D01*
X46837118Y-145129412D01*
X46961600Y-145141672D01*
X49761600Y-145141672D01*
X49886082Y-145129412D01*
X50005780Y-145093102D01*
X50116094Y-145034137D01*
X50212785Y-144954785D01*
X50292137Y-144858094D01*
X50351102Y-144747780D01*
X50387412Y-144628082D01*
X50399672Y-144503600D01*
X50399672Y-144238600D01*
X55671849Y-144238600D01*
X55727600Y-144244091D01*
X55783351Y-144238600D01*
X55783352Y-144238600D01*
X55950099Y-144222177D01*
X56164047Y-144157276D01*
X56361223Y-144051884D01*
X56534049Y-143910049D01*
X56569596Y-143866735D01*
X62585833Y-137850500D01*
X63165101Y-137850500D01*
X63165100Y-139817728D01*
X63100100Y-139817728D01*
X62975618Y-139829988D01*
X62855920Y-139866298D01*
X62745606Y-139925263D01*
X62648915Y-140004615D01*
X62569563Y-140101306D01*
X62510598Y-140211620D01*
X62474288Y-140331318D01*
X62462028Y-140455800D01*
X62462028Y-142855800D01*
X62474288Y-142980282D01*
X62510598Y-143099980D01*
X62569563Y-143210294D01*
X62648915Y-143306985D01*
X62745606Y-143386337D01*
X62855920Y-143445302D01*
X62975618Y-143481612D01*
X63100100Y-143493872D01*
X65500100Y-143493872D01*
X65624582Y-143481612D01*
X65744280Y-143445302D01*
X65854594Y-143386337D01*
X65951285Y-143306985D01*
X66030637Y-143210294D01*
X66089602Y-143099980D01*
X66125912Y-142980282D01*
X66138172Y-142855800D01*
X66138172Y-140455800D01*
X66125912Y-140331318D01*
X66089602Y-140211620D01*
X66030637Y-140101306D01*
X65951285Y-140004615D01*
X65854594Y-139925263D01*
X65744280Y-139866298D01*
X65624582Y-139829988D01*
X65500100Y-139817728D01*
X65435100Y-139817728D01*
X65435100Y-137850500D01*
X81274575Y-137850500D01*
X81286351Y-137864849D01*
X81459177Y-138006684D01*
X81656353Y-138112076D01*
X81707420Y-138127567D01*
X81870301Y-138176977D01*
X82092800Y-138198891D01*
X82315299Y-138176977D01*
X82478180Y-138127567D01*
X82529247Y-138112076D01*
X82726423Y-138006684D01*
X82899249Y-137864849D01*
X82934796Y-137821535D01*
X84861600Y-135894732D01*
X84861600Y-138722038D01*
X84856108Y-138777799D01*
X84878022Y-139000297D01*
X84942923Y-139214245D01*
X84972664Y-139269886D01*
X85048316Y-139411422D01*
X85190151Y-139584248D01*
X85233459Y-139619790D01*
X85489934Y-139876265D01*
X85354338Y-140011861D01*
X85303894Y-139970463D01*
X85193580Y-139911498D01*
X85073882Y-139875188D01*
X84949400Y-139862928D01*
X83249400Y-139862928D01*
X83124918Y-139875188D01*
X83005220Y-139911498D01*
X82894906Y-139970463D01*
X82798215Y-140049815D01*
X82718863Y-140146506D01*
X82659898Y-140256820D01*
X82623588Y-140376518D01*
X82611328Y-140501000D01*
X82611328Y-142201000D01*
X82623588Y-142325482D01*
X82659898Y-142445180D01*
X82718863Y-142555494D01*
X82798215Y-142652185D01*
X82894906Y-142731537D01*
X83005220Y-142790502D01*
X83124918Y-142826812D01*
X83249400Y-142839072D01*
X84949400Y-142839072D01*
X85073882Y-142826812D01*
X85193580Y-142790502D01*
X85303894Y-142731537D01*
X85400585Y-142652185D01*
X85479937Y-142555494D01*
X85538902Y-142445180D01*
X85575212Y-142325482D01*
X85587472Y-142201000D01*
X85587472Y-141925904D01*
X85630001Y-141891001D01*
X85653804Y-141861997D01*
X85987001Y-141528800D01*
X85987000Y-151582248D01*
X85981509Y-151638000D01*
X86003423Y-151860499D01*
X86068324Y-152074447D01*
X86129701Y-152189276D01*
X86173716Y-152271623D01*
X86315551Y-152444449D01*
X86488377Y-152586284D01*
X86685553Y-152691676D01*
X86899501Y-152756577D01*
X87122000Y-152778491D01*
X87177751Y-152773000D01*
X88882601Y-152773000D01*
X88882600Y-153601800D01*
X81037836Y-153601800D01*
X81133385Y-153523385D01*
X81212737Y-153426694D01*
X81271702Y-153316380D01*
X81308012Y-153196682D01*
X81320272Y-153072200D01*
X81320272Y-151372200D01*
X81308012Y-151247718D01*
X81271702Y-151128020D01*
X81212737Y-151017706D01*
X81133385Y-150921015D01*
X81036694Y-150841663D01*
X80926380Y-150782698D01*
X80806682Y-150746388D01*
X80682200Y-150734128D01*
X78982200Y-150734128D01*
X78857718Y-150746388D01*
X78738020Y-150782698D01*
X78627706Y-150841663D01*
X78531015Y-150921015D01*
X78451663Y-151017706D01*
X78392698Y-151128020D01*
X78356388Y-151247718D01*
X78344128Y-151372200D01*
X78344128Y-153072200D01*
X78356388Y-153196682D01*
X78392698Y-153316380D01*
X78451663Y-153426694D01*
X78531015Y-153523385D01*
X78626564Y-153601800D01*
X75188941Y-153601800D01*
X75133199Y-153596310D01*
X75077457Y-153601800D01*
X75077448Y-153601800D01*
X74910701Y-153618223D01*
X74696753Y-153683124D01*
X74499577Y-153788516D01*
X74368405Y-153896166D01*
X74327169Y-153862325D01*
X74044868Y-153711432D01*
X73738555Y-153618513D01*
X73420000Y-153587138D01*
X73101444Y-153618513D01*
X72795131Y-153711432D01*
X72512830Y-153862325D01*
X72265392Y-154065392D01*
X72062325Y-154312831D01*
X71911432Y-154595132D01*
X71818513Y-154901445D01*
X71801419Y-155075000D01*
X70038581Y-155075000D01*
X70021487Y-154901444D01*
X69928568Y-154595131D01*
X69777675Y-154312830D01*
X69574608Y-154065392D01*
X69327169Y-153862325D01*
X69044868Y-153711432D01*
X68738555Y-153618513D01*
X68420000Y-153587138D01*
X68101444Y-153618513D01*
X67795131Y-153711432D01*
X67512830Y-153862325D01*
X67265392Y-154065392D01*
X67062325Y-154312831D01*
X66911432Y-154595132D01*
X66818513Y-154901445D01*
X66801419Y-155075000D01*
X65038581Y-155075000D01*
X65021487Y-154901444D01*
X64928568Y-154595131D01*
X64777675Y-154312830D01*
X64574608Y-154065392D01*
X64327169Y-153862325D01*
X64044868Y-153711432D01*
X63738555Y-153618513D01*
X63420000Y-153587138D01*
X63101444Y-153618513D01*
X62795131Y-153711432D01*
X62512830Y-153862325D01*
X62265392Y-154065392D01*
X62062325Y-154312831D01*
X61911432Y-154595132D01*
X61818513Y-154901445D01*
X61801419Y-155075000D01*
X60048072Y-155075000D01*
X60048072Y-154230000D01*
X60035812Y-154105518D01*
X59999502Y-153985820D01*
X59940537Y-153875506D01*
X59861185Y-153778815D01*
X59764494Y-153699463D01*
X59654180Y-153640498D01*
X59534482Y-153604188D01*
X59410000Y-153591928D01*
X57430000Y-153591928D01*
X57305518Y-153604188D01*
X57185820Y-153640498D01*
X57075506Y-153699463D01*
X56978815Y-153778815D01*
X56899463Y-153875506D01*
X56840498Y-153985820D01*
X56804188Y-154105518D01*
X56791928Y-154230000D01*
X56791928Y-158190000D01*
X56804188Y-158314482D01*
X56840498Y-158434180D01*
X56899463Y-158544494D01*
X56978815Y-158641185D01*
X57075506Y-158720537D01*
X57185820Y-158779502D01*
X57305518Y-158815812D01*
X57430000Y-158828072D01*
X59410000Y-158828072D01*
X59534482Y-158815812D01*
X59654180Y-158779502D01*
X59764494Y-158720537D01*
X59861185Y-158641185D01*
X59940537Y-158544494D01*
X59999502Y-158434180D01*
X60035812Y-158314482D01*
X60048072Y-158190000D01*
X60048072Y-157345000D01*
X61801420Y-157345000D01*
X61818514Y-157518556D01*
X61911433Y-157824869D01*
X62062326Y-158107170D01*
X62265393Y-158354608D01*
X62512831Y-158557675D01*
X62795132Y-158708568D01*
X63101445Y-158801487D01*
X63420000Y-158832862D01*
X63738556Y-158801487D01*
X64044869Y-158708568D01*
X64327170Y-158557675D01*
X64574608Y-158354608D01*
X64777675Y-158107170D01*
X64928568Y-157824869D01*
X65021487Y-157518556D01*
X65038581Y-157345000D01*
X66801420Y-157345000D01*
X66818514Y-157518556D01*
X66911433Y-157824869D01*
X67062326Y-158107170D01*
X67265393Y-158354608D01*
X67512831Y-158557675D01*
X67795132Y-158708568D01*
X68101445Y-158801487D01*
X68420000Y-158832862D01*
X68738556Y-158801487D01*
X69044869Y-158708568D01*
X69327170Y-158557675D01*
X69574608Y-158354608D01*
X69777675Y-158107170D01*
X69928568Y-157824869D01*
X70021487Y-157518556D01*
X70038581Y-157345000D01*
X71801420Y-157345000D01*
X71818514Y-157518556D01*
X71911433Y-157824869D01*
X72062326Y-158107170D01*
X72265393Y-158354608D01*
X72512831Y-158557675D01*
X72795132Y-158708568D01*
X73101445Y-158801487D01*
X73420000Y-158832862D01*
X73738556Y-158801487D01*
X74044869Y-158708568D01*
X74327170Y-158557675D01*
X74574608Y-158354608D01*
X74777675Y-158107170D01*
X74928568Y-157824869D01*
X75021487Y-157518556D01*
X75045000Y-157279824D01*
X75045000Y-156430131D01*
X75603332Y-155871800D01*
X88622601Y-155871800D01*
X88622600Y-160307287D01*
X88404095Y-160453288D01*
X88190288Y-160667095D01*
X88022301Y-160918505D01*
X87906589Y-161197857D01*
X87847600Y-161494416D01*
X87847600Y-161796784D01*
X87906589Y-162093343D01*
X88022301Y-162372695D01*
X88190288Y-162624105D01*
X88256727Y-162690544D01*
X88238420Y-162696098D01*
X88128106Y-162755063D01*
X88031415Y-162834415D01*
X87952063Y-162931106D01*
X87893098Y-163041420D01*
X87856788Y-163161118D01*
X87844528Y-163285600D01*
X87844528Y-165085600D01*
X87856788Y-165210082D01*
X87893098Y-165329780D01*
X87952063Y-165440094D01*
X88031415Y-165536785D01*
X88128106Y-165616137D01*
X88238420Y-165675102D01*
X88358118Y-165711412D01*
X88482600Y-165723672D01*
X90282600Y-165723672D01*
X90407082Y-165711412D01*
X90526780Y-165675102D01*
X90637094Y-165616137D01*
X90733785Y-165536785D01*
X90813137Y-165440094D01*
X90872102Y-165329780D01*
X90908412Y-165210082D01*
X90920672Y-165085600D01*
X90920672Y-164945600D01*
X94542689Y-164945600D01*
X94550101Y-164963495D01*
X94718088Y-165214905D01*
X94931895Y-165428712D01*
X95183305Y-165596699D01*
X95462657Y-165712411D01*
X95759216Y-165771400D01*
X96061584Y-165771400D01*
X96358143Y-165712411D01*
X96637495Y-165596699D01*
X96888905Y-165428712D01*
X97102712Y-165214905D01*
X97270699Y-164963495D01*
X97386411Y-164684143D01*
X97445400Y-164387584D01*
X97445400Y-164085216D01*
X97386411Y-163788657D01*
X97270699Y-163509305D01*
X97102712Y-163257895D01*
X97036273Y-163191456D01*
X97054580Y-163185902D01*
X97164894Y-163126937D01*
X97261585Y-163047585D01*
X97340937Y-162950894D01*
X97399902Y-162840580D01*
X97436212Y-162720882D01*
X97448472Y-162596400D01*
X97448472Y-160796400D01*
X97436212Y-160671918D01*
X97399902Y-160552220D01*
X97340937Y-160441906D01*
X97261585Y-160345215D01*
X97164894Y-160265863D01*
X97054580Y-160206898D01*
X96934882Y-160170588D01*
X96810400Y-160158328D01*
X95010400Y-160158328D01*
X94885918Y-160170588D01*
X94766220Y-160206898D01*
X94655906Y-160265863D01*
X94559215Y-160345215D01*
X94479863Y-160441906D01*
X94420898Y-160552220D01*
X94384588Y-160671918D01*
X94372328Y-160796400D01*
X94372328Y-160885600D01*
X90720913Y-160885600D01*
X90574912Y-160667095D01*
X90361105Y-160453288D01*
X90142600Y-160307287D01*
X90142600Y-155864980D01*
X90240099Y-155855377D01*
X90454047Y-155790476D01*
X90651223Y-155685084D01*
X90824049Y-155543249D01*
X90965884Y-155370423D01*
X91071276Y-155173247D01*
X91136177Y-154959299D01*
X91158091Y-154736800D01*
X91152600Y-154681048D01*
X91152600Y-154230000D01*
X116481928Y-154230000D01*
X116481928Y-158190000D01*
X116494188Y-158314482D01*
X116530498Y-158434180D01*
X116589463Y-158544494D01*
X116668815Y-158641185D01*
X116765506Y-158720537D01*
X116875820Y-158779502D01*
X116995518Y-158815812D01*
X117120000Y-158828072D01*
X119100000Y-158828072D01*
X119224482Y-158815812D01*
X119344180Y-158779502D01*
X119454494Y-158720537D01*
X119551185Y-158641185D01*
X119630537Y-158544494D01*
X119689502Y-158434180D01*
X119725812Y-158314482D01*
X119738072Y-158190000D01*
X119738072Y-155140177D01*
X121485000Y-155140177D01*
X121485001Y-157279824D01*
X121508514Y-157518556D01*
X121601433Y-157824869D01*
X121752326Y-158107170D01*
X121955393Y-158354608D01*
X122202831Y-158557675D01*
X122485132Y-158708568D01*
X122791445Y-158801487D01*
X123110000Y-158832862D01*
X123428556Y-158801487D01*
X123734869Y-158708568D01*
X124017170Y-158557675D01*
X124264608Y-158354608D01*
X124467675Y-158107170D01*
X124618568Y-157824869D01*
X124711487Y-157518556D01*
X124735000Y-157279824D01*
X124735000Y-155140177D01*
X126485000Y-155140177D01*
X126485001Y-157279824D01*
X126508514Y-157518556D01*
X126601433Y-157824869D01*
X126752326Y-158107170D01*
X126955393Y-158354608D01*
X127202831Y-158557675D01*
X127485132Y-158708568D01*
X127791445Y-158801487D01*
X128110000Y-158832862D01*
X128428556Y-158801487D01*
X128734869Y-158708568D01*
X129017170Y-158557675D01*
X129264608Y-158354608D01*
X129467675Y-158107170D01*
X129618568Y-157824869D01*
X129711487Y-157518556D01*
X129735000Y-157279824D01*
X129735000Y-155140177D01*
X131485000Y-155140177D01*
X131485001Y-157279824D01*
X131508514Y-157518556D01*
X131601433Y-157824869D01*
X131752326Y-158107170D01*
X131955393Y-158354608D01*
X132202831Y-158557675D01*
X132485132Y-158708568D01*
X132791445Y-158801487D01*
X133110000Y-158832862D01*
X133428556Y-158801487D01*
X133734869Y-158708568D01*
X134017170Y-158557675D01*
X134264608Y-158354608D01*
X134467675Y-158107170D01*
X134618568Y-157824869D01*
X134711487Y-157518556D01*
X134735000Y-157279824D01*
X134735000Y-155140176D01*
X134711487Y-154901444D01*
X134618568Y-154595131D01*
X134467675Y-154312830D01*
X134264608Y-154065392D01*
X134017169Y-153862325D01*
X133734868Y-153711432D01*
X133428555Y-153618513D01*
X133110000Y-153587138D01*
X132791444Y-153618513D01*
X132485131Y-153711432D01*
X132202830Y-153862325D01*
X131955392Y-154065392D01*
X131752325Y-154312831D01*
X131601432Y-154595132D01*
X131508513Y-154901445D01*
X131485000Y-155140177D01*
X129735000Y-155140177D01*
X129735000Y-155140176D01*
X129711487Y-154901444D01*
X129618568Y-154595131D01*
X129467675Y-154312830D01*
X129264608Y-154065392D01*
X129017169Y-153862325D01*
X128734868Y-153711432D01*
X128428555Y-153618513D01*
X128110000Y-153587138D01*
X127791444Y-153618513D01*
X127485131Y-153711432D01*
X127202830Y-153862325D01*
X126955392Y-154065392D01*
X126752325Y-154312831D01*
X126601432Y-154595132D01*
X126508513Y-154901445D01*
X126485000Y-155140177D01*
X124735000Y-155140177D01*
X124735000Y-155140176D01*
X124711487Y-154901444D01*
X124618568Y-154595131D01*
X124467675Y-154312830D01*
X124264608Y-154065392D01*
X124017169Y-153862325D01*
X123734868Y-153711432D01*
X123428555Y-153618513D01*
X123110000Y-153587138D01*
X122791444Y-153618513D01*
X122485131Y-153711432D01*
X122202830Y-153862325D01*
X121955392Y-154065392D01*
X121752325Y-154312831D01*
X121601432Y-154595132D01*
X121508513Y-154901445D01*
X121485000Y-155140177D01*
X119738072Y-155140177D01*
X119738072Y-154230000D01*
X119725812Y-154105518D01*
X119689502Y-153985820D01*
X119630537Y-153875506D01*
X119551185Y-153778815D01*
X119454494Y-153699463D01*
X119344180Y-153640498D01*
X119224482Y-153604188D01*
X119100000Y-153591928D01*
X117120000Y-153591928D01*
X116995518Y-153604188D01*
X116875820Y-153640498D01*
X116765506Y-153699463D01*
X116668815Y-153778815D01*
X116589463Y-153875506D01*
X116530498Y-153985820D01*
X116494188Y-154105518D01*
X116481928Y-154230000D01*
X91152600Y-154230000D01*
X91152600Y-153067793D01*
X91161958Y-153065932D01*
X91432211Y-152953990D01*
X91675432Y-152791475D01*
X91807287Y-152659620D01*
X91829298Y-152732180D01*
X91888263Y-152842494D01*
X91967615Y-152939185D01*
X92064306Y-153018537D01*
X92174620Y-153077502D01*
X92294318Y-153113812D01*
X92418800Y-153126072D01*
X94118800Y-153126072D01*
X94243282Y-153113812D01*
X94362980Y-153077502D01*
X94473294Y-153018537D01*
X94569985Y-152939185D01*
X94649337Y-152842494D01*
X94686483Y-152773000D01*
X104233916Y-152773000D01*
X104260058Y-152859180D01*
X104319023Y-152969494D01*
X104398375Y-153066185D01*
X104495066Y-153145537D01*
X104605380Y-153204502D01*
X104725078Y-153240812D01*
X104849560Y-153253072D01*
X106549560Y-153253072D01*
X106674042Y-153240812D01*
X106793740Y-153204502D01*
X106904054Y-153145537D01*
X107000745Y-153066185D01*
X107080097Y-152969494D01*
X107139062Y-152859180D01*
X107175372Y-152739482D01*
X107187632Y-152615000D01*
X107187632Y-150915000D01*
X107175372Y-150790518D01*
X107139062Y-150670820D01*
X107080097Y-150560506D01*
X107000745Y-150463815D01*
X106904054Y-150384463D01*
X106793861Y-150325563D01*
X106769853Y-144203336D01*
X106789389Y-144216390D01*
X107059642Y-144328332D01*
X107346540Y-144385400D01*
X107639060Y-144385400D01*
X107925958Y-144328332D01*
X108133915Y-144242194D01*
X108152253Y-144302647D01*
X108222825Y-144434677D01*
X108294000Y-144521403D01*
X108317799Y-144550402D01*
X108346797Y-144574200D01*
X108358995Y-144586398D01*
X108382798Y-144615402D01*
X108498523Y-144710375D01*
X108630552Y-144780947D01*
X108773813Y-144824404D01*
X108885466Y-144835401D01*
X108885477Y-144835401D01*
X108922799Y-144839077D01*
X108960122Y-144835401D01*
X111105479Y-144835401D01*
X111142801Y-144839077D01*
X111180123Y-144835401D01*
X111180134Y-144835401D01*
X111291787Y-144824404D01*
X111435048Y-144780947D01*
X111567077Y-144710375D01*
X111682802Y-144615402D01*
X111706605Y-144586398D01*
X119371405Y-136921599D01*
X119400402Y-136897802D01*
X119495375Y-136782077D01*
X119565947Y-136650048D01*
X119609404Y-136506787D01*
X119620401Y-136395134D01*
X119620401Y-136395133D01*
X119624078Y-136357801D01*
X119620401Y-136320468D01*
X119620401Y-130553068D01*
X128733700Y-130553068D01*
X128733700Y-130914532D01*
X128804218Y-131269050D01*
X128942544Y-131602999D01*
X129143362Y-131903544D01*
X129398956Y-132159138D01*
X129699501Y-132359956D01*
X130033450Y-132498282D01*
X130387968Y-132568800D01*
X130749432Y-132568800D01*
X131103950Y-132498282D01*
X131437899Y-132359956D01*
X131738444Y-132159138D01*
X131994038Y-131903544D01*
X132194856Y-131602999D01*
X132333182Y-131269050D01*
X132403700Y-130914532D01*
X132403700Y-130553068D01*
X132333182Y-130198550D01*
X132194856Y-129864601D01*
X131994038Y-129564056D01*
X131738444Y-129308462D01*
X131437899Y-129107644D01*
X131103950Y-128969318D01*
X130749432Y-128898800D01*
X130387968Y-128898800D01*
X130033450Y-128969318D01*
X129699501Y-129107644D01*
X129398956Y-129308462D01*
X129143362Y-129564056D01*
X128942544Y-129864601D01*
X128804218Y-130198550D01*
X128733700Y-130553068D01*
X119620401Y-130553068D01*
X119620401Y-128962632D01*
X119624078Y-128925299D01*
X119609404Y-128776313D01*
X119565947Y-128633052D01*
X119538872Y-128582399D01*
X119495375Y-128501023D01*
X119400402Y-128385298D01*
X119371398Y-128361495D01*
X119047205Y-128037302D01*
X119023402Y-128008298D01*
X118907677Y-127913325D01*
X118775648Y-127842753D01*
X118632387Y-127799296D01*
X118520734Y-127788299D01*
X118520723Y-127788299D01*
X118483401Y-127784623D01*
X118446079Y-127788299D01*
X116092872Y-127788299D01*
X116092872Y-126708800D01*
X116080612Y-126584318D01*
X116044302Y-126464620D01*
X115985337Y-126354306D01*
X115905985Y-126257615D01*
X115809294Y-126178263D01*
X115698980Y-126119298D01*
X115579282Y-126082988D01*
X115454800Y-126070728D01*
X113754800Y-126070728D01*
X113630318Y-126082988D01*
X113510620Y-126119298D01*
X113400306Y-126178263D01*
X113303615Y-126257615D01*
X113224263Y-126354306D01*
X113165298Y-126464620D01*
X113128988Y-126584318D01*
X113116728Y-126708800D01*
X113116728Y-127371401D01*
X110788400Y-127371401D01*
X110788400Y-127304461D01*
X110748626Y-127104502D01*
X110670605Y-126916144D01*
X110557337Y-126746626D01*
X110490076Y-126679365D01*
X110590155Y-121959000D01*
X110759608Y-121959000D01*
X110759608Y-123659000D01*
X110771868Y-123783482D01*
X110808178Y-123903180D01*
X110867143Y-124013494D01*
X110946495Y-124110185D01*
X111043186Y-124189537D01*
X111153500Y-124248502D01*
X111273198Y-124284812D01*
X111397680Y-124297072D01*
X113097680Y-124297072D01*
X113222162Y-124284812D01*
X113341860Y-124248502D01*
X113452174Y-124189537D01*
X113548865Y-124110185D01*
X113628217Y-124013494D01*
X113687182Y-123903180D01*
X113723492Y-123783482D01*
X113735752Y-123659000D01*
X113735752Y-121959000D01*
X113723492Y-121834518D01*
X113687182Y-121714820D01*
X113628217Y-121604506D01*
X113548865Y-121507815D01*
X113452174Y-121428463D01*
X113341860Y-121369498D01*
X113222162Y-121333188D01*
X113097680Y-121320928D01*
X111397680Y-121320928D01*
X111273198Y-121333188D01*
X111153500Y-121369498D01*
X111043186Y-121428463D01*
X110946495Y-121507815D01*
X110867143Y-121604506D01*
X110808178Y-121714820D01*
X110771868Y-121834518D01*
X110759608Y-121959000D01*
X110590155Y-121959000D01*
X110626983Y-120221971D01*
X110628011Y-120210444D01*
X110627774Y-120184646D01*
X110628320Y-120158886D01*
X110627431Y-120147361D01*
X110543848Y-111055414D01*
X110690685Y-111055414D01*
X110890644Y-111015640D01*
X111079002Y-110937619D01*
X111248520Y-110824351D01*
X111392683Y-110680188D01*
X111505951Y-110510670D01*
X111583972Y-110322312D01*
X111623746Y-110122353D01*
X111623746Y-109918475D01*
X111583972Y-109718516D01*
X111505951Y-109530158D01*
X111392683Y-109360640D01*
X111348746Y-109316703D01*
X111348746Y-105533368D01*
X111352422Y-105496045D01*
X111348746Y-105458722D01*
X111348746Y-105458713D01*
X111337749Y-105347060D01*
X111325474Y-105306595D01*
X111326616Y-105300855D01*
X111326616Y-105096977D01*
X111286842Y-104897018D01*
X111208821Y-104708660D01*
X111095553Y-104539142D01*
X110951390Y-104394979D01*
X110781872Y-104281711D01*
X110593514Y-104203690D01*
X110393555Y-104163916D01*
X110189677Y-104163916D01*
X109989718Y-104203690D01*
X109801360Y-104281711D01*
X109631842Y-104394979D01*
X109487679Y-104539142D01*
X109374411Y-104708660D01*
X109296390Y-104897018D01*
X109256616Y-105096977D01*
X109256616Y-105300855D01*
X109282710Y-105432041D01*
X109263542Y-105435854D01*
X109075184Y-105513875D01*
X108905666Y-105627143D01*
X108761503Y-105771306D01*
X108648235Y-105940824D01*
X108602400Y-106051479D01*
X108602400Y-104373552D01*
X108607891Y-104317800D01*
X108585977Y-104095301D01*
X108521076Y-103881353D01*
X108415684Y-103684177D01*
X108273849Y-103511351D01*
X108101023Y-103369516D01*
X107903847Y-103264124D01*
X107689899Y-103199223D01*
X107523152Y-103182800D01*
X107523151Y-103182800D01*
X107467400Y-103177309D01*
X107411648Y-103182800D01*
X90849400Y-103182800D01*
X90849400Y-103060161D01*
X90809626Y-102860202D01*
X90731605Y-102671844D01*
X90618337Y-102502326D01*
X90474174Y-102358163D01*
X90304656Y-102244895D01*
X90116298Y-102166874D01*
X89916339Y-102127100D01*
X89854202Y-102127100D01*
X89309163Y-101582061D01*
X89385405Y-101467956D01*
X89463426Y-101279598D01*
X89503200Y-101079639D01*
X89503200Y-100875761D01*
X89463426Y-100675802D01*
X89385405Y-100487444D01*
X89272137Y-100317926D01*
X89127974Y-100173763D01*
X88958456Y-100060495D01*
X88770098Y-99982474D01*
X88570139Y-99942700D01*
X88366261Y-99942700D01*
X88166302Y-99982474D01*
X87977944Y-100060495D01*
X87808426Y-100173763D01*
X87664263Y-100317926D01*
X87550995Y-100487444D01*
X87472974Y-100675802D01*
X87433200Y-100875761D01*
X87433200Y-101079639D01*
X87472974Y-101279598D01*
X87550995Y-101467956D01*
X87664263Y-101637474D01*
X87708200Y-101681411D01*
X87708200Y-101778578D01*
X87704524Y-101815900D01*
X87708200Y-101853222D01*
X87708200Y-101853233D01*
X87719198Y-101964886D01*
X87729880Y-102000100D01*
X87732194Y-102007729D01*
X87693839Y-102000100D01*
X87631702Y-102000100D01*
X86893705Y-101262104D01*
X86908905Y-101239356D01*
X86986926Y-101050998D01*
X87026700Y-100851039D01*
X87026700Y-100647161D01*
X86986926Y-100447202D01*
X86908905Y-100258844D01*
X86795637Y-100089326D01*
X86651474Y-99945163D01*
X86481956Y-99831895D01*
X86293598Y-99753874D01*
X86093639Y-99714100D01*
X85889761Y-99714100D01*
X85689802Y-99753874D01*
X85501444Y-99831895D01*
X85331926Y-99945163D01*
X85187763Y-100089326D01*
X85074495Y-100258844D01*
X84996474Y-100447202D01*
X84956700Y-100647161D01*
X84956700Y-100851039D01*
X84996474Y-101050998D01*
X85074495Y-101239356D01*
X85187763Y-101408874D01*
X85229579Y-101450690D01*
X85231700Y-101472222D01*
X85231700Y-101472233D01*
X85242697Y-101583886D01*
X85258953Y-101637474D01*
X85286154Y-101727146D01*
X85356726Y-101859176D01*
X85427901Y-101945902D01*
X85451700Y-101974901D01*
X85480698Y-101998699D01*
X86556900Y-103074902D01*
X86556900Y-103137039D01*
X86566002Y-103182800D01*
X84765424Y-103182800D01*
X84652099Y-103148423D01*
X84429600Y-103126509D01*
X84207102Y-103148423D01*
X83993154Y-103213324D01*
X83795978Y-103318716D01*
X83623152Y-103460551D01*
X83481317Y-103633377D01*
X83375924Y-103830553D01*
X83311023Y-104044501D01*
X83295344Y-104203690D01*
X83289109Y-104267000D01*
X83294600Y-104322751D01*
X83294600Y-104856151D01*
X83294601Y-104856161D01*
X83294601Y-105124500D01*
X83214237Y-105004226D01*
X83117580Y-104907569D01*
X83115846Y-104901853D01*
X83045274Y-104769824D01*
X82974099Y-104683097D01*
X82950301Y-104654099D01*
X82921304Y-104630302D01*
X82289600Y-103998599D01*
X82289600Y-103936461D01*
X82249826Y-103736502D01*
X82171805Y-103548144D01*
X82058537Y-103378626D01*
X81914374Y-103234463D01*
X81744856Y-103121195D01*
X81556498Y-103043174D01*
X81356539Y-103003400D01*
X81152661Y-103003400D01*
X80952702Y-103043174D01*
X80764344Y-103121195D01*
X80594826Y-103234463D01*
X80450663Y-103378626D01*
X80337395Y-103548144D01*
X80259374Y-103736502D01*
X80219600Y-103936461D01*
X80219600Y-104140339D01*
X80259374Y-104340298D01*
X80337395Y-104528656D01*
X80450663Y-104698174D01*
X80594826Y-104842337D01*
X80764344Y-104955605D01*
X80952702Y-105033626D01*
X81152661Y-105073400D01*
X81214799Y-105073400D01*
X81440974Y-105299575D01*
X81415074Y-105362102D01*
X81375300Y-105562061D01*
X81375300Y-105714441D01*
X77785260Y-104706003D01*
X77721730Y-104686626D01*
X77675984Y-104682050D01*
X77630719Y-104674015D01*
X77564340Y-104675388D01*
X61720000Y-104651161D01*
X61720000Y-99763711D01*
X61763937Y-99719774D01*
X61877205Y-99550256D01*
X61955226Y-99361898D01*
X61995000Y-99161939D01*
X61995000Y-98958061D01*
X61955226Y-98758102D01*
X61877205Y-98569744D01*
X61763937Y-98400226D01*
X61619774Y-98256063D01*
X61450256Y-98142795D01*
X61261898Y-98064774D01*
X61061939Y-98025000D01*
X60858061Y-98025000D01*
X60658102Y-98064774D01*
X60469744Y-98142795D01*
X60300226Y-98256063D01*
X60156063Y-98400226D01*
X60042795Y-98569744D01*
X59964774Y-98758102D01*
X59925000Y-98958061D01*
X59925000Y-99161939D01*
X59964774Y-99361898D01*
X60042795Y-99550256D01*
X60156063Y-99719774D01*
X60200000Y-99763711D01*
X60200001Y-104650000D01*
X51503711Y-104650000D01*
X51459774Y-104606063D01*
X51290256Y-104492795D01*
X51101898Y-104414774D01*
X50901939Y-104375000D01*
X50698061Y-104375000D01*
X50498102Y-104414774D01*
X50309744Y-104492795D01*
X50140226Y-104606063D01*
X49996063Y-104750226D01*
X49882795Y-104919744D01*
X49804774Y-105108102D01*
X49765000Y-105308061D01*
X49765000Y-105511939D01*
X49804774Y-105711898D01*
X49882795Y-105900256D01*
X49996063Y-106069774D01*
X50140226Y-106213937D01*
X50309744Y-106327205D01*
X50498102Y-106405226D01*
X50698061Y-106445000D01*
X50901939Y-106445000D01*
X51101898Y-106405226D01*
X51290256Y-106327205D01*
X51459774Y-106213937D01*
X51503711Y-106170000D01*
X60922667Y-106170000D01*
X60960000Y-106173677D01*
X60996753Y-106170057D01*
X77466317Y-106195240D01*
X80465119Y-107037600D01*
X80187022Y-107037600D01*
X80149699Y-107033924D01*
X80112376Y-107037600D01*
X80112367Y-107037600D01*
X80000714Y-107048597D01*
X79857453Y-107092054D01*
X79725424Y-107162626D01*
X79609699Y-107257599D01*
X79585901Y-107286597D01*
X78020749Y-108851750D01*
X77958611Y-108851750D01*
X77798200Y-108883657D01*
X77798200Y-108317533D01*
X77801877Y-108280200D01*
X77787203Y-108131214D01*
X77743746Y-107987953D01*
X77673174Y-107855924D01*
X77578201Y-107740199D01*
X77462476Y-107645226D01*
X77330447Y-107574654D01*
X77187186Y-107531197D01*
X77075533Y-107520200D01*
X77038200Y-107516523D01*
X77000867Y-107520200D01*
X47939802Y-107520200D01*
X47292800Y-106873199D01*
X47292800Y-103274400D01*
X50330878Y-103274400D01*
X50368200Y-103278076D01*
X50405522Y-103274400D01*
X50405533Y-103274400D01*
X50517186Y-103263403D01*
X50660447Y-103219946D01*
X50792476Y-103149374D01*
X50908201Y-103054401D01*
X50932004Y-103025397D01*
X56322640Y-97634761D01*
X81207700Y-97634761D01*
X81207700Y-97838639D01*
X81247474Y-98038598D01*
X81325495Y-98226956D01*
X81438763Y-98396474D01*
X81582926Y-98540637D01*
X81752444Y-98653905D01*
X81940802Y-98731926D01*
X82140761Y-98771700D01*
X82344639Y-98771700D01*
X82544598Y-98731926D01*
X82732956Y-98653905D01*
X82902474Y-98540637D01*
X82946411Y-98496700D01*
X85893378Y-98496700D01*
X85930700Y-98500376D01*
X85968022Y-98496700D01*
X85968033Y-98496700D01*
X86079686Y-98485703D01*
X86222947Y-98442246D01*
X86354976Y-98371674D01*
X86470701Y-98276701D01*
X86494504Y-98247697D01*
X87390402Y-97351800D01*
X87452539Y-97351800D01*
X87652498Y-97312026D01*
X87840856Y-97234005D01*
X88010374Y-97120737D01*
X88154537Y-96976574D01*
X88267805Y-96807056D01*
X88307427Y-96711400D01*
X90637728Y-96711400D01*
X90637728Y-98411400D01*
X90649988Y-98535882D01*
X90686298Y-98655580D01*
X90745263Y-98765894D01*
X90824615Y-98862585D01*
X90921306Y-98941937D01*
X91031620Y-99000902D01*
X91151318Y-99037212D01*
X91275800Y-99049472D01*
X92975800Y-99049472D01*
X93100282Y-99037212D01*
X93219980Y-99000902D01*
X93330294Y-98941937D01*
X93426985Y-98862585D01*
X93506337Y-98765894D01*
X93565302Y-98655580D01*
X93601612Y-98535882D01*
X93613872Y-98411400D01*
X93613872Y-96711400D01*
X93601612Y-96586918D01*
X93565302Y-96467220D01*
X93506337Y-96356906D01*
X93426985Y-96260215D01*
X93330294Y-96180863D01*
X93219980Y-96121898D01*
X93100282Y-96085588D01*
X92975800Y-96073328D01*
X91275800Y-96073328D01*
X91151318Y-96085588D01*
X91031620Y-96121898D01*
X90921306Y-96180863D01*
X90824615Y-96260215D01*
X90745263Y-96356906D01*
X90686298Y-96467220D01*
X90649988Y-96586918D01*
X90637728Y-96711400D01*
X88307427Y-96711400D01*
X88345826Y-96618698D01*
X88385600Y-96418739D01*
X88385600Y-96214861D01*
X88345826Y-96014902D01*
X88267805Y-95826544D01*
X88154537Y-95657026D01*
X88010374Y-95512863D01*
X87840856Y-95399595D01*
X87652498Y-95321574D01*
X87452539Y-95281800D01*
X87248661Y-95281800D01*
X87048702Y-95321574D01*
X86860344Y-95399595D01*
X86690826Y-95512863D01*
X86546663Y-95657026D01*
X86433395Y-95826544D01*
X86355374Y-96014902D01*
X86315600Y-96214861D01*
X86315600Y-96276998D01*
X85615899Y-96976700D01*
X82946411Y-96976700D01*
X82902474Y-96932763D01*
X82732956Y-96819495D01*
X82544598Y-96741474D01*
X82344639Y-96701700D01*
X82140761Y-96701700D01*
X81940802Y-96741474D01*
X81752444Y-96819495D01*
X81582926Y-96932763D01*
X81438763Y-97076926D01*
X81325495Y-97246444D01*
X81247474Y-97434802D01*
X81207700Y-97634761D01*
X56322640Y-97634761D01*
X56640801Y-97316601D01*
X56791498Y-97286626D01*
X56979856Y-97208605D01*
X57149374Y-97095337D01*
X57293537Y-96951174D01*
X57406805Y-96781656D01*
X57484826Y-96593298D01*
X57524600Y-96393339D01*
X57524600Y-96189461D01*
X57484826Y-95989502D01*
X57406805Y-95801144D01*
X57293537Y-95631626D01*
X57149374Y-95487463D01*
X56979856Y-95374195D01*
X56791498Y-95296174D01*
X56591539Y-95256400D01*
X56387661Y-95256400D01*
X56187702Y-95296174D01*
X55999344Y-95374195D01*
X55829826Y-95487463D01*
X55685663Y-95631626D01*
X55572395Y-95801144D01*
X55494374Y-95989502D01*
X55454600Y-96189461D01*
X55454600Y-96353198D01*
X50053399Y-101754400D01*
X46570133Y-101754400D01*
X46532800Y-101750723D01*
X46495467Y-101754400D01*
X46383814Y-101765397D01*
X46240553Y-101808854D01*
X46108524Y-101879426D01*
X45992799Y-101974399D01*
X45897826Y-102090124D01*
X45827254Y-102222153D01*
X45783797Y-102365414D01*
X45769123Y-102514400D01*
X40083582Y-102514400D01*
X40311158Y-102469132D01*
X40581411Y-102357190D01*
X40824632Y-102194675D01*
X41031475Y-101987832D01*
X41193990Y-101744611D01*
X41305932Y-101474358D01*
X41363000Y-101187460D01*
X41363000Y-100894940D01*
X41305932Y-100608042D01*
X41193990Y-100337789D01*
X41031475Y-100094568D01*
X40824632Y-99887725D01*
X40650240Y-99771200D01*
X40824632Y-99654675D01*
X41031475Y-99447832D01*
X41193990Y-99204611D01*
X41305932Y-98934358D01*
X41363000Y-98647460D01*
X41363000Y-98354940D01*
X41305932Y-98068042D01*
X41193990Y-97797789D01*
X41031475Y-97554568D01*
X40899620Y-97422713D01*
X40972180Y-97400702D01*
X41082494Y-97341737D01*
X41179185Y-97262385D01*
X41258537Y-97165694D01*
X41317502Y-97055380D01*
X41353812Y-96935682D01*
X41366072Y-96811200D01*
X41366072Y-95268530D01*
X42656603Y-93978000D01*
X80652489Y-93978000D01*
X80696426Y-94021937D01*
X80865944Y-94135205D01*
X81054302Y-94213226D01*
X81254261Y-94253000D01*
X81458139Y-94253000D01*
X81658098Y-94213226D01*
X81846456Y-94135205D01*
X82015974Y-94021937D01*
X82160137Y-93877774D01*
X82273405Y-93708256D01*
X82351426Y-93519898D01*
X82391200Y-93319939D01*
X82391200Y-93116061D01*
X82353554Y-92926800D01*
X83322528Y-92926800D01*
X83322528Y-94626800D01*
X83334788Y-94751282D01*
X83371098Y-94870980D01*
X83430063Y-94981294D01*
X83509415Y-95077985D01*
X83606106Y-95157337D01*
X83716420Y-95216302D01*
X83836118Y-95252612D01*
X83960600Y-95264872D01*
X85660600Y-95264872D01*
X85785082Y-95252612D01*
X85904780Y-95216302D01*
X86015094Y-95157337D01*
X86111785Y-95077985D01*
X86191137Y-94981294D01*
X86250102Y-94870980D01*
X86286412Y-94751282D01*
X86298672Y-94626800D01*
X86298672Y-92926800D01*
X86286412Y-92802318D01*
X86250102Y-92682620D01*
X86191137Y-92572306D01*
X86111785Y-92475615D01*
X86015094Y-92396263D01*
X85904780Y-92337298D01*
X85785082Y-92300988D01*
X85660600Y-92288728D01*
X83960600Y-92288728D01*
X83836118Y-92300988D01*
X83716420Y-92337298D01*
X83606106Y-92396263D01*
X83509415Y-92475615D01*
X83430063Y-92572306D01*
X83371098Y-92682620D01*
X83334788Y-92802318D01*
X83322528Y-92926800D01*
X82353554Y-92926800D01*
X82351426Y-92916102D01*
X82273405Y-92727744D01*
X82160137Y-92558226D01*
X82015974Y-92414063D01*
X81846456Y-92300795D01*
X81658098Y-92222774D01*
X81458139Y-92183000D01*
X81254261Y-92183000D01*
X81054302Y-92222774D01*
X80865944Y-92300795D01*
X80696426Y-92414063D01*
X80652489Y-92458000D01*
X55681647Y-92458000D01*
X55707985Y-92436385D01*
X55787337Y-92339694D01*
X55846302Y-92229380D01*
X55882612Y-92109682D01*
X55894872Y-91985200D01*
X55894872Y-90285200D01*
X55882612Y-90160718D01*
X55846302Y-90041020D01*
X55787337Y-89930706D01*
X55707985Y-89834015D01*
X55611294Y-89754663D01*
X55500980Y-89695698D01*
X55381282Y-89659388D01*
X55256800Y-89647128D01*
X53556800Y-89647128D01*
X53432318Y-89659388D01*
X53312620Y-89695698D01*
X53202306Y-89754663D01*
X53105615Y-89834015D01*
X53026263Y-89930706D01*
X52967298Y-90041020D01*
X52930988Y-90160718D01*
X52918728Y-90285200D01*
X52918728Y-91985200D01*
X52930988Y-92109682D01*
X52967298Y-92229380D01*
X53026263Y-92339694D01*
X53105615Y-92436385D01*
X53131953Y-92458000D01*
X42379122Y-92458000D01*
X42341799Y-92454324D01*
X42304476Y-92458000D01*
X42304467Y-92458000D01*
X42192814Y-92468997D01*
X42049553Y-92512454D01*
X41917524Y-92583026D01*
X41917522Y-92583027D01*
X41917523Y-92583027D01*
X41830796Y-92654201D01*
X41830792Y-92654205D01*
X41801799Y-92677999D01*
X41778005Y-92706992D01*
X40011870Y-94473128D01*
X39028000Y-94473128D01*
X38903518Y-94485388D01*
X38783820Y-94521698D01*
X38673506Y-94580663D01*
X38576815Y-94660015D01*
X38497463Y-94756706D01*
X38438498Y-94867020D01*
X38402188Y-94986718D01*
X38389928Y-95111200D01*
X26060000Y-95111200D01*
X26060000Y-82854461D01*
X30308600Y-82854461D01*
X30308600Y-83058339D01*
X30348374Y-83258298D01*
X30426395Y-83446656D01*
X30539663Y-83616174D01*
X30683826Y-83760337D01*
X30853344Y-83873605D01*
X31041702Y-83951626D01*
X31241661Y-83991400D01*
X31303799Y-83991400D01*
X32811801Y-85499403D01*
X32835599Y-85528401D01*
X32864597Y-85552199D01*
X32951323Y-85623374D01*
X33008624Y-85654002D01*
X33083353Y-85693946D01*
X33226614Y-85737403D01*
X33338267Y-85748400D01*
X33338277Y-85748400D01*
X33375600Y-85752076D01*
X33412923Y-85748400D01*
X54267867Y-85748400D01*
X54305200Y-85752077D01*
X54342533Y-85748400D01*
X54454186Y-85737403D01*
X54597447Y-85693946D01*
X54729476Y-85623374D01*
X54845201Y-85528401D01*
X54940174Y-85412676D01*
X55010746Y-85280647D01*
X55054203Y-85137386D01*
X55068877Y-84988400D01*
X55065200Y-84951067D01*
X55065200Y-82899804D01*
X55140498Y-82884826D01*
X55328856Y-82806805D01*
X55498374Y-82693537D01*
X55569556Y-82622355D01*
X56263001Y-83315801D01*
X56263000Y-85814667D01*
X56259323Y-85852000D01*
X56267442Y-85934434D01*
X56227944Y-85950795D01*
X56058426Y-86064063D01*
X55914263Y-86208226D01*
X55800995Y-86377744D01*
X55722974Y-86566102D01*
X55683200Y-86766061D01*
X55683200Y-86969939D01*
X55722974Y-87169898D01*
X55791196Y-87334598D01*
X38061445Y-85936817D01*
X38041387Y-85932305D01*
X37986989Y-85930947D01*
X37970114Y-85929617D01*
X37949664Y-85930016D01*
X37891727Y-85928570D01*
X37874956Y-85931473D01*
X37857943Y-85931805D01*
X37801326Y-85944219D01*
X37744214Y-85954105D01*
X37728335Y-85960223D01*
X37711709Y-85963868D01*
X37658614Y-85987084D01*
X37604517Y-86007926D01*
X37590127Y-86017030D01*
X37574542Y-86023845D01*
X37527009Y-86056964D01*
X37478004Y-86087969D01*
X37465668Y-86099704D01*
X37451711Y-86109429D01*
X37411553Y-86151184D01*
X37396717Y-86165298D01*
X37385646Y-86178122D01*
X37347936Y-86217332D01*
X37336852Y-86234642D01*
X34551681Y-89460800D01*
X32199711Y-89460800D01*
X32155774Y-89416863D01*
X31986256Y-89303595D01*
X31797898Y-89225574D01*
X31597939Y-89185800D01*
X31394061Y-89185800D01*
X31194102Y-89225574D01*
X31005744Y-89303595D01*
X30836226Y-89416863D01*
X30692063Y-89561026D01*
X30578795Y-89730544D01*
X30500774Y-89918902D01*
X30461000Y-90118861D01*
X30461000Y-90322739D01*
X30500774Y-90522698D01*
X30578795Y-90711056D01*
X30692063Y-90880574D01*
X30836226Y-91024737D01*
X31005744Y-91138005D01*
X31194102Y-91216026D01*
X31394061Y-91255800D01*
X31597939Y-91255800D01*
X31797898Y-91216026D01*
X31986256Y-91138005D01*
X32155774Y-91024737D01*
X32199711Y-90980800D01*
X34890159Y-90980800D01*
X34955472Y-90982430D01*
X35001792Y-90974412D01*
X35048586Y-90969803D01*
X35075393Y-90961671D01*
X35102985Y-90956895D01*
X35146842Y-90939998D01*
X35191847Y-90926346D01*
X35216555Y-90913139D01*
X35242682Y-90903073D01*
X35282406Y-90877941D01*
X35323876Y-90855774D01*
X35345528Y-90838004D01*
X35369195Y-90823031D01*
X35403255Y-90790629D01*
X35439601Y-90760801D01*
X35481069Y-90710272D01*
X36636757Y-89371600D01*
X36892128Y-89371600D01*
X36892128Y-91171600D01*
X36904388Y-91296082D01*
X36940698Y-91415780D01*
X36999663Y-91526094D01*
X37079015Y-91622785D01*
X37175706Y-91702137D01*
X37286020Y-91761102D01*
X37405718Y-91797412D01*
X37530200Y-91809672D01*
X39330200Y-91809672D01*
X39454682Y-91797412D01*
X39574380Y-91761102D01*
X39684694Y-91702137D01*
X39781385Y-91622785D01*
X39860737Y-91526094D01*
X39919702Y-91415780D01*
X39925256Y-91397473D01*
X39991695Y-91463912D01*
X40243105Y-91631899D01*
X40522457Y-91747611D01*
X40819016Y-91806600D01*
X41121384Y-91806600D01*
X41417943Y-91747611D01*
X41697295Y-91631899D01*
X41948705Y-91463912D01*
X42162512Y-91250105D01*
X42330499Y-90998695D01*
X42446211Y-90719343D01*
X42505200Y-90422784D01*
X42505200Y-90120416D01*
X42446211Y-89823857D01*
X42330499Y-89544505D01*
X42162512Y-89293095D01*
X41948705Y-89079288D01*
X41697295Y-88911301D01*
X41417943Y-88795589D01*
X41121384Y-88736600D01*
X40819016Y-88736600D01*
X40522457Y-88795589D01*
X40243105Y-88911301D01*
X39991695Y-89079288D01*
X39925256Y-89145727D01*
X39919702Y-89127420D01*
X39860737Y-89017106D01*
X39781385Y-88920415D01*
X39684694Y-88841063D01*
X39574380Y-88782098D01*
X39454682Y-88745788D01*
X39330200Y-88733528D01*
X37530200Y-88733528D01*
X37405718Y-88745788D01*
X37286020Y-88782098D01*
X37175706Y-88841063D01*
X37079015Y-88920415D01*
X36999663Y-89017106D01*
X36940698Y-89127420D01*
X36904388Y-89247118D01*
X36892128Y-89371600D01*
X36636757Y-89371600D01*
X38271444Y-87478089D01*
X56252405Y-88895675D01*
X56288437Y-88898557D01*
X56288858Y-88898549D01*
X56289286Y-88898583D01*
X56326119Y-88897865D01*
X71426350Y-88620378D01*
X71473515Y-88622941D01*
X71538016Y-88613715D01*
X71602722Y-88606139D01*
X71612032Y-88603127D01*
X71621714Y-88601742D01*
X71683152Y-88580118D01*
X71745160Y-88560057D01*
X71786401Y-88537029D01*
X74710677Y-87172461D01*
X76104800Y-87172461D01*
X76104800Y-87376339D01*
X76144574Y-87576298D01*
X76222595Y-87764656D01*
X76335863Y-87934174D01*
X76480026Y-88078337D01*
X76649544Y-88191605D01*
X76837902Y-88269626D01*
X77037861Y-88309400D01*
X77241739Y-88309400D01*
X77441698Y-88269626D01*
X77630056Y-88191605D01*
X77799574Y-88078337D01*
X77843511Y-88034400D01*
X86451599Y-88034400D01*
X95739000Y-97321802D01*
X95739000Y-97383939D01*
X95778774Y-97583898D01*
X95856795Y-97772256D01*
X95970063Y-97941774D01*
X96114226Y-98085937D01*
X96283744Y-98199205D01*
X96472102Y-98277226D01*
X96672061Y-98317000D01*
X96875939Y-98317000D01*
X97075898Y-98277226D01*
X97264256Y-98199205D01*
X97433774Y-98085937D01*
X97577937Y-97941774D01*
X97691205Y-97772256D01*
X97769226Y-97583898D01*
X97809000Y-97383939D01*
X97809000Y-97180061D01*
X97769226Y-96980102D01*
X97691205Y-96791744D01*
X97577937Y-96622226D01*
X97433774Y-96478063D01*
X97264256Y-96364795D01*
X97075898Y-96286774D01*
X96875939Y-96247000D01*
X96813802Y-96247000D01*
X87330204Y-86763403D01*
X87306401Y-86734399D01*
X87190676Y-86639426D01*
X87058647Y-86568854D01*
X86915386Y-86525397D01*
X86803733Y-86514400D01*
X86803722Y-86514400D01*
X86766400Y-86510724D01*
X86729078Y-86514400D01*
X77843511Y-86514400D01*
X77799574Y-86470463D01*
X77630056Y-86357195D01*
X77441698Y-86279174D01*
X77241739Y-86239400D01*
X77037861Y-86239400D01*
X76837902Y-86279174D01*
X76649544Y-86357195D01*
X76480026Y-86470463D01*
X76335863Y-86614626D01*
X76222595Y-86784144D01*
X76144574Y-86972502D01*
X76104800Y-87172461D01*
X74710677Y-87172461D01*
X79514706Y-84930736D01*
X79544774Y-85081898D01*
X79622795Y-85270256D01*
X79736063Y-85439774D01*
X79880226Y-85583937D01*
X80049744Y-85697205D01*
X80238102Y-85775226D01*
X80438061Y-85815000D01*
X80641939Y-85815000D01*
X80841898Y-85775226D01*
X81030256Y-85697205D01*
X81199774Y-85583937D01*
X81343937Y-85439774D01*
X81457205Y-85270256D01*
X81474700Y-85228021D01*
X94714619Y-80000000D01*
X99756289Y-80000000D01*
X99800226Y-80043937D01*
X99969744Y-80157205D01*
X100158102Y-80235226D01*
X100358061Y-80275000D01*
X100561939Y-80275000D01*
X100761898Y-80235226D01*
X100950256Y-80157205D01*
X101119774Y-80043937D01*
X101263937Y-79899774D01*
X101377205Y-79730256D01*
X101455226Y-79541898D01*
X101495000Y-79341939D01*
X101495000Y-79138061D01*
X101455226Y-78938102D01*
X101377205Y-78749744D01*
X101263937Y-78580226D01*
X101119774Y-78436063D01*
X100950256Y-78322795D01*
X100761898Y-78244774D01*
X100561939Y-78205000D01*
X100358061Y-78205000D01*
X100158102Y-78244774D01*
X99969744Y-78322795D01*
X99800226Y-78436063D01*
X99756289Y-78480000D01*
X94613664Y-78480000D01*
X94582695Y-78476429D01*
X94539003Y-78480000D01*
X94532667Y-78480000D01*
X94501775Y-78483043D01*
X94433485Y-78488624D01*
X94427357Y-78490372D01*
X94421014Y-78490997D01*
X94355403Y-78510900D01*
X94325596Y-78519403D01*
X94319715Y-78521725D01*
X94277753Y-78534454D01*
X94250251Y-78549154D01*
X87359401Y-81270132D01*
X92423088Y-78907241D01*
X92473747Y-78886805D01*
X92522047Y-78855175D01*
X92571734Y-78825742D01*
X92584566Y-78814233D01*
X92598988Y-78804788D01*
X92640188Y-78764343D01*
X92683180Y-78725782D01*
X92693524Y-78711984D01*
X92705821Y-78699913D01*
X92738335Y-78652214D01*
X92772982Y-78606000D01*
X92780434Y-78590452D01*
X92790142Y-78576211D01*
X92812732Y-78523071D01*
X92837691Y-78471001D01*
X92841965Y-78454306D01*
X92848711Y-78438437D01*
X92860503Y-78381893D01*
X92874819Y-78325971D01*
X92875754Y-78308761D01*
X92879274Y-78291882D01*
X92879808Y-78234144D01*
X92882941Y-78176485D01*
X92875203Y-78122389D01*
X92239814Y-70995738D01*
X92330535Y-70935120D01*
X92525120Y-70740535D01*
X92678005Y-70511727D01*
X92710000Y-70434485D01*
X92741995Y-70511727D01*
X92894880Y-70740535D01*
X93089465Y-70935120D01*
X93318273Y-71088005D01*
X93572510Y-71193314D01*
X93842408Y-71247000D01*
X94117592Y-71247000D01*
X94387490Y-71193314D01*
X94641727Y-71088005D01*
X94870535Y-70935120D01*
X95065120Y-70740535D01*
X95218005Y-70511727D01*
X95250000Y-70434485D01*
X95281995Y-70511727D01*
X95434880Y-70740535D01*
X95629465Y-70935120D01*
X95858273Y-71088005D01*
X96112510Y-71193314D01*
X96382408Y-71247000D01*
X96657592Y-71247000D01*
X96927490Y-71193314D01*
X97181727Y-71088005D01*
X97410535Y-70935120D01*
X97605120Y-70740535D01*
X97758005Y-70511727D01*
X97790000Y-70434485D01*
X97821995Y-70511727D01*
X97974880Y-70740535D01*
X98169465Y-70935120D01*
X98398273Y-71088005D01*
X98652510Y-71193314D01*
X98922408Y-71247000D01*
X99197592Y-71247000D01*
X99467490Y-71193314D01*
X99721727Y-71088005D01*
X99950535Y-70935120D01*
X100145120Y-70740535D01*
X100298005Y-70511727D01*
X100330000Y-70434485D01*
X100361995Y-70511727D01*
X100514880Y-70740535D01*
X100709465Y-70935120D01*
X100938273Y-71088005D01*
X101192510Y-71193314D01*
X101462408Y-71247000D01*
X101737592Y-71247000D01*
X102007490Y-71193314D01*
X102261727Y-71088005D01*
X102490535Y-70935120D01*
X102685120Y-70740535D01*
X102838005Y-70511727D01*
X102943314Y-70257490D01*
X102997000Y-69987592D01*
X102997000Y-69712408D01*
X102943314Y-69442510D01*
X102838005Y-69188273D01*
X102685120Y-68959465D01*
X102490535Y-68764880D01*
X102261727Y-68611995D01*
X102184485Y-68580000D01*
X102261727Y-68548005D01*
X102490535Y-68395120D01*
X102685120Y-68200535D01*
X102838005Y-67971727D01*
X102943314Y-67717490D01*
X102997000Y-67447592D01*
X102997000Y-67172408D01*
X102943314Y-66902510D01*
X102838005Y-66648273D01*
X102685120Y-66419465D01*
X102490535Y-66224880D01*
X102261727Y-66071995D01*
X102007490Y-65966686D01*
X101737592Y-65913000D01*
X101462408Y-65913000D01*
X101192510Y-65966686D01*
X100938273Y-66071995D01*
X100709465Y-66224880D01*
X100514880Y-66419465D01*
X100361995Y-66648273D01*
X100330000Y-66725515D01*
X100298005Y-66648273D01*
X100145120Y-66419465D01*
X99950535Y-66224880D01*
X99721727Y-66071995D01*
X99467490Y-65966686D01*
X99197592Y-65913000D01*
X98922408Y-65913000D01*
X98652510Y-65966686D01*
X98398273Y-66071995D01*
X98169465Y-66224880D01*
X97974880Y-66419465D01*
X97821995Y-66648273D01*
X97790000Y-66725515D01*
X97758005Y-66648273D01*
X97605120Y-66419465D01*
X97410535Y-66224880D01*
X97181727Y-66071995D01*
X96927490Y-65966686D01*
X96657592Y-65913000D01*
X96382408Y-65913000D01*
X96112510Y-65966686D01*
X95858273Y-66071995D01*
X95629465Y-66224880D01*
X95434880Y-66419465D01*
X95281995Y-66648273D01*
X95250000Y-66725515D01*
X95218005Y-66648273D01*
X95065120Y-66419465D01*
X94870535Y-66224880D01*
X94641727Y-66071995D01*
X94387490Y-65966686D01*
X94117592Y-65913000D01*
X93842408Y-65913000D01*
X93572510Y-65966686D01*
X93318273Y-66071995D01*
X93089465Y-66224880D01*
X92894880Y-66419465D01*
X92741995Y-66648273D01*
X92710000Y-66725515D01*
X92678005Y-66648273D01*
X92525120Y-66419465D01*
X92330535Y-66224880D01*
X92101727Y-66071995D01*
X91847490Y-65966686D01*
X91577592Y-65913000D01*
X91302408Y-65913000D01*
X91032510Y-65966686D01*
X90778273Y-66071995D01*
X90549465Y-66224880D01*
X90354880Y-66419465D01*
X90201995Y-66648273D01*
X90170000Y-66725515D01*
X90138005Y-66648273D01*
X89985120Y-66419465D01*
X89790535Y-66224880D01*
X89561727Y-66071995D01*
X89307490Y-65966686D01*
X89037592Y-65913000D01*
X88762408Y-65913000D01*
X88492510Y-65966686D01*
X88238273Y-66071995D01*
X88009465Y-66224880D01*
X87814880Y-66419465D01*
X87661995Y-66648273D01*
X87630000Y-66725515D01*
X87598005Y-66648273D01*
X87445120Y-66419465D01*
X87250535Y-66224880D01*
X87021727Y-66071995D01*
X86767490Y-65966686D01*
X86497592Y-65913000D01*
X86222408Y-65913000D01*
X85952510Y-65966686D01*
X85698273Y-66071995D01*
X85469465Y-66224880D01*
X85274880Y-66419465D01*
X85121995Y-66648273D01*
X85090000Y-66725515D01*
X85058005Y-66648273D01*
X84905120Y-66419465D01*
X84710535Y-66224880D01*
X84481727Y-66071995D01*
X84227490Y-65966686D01*
X83957592Y-65913000D01*
X83682408Y-65913000D01*
X83412510Y-65966686D01*
X83158273Y-66071995D01*
X82929465Y-66224880D01*
X82734880Y-66419465D01*
X82581995Y-66648273D01*
X82550000Y-66725515D01*
X82518005Y-66648273D01*
X82365120Y-66419465D01*
X82170535Y-66224880D01*
X81941727Y-66071995D01*
X81687490Y-65966686D01*
X81417592Y-65913000D01*
X81142408Y-65913000D01*
X80872510Y-65966686D01*
X80618273Y-66071995D01*
X80389465Y-66224880D01*
X80194880Y-66419465D01*
X80041995Y-66648273D01*
X80010000Y-66725515D01*
X79978005Y-66648273D01*
X79825120Y-66419465D01*
X79630535Y-66224880D01*
X79401727Y-66071995D01*
X79147490Y-65966686D01*
X78877592Y-65913000D01*
X78602408Y-65913000D01*
X78332510Y-65966686D01*
X78078273Y-66071995D01*
X77849465Y-66224880D01*
X77654880Y-66419465D01*
X77501995Y-66648273D01*
X77470000Y-66725515D01*
X77438005Y-66648273D01*
X77285120Y-66419465D01*
X77090535Y-66224880D01*
X76861727Y-66071995D01*
X76607490Y-65966686D01*
X76337592Y-65913000D01*
X76062408Y-65913000D01*
X75792510Y-65966686D01*
X75538273Y-66071995D01*
X75309465Y-66224880D01*
X75114880Y-66419465D01*
X74961995Y-66648273D01*
X74930000Y-66725515D01*
X74898005Y-66648273D01*
X74745120Y-66419465D01*
X74550535Y-66224880D01*
X74321727Y-66071995D01*
X74067490Y-65966686D01*
X73797592Y-65913000D01*
X73522408Y-65913000D01*
X73252510Y-65966686D01*
X72998273Y-66071995D01*
X72769465Y-66224880D01*
X72574880Y-66419465D01*
X72421995Y-66648273D01*
X72390000Y-66725515D01*
X72358005Y-66648273D01*
X72205120Y-66419465D01*
X72010535Y-66224880D01*
X71781727Y-66071995D01*
X71527490Y-65966686D01*
X71257592Y-65913000D01*
X70982408Y-65913000D01*
X70712510Y-65966686D01*
X70458273Y-66071995D01*
X70229465Y-66224880D01*
X70034880Y-66419465D01*
X69881995Y-66648273D01*
X69850000Y-66725515D01*
X69818005Y-66648273D01*
X69665120Y-66419465D01*
X69470535Y-66224880D01*
X69241727Y-66071995D01*
X68987490Y-65966686D01*
X68717592Y-65913000D01*
X68442408Y-65913000D01*
X68172510Y-65966686D01*
X67918273Y-66071995D01*
X67689465Y-66224880D01*
X67494880Y-66419465D01*
X67341995Y-66648273D01*
X67310000Y-66725515D01*
X67278005Y-66648273D01*
X67125120Y-66419465D01*
X66930535Y-66224880D01*
X66701727Y-66071995D01*
X66447490Y-65966686D01*
X66177592Y-65913000D01*
X65902408Y-65913000D01*
X65632510Y-65966686D01*
X65378273Y-66071995D01*
X65149465Y-66224880D01*
X64954880Y-66419465D01*
X64801995Y-66648273D01*
X64770000Y-66725515D01*
X64738005Y-66648273D01*
X64585120Y-66419465D01*
X64390535Y-66224880D01*
X64161727Y-66071995D01*
X63907490Y-65966686D01*
X63637592Y-65913000D01*
X63362408Y-65913000D01*
X63092510Y-65966686D01*
X62838273Y-66071995D01*
X62609465Y-66224880D01*
X62414880Y-66419465D01*
X62261995Y-66648273D01*
X62156686Y-66902510D01*
X62103000Y-67172408D01*
X62103000Y-67447592D01*
X62156686Y-67717490D01*
X62261995Y-67971727D01*
X62414880Y-68200535D01*
X62609465Y-68395120D01*
X62838273Y-68548005D01*
X62915515Y-68580000D01*
X62838273Y-68611995D01*
X62609465Y-68764880D01*
X62414880Y-68959465D01*
X62261995Y-69188273D01*
X62230000Y-69265515D01*
X62198005Y-69188273D01*
X62045120Y-68959465D01*
X61850535Y-68764880D01*
X61621727Y-68611995D01*
X61367490Y-68506686D01*
X61097592Y-68453000D01*
X60822408Y-68453000D01*
X60552510Y-68506686D01*
X60298273Y-68611995D01*
X60069465Y-68764880D01*
X59874880Y-68959465D01*
X59721995Y-69188273D01*
X59616686Y-69442510D01*
X59563000Y-69712408D01*
X59563000Y-69987592D01*
X59616686Y-70257490D01*
X59721995Y-70511727D01*
X59874880Y-70740535D01*
X60069465Y-70935120D01*
X60200000Y-71022341D01*
X60200001Y-82826428D01*
X60198100Y-82826428D01*
X60073618Y-82838688D01*
X59953920Y-82874998D01*
X59843606Y-82933963D01*
X59746915Y-83013315D01*
X59667563Y-83110006D01*
X59608598Y-83220320D01*
X59572288Y-83340018D01*
X59560028Y-83464500D01*
X59560028Y-85064500D01*
X59562736Y-85092000D01*
X57783000Y-85092000D01*
X57783000Y-83038320D01*
X57786676Y-83000997D01*
X57783000Y-82963674D01*
X57783000Y-82963665D01*
X57772003Y-82852012D01*
X57728546Y-82708751D01*
X57657974Y-82576722D01*
X57563001Y-82460997D01*
X57534003Y-82437199D01*
X55750405Y-80653602D01*
X55726602Y-80624598D01*
X55610877Y-80529625D01*
X55478848Y-80459053D01*
X55335587Y-80415596D01*
X55223934Y-80404599D01*
X55223923Y-80404599D01*
X55222896Y-80404498D01*
X55267498Y-80395626D01*
X55455856Y-80317605D01*
X55625374Y-80204337D01*
X55769537Y-80060174D01*
X55882805Y-79890656D01*
X55960826Y-79702298D01*
X56000600Y-79502339D01*
X56000600Y-79298461D01*
X55960826Y-79098502D01*
X55882805Y-78910144D01*
X55769537Y-78740626D01*
X55625374Y-78596463D01*
X55455856Y-78483195D01*
X55267498Y-78405174D01*
X55067539Y-78365400D01*
X54863661Y-78365400D01*
X54663702Y-78405174D01*
X54475344Y-78483195D01*
X54305826Y-78596463D01*
X54261889Y-78640400D01*
X34942911Y-78640400D01*
X34898974Y-78596463D01*
X34729456Y-78483195D01*
X34541098Y-78405174D01*
X34341139Y-78365400D01*
X34137261Y-78365400D01*
X33937302Y-78405174D01*
X33748944Y-78483195D01*
X33579426Y-78596463D01*
X33435263Y-78740626D01*
X33321995Y-78910144D01*
X33243974Y-79098502D01*
X33204200Y-79298461D01*
X33204200Y-79502339D01*
X33243974Y-79702298D01*
X33321995Y-79890656D01*
X33435263Y-80060174D01*
X33579426Y-80204337D01*
X33748944Y-80317605D01*
X33937302Y-80395626D01*
X34137261Y-80435400D01*
X34341139Y-80435400D01*
X34541098Y-80395626D01*
X34729456Y-80317605D01*
X34898974Y-80204337D01*
X34942911Y-80160400D01*
X54261889Y-80160400D01*
X54305826Y-80204337D01*
X54475344Y-80317605D01*
X54663702Y-80395626D01*
X54708813Y-80404599D01*
X43104123Y-80404599D01*
X43066800Y-80400923D01*
X43029477Y-80404599D01*
X43029468Y-80404599D01*
X42917815Y-80415596D01*
X42774554Y-80459053D01*
X42642525Y-80529625D01*
X42642523Y-80529626D01*
X42642524Y-80529626D01*
X42555797Y-80600800D01*
X42555793Y-80600804D01*
X42526800Y-80624598D01*
X42503006Y-80653591D01*
X41593125Y-81563473D01*
X41392543Y-81480389D01*
X41095984Y-81421400D01*
X40793616Y-81421400D01*
X40497057Y-81480389D01*
X40217705Y-81596101D01*
X39966295Y-81764088D01*
X39899856Y-81830527D01*
X39894302Y-81812220D01*
X39835337Y-81701906D01*
X39755985Y-81605215D01*
X39659294Y-81525863D01*
X39548980Y-81466898D01*
X39429282Y-81430588D01*
X39304800Y-81418328D01*
X37504800Y-81418328D01*
X37380318Y-81430588D01*
X37260620Y-81466898D01*
X37150306Y-81525863D01*
X37053615Y-81605215D01*
X36974263Y-81701906D01*
X36915298Y-81812220D01*
X36878988Y-81931918D01*
X36866728Y-82056400D01*
X36866728Y-83856400D01*
X36878988Y-83980882D01*
X36915298Y-84100580D01*
X36974263Y-84210894D01*
X36988630Y-84228400D01*
X33690402Y-84228400D01*
X32378600Y-82916599D01*
X32378600Y-82854461D01*
X32338826Y-82654502D01*
X32260805Y-82466144D01*
X32147537Y-82296626D01*
X32003374Y-82152463D01*
X31833856Y-82039195D01*
X31645498Y-81961174D01*
X31445539Y-81921400D01*
X31241661Y-81921400D01*
X31041702Y-81961174D01*
X30853344Y-82039195D01*
X30683826Y-82152463D01*
X30539663Y-82296626D01*
X30426395Y-82466144D01*
X30348374Y-82654502D01*
X30308600Y-82854461D01*
X26060000Y-82854461D01*
X26060000Y-74588800D01*
X36968328Y-74588800D01*
X36968328Y-76388800D01*
X36980588Y-76513282D01*
X37016898Y-76632980D01*
X37075863Y-76743294D01*
X37155215Y-76839985D01*
X37251906Y-76919337D01*
X37362220Y-76978302D01*
X37481918Y-77014612D01*
X37606400Y-77026872D01*
X39406400Y-77026872D01*
X39530882Y-77014612D01*
X39650580Y-76978302D01*
X39760894Y-76919337D01*
X39857585Y-76839985D01*
X39936937Y-76743294D01*
X39995902Y-76632980D01*
X40001456Y-76614673D01*
X40067895Y-76681112D01*
X40319305Y-76849099D01*
X40598657Y-76964811D01*
X40895216Y-77023800D01*
X41197584Y-77023800D01*
X41494143Y-76964811D01*
X41773495Y-76849099D01*
X42024905Y-76681112D01*
X42238712Y-76467305D01*
X42406699Y-76215895D01*
X42522411Y-75936543D01*
X42581400Y-75639984D01*
X42581400Y-75337616D01*
X42522411Y-75041057D01*
X42406699Y-74761705D01*
X42238712Y-74510295D01*
X42024905Y-74296488D01*
X41773495Y-74128501D01*
X41494143Y-74012789D01*
X41197584Y-73953800D01*
X40895216Y-73953800D01*
X40598657Y-74012789D01*
X40319305Y-74128501D01*
X40067895Y-74296488D01*
X40001456Y-74362927D01*
X39995902Y-74344620D01*
X39936937Y-74234306D01*
X39857585Y-74137615D01*
X39760894Y-74058263D01*
X39650580Y-73999298D01*
X39530882Y-73962988D01*
X39406400Y-73950728D01*
X37606400Y-73950728D01*
X37481918Y-73962988D01*
X37362220Y-73999298D01*
X37251906Y-74058263D01*
X37155215Y-74137615D01*
X37075863Y-74234306D01*
X37016898Y-74344620D01*
X36980588Y-74464318D01*
X36968328Y-74588800D01*
X26060000Y-74588800D01*
X26060000Y-65430000D01*
X139040000Y-65430000D01*
X139040001Y-174600000D01*
G36*
X91592268Y-122359517D02*
G01*
X91514247Y-122547875D01*
X91474473Y-122747834D01*
X91474473Y-122951712D01*
X91514247Y-123151671D01*
X91592268Y-123340029D01*
X91705536Y-123509547D01*
X91771771Y-123575782D01*
X91872455Y-126800554D01*
X91850183Y-126822826D01*
X91736915Y-126992344D01*
X91658894Y-127180702D01*
X91619120Y-127380661D01*
X91619120Y-127584539D01*
X91658894Y-127784498D01*
X91736915Y-127972856D01*
X91850183Y-128142374D01*
X91994346Y-128286537D01*
X92163864Y-128399805D01*
X92260510Y-128439838D01*
X92232814Y-128506702D01*
X92193040Y-128706661D01*
X92193040Y-128910539D01*
X92232814Y-129110498D01*
X92310835Y-129298856D01*
X92424103Y-129468374D01*
X92568266Y-129612537D01*
X92737784Y-129725805D01*
X92926142Y-129803826D01*
X93126101Y-129843600D01*
X93329979Y-129843600D01*
X93529938Y-129803826D01*
X93718296Y-129725805D01*
X93887814Y-129612537D01*
X94031977Y-129468374D01*
X94145245Y-129298856D01*
X94223266Y-129110498D01*
X94263040Y-128910539D01*
X94263040Y-128832826D01*
X94333585Y-128700848D01*
X94377042Y-128557587D01*
X94388039Y-128445934D01*
X94388039Y-128445924D01*
X94391715Y-128408602D01*
X94388039Y-128371279D01*
X94388039Y-124092872D01*
X94437796Y-124098453D01*
X94442410Y-124098485D01*
X94442578Y-124098503D01*
X94442746Y-124098488D01*
X94447360Y-124098520D01*
X100797360Y-124098520D01*
X100861505Y-124092230D01*
X100906041Y-124088178D01*
X100906040Y-128079369D01*
X100862103Y-128123306D01*
X100748835Y-128292824D01*
X100670814Y-128481182D01*
X100631040Y-128681141D01*
X100631040Y-128885019D01*
X100670814Y-129084978D01*
X100748835Y-129273336D01*
X100862103Y-129442854D01*
X101006266Y-129587017D01*
X101175784Y-129700285D01*
X101364142Y-129778306D01*
X101564101Y-129818080D01*
X101767979Y-129818080D01*
X101967938Y-129778306D01*
X102156296Y-129700285D01*
X102325814Y-129587017D01*
X102469977Y-129442854D01*
X102583245Y-129273336D01*
X102661266Y-129084978D01*
X102701040Y-128885019D01*
X102701040Y-128681141D01*
X102661266Y-128481182D01*
X102583245Y-128292824D01*
X102469977Y-128123306D01*
X102426040Y-128079369D01*
X102426040Y-127156160D01*
X102499499Y-127156160D01*
X102535284Y-127149042D01*
X108097799Y-131079356D01*
X108097799Y-131644558D01*
X108081646Y-131635924D01*
X107867698Y-131571023D01*
X107679440Y-131552481D01*
X107679440Y-131470061D01*
X107639666Y-131270102D01*
X107561645Y-131081744D01*
X107448377Y-130912226D01*
X107304214Y-130768063D01*
X107134696Y-130654795D01*
X106946338Y-130576774D01*
X106746379Y-130537000D01*
X106542501Y-130537000D01*
X106342542Y-130576774D01*
X106154184Y-130654795D01*
X105984666Y-130768063D01*
X105840503Y-130912226D01*
X105727235Y-131081744D01*
X105649214Y-131270102D01*
X105609440Y-131470061D01*
X105609440Y-131673939D01*
X105649214Y-131873898D01*
X105727235Y-132062256D01*
X105840503Y-132231774D01*
X105884440Y-132275711D01*
X105884441Y-133494648D01*
X105774463Y-133604626D01*
X105661195Y-133774144D01*
X105583174Y-133962502D01*
X105543400Y-134162461D01*
X105543400Y-134366339D01*
X105583174Y-134566298D01*
X105661195Y-134754656D01*
X105774463Y-134924174D01*
X105918626Y-135068337D01*
X106088144Y-135181605D01*
X106276502Y-135259626D01*
X106476461Y-135299400D01*
X106680339Y-135299400D01*
X106874247Y-135260830D01*
X106871290Y-136334293D01*
X106871290Y-136334294D01*
X106868336Y-137406461D01*
X106568510Y-137469425D01*
X106562360Y-137469914D01*
X106562360Y-136113520D01*
X106556070Y-136049375D01*
X106550227Y-135985164D01*
X106549548Y-135982858D01*
X106549314Y-135980469D01*
X106530694Y-135918797D01*
X106512481Y-135856914D01*
X106511368Y-135854784D01*
X106510674Y-135852487D01*
X106480444Y-135795634D01*
X106450544Y-135738439D01*
X106449037Y-135736565D01*
X106447911Y-135734447D01*
X106407203Y-135684534D01*
X106366774Y-135634251D01*
X106364933Y-135632707D01*
X106363416Y-135630846D01*
X106313744Y-135589754D01*
X106264362Y-135548317D01*
X106262258Y-135547160D01*
X106260407Y-135545629D01*
X106203721Y-135514979D01*
X106147210Y-135483912D01*
X106144918Y-135483185D01*
X106142808Y-135482044D01*
X106081276Y-135462996D01*
X106019780Y-135443489D01*
X106017392Y-135443221D01*
X106015098Y-135442511D01*
X105950994Y-135435774D01*
X105886924Y-135428587D01*
X105882310Y-135428555D01*
X105882142Y-135428537D01*
X105881974Y-135428552D01*
X105877360Y-135428520D01*
X101482360Y-135428520D01*
X101482360Y-134843520D01*
X101476070Y-134779375D01*
X101470227Y-134715164D01*
X101469548Y-134712858D01*
X101469314Y-134710469D01*
X101450694Y-134648797D01*
X101432481Y-134586914D01*
X101431368Y-134584784D01*
X101430674Y-134582487D01*
X101400444Y-134525634D01*
X101370544Y-134468439D01*
X101369037Y-134466565D01*
X101367911Y-134464447D01*
X101327203Y-134414534D01*
X101286774Y-134364251D01*
X101284933Y-134362707D01*
X101283416Y-134360846D01*
X101233744Y-134319754D01*
X101184362Y-134278317D01*
X101182258Y-134277160D01*
X101180407Y-134275629D01*
X101123721Y-134244979D01*
X101067210Y-134213912D01*
X101064918Y-134213185D01*
X101062808Y-134212044D01*
X101001276Y-134192996D01*
X100939780Y-134173489D01*
X100937392Y-134173221D01*
X100935098Y-134172511D01*
X100870994Y-134165774D01*
X100806924Y-134158587D01*
X100802310Y-134158555D01*
X100802142Y-134158537D01*
X100801974Y-134158552D01*
X100797360Y-134158520D01*
X94447360Y-134158520D01*
X94383215Y-134164810D01*
X94319004Y-134170653D01*
X94316698Y-134171332D01*
X94314309Y-134171566D01*
X94252637Y-134190186D01*
X94190754Y-134208399D01*
X94188624Y-134209512D01*
X94186327Y-134210206D01*
X94129474Y-134240436D01*
X94072279Y-134270336D01*
X94070405Y-134271843D01*
X94068287Y-134272969D01*
X94018374Y-134313677D01*
X93968091Y-134354106D01*
X93966547Y-134355947D01*
X93964686Y-134357464D01*
X93923594Y-134407136D01*
X93882157Y-134456518D01*
X93881000Y-134458622D01*
X93879469Y-134460473D01*
X93848819Y-134517159D01*
X93817752Y-134573670D01*
X93817025Y-134575962D01*
X93815884Y-134578072D01*
X93796836Y-134639604D01*
X93777329Y-134701100D01*
X93777061Y-134703488D01*
X93776351Y-134705782D01*
X93769614Y-134769886D01*
X93762427Y-134833956D01*
X93762395Y-134838570D01*
X93762377Y-134838738D01*
X93762392Y-134838906D01*
X93762360Y-134843520D01*
X93762360Y-135428520D01*
X89730200Y-135428520D01*
X89730200Y-132796152D01*
X89735691Y-132740400D01*
X89729266Y-132675160D01*
X89713777Y-132517901D01*
X89648876Y-132303953D01*
X89543484Y-132106777D01*
X89401649Y-131933951D01*
X89228823Y-131792116D01*
X89031647Y-131686724D01*
X88817699Y-131621823D01*
X88595200Y-131599909D01*
X88539449Y-131605400D01*
X88539448Y-131605400D01*
X88372701Y-131621823D01*
X88158753Y-131686724D01*
X87961577Y-131792116D01*
X87788751Y-131933951D01*
X87646916Y-132106777D01*
X87541524Y-132303953D01*
X87476623Y-132517901D01*
X87454709Y-132740400D01*
X87460201Y-132796162D01*
X87460200Y-138636269D01*
X87131599Y-138307668D01*
X87131599Y-130934248D01*
X87215944Y-130990605D01*
X87404302Y-131068626D01*
X87604261Y-131108400D01*
X87808139Y-131108400D01*
X88008098Y-131068626D01*
X88196456Y-130990605D01*
X88365974Y-130877337D01*
X88510137Y-130733174D01*
X88623405Y-130563656D01*
X88701426Y-130375298D01*
X88741200Y-130175339D01*
X88741200Y-129971461D01*
X88723376Y-129881852D01*
X88806056Y-129847605D01*
X88975574Y-129734337D01*
X89119737Y-129590174D01*
X89233005Y-129420656D01*
X89311026Y-129232298D01*
X89311722Y-129228800D01*
X89408339Y-129228800D01*
X89608298Y-129189026D01*
X89796656Y-129111005D01*
X89966174Y-128997737D01*
X90110337Y-128853574D01*
X90223605Y-128684056D01*
X90301626Y-128495698D01*
X90341400Y-128295739D01*
X90341400Y-128091861D01*
X90301626Y-127891902D01*
X90223605Y-127703544D01*
X90110337Y-127534026D01*
X89966174Y-127389863D01*
X89796656Y-127276595D01*
X89710000Y-127240701D01*
X89710000Y-122193520D01*
X91703183Y-122193520D01*
X91592268Y-122359517D01*
G37*
X91592268Y-122359517D02*
X91514247Y-122547875D01*
X91474473Y-122747834D01*
X91474473Y-122951712D01*
X91514247Y-123151671D01*
X91592268Y-123340029D01*
X91705536Y-123509547D01*
X91771771Y-123575782D01*
X91872455Y-126800554D01*
X91850183Y-126822826D01*
X91736915Y-126992344D01*
X91658894Y-127180702D01*
X91619120Y-127380661D01*
X91619120Y-127584539D01*
X91658894Y-127784498D01*
X91736915Y-127972856D01*
X91850183Y-128142374D01*
X91994346Y-128286537D01*
X92163864Y-128399805D01*
X92260510Y-128439838D01*
X92232814Y-128506702D01*
X92193040Y-128706661D01*
X92193040Y-128910539D01*
X92232814Y-129110498D01*
X92310835Y-129298856D01*
X92424103Y-129468374D01*
X92568266Y-129612537D01*
X92737784Y-129725805D01*
X92926142Y-129803826D01*
X93126101Y-129843600D01*
X93329979Y-129843600D01*
X93529938Y-129803826D01*
X93718296Y-129725805D01*
X93887814Y-129612537D01*
X94031977Y-129468374D01*
X94145245Y-129298856D01*
X94223266Y-129110498D01*
X94263040Y-128910539D01*
X94263040Y-128832826D01*
X94333585Y-128700848D01*
X94377042Y-128557587D01*
X94388039Y-128445934D01*
X94388039Y-128445924D01*
X94391715Y-128408602D01*
X94388039Y-128371279D01*
X94388039Y-124092872D01*
X94437796Y-124098453D01*
X94442410Y-124098485D01*
X94442578Y-124098503D01*
X94442746Y-124098488D01*
X94447360Y-124098520D01*
X100797360Y-124098520D01*
X100861505Y-124092230D01*
X100906041Y-124088178D01*
X100906040Y-128079369D01*
X100862103Y-128123306D01*
X100748835Y-128292824D01*
X100670814Y-128481182D01*
X100631040Y-128681141D01*
X100631040Y-128885019D01*
X100670814Y-129084978D01*
X100748835Y-129273336D01*
X100862103Y-129442854D01*
X101006266Y-129587017D01*
X101175784Y-129700285D01*
X101364142Y-129778306D01*
X101564101Y-129818080D01*
X101767979Y-129818080D01*
X101967938Y-129778306D01*
X102156296Y-129700285D01*
X102325814Y-129587017D01*
X102469977Y-129442854D01*
X102583245Y-129273336D01*
X102661266Y-129084978D01*
X102701040Y-128885019D01*
X102701040Y-128681141D01*
X102661266Y-128481182D01*
X102583245Y-128292824D01*
X102469977Y-128123306D01*
X102426040Y-128079369D01*
X102426040Y-127156160D01*
X102499499Y-127156160D01*
X102535284Y-127149042D01*
X108097799Y-131079356D01*
X108097799Y-131644558D01*
X108081646Y-131635924D01*
X107867698Y-131571023D01*
X107679440Y-131552481D01*
X107679440Y-131470061D01*
X107639666Y-131270102D01*
X107561645Y-131081744D01*
X107448377Y-130912226D01*
X107304214Y-130768063D01*
X107134696Y-130654795D01*
X106946338Y-130576774D01*
X106746379Y-130537000D01*
X106542501Y-130537000D01*
X106342542Y-130576774D01*
X106154184Y-130654795D01*
X105984666Y-130768063D01*
X105840503Y-130912226D01*
X105727235Y-131081744D01*
X105649214Y-131270102D01*
X105609440Y-131470061D01*
X105609440Y-131673939D01*
X105649214Y-131873898D01*
X105727235Y-132062256D01*
X105840503Y-132231774D01*
X105884440Y-132275711D01*
X105884441Y-133494648D01*
X105774463Y-133604626D01*
X105661195Y-133774144D01*
X105583174Y-133962502D01*
X105543400Y-134162461D01*
X105543400Y-134366339D01*
X105583174Y-134566298D01*
X105661195Y-134754656D01*
X105774463Y-134924174D01*
X105918626Y-135068337D01*
X106088144Y-135181605D01*
X106276502Y-135259626D01*
X106476461Y-135299400D01*
X106680339Y-135299400D01*
X106874247Y-135260830D01*
X106871290Y-136334293D01*
X106871290Y-136334294D01*
X106868336Y-137406461D01*
X106568510Y-137469425D01*
X106562360Y-137469914D01*
X106562360Y-136113520D01*
X106556070Y-136049375D01*
X106550227Y-135985164D01*
X106549548Y-135982858D01*
X106549314Y-135980469D01*
X106530694Y-135918797D01*
X106512481Y-135856914D01*
X106511368Y-135854784D01*
X106510674Y-135852487D01*
X106480444Y-135795634D01*
X106450544Y-135738439D01*
X106449037Y-135736565D01*
X106447911Y-135734447D01*
X106407203Y-135684534D01*
X106366774Y-135634251D01*
X106364933Y-135632707D01*
X106363416Y-135630846D01*
X106313744Y-135589754D01*
X106264362Y-135548317D01*
X106262258Y-135547160D01*
X106260407Y-135545629D01*
X106203721Y-135514979D01*
X106147210Y-135483912D01*
X106144918Y-135483185D01*
X106142808Y-135482044D01*
X106081276Y-135462996D01*
X106019780Y-135443489D01*
X106017392Y-135443221D01*
X106015098Y-135442511D01*
X105950994Y-135435774D01*
X105886924Y-135428587D01*
X105882310Y-135428555D01*
X105882142Y-135428537D01*
X105881974Y-135428552D01*
X105877360Y-135428520D01*
X101482360Y-135428520D01*
X101482360Y-134843520D01*
X101476070Y-134779375D01*
X101470227Y-134715164D01*
X101469548Y-134712858D01*
X101469314Y-134710469D01*
X101450694Y-134648797D01*
X101432481Y-134586914D01*
X101431368Y-134584784D01*
X101430674Y-134582487D01*
X101400444Y-134525634D01*
X101370544Y-134468439D01*
X101369037Y-134466565D01*
X101367911Y-134464447D01*
X101327203Y-134414534D01*
X101286774Y-134364251D01*
X101284933Y-134362707D01*
X101283416Y-134360846D01*
X101233744Y-134319754D01*
X101184362Y-134278317D01*
X101182258Y-134277160D01*
X101180407Y-134275629D01*
X101123721Y-134244979D01*
X101067210Y-134213912D01*
X101064918Y-134213185D01*
X101062808Y-134212044D01*
X101001276Y-134192996D01*
X100939780Y-134173489D01*
X100937392Y-134173221D01*
X100935098Y-134172511D01*
X100870994Y-134165774D01*
X100806924Y-134158587D01*
X100802310Y-134158555D01*
X100802142Y-134158537D01*
X100801974Y-134158552D01*
X100797360Y-134158520D01*
X94447360Y-134158520D01*
X94383215Y-134164810D01*
X94319004Y-134170653D01*
X94316698Y-134171332D01*
X94314309Y-134171566D01*
X94252637Y-134190186D01*
X94190754Y-134208399D01*
X94188624Y-134209512D01*
X94186327Y-134210206D01*
X94129474Y-134240436D01*
X94072279Y-134270336D01*
X94070405Y-134271843D01*
X94068287Y-134272969D01*
X94018374Y-134313677D01*
X93968091Y-134354106D01*
X93966547Y-134355947D01*
X93964686Y-134357464D01*
X93923594Y-134407136D01*
X93882157Y-134456518D01*
X93881000Y-134458622D01*
X93879469Y-134460473D01*
X93848819Y-134517159D01*
X93817752Y-134573670D01*
X93817025Y-134575962D01*
X93815884Y-134578072D01*
X93796836Y-134639604D01*
X93777329Y-134701100D01*
X93777061Y-134703488D01*
X93776351Y-134705782D01*
X93769614Y-134769886D01*
X93762427Y-134833956D01*
X93762395Y-134838570D01*
X93762377Y-134838738D01*
X93762392Y-134838906D01*
X93762360Y-134843520D01*
X93762360Y-135428520D01*
X89730200Y-135428520D01*
X89730200Y-132796152D01*
X89735691Y-132740400D01*
X89729266Y-132675160D01*
X89713777Y-132517901D01*
X89648876Y-132303953D01*
X89543484Y-132106777D01*
X89401649Y-131933951D01*
X89228823Y-131792116D01*
X89031647Y-131686724D01*
X88817699Y-131621823D01*
X88595200Y-131599909D01*
X88539449Y-131605400D01*
X88539448Y-131605400D01*
X88372701Y-131621823D01*
X88158753Y-131686724D01*
X87961577Y-131792116D01*
X87788751Y-131933951D01*
X87646916Y-132106777D01*
X87541524Y-132303953D01*
X87476623Y-132517901D01*
X87454709Y-132740400D01*
X87460201Y-132796162D01*
X87460200Y-138636269D01*
X87131599Y-138307668D01*
X87131599Y-130934248D01*
X87215944Y-130990605D01*
X87404302Y-131068626D01*
X87604261Y-131108400D01*
X87808139Y-131108400D01*
X88008098Y-131068626D01*
X88196456Y-130990605D01*
X88365974Y-130877337D01*
X88510137Y-130733174D01*
X88623405Y-130563656D01*
X88701426Y-130375298D01*
X88741200Y-130175339D01*
X88741200Y-129971461D01*
X88723376Y-129881852D01*
X88806056Y-129847605D01*
X88975574Y-129734337D01*
X89119737Y-129590174D01*
X89233005Y-129420656D01*
X89311026Y-129232298D01*
X89311722Y-129228800D01*
X89408339Y-129228800D01*
X89608298Y-129189026D01*
X89796656Y-129111005D01*
X89966174Y-128997737D01*
X90110337Y-128853574D01*
X90223605Y-128684056D01*
X90301626Y-128495698D01*
X90341400Y-128295739D01*
X90341400Y-128091861D01*
X90301626Y-127891902D01*
X90223605Y-127703544D01*
X90110337Y-127534026D01*
X89966174Y-127389863D01*
X89796656Y-127276595D01*
X89710000Y-127240701D01*
X89710000Y-122193520D01*
X91703183Y-122193520D01*
X91592268Y-122359517D01*
G36*
X87555800Y-125443011D02*
G01*
X87542742Y-125425868D01*
X87532002Y-125406754D01*
X87497490Y-125366460D01*
X87488057Y-125354077D01*
X87473198Y-125338100D01*
X87434615Y-125293053D01*
X87422312Y-125283382D01*
X87411653Y-125271921D01*
X87363544Y-125237188D01*
X87316916Y-125200537D01*
X87302966Y-125193454D01*
X87290273Y-125184290D01*
X87236316Y-125159613D01*
X87183431Y-125132760D01*
X87168362Y-125128533D01*
X87154130Y-125122024D01*
X87096397Y-125108347D01*
X87039287Y-125092328D01*
X87023687Y-125091122D01*
X87008455Y-125087514D01*
X86949171Y-125085364D01*
X86927427Y-125083683D01*
X86911872Y-125084010D01*
X86858847Y-125082087D01*
X86837199Y-125085583D01*
X86455292Y-125093623D01*
X86383400Y-112177064D01*
X86383400Y-109306201D01*
X86907802Y-108781800D01*
X86969939Y-108781800D01*
X87169898Y-108742026D01*
X87358256Y-108664005D01*
X87527774Y-108550737D01*
X87555801Y-108522710D01*
X87555800Y-125443011D01*
G37*
X87555800Y-125443011D02*
X87542742Y-125425868D01*
X87532002Y-125406754D01*
X87497490Y-125366460D01*
X87488057Y-125354077D01*
X87473198Y-125338100D01*
X87434615Y-125293053D01*
X87422312Y-125283382D01*
X87411653Y-125271921D01*
X87363544Y-125237188D01*
X87316916Y-125200537D01*
X87302966Y-125193454D01*
X87290273Y-125184290D01*
X87236316Y-125159613D01*
X87183431Y-125132760D01*
X87168362Y-125128533D01*
X87154130Y-125122024D01*
X87096397Y-125108347D01*
X87039287Y-125092328D01*
X87023687Y-125091122D01*
X87008455Y-125087514D01*
X86949171Y-125085364D01*
X86927427Y-125083683D01*
X86911872Y-125084010D01*
X86858847Y-125082087D01*
X86837199Y-125085583D01*
X86455292Y-125093623D01*
X86383400Y-112177064D01*
X86383400Y-109306201D01*
X86907802Y-108781800D01*
X86969939Y-108781800D01*
X87169898Y-108742026D01*
X87358256Y-108664005D01*
X87527774Y-108550737D01*
X87555801Y-108522710D01*
X87555800Y-125443011D01*
G36*
X73611201Y-78058001D02*
G01*
X73611200Y-78645889D01*
X73567263Y-78689826D01*
X73453995Y-78859344D01*
X73375974Y-79047702D01*
X73336200Y-79247661D01*
X73336200Y-79451539D01*
X73375974Y-79651498D01*
X73453995Y-79839856D01*
X73567263Y-80009374D01*
X73711426Y-80153537D01*
X73880944Y-80266805D01*
X74069302Y-80344826D01*
X74269261Y-80384600D01*
X74473139Y-80384600D01*
X74673098Y-80344826D01*
X74861456Y-80266805D01*
X75030974Y-80153537D01*
X75175137Y-80009374D01*
X75243280Y-79907391D01*
X75286226Y-79950337D01*
X75455744Y-80063605D01*
X75644102Y-80141626D01*
X75844061Y-80181400D01*
X76047939Y-80181400D01*
X76247898Y-80141626D01*
X76436256Y-80063605D01*
X76605774Y-79950337D01*
X76749937Y-79806174D01*
X76863205Y-79636656D01*
X76941226Y-79448298D01*
X76981000Y-79248339D01*
X76981000Y-79044461D01*
X76941226Y-78844502D01*
X76896214Y-78735835D01*
X76919801Y-78755192D01*
X77601214Y-79436606D01*
X77619463Y-82029026D01*
X77580463Y-82068026D01*
X77467195Y-82237544D01*
X77389174Y-82425902D01*
X77349400Y-82625861D01*
X77349400Y-82829739D01*
X77389174Y-83029698D01*
X77467195Y-83218056D01*
X77580463Y-83387574D01*
X77724626Y-83531737D01*
X77894144Y-83645005D01*
X78082502Y-83723026D01*
X78282461Y-83762800D01*
X78423043Y-83762800D01*
X71264779Y-87103092D01*
X66538864Y-87189937D01*
X70564204Y-83164598D01*
X70593201Y-83140801D01*
X70660876Y-83058339D01*
X70688174Y-83025077D01*
X70758746Y-82893047D01*
X70770451Y-82854461D01*
X70802203Y-82749786D01*
X70813200Y-82638133D01*
X70813200Y-82638124D01*
X70816876Y-82600801D01*
X70813200Y-82563478D01*
X70813200Y-81882111D01*
X70857137Y-81838174D01*
X70970405Y-81668656D01*
X71048426Y-81480298D01*
X71088200Y-81280339D01*
X71088200Y-81076461D01*
X71048426Y-80876502D01*
X70970405Y-80688144D01*
X70857137Y-80518626D01*
X70813200Y-80474689D01*
X70813200Y-78775401D01*
X72074202Y-77514400D01*
X72136339Y-77514400D01*
X72336298Y-77474626D01*
X72524656Y-77396605D01*
X72694174Y-77283337D01*
X72765356Y-77212155D01*
X73611201Y-78058001D01*
G37*
X73611201Y-78058001D02*
X73611200Y-78645889D01*
X73567263Y-78689826D01*
X73453995Y-78859344D01*
X73375974Y-79047702D01*
X73336200Y-79247661D01*
X73336200Y-79451539D01*
X73375974Y-79651498D01*
X73453995Y-79839856D01*
X73567263Y-80009374D01*
X73711426Y-80153537D01*
X73880944Y-80266805D01*
X74069302Y-80344826D01*
X74269261Y-80384600D01*
X74473139Y-80384600D01*
X74673098Y-80344826D01*
X74861456Y-80266805D01*
X75030974Y-80153537D01*
X75175137Y-80009374D01*
X75243280Y-79907391D01*
X75286226Y-79950337D01*
X75455744Y-80063605D01*
X75644102Y-80141626D01*
X75844061Y-80181400D01*
X76047939Y-80181400D01*
X76247898Y-80141626D01*
X76436256Y-80063605D01*
X76605774Y-79950337D01*
X76749937Y-79806174D01*
X76863205Y-79636656D01*
X76941226Y-79448298D01*
X76981000Y-79248339D01*
X76981000Y-79044461D01*
X76941226Y-78844502D01*
X76896214Y-78735835D01*
X76919801Y-78755192D01*
X77601214Y-79436606D01*
X77619463Y-82029026D01*
X77580463Y-82068026D01*
X77467195Y-82237544D01*
X77389174Y-82425902D01*
X77349400Y-82625861D01*
X77349400Y-82829739D01*
X77389174Y-83029698D01*
X77467195Y-83218056D01*
X77580463Y-83387574D01*
X77724626Y-83531737D01*
X77894144Y-83645005D01*
X78082502Y-83723026D01*
X78282461Y-83762800D01*
X78423043Y-83762800D01*
X71264779Y-87103092D01*
X66538864Y-87189937D01*
X70564204Y-83164598D01*
X70593201Y-83140801D01*
X70660876Y-83058339D01*
X70688174Y-83025077D01*
X70758746Y-82893047D01*
X70770451Y-82854461D01*
X70802203Y-82749786D01*
X70813200Y-82638133D01*
X70813200Y-82638124D01*
X70816876Y-82600801D01*
X70813200Y-82563478D01*
X70813200Y-81882111D01*
X70857137Y-81838174D01*
X70970405Y-81668656D01*
X71048426Y-81480298D01*
X71088200Y-81280339D01*
X71088200Y-81076461D01*
X71048426Y-80876502D01*
X70970405Y-80688144D01*
X70857137Y-80518626D01*
X70813200Y-80474689D01*
X70813200Y-78775401D01*
X72074202Y-77514400D01*
X72136339Y-77514400D01*
X72336298Y-77474626D01*
X72524656Y-77396605D01*
X72694174Y-77283337D01*
X72765356Y-77212155D01*
X73611201Y-78058001D01*
G36*
X62261995Y-70511727D02*
G01*
X62414880Y-70740535D01*
X62609465Y-70935120D01*
X62838273Y-71088005D01*
X63092510Y-71193314D01*
X63362408Y-71247000D01*
X63637592Y-71247000D01*
X63907490Y-71193314D01*
X63992329Y-71158172D01*
X64007611Y-75651078D01*
X63966063Y-75692626D01*
X63852795Y-75862144D01*
X63774774Y-76050502D01*
X63735000Y-76250461D01*
X63735000Y-76454339D01*
X63774774Y-76654298D01*
X63852795Y-76842656D01*
X63966063Y-77012174D01*
X64110226Y-77156337D01*
X64279744Y-77269605D01*
X64468102Y-77347626D01*
X64668061Y-77387400D01*
X64871939Y-77387400D01*
X65071898Y-77347626D01*
X65260256Y-77269605D01*
X65429774Y-77156337D01*
X65573937Y-77012174D01*
X65687205Y-76842656D01*
X65765226Y-76654298D01*
X65805000Y-76454339D01*
X65805000Y-76250461D01*
X65765226Y-76050502D01*
X65687205Y-75862144D01*
X65573937Y-75692626D01*
X65527602Y-75646291D01*
X65512286Y-71143516D01*
X65632510Y-71193314D01*
X65902408Y-71247000D01*
X66177592Y-71247000D01*
X66447490Y-71193314D01*
X66658932Y-71105731D01*
X71301645Y-75748444D01*
X71230463Y-75819626D01*
X71117195Y-75989144D01*
X71039174Y-76177502D01*
X70999400Y-76377461D01*
X70999400Y-76439598D01*
X69542198Y-77896801D01*
X69513200Y-77920599D01*
X69489402Y-77949597D01*
X69489401Y-77949598D01*
X69418226Y-78036324D01*
X69347654Y-78168354D01*
X69329199Y-78229195D01*
X69304198Y-78311614D01*
X69298491Y-78369557D01*
X69289524Y-78460600D01*
X69293201Y-78497932D01*
X69293200Y-80474689D01*
X69249263Y-80518626D01*
X69135995Y-80688144D01*
X69057974Y-80876502D01*
X69018200Y-81076461D01*
X69018200Y-81280339D01*
X69057974Y-81480298D01*
X69135995Y-81668656D01*
X69249263Y-81838174D01*
X69293201Y-81882112D01*
X69293200Y-82285998D01*
X65471199Y-86108000D01*
X65182401Y-86108000D01*
X67719403Y-83570999D01*
X67748401Y-83547201D01*
X67843374Y-83431476D01*
X67913946Y-83299447D01*
X67957403Y-83156186D01*
X67968400Y-83044533D01*
X67968400Y-83044525D01*
X67972076Y-83007200D01*
X67968400Y-82969875D01*
X67968400Y-81856711D01*
X68012337Y-81812774D01*
X68125605Y-81643256D01*
X68203626Y-81454898D01*
X68243400Y-81254939D01*
X68243400Y-81051061D01*
X68203626Y-80851102D01*
X68125605Y-80662744D01*
X68012337Y-80493226D01*
X67868174Y-80349063D01*
X67698656Y-80235795D01*
X67510298Y-80157774D01*
X67310339Y-80118000D01*
X67106461Y-80118000D01*
X66906502Y-80157774D01*
X66718144Y-80235795D01*
X66548626Y-80349063D01*
X66404463Y-80493226D01*
X66291195Y-80662744D01*
X66213174Y-80851102D01*
X66173400Y-81051061D01*
X66173400Y-81254939D01*
X66213174Y-81454898D01*
X66291195Y-81643256D01*
X66404463Y-81812774D01*
X66448400Y-81856711D01*
X66448401Y-82692397D01*
X64048799Y-85092000D01*
X62433464Y-85092000D01*
X62436172Y-85064500D01*
X62436172Y-83464500D01*
X62423912Y-83340018D01*
X62387602Y-83220320D01*
X62328637Y-83110006D01*
X62249285Y-83013315D01*
X62152594Y-82933963D01*
X62042280Y-82874998D01*
X61922582Y-82838688D01*
X61798100Y-82826428D01*
X61720000Y-82826428D01*
X61720000Y-71022341D01*
X61850535Y-70935120D01*
X62045120Y-70740535D01*
X62198005Y-70511727D01*
X62230000Y-70434485D01*
X62261995Y-70511727D01*
G37*
X62261995Y-70511727D02*
X62414880Y-70740535D01*
X62609465Y-70935120D01*
X62838273Y-71088005D01*
X63092510Y-71193314D01*
X63362408Y-71247000D01*
X63637592Y-71247000D01*
X63907490Y-71193314D01*
X63992329Y-71158172D01*
X64007611Y-75651078D01*
X63966063Y-75692626D01*
X63852795Y-75862144D01*
X63774774Y-76050502D01*
X63735000Y-76250461D01*
X63735000Y-76454339D01*
X63774774Y-76654298D01*
X63852795Y-76842656D01*
X63966063Y-77012174D01*
X64110226Y-77156337D01*
X64279744Y-77269605D01*
X64468102Y-77347626D01*
X64668061Y-77387400D01*
X64871939Y-77387400D01*
X65071898Y-77347626D01*
X65260256Y-77269605D01*
X65429774Y-77156337D01*
X65573937Y-77012174D01*
X65687205Y-76842656D01*
X65765226Y-76654298D01*
X65805000Y-76454339D01*
X65805000Y-76250461D01*
X65765226Y-76050502D01*
X65687205Y-75862144D01*
X65573937Y-75692626D01*
X65527602Y-75646291D01*
X65512286Y-71143516D01*
X65632510Y-71193314D01*
X65902408Y-71247000D01*
X66177592Y-71247000D01*
X66447490Y-71193314D01*
X66658932Y-71105731D01*
X71301645Y-75748444D01*
X71230463Y-75819626D01*
X71117195Y-75989144D01*
X71039174Y-76177502D01*
X70999400Y-76377461D01*
X70999400Y-76439598D01*
X69542198Y-77896801D01*
X69513200Y-77920599D01*
X69489402Y-77949597D01*
X69489401Y-77949598D01*
X69418226Y-78036324D01*
X69347654Y-78168354D01*
X69329199Y-78229195D01*
X69304198Y-78311614D01*
X69298491Y-78369557D01*
X69289524Y-78460600D01*
X69293201Y-78497932D01*
X69293200Y-80474689D01*
X69249263Y-80518626D01*
X69135995Y-80688144D01*
X69057974Y-80876502D01*
X69018200Y-81076461D01*
X69018200Y-81280339D01*
X69057974Y-81480298D01*
X69135995Y-81668656D01*
X69249263Y-81838174D01*
X69293201Y-81882112D01*
X69293200Y-82285998D01*
X65471199Y-86108000D01*
X65182401Y-86108000D01*
X67719403Y-83570999D01*
X67748401Y-83547201D01*
X67843374Y-83431476D01*
X67913946Y-83299447D01*
X67957403Y-83156186D01*
X67968400Y-83044533D01*
X67968400Y-83044525D01*
X67972076Y-83007200D01*
X67968400Y-82969875D01*
X67968400Y-81856711D01*
X68012337Y-81812774D01*
X68125605Y-81643256D01*
X68203626Y-81454898D01*
X68243400Y-81254939D01*
X68243400Y-81051061D01*
X68203626Y-80851102D01*
X68125605Y-80662744D01*
X68012337Y-80493226D01*
X67868174Y-80349063D01*
X67698656Y-80235795D01*
X67510298Y-80157774D01*
X67310339Y-80118000D01*
X67106461Y-80118000D01*
X66906502Y-80157774D01*
X66718144Y-80235795D01*
X66548626Y-80349063D01*
X66404463Y-80493226D01*
X66291195Y-80662744D01*
X66213174Y-80851102D01*
X66173400Y-81051061D01*
X66173400Y-81254939D01*
X66213174Y-81454898D01*
X66291195Y-81643256D01*
X66404463Y-81812774D01*
X66448400Y-81856711D01*
X66448401Y-82692397D01*
X64048799Y-85092000D01*
X62433464Y-85092000D01*
X62436172Y-85064500D01*
X62436172Y-83464500D01*
X62423912Y-83340018D01*
X62387602Y-83220320D01*
X62328637Y-83110006D01*
X62249285Y-83013315D01*
X62152594Y-82933963D01*
X62042280Y-82874998D01*
X61922582Y-82838688D01*
X61798100Y-82826428D01*
X61720000Y-82826428D01*
X61720000Y-71022341D01*
X61850535Y-70935120D01*
X62045120Y-70740535D01*
X62198005Y-70511727D01*
X62230000Y-70434485D01*
X62261995Y-70511727D01*
M02*
