G04 #@! TF.GenerationSoftware,KiCad,Pcbnew,5.1.6-c6e7f7d~87~ubuntu18.04.1*
G04 #@! TF.CreationDate,2020-08-09T11:57:43+02:00*
G04 #@! TF.ProjectId,sboxnet-booster,73626f78-6e65-4742-9d62-6f6f73746572,rev?*
G04 #@! TF.SameCoordinates,Original*
G04 #@! TF.FileFunction,Soldermask,Bot*
G04 #@! TF.FilePolarity,Negative*
%FSLAX46Y46*%
G04 Gerber Fmt 4.6, Leading zero omitted, Abs format (unit mm)*
G04 Created by KiCad (PCBNEW 5.1.6-c6e7f7d~87~ubuntu18.04.1) date 2020-08-09 11:57:43*
%MOMM*%
%LPD*%
G01*
G04 APERTURE LIST*
%ADD10C,0.100000*%
G04 APERTURE END LIST*
D10*
G36*
X96187795Y-163321946D02*
G01*
X96360866Y-163393634D01*
X96360867Y-163393635D01*
X96516627Y-163497710D01*
X96649090Y-163630173D01*
X96649091Y-163630175D01*
X96753166Y-163785934D01*
X96824854Y-163959005D01*
X96861400Y-164142733D01*
X96861400Y-164330067D01*
X96824854Y-164513795D01*
X96753166Y-164686866D01*
X96753165Y-164686867D01*
X96649090Y-164842627D01*
X96516627Y-164975090D01*
X96438218Y-165027481D01*
X96360866Y-165079166D01*
X96187795Y-165150854D01*
X96004067Y-165187400D01*
X95816733Y-165187400D01*
X95633005Y-165150854D01*
X95459934Y-165079166D01*
X95382582Y-165027481D01*
X95304173Y-164975090D01*
X95171710Y-164842627D01*
X95067635Y-164686867D01*
X95067634Y-164686866D01*
X94995946Y-164513795D01*
X94959400Y-164330067D01*
X94959400Y-164142733D01*
X94995946Y-163959005D01*
X95067634Y-163785934D01*
X95171709Y-163630175D01*
X95171710Y-163630173D01*
X95304173Y-163497710D01*
X95459933Y-163393635D01*
X95459934Y-163393634D01*
X95633005Y-163321946D01*
X95816733Y-163285400D01*
X96004067Y-163285400D01*
X96187795Y-163321946D01*
G37*
G36*
X90333600Y-165136600D02*
G01*
X88431600Y-165136600D01*
X88431600Y-163234600D01*
X90333600Y-163234600D01*
X90333600Y-165136600D01*
G37*
G36*
X96861400Y-162647400D02*
G01*
X94959400Y-162647400D01*
X94959400Y-160745400D01*
X96861400Y-160745400D01*
X96861400Y-162647400D01*
G37*
G36*
X89659995Y-160731146D02*
G01*
X89833066Y-160802834D01*
X89833067Y-160802835D01*
X89988827Y-160906910D01*
X90121290Y-161039373D01*
X90121291Y-161039375D01*
X90225366Y-161195134D01*
X90297054Y-161368205D01*
X90333600Y-161551933D01*
X90333600Y-161739267D01*
X90297054Y-161922995D01*
X90225366Y-162096066D01*
X90225365Y-162096067D01*
X90121290Y-162251827D01*
X89988827Y-162384290D01*
X89910418Y-162436681D01*
X89833066Y-162488366D01*
X89659995Y-162560054D01*
X89476267Y-162596600D01*
X89288933Y-162596600D01*
X89105205Y-162560054D01*
X88932134Y-162488366D01*
X88854782Y-162436681D01*
X88776373Y-162384290D01*
X88643910Y-162251827D01*
X88539835Y-162096067D01*
X88539834Y-162096066D01*
X88468146Y-161922995D01*
X88431600Y-161739267D01*
X88431600Y-161551933D01*
X88468146Y-161368205D01*
X88539834Y-161195134D01*
X88643909Y-161039375D01*
X88643910Y-161039373D01*
X88776373Y-160906910D01*
X88932133Y-160802835D01*
X88932134Y-160802834D01*
X89105205Y-160731146D01*
X89288933Y-160694600D01*
X89476267Y-160694600D01*
X89659995Y-160731146D01*
G37*
G36*
X123314071Y-154194063D02*
G01*
X123510300Y-154253589D01*
X123691146Y-154350253D01*
X123732437Y-154384140D01*
X123849660Y-154480340D01*
X123979748Y-154638855D01*
X124076410Y-154819697D01*
X124076411Y-154819699D01*
X124135937Y-155015928D01*
X124151000Y-155168868D01*
X124151000Y-157251132D01*
X124135937Y-157404072D01*
X124076411Y-157600301D01*
X124076410Y-157600303D01*
X123979748Y-157781145D01*
X123849660Y-157939660D01*
X123691145Y-158069748D01*
X123510303Y-158166410D01*
X123510301Y-158166411D01*
X123314072Y-158225937D01*
X123110000Y-158246036D01*
X122905929Y-158225937D01*
X122709700Y-158166411D01*
X122709698Y-158166410D01*
X122528856Y-158069748D01*
X122370341Y-157939660D01*
X122240253Y-157781145D01*
X122143591Y-157600303D01*
X122143590Y-157600301D01*
X122084064Y-157404072D01*
X122069001Y-157251132D01*
X122069000Y-155168869D01*
X122084063Y-155015929D01*
X122143589Y-154819700D01*
X122240253Y-154638854D01*
X122274140Y-154597563D01*
X122370340Y-154480340D01*
X122528855Y-154350252D01*
X122709697Y-154253590D01*
X122709699Y-154253589D01*
X122905928Y-154194063D01*
X123110000Y-154173964D01*
X123314071Y-154194063D01*
G37*
G36*
X133314071Y-154194063D02*
G01*
X133510300Y-154253589D01*
X133691146Y-154350253D01*
X133732437Y-154384140D01*
X133849660Y-154480340D01*
X133979748Y-154638855D01*
X134076410Y-154819697D01*
X134076411Y-154819699D01*
X134135937Y-155015928D01*
X134151000Y-155168868D01*
X134151000Y-157251132D01*
X134135937Y-157404072D01*
X134076411Y-157600301D01*
X134076410Y-157600303D01*
X133979748Y-157781145D01*
X133849660Y-157939660D01*
X133691145Y-158069748D01*
X133510303Y-158166410D01*
X133510301Y-158166411D01*
X133314072Y-158225937D01*
X133110000Y-158246036D01*
X132905929Y-158225937D01*
X132709700Y-158166411D01*
X132709698Y-158166410D01*
X132528856Y-158069748D01*
X132370341Y-157939660D01*
X132240253Y-157781145D01*
X132143591Y-157600303D01*
X132143590Y-157600301D01*
X132084064Y-157404072D01*
X132069001Y-157251132D01*
X132069000Y-155168869D01*
X132084063Y-155015929D01*
X132143589Y-154819700D01*
X132240253Y-154638854D01*
X132274140Y-154597563D01*
X132370340Y-154480340D01*
X132528855Y-154350252D01*
X132709697Y-154253590D01*
X132709699Y-154253589D01*
X132905928Y-154194063D01*
X133110000Y-154173964D01*
X133314071Y-154194063D01*
G37*
G36*
X128314071Y-154194063D02*
G01*
X128510300Y-154253589D01*
X128691146Y-154350253D01*
X128732437Y-154384140D01*
X128849660Y-154480340D01*
X128979748Y-154638855D01*
X129076410Y-154819697D01*
X129076411Y-154819699D01*
X129135937Y-155015928D01*
X129151000Y-155168868D01*
X129151000Y-157251132D01*
X129135937Y-157404072D01*
X129076411Y-157600301D01*
X129076410Y-157600303D01*
X128979748Y-157781145D01*
X128849660Y-157939660D01*
X128691145Y-158069748D01*
X128510303Y-158166410D01*
X128510301Y-158166411D01*
X128314072Y-158225937D01*
X128110000Y-158246036D01*
X127905929Y-158225937D01*
X127709700Y-158166411D01*
X127709698Y-158166410D01*
X127528856Y-158069748D01*
X127370341Y-157939660D01*
X127240253Y-157781145D01*
X127143591Y-157600303D01*
X127143590Y-157600301D01*
X127084064Y-157404072D01*
X127069001Y-157251132D01*
X127069000Y-155168869D01*
X127084063Y-155015929D01*
X127143589Y-154819700D01*
X127240253Y-154638854D01*
X127274140Y-154597563D01*
X127370340Y-154480340D01*
X127528855Y-154350252D01*
X127709697Y-154253590D01*
X127709699Y-154253589D01*
X127905928Y-154194063D01*
X128110000Y-154173964D01*
X128314071Y-154194063D01*
G37*
G36*
X73624071Y-154194063D02*
G01*
X73820300Y-154253589D01*
X74001146Y-154350253D01*
X74042437Y-154384140D01*
X74159660Y-154480340D01*
X74289748Y-154638855D01*
X74386410Y-154819697D01*
X74386411Y-154819699D01*
X74445937Y-155015928D01*
X74461000Y-155168868D01*
X74461000Y-157251132D01*
X74445937Y-157404072D01*
X74386411Y-157600301D01*
X74386410Y-157600303D01*
X74289748Y-157781145D01*
X74159660Y-157939660D01*
X74001145Y-158069748D01*
X73820303Y-158166410D01*
X73820301Y-158166411D01*
X73624072Y-158225937D01*
X73420000Y-158246036D01*
X73215929Y-158225937D01*
X73019700Y-158166411D01*
X73019698Y-158166410D01*
X72838856Y-158069748D01*
X72680341Y-157939660D01*
X72550253Y-157781145D01*
X72453591Y-157600303D01*
X72453590Y-157600301D01*
X72394064Y-157404072D01*
X72379001Y-157251132D01*
X72379000Y-155168869D01*
X72394063Y-155015929D01*
X72453589Y-154819700D01*
X72550253Y-154638854D01*
X72584140Y-154597563D01*
X72680340Y-154480340D01*
X72838855Y-154350252D01*
X73019697Y-154253590D01*
X73019699Y-154253589D01*
X73215928Y-154194063D01*
X73420000Y-154173964D01*
X73624071Y-154194063D01*
G37*
G36*
X68624071Y-154194063D02*
G01*
X68820300Y-154253589D01*
X69001146Y-154350253D01*
X69042437Y-154384140D01*
X69159660Y-154480340D01*
X69289748Y-154638855D01*
X69386410Y-154819697D01*
X69386411Y-154819699D01*
X69445937Y-155015928D01*
X69461000Y-155168868D01*
X69461000Y-157251132D01*
X69445937Y-157404072D01*
X69386411Y-157600301D01*
X69386410Y-157600303D01*
X69289748Y-157781145D01*
X69159660Y-157939660D01*
X69001145Y-158069748D01*
X68820303Y-158166410D01*
X68820301Y-158166411D01*
X68624072Y-158225937D01*
X68420000Y-158246036D01*
X68215929Y-158225937D01*
X68019700Y-158166411D01*
X68019698Y-158166410D01*
X67838856Y-158069748D01*
X67680341Y-157939660D01*
X67550253Y-157781145D01*
X67453591Y-157600303D01*
X67453590Y-157600301D01*
X67394064Y-157404072D01*
X67379001Y-157251132D01*
X67379000Y-155168869D01*
X67394063Y-155015929D01*
X67453589Y-154819700D01*
X67550253Y-154638854D01*
X67584140Y-154597563D01*
X67680340Y-154480340D01*
X67838855Y-154350252D01*
X68019697Y-154253590D01*
X68019699Y-154253589D01*
X68215928Y-154194063D01*
X68420000Y-154173964D01*
X68624071Y-154194063D01*
G37*
G36*
X63624071Y-154194063D02*
G01*
X63820300Y-154253589D01*
X64001146Y-154350253D01*
X64042437Y-154384140D01*
X64159660Y-154480340D01*
X64289748Y-154638855D01*
X64386410Y-154819697D01*
X64386411Y-154819699D01*
X64445937Y-155015928D01*
X64461000Y-155168868D01*
X64461000Y-157251132D01*
X64445937Y-157404072D01*
X64386411Y-157600301D01*
X64386410Y-157600303D01*
X64289748Y-157781145D01*
X64159660Y-157939660D01*
X64001145Y-158069748D01*
X63820303Y-158166410D01*
X63820301Y-158166411D01*
X63624072Y-158225937D01*
X63420000Y-158246036D01*
X63215929Y-158225937D01*
X63019700Y-158166411D01*
X63019698Y-158166410D01*
X62838856Y-158069748D01*
X62680341Y-157939660D01*
X62550253Y-157781145D01*
X62453591Y-157600303D01*
X62453590Y-157600301D01*
X62394064Y-157404072D01*
X62379001Y-157251132D01*
X62379000Y-155168869D01*
X62394063Y-155015929D01*
X62453589Y-154819700D01*
X62550253Y-154638854D01*
X62584140Y-154597563D01*
X62680340Y-154480340D01*
X62838855Y-154350252D01*
X63019697Y-154253590D01*
X63019699Y-154253589D01*
X63215928Y-154194063D01*
X63420000Y-154173964D01*
X63624071Y-154194063D01*
G37*
G36*
X119151000Y-158241000D02*
G01*
X117069000Y-158241000D01*
X117069000Y-154179000D01*
X119151000Y-154179000D01*
X119151000Y-158241000D01*
G37*
G36*
X59461000Y-158241000D02*
G01*
X57379000Y-158241000D01*
X57379000Y-154179000D01*
X59461000Y-154179000D01*
X59461000Y-158241000D01*
G37*
G36*
X80733200Y-153123200D02*
G01*
X78931200Y-153123200D01*
X78931200Y-151321200D01*
X80733200Y-151321200D01*
X80733200Y-153123200D01*
G37*
G36*
X106600560Y-152666000D02*
G01*
X104798560Y-152666000D01*
X104798560Y-150864000D01*
X106600560Y-150864000D01*
X106600560Y-152666000D01*
G37*
G36*
X90842312Y-150741927D02*
G01*
X90991612Y-150771624D01*
X91155584Y-150839544D01*
X91303154Y-150938147D01*
X91428653Y-151063646D01*
X91527256Y-151211216D01*
X91595176Y-151375188D01*
X91629800Y-151549259D01*
X91629800Y-151726741D01*
X91595176Y-151900812D01*
X91527256Y-152064784D01*
X91428653Y-152212354D01*
X91303154Y-152337853D01*
X91155584Y-152436456D01*
X90991612Y-152504376D01*
X90842312Y-152534073D01*
X90817542Y-152539000D01*
X90640058Y-152539000D01*
X90615288Y-152534073D01*
X90465988Y-152504376D01*
X90302016Y-152436456D01*
X90154446Y-152337853D01*
X90028947Y-152212354D01*
X89930344Y-152064784D01*
X89862424Y-151900812D01*
X89827800Y-151726741D01*
X89827800Y-151549259D01*
X89862424Y-151375188D01*
X89930344Y-151211216D01*
X90028947Y-151063646D01*
X90154446Y-150938147D01*
X90302016Y-150839544D01*
X90465988Y-150771624D01*
X90615288Y-150741927D01*
X90640058Y-150737000D01*
X90817542Y-150737000D01*
X90842312Y-150741927D01*
G37*
G36*
X94169800Y-152539000D02*
G01*
X92367800Y-152539000D01*
X92367800Y-150737000D01*
X94169800Y-150737000D01*
X94169800Y-152539000D01*
G37*
G36*
X92779502Y-146126762D02*
G01*
X92927461Y-146188049D01*
X93060615Y-146277019D01*
X93173861Y-146390265D01*
X93262831Y-146523419D01*
X93324118Y-146671378D01*
X93355360Y-146828445D01*
X93355360Y-146988595D01*
X93324118Y-147145662D01*
X93262831Y-147293621D01*
X93173861Y-147426775D01*
X93060615Y-147540021D01*
X92927461Y-147628991D01*
X92779502Y-147690278D01*
X92622435Y-147721520D01*
X92462285Y-147721520D01*
X92305218Y-147690278D01*
X92157259Y-147628991D01*
X92024105Y-147540021D01*
X91910859Y-147426775D01*
X91821889Y-147293621D01*
X91760602Y-147145662D01*
X91729360Y-146988595D01*
X91729360Y-146828445D01*
X91760602Y-146671378D01*
X91821889Y-146523419D01*
X91910859Y-146390265D01*
X92024105Y-146277019D01*
X92157259Y-146188049D01*
X92305218Y-146126762D01*
X92462285Y-146095520D01*
X92622435Y-146095520D01*
X92779502Y-146126762D01*
G37*
G36*
X95319502Y-146126762D02*
G01*
X95467461Y-146188049D01*
X95600615Y-146277019D01*
X95713861Y-146390265D01*
X95802831Y-146523419D01*
X95864118Y-146671378D01*
X95895360Y-146828445D01*
X95895360Y-146988595D01*
X95864118Y-147145662D01*
X95802831Y-147293621D01*
X95713861Y-147426775D01*
X95600615Y-147540021D01*
X95467461Y-147628991D01*
X95319502Y-147690278D01*
X95162435Y-147721520D01*
X95002285Y-147721520D01*
X94845218Y-147690278D01*
X94697259Y-147628991D01*
X94564105Y-147540021D01*
X94450859Y-147426775D01*
X94361889Y-147293621D01*
X94300602Y-147145662D01*
X94269360Y-146988595D01*
X94269360Y-146828445D01*
X94300602Y-146671378D01*
X94361889Y-146523419D01*
X94450859Y-146390265D01*
X94564105Y-146277019D01*
X94697259Y-146188049D01*
X94845218Y-146126762D01*
X95002285Y-146095520D01*
X95162435Y-146095520D01*
X95319502Y-146126762D01*
G37*
G36*
X100399502Y-146126762D02*
G01*
X100547461Y-146188049D01*
X100680615Y-146277019D01*
X100793861Y-146390265D01*
X100882831Y-146523419D01*
X100944118Y-146671378D01*
X100975360Y-146828445D01*
X100975360Y-146988595D01*
X100944118Y-147145662D01*
X100882831Y-147293621D01*
X100793861Y-147426775D01*
X100680615Y-147540021D01*
X100547461Y-147628991D01*
X100399502Y-147690278D01*
X100242435Y-147721520D01*
X100082285Y-147721520D01*
X99925218Y-147690278D01*
X99777259Y-147628991D01*
X99644105Y-147540021D01*
X99530859Y-147426775D01*
X99441889Y-147293621D01*
X99380602Y-147145662D01*
X99349360Y-146988595D01*
X99349360Y-146828445D01*
X99380602Y-146671378D01*
X99441889Y-146523419D01*
X99530859Y-146390265D01*
X99644105Y-146277019D01*
X99777259Y-146188049D01*
X99925218Y-146126762D01*
X100082285Y-146095520D01*
X100242435Y-146095520D01*
X100399502Y-146126762D01*
G37*
G36*
X102939502Y-146126762D02*
G01*
X103087461Y-146188049D01*
X103220615Y-146277019D01*
X103333861Y-146390265D01*
X103422831Y-146523419D01*
X103484118Y-146671378D01*
X103515360Y-146828445D01*
X103515360Y-146988595D01*
X103484118Y-147145662D01*
X103422831Y-147293621D01*
X103333861Y-147426775D01*
X103220615Y-147540021D01*
X103087461Y-147628991D01*
X102939502Y-147690278D01*
X102782435Y-147721520D01*
X102622285Y-147721520D01*
X102465218Y-147690278D01*
X102317259Y-147628991D01*
X102184105Y-147540021D01*
X102070859Y-147426775D01*
X101981889Y-147293621D01*
X101920602Y-147145662D01*
X101889360Y-146988595D01*
X101889360Y-146828445D01*
X101920602Y-146671378D01*
X101981889Y-146523419D01*
X102070859Y-146390265D01*
X102184105Y-146277019D01*
X102317259Y-146188049D01*
X102465218Y-146126762D01*
X102622285Y-146095520D01*
X102782435Y-146095520D01*
X102939502Y-146126762D01*
G37*
G36*
X97859502Y-146126762D02*
G01*
X98007461Y-146188049D01*
X98140615Y-146277019D01*
X98253861Y-146390265D01*
X98342831Y-146523419D01*
X98404118Y-146671378D01*
X98435360Y-146828445D01*
X98435360Y-146988595D01*
X98404118Y-147145662D01*
X98342831Y-147293621D01*
X98253861Y-147426775D01*
X98140615Y-147540021D01*
X98007461Y-147628991D01*
X97859502Y-147690278D01*
X97702435Y-147721520D01*
X97542285Y-147721520D01*
X97385218Y-147690278D01*
X97237259Y-147628991D01*
X97104105Y-147540021D01*
X96990859Y-147426775D01*
X96901889Y-147293621D01*
X96840602Y-147145662D01*
X96809360Y-146988595D01*
X96809360Y-146828445D01*
X96840602Y-146671378D01*
X96901889Y-146523419D01*
X96990859Y-146390265D01*
X97104105Y-146277019D01*
X97237259Y-146188049D01*
X97385218Y-146126762D01*
X97542285Y-146095520D01*
X97702435Y-146095520D01*
X97859502Y-146126762D01*
G37*
G36*
X92779502Y-144221762D02*
G01*
X92927461Y-144283049D01*
X93060615Y-144372019D01*
X93173861Y-144485265D01*
X93262831Y-144618419D01*
X93324118Y-144766378D01*
X93355360Y-144923445D01*
X93355360Y-145083595D01*
X93324118Y-145240662D01*
X93262831Y-145388621D01*
X93173861Y-145521775D01*
X93060615Y-145635021D01*
X92927461Y-145723991D01*
X92779502Y-145785278D01*
X92622435Y-145816520D01*
X92462285Y-145816520D01*
X92305218Y-145785278D01*
X92157259Y-145723991D01*
X92024105Y-145635021D01*
X91910859Y-145521775D01*
X91821889Y-145388621D01*
X91760602Y-145240662D01*
X91729360Y-145083595D01*
X91729360Y-144923445D01*
X91760602Y-144766378D01*
X91821889Y-144618419D01*
X91910859Y-144485265D01*
X92024105Y-144372019D01*
X92157259Y-144283049D01*
X92305218Y-144221762D01*
X92462285Y-144190520D01*
X92622435Y-144190520D01*
X92779502Y-144221762D01*
G37*
G36*
X97859502Y-144221762D02*
G01*
X98007461Y-144283049D01*
X98140615Y-144372019D01*
X98253861Y-144485265D01*
X98342831Y-144618419D01*
X98404118Y-144766378D01*
X98435360Y-144923445D01*
X98435360Y-145083595D01*
X98404118Y-145240662D01*
X98342831Y-145388621D01*
X98253861Y-145521775D01*
X98140615Y-145635021D01*
X98007461Y-145723991D01*
X97859502Y-145785278D01*
X97702435Y-145816520D01*
X97542285Y-145816520D01*
X97385218Y-145785278D01*
X97237259Y-145723991D01*
X97104105Y-145635021D01*
X96990859Y-145521775D01*
X96901889Y-145388621D01*
X96840602Y-145240662D01*
X96809360Y-145083595D01*
X96809360Y-144923445D01*
X96840602Y-144766378D01*
X96901889Y-144618419D01*
X96990859Y-144485265D01*
X97104105Y-144372019D01*
X97237259Y-144283049D01*
X97385218Y-144221762D01*
X97542285Y-144190520D01*
X97702435Y-144190520D01*
X97859502Y-144221762D01*
G37*
G36*
X100399502Y-144221762D02*
G01*
X100547461Y-144283049D01*
X100680615Y-144372019D01*
X100793861Y-144485265D01*
X100882831Y-144618419D01*
X100944118Y-144766378D01*
X100975360Y-144923445D01*
X100975360Y-145083595D01*
X100944118Y-145240662D01*
X100882831Y-145388621D01*
X100793861Y-145521775D01*
X100680615Y-145635021D01*
X100547461Y-145723991D01*
X100399502Y-145785278D01*
X100242435Y-145816520D01*
X100082285Y-145816520D01*
X99925218Y-145785278D01*
X99777259Y-145723991D01*
X99644105Y-145635021D01*
X99530859Y-145521775D01*
X99441889Y-145388621D01*
X99380602Y-145240662D01*
X99349360Y-145083595D01*
X99349360Y-144923445D01*
X99380602Y-144766378D01*
X99441889Y-144618419D01*
X99530859Y-144485265D01*
X99644105Y-144372019D01*
X99777259Y-144283049D01*
X99925218Y-144221762D01*
X100082285Y-144190520D01*
X100242435Y-144190520D01*
X100399502Y-144221762D01*
G37*
G36*
X102939502Y-144221762D02*
G01*
X103087461Y-144283049D01*
X103220615Y-144372019D01*
X103333861Y-144485265D01*
X103422831Y-144618419D01*
X103484118Y-144766378D01*
X103515360Y-144923445D01*
X103515360Y-145083595D01*
X103484118Y-145240662D01*
X103422831Y-145388621D01*
X103333861Y-145521775D01*
X103220615Y-145635021D01*
X103087461Y-145723991D01*
X102939502Y-145785278D01*
X102782435Y-145816520D01*
X102622285Y-145816520D01*
X102465218Y-145785278D01*
X102317259Y-145723991D01*
X102184105Y-145635021D01*
X102070859Y-145521775D01*
X101981889Y-145388621D01*
X101920602Y-145240662D01*
X101889360Y-145083595D01*
X101889360Y-144923445D01*
X101920602Y-144766378D01*
X101981889Y-144618419D01*
X102070859Y-144485265D01*
X102184105Y-144372019D01*
X102317259Y-144283049D01*
X102465218Y-144221762D01*
X102622285Y-144190520D01*
X102782435Y-144190520D01*
X102939502Y-144221762D01*
G37*
G36*
X95319502Y-144221762D02*
G01*
X95467461Y-144283049D01*
X95600615Y-144372019D01*
X95713861Y-144485265D01*
X95802831Y-144618419D01*
X95864118Y-144766378D01*
X95895360Y-144923445D01*
X95895360Y-145083595D01*
X95864118Y-145240662D01*
X95802831Y-145388621D01*
X95713861Y-145521775D01*
X95600615Y-145635021D01*
X95467461Y-145723991D01*
X95319502Y-145785278D01*
X95162435Y-145816520D01*
X95002285Y-145816520D01*
X94845218Y-145785278D01*
X94697259Y-145723991D01*
X94564105Y-145635021D01*
X94450859Y-145521775D01*
X94361889Y-145388621D01*
X94300602Y-145240662D01*
X94269360Y-145083595D01*
X94269360Y-144923445D01*
X94300602Y-144766378D01*
X94361889Y-144618419D01*
X94450859Y-144485265D01*
X94564105Y-144372019D01*
X94697259Y-144283049D01*
X94845218Y-144221762D01*
X95002285Y-144190520D01*
X95162435Y-144190520D01*
X95319502Y-144221762D01*
G37*
G36*
X49812600Y-144554600D02*
G01*
X46910600Y-144554600D01*
X46910600Y-141652600D01*
X49812600Y-141652600D01*
X49812600Y-144554600D01*
G37*
G36*
X38624841Y-141708360D02*
G01*
X38888905Y-141817739D01*
X39126558Y-141976534D01*
X39328666Y-142178642D01*
X39487461Y-142416295D01*
X39596840Y-142680359D01*
X39652600Y-142960688D01*
X39652600Y-143246512D01*
X39596840Y-143526841D01*
X39487461Y-143790905D01*
X39328666Y-144028558D01*
X39126558Y-144230666D01*
X38888905Y-144389461D01*
X38624841Y-144498840D01*
X38344512Y-144554600D01*
X38058688Y-144554600D01*
X37778359Y-144498840D01*
X37514295Y-144389461D01*
X37276642Y-144230666D01*
X37074534Y-144028558D01*
X36915739Y-143790905D01*
X36806360Y-143526841D01*
X36750600Y-143246512D01*
X36750600Y-142960688D01*
X36806360Y-142680359D01*
X36915739Y-142416295D01*
X37074534Y-142178642D01*
X37276642Y-141976534D01*
X37514295Y-141817739D01*
X37778359Y-141708360D01*
X38058688Y-141652600D01*
X38344512Y-141652600D01*
X38624841Y-141708360D01*
G37*
G36*
X102939502Y-142316762D02*
G01*
X103087461Y-142378049D01*
X103220615Y-142467019D01*
X103333861Y-142580265D01*
X103422831Y-142713419D01*
X103484118Y-142861378D01*
X103515360Y-143018445D01*
X103515360Y-143178595D01*
X103484118Y-143335662D01*
X103422831Y-143483621D01*
X103333861Y-143616775D01*
X103220615Y-143730021D01*
X103087461Y-143818991D01*
X102939502Y-143880278D01*
X102782435Y-143911520D01*
X102622285Y-143911520D01*
X102465218Y-143880278D01*
X102317259Y-143818991D01*
X102184105Y-143730021D01*
X102070859Y-143616775D01*
X101981889Y-143483621D01*
X101920602Y-143335662D01*
X101889360Y-143178595D01*
X101889360Y-143018445D01*
X101920602Y-142861378D01*
X101981889Y-142713419D01*
X102070859Y-142580265D01*
X102184105Y-142467019D01*
X102317259Y-142378049D01*
X102465218Y-142316762D01*
X102622285Y-142285520D01*
X102782435Y-142285520D01*
X102939502Y-142316762D01*
G37*
G36*
X97859502Y-142316762D02*
G01*
X98007461Y-142378049D01*
X98140615Y-142467019D01*
X98253861Y-142580265D01*
X98342831Y-142713419D01*
X98404118Y-142861378D01*
X98435360Y-143018445D01*
X98435360Y-143178595D01*
X98404118Y-143335662D01*
X98342831Y-143483621D01*
X98253861Y-143616775D01*
X98140615Y-143730021D01*
X98007461Y-143818991D01*
X97859502Y-143880278D01*
X97702435Y-143911520D01*
X97542285Y-143911520D01*
X97385218Y-143880278D01*
X97237259Y-143818991D01*
X97104105Y-143730021D01*
X96990859Y-143616775D01*
X96901889Y-143483621D01*
X96840602Y-143335662D01*
X96809360Y-143178595D01*
X96809360Y-143018445D01*
X96840602Y-142861378D01*
X96901889Y-142713419D01*
X96990859Y-142580265D01*
X97104105Y-142467019D01*
X97237259Y-142378049D01*
X97385218Y-142316762D01*
X97542285Y-142285520D01*
X97702435Y-142285520D01*
X97859502Y-142316762D01*
G37*
G36*
X95319502Y-142316762D02*
G01*
X95467461Y-142378049D01*
X95600615Y-142467019D01*
X95713861Y-142580265D01*
X95802831Y-142713419D01*
X95864118Y-142861378D01*
X95895360Y-143018445D01*
X95895360Y-143178595D01*
X95864118Y-143335662D01*
X95802831Y-143483621D01*
X95713861Y-143616775D01*
X95600615Y-143730021D01*
X95467461Y-143818991D01*
X95319502Y-143880278D01*
X95162435Y-143911520D01*
X95002285Y-143911520D01*
X94845218Y-143880278D01*
X94697259Y-143818991D01*
X94564105Y-143730021D01*
X94450859Y-143616775D01*
X94361889Y-143483621D01*
X94300602Y-143335662D01*
X94269360Y-143178595D01*
X94269360Y-143018445D01*
X94300602Y-142861378D01*
X94361889Y-142713419D01*
X94450859Y-142580265D01*
X94564105Y-142467019D01*
X94697259Y-142378049D01*
X94845218Y-142316762D01*
X95002285Y-142285520D01*
X95162435Y-142285520D01*
X95319502Y-142316762D01*
G37*
G36*
X92779502Y-142316762D02*
G01*
X92927461Y-142378049D01*
X93060615Y-142467019D01*
X93173861Y-142580265D01*
X93262831Y-142713419D01*
X93324118Y-142861378D01*
X93355360Y-143018445D01*
X93355360Y-143178595D01*
X93324118Y-143335662D01*
X93262831Y-143483621D01*
X93173861Y-143616775D01*
X93060615Y-143730021D01*
X92927461Y-143818991D01*
X92779502Y-143880278D01*
X92622435Y-143911520D01*
X92462285Y-143911520D01*
X92305218Y-143880278D01*
X92157259Y-143818991D01*
X92024105Y-143730021D01*
X91910859Y-143616775D01*
X91821889Y-143483621D01*
X91760602Y-143335662D01*
X91729360Y-143178595D01*
X91729360Y-143018445D01*
X91760602Y-142861378D01*
X91821889Y-142713419D01*
X91910859Y-142580265D01*
X92024105Y-142467019D01*
X92157259Y-142378049D01*
X92305218Y-142316762D01*
X92462285Y-142285520D01*
X92622435Y-142285520D01*
X92779502Y-142316762D01*
G37*
G36*
X100399502Y-142316762D02*
G01*
X100547461Y-142378049D01*
X100680615Y-142467019D01*
X100793861Y-142580265D01*
X100882831Y-142713419D01*
X100944118Y-142861378D01*
X100975360Y-143018445D01*
X100975360Y-143178595D01*
X100944118Y-143335662D01*
X100882831Y-143483621D01*
X100793861Y-143616775D01*
X100680615Y-143730021D01*
X100547461Y-143818991D01*
X100399502Y-143880278D01*
X100242435Y-143911520D01*
X100082285Y-143911520D01*
X99925218Y-143880278D01*
X99777259Y-143818991D01*
X99644105Y-143730021D01*
X99530859Y-143616775D01*
X99441889Y-143483621D01*
X99380602Y-143335662D01*
X99349360Y-143178595D01*
X99349360Y-143018445D01*
X99380602Y-142861378D01*
X99441889Y-142713419D01*
X99530859Y-142580265D01*
X99644105Y-142467019D01*
X99777259Y-142378049D01*
X99925218Y-142316762D01*
X100082285Y-142285520D01*
X100242435Y-142285520D01*
X100399502Y-142316762D01*
G37*
G36*
X107606312Y-142004327D02*
G01*
X107755612Y-142034024D01*
X107919584Y-142101944D01*
X108067154Y-142200547D01*
X108192653Y-142326046D01*
X108291256Y-142473616D01*
X108359176Y-142637588D01*
X108393800Y-142811659D01*
X108393800Y-142989141D01*
X108359176Y-143163212D01*
X108291256Y-143327184D01*
X108192653Y-143474754D01*
X108067154Y-143600253D01*
X107919584Y-143698856D01*
X107755612Y-143766776D01*
X107606312Y-143796473D01*
X107581542Y-143801400D01*
X107404058Y-143801400D01*
X107379288Y-143796473D01*
X107229988Y-143766776D01*
X107066016Y-143698856D01*
X106918446Y-143600253D01*
X106792947Y-143474754D01*
X106694344Y-143327184D01*
X106626424Y-143163212D01*
X106591800Y-142989141D01*
X106591800Y-142811659D01*
X106626424Y-142637588D01*
X106694344Y-142473616D01*
X106792947Y-142326046D01*
X106918446Y-142200547D01*
X107066016Y-142101944D01*
X107229988Y-142034024D01*
X107379288Y-142004327D01*
X107404058Y-141999400D01*
X107581542Y-141999400D01*
X107606312Y-142004327D01*
G37*
G36*
X110933800Y-143801400D02*
G01*
X109131800Y-143801400D01*
X109131800Y-141999400D01*
X110933800Y-141999400D01*
X110933800Y-143801400D01*
G37*
G36*
X65551100Y-142906800D02*
G01*
X63049100Y-142906800D01*
X63049100Y-140404800D01*
X65551100Y-140404800D01*
X65551100Y-142906800D01*
G37*
G36*
X69665003Y-140452875D02*
G01*
X69713708Y-140473049D01*
X69892671Y-140547178D01*
X70097566Y-140684085D01*
X70271815Y-140858334D01*
X70271816Y-140858336D01*
X70408723Y-141063231D01*
X70503025Y-141290897D01*
X70551100Y-141532586D01*
X70551100Y-141779014D01*
X70524251Y-141913991D01*
X70503025Y-142020703D01*
X70408722Y-142248371D01*
X70271815Y-142453266D01*
X70097566Y-142627515D01*
X69892671Y-142764422D01*
X69892670Y-142764423D01*
X69892669Y-142764423D01*
X69665003Y-142858725D01*
X69423314Y-142906800D01*
X69176886Y-142906800D01*
X68935197Y-142858725D01*
X68707531Y-142764423D01*
X68707530Y-142764423D01*
X68707529Y-142764422D01*
X68502634Y-142627515D01*
X68328385Y-142453266D01*
X68191478Y-142248371D01*
X68097175Y-142020703D01*
X68075949Y-141913991D01*
X68049100Y-141779014D01*
X68049100Y-141532586D01*
X68097175Y-141290897D01*
X68191477Y-141063231D01*
X68328384Y-140858336D01*
X68328385Y-140858334D01*
X68502634Y-140684085D01*
X68707529Y-140547178D01*
X68886493Y-140473049D01*
X68935197Y-140452875D01*
X69176886Y-140404800D01*
X69423314Y-140404800D01*
X69665003Y-140452875D01*
G37*
G36*
X85000400Y-142252000D02*
G01*
X83198400Y-142252000D01*
X83198400Y-140450000D01*
X85000400Y-140450000D01*
X85000400Y-142252000D01*
G37*
G36*
X95319502Y-140411762D02*
G01*
X95467461Y-140473049D01*
X95600615Y-140562019D01*
X95713861Y-140675265D01*
X95802831Y-140808419D01*
X95864118Y-140956378D01*
X95895360Y-141113445D01*
X95895360Y-141273595D01*
X95864118Y-141430662D01*
X95802831Y-141578621D01*
X95713861Y-141711775D01*
X95600615Y-141825021D01*
X95467461Y-141913991D01*
X95319502Y-141975278D01*
X95162435Y-142006520D01*
X95002285Y-142006520D01*
X94845218Y-141975278D01*
X94697259Y-141913991D01*
X94564105Y-141825021D01*
X94450859Y-141711775D01*
X94361889Y-141578621D01*
X94300602Y-141430662D01*
X94269360Y-141273595D01*
X94269360Y-141113445D01*
X94300602Y-140956378D01*
X94361889Y-140808419D01*
X94450859Y-140675265D01*
X94564105Y-140562019D01*
X94697259Y-140473049D01*
X94845218Y-140411762D01*
X95002285Y-140380520D01*
X95162435Y-140380520D01*
X95319502Y-140411762D01*
G37*
G36*
X92779502Y-140411762D02*
G01*
X92927461Y-140473049D01*
X93060615Y-140562019D01*
X93173861Y-140675265D01*
X93262831Y-140808419D01*
X93324118Y-140956378D01*
X93355360Y-141113445D01*
X93355360Y-141273595D01*
X93324118Y-141430662D01*
X93262831Y-141578621D01*
X93173861Y-141711775D01*
X93060615Y-141825021D01*
X92927461Y-141913991D01*
X92779502Y-141975278D01*
X92622435Y-142006520D01*
X92462285Y-142006520D01*
X92305218Y-141975278D01*
X92157259Y-141913991D01*
X92024105Y-141825021D01*
X91910859Y-141711775D01*
X91821889Y-141578621D01*
X91760602Y-141430662D01*
X91729360Y-141273595D01*
X91729360Y-141113445D01*
X91760602Y-140956378D01*
X91821889Y-140808419D01*
X91910859Y-140675265D01*
X92024105Y-140562019D01*
X92157259Y-140473049D01*
X92305218Y-140411762D01*
X92462285Y-140380520D01*
X92622435Y-140380520D01*
X92779502Y-140411762D01*
G37*
G36*
X97859502Y-140411762D02*
G01*
X98007461Y-140473049D01*
X98140615Y-140562019D01*
X98253861Y-140675265D01*
X98342831Y-140808419D01*
X98404118Y-140956378D01*
X98435360Y-141113445D01*
X98435360Y-141273595D01*
X98404118Y-141430662D01*
X98342831Y-141578621D01*
X98253861Y-141711775D01*
X98140615Y-141825021D01*
X98007461Y-141913991D01*
X97859502Y-141975278D01*
X97702435Y-142006520D01*
X97542285Y-142006520D01*
X97385218Y-141975278D01*
X97237259Y-141913991D01*
X97104105Y-141825021D01*
X96990859Y-141711775D01*
X96901889Y-141578621D01*
X96840602Y-141430662D01*
X96809360Y-141273595D01*
X96809360Y-141113445D01*
X96840602Y-140956378D01*
X96901889Y-140808419D01*
X96990859Y-140675265D01*
X97104105Y-140562019D01*
X97237259Y-140473049D01*
X97385218Y-140411762D01*
X97542285Y-140380520D01*
X97702435Y-140380520D01*
X97859502Y-140411762D01*
G37*
G36*
X100399502Y-140411762D02*
G01*
X100547461Y-140473049D01*
X100680615Y-140562019D01*
X100793861Y-140675265D01*
X100882831Y-140808419D01*
X100944118Y-140956378D01*
X100975360Y-141113445D01*
X100975360Y-141273595D01*
X100944118Y-141430662D01*
X100882831Y-141578621D01*
X100793861Y-141711775D01*
X100680615Y-141825021D01*
X100547461Y-141913991D01*
X100399502Y-141975278D01*
X100242435Y-142006520D01*
X100082285Y-142006520D01*
X99925218Y-141975278D01*
X99777259Y-141913991D01*
X99644105Y-141825021D01*
X99530859Y-141711775D01*
X99441889Y-141578621D01*
X99380602Y-141430662D01*
X99349360Y-141273595D01*
X99349360Y-141113445D01*
X99380602Y-140956378D01*
X99441889Y-140808419D01*
X99530859Y-140675265D01*
X99644105Y-140562019D01*
X99777259Y-140473049D01*
X99925218Y-140411762D01*
X100082285Y-140380520D01*
X100242435Y-140380520D01*
X100399502Y-140411762D01*
G37*
G36*
X102939502Y-140411762D02*
G01*
X103087461Y-140473049D01*
X103220615Y-140562019D01*
X103333861Y-140675265D01*
X103422831Y-140808419D01*
X103484118Y-140956378D01*
X103515360Y-141113445D01*
X103515360Y-141273595D01*
X103484118Y-141430662D01*
X103422831Y-141578621D01*
X103333861Y-141711775D01*
X103220615Y-141825021D01*
X103087461Y-141913991D01*
X102939502Y-141975278D01*
X102782435Y-142006520D01*
X102622285Y-142006520D01*
X102465218Y-141975278D01*
X102317259Y-141913991D01*
X102184105Y-141825021D01*
X102070859Y-141711775D01*
X101981889Y-141578621D01*
X101920602Y-141430662D01*
X101889360Y-141273595D01*
X101889360Y-141113445D01*
X101920602Y-140956378D01*
X101981889Y-140808419D01*
X102070859Y-140675265D01*
X102184105Y-140562019D01*
X102317259Y-140473049D01*
X102465218Y-140411762D01*
X102622285Y-140380520D01*
X102782435Y-140380520D01*
X102939502Y-140411762D01*
G37*
G36*
X114667600Y-140169200D02*
G01*
X112865600Y-140169200D01*
X112865600Y-138367200D01*
X114667600Y-138367200D01*
X114667600Y-140169200D01*
G37*
G36*
X95319502Y-138506762D02*
G01*
X95467461Y-138568049D01*
X95600615Y-138657019D01*
X95713861Y-138770265D01*
X95802831Y-138903419D01*
X95864118Y-139051378D01*
X95895360Y-139208445D01*
X95895360Y-139368595D01*
X95864118Y-139525662D01*
X95802831Y-139673621D01*
X95713861Y-139806775D01*
X95600615Y-139920021D01*
X95467461Y-140008991D01*
X95319502Y-140070278D01*
X95162435Y-140101520D01*
X95002285Y-140101520D01*
X94845218Y-140070278D01*
X94697259Y-140008991D01*
X94564105Y-139920021D01*
X94450859Y-139806775D01*
X94361889Y-139673621D01*
X94300602Y-139525662D01*
X94269360Y-139368595D01*
X94269360Y-139208445D01*
X94300602Y-139051378D01*
X94361889Y-138903419D01*
X94450859Y-138770265D01*
X94564105Y-138657019D01*
X94697259Y-138568049D01*
X94845218Y-138506762D01*
X95002285Y-138475520D01*
X95162435Y-138475520D01*
X95319502Y-138506762D01*
G37*
G36*
X102939502Y-138506762D02*
G01*
X103087461Y-138568049D01*
X103220615Y-138657019D01*
X103333861Y-138770265D01*
X103422831Y-138903419D01*
X103484118Y-139051378D01*
X103515360Y-139208445D01*
X103515360Y-139368595D01*
X103484118Y-139525662D01*
X103422831Y-139673621D01*
X103333861Y-139806775D01*
X103220615Y-139920021D01*
X103087461Y-140008991D01*
X102939502Y-140070278D01*
X102782435Y-140101520D01*
X102622285Y-140101520D01*
X102465218Y-140070278D01*
X102317259Y-140008991D01*
X102184105Y-139920021D01*
X102070859Y-139806775D01*
X101981889Y-139673621D01*
X101920602Y-139525662D01*
X101889360Y-139368595D01*
X101889360Y-139208445D01*
X101920602Y-139051378D01*
X101981889Y-138903419D01*
X102070859Y-138770265D01*
X102184105Y-138657019D01*
X102317259Y-138568049D01*
X102465218Y-138506762D01*
X102622285Y-138475520D01*
X102782435Y-138475520D01*
X102939502Y-138506762D01*
G37*
G36*
X100399502Y-138506762D02*
G01*
X100547461Y-138568049D01*
X100680615Y-138657019D01*
X100793861Y-138770265D01*
X100882831Y-138903419D01*
X100944118Y-139051378D01*
X100975360Y-139208445D01*
X100975360Y-139368595D01*
X100944118Y-139525662D01*
X100882831Y-139673621D01*
X100793861Y-139806775D01*
X100680615Y-139920021D01*
X100547461Y-140008991D01*
X100399502Y-140070278D01*
X100242435Y-140101520D01*
X100082285Y-140101520D01*
X99925218Y-140070278D01*
X99777259Y-140008991D01*
X99644105Y-139920021D01*
X99530859Y-139806775D01*
X99441889Y-139673621D01*
X99380602Y-139525662D01*
X99349360Y-139368595D01*
X99349360Y-139208445D01*
X99380602Y-139051378D01*
X99441889Y-138903419D01*
X99530859Y-138770265D01*
X99644105Y-138657019D01*
X99777259Y-138568049D01*
X99925218Y-138506762D01*
X100082285Y-138475520D01*
X100242435Y-138475520D01*
X100399502Y-138506762D01*
G37*
G36*
X97859502Y-138506762D02*
G01*
X98007461Y-138568049D01*
X98140615Y-138657019D01*
X98253861Y-138770265D01*
X98342831Y-138903419D01*
X98404118Y-139051378D01*
X98435360Y-139208445D01*
X98435360Y-139368595D01*
X98404118Y-139525662D01*
X98342831Y-139673621D01*
X98253861Y-139806775D01*
X98140615Y-139920021D01*
X98007461Y-140008991D01*
X97859502Y-140070278D01*
X97702435Y-140101520D01*
X97542285Y-140101520D01*
X97385218Y-140070278D01*
X97237259Y-140008991D01*
X97104105Y-139920021D01*
X96990859Y-139806775D01*
X96901889Y-139673621D01*
X96840602Y-139525662D01*
X96809360Y-139368595D01*
X96809360Y-139208445D01*
X96840602Y-139051378D01*
X96901889Y-138903419D01*
X96990859Y-138770265D01*
X97104105Y-138657019D01*
X97237259Y-138568049D01*
X97385218Y-138506762D01*
X97542285Y-138475520D01*
X97702435Y-138475520D01*
X97859502Y-138506762D01*
G37*
G36*
X92779502Y-138506762D02*
G01*
X92927461Y-138568049D01*
X93060615Y-138657019D01*
X93173861Y-138770265D01*
X93262831Y-138903419D01*
X93324118Y-139051378D01*
X93355360Y-139208445D01*
X93355360Y-139368595D01*
X93324118Y-139525662D01*
X93262831Y-139673621D01*
X93173861Y-139806775D01*
X93060615Y-139920021D01*
X92927461Y-140008991D01*
X92779502Y-140070278D01*
X92622435Y-140101520D01*
X92462285Y-140101520D01*
X92305218Y-140070278D01*
X92157259Y-140008991D01*
X92024105Y-139920021D01*
X91910859Y-139806775D01*
X91821889Y-139673621D01*
X91760602Y-139525662D01*
X91729360Y-139368595D01*
X91729360Y-139208445D01*
X91760602Y-139051378D01*
X91821889Y-138903419D01*
X91910859Y-138770265D01*
X92024105Y-138657019D01*
X92157259Y-138568049D01*
X92305218Y-138506762D01*
X92462285Y-138475520D01*
X92622435Y-138475520D01*
X92779502Y-138506762D01*
G37*
G36*
X38504185Y-133149602D02*
G01*
X38654010Y-133179404D01*
X38936274Y-133296321D01*
X39190305Y-133466059D01*
X39406341Y-133682095D01*
X39576079Y-133936126D01*
X39692996Y-134218390D01*
X39752600Y-134518040D01*
X39752600Y-134823560D01*
X39692996Y-135123210D01*
X39576079Y-135405474D01*
X39406341Y-135659505D01*
X39190305Y-135875541D01*
X38936274Y-136045279D01*
X38654010Y-136162196D01*
X38504185Y-136191998D01*
X38354361Y-136221800D01*
X38048839Y-136221800D01*
X37899015Y-136191998D01*
X37749190Y-136162196D01*
X37466926Y-136045279D01*
X37212895Y-135875541D01*
X36996859Y-135659505D01*
X36827121Y-135405474D01*
X36710204Y-135123210D01*
X36650600Y-134823560D01*
X36650600Y-134518040D01*
X36710204Y-134218390D01*
X36827121Y-133936126D01*
X36996859Y-133682095D01*
X37212895Y-133466059D01*
X37466926Y-133296321D01*
X37749190Y-133179404D01*
X37899015Y-133149602D01*
X38048839Y-133119800D01*
X38354361Y-133119800D01*
X38504185Y-133149602D01*
G37*
G36*
X51204185Y-133149602D02*
G01*
X51354010Y-133179404D01*
X51636274Y-133296321D01*
X51890305Y-133466059D01*
X52106341Y-133682095D01*
X52276079Y-133936126D01*
X52392996Y-134218390D01*
X52452600Y-134518040D01*
X52452600Y-134823560D01*
X52392996Y-135123210D01*
X52276079Y-135405474D01*
X52106341Y-135659505D01*
X51890305Y-135875541D01*
X51636274Y-136045279D01*
X51354010Y-136162196D01*
X51204185Y-136191998D01*
X51054361Y-136221800D01*
X50748839Y-136221800D01*
X50599015Y-136191998D01*
X50449190Y-136162196D01*
X50166926Y-136045279D01*
X49912895Y-135875541D01*
X49696859Y-135659505D01*
X49527121Y-135405474D01*
X49410204Y-135123210D01*
X49350600Y-134823560D01*
X49350600Y-134518040D01*
X49410204Y-134218390D01*
X49527121Y-133936126D01*
X49696859Y-133682095D01*
X49912895Y-133466059D01*
X50166926Y-133296321D01*
X50449190Y-133179404D01*
X50599015Y-133149602D01*
X50748839Y-133119800D01*
X51054361Y-133119800D01*
X51204185Y-133149602D01*
G37*
G36*
X41708164Y-133660189D02*
G01*
X41899433Y-133739415D01*
X41899435Y-133739416D01*
X42071573Y-133854435D01*
X42217965Y-134000827D01*
X42332985Y-134172967D01*
X42412211Y-134364236D01*
X42452600Y-134567284D01*
X42452600Y-134774316D01*
X42412211Y-134977364D01*
X42351800Y-135123209D01*
X42332984Y-135168635D01*
X42217965Y-135340773D01*
X42071573Y-135487165D01*
X41899435Y-135602184D01*
X41899434Y-135602185D01*
X41899433Y-135602185D01*
X41708164Y-135681411D01*
X41505116Y-135721800D01*
X41298084Y-135721800D01*
X41095036Y-135681411D01*
X40903767Y-135602185D01*
X40903766Y-135602185D01*
X40903765Y-135602184D01*
X40731627Y-135487165D01*
X40585235Y-135340773D01*
X40470216Y-135168635D01*
X40451400Y-135123209D01*
X40390989Y-134977364D01*
X40350600Y-134774316D01*
X40350600Y-134567284D01*
X40390989Y-134364236D01*
X40470215Y-134172967D01*
X40585235Y-134000827D01*
X40731627Y-133854435D01*
X40903765Y-133739416D01*
X40903767Y-133739415D01*
X41095036Y-133660189D01*
X41298084Y-133619800D01*
X41505116Y-133619800D01*
X41708164Y-133660189D01*
G37*
G36*
X111314800Y-135409240D02*
G01*
X109512800Y-135409240D01*
X109512800Y-133607240D01*
X111314800Y-133607240D01*
X111314800Y-135409240D01*
G37*
G36*
X48054185Y-131019602D02*
G01*
X48204010Y-131049404D01*
X48486274Y-131166321D01*
X48740305Y-131336059D01*
X48956341Y-131552095D01*
X49126079Y-131806126D01*
X49242996Y-132088390D01*
X49302600Y-132388040D01*
X49302600Y-132693560D01*
X49242996Y-132993210D01*
X49126079Y-133275474D01*
X48956341Y-133529505D01*
X48740305Y-133745541D01*
X48486274Y-133915279D01*
X48204010Y-134032196D01*
X48054185Y-134061998D01*
X47904361Y-134091800D01*
X47598839Y-134091800D01*
X47449015Y-134061998D01*
X47299190Y-134032196D01*
X47016926Y-133915279D01*
X46762895Y-133745541D01*
X46546859Y-133529505D01*
X46377121Y-133275474D01*
X46260204Y-132993210D01*
X46200600Y-132693560D01*
X46200600Y-132388040D01*
X46260204Y-132088390D01*
X46377121Y-131806126D01*
X46546859Y-131552095D01*
X46762895Y-131336059D01*
X47016926Y-131166321D01*
X47299190Y-131049404D01*
X47449015Y-131019602D01*
X47598839Y-130989800D01*
X47904361Y-130989800D01*
X48054185Y-131019602D01*
G37*
G36*
X71789703Y-129607075D02*
G01*
X72017371Y-129701378D01*
X72222266Y-129838285D01*
X72396515Y-130012534D01*
X72533422Y-130217429D01*
X72627725Y-130445097D01*
X72675800Y-130686787D01*
X72675800Y-130933213D01*
X72627725Y-131174903D01*
X72533422Y-131402571D01*
X72396515Y-131607466D01*
X72222266Y-131781715D01*
X72017371Y-131918622D01*
X72017370Y-131918623D01*
X72017369Y-131918623D01*
X71789703Y-132012925D01*
X71548014Y-132061000D01*
X71301586Y-132061000D01*
X71059897Y-132012925D01*
X70832231Y-131918623D01*
X70832230Y-131918623D01*
X70832229Y-131918622D01*
X70627334Y-131781715D01*
X70453085Y-131607466D01*
X70316178Y-131402571D01*
X70221875Y-131174903D01*
X70173800Y-130933213D01*
X70173800Y-130686787D01*
X70221875Y-130445097D01*
X70316178Y-130217429D01*
X70453085Y-130012534D01*
X70627334Y-129838285D01*
X70832229Y-129701378D01*
X71059897Y-129607075D01*
X71301586Y-129559000D01*
X71548014Y-129559000D01*
X71789703Y-129607075D01*
G37*
G36*
X130933603Y-129530875D02*
G01*
X131117567Y-129607075D01*
X131161271Y-129625178D01*
X131366166Y-129762085D01*
X131540415Y-129936334D01*
X131677322Y-130141229D01*
X131771625Y-130368897D01*
X131819700Y-130610587D01*
X131819700Y-130857013D01*
X131771625Y-131098703D01*
X131677322Y-131326371D01*
X131540415Y-131531266D01*
X131366166Y-131705515D01*
X131161271Y-131842422D01*
X131161270Y-131842423D01*
X131161269Y-131842423D01*
X130933603Y-131936725D01*
X130691914Y-131984800D01*
X130445486Y-131984800D01*
X130203797Y-131936725D01*
X129976131Y-131842423D01*
X129976130Y-131842423D01*
X129976129Y-131842422D01*
X129771234Y-131705515D01*
X129596985Y-131531266D01*
X129460078Y-131326371D01*
X129365775Y-131098703D01*
X129317700Y-130857013D01*
X129317700Y-130610587D01*
X129365775Y-130368897D01*
X129460078Y-130141229D01*
X129596985Y-129936334D01*
X129771234Y-129762085D01*
X129976129Y-129625178D01*
X130019834Y-129607075D01*
X130203797Y-129530875D01*
X130445486Y-129482800D01*
X130691914Y-129482800D01*
X130933603Y-129530875D01*
G37*
G36*
X84050440Y-129993960D02*
G01*
X82248440Y-129993960D01*
X82248440Y-128191960D01*
X84050440Y-128191960D01*
X84050440Y-129993960D01*
G37*
G36*
X115505800Y-128459800D02*
G01*
X113703800Y-128459800D01*
X113703800Y-126657800D01*
X115505800Y-126657800D01*
X115505800Y-128459800D01*
G37*
G36*
X51204185Y-121719602D02*
G01*
X51354010Y-121749404D01*
X51636274Y-121866321D01*
X51890305Y-122036059D01*
X52106341Y-122252095D01*
X52276079Y-122506126D01*
X52392996Y-122788390D01*
X52452600Y-123088040D01*
X52452600Y-123393560D01*
X52392996Y-123693210D01*
X52276079Y-123975474D01*
X52106341Y-124229505D01*
X51890305Y-124445541D01*
X51636274Y-124615279D01*
X51354010Y-124732196D01*
X51204185Y-124761998D01*
X51054361Y-124791800D01*
X50748839Y-124791800D01*
X50599015Y-124761998D01*
X50449190Y-124732196D01*
X50166926Y-124615279D01*
X49912895Y-124445541D01*
X49696859Y-124229505D01*
X49527121Y-123975474D01*
X49410204Y-123693210D01*
X49350600Y-123393560D01*
X49350600Y-123088040D01*
X49410204Y-122788390D01*
X49527121Y-122506126D01*
X49696859Y-122252095D01*
X49912895Y-122036059D01*
X50166926Y-121866321D01*
X50449190Y-121749404D01*
X50599015Y-121719602D01*
X50748839Y-121689800D01*
X51054361Y-121689800D01*
X51204185Y-121719602D01*
G37*
G36*
X38504185Y-121719602D02*
G01*
X38654010Y-121749404D01*
X38936274Y-121866321D01*
X39190305Y-122036059D01*
X39406341Y-122252095D01*
X39576079Y-122506126D01*
X39692996Y-122788390D01*
X39752600Y-123088040D01*
X39752600Y-123393560D01*
X39692996Y-123693210D01*
X39576079Y-123975474D01*
X39406341Y-124229505D01*
X39190305Y-124445541D01*
X38936274Y-124615279D01*
X38654010Y-124732196D01*
X38504185Y-124761998D01*
X38354361Y-124791800D01*
X38048839Y-124791800D01*
X37899015Y-124761998D01*
X37749190Y-124732196D01*
X37466926Y-124615279D01*
X37212895Y-124445541D01*
X36996859Y-124229505D01*
X36827121Y-123975474D01*
X36710204Y-123693210D01*
X36650600Y-123393560D01*
X36650600Y-123088040D01*
X36710204Y-122788390D01*
X36827121Y-122506126D01*
X36996859Y-122252095D01*
X37212895Y-122036059D01*
X37466926Y-121866321D01*
X37749190Y-121749404D01*
X37899015Y-121719602D01*
X38048839Y-121689800D01*
X38354361Y-121689800D01*
X38504185Y-121719602D01*
G37*
G36*
X41708164Y-122230189D02*
G01*
X41899433Y-122309415D01*
X41899435Y-122309416D01*
X42071573Y-122424435D01*
X42217965Y-122570827D01*
X42332985Y-122742967D01*
X42412211Y-122934236D01*
X42452600Y-123137284D01*
X42452600Y-123344316D01*
X42412211Y-123547364D01*
X42351800Y-123693209D01*
X42332984Y-123738635D01*
X42217965Y-123910773D01*
X42071573Y-124057165D01*
X41899435Y-124172184D01*
X41899434Y-124172185D01*
X41899433Y-124172185D01*
X41708164Y-124251411D01*
X41505116Y-124291800D01*
X41298084Y-124291800D01*
X41095036Y-124251411D01*
X40903767Y-124172185D01*
X40903766Y-124172185D01*
X40903765Y-124172184D01*
X40731627Y-124057165D01*
X40585235Y-123910773D01*
X40470216Y-123738635D01*
X40451400Y-123693209D01*
X40390989Y-123547364D01*
X40350600Y-123344316D01*
X40350600Y-123137284D01*
X40390989Y-122934236D01*
X40470215Y-122742967D01*
X40585235Y-122570827D01*
X40731627Y-122424435D01*
X40903765Y-122309416D01*
X40903767Y-122309415D01*
X41095036Y-122230189D01*
X41298084Y-122189800D01*
X41505116Y-122189800D01*
X41708164Y-122230189D01*
G37*
G36*
X113148680Y-123710000D02*
G01*
X111346680Y-123710000D01*
X111346680Y-121908000D01*
X113148680Y-121908000D01*
X113148680Y-123710000D01*
G37*
G36*
X95319502Y-118821762D02*
G01*
X95467461Y-118883049D01*
X95600615Y-118972019D01*
X95713861Y-119085265D01*
X95802831Y-119218419D01*
X95864118Y-119366378D01*
X95895360Y-119523445D01*
X95895360Y-119683595D01*
X95864118Y-119840662D01*
X95802831Y-119988621D01*
X95713861Y-120121775D01*
X95600615Y-120235021D01*
X95467461Y-120323991D01*
X95319502Y-120385278D01*
X95162435Y-120416520D01*
X95002285Y-120416520D01*
X94845218Y-120385278D01*
X94697259Y-120323991D01*
X94564105Y-120235021D01*
X94450859Y-120121775D01*
X94361889Y-119988621D01*
X94300602Y-119840662D01*
X94269360Y-119683595D01*
X94269360Y-119523445D01*
X94300602Y-119366378D01*
X94361889Y-119218419D01*
X94450859Y-119085265D01*
X94564105Y-118972019D01*
X94697259Y-118883049D01*
X94845218Y-118821762D01*
X95002285Y-118790520D01*
X95162435Y-118790520D01*
X95319502Y-118821762D01*
G37*
G36*
X92779502Y-118821762D02*
G01*
X92927461Y-118883049D01*
X93060615Y-118972019D01*
X93173861Y-119085265D01*
X93262831Y-119218419D01*
X93324118Y-119366378D01*
X93355360Y-119523445D01*
X93355360Y-119683595D01*
X93324118Y-119840662D01*
X93262831Y-119988621D01*
X93173861Y-120121775D01*
X93060615Y-120235021D01*
X92927461Y-120323991D01*
X92779502Y-120385278D01*
X92622435Y-120416520D01*
X92462285Y-120416520D01*
X92305218Y-120385278D01*
X92157259Y-120323991D01*
X92024105Y-120235021D01*
X91910859Y-120121775D01*
X91821889Y-119988621D01*
X91760602Y-119840662D01*
X91729360Y-119683595D01*
X91729360Y-119523445D01*
X91760602Y-119366378D01*
X91821889Y-119218419D01*
X91910859Y-119085265D01*
X92024105Y-118972019D01*
X92157259Y-118883049D01*
X92305218Y-118821762D01*
X92462285Y-118790520D01*
X92622435Y-118790520D01*
X92779502Y-118821762D01*
G37*
G36*
X97859502Y-118821762D02*
G01*
X98007461Y-118883049D01*
X98140615Y-118972019D01*
X98253861Y-119085265D01*
X98342831Y-119218419D01*
X98404118Y-119366378D01*
X98435360Y-119523445D01*
X98435360Y-119683595D01*
X98404118Y-119840662D01*
X98342831Y-119988621D01*
X98253861Y-120121775D01*
X98140615Y-120235021D01*
X98007461Y-120323991D01*
X97859502Y-120385278D01*
X97702435Y-120416520D01*
X97542285Y-120416520D01*
X97385218Y-120385278D01*
X97237259Y-120323991D01*
X97104105Y-120235021D01*
X96990859Y-120121775D01*
X96901889Y-119988621D01*
X96840602Y-119840662D01*
X96809360Y-119683595D01*
X96809360Y-119523445D01*
X96840602Y-119366378D01*
X96901889Y-119218419D01*
X96990859Y-119085265D01*
X97104105Y-118972019D01*
X97237259Y-118883049D01*
X97385218Y-118821762D01*
X97542285Y-118790520D01*
X97702435Y-118790520D01*
X97859502Y-118821762D01*
G37*
G36*
X100399502Y-118821762D02*
G01*
X100547461Y-118883049D01*
X100680615Y-118972019D01*
X100793861Y-119085265D01*
X100882831Y-119218419D01*
X100944118Y-119366378D01*
X100975360Y-119523445D01*
X100975360Y-119683595D01*
X100944118Y-119840662D01*
X100882831Y-119988621D01*
X100793861Y-120121775D01*
X100680615Y-120235021D01*
X100547461Y-120323991D01*
X100399502Y-120385278D01*
X100242435Y-120416520D01*
X100082285Y-120416520D01*
X99925218Y-120385278D01*
X99777259Y-120323991D01*
X99644105Y-120235021D01*
X99530859Y-120121775D01*
X99441889Y-119988621D01*
X99380602Y-119840662D01*
X99349360Y-119683595D01*
X99349360Y-119523445D01*
X99380602Y-119366378D01*
X99441889Y-119218419D01*
X99530859Y-119085265D01*
X99644105Y-118972019D01*
X99777259Y-118883049D01*
X99925218Y-118821762D01*
X100082285Y-118790520D01*
X100242435Y-118790520D01*
X100399502Y-118821762D01*
G37*
G36*
X102939502Y-118821762D02*
G01*
X103087461Y-118883049D01*
X103220615Y-118972019D01*
X103333861Y-119085265D01*
X103422831Y-119218419D01*
X103484118Y-119366378D01*
X103515360Y-119523445D01*
X103515360Y-119683595D01*
X103484118Y-119840662D01*
X103422831Y-119988621D01*
X103333861Y-120121775D01*
X103220615Y-120235021D01*
X103087461Y-120323991D01*
X102939502Y-120385278D01*
X102782435Y-120416520D01*
X102622285Y-120416520D01*
X102465218Y-120385278D01*
X102317259Y-120323991D01*
X102184105Y-120235021D01*
X102070859Y-120121775D01*
X101981889Y-119988621D01*
X101920602Y-119840662D01*
X101889360Y-119683595D01*
X101889360Y-119523445D01*
X101920602Y-119366378D01*
X101981889Y-119218419D01*
X102070859Y-119085265D01*
X102184105Y-118972019D01*
X102317259Y-118883049D01*
X102465218Y-118821762D01*
X102622285Y-118790520D01*
X102782435Y-118790520D01*
X102939502Y-118821762D01*
G37*
G36*
X100399502Y-116916762D02*
G01*
X100547461Y-116978049D01*
X100680615Y-117067019D01*
X100793861Y-117180265D01*
X100882831Y-117313419D01*
X100944118Y-117461378D01*
X100975360Y-117618445D01*
X100975360Y-117778595D01*
X100944118Y-117935662D01*
X100882831Y-118083621D01*
X100793861Y-118216775D01*
X100680615Y-118330021D01*
X100547461Y-118418991D01*
X100399502Y-118480278D01*
X100242435Y-118511520D01*
X100082285Y-118511520D01*
X99925218Y-118480278D01*
X99777259Y-118418991D01*
X99644105Y-118330021D01*
X99530859Y-118216775D01*
X99441889Y-118083621D01*
X99380602Y-117935662D01*
X99349360Y-117778595D01*
X99349360Y-117618445D01*
X99380602Y-117461378D01*
X99441889Y-117313419D01*
X99530859Y-117180265D01*
X99644105Y-117067019D01*
X99777259Y-116978049D01*
X99925218Y-116916762D01*
X100082285Y-116885520D01*
X100242435Y-116885520D01*
X100399502Y-116916762D01*
G37*
G36*
X97859502Y-116916762D02*
G01*
X98007461Y-116978049D01*
X98140615Y-117067019D01*
X98253861Y-117180265D01*
X98342831Y-117313419D01*
X98404118Y-117461378D01*
X98435360Y-117618445D01*
X98435360Y-117778595D01*
X98404118Y-117935662D01*
X98342831Y-118083621D01*
X98253861Y-118216775D01*
X98140615Y-118330021D01*
X98007461Y-118418991D01*
X97859502Y-118480278D01*
X97702435Y-118511520D01*
X97542285Y-118511520D01*
X97385218Y-118480278D01*
X97237259Y-118418991D01*
X97104105Y-118330021D01*
X96990859Y-118216775D01*
X96901889Y-118083621D01*
X96840602Y-117935662D01*
X96809360Y-117778595D01*
X96809360Y-117618445D01*
X96840602Y-117461378D01*
X96901889Y-117313419D01*
X96990859Y-117180265D01*
X97104105Y-117067019D01*
X97237259Y-116978049D01*
X97385218Y-116916762D01*
X97542285Y-116885520D01*
X97702435Y-116885520D01*
X97859502Y-116916762D01*
G37*
G36*
X95319502Y-116916762D02*
G01*
X95467461Y-116978049D01*
X95600615Y-117067019D01*
X95713861Y-117180265D01*
X95802831Y-117313419D01*
X95864118Y-117461378D01*
X95895360Y-117618445D01*
X95895360Y-117778595D01*
X95864118Y-117935662D01*
X95802831Y-118083621D01*
X95713861Y-118216775D01*
X95600615Y-118330021D01*
X95467461Y-118418991D01*
X95319502Y-118480278D01*
X95162435Y-118511520D01*
X95002285Y-118511520D01*
X94845218Y-118480278D01*
X94697259Y-118418991D01*
X94564105Y-118330021D01*
X94450859Y-118216775D01*
X94361889Y-118083621D01*
X94300602Y-117935662D01*
X94269360Y-117778595D01*
X94269360Y-117618445D01*
X94300602Y-117461378D01*
X94361889Y-117313419D01*
X94450859Y-117180265D01*
X94564105Y-117067019D01*
X94697259Y-116978049D01*
X94845218Y-116916762D01*
X95002285Y-116885520D01*
X95162435Y-116885520D01*
X95319502Y-116916762D01*
G37*
G36*
X102939502Y-116916762D02*
G01*
X103087461Y-116978049D01*
X103220615Y-117067019D01*
X103333861Y-117180265D01*
X103422831Y-117313419D01*
X103484118Y-117461378D01*
X103515360Y-117618445D01*
X103515360Y-117778595D01*
X103484118Y-117935662D01*
X103422831Y-118083621D01*
X103333861Y-118216775D01*
X103220615Y-118330021D01*
X103087461Y-118418991D01*
X102939502Y-118480278D01*
X102782435Y-118511520D01*
X102622285Y-118511520D01*
X102465218Y-118480278D01*
X102317259Y-118418991D01*
X102184105Y-118330021D01*
X102070859Y-118216775D01*
X101981889Y-118083621D01*
X101920602Y-117935662D01*
X101889360Y-117778595D01*
X101889360Y-117618445D01*
X101920602Y-117461378D01*
X101981889Y-117313419D01*
X102070859Y-117180265D01*
X102184105Y-117067019D01*
X102317259Y-116978049D01*
X102465218Y-116916762D01*
X102622285Y-116885520D01*
X102782435Y-116885520D01*
X102939502Y-116916762D01*
G37*
G36*
X92779502Y-116916762D02*
G01*
X92927461Y-116978049D01*
X93060615Y-117067019D01*
X93173861Y-117180265D01*
X93262831Y-117313419D01*
X93324118Y-117461378D01*
X93355360Y-117618445D01*
X93355360Y-117778595D01*
X93324118Y-117935662D01*
X93262831Y-118083621D01*
X93173861Y-118216775D01*
X93060615Y-118330021D01*
X92927461Y-118418991D01*
X92779502Y-118480278D01*
X92622435Y-118511520D01*
X92462285Y-118511520D01*
X92305218Y-118480278D01*
X92157259Y-118418991D01*
X92024105Y-118330021D01*
X91910859Y-118216775D01*
X91821889Y-118083621D01*
X91760602Y-117935662D01*
X91729360Y-117778595D01*
X91729360Y-117618445D01*
X91760602Y-117461378D01*
X91821889Y-117313419D01*
X91910859Y-117180265D01*
X92024105Y-117067019D01*
X92157259Y-116978049D01*
X92305218Y-116916762D01*
X92462285Y-116885520D01*
X92622435Y-116885520D01*
X92779502Y-116916762D01*
G37*
G36*
X95319502Y-115011762D02*
G01*
X95467461Y-115073049D01*
X95600615Y-115162019D01*
X95713861Y-115275265D01*
X95802831Y-115408419D01*
X95864118Y-115556378D01*
X95895360Y-115713445D01*
X95895360Y-115873595D01*
X95864118Y-116030662D01*
X95802831Y-116178621D01*
X95713861Y-116311775D01*
X95600615Y-116425021D01*
X95467461Y-116513991D01*
X95319502Y-116575278D01*
X95162435Y-116606520D01*
X95002285Y-116606520D01*
X94845218Y-116575278D01*
X94697259Y-116513991D01*
X94564105Y-116425021D01*
X94450859Y-116311775D01*
X94361889Y-116178621D01*
X94300602Y-116030662D01*
X94269360Y-115873595D01*
X94269360Y-115713445D01*
X94300602Y-115556378D01*
X94361889Y-115408419D01*
X94450859Y-115275265D01*
X94564105Y-115162019D01*
X94697259Y-115073049D01*
X94845218Y-115011762D01*
X95002285Y-114980520D01*
X95162435Y-114980520D01*
X95319502Y-115011762D01*
G37*
G36*
X92779502Y-115011762D02*
G01*
X92927461Y-115073049D01*
X93060615Y-115162019D01*
X93173861Y-115275265D01*
X93262831Y-115408419D01*
X93324118Y-115556378D01*
X93355360Y-115713445D01*
X93355360Y-115873595D01*
X93324118Y-116030662D01*
X93262831Y-116178621D01*
X93173861Y-116311775D01*
X93060615Y-116425021D01*
X92927461Y-116513991D01*
X92779502Y-116575278D01*
X92622435Y-116606520D01*
X92462285Y-116606520D01*
X92305218Y-116575278D01*
X92157259Y-116513991D01*
X92024105Y-116425021D01*
X91910859Y-116311775D01*
X91821889Y-116178621D01*
X91760602Y-116030662D01*
X91729360Y-115873595D01*
X91729360Y-115713445D01*
X91760602Y-115556378D01*
X91821889Y-115408419D01*
X91910859Y-115275265D01*
X92024105Y-115162019D01*
X92157259Y-115073049D01*
X92305218Y-115011762D01*
X92462285Y-114980520D01*
X92622435Y-114980520D01*
X92779502Y-115011762D01*
G37*
G36*
X100399502Y-115011762D02*
G01*
X100547461Y-115073049D01*
X100680615Y-115162019D01*
X100793861Y-115275265D01*
X100882831Y-115408419D01*
X100944118Y-115556378D01*
X100975360Y-115713445D01*
X100975360Y-115873595D01*
X100944118Y-116030662D01*
X100882831Y-116178621D01*
X100793861Y-116311775D01*
X100680615Y-116425021D01*
X100547461Y-116513991D01*
X100399502Y-116575278D01*
X100242435Y-116606520D01*
X100082285Y-116606520D01*
X99925218Y-116575278D01*
X99777259Y-116513991D01*
X99644105Y-116425021D01*
X99530859Y-116311775D01*
X99441889Y-116178621D01*
X99380602Y-116030662D01*
X99349360Y-115873595D01*
X99349360Y-115713445D01*
X99380602Y-115556378D01*
X99441889Y-115408419D01*
X99530859Y-115275265D01*
X99644105Y-115162019D01*
X99777259Y-115073049D01*
X99925218Y-115011762D01*
X100082285Y-114980520D01*
X100242435Y-114980520D01*
X100399502Y-115011762D01*
G37*
G36*
X102939502Y-115011762D02*
G01*
X103087461Y-115073049D01*
X103220615Y-115162019D01*
X103333861Y-115275265D01*
X103422831Y-115408419D01*
X103484118Y-115556378D01*
X103515360Y-115713445D01*
X103515360Y-115873595D01*
X103484118Y-116030662D01*
X103422831Y-116178621D01*
X103333861Y-116311775D01*
X103220615Y-116425021D01*
X103087461Y-116513991D01*
X102939502Y-116575278D01*
X102782435Y-116606520D01*
X102622285Y-116606520D01*
X102465218Y-116575278D01*
X102317259Y-116513991D01*
X102184105Y-116425021D01*
X102070859Y-116311775D01*
X101981889Y-116178621D01*
X101920602Y-116030662D01*
X101889360Y-115873595D01*
X101889360Y-115713445D01*
X101920602Y-115556378D01*
X101981889Y-115408419D01*
X102070859Y-115275265D01*
X102184105Y-115162019D01*
X102317259Y-115073049D01*
X102465218Y-115011762D01*
X102622285Y-114980520D01*
X102782435Y-114980520D01*
X102939502Y-115011762D01*
G37*
G36*
X97859502Y-115011762D02*
G01*
X98007461Y-115073049D01*
X98140615Y-115162019D01*
X98253861Y-115275265D01*
X98342831Y-115408419D01*
X98404118Y-115556378D01*
X98435360Y-115713445D01*
X98435360Y-115873595D01*
X98404118Y-116030662D01*
X98342831Y-116178621D01*
X98253861Y-116311775D01*
X98140615Y-116425021D01*
X98007461Y-116513991D01*
X97859502Y-116575278D01*
X97702435Y-116606520D01*
X97542285Y-116606520D01*
X97385218Y-116575278D01*
X97237259Y-116513991D01*
X97104105Y-116425021D01*
X96990859Y-116311775D01*
X96901889Y-116178621D01*
X96840602Y-116030662D01*
X96809360Y-115873595D01*
X96809360Y-115713445D01*
X96840602Y-115556378D01*
X96901889Y-115408419D01*
X96990859Y-115275265D01*
X97104105Y-115162019D01*
X97237259Y-115073049D01*
X97385218Y-115011762D01*
X97542285Y-114980520D01*
X97702435Y-114980520D01*
X97859502Y-115011762D01*
G37*
G36*
X92779502Y-113106762D02*
G01*
X92927461Y-113168049D01*
X93060615Y-113257019D01*
X93173861Y-113370265D01*
X93262831Y-113503419D01*
X93324118Y-113651378D01*
X93355360Y-113808445D01*
X93355360Y-113968595D01*
X93324118Y-114125662D01*
X93262831Y-114273621D01*
X93173861Y-114406775D01*
X93060615Y-114520021D01*
X92927461Y-114608991D01*
X92779502Y-114670278D01*
X92622435Y-114701520D01*
X92462285Y-114701520D01*
X92305218Y-114670278D01*
X92157259Y-114608991D01*
X92024105Y-114520021D01*
X91910859Y-114406775D01*
X91821889Y-114273621D01*
X91760602Y-114125662D01*
X91729360Y-113968595D01*
X91729360Y-113808445D01*
X91760602Y-113651378D01*
X91821889Y-113503419D01*
X91910859Y-113370265D01*
X92024105Y-113257019D01*
X92157259Y-113168049D01*
X92305218Y-113106762D01*
X92462285Y-113075520D01*
X92622435Y-113075520D01*
X92779502Y-113106762D01*
G37*
G36*
X100399502Y-113106762D02*
G01*
X100547461Y-113168049D01*
X100680615Y-113257019D01*
X100793861Y-113370265D01*
X100882831Y-113503419D01*
X100944118Y-113651378D01*
X100975360Y-113808445D01*
X100975360Y-113968595D01*
X100944118Y-114125662D01*
X100882831Y-114273621D01*
X100793861Y-114406775D01*
X100680615Y-114520021D01*
X100547461Y-114608991D01*
X100399502Y-114670278D01*
X100242435Y-114701520D01*
X100082285Y-114701520D01*
X99925218Y-114670278D01*
X99777259Y-114608991D01*
X99644105Y-114520021D01*
X99530859Y-114406775D01*
X99441889Y-114273621D01*
X99380602Y-114125662D01*
X99349360Y-113968595D01*
X99349360Y-113808445D01*
X99380602Y-113651378D01*
X99441889Y-113503419D01*
X99530859Y-113370265D01*
X99644105Y-113257019D01*
X99777259Y-113168049D01*
X99925218Y-113106762D01*
X100082285Y-113075520D01*
X100242435Y-113075520D01*
X100399502Y-113106762D01*
G37*
G36*
X97859502Y-113106762D02*
G01*
X98007461Y-113168049D01*
X98140615Y-113257019D01*
X98253861Y-113370265D01*
X98342831Y-113503419D01*
X98404118Y-113651378D01*
X98435360Y-113808445D01*
X98435360Y-113968595D01*
X98404118Y-114125662D01*
X98342831Y-114273621D01*
X98253861Y-114406775D01*
X98140615Y-114520021D01*
X98007461Y-114608991D01*
X97859502Y-114670278D01*
X97702435Y-114701520D01*
X97542285Y-114701520D01*
X97385218Y-114670278D01*
X97237259Y-114608991D01*
X97104105Y-114520021D01*
X96990859Y-114406775D01*
X96901889Y-114273621D01*
X96840602Y-114125662D01*
X96809360Y-113968595D01*
X96809360Y-113808445D01*
X96840602Y-113651378D01*
X96901889Y-113503419D01*
X96990859Y-113370265D01*
X97104105Y-113257019D01*
X97237259Y-113168049D01*
X97385218Y-113106762D01*
X97542285Y-113075520D01*
X97702435Y-113075520D01*
X97859502Y-113106762D01*
G37*
G36*
X95319502Y-113106762D02*
G01*
X95467461Y-113168049D01*
X95600615Y-113257019D01*
X95713861Y-113370265D01*
X95802831Y-113503419D01*
X95864118Y-113651378D01*
X95895360Y-113808445D01*
X95895360Y-113968595D01*
X95864118Y-114125662D01*
X95802831Y-114273621D01*
X95713861Y-114406775D01*
X95600615Y-114520021D01*
X95467461Y-114608991D01*
X95319502Y-114670278D01*
X95162435Y-114701520D01*
X95002285Y-114701520D01*
X94845218Y-114670278D01*
X94697259Y-114608991D01*
X94564105Y-114520021D01*
X94450859Y-114406775D01*
X94361889Y-114273621D01*
X94300602Y-114125662D01*
X94269360Y-113968595D01*
X94269360Y-113808445D01*
X94300602Y-113651378D01*
X94361889Y-113503419D01*
X94450859Y-113370265D01*
X94564105Y-113257019D01*
X94697259Y-113168049D01*
X94845218Y-113106762D01*
X95002285Y-113075520D01*
X95162435Y-113075520D01*
X95319502Y-113106762D01*
G37*
G36*
X102939502Y-113106762D02*
G01*
X103087461Y-113168049D01*
X103220615Y-113257019D01*
X103333861Y-113370265D01*
X103422831Y-113503419D01*
X103484118Y-113651378D01*
X103515360Y-113808445D01*
X103515360Y-113968595D01*
X103484118Y-114125662D01*
X103422831Y-114273621D01*
X103333861Y-114406775D01*
X103220615Y-114520021D01*
X103087461Y-114608991D01*
X102939502Y-114670278D01*
X102782435Y-114701520D01*
X102622285Y-114701520D01*
X102465218Y-114670278D01*
X102317259Y-114608991D01*
X102184105Y-114520021D01*
X102070859Y-114406775D01*
X101981889Y-114273621D01*
X101920602Y-114125662D01*
X101889360Y-113968595D01*
X101889360Y-113808445D01*
X101920602Y-113651378D01*
X101981889Y-113503419D01*
X102070859Y-113370265D01*
X102184105Y-113257019D01*
X102317259Y-113168049D01*
X102465218Y-113106762D01*
X102622285Y-113075520D01*
X102782435Y-113075520D01*
X102939502Y-113106762D01*
G37*
G36*
X95319502Y-111201762D02*
G01*
X95467461Y-111263049D01*
X95600615Y-111352019D01*
X95713861Y-111465265D01*
X95802831Y-111598419D01*
X95864118Y-111746378D01*
X95895360Y-111903445D01*
X95895360Y-112063595D01*
X95864118Y-112220662D01*
X95802831Y-112368621D01*
X95713861Y-112501775D01*
X95600615Y-112615021D01*
X95467461Y-112703991D01*
X95319502Y-112765278D01*
X95162435Y-112796520D01*
X95002285Y-112796520D01*
X94845218Y-112765278D01*
X94697259Y-112703991D01*
X94564105Y-112615021D01*
X94450859Y-112501775D01*
X94361889Y-112368621D01*
X94300602Y-112220662D01*
X94269360Y-112063595D01*
X94269360Y-111903445D01*
X94300602Y-111746378D01*
X94361889Y-111598419D01*
X94450859Y-111465265D01*
X94564105Y-111352019D01*
X94697259Y-111263049D01*
X94845218Y-111201762D01*
X95002285Y-111170520D01*
X95162435Y-111170520D01*
X95319502Y-111201762D01*
G37*
G36*
X92779502Y-111201762D02*
G01*
X92927461Y-111263049D01*
X93060615Y-111352019D01*
X93173861Y-111465265D01*
X93262831Y-111598419D01*
X93324118Y-111746378D01*
X93355360Y-111903445D01*
X93355360Y-112063595D01*
X93324118Y-112220662D01*
X93262831Y-112368621D01*
X93173861Y-112501775D01*
X93060615Y-112615021D01*
X92927461Y-112703991D01*
X92779502Y-112765278D01*
X92622435Y-112796520D01*
X92462285Y-112796520D01*
X92305218Y-112765278D01*
X92157259Y-112703991D01*
X92024105Y-112615021D01*
X91910859Y-112501775D01*
X91821889Y-112368621D01*
X91760602Y-112220662D01*
X91729360Y-112063595D01*
X91729360Y-111903445D01*
X91760602Y-111746378D01*
X91821889Y-111598419D01*
X91910859Y-111465265D01*
X92024105Y-111352019D01*
X92157259Y-111263049D01*
X92305218Y-111201762D01*
X92462285Y-111170520D01*
X92622435Y-111170520D01*
X92779502Y-111201762D01*
G37*
G36*
X97859502Y-111201762D02*
G01*
X98007461Y-111263049D01*
X98140615Y-111352019D01*
X98253861Y-111465265D01*
X98342831Y-111598419D01*
X98404118Y-111746378D01*
X98435360Y-111903445D01*
X98435360Y-112063595D01*
X98404118Y-112220662D01*
X98342831Y-112368621D01*
X98253861Y-112501775D01*
X98140615Y-112615021D01*
X98007461Y-112703991D01*
X97859502Y-112765278D01*
X97702435Y-112796520D01*
X97542285Y-112796520D01*
X97385218Y-112765278D01*
X97237259Y-112703991D01*
X97104105Y-112615021D01*
X96990859Y-112501775D01*
X96901889Y-112368621D01*
X96840602Y-112220662D01*
X96809360Y-112063595D01*
X96809360Y-111903445D01*
X96840602Y-111746378D01*
X96901889Y-111598419D01*
X96990859Y-111465265D01*
X97104105Y-111352019D01*
X97237259Y-111263049D01*
X97385218Y-111201762D01*
X97542285Y-111170520D01*
X97702435Y-111170520D01*
X97859502Y-111201762D01*
G37*
G36*
X100399502Y-111201762D02*
G01*
X100547461Y-111263049D01*
X100680615Y-111352019D01*
X100793861Y-111465265D01*
X100882831Y-111598419D01*
X100944118Y-111746378D01*
X100975360Y-111903445D01*
X100975360Y-112063595D01*
X100944118Y-112220662D01*
X100882831Y-112368621D01*
X100793861Y-112501775D01*
X100680615Y-112615021D01*
X100547461Y-112703991D01*
X100399502Y-112765278D01*
X100242435Y-112796520D01*
X100082285Y-112796520D01*
X99925218Y-112765278D01*
X99777259Y-112703991D01*
X99644105Y-112615021D01*
X99530859Y-112501775D01*
X99441889Y-112368621D01*
X99380602Y-112220662D01*
X99349360Y-112063595D01*
X99349360Y-111903445D01*
X99380602Y-111746378D01*
X99441889Y-111598419D01*
X99530859Y-111465265D01*
X99644105Y-111352019D01*
X99777259Y-111263049D01*
X99925218Y-111201762D01*
X100082285Y-111170520D01*
X100242435Y-111170520D01*
X100399502Y-111201762D01*
G37*
G36*
X102939502Y-111201762D02*
G01*
X103087461Y-111263049D01*
X103220615Y-111352019D01*
X103333861Y-111465265D01*
X103422831Y-111598419D01*
X103484118Y-111746378D01*
X103515360Y-111903445D01*
X103515360Y-112063595D01*
X103484118Y-112220662D01*
X103422831Y-112368621D01*
X103333861Y-112501775D01*
X103220615Y-112615021D01*
X103087461Y-112703991D01*
X102939502Y-112765278D01*
X102782435Y-112796520D01*
X102622285Y-112796520D01*
X102465218Y-112765278D01*
X102317259Y-112703991D01*
X102184105Y-112615021D01*
X102070859Y-112501775D01*
X101981889Y-112368621D01*
X101920602Y-112220662D01*
X101889360Y-112063595D01*
X101889360Y-111903445D01*
X101920602Y-111746378D01*
X101981889Y-111598419D01*
X102070859Y-111465265D01*
X102184105Y-111352019D01*
X102317259Y-111263049D01*
X102465218Y-111201762D01*
X102622285Y-111170520D01*
X102782435Y-111170520D01*
X102939502Y-111201762D01*
G37*
G36*
X43457395Y-104495546D02*
G01*
X43630466Y-104567234D01*
X43630467Y-104567235D01*
X43786227Y-104671310D01*
X43918690Y-104803773D01*
X43918691Y-104803775D01*
X44022766Y-104959534D01*
X44094454Y-105132605D01*
X44131000Y-105316333D01*
X44131000Y-105503667D01*
X44094454Y-105687395D01*
X44022766Y-105860466D01*
X44022765Y-105860467D01*
X43918690Y-106016227D01*
X43786227Y-106148690D01*
X43707818Y-106201081D01*
X43630466Y-106252766D01*
X43457395Y-106324454D01*
X43273667Y-106361000D01*
X43086333Y-106361000D01*
X42902605Y-106324454D01*
X42729534Y-106252766D01*
X42652182Y-106201081D01*
X42573773Y-106148690D01*
X42441310Y-106016227D01*
X42337235Y-105860467D01*
X42337234Y-105860466D01*
X42265546Y-105687395D01*
X42229000Y-105503667D01*
X42229000Y-105316333D01*
X42265546Y-105132605D01*
X42337234Y-104959534D01*
X42441309Y-104803775D01*
X42441310Y-104803773D01*
X42573773Y-104671310D01*
X42729533Y-104567235D01*
X42729534Y-104567234D01*
X42902605Y-104495546D01*
X43086333Y-104459000D01*
X43273667Y-104459000D01*
X43457395Y-104495546D01*
G37*
G36*
X41591000Y-106361000D02*
G01*
X39689000Y-106361000D01*
X39689000Y-104459000D01*
X41591000Y-104459000D01*
X41591000Y-106361000D01*
G37*
G36*
X39991512Y-100145127D02*
G01*
X40140812Y-100174824D01*
X40304784Y-100242744D01*
X40452354Y-100341347D01*
X40577853Y-100466846D01*
X40676456Y-100614416D01*
X40744376Y-100778388D01*
X40779000Y-100952459D01*
X40779000Y-101129941D01*
X40744376Y-101304012D01*
X40676456Y-101467984D01*
X40577853Y-101615554D01*
X40452354Y-101741053D01*
X40304784Y-101839656D01*
X40140812Y-101907576D01*
X39991512Y-101937273D01*
X39966742Y-101942200D01*
X39789258Y-101942200D01*
X39764488Y-101937273D01*
X39615188Y-101907576D01*
X39451216Y-101839656D01*
X39303646Y-101741053D01*
X39178147Y-101615554D01*
X39079544Y-101467984D01*
X39011624Y-101304012D01*
X38977000Y-101129941D01*
X38977000Y-100952459D01*
X39011624Y-100778388D01*
X39079544Y-100614416D01*
X39178147Y-100466846D01*
X39303646Y-100341347D01*
X39451216Y-100242744D01*
X39615188Y-100174824D01*
X39764488Y-100145127D01*
X39789258Y-100140200D01*
X39966742Y-100140200D01*
X39991512Y-100145127D01*
G37*
G36*
X39991512Y-97605127D02*
G01*
X40140812Y-97634824D01*
X40304784Y-97702744D01*
X40452354Y-97801347D01*
X40577853Y-97926846D01*
X40676456Y-98074416D01*
X40744376Y-98238388D01*
X40779000Y-98412459D01*
X40779000Y-98589941D01*
X40744376Y-98764012D01*
X40676456Y-98927984D01*
X40577853Y-99075554D01*
X40452354Y-99201053D01*
X40304784Y-99299656D01*
X40140812Y-99367576D01*
X39991512Y-99397273D01*
X39966742Y-99402200D01*
X39789258Y-99402200D01*
X39764488Y-99397273D01*
X39615188Y-99367576D01*
X39451216Y-99299656D01*
X39303646Y-99201053D01*
X39178147Y-99075554D01*
X39079544Y-98927984D01*
X39011624Y-98764012D01*
X38977000Y-98589941D01*
X38977000Y-98412459D01*
X39011624Y-98238388D01*
X39079544Y-98074416D01*
X39178147Y-97926846D01*
X39303646Y-97801347D01*
X39451216Y-97702744D01*
X39615188Y-97634824D01*
X39764488Y-97605127D01*
X39789258Y-97600200D01*
X39966742Y-97600200D01*
X39991512Y-97605127D01*
G37*
G36*
X93026800Y-98462400D02*
G01*
X91224800Y-98462400D01*
X91224800Y-96660400D01*
X93026800Y-96660400D01*
X93026800Y-98462400D01*
G37*
G36*
X40779000Y-96862200D02*
G01*
X38977000Y-96862200D01*
X38977000Y-95060200D01*
X40779000Y-95060200D01*
X40779000Y-96862200D01*
G37*
G36*
X85711600Y-94677800D02*
G01*
X83909600Y-94677800D01*
X83909600Y-92875800D01*
X85711600Y-92875800D01*
X85711600Y-94677800D01*
G37*
G36*
X55307800Y-92036200D02*
G01*
X53505800Y-92036200D01*
X53505800Y-90234200D01*
X55307800Y-90234200D01*
X55307800Y-92036200D01*
G37*
G36*
X41247595Y-89357146D02*
G01*
X41420666Y-89428834D01*
X41420667Y-89428835D01*
X41576427Y-89532910D01*
X41708890Y-89665373D01*
X41708891Y-89665375D01*
X41812966Y-89821134D01*
X41884654Y-89994205D01*
X41921200Y-90177933D01*
X41921200Y-90365267D01*
X41884654Y-90548995D01*
X41812966Y-90722066D01*
X41812965Y-90722067D01*
X41708890Y-90877827D01*
X41576427Y-91010290D01*
X41498018Y-91062681D01*
X41420666Y-91114366D01*
X41247595Y-91186054D01*
X41063867Y-91222600D01*
X40876533Y-91222600D01*
X40692805Y-91186054D01*
X40519734Y-91114366D01*
X40442382Y-91062681D01*
X40363973Y-91010290D01*
X40231510Y-90877827D01*
X40127435Y-90722067D01*
X40127434Y-90722066D01*
X40055746Y-90548995D01*
X40019200Y-90365267D01*
X40019200Y-90177933D01*
X40055746Y-89994205D01*
X40127434Y-89821134D01*
X40231509Y-89665375D01*
X40231510Y-89665373D01*
X40363973Y-89532910D01*
X40519733Y-89428835D01*
X40519734Y-89428834D01*
X40692805Y-89357146D01*
X40876533Y-89320600D01*
X41063867Y-89320600D01*
X41247595Y-89357146D01*
G37*
G36*
X39381200Y-91222600D02*
G01*
X37479200Y-91222600D01*
X37479200Y-89320600D01*
X39381200Y-89320600D01*
X39381200Y-91222600D01*
G37*
G36*
X71789703Y-83887075D02*
G01*
X72017371Y-83981378D01*
X72222266Y-84118285D01*
X72396515Y-84292534D01*
X72482508Y-84421231D01*
X72533423Y-84497431D01*
X72627725Y-84725097D01*
X72644013Y-84806980D01*
X72675800Y-84966787D01*
X72675800Y-85213213D01*
X72627725Y-85454903D01*
X72533422Y-85682571D01*
X72396515Y-85887466D01*
X72222266Y-86061715D01*
X72017371Y-86198622D01*
X72017370Y-86198623D01*
X72017369Y-86198623D01*
X71789703Y-86292925D01*
X71548014Y-86341000D01*
X71301586Y-86341000D01*
X71059897Y-86292925D01*
X70832231Y-86198623D01*
X70832230Y-86198623D01*
X70832229Y-86198622D01*
X70627334Y-86061715D01*
X70453085Y-85887466D01*
X70316178Y-85682571D01*
X70221875Y-85454903D01*
X70173800Y-85213213D01*
X70173800Y-84966787D01*
X70205588Y-84806980D01*
X70221875Y-84725097D01*
X70316177Y-84497431D01*
X70367092Y-84421231D01*
X70453085Y-84292534D01*
X70627334Y-84118285D01*
X70832229Y-83981378D01*
X71059897Y-83887075D01*
X71301586Y-83839000D01*
X71548014Y-83839000D01*
X71789703Y-83887075D01*
G37*
G36*
X130933603Y-83810875D02*
G01*
X131117567Y-83887075D01*
X131161271Y-83905178D01*
X131366166Y-84042085D01*
X131540415Y-84216334D01*
X131628602Y-84348315D01*
X131677323Y-84421231D01*
X131771625Y-84648897D01*
X131819700Y-84890587D01*
X131819700Y-85137013D01*
X131771625Y-85378703D01*
X131677322Y-85606371D01*
X131540415Y-85811266D01*
X131366166Y-85985515D01*
X131161271Y-86122422D01*
X131161270Y-86122423D01*
X131161269Y-86122423D01*
X130933603Y-86216725D01*
X130691914Y-86264800D01*
X130445486Y-86264800D01*
X130203797Y-86216725D01*
X129976131Y-86122423D01*
X129976130Y-86122423D01*
X129976129Y-86122422D01*
X129771234Y-85985515D01*
X129596985Y-85811266D01*
X129460078Y-85606371D01*
X129365775Y-85378703D01*
X129317700Y-85137013D01*
X129317700Y-84890587D01*
X129365775Y-84648897D01*
X129460077Y-84421231D01*
X129508798Y-84348315D01*
X129596985Y-84216334D01*
X129771234Y-84042085D01*
X129976129Y-83905178D01*
X130019834Y-83887075D01*
X130203797Y-83810875D01*
X130445486Y-83762800D01*
X130691914Y-83762800D01*
X130933603Y-83810875D01*
G37*
G36*
X63246328Y-83446203D02*
G01*
X63401200Y-83510353D01*
X63540581Y-83603485D01*
X63659115Y-83722019D01*
X63752247Y-83861400D01*
X63816397Y-84016272D01*
X63849100Y-84180684D01*
X63849100Y-84348316D01*
X63816397Y-84512728D01*
X63752247Y-84667600D01*
X63659115Y-84806981D01*
X63540581Y-84925515D01*
X63401200Y-85018647D01*
X63246328Y-85082797D01*
X63081916Y-85115500D01*
X62914284Y-85115500D01*
X62749872Y-85082797D01*
X62595000Y-85018647D01*
X62455619Y-84925515D01*
X62337085Y-84806981D01*
X62243953Y-84667600D01*
X62179803Y-84512728D01*
X62147100Y-84348316D01*
X62147100Y-84180684D01*
X62179803Y-84016272D01*
X62243953Y-83861400D01*
X62337085Y-83722019D01*
X62455619Y-83603485D01*
X62595000Y-83510353D01*
X62749872Y-83446203D01*
X62914284Y-83413500D01*
X63081916Y-83413500D01*
X63246328Y-83446203D01*
G37*
G36*
X61849100Y-85115500D02*
G01*
X60147100Y-85115500D01*
X60147100Y-83413500D01*
X61849100Y-83413500D01*
X61849100Y-85115500D01*
G37*
G36*
X39355800Y-83907400D02*
G01*
X37453800Y-83907400D01*
X37453800Y-82005400D01*
X39355800Y-82005400D01*
X39355800Y-83907400D01*
G37*
G36*
X41222195Y-82041946D02*
G01*
X41395266Y-82113634D01*
X41395267Y-82113635D01*
X41551027Y-82217710D01*
X41683490Y-82350173D01*
X41683491Y-82350175D01*
X41787566Y-82505934D01*
X41859254Y-82679005D01*
X41895800Y-82862733D01*
X41895800Y-83050067D01*
X41859254Y-83233795D01*
X41787566Y-83406866D01*
X41787565Y-83406867D01*
X41683490Y-83562627D01*
X41551027Y-83695090D01*
X41510723Y-83722020D01*
X41395266Y-83799166D01*
X41222195Y-83870854D01*
X41038467Y-83907400D01*
X40851133Y-83907400D01*
X40667405Y-83870854D01*
X40494334Y-83799166D01*
X40378877Y-83722020D01*
X40338573Y-83695090D01*
X40206110Y-83562627D01*
X40102035Y-83406867D01*
X40102034Y-83406866D01*
X40030346Y-83233795D01*
X39993800Y-83050067D01*
X39993800Y-82862733D01*
X40030346Y-82679005D01*
X40102034Y-82505934D01*
X40206109Y-82350175D01*
X40206110Y-82350173D01*
X40338573Y-82217710D01*
X40494333Y-82113635D01*
X40494334Y-82113634D01*
X40667405Y-82041946D01*
X40851133Y-82005400D01*
X41038467Y-82005400D01*
X41222195Y-82041946D01*
G37*
G36*
X41323795Y-74574346D02*
G01*
X41496866Y-74646034D01*
X41496867Y-74646035D01*
X41652627Y-74750110D01*
X41785090Y-74882573D01*
X41785091Y-74882575D01*
X41889166Y-75038334D01*
X41960854Y-75211405D01*
X41997400Y-75395133D01*
X41997400Y-75582467D01*
X41960854Y-75766195D01*
X41889166Y-75939266D01*
X41889165Y-75939267D01*
X41785090Y-76095027D01*
X41652627Y-76227490D01*
X41574218Y-76279881D01*
X41496866Y-76331566D01*
X41323795Y-76403254D01*
X41140067Y-76439800D01*
X40952733Y-76439800D01*
X40769005Y-76403254D01*
X40595934Y-76331566D01*
X40518582Y-76279881D01*
X40440173Y-76227490D01*
X40307710Y-76095027D01*
X40203635Y-75939267D01*
X40203634Y-75939266D01*
X40131946Y-75766195D01*
X40095400Y-75582467D01*
X40095400Y-75395133D01*
X40131946Y-75211405D01*
X40203634Y-75038334D01*
X40307709Y-74882575D01*
X40307710Y-74882573D01*
X40440173Y-74750110D01*
X40595933Y-74646035D01*
X40595934Y-74646034D01*
X40769005Y-74574346D01*
X40952733Y-74537800D01*
X41140067Y-74537800D01*
X41323795Y-74574346D01*
G37*
G36*
X39457400Y-76439800D02*
G01*
X37555400Y-76439800D01*
X37555400Y-74537800D01*
X39457400Y-74537800D01*
X39457400Y-76439800D01*
G37*
G36*
X94217142Y-69068242D02*
G01*
X94365101Y-69129529D01*
X94498255Y-69218499D01*
X94611501Y-69331745D01*
X94700471Y-69464899D01*
X94761758Y-69612858D01*
X94793000Y-69769925D01*
X94793000Y-69930075D01*
X94761758Y-70087142D01*
X94700471Y-70235101D01*
X94611501Y-70368255D01*
X94498255Y-70481501D01*
X94365101Y-70570471D01*
X94217142Y-70631758D01*
X94060075Y-70663000D01*
X93899925Y-70663000D01*
X93742858Y-70631758D01*
X93594899Y-70570471D01*
X93461745Y-70481501D01*
X93348499Y-70368255D01*
X93259529Y-70235101D01*
X93198242Y-70087142D01*
X93167000Y-69930075D01*
X93167000Y-69769925D01*
X93198242Y-69612858D01*
X93259529Y-69464899D01*
X93348499Y-69331745D01*
X93461745Y-69218499D01*
X93594899Y-69129529D01*
X93742858Y-69068242D01*
X93899925Y-69037000D01*
X94060075Y-69037000D01*
X94217142Y-69068242D01*
G37*
G36*
X101837142Y-69068242D02*
G01*
X101985101Y-69129529D01*
X102118255Y-69218499D01*
X102231501Y-69331745D01*
X102320471Y-69464899D01*
X102381758Y-69612858D01*
X102413000Y-69769925D01*
X102413000Y-69930075D01*
X102381758Y-70087142D01*
X102320471Y-70235101D01*
X102231501Y-70368255D01*
X102118255Y-70481501D01*
X101985101Y-70570471D01*
X101837142Y-70631758D01*
X101680075Y-70663000D01*
X101519925Y-70663000D01*
X101362858Y-70631758D01*
X101214899Y-70570471D01*
X101081745Y-70481501D01*
X100968499Y-70368255D01*
X100879529Y-70235101D01*
X100818242Y-70087142D01*
X100787000Y-69930075D01*
X100787000Y-69769925D01*
X100818242Y-69612858D01*
X100879529Y-69464899D01*
X100968499Y-69331745D01*
X101081745Y-69218499D01*
X101214899Y-69129529D01*
X101362858Y-69068242D01*
X101519925Y-69037000D01*
X101680075Y-69037000D01*
X101837142Y-69068242D01*
G37*
G36*
X63737142Y-69068242D02*
G01*
X63885101Y-69129529D01*
X64018255Y-69218499D01*
X64131501Y-69331745D01*
X64220471Y-69464899D01*
X64281758Y-69612858D01*
X64313000Y-69769925D01*
X64313000Y-69930075D01*
X64281758Y-70087142D01*
X64220471Y-70235101D01*
X64131501Y-70368255D01*
X64018255Y-70481501D01*
X63885101Y-70570471D01*
X63737142Y-70631758D01*
X63580075Y-70663000D01*
X63419925Y-70663000D01*
X63262858Y-70631758D01*
X63114899Y-70570471D01*
X62981745Y-70481501D01*
X62868499Y-70368255D01*
X62779529Y-70235101D01*
X62718242Y-70087142D01*
X62687000Y-69930075D01*
X62687000Y-69769925D01*
X62718242Y-69612858D01*
X62779529Y-69464899D01*
X62868499Y-69331745D01*
X62981745Y-69218499D01*
X63114899Y-69129529D01*
X63262858Y-69068242D01*
X63419925Y-69037000D01*
X63580075Y-69037000D01*
X63737142Y-69068242D01*
G37*
G36*
X66277142Y-69068242D02*
G01*
X66425101Y-69129529D01*
X66558255Y-69218499D01*
X66671501Y-69331745D01*
X66760471Y-69464899D01*
X66821758Y-69612858D01*
X66853000Y-69769925D01*
X66853000Y-69930075D01*
X66821758Y-70087142D01*
X66760471Y-70235101D01*
X66671501Y-70368255D01*
X66558255Y-70481501D01*
X66425101Y-70570471D01*
X66277142Y-70631758D01*
X66120075Y-70663000D01*
X65959925Y-70663000D01*
X65802858Y-70631758D01*
X65654899Y-70570471D01*
X65521745Y-70481501D01*
X65408499Y-70368255D01*
X65319529Y-70235101D01*
X65258242Y-70087142D01*
X65227000Y-69930075D01*
X65227000Y-69769925D01*
X65258242Y-69612858D01*
X65319529Y-69464899D01*
X65408499Y-69331745D01*
X65521745Y-69218499D01*
X65654899Y-69129529D01*
X65802858Y-69068242D01*
X65959925Y-69037000D01*
X66120075Y-69037000D01*
X66277142Y-69068242D01*
G37*
G36*
X68817142Y-69068242D02*
G01*
X68965101Y-69129529D01*
X69098255Y-69218499D01*
X69211501Y-69331745D01*
X69300471Y-69464899D01*
X69361758Y-69612858D01*
X69393000Y-69769925D01*
X69393000Y-69930075D01*
X69361758Y-70087142D01*
X69300471Y-70235101D01*
X69211501Y-70368255D01*
X69098255Y-70481501D01*
X68965101Y-70570471D01*
X68817142Y-70631758D01*
X68660075Y-70663000D01*
X68499925Y-70663000D01*
X68342858Y-70631758D01*
X68194899Y-70570471D01*
X68061745Y-70481501D01*
X67948499Y-70368255D01*
X67859529Y-70235101D01*
X67798242Y-70087142D01*
X67767000Y-69930075D01*
X67767000Y-69769925D01*
X67798242Y-69612858D01*
X67859529Y-69464899D01*
X67948499Y-69331745D01*
X68061745Y-69218499D01*
X68194899Y-69129529D01*
X68342858Y-69068242D01*
X68499925Y-69037000D01*
X68660075Y-69037000D01*
X68817142Y-69068242D01*
G37*
G36*
X71357142Y-69068242D02*
G01*
X71505101Y-69129529D01*
X71638255Y-69218499D01*
X71751501Y-69331745D01*
X71840471Y-69464899D01*
X71901758Y-69612858D01*
X71933000Y-69769925D01*
X71933000Y-69930075D01*
X71901758Y-70087142D01*
X71840471Y-70235101D01*
X71751501Y-70368255D01*
X71638255Y-70481501D01*
X71505101Y-70570471D01*
X71357142Y-70631758D01*
X71200075Y-70663000D01*
X71039925Y-70663000D01*
X70882858Y-70631758D01*
X70734899Y-70570471D01*
X70601745Y-70481501D01*
X70488499Y-70368255D01*
X70399529Y-70235101D01*
X70338242Y-70087142D01*
X70307000Y-69930075D01*
X70307000Y-69769925D01*
X70338242Y-69612858D01*
X70399529Y-69464899D01*
X70488499Y-69331745D01*
X70601745Y-69218499D01*
X70734899Y-69129529D01*
X70882858Y-69068242D01*
X71039925Y-69037000D01*
X71200075Y-69037000D01*
X71357142Y-69068242D01*
G37*
G36*
X61197142Y-69068242D02*
G01*
X61345101Y-69129529D01*
X61478255Y-69218499D01*
X61591501Y-69331745D01*
X61680471Y-69464899D01*
X61741758Y-69612858D01*
X61773000Y-69769925D01*
X61773000Y-69930075D01*
X61741758Y-70087142D01*
X61680471Y-70235101D01*
X61591501Y-70368255D01*
X61478255Y-70481501D01*
X61345101Y-70570471D01*
X61197142Y-70631758D01*
X61040075Y-70663000D01*
X60879925Y-70663000D01*
X60722858Y-70631758D01*
X60574899Y-70570471D01*
X60441745Y-70481501D01*
X60328499Y-70368255D01*
X60239529Y-70235101D01*
X60178242Y-70087142D01*
X60147000Y-69930075D01*
X60147000Y-69769925D01*
X60178242Y-69612858D01*
X60239529Y-69464899D01*
X60328499Y-69331745D01*
X60441745Y-69218499D01*
X60574899Y-69129529D01*
X60722858Y-69068242D01*
X60879925Y-69037000D01*
X61040075Y-69037000D01*
X61197142Y-69068242D01*
G37*
G36*
X73897142Y-69068242D02*
G01*
X74045101Y-69129529D01*
X74178255Y-69218499D01*
X74291501Y-69331745D01*
X74380471Y-69464899D01*
X74441758Y-69612858D01*
X74473000Y-69769925D01*
X74473000Y-69930075D01*
X74441758Y-70087142D01*
X74380471Y-70235101D01*
X74291501Y-70368255D01*
X74178255Y-70481501D01*
X74045101Y-70570471D01*
X73897142Y-70631758D01*
X73740075Y-70663000D01*
X73579925Y-70663000D01*
X73422858Y-70631758D01*
X73274899Y-70570471D01*
X73141745Y-70481501D01*
X73028499Y-70368255D01*
X72939529Y-70235101D01*
X72878242Y-70087142D01*
X72847000Y-69930075D01*
X72847000Y-69769925D01*
X72878242Y-69612858D01*
X72939529Y-69464899D01*
X73028499Y-69331745D01*
X73141745Y-69218499D01*
X73274899Y-69129529D01*
X73422858Y-69068242D01*
X73579925Y-69037000D01*
X73740075Y-69037000D01*
X73897142Y-69068242D01*
G37*
G36*
X76437142Y-69068242D02*
G01*
X76585101Y-69129529D01*
X76718255Y-69218499D01*
X76831501Y-69331745D01*
X76920471Y-69464899D01*
X76981758Y-69612858D01*
X77013000Y-69769925D01*
X77013000Y-69930075D01*
X76981758Y-70087142D01*
X76920471Y-70235101D01*
X76831501Y-70368255D01*
X76718255Y-70481501D01*
X76585101Y-70570471D01*
X76437142Y-70631758D01*
X76280075Y-70663000D01*
X76119925Y-70663000D01*
X75962858Y-70631758D01*
X75814899Y-70570471D01*
X75681745Y-70481501D01*
X75568499Y-70368255D01*
X75479529Y-70235101D01*
X75418242Y-70087142D01*
X75387000Y-69930075D01*
X75387000Y-69769925D01*
X75418242Y-69612858D01*
X75479529Y-69464899D01*
X75568499Y-69331745D01*
X75681745Y-69218499D01*
X75814899Y-69129529D01*
X75962858Y-69068242D01*
X76119925Y-69037000D01*
X76280075Y-69037000D01*
X76437142Y-69068242D01*
G37*
G36*
X81517142Y-69068242D02*
G01*
X81665101Y-69129529D01*
X81798255Y-69218499D01*
X81911501Y-69331745D01*
X82000471Y-69464899D01*
X82061758Y-69612858D01*
X82093000Y-69769925D01*
X82093000Y-69930075D01*
X82061758Y-70087142D01*
X82000471Y-70235101D01*
X81911501Y-70368255D01*
X81798255Y-70481501D01*
X81665101Y-70570471D01*
X81517142Y-70631758D01*
X81360075Y-70663000D01*
X81199925Y-70663000D01*
X81042858Y-70631758D01*
X80894899Y-70570471D01*
X80761745Y-70481501D01*
X80648499Y-70368255D01*
X80559529Y-70235101D01*
X80498242Y-70087142D01*
X80467000Y-69930075D01*
X80467000Y-69769925D01*
X80498242Y-69612858D01*
X80559529Y-69464899D01*
X80648499Y-69331745D01*
X80761745Y-69218499D01*
X80894899Y-69129529D01*
X81042858Y-69068242D01*
X81199925Y-69037000D01*
X81360075Y-69037000D01*
X81517142Y-69068242D01*
G37*
G36*
X84057142Y-69068242D02*
G01*
X84205101Y-69129529D01*
X84338255Y-69218499D01*
X84451501Y-69331745D01*
X84540471Y-69464899D01*
X84601758Y-69612858D01*
X84633000Y-69769925D01*
X84633000Y-69930075D01*
X84601758Y-70087142D01*
X84540471Y-70235101D01*
X84451501Y-70368255D01*
X84338255Y-70481501D01*
X84205101Y-70570471D01*
X84057142Y-70631758D01*
X83900075Y-70663000D01*
X83739925Y-70663000D01*
X83582858Y-70631758D01*
X83434899Y-70570471D01*
X83301745Y-70481501D01*
X83188499Y-70368255D01*
X83099529Y-70235101D01*
X83038242Y-70087142D01*
X83007000Y-69930075D01*
X83007000Y-69769925D01*
X83038242Y-69612858D01*
X83099529Y-69464899D01*
X83188499Y-69331745D01*
X83301745Y-69218499D01*
X83434899Y-69129529D01*
X83582858Y-69068242D01*
X83739925Y-69037000D01*
X83900075Y-69037000D01*
X84057142Y-69068242D01*
G37*
G36*
X86597142Y-69068242D02*
G01*
X86745101Y-69129529D01*
X86878255Y-69218499D01*
X86991501Y-69331745D01*
X87080471Y-69464899D01*
X87141758Y-69612858D01*
X87173000Y-69769925D01*
X87173000Y-69930075D01*
X87141758Y-70087142D01*
X87080471Y-70235101D01*
X86991501Y-70368255D01*
X86878255Y-70481501D01*
X86745101Y-70570471D01*
X86597142Y-70631758D01*
X86440075Y-70663000D01*
X86279925Y-70663000D01*
X86122858Y-70631758D01*
X85974899Y-70570471D01*
X85841745Y-70481501D01*
X85728499Y-70368255D01*
X85639529Y-70235101D01*
X85578242Y-70087142D01*
X85547000Y-69930075D01*
X85547000Y-69769925D01*
X85578242Y-69612858D01*
X85639529Y-69464899D01*
X85728499Y-69331745D01*
X85841745Y-69218499D01*
X85974899Y-69129529D01*
X86122858Y-69068242D01*
X86279925Y-69037000D01*
X86440075Y-69037000D01*
X86597142Y-69068242D01*
G37*
G36*
X89137142Y-69068242D02*
G01*
X89285101Y-69129529D01*
X89418255Y-69218499D01*
X89531501Y-69331745D01*
X89620471Y-69464899D01*
X89681758Y-69612858D01*
X89713000Y-69769925D01*
X89713000Y-69930075D01*
X89681758Y-70087142D01*
X89620471Y-70235101D01*
X89531501Y-70368255D01*
X89418255Y-70481501D01*
X89285101Y-70570471D01*
X89137142Y-70631758D01*
X88980075Y-70663000D01*
X88819925Y-70663000D01*
X88662858Y-70631758D01*
X88514899Y-70570471D01*
X88381745Y-70481501D01*
X88268499Y-70368255D01*
X88179529Y-70235101D01*
X88118242Y-70087142D01*
X88087000Y-69930075D01*
X88087000Y-69769925D01*
X88118242Y-69612858D01*
X88179529Y-69464899D01*
X88268499Y-69331745D01*
X88381745Y-69218499D01*
X88514899Y-69129529D01*
X88662858Y-69068242D01*
X88819925Y-69037000D01*
X88980075Y-69037000D01*
X89137142Y-69068242D01*
G37*
G36*
X99297142Y-69068242D02*
G01*
X99445101Y-69129529D01*
X99578255Y-69218499D01*
X99691501Y-69331745D01*
X99780471Y-69464899D01*
X99841758Y-69612858D01*
X99873000Y-69769925D01*
X99873000Y-69930075D01*
X99841758Y-70087142D01*
X99780471Y-70235101D01*
X99691501Y-70368255D01*
X99578255Y-70481501D01*
X99445101Y-70570471D01*
X99297142Y-70631758D01*
X99140075Y-70663000D01*
X98979925Y-70663000D01*
X98822858Y-70631758D01*
X98674899Y-70570471D01*
X98541745Y-70481501D01*
X98428499Y-70368255D01*
X98339529Y-70235101D01*
X98278242Y-70087142D01*
X98247000Y-69930075D01*
X98247000Y-69769925D01*
X98278242Y-69612858D01*
X98339529Y-69464899D01*
X98428499Y-69331745D01*
X98541745Y-69218499D01*
X98674899Y-69129529D01*
X98822858Y-69068242D01*
X98979925Y-69037000D01*
X99140075Y-69037000D01*
X99297142Y-69068242D01*
G37*
G36*
X91677142Y-69068242D02*
G01*
X91825101Y-69129529D01*
X91958255Y-69218499D01*
X92071501Y-69331745D01*
X92160471Y-69464899D01*
X92221758Y-69612858D01*
X92253000Y-69769925D01*
X92253000Y-69930075D01*
X92221758Y-70087142D01*
X92160471Y-70235101D01*
X92071501Y-70368255D01*
X91958255Y-70481501D01*
X91825101Y-70570471D01*
X91677142Y-70631758D01*
X91520075Y-70663000D01*
X91359925Y-70663000D01*
X91202858Y-70631758D01*
X91054899Y-70570471D01*
X90921745Y-70481501D01*
X90808499Y-70368255D01*
X90719529Y-70235101D01*
X90658242Y-70087142D01*
X90627000Y-69930075D01*
X90627000Y-69769925D01*
X90658242Y-69612858D01*
X90719529Y-69464899D01*
X90808499Y-69331745D01*
X90921745Y-69218499D01*
X91054899Y-69129529D01*
X91202858Y-69068242D01*
X91359925Y-69037000D01*
X91520075Y-69037000D01*
X91677142Y-69068242D01*
G37*
G36*
X96757142Y-69068242D02*
G01*
X96905101Y-69129529D01*
X97038255Y-69218499D01*
X97151501Y-69331745D01*
X97240471Y-69464899D01*
X97301758Y-69612858D01*
X97333000Y-69769925D01*
X97333000Y-69930075D01*
X97301758Y-70087142D01*
X97240471Y-70235101D01*
X97151501Y-70368255D01*
X97038255Y-70481501D01*
X96905101Y-70570471D01*
X96757142Y-70631758D01*
X96600075Y-70663000D01*
X96439925Y-70663000D01*
X96282858Y-70631758D01*
X96134899Y-70570471D01*
X96001745Y-70481501D01*
X95888499Y-70368255D01*
X95799529Y-70235101D01*
X95738242Y-70087142D01*
X95707000Y-69930075D01*
X95707000Y-69769925D01*
X95738242Y-69612858D01*
X95799529Y-69464899D01*
X95888499Y-69331745D01*
X96001745Y-69218499D01*
X96134899Y-69129529D01*
X96282858Y-69068242D01*
X96439925Y-69037000D01*
X96600075Y-69037000D01*
X96757142Y-69068242D01*
G37*
G36*
X78977142Y-69068242D02*
G01*
X79125101Y-69129529D01*
X79258255Y-69218499D01*
X79371501Y-69331745D01*
X79460471Y-69464899D01*
X79521758Y-69612858D01*
X79553000Y-69769925D01*
X79553000Y-69930075D01*
X79521758Y-70087142D01*
X79460471Y-70235101D01*
X79371501Y-70368255D01*
X79258255Y-70481501D01*
X79125101Y-70570471D01*
X78977142Y-70631758D01*
X78820075Y-70663000D01*
X78659925Y-70663000D01*
X78502858Y-70631758D01*
X78354899Y-70570471D01*
X78221745Y-70481501D01*
X78108499Y-70368255D01*
X78019529Y-70235101D01*
X77958242Y-70087142D01*
X77927000Y-69930075D01*
X77927000Y-69769925D01*
X77958242Y-69612858D01*
X78019529Y-69464899D01*
X78108499Y-69331745D01*
X78221745Y-69218499D01*
X78354899Y-69129529D01*
X78502858Y-69068242D01*
X78659925Y-69037000D01*
X78820075Y-69037000D01*
X78977142Y-69068242D01*
G37*
G36*
X94217142Y-66528242D02*
G01*
X94365101Y-66589529D01*
X94498255Y-66678499D01*
X94611501Y-66791745D01*
X94700471Y-66924899D01*
X94761758Y-67072858D01*
X94793000Y-67229925D01*
X94793000Y-67390075D01*
X94761758Y-67547142D01*
X94700471Y-67695101D01*
X94611501Y-67828255D01*
X94498255Y-67941501D01*
X94365101Y-68030471D01*
X94217142Y-68091758D01*
X94060075Y-68123000D01*
X93899925Y-68123000D01*
X93742858Y-68091758D01*
X93594899Y-68030471D01*
X93461745Y-67941501D01*
X93348499Y-67828255D01*
X93259529Y-67695101D01*
X93198242Y-67547142D01*
X93167000Y-67390075D01*
X93167000Y-67229925D01*
X93198242Y-67072858D01*
X93259529Y-66924899D01*
X93348499Y-66791745D01*
X93461745Y-66678499D01*
X93594899Y-66589529D01*
X93742858Y-66528242D01*
X93899925Y-66497000D01*
X94060075Y-66497000D01*
X94217142Y-66528242D01*
G37*
G36*
X91677142Y-66528242D02*
G01*
X91825101Y-66589529D01*
X91958255Y-66678499D01*
X92071501Y-66791745D01*
X92160471Y-66924899D01*
X92221758Y-67072858D01*
X92253000Y-67229925D01*
X92253000Y-67390075D01*
X92221758Y-67547142D01*
X92160471Y-67695101D01*
X92071501Y-67828255D01*
X91958255Y-67941501D01*
X91825101Y-68030471D01*
X91677142Y-68091758D01*
X91520075Y-68123000D01*
X91359925Y-68123000D01*
X91202858Y-68091758D01*
X91054899Y-68030471D01*
X90921745Y-67941501D01*
X90808499Y-67828255D01*
X90719529Y-67695101D01*
X90658242Y-67547142D01*
X90627000Y-67390075D01*
X90627000Y-67229925D01*
X90658242Y-67072858D01*
X90719529Y-66924899D01*
X90808499Y-66791745D01*
X90921745Y-66678499D01*
X91054899Y-66589529D01*
X91202858Y-66528242D01*
X91359925Y-66497000D01*
X91520075Y-66497000D01*
X91677142Y-66528242D01*
G37*
G36*
X89137142Y-66528242D02*
G01*
X89285101Y-66589529D01*
X89418255Y-66678499D01*
X89531501Y-66791745D01*
X89620471Y-66924899D01*
X89681758Y-67072858D01*
X89713000Y-67229925D01*
X89713000Y-67390075D01*
X89681758Y-67547142D01*
X89620471Y-67695101D01*
X89531501Y-67828255D01*
X89418255Y-67941501D01*
X89285101Y-68030471D01*
X89137142Y-68091758D01*
X88980075Y-68123000D01*
X88819925Y-68123000D01*
X88662858Y-68091758D01*
X88514899Y-68030471D01*
X88381745Y-67941501D01*
X88268499Y-67828255D01*
X88179529Y-67695101D01*
X88118242Y-67547142D01*
X88087000Y-67390075D01*
X88087000Y-67229925D01*
X88118242Y-67072858D01*
X88179529Y-66924899D01*
X88268499Y-66791745D01*
X88381745Y-66678499D01*
X88514899Y-66589529D01*
X88662858Y-66528242D01*
X88819925Y-66497000D01*
X88980075Y-66497000D01*
X89137142Y-66528242D01*
G37*
G36*
X86597142Y-66528242D02*
G01*
X86745101Y-66589529D01*
X86878255Y-66678499D01*
X86991501Y-66791745D01*
X87080471Y-66924899D01*
X87141758Y-67072858D01*
X87173000Y-67229925D01*
X87173000Y-67390075D01*
X87141758Y-67547142D01*
X87080471Y-67695101D01*
X86991501Y-67828255D01*
X86878255Y-67941501D01*
X86745101Y-68030471D01*
X86597142Y-68091758D01*
X86440075Y-68123000D01*
X86279925Y-68123000D01*
X86122858Y-68091758D01*
X85974899Y-68030471D01*
X85841745Y-67941501D01*
X85728499Y-67828255D01*
X85639529Y-67695101D01*
X85578242Y-67547142D01*
X85547000Y-67390075D01*
X85547000Y-67229925D01*
X85578242Y-67072858D01*
X85639529Y-66924899D01*
X85728499Y-66791745D01*
X85841745Y-66678499D01*
X85974899Y-66589529D01*
X86122858Y-66528242D01*
X86279925Y-66497000D01*
X86440075Y-66497000D01*
X86597142Y-66528242D01*
G37*
G36*
X84057142Y-66528242D02*
G01*
X84205101Y-66589529D01*
X84338255Y-66678499D01*
X84451501Y-66791745D01*
X84540471Y-66924899D01*
X84601758Y-67072858D01*
X84633000Y-67229925D01*
X84633000Y-67390075D01*
X84601758Y-67547142D01*
X84540471Y-67695101D01*
X84451501Y-67828255D01*
X84338255Y-67941501D01*
X84205101Y-68030471D01*
X84057142Y-68091758D01*
X83900075Y-68123000D01*
X83739925Y-68123000D01*
X83582858Y-68091758D01*
X83434899Y-68030471D01*
X83301745Y-67941501D01*
X83188499Y-67828255D01*
X83099529Y-67695101D01*
X83038242Y-67547142D01*
X83007000Y-67390075D01*
X83007000Y-67229925D01*
X83038242Y-67072858D01*
X83099529Y-66924899D01*
X83188499Y-66791745D01*
X83301745Y-66678499D01*
X83434899Y-66589529D01*
X83582858Y-66528242D01*
X83739925Y-66497000D01*
X83900075Y-66497000D01*
X84057142Y-66528242D01*
G37*
G36*
X81517142Y-66528242D02*
G01*
X81665101Y-66589529D01*
X81798255Y-66678499D01*
X81911501Y-66791745D01*
X82000471Y-66924899D01*
X82061758Y-67072858D01*
X82093000Y-67229925D01*
X82093000Y-67390075D01*
X82061758Y-67547142D01*
X82000471Y-67695101D01*
X81911501Y-67828255D01*
X81798255Y-67941501D01*
X81665101Y-68030471D01*
X81517142Y-68091758D01*
X81360075Y-68123000D01*
X81199925Y-68123000D01*
X81042858Y-68091758D01*
X80894899Y-68030471D01*
X80761745Y-67941501D01*
X80648499Y-67828255D01*
X80559529Y-67695101D01*
X80498242Y-67547142D01*
X80467000Y-67390075D01*
X80467000Y-67229925D01*
X80498242Y-67072858D01*
X80559529Y-66924899D01*
X80648499Y-66791745D01*
X80761745Y-66678499D01*
X80894899Y-66589529D01*
X81042858Y-66528242D01*
X81199925Y-66497000D01*
X81360075Y-66497000D01*
X81517142Y-66528242D01*
G37*
G36*
X78977142Y-66528242D02*
G01*
X79125101Y-66589529D01*
X79258255Y-66678499D01*
X79371501Y-66791745D01*
X79460471Y-66924899D01*
X79521758Y-67072858D01*
X79553000Y-67229925D01*
X79553000Y-67390075D01*
X79521758Y-67547142D01*
X79460471Y-67695101D01*
X79371501Y-67828255D01*
X79258255Y-67941501D01*
X79125101Y-68030471D01*
X78977142Y-68091758D01*
X78820075Y-68123000D01*
X78659925Y-68123000D01*
X78502858Y-68091758D01*
X78354899Y-68030471D01*
X78221745Y-67941501D01*
X78108499Y-67828255D01*
X78019529Y-67695101D01*
X77958242Y-67547142D01*
X77927000Y-67390075D01*
X77927000Y-67229925D01*
X77958242Y-67072858D01*
X78019529Y-66924899D01*
X78108499Y-66791745D01*
X78221745Y-66678499D01*
X78354899Y-66589529D01*
X78502858Y-66528242D01*
X78659925Y-66497000D01*
X78820075Y-66497000D01*
X78977142Y-66528242D01*
G37*
G36*
X76437142Y-66528242D02*
G01*
X76585101Y-66589529D01*
X76718255Y-66678499D01*
X76831501Y-66791745D01*
X76920471Y-66924899D01*
X76981758Y-67072858D01*
X77013000Y-67229925D01*
X77013000Y-67390075D01*
X76981758Y-67547142D01*
X76920471Y-67695101D01*
X76831501Y-67828255D01*
X76718255Y-67941501D01*
X76585101Y-68030471D01*
X76437142Y-68091758D01*
X76280075Y-68123000D01*
X76119925Y-68123000D01*
X75962858Y-68091758D01*
X75814899Y-68030471D01*
X75681745Y-67941501D01*
X75568499Y-67828255D01*
X75479529Y-67695101D01*
X75418242Y-67547142D01*
X75387000Y-67390075D01*
X75387000Y-67229925D01*
X75418242Y-67072858D01*
X75479529Y-66924899D01*
X75568499Y-66791745D01*
X75681745Y-66678499D01*
X75814899Y-66589529D01*
X75962858Y-66528242D01*
X76119925Y-66497000D01*
X76280075Y-66497000D01*
X76437142Y-66528242D01*
G37*
G36*
X71357142Y-66528242D02*
G01*
X71505101Y-66589529D01*
X71638255Y-66678499D01*
X71751501Y-66791745D01*
X71840471Y-66924899D01*
X71901758Y-67072858D01*
X71933000Y-67229925D01*
X71933000Y-67390075D01*
X71901758Y-67547142D01*
X71840471Y-67695101D01*
X71751501Y-67828255D01*
X71638255Y-67941501D01*
X71505101Y-68030471D01*
X71357142Y-68091758D01*
X71200075Y-68123000D01*
X71039925Y-68123000D01*
X70882858Y-68091758D01*
X70734899Y-68030471D01*
X70601745Y-67941501D01*
X70488499Y-67828255D01*
X70399529Y-67695101D01*
X70338242Y-67547142D01*
X70307000Y-67390075D01*
X70307000Y-67229925D01*
X70338242Y-67072858D01*
X70399529Y-66924899D01*
X70488499Y-66791745D01*
X70601745Y-66678499D01*
X70734899Y-66589529D01*
X70882858Y-66528242D01*
X71039925Y-66497000D01*
X71200075Y-66497000D01*
X71357142Y-66528242D01*
G37*
G36*
X68817142Y-66528242D02*
G01*
X68965101Y-66589529D01*
X69098255Y-66678499D01*
X69211501Y-66791745D01*
X69300471Y-66924899D01*
X69361758Y-67072858D01*
X69393000Y-67229925D01*
X69393000Y-67390075D01*
X69361758Y-67547142D01*
X69300471Y-67695101D01*
X69211501Y-67828255D01*
X69098255Y-67941501D01*
X68965101Y-68030471D01*
X68817142Y-68091758D01*
X68660075Y-68123000D01*
X68499925Y-68123000D01*
X68342858Y-68091758D01*
X68194899Y-68030471D01*
X68061745Y-67941501D01*
X67948499Y-67828255D01*
X67859529Y-67695101D01*
X67798242Y-67547142D01*
X67767000Y-67390075D01*
X67767000Y-67229925D01*
X67798242Y-67072858D01*
X67859529Y-66924899D01*
X67948499Y-66791745D01*
X68061745Y-66678499D01*
X68194899Y-66589529D01*
X68342858Y-66528242D01*
X68499925Y-66497000D01*
X68660075Y-66497000D01*
X68817142Y-66528242D01*
G37*
G36*
X66277142Y-66528242D02*
G01*
X66425101Y-66589529D01*
X66558255Y-66678499D01*
X66671501Y-66791745D01*
X66760471Y-66924899D01*
X66821758Y-67072858D01*
X66853000Y-67229925D01*
X66853000Y-67390075D01*
X66821758Y-67547142D01*
X66760471Y-67695101D01*
X66671501Y-67828255D01*
X66558255Y-67941501D01*
X66425101Y-68030471D01*
X66277142Y-68091758D01*
X66120075Y-68123000D01*
X65959925Y-68123000D01*
X65802858Y-68091758D01*
X65654899Y-68030471D01*
X65521745Y-67941501D01*
X65408499Y-67828255D01*
X65319529Y-67695101D01*
X65258242Y-67547142D01*
X65227000Y-67390075D01*
X65227000Y-67229925D01*
X65258242Y-67072858D01*
X65319529Y-66924899D01*
X65408499Y-66791745D01*
X65521745Y-66678499D01*
X65654899Y-66589529D01*
X65802858Y-66528242D01*
X65959925Y-66497000D01*
X66120075Y-66497000D01*
X66277142Y-66528242D01*
G37*
G36*
X63737142Y-66528242D02*
G01*
X63885101Y-66589529D01*
X64018255Y-66678499D01*
X64131501Y-66791745D01*
X64220471Y-66924899D01*
X64281758Y-67072858D01*
X64313000Y-67229925D01*
X64313000Y-67390075D01*
X64281758Y-67547142D01*
X64220471Y-67695101D01*
X64131501Y-67828255D01*
X64018255Y-67941501D01*
X63885101Y-68030471D01*
X63737142Y-68091758D01*
X63580075Y-68123000D01*
X63419925Y-68123000D01*
X63262858Y-68091758D01*
X63114899Y-68030471D01*
X62981745Y-67941501D01*
X62868499Y-67828255D01*
X62779529Y-67695101D01*
X62718242Y-67547142D01*
X62687000Y-67390075D01*
X62687000Y-67229925D01*
X62718242Y-67072858D01*
X62779529Y-66924899D01*
X62868499Y-66791745D01*
X62981745Y-66678499D01*
X63114899Y-66589529D01*
X63262858Y-66528242D01*
X63419925Y-66497000D01*
X63580075Y-66497000D01*
X63737142Y-66528242D01*
G37*
G36*
X61773000Y-68123000D02*
G01*
X60147000Y-68123000D01*
X60147000Y-66497000D01*
X61773000Y-66497000D01*
X61773000Y-68123000D01*
G37*
G36*
X96757142Y-66528242D02*
G01*
X96905101Y-66589529D01*
X97038255Y-66678499D01*
X97151501Y-66791745D01*
X97240471Y-66924899D01*
X97301758Y-67072858D01*
X97333000Y-67229925D01*
X97333000Y-67390075D01*
X97301758Y-67547142D01*
X97240471Y-67695101D01*
X97151501Y-67828255D01*
X97038255Y-67941501D01*
X96905101Y-68030471D01*
X96757142Y-68091758D01*
X96600075Y-68123000D01*
X96439925Y-68123000D01*
X96282858Y-68091758D01*
X96134899Y-68030471D01*
X96001745Y-67941501D01*
X95888499Y-67828255D01*
X95799529Y-67695101D01*
X95738242Y-67547142D01*
X95707000Y-67390075D01*
X95707000Y-67229925D01*
X95738242Y-67072858D01*
X95799529Y-66924899D01*
X95888499Y-66791745D01*
X96001745Y-66678499D01*
X96134899Y-66589529D01*
X96282858Y-66528242D01*
X96439925Y-66497000D01*
X96600075Y-66497000D01*
X96757142Y-66528242D01*
G37*
G36*
X99297142Y-66528242D02*
G01*
X99445101Y-66589529D01*
X99578255Y-66678499D01*
X99691501Y-66791745D01*
X99780471Y-66924899D01*
X99841758Y-67072858D01*
X99873000Y-67229925D01*
X99873000Y-67390075D01*
X99841758Y-67547142D01*
X99780471Y-67695101D01*
X99691501Y-67828255D01*
X99578255Y-67941501D01*
X99445101Y-68030471D01*
X99297142Y-68091758D01*
X99140075Y-68123000D01*
X98979925Y-68123000D01*
X98822858Y-68091758D01*
X98674899Y-68030471D01*
X98541745Y-67941501D01*
X98428499Y-67828255D01*
X98339529Y-67695101D01*
X98278242Y-67547142D01*
X98247000Y-67390075D01*
X98247000Y-67229925D01*
X98278242Y-67072858D01*
X98339529Y-66924899D01*
X98428499Y-66791745D01*
X98541745Y-66678499D01*
X98674899Y-66589529D01*
X98822858Y-66528242D01*
X98979925Y-66497000D01*
X99140075Y-66497000D01*
X99297142Y-66528242D01*
G37*
G36*
X101837142Y-66528242D02*
G01*
X101985101Y-66589529D01*
X102118255Y-66678499D01*
X102231501Y-66791745D01*
X102320471Y-66924899D01*
X102381758Y-67072858D01*
X102413000Y-67229925D01*
X102413000Y-67390075D01*
X102381758Y-67547142D01*
X102320471Y-67695101D01*
X102231501Y-67828255D01*
X102118255Y-67941501D01*
X101985101Y-68030471D01*
X101837142Y-68091758D01*
X101680075Y-68123000D01*
X101519925Y-68123000D01*
X101362858Y-68091758D01*
X101214899Y-68030471D01*
X101081745Y-67941501D01*
X100968499Y-67828255D01*
X100879529Y-67695101D01*
X100818242Y-67547142D01*
X100787000Y-67390075D01*
X100787000Y-67229925D01*
X100818242Y-67072858D01*
X100879529Y-66924899D01*
X100968499Y-66791745D01*
X101081745Y-66678499D01*
X101214899Y-66589529D01*
X101362858Y-66528242D01*
X101519925Y-66497000D01*
X101680075Y-66497000D01*
X101837142Y-66528242D01*
G37*
G36*
X73897142Y-66528242D02*
G01*
X74045101Y-66589529D01*
X74178255Y-66678499D01*
X74291501Y-66791745D01*
X74380471Y-66924899D01*
X74441758Y-67072858D01*
X74473000Y-67229925D01*
X74473000Y-67390075D01*
X74441758Y-67547142D01*
X74380471Y-67695101D01*
X74291501Y-67828255D01*
X74178255Y-67941501D01*
X74045101Y-68030471D01*
X73897142Y-68091758D01*
X73740075Y-68123000D01*
X73579925Y-68123000D01*
X73422858Y-68091758D01*
X73274899Y-68030471D01*
X73141745Y-67941501D01*
X73028499Y-67828255D01*
X72939529Y-67695101D01*
X72878242Y-67547142D01*
X72847000Y-67390075D01*
X72847000Y-67229925D01*
X72878242Y-67072858D01*
X72939529Y-66924899D01*
X73028499Y-66791745D01*
X73141745Y-66678499D01*
X73274899Y-66589529D01*
X73422858Y-66528242D01*
X73579925Y-66497000D01*
X73740075Y-66497000D01*
X73897142Y-66528242D01*
G37*
M02*
