%TF.GenerationSoftware,KiCad,Pcbnew,5.1.4-e60b266~84~ubuntu18.04.1*%
%TF.CreationDate,2019-11-15T18:23:48+01:00*%
%TF.ProjectId,sboxnet-weichenservo,73626f78-6e65-4742-9d77-65696368656e,rev?*%
%TF.SameCoordinates,Original*%
%TF.FileFunction,Copper,L2,Bot*%
%TF.FilePolarity,Positive*%
%FSLAX46Y46*%
G04 Gerber Fmt 4.6, Leading zero omitted, Abs format (unit mm)*
G04 Created by KiCad (PCBNEW 5.1.4-e60b266~84~ubuntu18.04.1) date 2019-11-15 18:23:48*
%MOMM*%
%LPD*%
G04 APERTURE LIST*
%ADD10C,0.150000*%
%ADD11C,0.300000*%
%ADD12O,1.700000X1.700000*%
%ADD13R,1.700000X1.700000*%
%ADD14O,2.200000X2.200000*%
%ADD15R,2.200000X2.200000*%
%ADD16C,1.600000*%
%ADD17O,1.600000X1.600000*%
%ADD18O,2.000000X2.000000*%
%ADD19R,2.000000X2.000000*%
%ADD20O,1.905000X2.000000*%
%ADD21R,1.905000X2.000000*%
%ADD22C,1.524000*%
%ADD23R,1.524000X1.524000*%
%ADD24R,1.600000X1.600000*%
%ADD25C,1.800000*%
%ADD26R,1.800000X1.800000*%
%ADD27O,1.980000X3.960000*%
%ADD28R,1.980000X3.960000*%
%ADD29O,1.400000X1.400000*%
%ADD30C,1.400000*%
%ADD31C,2.032000*%
%ADD32R,2.032000X2.032000*%
%ADD33C,0.250000*%
%ADD34C,1.000000*%
%ADD35C,0.254000*%
G04 APERTURE END LIST*
D10*
X97169523Y-114308333D02*
X97217142Y-114260714D01*
X97312380Y-114117857D01*
X97360000Y-114022619D01*
X97407619Y-113879761D01*
X97455238Y-113641666D01*
X97455238Y-113451190D01*
X97407619Y-113213095D01*
X97360000Y-113070238D01*
X97312380Y-112975000D01*
X97217142Y-112832142D01*
X97169523Y-112784523D01*
X96360000Y-113879761D02*
X96455238Y-113927380D01*
X96645714Y-113927380D01*
X96740952Y-113879761D01*
X96788571Y-113832142D01*
X96836190Y-113736904D01*
X96836190Y-113451190D01*
X96788571Y-113355952D01*
X96740952Y-113308333D01*
X96645714Y-113260714D01*
X96455238Y-113260714D01*
X96360000Y-113308333D01*
X96026666Y-114308333D02*
X95979047Y-114260714D01*
X95883809Y-114117857D01*
X95836190Y-114022619D01*
X95788571Y-113879761D01*
X95740952Y-113641666D01*
X95740952Y-113451190D01*
X95788571Y-113213095D01*
X95836190Y-113070238D01*
X95883809Y-112975000D01*
X95979047Y-112832142D01*
X96026666Y-112784523D01*
X94312380Y-112927380D02*
X94217142Y-112927380D01*
X94121904Y-112975000D01*
X94074285Y-113022619D01*
X94026666Y-113117857D01*
X93979047Y-113308333D01*
X93979047Y-113546428D01*
X94026666Y-113736904D01*
X94074285Y-113832142D01*
X94121904Y-113879761D01*
X94217142Y-113927380D01*
X94312380Y-113927380D01*
X94407619Y-113879761D01*
X94455238Y-113832142D01*
X94502857Y-113736904D01*
X94550476Y-113546428D01*
X94550476Y-113308333D01*
X94502857Y-113117857D01*
X94455238Y-113022619D01*
X94407619Y-112975000D01*
X94312380Y-112927380D01*
X93026666Y-113927380D02*
X93598095Y-113927380D01*
X93312380Y-113927380D02*
X93312380Y-112927380D01*
X93407619Y-113070238D01*
X93502857Y-113165476D01*
X93598095Y-113213095D01*
X92598095Y-113832142D02*
X92550476Y-113879761D01*
X92598095Y-113927380D01*
X92645714Y-113879761D01*
X92598095Y-113832142D01*
X92598095Y-113927380D01*
X91598095Y-113927380D02*
X92169523Y-113927380D01*
X91883809Y-113927380D02*
X91883809Y-112927380D01*
X91979047Y-113070238D01*
X92074285Y-113165476D01*
X92169523Y-113213095D01*
X90979047Y-112927380D02*
X90883809Y-112927380D01*
X90788571Y-112975000D01*
X90740952Y-113022619D01*
X90693333Y-113117857D01*
X90645714Y-113308333D01*
X90645714Y-113546428D01*
X90693333Y-113736904D01*
X90740952Y-113832142D01*
X90788571Y-113879761D01*
X90883809Y-113927380D01*
X90979047Y-113927380D01*
X91074285Y-113879761D01*
X91121904Y-113832142D01*
X91169523Y-113736904D01*
X91217142Y-113546428D01*
X91217142Y-113308333D01*
X91169523Y-113117857D01*
X91121904Y-113022619D01*
X91074285Y-112975000D01*
X90979047Y-112927380D01*
X90217142Y-113832142D02*
X90169523Y-113879761D01*
X90217142Y-113927380D01*
X90264761Y-113879761D01*
X90217142Y-113832142D01*
X90217142Y-113927380D01*
X89788571Y-113022619D02*
X89740952Y-112975000D01*
X89645714Y-112927380D01*
X89407619Y-112927380D01*
X89312380Y-112975000D01*
X89264761Y-113022619D01*
X89217142Y-113117857D01*
X89217142Y-113213095D01*
X89264761Y-113355952D01*
X89836190Y-113927380D01*
X89217142Y-113927380D01*
X88598095Y-112927380D02*
X88502857Y-112927380D01*
X88407619Y-112975000D01*
X88360000Y-113022619D01*
X88312380Y-113117857D01*
X88264761Y-113308333D01*
X88264761Y-113546428D01*
X88312380Y-113736904D01*
X88360000Y-113832142D01*
X88407619Y-113879761D01*
X88502857Y-113927380D01*
X88598095Y-113927380D01*
X88693333Y-113879761D01*
X88740952Y-113832142D01*
X88788571Y-113736904D01*
X88836190Y-113546428D01*
X88836190Y-113308333D01*
X88788571Y-113117857D01*
X88740952Y-113022619D01*
X88693333Y-112975000D01*
X88598095Y-112927380D01*
X87312380Y-113927380D02*
X87883809Y-113927380D01*
X87598095Y-113927380D02*
X87598095Y-112927380D01*
X87693333Y-113070238D01*
X87788571Y-113165476D01*
X87883809Y-113213095D01*
X86836190Y-113927380D02*
X86645714Y-113927380D01*
X86550476Y-113879761D01*
X86502857Y-113832142D01*
X86407619Y-113689285D01*
X86360000Y-113498809D01*
X86360000Y-113117857D01*
X86407619Y-113022619D01*
X86455238Y-112975000D01*
X86550476Y-112927380D01*
X86740952Y-112927380D01*
X86836190Y-112975000D01*
X86883809Y-113022619D01*
X86931428Y-113117857D01*
X86931428Y-113355952D01*
X86883809Y-113451190D01*
X86836190Y-113498809D01*
X86740952Y-113546428D01*
X86550476Y-113546428D01*
X86455238Y-113498809D01*
X86407619Y-113451190D01*
X86360000Y-113355952D01*
X85312380Y-112927380D02*
X84740952Y-112927380D01*
X85026666Y-113927380D02*
X85026666Y-112927380D01*
X84407619Y-113927380D02*
X84407619Y-112927380D01*
X83979047Y-113927380D02*
X83979047Y-113403571D01*
X84026666Y-113308333D01*
X84121904Y-113260714D01*
X84264761Y-113260714D01*
X84360000Y-113308333D01*
X84407619Y-113355952D01*
X83360000Y-113927380D02*
X83455238Y-113879761D01*
X83502857Y-113832142D01*
X83550476Y-113736904D01*
X83550476Y-113451190D01*
X83502857Y-113355952D01*
X83455238Y-113308333D01*
X83360000Y-113260714D01*
X83217142Y-113260714D01*
X83121904Y-113308333D01*
X83074285Y-113355952D01*
X83026666Y-113451190D01*
X83026666Y-113736904D01*
X83074285Y-113832142D01*
X83121904Y-113879761D01*
X83217142Y-113927380D01*
X83360000Y-113927380D01*
X82598095Y-113927380D02*
X82598095Y-113260714D01*
X82598095Y-113355952D02*
X82550476Y-113308333D01*
X82455238Y-113260714D01*
X82312380Y-113260714D01*
X82217142Y-113308333D01*
X82169523Y-113403571D01*
X82169523Y-113927380D01*
X82169523Y-113403571D02*
X82121904Y-113308333D01*
X82026666Y-113260714D01*
X81883809Y-113260714D01*
X81788571Y-113308333D01*
X81740952Y-113403571D01*
X81740952Y-113927380D01*
X80836190Y-113927380D02*
X80836190Y-113403571D01*
X80883809Y-113308333D01*
X80979047Y-113260714D01*
X81169523Y-113260714D01*
X81264761Y-113308333D01*
X80836190Y-113879761D02*
X80931428Y-113927380D01*
X81169523Y-113927380D01*
X81264761Y-113879761D01*
X81312380Y-113784523D01*
X81312380Y-113689285D01*
X81264761Y-113594047D01*
X81169523Y-113546428D01*
X80931428Y-113546428D01*
X80836190Y-113498809D01*
X80407619Y-113879761D02*
X80312380Y-113927380D01*
X80121904Y-113927380D01*
X80026666Y-113879761D01*
X79979047Y-113784523D01*
X79979047Y-113736904D01*
X80026666Y-113641666D01*
X80121904Y-113594047D01*
X80264761Y-113594047D01*
X80360000Y-113546428D01*
X80407619Y-113451190D01*
X80407619Y-113403571D01*
X80360000Y-113308333D01*
X80264761Y-113260714D01*
X80121904Y-113260714D01*
X80026666Y-113308333D01*
X78788571Y-113927380D02*
X78788571Y-112927380D01*
X78455238Y-113641666D01*
X78121904Y-112927380D01*
X78121904Y-113927380D01*
X77217142Y-113927380D02*
X77217142Y-113403571D01*
X77264761Y-113308333D01*
X77360000Y-113260714D01*
X77550476Y-113260714D01*
X77645714Y-113308333D01*
X77217142Y-113879761D02*
X77312380Y-113927380D01*
X77550476Y-113927380D01*
X77645714Y-113879761D01*
X77693333Y-113784523D01*
X77693333Y-113689285D01*
X77645714Y-113594047D01*
X77550476Y-113546428D01*
X77312380Y-113546428D01*
X77217142Y-113498809D01*
X76740952Y-113927380D02*
X76740952Y-113260714D01*
X76740952Y-112927380D02*
X76788571Y-112975000D01*
X76740952Y-113022619D01*
X76693333Y-112975000D01*
X76740952Y-112927380D01*
X76740952Y-113022619D01*
X75883809Y-113879761D02*
X75979047Y-113927380D01*
X76169523Y-113927380D01*
X76264761Y-113879761D01*
X76312380Y-113784523D01*
X76312380Y-113403571D01*
X76264761Y-113308333D01*
X76169523Y-113260714D01*
X75979047Y-113260714D01*
X75883809Y-113308333D01*
X75836190Y-113403571D01*
X75836190Y-113498809D01*
X76312380Y-113594047D01*
X75407619Y-113927380D02*
X75407619Y-113260714D01*
X75407619Y-113451190D02*
X75360000Y-113355952D01*
X75312380Y-113308333D01*
X75217142Y-113260714D01*
X75121904Y-113260714D01*
X95883809Y-114910714D02*
X96645714Y-115196428D01*
X95883809Y-115482142D01*
X95550476Y-114910714D02*
X95169523Y-114910714D01*
X95407619Y-114577380D02*
X95407619Y-115434523D01*
X95360000Y-115529761D01*
X95264761Y-115577380D01*
X95169523Y-115577380D01*
X94693333Y-115577380D02*
X94788571Y-115529761D01*
X94836190Y-115482142D01*
X94883809Y-115386904D01*
X94883809Y-115101190D01*
X94836190Y-115005952D01*
X94788571Y-114958333D01*
X94693333Y-114910714D01*
X94550476Y-114910714D01*
X94455238Y-114958333D01*
X94407619Y-115005952D01*
X94360000Y-115101190D01*
X94360000Y-115386904D01*
X94407619Y-115482142D01*
X94455238Y-115529761D01*
X94550476Y-115577380D01*
X94693333Y-115577380D01*
X93931428Y-115577380D02*
X93931428Y-114910714D01*
X93931428Y-115005952D02*
X93883809Y-114958333D01*
X93788571Y-114910714D01*
X93645714Y-114910714D01*
X93550476Y-114958333D01*
X93502857Y-115053571D01*
X93502857Y-115577380D01*
X93502857Y-115053571D02*
X93455238Y-114958333D01*
X93360000Y-114910714D01*
X93217142Y-114910714D01*
X93121904Y-114958333D01*
X93074285Y-115053571D01*
X93074285Y-115577380D01*
X91979047Y-115101190D02*
X92026666Y-115053571D01*
X92121904Y-115005952D01*
X92217142Y-115005952D01*
X92312380Y-115053571D01*
X92360000Y-115101190D01*
X92407619Y-115196428D01*
X92407619Y-115291666D01*
X92360000Y-115386904D01*
X92312380Y-115434523D01*
X92217142Y-115482142D01*
X92121904Y-115482142D01*
X92026666Y-115434523D01*
X91979047Y-115386904D01*
X91979047Y-115005952D02*
X91979047Y-115386904D01*
X91931428Y-115434523D01*
X91883809Y-115434523D01*
X91788571Y-115386904D01*
X91740952Y-115291666D01*
X91740952Y-115053571D01*
X91836190Y-114910714D01*
X91979047Y-114815476D01*
X92169523Y-114767857D01*
X92360000Y-114815476D01*
X92502857Y-114910714D01*
X92598095Y-115053571D01*
X92645714Y-115244047D01*
X92598095Y-115434523D01*
X92502857Y-115577380D01*
X92360000Y-115672619D01*
X92169523Y-115720238D01*
X91979047Y-115672619D01*
X91836190Y-115577380D01*
X91455238Y-114910714D02*
X91074285Y-114910714D01*
X91312380Y-114577380D02*
X91312380Y-115434523D01*
X91264761Y-115529761D01*
X91169523Y-115577380D01*
X91074285Y-115577380D01*
X90598095Y-115577380D02*
X90693333Y-115529761D01*
X90740952Y-115482142D01*
X90788571Y-115386904D01*
X90788571Y-115101190D01*
X90740952Y-115005952D01*
X90693333Y-114958333D01*
X90598095Y-114910714D01*
X90455238Y-114910714D01*
X90360000Y-114958333D01*
X90312380Y-115005952D01*
X90264761Y-115101190D01*
X90264761Y-115386904D01*
X90312380Y-115482142D01*
X90360000Y-115529761D01*
X90455238Y-115577380D01*
X90598095Y-115577380D01*
X89836190Y-115577380D02*
X89836190Y-114910714D01*
X89836190Y-115005952D02*
X89788571Y-114958333D01*
X89693333Y-114910714D01*
X89550476Y-114910714D01*
X89455238Y-114958333D01*
X89407619Y-115053571D01*
X89407619Y-115577380D01*
X89407619Y-115053571D02*
X89360000Y-114958333D01*
X89264761Y-114910714D01*
X89121904Y-114910714D01*
X89026666Y-114958333D01*
X88979047Y-115053571D01*
X88979047Y-115577380D01*
X88502857Y-115482142D02*
X88455238Y-115529761D01*
X88502857Y-115577380D01*
X88550476Y-115529761D01*
X88502857Y-115482142D01*
X88502857Y-115577380D01*
X88026666Y-115577380D02*
X88026666Y-114910714D01*
X88026666Y-114577380D02*
X88074285Y-114625000D01*
X88026666Y-114672619D01*
X87979047Y-114625000D01*
X88026666Y-114577380D01*
X88026666Y-114672619D01*
X87598095Y-115529761D02*
X87502857Y-115577380D01*
X87312380Y-115577380D01*
X87217142Y-115529761D01*
X87169523Y-115434523D01*
X87169523Y-115386904D01*
X87217142Y-115291666D01*
X87312380Y-115244047D01*
X87455238Y-115244047D01*
X87550476Y-115196428D01*
X87598095Y-115101190D01*
X87598095Y-115053571D01*
X87550476Y-114958333D01*
X87455238Y-114910714D01*
X87312380Y-114910714D01*
X87217142Y-114958333D01*
X86883809Y-114910714D02*
X86502857Y-114910714D01*
X86740952Y-114577380D02*
X86740952Y-115434523D01*
X86693333Y-115529761D01*
X86598095Y-115577380D01*
X86502857Y-115577380D01*
X86169523Y-115196428D02*
X85407619Y-115196428D01*
X84931428Y-115577380D02*
X84931428Y-114910714D01*
X84931428Y-114577380D02*
X84979047Y-114625000D01*
X84931428Y-114672619D01*
X84883809Y-114625000D01*
X84931428Y-114577380D01*
X84931428Y-114672619D01*
X84455238Y-115577380D02*
X84455238Y-114910714D01*
X84455238Y-115005952D02*
X84407619Y-114958333D01*
X84312380Y-114910714D01*
X84169523Y-114910714D01*
X84074285Y-114958333D01*
X84026666Y-115053571D01*
X84026666Y-115577380D01*
X84026666Y-115053571D02*
X83979047Y-114958333D01*
X83883809Y-114910714D01*
X83740952Y-114910714D01*
X83645714Y-114958333D01*
X83598095Y-115053571D01*
X83598095Y-115577380D01*
X83121904Y-115196428D02*
X82360000Y-115196428D01*
X81979047Y-114910714D02*
X81788571Y-115577380D01*
X81598095Y-115101190D01*
X81407619Y-115577380D01*
X81217142Y-114910714D01*
X80455238Y-115529761D02*
X80550476Y-115577380D01*
X80740952Y-115577380D01*
X80836190Y-115529761D01*
X80883809Y-115434523D01*
X80883809Y-115053571D01*
X80836190Y-114958333D01*
X80740952Y-114910714D01*
X80550476Y-114910714D01*
X80455238Y-114958333D01*
X80407619Y-115053571D01*
X80407619Y-115148809D01*
X80883809Y-115244047D01*
X79979047Y-115577380D02*
X79979047Y-114577380D01*
X79979047Y-114958333D02*
X79883809Y-114910714D01*
X79693333Y-114910714D01*
X79598095Y-114958333D01*
X79550476Y-115005952D01*
X79502857Y-115101190D01*
X79502857Y-115386904D01*
X79550476Y-115482142D01*
X79598095Y-115529761D01*
X79693333Y-115577380D01*
X79883809Y-115577380D01*
X79979047Y-115529761D01*
X79074285Y-115482142D02*
X79026666Y-115529761D01*
X79074285Y-115577380D01*
X79121904Y-115529761D01*
X79074285Y-115482142D01*
X79074285Y-115577380D01*
X78169523Y-115577380D02*
X78169523Y-114577380D01*
X78169523Y-115529761D02*
X78264761Y-115577380D01*
X78455238Y-115577380D01*
X78550476Y-115529761D01*
X78598095Y-115482142D01*
X78645714Y-115386904D01*
X78645714Y-115101190D01*
X78598095Y-115005952D01*
X78550476Y-114958333D01*
X78455238Y-114910714D01*
X78264761Y-114910714D01*
X78169523Y-114958333D01*
X77312380Y-115529761D02*
X77407619Y-115577380D01*
X77598095Y-115577380D01*
X77693333Y-115529761D01*
X77740952Y-115434523D01*
X77740952Y-115053571D01*
X77693333Y-114958333D01*
X77598095Y-114910714D01*
X77407619Y-114910714D01*
X77312380Y-114958333D01*
X77264761Y-115053571D01*
X77264761Y-115148809D01*
X77740952Y-115244047D01*
X76836190Y-114910714D02*
X76074285Y-115196428D01*
X76836190Y-115482142D01*
D11*
X98538571Y-109827142D02*
X98324285Y-109898571D01*
X97967142Y-109898571D01*
X97824285Y-109827142D01*
X97752857Y-109755714D01*
X97681428Y-109612857D01*
X97681428Y-109470000D01*
X97752857Y-109327142D01*
X97824285Y-109255714D01*
X97967142Y-109184285D01*
X98252857Y-109112857D01*
X98395714Y-109041428D01*
X98467142Y-108970000D01*
X98538571Y-108827142D01*
X98538571Y-108684285D01*
X98467142Y-108541428D01*
X98395714Y-108470000D01*
X98252857Y-108398571D01*
X97895714Y-108398571D01*
X97681428Y-108470000D01*
X97038571Y-109898571D02*
X97038571Y-108398571D01*
X97038571Y-108970000D02*
X96895714Y-108898571D01*
X96610000Y-108898571D01*
X96467142Y-108970000D01*
X96395714Y-109041428D01*
X96324285Y-109184285D01*
X96324285Y-109612857D01*
X96395714Y-109755714D01*
X96467142Y-109827142D01*
X96610000Y-109898571D01*
X96895714Y-109898571D01*
X97038571Y-109827142D01*
X95467142Y-109898571D02*
X95610000Y-109827142D01*
X95681428Y-109755714D01*
X95752857Y-109612857D01*
X95752857Y-109184285D01*
X95681428Y-109041428D01*
X95610000Y-108970000D01*
X95467142Y-108898571D01*
X95252857Y-108898571D01*
X95110000Y-108970000D01*
X95038571Y-109041428D01*
X94967142Y-109184285D01*
X94967142Y-109612857D01*
X95038571Y-109755714D01*
X95110000Y-109827142D01*
X95252857Y-109898571D01*
X95467142Y-109898571D01*
X94467142Y-109898571D02*
X93681428Y-108898571D01*
X94467142Y-108898571D02*
X93681428Y-109898571D01*
X93110000Y-108898571D02*
X93110000Y-109898571D01*
X93110000Y-109041428D02*
X93038571Y-108970000D01*
X92895714Y-108898571D01*
X92681428Y-108898571D01*
X92538571Y-108970000D01*
X92467142Y-109112857D01*
X92467142Y-109898571D01*
X91181428Y-109827142D02*
X91324285Y-109898571D01*
X91610000Y-109898571D01*
X91752857Y-109827142D01*
X91824285Y-109684285D01*
X91824285Y-109112857D01*
X91752857Y-108970000D01*
X91610000Y-108898571D01*
X91324285Y-108898571D01*
X91181428Y-108970000D01*
X91110000Y-109112857D01*
X91110000Y-109255714D01*
X91824285Y-109398571D01*
X90681428Y-108898571D02*
X90110000Y-108898571D01*
X90467142Y-108398571D02*
X90467142Y-109684285D01*
X90395714Y-109827142D01*
X90252857Y-109898571D01*
X90110000Y-109898571D01*
X88610000Y-108398571D02*
X88252857Y-109898571D01*
X87967142Y-108827142D01*
X87681428Y-109898571D01*
X87324285Y-108398571D01*
X86181428Y-109827142D02*
X86324285Y-109898571D01*
X86610000Y-109898571D01*
X86752857Y-109827142D01*
X86824285Y-109684285D01*
X86824285Y-109112857D01*
X86752857Y-108970000D01*
X86610000Y-108898571D01*
X86324285Y-108898571D01*
X86181428Y-108970000D01*
X86110000Y-109112857D01*
X86110000Y-109255714D01*
X86824285Y-109398571D01*
X85467142Y-109898571D02*
X85467142Y-108898571D01*
X85467142Y-108398571D02*
X85538571Y-108470000D01*
X85467142Y-108541428D01*
X85395714Y-108470000D01*
X85467142Y-108398571D01*
X85467142Y-108541428D01*
X84110000Y-109827142D02*
X84252857Y-109898571D01*
X84538571Y-109898571D01*
X84681428Y-109827142D01*
X84752857Y-109755714D01*
X84824285Y-109612857D01*
X84824285Y-109184285D01*
X84752857Y-109041428D01*
X84681428Y-108970000D01*
X84538571Y-108898571D01*
X84252857Y-108898571D01*
X84110000Y-108970000D01*
X83467142Y-109898571D02*
X83467142Y-108398571D01*
X82824285Y-109898571D02*
X82824285Y-109112857D01*
X82895714Y-108970000D01*
X83038571Y-108898571D01*
X83252857Y-108898571D01*
X83395714Y-108970000D01*
X83467142Y-109041428D01*
X81538571Y-109827142D02*
X81681428Y-109898571D01*
X81967142Y-109898571D01*
X82110000Y-109827142D01*
X82181428Y-109684285D01*
X82181428Y-109112857D01*
X82110000Y-108970000D01*
X81967142Y-108898571D01*
X81681428Y-108898571D01*
X81538571Y-108970000D01*
X81467142Y-109112857D01*
X81467142Y-109255714D01*
X82181428Y-109398571D01*
X80824285Y-108898571D02*
X80824285Y-109898571D01*
X80824285Y-109041428D02*
X80752857Y-108970000D01*
X80610000Y-108898571D01*
X80395714Y-108898571D01*
X80252857Y-108970000D01*
X80181428Y-109112857D01*
X80181428Y-109898571D01*
X79538571Y-109827142D02*
X79395714Y-109898571D01*
X79110000Y-109898571D01*
X78967142Y-109827142D01*
X78895714Y-109684285D01*
X78895714Y-109612857D01*
X78967142Y-109470000D01*
X79110000Y-109398571D01*
X79324285Y-109398571D01*
X79467142Y-109327142D01*
X79538571Y-109184285D01*
X79538571Y-109112857D01*
X79467142Y-108970000D01*
X79324285Y-108898571D01*
X79110000Y-108898571D01*
X78967142Y-108970000D01*
X77681428Y-109827142D02*
X77824285Y-109898571D01*
X78110000Y-109898571D01*
X78252857Y-109827142D01*
X78324285Y-109684285D01*
X78324285Y-109112857D01*
X78252857Y-108970000D01*
X78110000Y-108898571D01*
X77824285Y-108898571D01*
X77681428Y-108970000D01*
X77610000Y-109112857D01*
X77610000Y-109255714D01*
X78324285Y-109398571D01*
X76967142Y-109898571D02*
X76967142Y-108898571D01*
X76967142Y-109184285D02*
X76895714Y-109041428D01*
X76824285Y-108970000D01*
X76681428Y-108898571D01*
X76538571Y-108898571D01*
X76181428Y-108898571D02*
X75824285Y-109898571D01*
X75467142Y-108898571D01*
X74681428Y-109898571D02*
X74824285Y-109827142D01*
X74895714Y-109755714D01*
X74967142Y-109612857D01*
X74967142Y-109184285D01*
X74895714Y-109041428D01*
X74824285Y-108970000D01*
X74681428Y-108898571D01*
X74467142Y-108898571D01*
X74324285Y-108970000D01*
X74252857Y-109041428D01*
X74181428Y-109184285D01*
X74181428Y-109612857D01*
X74252857Y-109755714D01*
X74324285Y-109827142D01*
X74467142Y-109898571D01*
X74681428Y-109898571D01*
D10*
X98329714Y-156662380D02*
X97758285Y-156662380D01*
X98044000Y-156662380D02*
X98044000Y-155662380D01*
X97948761Y-155805238D01*
X97853523Y-155900476D01*
X97758285Y-155948095D01*
X97583666Y-132421380D02*
X98250333Y-132421380D01*
X97821761Y-133421380D01*
X98107476Y-136485380D02*
X97917000Y-136485380D01*
X97821761Y-136533000D01*
X97774142Y-136580619D01*
X97678904Y-136723476D01*
X97631285Y-136913952D01*
X97631285Y-137294904D01*
X97678904Y-137390142D01*
X97726523Y-137437761D01*
X97821761Y-137485380D01*
X98012238Y-137485380D01*
X98107476Y-137437761D01*
X98155095Y-137390142D01*
X98202714Y-137294904D01*
X98202714Y-137056809D01*
X98155095Y-136961571D01*
X98107476Y-136913952D01*
X98012238Y-136866333D01*
X97821761Y-136866333D01*
X97726523Y-136913952D01*
X97678904Y-136961571D01*
X97631285Y-137056809D01*
X98028095Y-140422380D02*
X97551904Y-140422380D01*
X97504285Y-140898571D01*
X97551904Y-140850952D01*
X97647142Y-140803333D01*
X97885238Y-140803333D01*
X97980476Y-140850952D01*
X98028095Y-140898571D01*
X98075714Y-140993809D01*
X98075714Y-141231904D01*
X98028095Y-141327142D01*
X97980476Y-141374761D01*
X97885238Y-141422380D01*
X97647142Y-141422380D01*
X97551904Y-141374761D01*
X97504285Y-141327142D01*
X98107476Y-144184714D02*
X98107476Y-144851380D01*
X97869380Y-143803761D02*
X97631285Y-144518047D01*
X98250333Y-144518047D01*
X97583666Y-147788380D02*
X98202714Y-147788380D01*
X97869380Y-148169333D01*
X98012238Y-148169333D01*
X98107476Y-148216952D01*
X98155095Y-148264571D01*
X98202714Y-148359809D01*
X98202714Y-148597904D01*
X98155095Y-148693142D01*
X98107476Y-148740761D01*
X98012238Y-148788380D01*
X97726523Y-148788380D01*
X97631285Y-148740761D01*
X97583666Y-148693142D01*
X97631285Y-151820619D02*
X97678904Y-151773000D01*
X97774142Y-151725380D01*
X98012238Y-151725380D01*
X98107476Y-151773000D01*
X98155095Y-151820619D01*
X98202714Y-151915857D01*
X98202714Y-152011095D01*
X98155095Y-152153952D01*
X97583666Y-152725380D01*
X98202714Y-152725380D01*
X97996380Y-159345380D02*
X98091619Y-159345380D01*
X98186857Y-159393000D01*
X98234476Y-159440619D01*
X98282095Y-159535857D01*
X98329714Y-159726333D01*
X98329714Y-159964428D01*
X98282095Y-160154904D01*
X98234476Y-160250142D01*
X98186857Y-160297761D01*
X98091619Y-160345380D01*
X97996380Y-160345380D01*
X97901142Y-160297761D01*
X97853523Y-160250142D01*
X97805904Y-160154904D01*
X97758285Y-159964428D01*
X97758285Y-159726333D01*
X97805904Y-159535857D01*
X97853523Y-159440619D01*
X97901142Y-159393000D01*
X97996380Y-159345380D01*
X91133561Y-129292076D02*
X91181180Y-129149219D01*
X91181180Y-128911123D01*
X91133561Y-128815885D01*
X91085942Y-128768266D01*
X90990704Y-128720647D01*
X90895466Y-128720647D01*
X90800228Y-128768266D01*
X90752609Y-128815885D01*
X90704990Y-128911123D01*
X90657371Y-129101600D01*
X90609752Y-129196838D01*
X90562133Y-129244457D01*
X90466895Y-129292076D01*
X90371657Y-129292076D01*
X90276419Y-129244457D01*
X90228800Y-129196838D01*
X90181180Y-129101600D01*
X90181180Y-128863504D01*
X90228800Y-128720647D01*
X90514514Y-128434933D02*
X90514514Y-128053980D01*
X90181180Y-128292076D02*
X91038323Y-128292076D01*
X91133561Y-128244457D01*
X91181180Y-128149219D01*
X91181180Y-128053980D01*
X91133561Y-127339695D02*
X91181180Y-127434933D01*
X91181180Y-127625409D01*
X91133561Y-127720647D01*
X91038323Y-127768266D01*
X90657371Y-127768266D01*
X90562133Y-127720647D01*
X90514514Y-127625409D01*
X90514514Y-127434933D01*
X90562133Y-127339695D01*
X90657371Y-127292076D01*
X90752609Y-127292076D01*
X90847847Y-127768266D01*
X90514514Y-126434933D02*
X91181180Y-126434933D01*
X90514514Y-126863504D02*
X91038323Y-126863504D01*
X91133561Y-126815885D01*
X91181180Y-126720647D01*
X91181180Y-126577790D01*
X91133561Y-126482552D01*
X91085942Y-126434933D01*
X91133561Y-125577790D02*
X91181180Y-125673028D01*
X91181180Y-125863504D01*
X91133561Y-125958742D01*
X91038323Y-126006361D01*
X90657371Y-126006361D01*
X90562133Y-125958742D01*
X90514514Y-125863504D01*
X90514514Y-125673028D01*
X90562133Y-125577790D01*
X90657371Y-125530171D01*
X90752609Y-125530171D01*
X90847847Y-126006361D01*
X91181180Y-125101600D02*
X90514514Y-125101600D01*
X90704990Y-125101600D02*
X90609752Y-125053980D01*
X90562133Y-125006361D01*
X90514514Y-124911123D01*
X90514514Y-124815885D01*
X93238628Y-129403314D02*
X93238628Y-128641409D01*
X93619580Y-129022361D02*
X92857676Y-129022361D01*
X92619580Y-127689028D02*
X92619580Y-128165219D01*
X93095771Y-128212838D01*
X93048152Y-128165219D01*
X93000533Y-128069980D01*
X93000533Y-127831885D01*
X93048152Y-127736647D01*
X93095771Y-127689028D01*
X93191009Y-127641409D01*
X93429104Y-127641409D01*
X93524342Y-127689028D01*
X93571961Y-127736647D01*
X93619580Y-127831885D01*
X93619580Y-128069980D01*
X93571961Y-128165219D01*
X93524342Y-128212838D01*
X92619580Y-127355695D02*
X93619580Y-127022361D01*
X92619580Y-126689028D01*
X95258000Y-128828704D02*
X95210380Y-128923942D01*
X95210380Y-129066800D01*
X95258000Y-129209657D01*
X95353238Y-129304895D01*
X95448476Y-129352514D01*
X95638952Y-129400133D01*
X95781809Y-129400133D01*
X95972285Y-129352514D01*
X96067523Y-129304895D01*
X96162761Y-129209657D01*
X96210380Y-129066800D01*
X96210380Y-128971561D01*
X96162761Y-128828704D01*
X96115142Y-128781085D01*
X95781809Y-128781085D01*
X95781809Y-128971561D01*
X96210380Y-128352514D02*
X95210380Y-128352514D01*
X96210380Y-127781085D01*
X95210380Y-127781085D01*
X96210380Y-127304895D02*
X95210380Y-127304895D01*
X95210380Y-127066800D01*
X95258000Y-126923942D01*
X95353238Y-126828704D01*
X95448476Y-126781085D01*
X95638952Y-126733466D01*
X95781809Y-126733466D01*
X95972285Y-126781085D01*
X96067523Y-126828704D01*
X96162761Y-126923942D01*
X96210380Y-127066800D01*
X96210380Y-127304895D01*
D12*
X95783400Y-132816600D03*
X93243400Y-132816600D03*
D13*
X90703400Y-132816600D03*
D14*
X67691000Y-178587400D03*
D15*
X67691000Y-168427400D03*
D16*
X72834500Y-168490900D03*
D17*
X72834500Y-175990900D03*
D18*
X88392000Y-184062400D03*
D19*
X88392000Y-169062400D03*
D20*
X82296000Y-169062400D03*
X79756000Y-169062400D03*
D21*
X77216000Y-169062400D03*
D22*
X19685000Y-116967000D03*
X19685000Y-119507000D03*
X19685000Y-122047000D03*
X19685000Y-124587000D03*
X19685000Y-127127000D03*
X19685000Y-129667000D03*
X19685000Y-132207000D03*
X22225000Y-116967000D03*
X22225000Y-119507000D03*
X22225000Y-122047000D03*
X22225000Y-124587000D03*
X22225000Y-127127000D03*
X22225000Y-129667000D03*
X22225000Y-132207000D03*
X19685000Y-134747000D03*
X22225000Y-134747000D03*
X19685000Y-137287000D03*
X22225000Y-137287000D03*
X19685000Y-139827000D03*
X22225000Y-139827000D03*
X19685000Y-142367000D03*
X22225000Y-142367000D03*
X19685000Y-144907000D03*
X22225000Y-144907000D03*
X19685000Y-147447000D03*
X22225000Y-147447000D03*
X19685000Y-149987000D03*
X22225000Y-149987000D03*
X19685000Y-152527000D03*
X22225000Y-152527000D03*
X19685000Y-155067000D03*
X22225000Y-155067000D03*
D23*
X19685000Y-157607000D03*
D22*
X22225000Y-157607000D03*
D17*
X69850000Y-132080000D03*
X62230000Y-154940000D03*
X69850000Y-134620000D03*
X62230000Y-152400000D03*
X69850000Y-137160000D03*
X62230000Y-149860000D03*
X69850000Y-139700000D03*
X62230000Y-147320000D03*
X69850000Y-142240000D03*
X62230000Y-144780000D03*
X69850000Y-144780000D03*
X62230000Y-142240000D03*
X69850000Y-147320000D03*
X62230000Y-139700000D03*
X69850000Y-149860000D03*
X62230000Y-137160000D03*
X69850000Y-152400000D03*
X62230000Y-134620000D03*
X69850000Y-154940000D03*
D24*
X62230000Y-132080000D03*
D17*
X82550000Y-137160000D03*
X74930000Y-154940000D03*
X82550000Y-139700000D03*
X74930000Y-152400000D03*
X82550000Y-142240000D03*
X74930000Y-149860000D03*
X82550000Y-144780000D03*
X74930000Y-147320000D03*
X82550000Y-147320000D03*
X74930000Y-144780000D03*
X82550000Y-149860000D03*
X74930000Y-142240000D03*
X82550000Y-152400000D03*
X74930000Y-139700000D03*
X82550000Y-154940000D03*
D24*
X74930000Y-137160000D03*
D12*
X95783400Y-159867600D03*
X93243400Y-159867600D03*
D13*
X90703400Y-159867600D03*
D12*
X95783400Y-136753600D03*
X93243400Y-136753600D03*
D13*
X90703400Y-136753600D03*
D25*
X19558000Y-172974000D03*
D26*
X19558000Y-175514000D03*
D17*
X32766000Y-165862000D03*
X40386000Y-148082000D03*
X32766000Y-163322000D03*
X40386000Y-150622000D03*
X32766000Y-160782000D03*
X40386000Y-153162000D03*
X32766000Y-158242000D03*
X40386000Y-155702000D03*
X32766000Y-155702000D03*
X40386000Y-158242000D03*
X32766000Y-153162000D03*
X40386000Y-160782000D03*
X32766000Y-150622000D03*
X40386000Y-163322000D03*
X32766000Y-148082000D03*
D24*
X40386000Y-165862000D03*
D12*
X95783400Y-140690600D03*
X93243400Y-140690600D03*
D13*
X90703400Y-140690600D03*
D12*
X95783400Y-144500600D03*
X93243400Y-144500600D03*
D13*
X90703400Y-144500600D03*
D12*
X95783400Y-148310600D03*
X93243400Y-148310600D03*
D13*
X90703400Y-148310600D03*
D12*
X95783400Y-152120600D03*
X93243400Y-152120600D03*
D13*
X90703400Y-152120600D03*
D12*
X95783400Y-156057600D03*
X93243400Y-156057600D03*
D13*
X90703400Y-156057600D03*
D27*
X58594000Y-178562000D03*
D28*
X53594000Y-178562000D03*
D29*
X19812000Y-168910000D03*
D30*
X19812000Y-163830000D03*
D12*
X46990000Y-170434000D03*
X44450000Y-170434000D03*
X41910000Y-170434000D03*
X39370000Y-170434000D03*
X36830000Y-170434000D03*
X34290000Y-170434000D03*
X31750000Y-170434000D03*
X29210000Y-170434000D03*
D13*
X26670000Y-170434000D03*
D17*
X55880000Y-134620000D03*
X55880000Y-137160000D03*
X55880000Y-139700000D03*
X55880000Y-142240000D03*
X55880000Y-144780000D03*
X55880000Y-147320000D03*
X55880000Y-149860000D03*
X55880000Y-152400000D03*
D24*
X55880000Y-154940000D03*
D17*
X68580000Y-124460000D03*
X68580000Y-121920000D03*
X68580000Y-119380000D03*
X68580000Y-116840000D03*
X68580000Y-114300000D03*
X68580000Y-111760000D03*
X68580000Y-109220000D03*
X68580000Y-106680000D03*
D24*
X68580000Y-104140000D03*
D17*
X44958000Y-146304000D03*
D16*
X44958000Y-151384000D03*
D12*
X27432000Y-148844000D03*
X27432000Y-151384000D03*
X27432000Y-153924000D03*
X27432000Y-156464000D03*
D13*
X27432000Y-159004000D03*
D31*
X59055000Y-106680000D03*
X59055000Y-109220000D03*
X59055000Y-111760000D03*
X59055000Y-114300000D03*
X51435000Y-127000000D03*
X51435000Y-129540000D03*
X59055000Y-129540000D03*
X59055000Y-127000000D03*
X51435000Y-124460000D03*
X51435000Y-121920000D03*
X51435000Y-119380000D03*
X51435000Y-116840000D03*
X59055000Y-116840000D03*
X59055000Y-119380000D03*
X59055000Y-121920000D03*
X59055000Y-124460000D03*
X51435000Y-114300000D03*
X51435000Y-111760000D03*
X51435000Y-109220000D03*
D32*
X51435000Y-106680000D03*
D33*
X59055000Y-106680000D02*
X68580000Y-106680000D01*
X68580000Y-109220000D02*
X59055000Y-109220000D01*
X59055000Y-111760000D02*
X68580000Y-111760000D01*
X68580000Y-114300000D02*
X59055000Y-114300000D01*
X48895000Y-127000000D02*
X22225000Y-127000000D01*
X51435000Y-124460000D02*
X48895000Y-127000000D01*
X23947001Y-125912999D02*
X20772001Y-125912999D01*
X20446999Y-126238001D02*
X19685000Y-127000000D01*
X20772001Y-125912999D02*
X20446999Y-126238001D01*
X27940000Y-121920000D02*
X23947001Y-125912999D01*
X51435000Y-121920000D02*
X27940000Y-121920000D01*
X51435000Y-119380000D02*
X29464000Y-119380000D01*
X24384000Y-124460000D02*
X22225000Y-124460000D01*
X29464000Y-119380000D02*
X24384000Y-124460000D01*
X20446999Y-123825001D02*
X20573999Y-123825001D01*
X19685000Y-124587000D02*
X20446999Y-123825001D01*
X20573999Y-123825001D02*
X21082000Y-123317000D01*
X24511000Y-123317000D02*
X31115000Y-116713000D01*
X21082000Y-123317000D02*
X24511000Y-123317000D01*
X31242000Y-116840000D02*
X51435000Y-116840000D01*
X31115000Y-116713000D02*
X31242000Y-116840000D01*
X59055000Y-116840000D02*
X68580000Y-116840000D01*
X68580000Y-119380000D02*
X59055000Y-119380000D01*
X59055000Y-121920000D02*
X68580000Y-121920000D01*
X68580000Y-124460000D02*
X59055000Y-124460000D01*
X51435000Y-114300000D02*
X31496000Y-114300000D01*
X31496000Y-114300000D02*
X23876000Y-121920000D01*
X23876000Y-121920000D02*
X22225000Y-121920000D01*
X32893000Y-111760000D02*
X51435000Y-111760000D01*
X23876000Y-120777000D02*
X32893000Y-111760000D01*
X19685000Y-122047000D02*
X20955000Y-120777000D01*
X20955000Y-120777000D02*
X23876000Y-120777000D01*
X51435000Y-109220000D02*
X34036000Y-109220000D01*
X23876000Y-119380000D02*
X22225000Y-119380000D01*
X34036000Y-109220000D02*
X23876000Y-119380000D01*
X35306000Y-106680000D02*
X51435000Y-106680000D01*
X23749000Y-118237000D02*
X35306000Y-106680000D01*
X19685000Y-119507000D02*
X20955000Y-118237000D01*
X20955000Y-118237000D02*
X23749000Y-118237000D01*
D34*
X72834500Y-168490900D02*
X76644500Y-168490900D01*
X76644500Y-168490900D02*
X77216000Y-169062400D01*
X67691000Y-168427400D02*
X72771000Y-168427400D01*
X72771000Y-168427400D02*
X72834500Y-168490900D01*
D33*
X76708000Y-168554400D02*
X77216000Y-169062400D01*
D34*
X93243400Y-159867600D02*
X93243400Y-156057600D01*
X93243400Y-156057600D02*
X93243400Y-152120600D01*
X93243400Y-152120600D02*
X93243400Y-148310600D01*
X93243400Y-148310600D02*
X93243400Y-144500600D01*
X93243400Y-144500600D02*
X93243400Y-140690600D01*
X93243400Y-140690600D02*
X93243400Y-136753600D01*
X93243400Y-136753600D02*
X93243400Y-132816600D01*
X93243400Y-161010600D02*
X93243400Y-159867600D01*
D33*
X18155010Y-162173010D02*
X19112001Y-163130001D01*
X18155010Y-156342990D02*
X18155010Y-162173010D01*
X19112001Y-163130001D02*
X19812000Y-163830000D01*
X19558000Y-154940000D02*
X18155010Y-156342990D01*
D34*
X88392000Y-169062400D02*
X82296000Y-169062400D01*
X93243400Y-160450140D02*
X92952130Y-160158870D01*
X93243400Y-162211000D02*
X93243400Y-160450140D01*
X88392000Y-169062400D02*
X88392000Y-167062400D01*
X88392000Y-167062400D02*
X93243400Y-162211000D01*
D33*
X32925001Y-167152371D02*
X32925001Y-172408599D01*
X32766000Y-165862000D02*
X32766000Y-166993370D01*
X32766000Y-166993370D02*
X32925001Y-167152371D01*
X34537399Y-172408599D02*
X34594800Y-172466000D01*
X32925001Y-172408599D02*
X34537399Y-172408599D01*
X34594800Y-172466000D02*
X54152800Y-172466000D01*
X54152800Y-172466000D02*
X61823600Y-164795200D01*
X78076300Y-164795200D02*
X82296000Y-169014900D01*
X82296000Y-169014900D02*
X82296000Y-169062400D01*
X61823600Y-164795200D02*
X78076300Y-164795200D01*
X88525992Y-185889410D02*
X98958400Y-175457002D01*
X27548408Y-185889410D02*
X88525992Y-185889410D01*
X18332999Y-176674001D02*
X27548408Y-185889410D01*
X19812000Y-163830000D02*
X18332999Y-165309001D01*
X18332999Y-165309001D02*
X18332999Y-176674001D01*
X98958400Y-132029200D02*
X98958400Y-131826000D01*
X98958400Y-175457002D02*
X98958400Y-132029200D01*
X93243400Y-132816600D02*
X94843600Y-131216400D01*
X94843600Y-131216400D02*
X98907600Y-131216400D01*
X98958400Y-131267200D02*
X98958400Y-132029200D01*
X98907600Y-131216400D02*
X98958400Y-131267200D01*
X69850000Y-132080000D02*
X82753200Y-132080000D01*
X82753200Y-132080000D02*
X84988400Y-129844800D01*
X90271600Y-129844800D02*
X93243400Y-132816600D01*
X84988400Y-129844800D02*
X90271600Y-129844800D01*
D34*
X23368000Y-173608020D02*
X23368000Y-158750000D01*
X23368000Y-158750000D02*
X22098000Y-157480000D01*
X23367510Y-173608510D02*
X23368000Y-173608020D01*
X54630510Y-173608510D02*
X23367510Y-173608510D01*
X58594000Y-178562000D02*
X58594000Y-177572000D01*
X58594000Y-177572000D02*
X54630510Y-173608510D01*
X67665600Y-178562000D02*
X67691000Y-178587400D01*
X58594000Y-178562000D02*
X67665600Y-178562000D01*
D33*
X19812000Y-172720000D02*
X19558000Y-172974000D01*
X19812000Y-168910000D02*
X19812000Y-172720000D01*
X40386000Y-149213370D02*
X40386000Y-150622000D01*
X40386000Y-148082000D02*
X40386000Y-149213370D01*
X46990000Y-170434000D02*
X48669001Y-168754999D01*
X43549370Y-148590000D02*
X48514000Y-148590000D01*
X41517370Y-150622000D02*
X43549370Y-148590000D01*
X48669001Y-168754999D02*
X48923001Y-168754999D01*
X40386000Y-150622000D02*
X41517370Y-150622000D01*
X48514000Y-148590000D02*
X48923001Y-148999001D01*
X39586001Y-151421999D02*
X40386000Y-150622000D01*
X32146179Y-154287001D02*
X36720999Y-154287001D01*
X36720999Y-154287001D02*
X39586001Y-151421999D01*
X27432000Y-159001180D02*
X32146179Y-154287001D01*
X27432000Y-159004000D02*
X27432000Y-159001180D01*
X19685000Y-157480000D02*
X19685000Y-161163000D01*
X20837001Y-175384999D02*
X20708000Y-175514000D01*
X20837001Y-162315001D02*
X20837001Y-175384999D01*
X19685000Y-161163000D02*
X20837001Y-162315001D01*
X95783400Y-159867600D02*
X95783400Y-158665519D01*
X95783400Y-140690600D02*
X95783400Y-139488519D01*
X95783400Y-136753600D02*
X95783400Y-135551519D01*
X52354000Y-178562000D02*
X53594000Y-178562000D01*
X23756000Y-178562000D02*
X52354000Y-178562000D01*
X20708000Y-175514000D02*
X23756000Y-178562000D01*
X19558000Y-175514000D02*
X20708000Y-175514000D01*
D34*
X95783400Y-132816600D02*
X95783400Y-136753600D01*
X95783400Y-136753600D02*
X95783400Y-140690600D01*
X95783400Y-140690600D02*
X95783400Y-144500600D01*
X95783400Y-144500600D02*
X95783400Y-148310600D01*
X95783400Y-148310600D02*
X95783400Y-152120600D01*
X95783400Y-152120600D02*
X95783400Y-156057600D01*
X95783400Y-156057600D02*
X95783400Y-159867600D01*
D33*
X48923001Y-148999001D02*
X48923001Y-151355999D01*
X25654000Y-159004000D02*
X27432000Y-159004000D01*
X19558000Y-157480000D02*
X20955000Y-156337000D01*
X22860000Y-156337000D02*
X25654000Y-159004000D01*
X20955000Y-156337000D02*
X22860000Y-156337000D01*
X64770000Y-134620000D02*
X62230000Y-132080000D01*
X69850000Y-134620000D02*
X64770000Y-134620000D01*
X68580000Y-128270000D02*
X71120000Y-128270000D01*
X62230000Y-132080000D02*
X64770000Y-132080000D01*
X71120000Y-104140000D02*
X68580000Y-104140000D01*
X71120000Y-128270000D02*
X71120000Y-104140000D01*
X64770000Y-132080000D02*
X68580000Y-128270000D01*
D34*
X72834500Y-175990900D02*
X74827500Y-175990900D01*
X74827500Y-175990900D02*
X79756000Y-171062400D01*
X79756000Y-171062400D02*
X79756000Y-169062400D01*
X72771000Y-185064400D02*
X87390000Y-185064400D01*
X72834500Y-175990900D02*
X72834500Y-177122270D01*
X72834500Y-177122270D02*
X72771000Y-177185770D01*
X72771000Y-177185770D02*
X72771000Y-185064400D01*
X87390000Y-185064400D02*
X88392000Y-184062400D01*
D33*
X55880000Y-154940000D02*
X62230000Y-154940000D01*
X50800000Y-154940000D02*
X48923001Y-153063001D01*
X55880000Y-154940000D02*
X50800000Y-154940000D01*
X48923001Y-151355999D02*
X48923001Y-153063001D01*
X48923001Y-153063001D02*
X48923001Y-168754999D01*
X64770000Y-134620000D02*
X64770000Y-154940000D01*
X64770000Y-154940000D02*
X62230000Y-154940000D01*
D34*
X89391999Y-183062401D02*
X89391999Y-174768001D01*
X88392000Y-184062400D02*
X89391999Y-183062401D01*
X95783400Y-168376600D02*
X95783400Y-159867600D01*
X89391999Y-174768001D02*
X95783400Y-168376600D01*
X56184800Y-185064400D02*
X72771000Y-185064400D01*
X53594000Y-178562000D02*
X53594000Y-182473600D01*
X53594000Y-182473600D02*
X56184800Y-185064400D01*
D33*
X20645001Y-148772999D02*
X19558000Y-149860000D01*
X26158918Y-148772999D02*
X20645001Y-148772999D01*
X27432000Y-148844000D02*
X26229919Y-148844000D01*
X26229919Y-148844000D02*
X26158918Y-148772999D01*
X25908000Y-149860000D02*
X27432000Y-151384000D01*
X22225000Y-149860000D02*
X25908000Y-149860000D01*
X26582001Y-153074001D02*
X27432000Y-153924000D01*
X20955000Y-151130000D02*
X24638000Y-151130000D01*
X24638000Y-151130000D02*
X26582001Y-153074001D01*
X19685000Y-152400000D02*
X20955000Y-151130000D01*
X23368000Y-152400000D02*
X27432000Y-156464000D01*
X22225000Y-152400000D02*
X23368000Y-152400000D01*
X55880000Y-134620000D02*
X62230000Y-134620000D01*
X42621200Y-128371600D02*
X48869600Y-134620000D01*
X20548599Y-128905001D02*
X21082000Y-128371600D01*
X48869600Y-134620000D02*
X55880000Y-134620000D01*
X19685000Y-129667000D02*
X20446999Y-128905001D01*
X21082000Y-128371600D02*
X42621200Y-128371600D01*
X20446999Y-128905001D02*
X20548599Y-128905001D01*
X55880000Y-139700000D02*
X62230000Y-139700000D01*
X51816000Y-139700000D02*
X55880000Y-139700000D01*
X43027600Y-130911600D02*
X51816000Y-139700000D01*
X19685000Y-132207000D02*
X20980400Y-130911600D01*
X20980400Y-130911600D02*
X43027600Y-130911600D01*
X55880000Y-137160000D02*
X62230000Y-137160000D01*
X50190400Y-137160000D02*
X55880000Y-137160000D01*
X42722800Y-129692400D02*
X50190400Y-137160000D01*
X23328030Y-129692400D02*
X42722800Y-129692400D01*
X22225000Y-129667000D02*
X23302630Y-129667000D01*
X23302630Y-129667000D02*
X23328030Y-129692400D01*
X55880000Y-142240000D02*
X62230000Y-142240000D01*
X52984400Y-142240000D02*
X55880000Y-142240000D01*
X49936400Y-139192000D02*
X52984400Y-142240000D01*
X49936400Y-139141200D02*
X49936400Y-139192000D01*
X22225000Y-132207000D02*
X43002200Y-132207000D01*
X43002200Y-132207000D02*
X49936400Y-139141200D01*
X55880000Y-144780000D02*
X62230000Y-144780000D01*
X43180000Y-133451600D02*
X54508400Y-144780000D01*
X21031200Y-133451600D02*
X43180000Y-133451600D01*
X19685000Y-134747000D02*
X20446999Y-133985001D01*
X54508400Y-144780000D02*
X55880000Y-144780000D01*
X20497799Y-133985001D02*
X21031200Y-133451600D01*
X20446999Y-133985001D02*
X20497799Y-133985001D01*
X55880000Y-147320000D02*
X62230000Y-147320000D01*
X43307000Y-134747000D02*
X55880000Y-147320000D01*
X22225000Y-134747000D02*
X43307000Y-134747000D01*
X55880000Y-149860000D02*
X62230000Y-149860000D01*
X53746400Y-149860000D02*
X55880000Y-149860000D01*
X53594000Y-149707600D02*
X53746400Y-149860000D01*
X20446999Y-136525001D02*
X20548599Y-136525001D01*
X43535600Y-135991600D02*
X53594000Y-146050000D01*
X19685000Y-137287000D02*
X20446999Y-136525001D01*
X20548599Y-136525001D02*
X21082000Y-135991600D01*
X21082000Y-135991600D02*
X43535600Y-135991600D01*
X53594000Y-146050000D02*
X53594000Y-149707600D01*
X55880000Y-152400000D02*
X62230000Y-152400000D01*
X23302630Y-137287000D02*
X23378830Y-137210800D01*
X22225000Y-137287000D02*
X23302630Y-137287000D01*
X23378830Y-137210800D02*
X43688000Y-137210800D01*
X43688000Y-137210800D02*
X43688000Y-142697200D01*
X53390800Y-152400000D02*
X55880000Y-152400000D01*
X43688000Y-142697200D02*
X53390800Y-152400000D01*
X20446999Y-138938001D02*
X19685000Y-139700000D01*
X20772001Y-138612999D02*
X20446999Y-138938001D01*
X38296010Y-139642010D02*
X24962420Y-139642010D01*
X23933409Y-138612999D02*
X20772001Y-138612999D01*
X24962420Y-139642010D02*
X23933409Y-138612999D01*
X44958000Y-146304000D02*
X38296010Y-139642010D01*
X24384000Y-139700000D02*
X32766000Y-148082000D01*
X22225000Y-139700000D02*
X24384000Y-139700000D01*
X19685000Y-142240000D02*
X20955000Y-140970000D01*
X23114000Y-140970000D02*
X32766000Y-150622000D01*
X20955000Y-140970000D02*
X23114000Y-140970000D01*
X31966001Y-152362001D02*
X31966001Y-152171501D01*
X32766000Y-153162000D02*
X31966001Y-152362001D01*
X31966001Y-152171501D02*
X29527500Y-149733000D01*
X29527500Y-149733000D02*
X29527500Y-148653500D01*
X23875999Y-143001999D02*
X22859999Y-143001999D01*
X22859999Y-143001999D02*
X22098000Y-142240000D01*
X29527500Y-148653500D02*
X23875999Y-143001999D01*
X44450000Y-169231919D02*
X44450000Y-170434000D01*
X44450000Y-161174630D02*
X44450000Y-169231919D01*
X41517370Y-158242000D02*
X44450000Y-161174630D01*
X40386000Y-158242000D02*
X41517370Y-158242000D01*
X42759999Y-169584001D02*
X41910000Y-170434000D01*
X42759999Y-162024629D02*
X42759999Y-169584001D01*
X41517370Y-160782000D02*
X42759999Y-162024629D01*
X40386000Y-160782000D02*
X41517370Y-160782000D01*
X40386000Y-163322000D02*
X41511001Y-164447001D01*
X41511001Y-168292999D02*
X39370000Y-170434000D01*
X41511001Y-164447001D02*
X41511001Y-168292999D01*
X40386000Y-166878000D02*
X40386000Y-165862000D01*
X36830000Y-170434000D02*
X40386000Y-166878000D01*
X32766000Y-163322000D02*
X35560000Y-163322000D01*
X35560000Y-169164000D02*
X34290000Y-170434000D01*
X35560000Y-163322000D02*
X35560000Y-169164000D01*
X30900001Y-162647999D02*
X30900001Y-169584001D01*
X30900001Y-169584001D02*
X31750000Y-170434000D01*
X32766000Y-160782000D02*
X30900001Y-162647999D01*
X31966001Y-159041999D02*
X32766000Y-158242000D01*
X30059999Y-160948001D02*
X31966001Y-159041999D01*
X30059999Y-169584001D02*
X30059999Y-160948001D01*
X29210000Y-170434000D02*
X30059999Y-169584001D01*
X26670000Y-169334000D02*
X29210000Y-166794000D01*
X26670000Y-170434000D02*
X26670000Y-169334000D01*
X29210000Y-159258000D02*
X32766000Y-155702000D01*
X29210000Y-166794000D02*
X29210000Y-159258000D01*
X87477600Y-159867600D02*
X90703400Y-159867600D01*
X82550000Y-154940000D02*
X87477600Y-159867600D01*
X86207600Y-156057600D02*
X90703400Y-156057600D01*
X82550000Y-152400000D02*
X86207600Y-156057600D01*
X84810600Y-152120600D02*
X90703400Y-152120600D01*
X82550000Y-149860000D02*
X84810600Y-152120600D01*
X89178402Y-148310600D02*
X90608990Y-148310600D01*
X82550000Y-147320000D02*
X88187802Y-147320000D01*
X88187802Y-147320000D02*
X89178402Y-148310600D01*
X90329590Y-144780000D02*
X90608990Y-144500600D01*
X82550000Y-144780000D02*
X90329590Y-144780000D01*
X82550000Y-142240000D02*
X86360000Y-142240000D01*
X87909400Y-140690600D02*
X90703400Y-140690600D01*
X86360000Y-142240000D02*
X87909400Y-140690600D01*
X89941400Y-135991600D02*
X90703400Y-136753600D01*
X85496400Y-136753600D02*
X90703400Y-136753600D01*
X82550000Y-139700000D02*
X85496400Y-136753600D01*
X90068400Y-133451600D02*
X90703400Y-132816600D01*
X86893400Y-132816600D02*
X90703400Y-132816600D01*
X82550000Y-137160000D02*
X86893400Y-132816600D01*
X41517370Y-155702000D02*
X44958000Y-155702000D01*
X40386000Y-155702000D02*
X41517370Y-155702000D01*
X44958000Y-151384000D02*
X44958000Y-155702000D01*
X69850000Y-154940000D02*
X74930000Y-154940000D01*
X69850000Y-152400000D02*
X74930000Y-152400000D01*
X69850000Y-149860000D02*
X74930000Y-149860000D01*
X69850000Y-147320000D02*
X74930000Y-147320000D01*
X69850000Y-144780000D02*
X74930000Y-144780000D01*
X69850000Y-142240000D02*
X74930000Y-142240000D01*
X69850000Y-139700000D02*
X74930000Y-139700000D01*
X69850000Y-137160000D02*
X74930000Y-137160000D01*
D35*
G36*
X95910400Y-132689600D02*
G01*
X95930400Y-132689600D01*
X95930400Y-132943600D01*
X95910400Y-132943600D01*
X95910400Y-134136755D01*
X96140290Y-134258076D01*
X96287499Y-134213425D01*
X96550320Y-134088241D01*
X96730810Y-133953615D01*
X96730810Y-134496500D01*
X98198401Y-134496500D01*
X98198401Y-135640500D01*
X96762872Y-135640500D01*
X96550320Y-135481959D01*
X96287499Y-135356775D01*
X96140290Y-135312124D01*
X95910400Y-135433445D01*
X95910400Y-136626600D01*
X95930400Y-136626600D01*
X95930400Y-136880600D01*
X95910400Y-136880600D01*
X95910400Y-138073755D01*
X96140290Y-138195076D01*
X96287499Y-138150425D01*
X96550320Y-138025241D01*
X96730810Y-137890615D01*
X96730810Y-138560500D01*
X98198401Y-138560500D01*
X98198401Y-139577500D01*
X96762872Y-139577500D01*
X96550320Y-139418959D01*
X96287499Y-139293775D01*
X96140290Y-139249124D01*
X95910400Y-139370445D01*
X95910400Y-140563600D01*
X95930400Y-140563600D01*
X95930400Y-140817600D01*
X95910400Y-140817600D01*
X95910400Y-142010755D01*
X96140290Y-142132076D01*
X96287499Y-142087425D01*
X96550320Y-141962241D01*
X96603810Y-141922343D01*
X96603810Y-142497500D01*
X98198401Y-142497500D01*
X98198401Y-143006500D01*
X96730810Y-143006500D01*
X96730810Y-143363585D01*
X96550320Y-143228959D01*
X96287499Y-143103775D01*
X96140290Y-143059124D01*
X95910400Y-143180445D01*
X95910400Y-144373600D01*
X95930400Y-144373600D01*
X95930400Y-144627600D01*
X95910400Y-144627600D01*
X95910400Y-145820755D01*
X96140290Y-145942076D01*
X96287499Y-145897425D01*
X96550320Y-145772241D01*
X96730810Y-145637615D01*
X96730810Y-145926500D01*
X98198401Y-145926500D01*
X98198401Y-146943500D01*
X96730810Y-146943500D01*
X96730810Y-147173585D01*
X96550320Y-147038959D01*
X96287499Y-146913775D01*
X96140290Y-146869124D01*
X95910400Y-146990445D01*
X95910400Y-148183600D01*
X95930400Y-148183600D01*
X95930400Y-148437600D01*
X95910400Y-148437600D01*
X95910400Y-149630755D01*
X96140290Y-149752076D01*
X96287499Y-149707425D01*
X96550320Y-149582241D01*
X96730810Y-149447615D01*
X96730810Y-149863500D01*
X98198401Y-149863500D01*
X98198401Y-150880500D01*
X96730810Y-150880500D01*
X96730810Y-150983585D01*
X96550320Y-150848959D01*
X96287499Y-150723775D01*
X96140290Y-150679124D01*
X95910400Y-150800445D01*
X95910400Y-151993600D01*
X95930400Y-151993600D01*
X95930400Y-152247600D01*
X95910400Y-152247600D01*
X95910400Y-153440755D01*
X96140290Y-153562076D01*
X96287499Y-153517425D01*
X96550320Y-153392241D01*
X96730810Y-153257615D01*
X96730810Y-153800500D01*
X98198400Y-153800500D01*
X98198400Y-154817500D01*
X96857810Y-154817500D01*
X96857810Y-155042264D01*
X96783669Y-154960012D01*
X96550320Y-154785959D01*
X96287499Y-154660775D01*
X96140290Y-154616124D01*
X95910400Y-154737445D01*
X95910400Y-155930600D01*
X95930400Y-155930600D01*
X95930400Y-156184600D01*
X95910400Y-156184600D01*
X95910400Y-157377755D01*
X96140290Y-157499076D01*
X96287499Y-157454425D01*
X96550320Y-157329241D01*
X96783669Y-157155188D01*
X96857810Y-157072936D01*
X96857810Y-157737500D01*
X98198400Y-157737500D01*
X98198400Y-158500500D01*
X96857810Y-158500500D01*
X96857810Y-158852264D01*
X96783669Y-158770012D01*
X96550320Y-158595959D01*
X96287499Y-158470775D01*
X96140290Y-158426124D01*
X95910400Y-158547445D01*
X95910400Y-159740600D01*
X95930400Y-159740600D01*
X95930400Y-159994600D01*
X95910400Y-159994600D01*
X95910400Y-161187755D01*
X96140290Y-161309076D01*
X96287499Y-161264425D01*
X96550320Y-161139241D01*
X96783669Y-160965188D01*
X96857810Y-160882936D01*
X96857810Y-161420500D01*
X98198400Y-161420500D01*
X98198400Y-175142200D01*
X89898992Y-183441609D01*
X89877356Y-183379056D01*
X89715501Y-183102408D01*
X89502785Y-182862652D01*
X89247382Y-182669001D01*
X88959107Y-182528898D01*
X88772434Y-182472276D01*
X88519000Y-182591623D01*
X88519000Y-183935400D01*
X88539000Y-183935400D01*
X88539000Y-184189400D01*
X88519000Y-184189400D01*
X88519000Y-184209400D01*
X88265000Y-184209400D01*
X88265000Y-184189400D01*
X86920685Y-184189400D01*
X86801871Y-184442835D01*
X86906644Y-184745744D01*
X87068499Y-185022392D01*
X87163447Y-185129410D01*
X27863211Y-185129410D01*
X26415766Y-183681965D01*
X86801871Y-183681965D01*
X86920685Y-183935400D01*
X88265000Y-183935400D01*
X88265000Y-182591623D01*
X88011566Y-182472276D01*
X87824893Y-182528898D01*
X87536618Y-182669001D01*
X87281215Y-182862652D01*
X87068499Y-183102408D01*
X86906644Y-183379056D01*
X86801871Y-183681965D01*
X26415766Y-183681965D01*
X23275800Y-180542000D01*
X51965928Y-180542000D01*
X51978188Y-180666482D01*
X52014498Y-180786180D01*
X52073463Y-180896494D01*
X52152815Y-180993185D01*
X52249506Y-181072537D01*
X52359820Y-181131502D01*
X52479518Y-181167812D01*
X52604000Y-181180072D01*
X53308250Y-181177000D01*
X53467000Y-181018250D01*
X53467000Y-178689000D01*
X53721000Y-178689000D01*
X53721000Y-181018250D01*
X53879750Y-181177000D01*
X54584000Y-181180072D01*
X54708482Y-181167812D01*
X54828180Y-181131502D01*
X54938494Y-181072537D01*
X55035185Y-180993185D01*
X55114537Y-180896494D01*
X55173502Y-180786180D01*
X55209812Y-180666482D01*
X55222072Y-180542000D01*
X55219000Y-178847750D01*
X55060250Y-178689000D01*
X53721000Y-178689000D01*
X53467000Y-178689000D01*
X52127750Y-178689000D01*
X51969000Y-178847750D01*
X51965928Y-180542000D01*
X23275800Y-180542000D01*
X19685002Y-176951203D01*
X19685002Y-176890252D01*
X19843750Y-177049000D01*
X20458000Y-177052072D01*
X20582482Y-177039812D01*
X20702180Y-177003502D01*
X20812494Y-176944537D01*
X20909185Y-176865185D01*
X20988537Y-176768494D01*
X21047502Y-176658180D01*
X21070610Y-176582000D01*
X51965928Y-176582000D01*
X51969000Y-178276250D01*
X52127750Y-178435000D01*
X53467000Y-178435000D01*
X53467000Y-176105750D01*
X53721000Y-176105750D01*
X53721000Y-178435000D01*
X55060250Y-178435000D01*
X55219000Y-178276250D01*
X55222072Y-176582000D01*
X55209812Y-176457518D01*
X55173502Y-176337820D01*
X55114537Y-176227506D01*
X55035185Y-176130815D01*
X54938494Y-176051463D01*
X54828180Y-175992498D01*
X54708482Y-175956188D01*
X54584000Y-175943928D01*
X53879750Y-175947000D01*
X53721000Y-176105750D01*
X53467000Y-176105750D01*
X53308250Y-175947000D01*
X52604000Y-175943928D01*
X52479518Y-175956188D01*
X52359820Y-175992498D01*
X52249506Y-176051463D01*
X52152815Y-176130815D01*
X52073463Y-176227506D01*
X52014498Y-176337820D01*
X51978188Y-176457518D01*
X51965928Y-176582000D01*
X21070610Y-176582000D01*
X21083812Y-176538482D01*
X21096072Y-176414000D01*
X21093000Y-175799750D01*
X20934250Y-175641000D01*
X19685000Y-175641000D01*
X19685000Y-175661000D01*
X19431000Y-175661000D01*
X19431000Y-175641000D01*
X19411000Y-175641000D01*
X19411000Y-175387000D01*
X19431000Y-175387000D01*
X19431000Y-175367000D01*
X19685000Y-175367000D01*
X19685000Y-175387000D01*
X20934250Y-175387000D01*
X21093000Y-175228250D01*
X21096072Y-174614000D01*
X21083812Y-174489518D01*
X21047502Y-174369820D01*
X20988537Y-174259506D01*
X20909185Y-174162815D01*
X20812494Y-174083463D01*
X20702180Y-174024498D01*
X20683873Y-174018944D01*
X20750312Y-173952505D01*
X20918299Y-173701095D01*
X21034011Y-173421743D01*
X21093000Y-173125184D01*
X21093000Y-172822816D01*
X21034011Y-172526257D01*
X20918299Y-172246905D01*
X20750312Y-171995495D01*
X20572000Y-171817183D01*
X20572000Y-170013298D01*
X20760555Y-169858555D01*
X20927382Y-169655275D01*
X21051347Y-169423354D01*
X21127683Y-169171706D01*
X21153459Y-168910000D01*
X21127683Y-168648294D01*
X21051347Y-168396646D01*
X20927382Y-168164725D01*
X20760555Y-167961445D01*
X20557275Y-167794618D01*
X20325354Y-167670653D01*
X20073706Y-167594317D01*
X19877579Y-167575000D01*
X19746421Y-167575000D01*
X19550294Y-167594317D01*
X19298646Y-167670653D01*
X19092999Y-167780574D01*
X19092999Y-165623802D01*
X19573157Y-165143645D01*
X19680514Y-165165000D01*
X19943486Y-165165000D01*
X20201405Y-165113696D01*
X20444359Y-165013061D01*
X20663013Y-164866962D01*
X20848962Y-164681013D01*
X20995061Y-164462359D01*
X21095696Y-164219405D01*
X21147000Y-163961486D01*
X21147000Y-163698514D01*
X21095696Y-163440595D01*
X20995061Y-163197641D01*
X20848962Y-162978987D01*
X20663013Y-162793038D01*
X20444359Y-162646939D01*
X20201405Y-162546304D01*
X19943486Y-162495000D01*
X19680514Y-162495000D01*
X19573157Y-162516355D01*
X18915010Y-161858209D01*
X18915010Y-159006285D01*
X18923000Y-159007072D01*
X19399250Y-159004000D01*
X19558000Y-158845250D01*
X19558000Y-157734000D01*
X19538000Y-157734000D01*
X19538000Y-157480000D01*
X19558000Y-157480000D01*
X19558000Y-157460000D01*
X19812000Y-157460000D01*
X19812000Y-157480000D01*
X19832000Y-157480000D01*
X19832000Y-157734000D01*
X19812000Y-157734000D01*
X19812000Y-158845250D01*
X19970750Y-159004000D01*
X20447000Y-159007072D01*
X20571482Y-158994812D01*
X20691180Y-158958502D01*
X20801494Y-158899537D01*
X20898185Y-158820185D01*
X20977537Y-158723494D01*
X21036502Y-158613180D01*
X21072812Y-158493482D01*
X21081080Y-158409535D01*
X21139880Y-158497535D01*
X21334465Y-158692120D01*
X21563273Y-158845005D01*
X21817510Y-158950314D01*
X21999353Y-158986485D01*
X22233001Y-159220133D01*
X22233000Y-173547783D01*
X22227019Y-173608510D01*
X22248933Y-173831009D01*
X22313834Y-174044957D01*
X22419226Y-174242133D01*
X22561061Y-174414959D01*
X22733887Y-174556794D01*
X22931063Y-174662186D01*
X23145011Y-174727087D01*
X23311758Y-174743510D01*
X23311759Y-174743510D01*
X23367510Y-174749001D01*
X23423261Y-174743510D01*
X54160379Y-174743510D01*
X56969000Y-177552132D01*
X56969001Y-179631824D01*
X56992514Y-179870556D01*
X57085433Y-180176869D01*
X57236326Y-180459170D01*
X57439393Y-180706608D01*
X57686831Y-180909675D01*
X57969132Y-181060568D01*
X58275445Y-181153487D01*
X58594000Y-181184862D01*
X58912556Y-181153487D01*
X59218869Y-181060568D01*
X59501170Y-180909675D01*
X59748608Y-180706608D01*
X59951675Y-180459170D01*
X60102568Y-180176869D01*
X60195487Y-179870556D01*
X60212581Y-179697000D01*
X66357155Y-179697000D01*
X66458234Y-179820166D01*
X66722422Y-180036979D01*
X67023832Y-180198086D01*
X67350881Y-180297295D01*
X67605775Y-180322400D01*
X67776225Y-180322400D01*
X68031119Y-180297295D01*
X68358168Y-180198086D01*
X68659578Y-180036979D01*
X68923766Y-179820166D01*
X69140579Y-179555978D01*
X69301686Y-179254568D01*
X69400895Y-178927519D01*
X69434394Y-178587400D01*
X69400895Y-178247281D01*
X69301686Y-177920232D01*
X69140579Y-177618822D01*
X68923766Y-177354634D01*
X68659578Y-177137821D01*
X68358168Y-176976714D01*
X68031119Y-176877505D01*
X67776225Y-176852400D01*
X67605775Y-176852400D01*
X67350881Y-176877505D01*
X67023832Y-176976714D01*
X66722422Y-177137821D01*
X66458234Y-177354634D01*
X66398845Y-177427000D01*
X60212581Y-177427000D01*
X60195487Y-177253444D01*
X60102568Y-176947131D01*
X59951675Y-176664830D01*
X59748608Y-176417392D01*
X59654233Y-176339940D01*
X71442591Y-176339940D01*
X71537430Y-176604781D01*
X71682115Y-176846031D01*
X71871086Y-177054419D01*
X72097080Y-177221937D01*
X72351413Y-177342146D01*
X72485461Y-177382804D01*
X72707500Y-177260815D01*
X72707500Y-176117900D01*
X72961500Y-176117900D01*
X72961500Y-177260815D01*
X73183539Y-177382804D01*
X73317587Y-177342146D01*
X73571920Y-177221937D01*
X73797914Y-177054419D01*
X73986885Y-176846031D01*
X74131570Y-176604781D01*
X74226409Y-176339940D01*
X74105124Y-176117900D01*
X72961500Y-176117900D01*
X72707500Y-176117900D01*
X71563876Y-176117900D01*
X71442591Y-176339940D01*
X59654233Y-176339940D01*
X59501169Y-176214325D01*
X59218868Y-176063432D01*
X58912555Y-175970513D01*
X58594000Y-175939138D01*
X58568756Y-175941624D01*
X58268992Y-175641860D01*
X71442591Y-175641860D01*
X71563876Y-175863900D01*
X72707500Y-175863900D01*
X72707500Y-174720985D01*
X72961500Y-174720985D01*
X72961500Y-175863900D01*
X74105124Y-175863900D01*
X74226409Y-175641860D01*
X74131570Y-175377019D01*
X73986885Y-175135769D01*
X73797914Y-174927381D01*
X73571920Y-174759863D01*
X73317587Y-174639654D01*
X73183539Y-174598996D01*
X72961500Y-174720985D01*
X72707500Y-174720985D01*
X72485461Y-174598996D01*
X72351413Y-174639654D01*
X72097080Y-174759863D01*
X71871086Y-174927381D01*
X71682115Y-175135769D01*
X71537430Y-175377019D01*
X71442591Y-175641860D01*
X58268992Y-175641860D01*
X55472506Y-172845375D01*
X55436959Y-172802061D01*
X55264133Y-172660226D01*
X55113754Y-172579847D01*
X62138403Y-165555200D01*
X77761499Y-165555200D01*
X79633698Y-167427400D01*
X79628998Y-167427400D01*
X79628998Y-167591805D01*
X79383020Y-167471837D01*
X79164906Y-167542829D01*
X78889077Y-167686431D01*
X78748059Y-167799619D01*
X78699037Y-167707906D01*
X78619685Y-167611215D01*
X78522994Y-167531863D01*
X78412680Y-167472898D01*
X78292982Y-167436588D01*
X78168500Y-167424328D01*
X77038435Y-167424328D01*
X76866999Y-167372323D01*
X76700252Y-167355900D01*
X76700251Y-167355900D01*
X76644500Y-167350409D01*
X76588749Y-167355900D01*
X73718784Y-167355900D01*
X73514227Y-167219220D01*
X73253074Y-167111047D01*
X72975835Y-167055900D01*
X72693165Y-167055900D01*
X72415926Y-167111047D01*
X72154773Y-167219220D01*
X72045251Y-167292400D01*
X69425625Y-167292400D01*
X69416812Y-167202918D01*
X69380502Y-167083220D01*
X69321537Y-166972906D01*
X69242185Y-166876215D01*
X69145494Y-166796863D01*
X69035180Y-166737898D01*
X68915482Y-166701588D01*
X68791000Y-166689328D01*
X66591000Y-166689328D01*
X66466518Y-166701588D01*
X66346820Y-166737898D01*
X66236506Y-166796863D01*
X66139815Y-166876215D01*
X66060463Y-166972906D01*
X66001498Y-167083220D01*
X65965188Y-167202918D01*
X65952928Y-167327400D01*
X65952928Y-169527400D01*
X65965188Y-169651882D01*
X66001498Y-169771580D01*
X66060463Y-169881894D01*
X66139815Y-169978585D01*
X66236506Y-170057937D01*
X66346820Y-170116902D01*
X66466518Y-170153212D01*
X66591000Y-170165472D01*
X68791000Y-170165472D01*
X68915482Y-170153212D01*
X69035180Y-170116902D01*
X69145494Y-170057937D01*
X69242185Y-169978585D01*
X69321537Y-169881894D01*
X69380502Y-169771580D01*
X69416812Y-169651882D01*
X69425625Y-169562400D01*
X71876604Y-169562400D01*
X71919741Y-169605537D01*
X72154773Y-169762580D01*
X72415926Y-169870753D01*
X72693165Y-169925900D01*
X72975835Y-169925900D01*
X73253074Y-169870753D01*
X73514227Y-169762580D01*
X73718784Y-169625900D01*
X75625428Y-169625900D01*
X75625428Y-170062400D01*
X75637688Y-170186882D01*
X75673998Y-170306580D01*
X75732963Y-170416894D01*
X75812315Y-170513585D01*
X75909006Y-170592937D01*
X76019320Y-170651902D01*
X76139018Y-170688212D01*
X76263500Y-170700472D01*
X78168500Y-170700472D01*
X78292982Y-170688212D01*
X78412680Y-170651902D01*
X78522994Y-170592937D01*
X78619685Y-170513585D01*
X78699037Y-170416894D01*
X78748059Y-170325181D01*
X78889077Y-170438369D01*
X79164906Y-170581971D01*
X79383020Y-170652963D01*
X79629000Y-170532994D01*
X79629000Y-169189400D01*
X79609000Y-169189400D01*
X79609000Y-168935400D01*
X79629000Y-168935400D01*
X79629000Y-168915400D01*
X79883000Y-168915400D01*
X79883000Y-168935400D01*
X79903000Y-168935400D01*
X79903000Y-169189400D01*
X79883000Y-169189400D01*
X79883000Y-170532994D01*
X80128980Y-170652963D01*
X80347094Y-170581971D01*
X80622923Y-170438369D01*
X80865437Y-170243715D01*
X81020837Y-170058501D01*
X81168037Y-170237863D01*
X81409766Y-170436245D01*
X81685552Y-170583655D01*
X81984797Y-170674430D01*
X82296000Y-170705081D01*
X82607204Y-170674430D01*
X82906449Y-170583655D01*
X83182235Y-170436245D01*
X83423963Y-170237863D01*
X83457170Y-170197400D01*
X86769379Y-170197400D01*
X86802498Y-170306580D01*
X86861463Y-170416894D01*
X86940815Y-170513585D01*
X87037506Y-170592937D01*
X87147820Y-170651902D01*
X87267518Y-170688212D01*
X87392000Y-170700472D01*
X89392000Y-170700472D01*
X89516482Y-170688212D01*
X89636180Y-170651902D01*
X89746494Y-170592937D01*
X89843185Y-170513585D01*
X89922537Y-170416894D01*
X89981502Y-170306580D01*
X90017812Y-170186882D01*
X90030072Y-170062400D01*
X90030072Y-168062400D01*
X90017812Y-167937918D01*
X89981502Y-167818220D01*
X89922537Y-167707906D01*
X89843185Y-167611215D01*
X89746494Y-167531863D01*
X89636180Y-167472898D01*
X89598165Y-167461366D01*
X94006546Y-163052987D01*
X94049849Y-163017449D01*
X94191684Y-162844623D01*
X94297076Y-162647447D01*
X94361977Y-162433499D01*
X94378400Y-162266752D01*
X94378400Y-162266751D01*
X94383891Y-162211000D01*
X94378400Y-162155248D01*
X94378400Y-160825417D01*
X94484106Y-160696614D01*
X94518601Y-160632077D01*
X94588222Y-160748955D01*
X94783131Y-160965188D01*
X95016480Y-161139241D01*
X95279301Y-161264425D01*
X95426510Y-161309076D01*
X95656400Y-161187755D01*
X95656400Y-159994600D01*
X95636400Y-159994600D01*
X95636400Y-159740600D01*
X95656400Y-159740600D01*
X95656400Y-158547445D01*
X95426510Y-158426124D01*
X95279301Y-158470775D01*
X95016480Y-158595959D01*
X94783131Y-158770012D01*
X94588222Y-158986245D01*
X94518601Y-159103123D01*
X94484106Y-159038586D01*
X94378400Y-158909783D01*
X94378400Y-157015417D01*
X94484106Y-156886614D01*
X94518601Y-156822077D01*
X94588222Y-156938955D01*
X94783131Y-157155188D01*
X95016480Y-157329241D01*
X95279301Y-157454425D01*
X95426510Y-157499076D01*
X95656400Y-157377755D01*
X95656400Y-156184600D01*
X95636400Y-156184600D01*
X95636400Y-155930600D01*
X95656400Y-155930600D01*
X95656400Y-154737445D01*
X95426510Y-154616124D01*
X95279301Y-154660775D01*
X95016480Y-154785959D01*
X94783131Y-154960012D01*
X94588222Y-155176245D01*
X94518601Y-155293123D01*
X94484106Y-155228586D01*
X94378400Y-155099783D01*
X94378400Y-153078417D01*
X94484106Y-152949614D01*
X94518601Y-152885077D01*
X94588222Y-153001955D01*
X94783131Y-153218188D01*
X95016480Y-153392241D01*
X95279301Y-153517425D01*
X95426510Y-153562076D01*
X95656400Y-153440755D01*
X95656400Y-152247600D01*
X95636400Y-152247600D01*
X95636400Y-151993600D01*
X95656400Y-151993600D01*
X95656400Y-150800445D01*
X95426510Y-150679124D01*
X95279301Y-150723775D01*
X95016480Y-150848959D01*
X94783131Y-151023012D01*
X94588222Y-151239245D01*
X94518601Y-151356123D01*
X94484106Y-151291586D01*
X94378400Y-151162783D01*
X94378400Y-149268417D01*
X94484106Y-149139614D01*
X94518601Y-149075077D01*
X94588222Y-149191955D01*
X94783131Y-149408188D01*
X95016480Y-149582241D01*
X95279301Y-149707425D01*
X95426510Y-149752076D01*
X95656400Y-149630755D01*
X95656400Y-148437600D01*
X95636400Y-148437600D01*
X95636400Y-148183600D01*
X95656400Y-148183600D01*
X95656400Y-146990445D01*
X95426510Y-146869124D01*
X95279301Y-146913775D01*
X95016480Y-147038959D01*
X94783131Y-147213012D01*
X94588222Y-147429245D01*
X94518601Y-147546123D01*
X94484106Y-147481586D01*
X94378400Y-147352783D01*
X94378400Y-145458417D01*
X94484106Y-145329614D01*
X94518601Y-145265077D01*
X94588222Y-145381955D01*
X94783131Y-145598188D01*
X95016480Y-145772241D01*
X95279301Y-145897425D01*
X95426510Y-145942076D01*
X95656400Y-145820755D01*
X95656400Y-144627600D01*
X95636400Y-144627600D01*
X95636400Y-144373600D01*
X95656400Y-144373600D01*
X95656400Y-143180445D01*
X95426510Y-143059124D01*
X95279301Y-143103775D01*
X95016480Y-143228959D01*
X94783131Y-143403012D01*
X94588222Y-143619245D01*
X94518601Y-143736123D01*
X94484106Y-143671586D01*
X94378400Y-143542783D01*
X94378400Y-141648417D01*
X94484106Y-141519614D01*
X94518601Y-141455077D01*
X94588222Y-141571955D01*
X94783131Y-141788188D01*
X95016480Y-141962241D01*
X95279301Y-142087425D01*
X95426510Y-142132076D01*
X95656400Y-142010755D01*
X95656400Y-140817600D01*
X95636400Y-140817600D01*
X95636400Y-140563600D01*
X95656400Y-140563600D01*
X95656400Y-139370445D01*
X95426510Y-139249124D01*
X95279301Y-139293775D01*
X95016480Y-139418959D01*
X94783131Y-139593012D01*
X94588222Y-139809245D01*
X94518601Y-139926123D01*
X94484106Y-139861586D01*
X94378400Y-139732783D01*
X94378400Y-137711417D01*
X94484106Y-137582614D01*
X94518601Y-137518077D01*
X94588222Y-137634955D01*
X94783131Y-137851188D01*
X95016480Y-138025241D01*
X95279301Y-138150425D01*
X95426510Y-138195076D01*
X95656400Y-138073755D01*
X95656400Y-136880600D01*
X95636400Y-136880600D01*
X95636400Y-136626600D01*
X95656400Y-136626600D01*
X95656400Y-135433445D01*
X95426510Y-135312124D01*
X95279301Y-135356775D01*
X95016480Y-135481959D01*
X94783131Y-135656012D01*
X94588222Y-135872245D01*
X94518601Y-135989123D01*
X94484106Y-135924586D01*
X94378400Y-135795783D01*
X94378400Y-133774417D01*
X94484106Y-133645614D01*
X94518601Y-133581077D01*
X94588222Y-133697955D01*
X94783131Y-133914188D01*
X95016480Y-134088241D01*
X95279301Y-134213425D01*
X95426510Y-134258076D01*
X95656400Y-134136755D01*
X95656400Y-132943600D01*
X95636400Y-132943600D01*
X95636400Y-132689600D01*
X95656400Y-132689600D01*
X95656400Y-132669600D01*
X95910400Y-132669600D01*
X95910400Y-132689600D01*
X95910400Y-132689600D01*
G37*
X95910400Y-132689600D02*
X95930400Y-132689600D01*
X95930400Y-132943600D01*
X95910400Y-132943600D01*
X95910400Y-134136755D01*
X96140290Y-134258076D01*
X96287499Y-134213425D01*
X96550320Y-134088241D01*
X96730810Y-133953615D01*
X96730810Y-134496500D01*
X98198401Y-134496500D01*
X98198401Y-135640500D01*
X96762872Y-135640500D01*
X96550320Y-135481959D01*
X96287499Y-135356775D01*
X96140290Y-135312124D01*
X95910400Y-135433445D01*
X95910400Y-136626600D01*
X95930400Y-136626600D01*
X95930400Y-136880600D01*
X95910400Y-136880600D01*
X95910400Y-138073755D01*
X96140290Y-138195076D01*
X96287499Y-138150425D01*
X96550320Y-138025241D01*
X96730810Y-137890615D01*
X96730810Y-138560500D01*
X98198401Y-138560500D01*
X98198401Y-139577500D01*
X96762872Y-139577500D01*
X96550320Y-139418959D01*
X96287499Y-139293775D01*
X96140290Y-139249124D01*
X95910400Y-139370445D01*
X95910400Y-140563600D01*
X95930400Y-140563600D01*
X95930400Y-140817600D01*
X95910400Y-140817600D01*
X95910400Y-142010755D01*
X96140290Y-142132076D01*
X96287499Y-142087425D01*
X96550320Y-141962241D01*
X96603810Y-141922343D01*
X96603810Y-142497500D01*
X98198401Y-142497500D01*
X98198401Y-143006500D01*
X96730810Y-143006500D01*
X96730810Y-143363585D01*
X96550320Y-143228959D01*
X96287499Y-143103775D01*
X96140290Y-143059124D01*
X95910400Y-143180445D01*
X95910400Y-144373600D01*
X95930400Y-144373600D01*
X95930400Y-144627600D01*
X95910400Y-144627600D01*
X95910400Y-145820755D01*
X96140290Y-145942076D01*
X96287499Y-145897425D01*
X96550320Y-145772241D01*
X96730810Y-145637615D01*
X96730810Y-145926500D01*
X98198401Y-145926500D01*
X98198401Y-146943500D01*
X96730810Y-146943500D01*
X96730810Y-147173585D01*
X96550320Y-147038959D01*
X96287499Y-146913775D01*
X96140290Y-146869124D01*
X95910400Y-146990445D01*
X95910400Y-148183600D01*
X95930400Y-148183600D01*
X95930400Y-148437600D01*
X95910400Y-148437600D01*
X95910400Y-149630755D01*
X96140290Y-149752076D01*
X96287499Y-149707425D01*
X96550320Y-149582241D01*
X96730810Y-149447615D01*
X96730810Y-149863500D01*
X98198401Y-149863500D01*
X98198401Y-150880500D01*
X96730810Y-150880500D01*
X96730810Y-150983585D01*
X96550320Y-150848959D01*
X96287499Y-150723775D01*
X96140290Y-150679124D01*
X95910400Y-150800445D01*
X95910400Y-151993600D01*
X95930400Y-151993600D01*
X95930400Y-152247600D01*
X95910400Y-152247600D01*
X95910400Y-153440755D01*
X96140290Y-153562076D01*
X96287499Y-153517425D01*
X96550320Y-153392241D01*
X96730810Y-153257615D01*
X96730810Y-153800500D01*
X98198400Y-153800500D01*
X98198400Y-154817500D01*
X96857810Y-154817500D01*
X96857810Y-155042264D01*
X96783669Y-154960012D01*
X96550320Y-154785959D01*
X96287499Y-154660775D01*
X96140290Y-154616124D01*
X95910400Y-154737445D01*
X95910400Y-155930600D01*
X95930400Y-155930600D01*
X95930400Y-156184600D01*
X95910400Y-156184600D01*
X95910400Y-157377755D01*
X96140290Y-157499076D01*
X96287499Y-157454425D01*
X96550320Y-157329241D01*
X96783669Y-157155188D01*
X96857810Y-157072936D01*
X96857810Y-157737500D01*
X98198400Y-157737500D01*
X98198400Y-158500500D01*
X96857810Y-158500500D01*
X96857810Y-158852264D01*
X96783669Y-158770012D01*
X96550320Y-158595959D01*
X96287499Y-158470775D01*
X96140290Y-158426124D01*
X95910400Y-158547445D01*
X95910400Y-159740600D01*
X95930400Y-159740600D01*
X95930400Y-159994600D01*
X95910400Y-159994600D01*
X95910400Y-161187755D01*
X96140290Y-161309076D01*
X96287499Y-161264425D01*
X96550320Y-161139241D01*
X96783669Y-160965188D01*
X96857810Y-160882936D01*
X96857810Y-161420500D01*
X98198400Y-161420500D01*
X98198400Y-175142200D01*
X89898992Y-183441609D01*
X89877356Y-183379056D01*
X89715501Y-183102408D01*
X89502785Y-182862652D01*
X89247382Y-182669001D01*
X88959107Y-182528898D01*
X88772434Y-182472276D01*
X88519000Y-182591623D01*
X88519000Y-183935400D01*
X88539000Y-183935400D01*
X88539000Y-184189400D01*
X88519000Y-184189400D01*
X88519000Y-184209400D01*
X88265000Y-184209400D01*
X88265000Y-184189400D01*
X86920685Y-184189400D01*
X86801871Y-184442835D01*
X86906644Y-184745744D01*
X87068499Y-185022392D01*
X87163447Y-185129410D01*
X27863211Y-185129410D01*
X26415766Y-183681965D01*
X86801871Y-183681965D01*
X86920685Y-183935400D01*
X88265000Y-183935400D01*
X88265000Y-182591623D01*
X88011566Y-182472276D01*
X87824893Y-182528898D01*
X87536618Y-182669001D01*
X87281215Y-182862652D01*
X87068499Y-183102408D01*
X86906644Y-183379056D01*
X86801871Y-183681965D01*
X26415766Y-183681965D01*
X23275800Y-180542000D01*
X51965928Y-180542000D01*
X51978188Y-180666482D01*
X52014498Y-180786180D01*
X52073463Y-180896494D01*
X52152815Y-180993185D01*
X52249506Y-181072537D01*
X52359820Y-181131502D01*
X52479518Y-181167812D01*
X52604000Y-181180072D01*
X53308250Y-181177000D01*
X53467000Y-181018250D01*
X53467000Y-178689000D01*
X53721000Y-178689000D01*
X53721000Y-181018250D01*
X53879750Y-181177000D01*
X54584000Y-181180072D01*
X54708482Y-181167812D01*
X54828180Y-181131502D01*
X54938494Y-181072537D01*
X55035185Y-180993185D01*
X55114537Y-180896494D01*
X55173502Y-180786180D01*
X55209812Y-180666482D01*
X55222072Y-180542000D01*
X55219000Y-178847750D01*
X55060250Y-178689000D01*
X53721000Y-178689000D01*
X53467000Y-178689000D01*
X52127750Y-178689000D01*
X51969000Y-178847750D01*
X51965928Y-180542000D01*
X23275800Y-180542000D01*
X19685002Y-176951203D01*
X19685002Y-176890252D01*
X19843750Y-177049000D01*
X20458000Y-177052072D01*
X20582482Y-177039812D01*
X20702180Y-177003502D01*
X20812494Y-176944537D01*
X20909185Y-176865185D01*
X20988537Y-176768494D01*
X21047502Y-176658180D01*
X21070610Y-176582000D01*
X51965928Y-176582000D01*
X51969000Y-178276250D01*
X52127750Y-178435000D01*
X53467000Y-178435000D01*
X53467000Y-176105750D01*
X53721000Y-176105750D01*
X53721000Y-178435000D01*
X55060250Y-178435000D01*
X55219000Y-178276250D01*
X55222072Y-176582000D01*
X55209812Y-176457518D01*
X55173502Y-176337820D01*
X55114537Y-176227506D01*
X55035185Y-176130815D01*
X54938494Y-176051463D01*
X54828180Y-175992498D01*
X54708482Y-175956188D01*
X54584000Y-175943928D01*
X53879750Y-175947000D01*
X53721000Y-176105750D01*
X53467000Y-176105750D01*
X53308250Y-175947000D01*
X52604000Y-175943928D01*
X52479518Y-175956188D01*
X52359820Y-175992498D01*
X52249506Y-176051463D01*
X52152815Y-176130815D01*
X52073463Y-176227506D01*
X52014498Y-176337820D01*
X51978188Y-176457518D01*
X51965928Y-176582000D01*
X21070610Y-176582000D01*
X21083812Y-176538482D01*
X21096072Y-176414000D01*
X21093000Y-175799750D01*
X20934250Y-175641000D01*
X19685000Y-175641000D01*
X19685000Y-175661000D01*
X19431000Y-175661000D01*
X19431000Y-175641000D01*
X19411000Y-175641000D01*
X19411000Y-175387000D01*
X19431000Y-175387000D01*
X19431000Y-175367000D01*
X19685000Y-175367000D01*
X19685000Y-175387000D01*
X20934250Y-175387000D01*
X21093000Y-175228250D01*
X21096072Y-174614000D01*
X21083812Y-174489518D01*
X21047502Y-174369820D01*
X20988537Y-174259506D01*
X20909185Y-174162815D01*
X20812494Y-174083463D01*
X20702180Y-174024498D01*
X20683873Y-174018944D01*
X20750312Y-173952505D01*
X20918299Y-173701095D01*
X21034011Y-173421743D01*
X21093000Y-173125184D01*
X21093000Y-172822816D01*
X21034011Y-172526257D01*
X20918299Y-172246905D01*
X20750312Y-171995495D01*
X20572000Y-171817183D01*
X20572000Y-170013298D01*
X20760555Y-169858555D01*
X20927382Y-169655275D01*
X21051347Y-169423354D01*
X21127683Y-169171706D01*
X21153459Y-168910000D01*
X21127683Y-168648294D01*
X21051347Y-168396646D01*
X20927382Y-168164725D01*
X20760555Y-167961445D01*
X20557275Y-167794618D01*
X20325354Y-167670653D01*
X20073706Y-167594317D01*
X19877579Y-167575000D01*
X19746421Y-167575000D01*
X19550294Y-167594317D01*
X19298646Y-167670653D01*
X19092999Y-167780574D01*
X19092999Y-165623802D01*
X19573157Y-165143645D01*
X19680514Y-165165000D01*
X19943486Y-165165000D01*
X20201405Y-165113696D01*
X20444359Y-165013061D01*
X20663013Y-164866962D01*
X20848962Y-164681013D01*
X20995061Y-164462359D01*
X21095696Y-164219405D01*
X21147000Y-163961486D01*
X21147000Y-163698514D01*
X21095696Y-163440595D01*
X20995061Y-163197641D01*
X20848962Y-162978987D01*
X20663013Y-162793038D01*
X20444359Y-162646939D01*
X20201405Y-162546304D01*
X19943486Y-162495000D01*
X19680514Y-162495000D01*
X19573157Y-162516355D01*
X18915010Y-161858209D01*
X18915010Y-159006285D01*
X18923000Y-159007072D01*
X19399250Y-159004000D01*
X19558000Y-158845250D01*
X19558000Y-157734000D01*
X19538000Y-157734000D01*
X19538000Y-157480000D01*
X19558000Y-157480000D01*
X19558000Y-157460000D01*
X19812000Y-157460000D01*
X19812000Y-157480000D01*
X19832000Y-157480000D01*
X19832000Y-157734000D01*
X19812000Y-157734000D01*
X19812000Y-158845250D01*
X19970750Y-159004000D01*
X20447000Y-159007072D01*
X20571482Y-158994812D01*
X20691180Y-158958502D01*
X20801494Y-158899537D01*
X20898185Y-158820185D01*
X20977537Y-158723494D01*
X21036502Y-158613180D01*
X21072812Y-158493482D01*
X21081080Y-158409535D01*
X21139880Y-158497535D01*
X21334465Y-158692120D01*
X21563273Y-158845005D01*
X21817510Y-158950314D01*
X21999353Y-158986485D01*
X22233001Y-159220133D01*
X22233000Y-173547783D01*
X22227019Y-173608510D01*
X22248933Y-173831009D01*
X22313834Y-174044957D01*
X22419226Y-174242133D01*
X22561061Y-174414959D01*
X22733887Y-174556794D01*
X22931063Y-174662186D01*
X23145011Y-174727087D01*
X23311758Y-174743510D01*
X23311759Y-174743510D01*
X23367510Y-174749001D01*
X23423261Y-174743510D01*
X54160379Y-174743510D01*
X56969000Y-177552132D01*
X56969001Y-179631824D01*
X56992514Y-179870556D01*
X57085433Y-180176869D01*
X57236326Y-180459170D01*
X57439393Y-180706608D01*
X57686831Y-180909675D01*
X57969132Y-181060568D01*
X58275445Y-181153487D01*
X58594000Y-181184862D01*
X58912556Y-181153487D01*
X59218869Y-181060568D01*
X59501170Y-180909675D01*
X59748608Y-180706608D01*
X59951675Y-180459170D01*
X60102568Y-180176869D01*
X60195487Y-179870556D01*
X60212581Y-179697000D01*
X66357155Y-179697000D01*
X66458234Y-179820166D01*
X66722422Y-180036979D01*
X67023832Y-180198086D01*
X67350881Y-180297295D01*
X67605775Y-180322400D01*
X67776225Y-180322400D01*
X68031119Y-180297295D01*
X68358168Y-180198086D01*
X68659578Y-180036979D01*
X68923766Y-179820166D01*
X69140579Y-179555978D01*
X69301686Y-179254568D01*
X69400895Y-178927519D01*
X69434394Y-178587400D01*
X69400895Y-178247281D01*
X69301686Y-177920232D01*
X69140579Y-177618822D01*
X68923766Y-177354634D01*
X68659578Y-177137821D01*
X68358168Y-176976714D01*
X68031119Y-176877505D01*
X67776225Y-176852400D01*
X67605775Y-176852400D01*
X67350881Y-176877505D01*
X67023832Y-176976714D01*
X66722422Y-177137821D01*
X66458234Y-177354634D01*
X66398845Y-177427000D01*
X60212581Y-177427000D01*
X60195487Y-177253444D01*
X60102568Y-176947131D01*
X59951675Y-176664830D01*
X59748608Y-176417392D01*
X59654233Y-176339940D01*
X71442591Y-176339940D01*
X71537430Y-176604781D01*
X71682115Y-176846031D01*
X71871086Y-177054419D01*
X72097080Y-177221937D01*
X72351413Y-177342146D01*
X72485461Y-177382804D01*
X72707500Y-177260815D01*
X72707500Y-176117900D01*
X72961500Y-176117900D01*
X72961500Y-177260815D01*
X73183539Y-177382804D01*
X73317587Y-177342146D01*
X73571920Y-177221937D01*
X73797914Y-177054419D01*
X73986885Y-176846031D01*
X74131570Y-176604781D01*
X74226409Y-176339940D01*
X74105124Y-176117900D01*
X72961500Y-176117900D01*
X72707500Y-176117900D01*
X71563876Y-176117900D01*
X71442591Y-176339940D01*
X59654233Y-176339940D01*
X59501169Y-176214325D01*
X59218868Y-176063432D01*
X58912555Y-175970513D01*
X58594000Y-175939138D01*
X58568756Y-175941624D01*
X58268992Y-175641860D01*
X71442591Y-175641860D01*
X71563876Y-175863900D01*
X72707500Y-175863900D01*
X72707500Y-174720985D01*
X72961500Y-174720985D01*
X72961500Y-175863900D01*
X74105124Y-175863900D01*
X74226409Y-175641860D01*
X74131570Y-175377019D01*
X73986885Y-175135769D01*
X73797914Y-174927381D01*
X73571920Y-174759863D01*
X73317587Y-174639654D01*
X73183539Y-174598996D01*
X72961500Y-174720985D01*
X72707500Y-174720985D01*
X72485461Y-174598996D01*
X72351413Y-174639654D01*
X72097080Y-174759863D01*
X71871086Y-174927381D01*
X71682115Y-175135769D01*
X71537430Y-175377019D01*
X71442591Y-175641860D01*
X58268992Y-175641860D01*
X55472506Y-172845375D01*
X55436959Y-172802061D01*
X55264133Y-172660226D01*
X55113754Y-172579847D01*
X62138403Y-165555200D01*
X77761499Y-165555200D01*
X79633698Y-167427400D01*
X79628998Y-167427400D01*
X79628998Y-167591805D01*
X79383020Y-167471837D01*
X79164906Y-167542829D01*
X78889077Y-167686431D01*
X78748059Y-167799619D01*
X78699037Y-167707906D01*
X78619685Y-167611215D01*
X78522994Y-167531863D01*
X78412680Y-167472898D01*
X78292982Y-167436588D01*
X78168500Y-167424328D01*
X77038435Y-167424328D01*
X76866999Y-167372323D01*
X76700252Y-167355900D01*
X76700251Y-167355900D01*
X76644500Y-167350409D01*
X76588749Y-167355900D01*
X73718784Y-167355900D01*
X73514227Y-167219220D01*
X73253074Y-167111047D01*
X72975835Y-167055900D01*
X72693165Y-167055900D01*
X72415926Y-167111047D01*
X72154773Y-167219220D01*
X72045251Y-167292400D01*
X69425625Y-167292400D01*
X69416812Y-167202918D01*
X69380502Y-167083220D01*
X69321537Y-166972906D01*
X69242185Y-166876215D01*
X69145494Y-166796863D01*
X69035180Y-166737898D01*
X68915482Y-166701588D01*
X68791000Y-166689328D01*
X66591000Y-166689328D01*
X66466518Y-166701588D01*
X66346820Y-166737898D01*
X66236506Y-166796863D01*
X66139815Y-166876215D01*
X66060463Y-166972906D01*
X66001498Y-167083220D01*
X65965188Y-167202918D01*
X65952928Y-167327400D01*
X65952928Y-169527400D01*
X65965188Y-169651882D01*
X66001498Y-169771580D01*
X66060463Y-169881894D01*
X66139815Y-169978585D01*
X66236506Y-170057937D01*
X66346820Y-170116902D01*
X66466518Y-170153212D01*
X66591000Y-170165472D01*
X68791000Y-170165472D01*
X68915482Y-170153212D01*
X69035180Y-170116902D01*
X69145494Y-170057937D01*
X69242185Y-169978585D01*
X69321537Y-169881894D01*
X69380502Y-169771580D01*
X69416812Y-169651882D01*
X69425625Y-169562400D01*
X71876604Y-169562400D01*
X71919741Y-169605537D01*
X72154773Y-169762580D01*
X72415926Y-169870753D01*
X72693165Y-169925900D01*
X72975835Y-169925900D01*
X73253074Y-169870753D01*
X73514227Y-169762580D01*
X73718784Y-169625900D01*
X75625428Y-169625900D01*
X75625428Y-170062400D01*
X75637688Y-170186882D01*
X75673998Y-170306580D01*
X75732963Y-170416894D01*
X75812315Y-170513585D01*
X75909006Y-170592937D01*
X76019320Y-170651902D01*
X76139018Y-170688212D01*
X76263500Y-170700472D01*
X78168500Y-170700472D01*
X78292982Y-170688212D01*
X78412680Y-170651902D01*
X78522994Y-170592937D01*
X78619685Y-170513585D01*
X78699037Y-170416894D01*
X78748059Y-170325181D01*
X78889077Y-170438369D01*
X79164906Y-170581971D01*
X79383020Y-170652963D01*
X79629000Y-170532994D01*
X79629000Y-169189400D01*
X79609000Y-169189400D01*
X79609000Y-168935400D01*
X79629000Y-168935400D01*
X79629000Y-168915400D01*
X79883000Y-168915400D01*
X79883000Y-168935400D01*
X79903000Y-168935400D01*
X79903000Y-169189400D01*
X79883000Y-169189400D01*
X79883000Y-170532994D01*
X80128980Y-170652963D01*
X80347094Y-170581971D01*
X80622923Y-170438369D01*
X80865437Y-170243715D01*
X81020837Y-170058501D01*
X81168037Y-170237863D01*
X81409766Y-170436245D01*
X81685552Y-170583655D01*
X81984797Y-170674430D01*
X82296000Y-170705081D01*
X82607204Y-170674430D01*
X82906449Y-170583655D01*
X83182235Y-170436245D01*
X83423963Y-170237863D01*
X83457170Y-170197400D01*
X86769379Y-170197400D01*
X86802498Y-170306580D01*
X86861463Y-170416894D01*
X86940815Y-170513585D01*
X87037506Y-170592937D01*
X87147820Y-170651902D01*
X87267518Y-170688212D01*
X87392000Y-170700472D01*
X89392000Y-170700472D01*
X89516482Y-170688212D01*
X89636180Y-170651902D01*
X89746494Y-170592937D01*
X89843185Y-170513585D01*
X89922537Y-170416894D01*
X89981502Y-170306580D01*
X90017812Y-170186882D01*
X90030072Y-170062400D01*
X90030072Y-168062400D01*
X90017812Y-167937918D01*
X89981502Y-167818220D01*
X89922537Y-167707906D01*
X89843185Y-167611215D01*
X89746494Y-167531863D01*
X89636180Y-167472898D01*
X89598165Y-167461366D01*
X94006546Y-163052987D01*
X94049849Y-163017449D01*
X94191684Y-162844623D01*
X94297076Y-162647447D01*
X94361977Y-162433499D01*
X94378400Y-162266752D01*
X94378400Y-162266751D01*
X94383891Y-162211000D01*
X94378400Y-162155248D01*
X94378400Y-160825417D01*
X94484106Y-160696614D01*
X94518601Y-160632077D01*
X94588222Y-160748955D01*
X94783131Y-160965188D01*
X95016480Y-161139241D01*
X95279301Y-161264425D01*
X95426510Y-161309076D01*
X95656400Y-161187755D01*
X95656400Y-159994600D01*
X95636400Y-159994600D01*
X95636400Y-159740600D01*
X95656400Y-159740600D01*
X95656400Y-158547445D01*
X95426510Y-158426124D01*
X95279301Y-158470775D01*
X95016480Y-158595959D01*
X94783131Y-158770012D01*
X94588222Y-158986245D01*
X94518601Y-159103123D01*
X94484106Y-159038586D01*
X94378400Y-158909783D01*
X94378400Y-157015417D01*
X94484106Y-156886614D01*
X94518601Y-156822077D01*
X94588222Y-156938955D01*
X94783131Y-157155188D01*
X95016480Y-157329241D01*
X95279301Y-157454425D01*
X95426510Y-157499076D01*
X95656400Y-157377755D01*
X95656400Y-156184600D01*
X95636400Y-156184600D01*
X95636400Y-155930600D01*
X95656400Y-155930600D01*
X95656400Y-154737445D01*
X95426510Y-154616124D01*
X95279301Y-154660775D01*
X95016480Y-154785959D01*
X94783131Y-154960012D01*
X94588222Y-155176245D01*
X94518601Y-155293123D01*
X94484106Y-155228586D01*
X94378400Y-155099783D01*
X94378400Y-153078417D01*
X94484106Y-152949614D01*
X94518601Y-152885077D01*
X94588222Y-153001955D01*
X94783131Y-153218188D01*
X95016480Y-153392241D01*
X95279301Y-153517425D01*
X95426510Y-153562076D01*
X95656400Y-153440755D01*
X95656400Y-152247600D01*
X95636400Y-152247600D01*
X95636400Y-151993600D01*
X95656400Y-151993600D01*
X95656400Y-150800445D01*
X95426510Y-150679124D01*
X95279301Y-150723775D01*
X95016480Y-150848959D01*
X94783131Y-151023012D01*
X94588222Y-151239245D01*
X94518601Y-151356123D01*
X94484106Y-151291586D01*
X94378400Y-151162783D01*
X94378400Y-149268417D01*
X94484106Y-149139614D01*
X94518601Y-149075077D01*
X94588222Y-149191955D01*
X94783131Y-149408188D01*
X95016480Y-149582241D01*
X95279301Y-149707425D01*
X95426510Y-149752076D01*
X95656400Y-149630755D01*
X95656400Y-148437600D01*
X95636400Y-148437600D01*
X95636400Y-148183600D01*
X95656400Y-148183600D01*
X95656400Y-146990445D01*
X95426510Y-146869124D01*
X95279301Y-146913775D01*
X95016480Y-147038959D01*
X94783131Y-147213012D01*
X94588222Y-147429245D01*
X94518601Y-147546123D01*
X94484106Y-147481586D01*
X94378400Y-147352783D01*
X94378400Y-145458417D01*
X94484106Y-145329614D01*
X94518601Y-145265077D01*
X94588222Y-145381955D01*
X94783131Y-145598188D01*
X95016480Y-145772241D01*
X95279301Y-145897425D01*
X95426510Y-145942076D01*
X95656400Y-145820755D01*
X95656400Y-144627600D01*
X95636400Y-144627600D01*
X95636400Y-144373600D01*
X95656400Y-144373600D01*
X95656400Y-143180445D01*
X95426510Y-143059124D01*
X95279301Y-143103775D01*
X95016480Y-143228959D01*
X94783131Y-143403012D01*
X94588222Y-143619245D01*
X94518601Y-143736123D01*
X94484106Y-143671586D01*
X94378400Y-143542783D01*
X94378400Y-141648417D01*
X94484106Y-141519614D01*
X94518601Y-141455077D01*
X94588222Y-141571955D01*
X94783131Y-141788188D01*
X95016480Y-141962241D01*
X95279301Y-142087425D01*
X95426510Y-142132076D01*
X95656400Y-142010755D01*
X95656400Y-140817600D01*
X95636400Y-140817600D01*
X95636400Y-140563600D01*
X95656400Y-140563600D01*
X95656400Y-139370445D01*
X95426510Y-139249124D01*
X95279301Y-139293775D01*
X95016480Y-139418959D01*
X94783131Y-139593012D01*
X94588222Y-139809245D01*
X94518601Y-139926123D01*
X94484106Y-139861586D01*
X94378400Y-139732783D01*
X94378400Y-137711417D01*
X94484106Y-137582614D01*
X94518601Y-137518077D01*
X94588222Y-137634955D01*
X94783131Y-137851188D01*
X95016480Y-138025241D01*
X95279301Y-138150425D01*
X95426510Y-138195076D01*
X95656400Y-138073755D01*
X95656400Y-136880600D01*
X95636400Y-136880600D01*
X95636400Y-136626600D01*
X95656400Y-136626600D01*
X95656400Y-135433445D01*
X95426510Y-135312124D01*
X95279301Y-135356775D01*
X95016480Y-135481959D01*
X94783131Y-135656012D01*
X94588222Y-135872245D01*
X94518601Y-135989123D01*
X94484106Y-135924586D01*
X94378400Y-135795783D01*
X94378400Y-133774417D01*
X94484106Y-133645614D01*
X94518601Y-133581077D01*
X94588222Y-133697955D01*
X94783131Y-133914188D01*
X95016480Y-134088241D01*
X95279301Y-134213425D01*
X95426510Y-134258076D01*
X95656400Y-134136755D01*
X95656400Y-132943600D01*
X95636400Y-132943600D01*
X95636400Y-132689600D01*
X95656400Y-132689600D01*
X95656400Y-132669600D01*
X95910400Y-132669600D01*
X95910400Y-132689600D01*
G36*
X25991203Y-156098005D02*
G01*
X25968487Y-156172889D01*
X25939815Y-156464000D01*
X25968487Y-156755111D01*
X26053401Y-157035034D01*
X26191294Y-157293014D01*
X26376866Y-157519134D01*
X26406687Y-157543607D01*
X26337820Y-157564498D01*
X26227506Y-157623463D01*
X26130815Y-157702815D01*
X26051463Y-157799506D01*
X25992498Y-157909820D01*
X25956188Y-158029518D01*
X25943928Y-158154000D01*
X25947000Y-158718250D01*
X26105750Y-158877000D01*
X27305000Y-158877000D01*
X27305000Y-158857000D01*
X27559000Y-158857000D01*
X27559000Y-158877000D01*
X27579000Y-158877000D01*
X27579000Y-159131000D01*
X27559000Y-159131000D01*
X27559000Y-160330250D01*
X27717750Y-160489000D01*
X28282000Y-160492072D01*
X28406482Y-160479812D01*
X28450001Y-160466611D01*
X28450000Y-166479197D01*
X26158998Y-168770201D01*
X26130000Y-168793999D01*
X26106202Y-168822997D01*
X26106201Y-168822998D01*
X26035026Y-168909724D01*
X26015674Y-168945928D01*
X25820000Y-168945928D01*
X25695518Y-168958188D01*
X25575820Y-168994498D01*
X25465506Y-169053463D01*
X25368815Y-169132815D01*
X25289463Y-169229506D01*
X25230498Y-169339820D01*
X25194188Y-169459518D01*
X25181928Y-169584000D01*
X25181928Y-171284000D01*
X25194188Y-171408482D01*
X25230498Y-171528180D01*
X25289463Y-171638494D01*
X25368815Y-171735185D01*
X25465506Y-171814537D01*
X25575820Y-171873502D01*
X25695518Y-171909812D01*
X25820000Y-171922072D01*
X27520000Y-171922072D01*
X27644482Y-171909812D01*
X27764180Y-171873502D01*
X27874494Y-171814537D01*
X27971185Y-171735185D01*
X28050537Y-171638494D01*
X28109502Y-171528180D01*
X28130393Y-171459313D01*
X28154866Y-171489134D01*
X28380986Y-171674706D01*
X28638966Y-171812599D01*
X28918889Y-171897513D01*
X29137050Y-171919000D01*
X29282950Y-171919000D01*
X29501111Y-171897513D01*
X29781034Y-171812599D01*
X30039014Y-171674706D01*
X30265134Y-171489134D01*
X30450706Y-171263014D01*
X30480000Y-171208209D01*
X30509294Y-171263014D01*
X30694866Y-171489134D01*
X30920986Y-171674706D01*
X31178966Y-171812599D01*
X31458889Y-171897513D01*
X31677050Y-171919000D01*
X31822950Y-171919000D01*
X32041111Y-171897513D01*
X32165002Y-171859931D01*
X32165002Y-172371256D01*
X32161324Y-172408599D01*
X32167717Y-172473510D01*
X24503000Y-172473510D01*
X24503000Y-159854000D01*
X25943928Y-159854000D01*
X25956188Y-159978482D01*
X25992498Y-160098180D01*
X26051463Y-160208494D01*
X26130815Y-160305185D01*
X26227506Y-160384537D01*
X26337820Y-160443502D01*
X26457518Y-160479812D01*
X26582000Y-160492072D01*
X27146250Y-160489000D01*
X27305000Y-160330250D01*
X27305000Y-159131000D01*
X26105750Y-159131000D01*
X25947000Y-159289750D01*
X25943928Y-159854000D01*
X24503000Y-159854000D01*
X24503000Y-158805743D01*
X24508490Y-158749999D01*
X24503000Y-158694255D01*
X24503000Y-158694248D01*
X24486577Y-158527501D01*
X24485306Y-158523309D01*
X24455824Y-158426124D01*
X24421676Y-158313553D01*
X24316284Y-158116377D01*
X24174449Y-157943551D01*
X24131140Y-157908008D01*
X23604485Y-157381353D01*
X23568314Y-157199510D01*
X23463005Y-156945273D01*
X23310120Y-156716465D01*
X23115535Y-156521880D01*
X22886727Y-156368995D01*
X22809485Y-156337000D01*
X22886727Y-156305005D01*
X23115535Y-156152120D01*
X23310120Y-155957535D01*
X23463005Y-155728727D01*
X23568314Y-155474490D01*
X23622000Y-155204592D01*
X23622000Y-154929408D01*
X23568314Y-154659510D01*
X23463005Y-154405273D01*
X23310120Y-154176465D01*
X23115535Y-153981880D01*
X22886727Y-153828995D01*
X22809485Y-153797000D01*
X22886727Y-153765005D01*
X23115535Y-153612120D01*
X23310120Y-153417535D01*
X23310366Y-153417167D01*
X25991203Y-156098005D01*
X25991203Y-156098005D01*
G37*
X25991203Y-156098005D02*
X25968487Y-156172889D01*
X25939815Y-156464000D01*
X25968487Y-156755111D01*
X26053401Y-157035034D01*
X26191294Y-157293014D01*
X26376866Y-157519134D01*
X26406687Y-157543607D01*
X26337820Y-157564498D01*
X26227506Y-157623463D01*
X26130815Y-157702815D01*
X26051463Y-157799506D01*
X25992498Y-157909820D01*
X25956188Y-158029518D01*
X25943928Y-158154000D01*
X25947000Y-158718250D01*
X26105750Y-158877000D01*
X27305000Y-158877000D01*
X27305000Y-158857000D01*
X27559000Y-158857000D01*
X27559000Y-158877000D01*
X27579000Y-158877000D01*
X27579000Y-159131000D01*
X27559000Y-159131000D01*
X27559000Y-160330250D01*
X27717750Y-160489000D01*
X28282000Y-160492072D01*
X28406482Y-160479812D01*
X28450001Y-160466611D01*
X28450000Y-166479197D01*
X26158998Y-168770201D01*
X26130000Y-168793999D01*
X26106202Y-168822997D01*
X26106201Y-168822998D01*
X26035026Y-168909724D01*
X26015674Y-168945928D01*
X25820000Y-168945928D01*
X25695518Y-168958188D01*
X25575820Y-168994498D01*
X25465506Y-169053463D01*
X25368815Y-169132815D01*
X25289463Y-169229506D01*
X25230498Y-169339820D01*
X25194188Y-169459518D01*
X25181928Y-169584000D01*
X25181928Y-171284000D01*
X25194188Y-171408482D01*
X25230498Y-171528180D01*
X25289463Y-171638494D01*
X25368815Y-171735185D01*
X25465506Y-171814537D01*
X25575820Y-171873502D01*
X25695518Y-171909812D01*
X25820000Y-171922072D01*
X27520000Y-171922072D01*
X27644482Y-171909812D01*
X27764180Y-171873502D01*
X27874494Y-171814537D01*
X27971185Y-171735185D01*
X28050537Y-171638494D01*
X28109502Y-171528180D01*
X28130393Y-171459313D01*
X28154866Y-171489134D01*
X28380986Y-171674706D01*
X28638966Y-171812599D01*
X28918889Y-171897513D01*
X29137050Y-171919000D01*
X29282950Y-171919000D01*
X29501111Y-171897513D01*
X29781034Y-171812599D01*
X30039014Y-171674706D01*
X30265134Y-171489134D01*
X30450706Y-171263014D01*
X30480000Y-171208209D01*
X30509294Y-171263014D01*
X30694866Y-171489134D01*
X30920986Y-171674706D01*
X31178966Y-171812599D01*
X31458889Y-171897513D01*
X31677050Y-171919000D01*
X31822950Y-171919000D01*
X32041111Y-171897513D01*
X32165002Y-171859931D01*
X32165002Y-172371256D01*
X32161324Y-172408599D01*
X32167717Y-172473510D01*
X24503000Y-172473510D01*
X24503000Y-159854000D01*
X25943928Y-159854000D01*
X25956188Y-159978482D01*
X25992498Y-160098180D01*
X26051463Y-160208494D01*
X26130815Y-160305185D01*
X26227506Y-160384537D01*
X26337820Y-160443502D01*
X26457518Y-160479812D01*
X26582000Y-160492072D01*
X27146250Y-160489000D01*
X27305000Y-160330250D01*
X27305000Y-159131000D01*
X26105750Y-159131000D01*
X25947000Y-159289750D01*
X25943928Y-159854000D01*
X24503000Y-159854000D01*
X24503000Y-158805743D01*
X24508490Y-158749999D01*
X24503000Y-158694255D01*
X24503000Y-158694248D01*
X24486577Y-158527501D01*
X24485306Y-158523309D01*
X24455824Y-158426124D01*
X24421676Y-158313553D01*
X24316284Y-158116377D01*
X24174449Y-157943551D01*
X24131140Y-157908008D01*
X23604485Y-157381353D01*
X23568314Y-157199510D01*
X23463005Y-156945273D01*
X23310120Y-156716465D01*
X23115535Y-156521880D01*
X22886727Y-156368995D01*
X22809485Y-156337000D01*
X22886727Y-156305005D01*
X23115535Y-156152120D01*
X23310120Y-155957535D01*
X23463005Y-155728727D01*
X23568314Y-155474490D01*
X23622000Y-155204592D01*
X23622000Y-154929408D01*
X23568314Y-154659510D01*
X23463005Y-154405273D01*
X23310120Y-154176465D01*
X23115535Y-153981880D01*
X22886727Y-153828995D01*
X22809485Y-153797000D01*
X22886727Y-153765005D01*
X23115535Y-153612120D01*
X23310120Y-153417535D01*
X23310366Y-153417167D01*
X25991203Y-156098005D01*
G36*
X99645000Y-130939509D02*
G01*
X99593374Y-130842924D01*
X99498401Y-130727199D01*
X99470500Y-130704301D01*
X99447601Y-130676399D01*
X99331876Y-130581426D01*
X99199847Y-130510854D01*
X99056586Y-130467397D01*
X98944933Y-130456400D01*
X98944922Y-130456400D01*
X98907600Y-130452724D01*
X98870278Y-130456400D01*
X94880933Y-130456400D01*
X94843600Y-130452723D01*
X94806267Y-130456400D01*
X94694614Y-130467397D01*
X94551353Y-130510854D01*
X94419324Y-130581426D01*
X94303599Y-130676399D01*
X94279801Y-130705397D01*
X93609395Y-131375803D01*
X93534511Y-131353087D01*
X93316350Y-131331600D01*
X93170450Y-131331600D01*
X92952289Y-131353087D01*
X92877405Y-131375803D01*
X91853010Y-130351409D01*
X94694700Y-130351409D01*
X94694700Y-130300609D01*
X97285500Y-130300609D01*
X97285500Y-125832990D01*
X94365500Y-125832990D01*
X94365500Y-125883790D01*
X92256300Y-125883790D01*
X92256300Y-124010647D01*
X89336300Y-124010647D01*
X89336300Y-129084800D01*
X85025722Y-129084800D01*
X84988399Y-129081124D01*
X84951076Y-129084800D01*
X84951067Y-129084800D01*
X84839414Y-129095797D01*
X84696153Y-129139254D01*
X84564123Y-129209826D01*
X84480483Y-129278468D01*
X84448399Y-129304799D01*
X84424601Y-129333797D01*
X82438399Y-131320000D01*
X71070901Y-131320000D01*
X71048932Y-131278899D01*
X70869608Y-131060392D01*
X70651101Y-130881068D01*
X70401808Y-130747818D01*
X70131309Y-130665764D01*
X69920492Y-130645000D01*
X69779508Y-130645000D01*
X69568691Y-130665764D01*
X69298192Y-130747818D01*
X69048899Y-130881068D01*
X68830392Y-131060392D01*
X68651068Y-131278899D01*
X68517818Y-131528192D01*
X68435764Y-131798691D01*
X68408057Y-132080000D01*
X68435764Y-132361309D01*
X68517818Y-132631808D01*
X68651068Y-132881101D01*
X68830392Y-133099608D01*
X69048899Y-133278932D01*
X69186682Y-133352579D01*
X68994869Y-133467615D01*
X68786481Y-133656586D01*
X68618963Y-133882580D01*
X68498754Y-134136913D01*
X68458096Y-134270961D01*
X68580085Y-134493000D01*
X69723000Y-134493000D01*
X69723000Y-134473000D01*
X69977000Y-134473000D01*
X69977000Y-134493000D01*
X71119915Y-134493000D01*
X71241904Y-134270961D01*
X71201246Y-134136913D01*
X71081037Y-133882580D01*
X70913519Y-133656586D01*
X70705131Y-133467615D01*
X70513318Y-133352579D01*
X70651101Y-133278932D01*
X70869608Y-133099608D01*
X71048932Y-132881101D01*
X71070901Y-132840000D01*
X82715878Y-132840000D01*
X82753200Y-132843676D01*
X82790522Y-132840000D01*
X82790533Y-132840000D01*
X82902186Y-132829003D01*
X83045447Y-132785546D01*
X83177476Y-132714974D01*
X83293201Y-132620001D01*
X83317004Y-132590997D01*
X85303202Y-130604800D01*
X89956799Y-130604800D01*
X90680527Y-131328528D01*
X89853400Y-131328528D01*
X89728918Y-131340788D01*
X89609220Y-131377098D01*
X89498906Y-131436063D01*
X89402215Y-131515415D01*
X89322863Y-131612106D01*
X89263898Y-131722420D01*
X89227588Y-131842118D01*
X89215328Y-131966600D01*
X89215328Y-132056600D01*
X86930722Y-132056600D01*
X86893399Y-132052924D01*
X86856076Y-132056600D01*
X86856067Y-132056600D01*
X86744414Y-132067597D01*
X86601153Y-132111054D01*
X86469124Y-132181626D01*
X86353399Y-132276599D01*
X86329601Y-132305597D01*
X82875906Y-135759292D01*
X82831309Y-135745764D01*
X82620492Y-135725000D01*
X82479508Y-135725000D01*
X82268691Y-135745764D01*
X81998192Y-135827818D01*
X81748899Y-135961068D01*
X81530392Y-136140392D01*
X81351068Y-136358899D01*
X81217818Y-136608192D01*
X81135764Y-136878691D01*
X81108057Y-137160000D01*
X81135764Y-137441309D01*
X81217818Y-137711808D01*
X81351068Y-137961101D01*
X81530392Y-138179608D01*
X81748899Y-138358932D01*
X81881858Y-138430000D01*
X81748899Y-138501068D01*
X81530392Y-138680392D01*
X81351068Y-138898899D01*
X81217818Y-139148192D01*
X81135764Y-139418691D01*
X81108057Y-139700000D01*
X81135764Y-139981309D01*
X81217818Y-140251808D01*
X81351068Y-140501101D01*
X81530392Y-140719608D01*
X81748899Y-140898932D01*
X81881858Y-140970000D01*
X81748899Y-141041068D01*
X81530392Y-141220392D01*
X81351068Y-141438899D01*
X81217818Y-141688192D01*
X81135764Y-141958691D01*
X81108057Y-142240000D01*
X81135764Y-142521309D01*
X81217818Y-142791808D01*
X81351068Y-143041101D01*
X81530392Y-143259608D01*
X81748899Y-143438932D01*
X81881858Y-143510000D01*
X81748899Y-143581068D01*
X81530392Y-143760392D01*
X81351068Y-143978899D01*
X81217818Y-144228192D01*
X81135764Y-144498691D01*
X81108057Y-144780000D01*
X81135764Y-145061309D01*
X81217818Y-145331808D01*
X81351068Y-145581101D01*
X81530392Y-145799608D01*
X81748899Y-145978932D01*
X81881858Y-146050000D01*
X81748899Y-146121068D01*
X81530392Y-146300392D01*
X81351068Y-146518899D01*
X81217818Y-146768192D01*
X81135764Y-147038691D01*
X81108057Y-147320000D01*
X81135764Y-147601309D01*
X81217818Y-147871808D01*
X81351068Y-148121101D01*
X81530392Y-148339608D01*
X81748899Y-148518932D01*
X81881858Y-148590000D01*
X81748899Y-148661068D01*
X81530392Y-148840392D01*
X81351068Y-149058899D01*
X81217818Y-149308192D01*
X81135764Y-149578691D01*
X81108057Y-149860000D01*
X81135764Y-150141309D01*
X81217818Y-150411808D01*
X81351068Y-150661101D01*
X81530392Y-150879608D01*
X81748899Y-151058932D01*
X81881858Y-151130000D01*
X81748899Y-151201068D01*
X81530392Y-151380392D01*
X81351068Y-151598899D01*
X81217818Y-151848192D01*
X81135764Y-152118691D01*
X81108057Y-152400000D01*
X81135764Y-152681309D01*
X81217818Y-152951808D01*
X81351068Y-153201101D01*
X81530392Y-153419608D01*
X81748899Y-153598932D01*
X81881858Y-153670000D01*
X81748899Y-153741068D01*
X81530392Y-153920392D01*
X81351068Y-154138899D01*
X81217818Y-154388192D01*
X81135764Y-154658691D01*
X81108057Y-154940000D01*
X81135764Y-155221309D01*
X81217818Y-155491808D01*
X81351068Y-155741101D01*
X81530392Y-155959608D01*
X81748899Y-156138932D01*
X81998192Y-156272182D01*
X82268691Y-156354236D01*
X82479508Y-156375000D01*
X82620492Y-156375000D01*
X82831309Y-156354236D01*
X82875906Y-156340708D01*
X86913801Y-160378603D01*
X86937599Y-160407601D01*
X87053324Y-160502574D01*
X87185353Y-160573146D01*
X87328614Y-160616603D01*
X87440267Y-160627600D01*
X87440275Y-160627600D01*
X87477600Y-160631276D01*
X87514925Y-160627600D01*
X89215328Y-160627600D01*
X89215328Y-160717600D01*
X89227588Y-160842082D01*
X89263898Y-160961780D01*
X89322863Y-161072094D01*
X89402215Y-161168785D01*
X89498906Y-161248137D01*
X89609220Y-161307102D01*
X89728918Y-161343412D01*
X89853400Y-161355672D01*
X91553400Y-161355672D01*
X91677882Y-161343412D01*
X91797580Y-161307102D01*
X91907894Y-161248137D01*
X92004585Y-161168785D01*
X92083937Y-161072094D01*
X92108400Y-161026328D01*
X92108400Y-161740867D01*
X87628860Y-166220409D01*
X87585552Y-166255951D01*
X87443717Y-166428777D01*
X87404710Y-166501754D01*
X87338324Y-166625954D01*
X87273423Y-166839902D01*
X87251509Y-167062400D01*
X87257001Y-167118161D01*
X87257001Y-167439778D01*
X87147820Y-167472898D01*
X87037506Y-167531863D01*
X86940815Y-167611215D01*
X86861463Y-167707906D01*
X86802498Y-167818220D01*
X86769379Y-167927400D01*
X83457170Y-167927400D01*
X83423963Y-167886937D01*
X83182234Y-167688555D01*
X82906448Y-167541145D01*
X82607203Y-167450370D01*
X82296000Y-167419719D01*
X81984796Y-167450370D01*
X81847822Y-167491921D01*
X78640104Y-164284203D01*
X78616301Y-164255199D01*
X78500576Y-164160226D01*
X78368547Y-164089654D01*
X78225286Y-164046197D01*
X78113633Y-164035200D01*
X78113622Y-164035200D01*
X78076300Y-164031524D01*
X78038978Y-164035200D01*
X61860922Y-164035200D01*
X61823599Y-164031524D01*
X61786276Y-164035200D01*
X61786267Y-164035200D01*
X61674614Y-164046197D01*
X61531353Y-164089654D01*
X61399324Y-164160226D01*
X61399322Y-164160227D01*
X61399323Y-164160227D01*
X61312596Y-164231401D01*
X61312592Y-164231405D01*
X61283599Y-164255199D01*
X61259805Y-164284192D01*
X53837999Y-171706000D01*
X47756166Y-171706000D01*
X47756920Y-171705641D01*
X47990269Y-171531588D01*
X48185178Y-171315355D01*
X48334157Y-171065252D01*
X48431481Y-170790891D01*
X48310814Y-170561000D01*
X47117000Y-170561000D01*
X47117000Y-170581000D01*
X46863000Y-170581000D01*
X46863000Y-170561000D01*
X46843000Y-170561000D01*
X46843000Y-170307000D01*
X46863000Y-170307000D01*
X46863000Y-169113845D01*
X47117000Y-169113845D01*
X47117000Y-170307000D01*
X48310814Y-170307000D01*
X48431481Y-170077109D01*
X48334157Y-169802748D01*
X48185178Y-169552645D01*
X47990269Y-169336412D01*
X47756920Y-169162359D01*
X47494099Y-169037175D01*
X47346890Y-168992524D01*
X47117000Y-169113845D01*
X46863000Y-169113845D01*
X46633110Y-168992524D01*
X46485901Y-169037175D01*
X46223080Y-169162359D01*
X45989731Y-169336412D01*
X45794822Y-169552645D01*
X45725201Y-169669523D01*
X45690706Y-169604986D01*
X45505134Y-169378866D01*
X45279014Y-169193294D01*
X45210000Y-169156405D01*
X45210000Y-161211952D01*
X45213676Y-161174629D01*
X45210000Y-161137306D01*
X45210000Y-161137297D01*
X45199003Y-161025644D01*
X45155546Y-160882383D01*
X45084974Y-160750353D01*
X45013799Y-160663627D01*
X44990001Y-160634629D01*
X44961004Y-160610832D01*
X42081174Y-157731003D01*
X42057371Y-157701999D01*
X41941646Y-157607026D01*
X41809617Y-157536454D01*
X41666356Y-157492997D01*
X41609802Y-157487427D01*
X41584932Y-157440899D01*
X41405608Y-157222392D01*
X41187101Y-157043068D01*
X41054142Y-156972000D01*
X41187101Y-156900932D01*
X41405608Y-156721608D01*
X41584932Y-156503101D01*
X41606901Y-156462000D01*
X44920667Y-156462000D01*
X44958000Y-156465677D01*
X45106986Y-156451003D01*
X45250247Y-156407546D01*
X45382276Y-156336974D01*
X45498001Y-156242001D01*
X45592974Y-156126276D01*
X45663546Y-155994247D01*
X45707003Y-155850986D01*
X45717934Y-155740000D01*
X54441928Y-155740000D01*
X54454188Y-155864482D01*
X54490498Y-155984180D01*
X54549463Y-156094494D01*
X54628815Y-156191185D01*
X54725506Y-156270537D01*
X54835820Y-156329502D01*
X54955518Y-156365812D01*
X55080000Y-156378072D01*
X55594250Y-156375000D01*
X55753000Y-156216250D01*
X55753000Y-155067000D01*
X56007000Y-155067000D01*
X56007000Y-156216250D01*
X56165750Y-156375000D01*
X56680000Y-156378072D01*
X56804482Y-156365812D01*
X56924180Y-156329502D01*
X57034494Y-156270537D01*
X57131185Y-156191185D01*
X57210537Y-156094494D01*
X57269502Y-155984180D01*
X57305812Y-155864482D01*
X57318072Y-155740000D01*
X57315379Y-155289039D01*
X60838096Y-155289039D01*
X60878754Y-155423087D01*
X60998963Y-155677420D01*
X61166481Y-155903414D01*
X61374869Y-156092385D01*
X61616119Y-156237070D01*
X61880960Y-156331909D01*
X62103000Y-156210624D01*
X62103000Y-155067000D01*
X62357000Y-155067000D01*
X62357000Y-156210624D01*
X62579040Y-156331909D01*
X62843881Y-156237070D01*
X63085131Y-156092385D01*
X63293519Y-155903414D01*
X63461037Y-155677420D01*
X63581246Y-155423087D01*
X63621904Y-155289039D01*
X63499915Y-155067000D01*
X62357000Y-155067000D01*
X62103000Y-155067000D01*
X60960085Y-155067000D01*
X60838096Y-155289039D01*
X57315379Y-155289039D01*
X57315000Y-155225750D01*
X57156250Y-155067000D01*
X56007000Y-155067000D01*
X55753000Y-155067000D01*
X54603750Y-155067000D01*
X54445000Y-155225750D01*
X54441928Y-155740000D01*
X45717934Y-155740000D01*
X45718000Y-155739333D01*
X45721677Y-155702000D01*
X45718000Y-155664667D01*
X45718000Y-152602043D01*
X45872759Y-152498637D01*
X46072637Y-152298759D01*
X46229680Y-152063727D01*
X46337853Y-151802574D01*
X46393000Y-151525335D01*
X46393000Y-151242665D01*
X46337853Y-150965426D01*
X46229680Y-150704273D01*
X46072637Y-150469241D01*
X45872759Y-150269363D01*
X45637727Y-150112320D01*
X45376574Y-150004147D01*
X45099335Y-149949000D01*
X44816665Y-149949000D01*
X44539426Y-150004147D01*
X44278273Y-150112320D01*
X44043241Y-150269363D01*
X43843363Y-150469241D01*
X43686320Y-150704273D01*
X43578147Y-150965426D01*
X43523000Y-151242665D01*
X43523000Y-151525335D01*
X43578147Y-151802574D01*
X43686320Y-152063727D01*
X43843363Y-152298759D01*
X44043241Y-152498637D01*
X44198000Y-152602044D01*
X44198001Y-154942000D01*
X41606901Y-154942000D01*
X41584932Y-154900899D01*
X41405608Y-154682392D01*
X41187101Y-154503068D01*
X41054142Y-154432000D01*
X41187101Y-154360932D01*
X41405608Y-154181608D01*
X41584932Y-153963101D01*
X41718182Y-153713808D01*
X41800236Y-153443309D01*
X41827943Y-153162000D01*
X41800236Y-152880691D01*
X41718182Y-152610192D01*
X41584932Y-152360899D01*
X41405608Y-152142392D01*
X41187101Y-151963068D01*
X41049318Y-151889421D01*
X41241131Y-151774385D01*
X41449519Y-151585414D01*
X41617037Y-151359420D01*
X41737246Y-151105087D01*
X41777904Y-150971039D01*
X41655915Y-150749000D01*
X40513000Y-150749000D01*
X40513000Y-150769000D01*
X40259000Y-150769000D01*
X40259000Y-150749000D01*
X39116085Y-150749000D01*
X38994096Y-150971039D01*
X39034754Y-151105087D01*
X39154963Y-151359420D01*
X39322481Y-151585414D01*
X39530869Y-151774385D01*
X39722682Y-151889421D01*
X39584899Y-151963068D01*
X39366392Y-152142392D01*
X39187068Y-152360899D01*
X39053818Y-152610192D01*
X38971764Y-152880691D01*
X38944057Y-153162000D01*
X38971764Y-153443309D01*
X39053818Y-153713808D01*
X39187068Y-153963101D01*
X39366392Y-154181608D01*
X39584899Y-154360932D01*
X39717858Y-154432000D01*
X39584899Y-154503068D01*
X39366392Y-154682392D01*
X39187068Y-154900899D01*
X39053818Y-155150192D01*
X38971764Y-155420691D01*
X38944057Y-155702000D01*
X38971764Y-155983309D01*
X39053818Y-156253808D01*
X39187068Y-156503101D01*
X39366392Y-156721608D01*
X39584899Y-156900932D01*
X39717858Y-156972000D01*
X39584899Y-157043068D01*
X39366392Y-157222392D01*
X39187068Y-157440899D01*
X39053818Y-157690192D01*
X38971764Y-157960691D01*
X38944057Y-158242000D01*
X38971764Y-158523309D01*
X39053818Y-158793808D01*
X39187068Y-159043101D01*
X39366392Y-159261608D01*
X39584899Y-159440932D01*
X39717858Y-159512000D01*
X39584899Y-159583068D01*
X39366392Y-159762392D01*
X39187068Y-159980899D01*
X39053818Y-160230192D01*
X38971764Y-160500691D01*
X38944057Y-160782000D01*
X38971764Y-161063309D01*
X39053818Y-161333808D01*
X39187068Y-161583101D01*
X39366392Y-161801608D01*
X39584899Y-161980932D01*
X39717858Y-162052000D01*
X39584899Y-162123068D01*
X39366392Y-162302392D01*
X39187068Y-162520899D01*
X39053818Y-162770192D01*
X38971764Y-163040691D01*
X38944057Y-163322000D01*
X38971764Y-163603309D01*
X39053818Y-163873808D01*
X39187068Y-164123101D01*
X39366392Y-164341608D01*
X39479482Y-164434419D01*
X39461518Y-164436188D01*
X39341820Y-164472498D01*
X39231506Y-164531463D01*
X39134815Y-164610815D01*
X39055463Y-164707506D01*
X38996498Y-164817820D01*
X38960188Y-164937518D01*
X38947928Y-165062000D01*
X38947928Y-166662000D01*
X38960188Y-166786482D01*
X38996498Y-166906180D01*
X39055463Y-167016494D01*
X39108310Y-167080888D01*
X37195995Y-168993203D01*
X37121111Y-168970487D01*
X36902950Y-168949000D01*
X36757050Y-168949000D01*
X36538889Y-168970487D01*
X36320000Y-169036886D01*
X36320000Y-163359333D01*
X36323677Y-163322000D01*
X36309003Y-163173014D01*
X36265546Y-163029753D01*
X36194974Y-162897724D01*
X36100001Y-162781999D01*
X35984276Y-162687026D01*
X35852247Y-162616454D01*
X35708986Y-162572997D01*
X35597333Y-162562000D01*
X35560000Y-162558323D01*
X35522667Y-162562000D01*
X33986901Y-162562000D01*
X33964932Y-162520899D01*
X33785608Y-162302392D01*
X33567101Y-162123068D01*
X33434142Y-162052000D01*
X33567101Y-161980932D01*
X33785608Y-161801608D01*
X33964932Y-161583101D01*
X34098182Y-161333808D01*
X34180236Y-161063309D01*
X34207943Y-160782000D01*
X34180236Y-160500691D01*
X34098182Y-160230192D01*
X33964932Y-159980899D01*
X33785608Y-159762392D01*
X33567101Y-159583068D01*
X33434142Y-159512000D01*
X33567101Y-159440932D01*
X33785608Y-159261608D01*
X33964932Y-159043101D01*
X34098182Y-158793808D01*
X34180236Y-158523309D01*
X34207943Y-158242000D01*
X34180236Y-157960691D01*
X34098182Y-157690192D01*
X33964932Y-157440899D01*
X33785608Y-157222392D01*
X33567101Y-157043068D01*
X33434142Y-156972000D01*
X33567101Y-156900932D01*
X33785608Y-156721608D01*
X33964932Y-156503101D01*
X34098182Y-156253808D01*
X34180236Y-155983309D01*
X34207943Y-155702000D01*
X34180236Y-155420691D01*
X34098182Y-155150192D01*
X33964932Y-154900899D01*
X33785608Y-154682392D01*
X33567101Y-154503068D01*
X33434142Y-154432000D01*
X33567101Y-154360932D01*
X33785608Y-154181608D01*
X33964932Y-153963101D01*
X34098182Y-153713808D01*
X34180236Y-153443309D01*
X34207943Y-153162000D01*
X34180236Y-152880691D01*
X34098182Y-152610192D01*
X33964932Y-152360899D01*
X33785608Y-152142392D01*
X33567101Y-151963068D01*
X33434142Y-151892000D01*
X33567101Y-151820932D01*
X33785608Y-151641608D01*
X33964932Y-151423101D01*
X34098182Y-151173808D01*
X34180236Y-150903309D01*
X34207943Y-150622000D01*
X34180236Y-150340691D01*
X34098182Y-150070192D01*
X33964932Y-149820899D01*
X33785608Y-149602392D01*
X33567101Y-149423068D01*
X33434142Y-149352000D01*
X33567101Y-149280932D01*
X33785608Y-149101608D01*
X33964932Y-148883101D01*
X34098182Y-148633808D01*
X34159690Y-148431039D01*
X38994096Y-148431039D01*
X39034754Y-148565087D01*
X39154963Y-148819420D01*
X39322481Y-149045414D01*
X39530869Y-149234385D01*
X39726982Y-149352000D01*
X39530869Y-149469615D01*
X39322481Y-149658586D01*
X39154963Y-149884580D01*
X39034754Y-150138913D01*
X38994096Y-150272961D01*
X39116085Y-150495000D01*
X40259000Y-150495000D01*
X40259000Y-148209000D01*
X40513000Y-148209000D01*
X40513000Y-150495000D01*
X41655915Y-150495000D01*
X41777904Y-150272961D01*
X41737246Y-150138913D01*
X41617037Y-149884580D01*
X41449519Y-149658586D01*
X41241131Y-149469615D01*
X41045018Y-149352000D01*
X41241131Y-149234385D01*
X41449519Y-149045414D01*
X41617037Y-148819420D01*
X41737246Y-148565087D01*
X41777904Y-148431039D01*
X41655915Y-148209000D01*
X40513000Y-148209000D01*
X40259000Y-148209000D01*
X39116085Y-148209000D01*
X38994096Y-148431039D01*
X34159690Y-148431039D01*
X34180236Y-148363309D01*
X34207943Y-148082000D01*
X34180236Y-147800691D01*
X34159691Y-147732961D01*
X38994096Y-147732961D01*
X39116085Y-147955000D01*
X40259000Y-147955000D01*
X40259000Y-146811376D01*
X40513000Y-146811376D01*
X40513000Y-147955000D01*
X41655915Y-147955000D01*
X41777904Y-147732961D01*
X41737246Y-147598913D01*
X41617037Y-147344580D01*
X41449519Y-147118586D01*
X41241131Y-146929615D01*
X40999881Y-146784930D01*
X40735040Y-146690091D01*
X40513000Y-146811376D01*
X40259000Y-146811376D01*
X40036960Y-146690091D01*
X39772119Y-146784930D01*
X39530869Y-146929615D01*
X39322481Y-147118586D01*
X39154963Y-147344580D01*
X39034754Y-147598913D01*
X38994096Y-147732961D01*
X34159691Y-147732961D01*
X34098182Y-147530192D01*
X33964932Y-147280899D01*
X33785608Y-147062392D01*
X33567101Y-146883068D01*
X33317808Y-146749818D01*
X33047309Y-146667764D01*
X32836492Y-146647000D01*
X32695508Y-146647000D01*
X32484691Y-146667764D01*
X32440094Y-146681292D01*
X26160811Y-140402010D01*
X37981209Y-140402010D01*
X43557292Y-145978094D01*
X43543764Y-146022691D01*
X43516057Y-146304000D01*
X43543764Y-146585309D01*
X43625818Y-146855808D01*
X43759068Y-147105101D01*
X43938392Y-147323608D01*
X44156899Y-147502932D01*
X44406192Y-147636182D01*
X44676691Y-147718236D01*
X44887508Y-147739000D01*
X45028492Y-147739000D01*
X45239309Y-147718236D01*
X45509808Y-147636182D01*
X45759101Y-147502932D01*
X45977608Y-147323608D01*
X46156932Y-147105101D01*
X46290182Y-146855808D01*
X46372236Y-146585309D01*
X46383809Y-146467810D01*
X52827000Y-152911002D01*
X52850799Y-152940001D01*
X52966524Y-153034974D01*
X53098553Y-153105546D01*
X53241814Y-153149003D01*
X53353467Y-153160000D01*
X53353476Y-153160000D01*
X53390799Y-153163676D01*
X53428122Y-153160000D01*
X54659099Y-153160000D01*
X54681068Y-153201101D01*
X54860392Y-153419608D01*
X54973482Y-153512419D01*
X54955518Y-153514188D01*
X54835820Y-153550498D01*
X54725506Y-153609463D01*
X54628815Y-153688815D01*
X54549463Y-153785506D01*
X54490498Y-153895820D01*
X54454188Y-154015518D01*
X54441928Y-154140000D01*
X54445000Y-154654250D01*
X54603750Y-154813000D01*
X55753000Y-154813000D01*
X55753000Y-154793000D01*
X56007000Y-154793000D01*
X56007000Y-154813000D01*
X57156250Y-154813000D01*
X57315000Y-154654250D01*
X57318072Y-154140000D01*
X57305812Y-154015518D01*
X57269502Y-153895820D01*
X57210537Y-153785506D01*
X57131185Y-153688815D01*
X57034494Y-153609463D01*
X56924180Y-153550498D01*
X56804482Y-153514188D01*
X56786518Y-153512419D01*
X56899608Y-153419608D01*
X57078932Y-153201101D01*
X57100901Y-153160000D01*
X61009099Y-153160000D01*
X61031068Y-153201101D01*
X61210392Y-153419608D01*
X61428899Y-153598932D01*
X61566682Y-153672579D01*
X61374869Y-153787615D01*
X61166481Y-153976586D01*
X60998963Y-154202580D01*
X60878754Y-154456913D01*
X60838096Y-154590961D01*
X60960085Y-154813000D01*
X62103000Y-154813000D01*
X62103000Y-154793000D01*
X62357000Y-154793000D01*
X62357000Y-154813000D01*
X63499915Y-154813000D01*
X63621904Y-154590961D01*
X63581246Y-154456913D01*
X63461037Y-154202580D01*
X63293519Y-153976586D01*
X63085131Y-153787615D01*
X62893318Y-153672579D01*
X63031101Y-153598932D01*
X63249608Y-153419608D01*
X63428932Y-153201101D01*
X63562182Y-152951808D01*
X63644236Y-152681309D01*
X63671943Y-152400000D01*
X63644236Y-152118691D01*
X63562182Y-151848192D01*
X63428932Y-151598899D01*
X63249608Y-151380392D01*
X63031101Y-151201068D01*
X62898142Y-151130000D01*
X63031101Y-151058932D01*
X63249608Y-150879608D01*
X63428932Y-150661101D01*
X63562182Y-150411808D01*
X63644236Y-150141309D01*
X63671943Y-149860000D01*
X63644236Y-149578691D01*
X63562182Y-149308192D01*
X63428932Y-149058899D01*
X63249608Y-148840392D01*
X63031101Y-148661068D01*
X62898142Y-148590000D01*
X63031101Y-148518932D01*
X63249608Y-148339608D01*
X63428932Y-148121101D01*
X63562182Y-147871808D01*
X63644236Y-147601309D01*
X63671943Y-147320000D01*
X63644236Y-147038691D01*
X63562182Y-146768192D01*
X63428932Y-146518899D01*
X63249608Y-146300392D01*
X63031101Y-146121068D01*
X62898142Y-146050000D01*
X63031101Y-145978932D01*
X63249608Y-145799608D01*
X63428932Y-145581101D01*
X63562182Y-145331808D01*
X63644236Y-145061309D01*
X63671943Y-144780000D01*
X63644236Y-144498691D01*
X63562182Y-144228192D01*
X63428932Y-143978899D01*
X63249608Y-143760392D01*
X63031101Y-143581068D01*
X62898142Y-143510000D01*
X63031101Y-143438932D01*
X63249608Y-143259608D01*
X63428932Y-143041101D01*
X63562182Y-142791808D01*
X63644236Y-142521309D01*
X63671943Y-142240000D01*
X63644236Y-141958691D01*
X63562182Y-141688192D01*
X63428932Y-141438899D01*
X63249608Y-141220392D01*
X63031101Y-141041068D01*
X62898142Y-140970000D01*
X63031101Y-140898932D01*
X63249608Y-140719608D01*
X63428932Y-140501101D01*
X63562182Y-140251808D01*
X63644236Y-139981309D01*
X63671943Y-139700000D01*
X63644236Y-139418691D01*
X63562182Y-139148192D01*
X63428932Y-138898899D01*
X63249608Y-138680392D01*
X63031101Y-138501068D01*
X62898142Y-138430000D01*
X63031101Y-138358932D01*
X63249608Y-138179608D01*
X63428932Y-137961101D01*
X63562182Y-137711808D01*
X63644236Y-137441309D01*
X63671943Y-137160000D01*
X68408057Y-137160000D01*
X68435764Y-137441309D01*
X68517818Y-137711808D01*
X68651068Y-137961101D01*
X68830392Y-138179608D01*
X69048899Y-138358932D01*
X69181858Y-138430000D01*
X69048899Y-138501068D01*
X68830392Y-138680392D01*
X68651068Y-138898899D01*
X68517818Y-139148192D01*
X68435764Y-139418691D01*
X68408057Y-139700000D01*
X68435764Y-139981309D01*
X68517818Y-140251808D01*
X68651068Y-140501101D01*
X68830392Y-140719608D01*
X69048899Y-140898932D01*
X69181858Y-140970000D01*
X69048899Y-141041068D01*
X68830392Y-141220392D01*
X68651068Y-141438899D01*
X68517818Y-141688192D01*
X68435764Y-141958691D01*
X68408057Y-142240000D01*
X68435764Y-142521309D01*
X68517818Y-142791808D01*
X68651068Y-143041101D01*
X68830392Y-143259608D01*
X69048899Y-143438932D01*
X69181858Y-143510000D01*
X69048899Y-143581068D01*
X68830392Y-143760392D01*
X68651068Y-143978899D01*
X68517818Y-144228192D01*
X68435764Y-144498691D01*
X68408057Y-144780000D01*
X68435764Y-145061309D01*
X68517818Y-145331808D01*
X68651068Y-145581101D01*
X68830392Y-145799608D01*
X69048899Y-145978932D01*
X69181858Y-146050000D01*
X69048899Y-146121068D01*
X68830392Y-146300392D01*
X68651068Y-146518899D01*
X68517818Y-146768192D01*
X68435764Y-147038691D01*
X68408057Y-147320000D01*
X68435764Y-147601309D01*
X68517818Y-147871808D01*
X68651068Y-148121101D01*
X68830392Y-148339608D01*
X69048899Y-148518932D01*
X69181858Y-148590000D01*
X69048899Y-148661068D01*
X68830392Y-148840392D01*
X68651068Y-149058899D01*
X68517818Y-149308192D01*
X68435764Y-149578691D01*
X68408057Y-149860000D01*
X68435764Y-150141309D01*
X68517818Y-150411808D01*
X68651068Y-150661101D01*
X68830392Y-150879608D01*
X69048899Y-151058932D01*
X69181858Y-151130000D01*
X69048899Y-151201068D01*
X68830392Y-151380392D01*
X68651068Y-151598899D01*
X68517818Y-151848192D01*
X68435764Y-152118691D01*
X68408057Y-152400000D01*
X68435764Y-152681309D01*
X68517818Y-152951808D01*
X68651068Y-153201101D01*
X68830392Y-153419608D01*
X69048899Y-153598932D01*
X69181858Y-153670000D01*
X69048899Y-153741068D01*
X68830392Y-153920392D01*
X68651068Y-154138899D01*
X68517818Y-154388192D01*
X68435764Y-154658691D01*
X68408057Y-154940000D01*
X68435764Y-155221309D01*
X68517818Y-155491808D01*
X68651068Y-155741101D01*
X68830392Y-155959608D01*
X69048899Y-156138932D01*
X69298192Y-156272182D01*
X69568691Y-156354236D01*
X69779508Y-156375000D01*
X69920492Y-156375000D01*
X70131309Y-156354236D01*
X70401808Y-156272182D01*
X70651101Y-156138932D01*
X70869608Y-155959608D01*
X71048932Y-155741101D01*
X71070901Y-155700000D01*
X73709099Y-155700000D01*
X73731068Y-155741101D01*
X73910392Y-155959608D01*
X74128899Y-156138932D01*
X74378192Y-156272182D01*
X74648691Y-156354236D01*
X74859508Y-156375000D01*
X75000492Y-156375000D01*
X75211309Y-156354236D01*
X75481808Y-156272182D01*
X75731101Y-156138932D01*
X75949608Y-155959608D01*
X76128932Y-155741101D01*
X76262182Y-155491808D01*
X76344236Y-155221309D01*
X76371943Y-154940000D01*
X76344236Y-154658691D01*
X76262182Y-154388192D01*
X76128932Y-154138899D01*
X75949608Y-153920392D01*
X75731101Y-153741068D01*
X75598142Y-153670000D01*
X75731101Y-153598932D01*
X75949608Y-153419608D01*
X76128932Y-153201101D01*
X76262182Y-152951808D01*
X76344236Y-152681309D01*
X76371943Y-152400000D01*
X76344236Y-152118691D01*
X76262182Y-151848192D01*
X76128932Y-151598899D01*
X75949608Y-151380392D01*
X75731101Y-151201068D01*
X75598142Y-151130000D01*
X75731101Y-151058932D01*
X75949608Y-150879608D01*
X76128932Y-150661101D01*
X76262182Y-150411808D01*
X76344236Y-150141309D01*
X76371943Y-149860000D01*
X76344236Y-149578691D01*
X76262182Y-149308192D01*
X76128932Y-149058899D01*
X75949608Y-148840392D01*
X75731101Y-148661068D01*
X75598142Y-148590000D01*
X75731101Y-148518932D01*
X75949608Y-148339608D01*
X76128932Y-148121101D01*
X76262182Y-147871808D01*
X76344236Y-147601309D01*
X76371943Y-147320000D01*
X76344236Y-147038691D01*
X76262182Y-146768192D01*
X76128932Y-146518899D01*
X75949608Y-146300392D01*
X75731101Y-146121068D01*
X75598142Y-146050000D01*
X75731101Y-145978932D01*
X75949608Y-145799608D01*
X76128932Y-145581101D01*
X76262182Y-145331808D01*
X76344236Y-145061309D01*
X76371943Y-144780000D01*
X76344236Y-144498691D01*
X76262182Y-144228192D01*
X76128932Y-143978899D01*
X75949608Y-143760392D01*
X75731101Y-143581068D01*
X75598142Y-143510000D01*
X75731101Y-143438932D01*
X75949608Y-143259608D01*
X76128932Y-143041101D01*
X76262182Y-142791808D01*
X76344236Y-142521309D01*
X76371943Y-142240000D01*
X76344236Y-141958691D01*
X76262182Y-141688192D01*
X76128932Y-141438899D01*
X75949608Y-141220392D01*
X75731101Y-141041068D01*
X75598142Y-140970000D01*
X75731101Y-140898932D01*
X75949608Y-140719608D01*
X76128932Y-140501101D01*
X76262182Y-140251808D01*
X76344236Y-139981309D01*
X76371943Y-139700000D01*
X76344236Y-139418691D01*
X76262182Y-139148192D01*
X76128932Y-138898899D01*
X75949608Y-138680392D01*
X75836518Y-138587581D01*
X75854482Y-138585812D01*
X75974180Y-138549502D01*
X76084494Y-138490537D01*
X76181185Y-138411185D01*
X76260537Y-138314494D01*
X76319502Y-138204180D01*
X76355812Y-138084482D01*
X76368072Y-137960000D01*
X76368072Y-136360000D01*
X76355812Y-136235518D01*
X76319502Y-136115820D01*
X76260537Y-136005506D01*
X76181185Y-135908815D01*
X76084494Y-135829463D01*
X75974180Y-135770498D01*
X75854482Y-135734188D01*
X75730000Y-135721928D01*
X74130000Y-135721928D01*
X74005518Y-135734188D01*
X73885820Y-135770498D01*
X73775506Y-135829463D01*
X73678815Y-135908815D01*
X73599463Y-136005506D01*
X73540498Y-136115820D01*
X73504188Y-136235518D01*
X73491928Y-136360000D01*
X73491928Y-136400000D01*
X71070901Y-136400000D01*
X71048932Y-136358899D01*
X70869608Y-136140392D01*
X70651101Y-135961068D01*
X70513318Y-135887421D01*
X70705131Y-135772385D01*
X70913519Y-135583414D01*
X71081037Y-135357420D01*
X71201246Y-135103087D01*
X71241904Y-134969039D01*
X71119915Y-134747000D01*
X69977000Y-134747000D01*
X69977000Y-134767000D01*
X69723000Y-134767000D01*
X69723000Y-134747000D01*
X68580085Y-134747000D01*
X68458096Y-134969039D01*
X68498754Y-135103087D01*
X68618963Y-135357420D01*
X68786481Y-135583414D01*
X68994869Y-135772385D01*
X69186682Y-135887421D01*
X69048899Y-135961068D01*
X68830392Y-136140392D01*
X68651068Y-136358899D01*
X68517818Y-136608192D01*
X68435764Y-136878691D01*
X68408057Y-137160000D01*
X63671943Y-137160000D01*
X63644236Y-136878691D01*
X63562182Y-136608192D01*
X63428932Y-136358899D01*
X63249608Y-136140392D01*
X63031101Y-135961068D01*
X62898142Y-135890000D01*
X63031101Y-135818932D01*
X63249608Y-135639608D01*
X63428932Y-135421101D01*
X63562182Y-135171808D01*
X63644236Y-134901309D01*
X63671943Y-134620000D01*
X63644236Y-134338691D01*
X63562182Y-134068192D01*
X63428932Y-133818899D01*
X63249608Y-133600392D01*
X63136518Y-133507581D01*
X63154482Y-133505812D01*
X63274180Y-133469502D01*
X63384494Y-133410537D01*
X63481185Y-133331185D01*
X63560537Y-133234494D01*
X63619502Y-133124180D01*
X63655812Y-133004482D01*
X63668072Y-132880000D01*
X63665000Y-132365750D01*
X63506250Y-132207000D01*
X62357000Y-132207000D01*
X62357000Y-132227000D01*
X62103000Y-132227000D01*
X62103000Y-132207000D01*
X60953750Y-132207000D01*
X60795000Y-132365750D01*
X60791928Y-132880000D01*
X60804188Y-133004482D01*
X60840498Y-133124180D01*
X60899463Y-133234494D01*
X60978815Y-133331185D01*
X61075506Y-133410537D01*
X61185820Y-133469502D01*
X61305518Y-133505812D01*
X61323482Y-133507581D01*
X61210392Y-133600392D01*
X61031068Y-133818899D01*
X61009099Y-133860000D01*
X57100901Y-133860000D01*
X57078932Y-133818899D01*
X56899608Y-133600392D01*
X56681101Y-133421068D01*
X56431808Y-133287818D01*
X56161309Y-133205764D01*
X55950492Y-133185000D01*
X55809508Y-133185000D01*
X55598691Y-133205764D01*
X55328192Y-133287818D01*
X55078899Y-133421068D01*
X54860392Y-133600392D01*
X54681068Y-133818899D01*
X54659099Y-133860000D01*
X49184402Y-133860000D01*
X46604402Y-131280000D01*
X60791928Y-131280000D01*
X60795000Y-131794250D01*
X60953750Y-131953000D01*
X62103000Y-131953000D01*
X62103000Y-130803750D01*
X62357000Y-130803750D01*
X62357000Y-131953000D01*
X63506250Y-131953000D01*
X63665000Y-131794250D01*
X63668072Y-131280000D01*
X63655812Y-131155518D01*
X63619502Y-131035820D01*
X63560537Y-130925506D01*
X63481185Y-130828815D01*
X63384494Y-130749463D01*
X63274180Y-130690498D01*
X63154482Y-130654188D01*
X63030000Y-130641928D01*
X62515750Y-130645000D01*
X62357000Y-130803750D01*
X62103000Y-130803750D01*
X61944250Y-130645000D01*
X61430000Y-130641928D01*
X61305518Y-130654188D01*
X61185820Y-130690498D01*
X61075506Y-130749463D01*
X60978815Y-130828815D01*
X60899463Y-130925506D01*
X60840498Y-131035820D01*
X60804188Y-131155518D01*
X60791928Y-131280000D01*
X46604402Y-131280000D01*
X43185004Y-127860603D01*
X43161201Y-127831599D01*
X43073957Y-127760000D01*
X48857678Y-127760000D01*
X48895000Y-127763676D01*
X48932322Y-127760000D01*
X48932333Y-127760000D01*
X49043986Y-127749003D01*
X49187247Y-127705546D01*
X49319276Y-127634974D01*
X49435001Y-127540001D01*
X49458804Y-127510997D01*
X49787848Y-127181953D01*
X49847447Y-127481579D01*
X49971903Y-127782042D01*
X50152585Y-128052451D01*
X50370134Y-128270000D01*
X50152585Y-128487549D01*
X49971903Y-128757958D01*
X49847447Y-129058421D01*
X49784000Y-129377391D01*
X49784000Y-129702609D01*
X49847447Y-130021579D01*
X49971903Y-130322042D01*
X50152585Y-130592451D01*
X50382549Y-130822415D01*
X50652958Y-131003097D01*
X50953421Y-131127553D01*
X51272391Y-131191000D01*
X51597609Y-131191000D01*
X51916579Y-131127553D01*
X52217042Y-131003097D01*
X52487451Y-130822415D01*
X52717415Y-130592451D01*
X52898097Y-130322042D01*
X53022553Y-130021579D01*
X53086000Y-129702609D01*
X53086000Y-129377391D01*
X53022553Y-129058421D01*
X52898097Y-128757958D01*
X52717415Y-128487549D01*
X52499866Y-128270000D01*
X52717415Y-128052451D01*
X52898097Y-127782042D01*
X53022553Y-127481579D01*
X53086000Y-127162609D01*
X53086000Y-126837391D01*
X53022553Y-126518421D01*
X52898097Y-126217958D01*
X52717415Y-125947549D01*
X52499866Y-125730000D01*
X52717415Y-125512451D01*
X52898097Y-125242042D01*
X53022553Y-124941579D01*
X53086000Y-124622609D01*
X53086000Y-124297391D01*
X53022553Y-123978421D01*
X52898097Y-123677958D01*
X52717415Y-123407549D01*
X52499866Y-123190000D01*
X52717415Y-122972451D01*
X52898097Y-122702042D01*
X53022553Y-122401579D01*
X53086000Y-122082609D01*
X53086000Y-121757391D01*
X53022553Y-121438421D01*
X52898097Y-121137958D01*
X52717415Y-120867549D01*
X52499866Y-120650000D01*
X52717415Y-120432451D01*
X52898097Y-120162042D01*
X53022553Y-119861579D01*
X53086000Y-119542609D01*
X53086000Y-119217391D01*
X53022553Y-118898421D01*
X52898097Y-118597958D01*
X52717415Y-118327549D01*
X52499866Y-118110000D01*
X52717415Y-117892451D01*
X52898097Y-117622042D01*
X53022553Y-117321579D01*
X53086000Y-117002609D01*
X53086000Y-116677391D01*
X53022553Y-116358421D01*
X52898097Y-116057958D01*
X52717415Y-115787549D01*
X52499866Y-115570000D01*
X52717415Y-115352451D01*
X52898097Y-115082042D01*
X53022553Y-114781579D01*
X53086000Y-114462609D01*
X53086000Y-114137391D01*
X53022553Y-113818421D01*
X52898097Y-113517958D01*
X52717415Y-113247549D01*
X52499866Y-113030000D01*
X52717415Y-112812451D01*
X52898097Y-112542042D01*
X53022553Y-112241579D01*
X53086000Y-111922609D01*
X53086000Y-111597391D01*
X53022553Y-111278421D01*
X52898097Y-110977958D01*
X52717415Y-110707549D01*
X52499866Y-110490000D01*
X52717415Y-110272451D01*
X52898097Y-110002042D01*
X53022553Y-109701579D01*
X53086000Y-109382609D01*
X53086000Y-109057391D01*
X53022553Y-108738421D01*
X52898097Y-108437958D01*
X52769636Y-108245704D01*
X52805494Y-108226537D01*
X52902185Y-108147185D01*
X52981537Y-108050494D01*
X53040502Y-107940180D01*
X53076812Y-107820482D01*
X53089072Y-107696000D01*
X53089072Y-106517391D01*
X57404000Y-106517391D01*
X57404000Y-106842609D01*
X57467447Y-107161579D01*
X57591903Y-107462042D01*
X57772585Y-107732451D01*
X57990134Y-107950000D01*
X57772585Y-108167549D01*
X57591903Y-108437958D01*
X57467447Y-108738421D01*
X57404000Y-109057391D01*
X57404000Y-109382609D01*
X57467447Y-109701579D01*
X57591903Y-110002042D01*
X57772585Y-110272451D01*
X57990134Y-110490000D01*
X57772585Y-110707549D01*
X57591903Y-110977958D01*
X57467447Y-111278421D01*
X57404000Y-111597391D01*
X57404000Y-111922609D01*
X57467447Y-112241579D01*
X57591903Y-112542042D01*
X57772585Y-112812451D01*
X57990134Y-113030000D01*
X57772585Y-113247549D01*
X57591903Y-113517958D01*
X57467447Y-113818421D01*
X57404000Y-114137391D01*
X57404000Y-114462609D01*
X57467447Y-114781579D01*
X57591903Y-115082042D01*
X57772585Y-115352451D01*
X57990134Y-115570000D01*
X57772585Y-115787549D01*
X57591903Y-116057958D01*
X57467447Y-116358421D01*
X57404000Y-116677391D01*
X57404000Y-117002609D01*
X57467447Y-117321579D01*
X57591903Y-117622042D01*
X57772585Y-117892451D01*
X57990134Y-118110000D01*
X57772585Y-118327549D01*
X57591903Y-118597958D01*
X57467447Y-118898421D01*
X57404000Y-119217391D01*
X57404000Y-119542609D01*
X57467447Y-119861579D01*
X57591903Y-120162042D01*
X57772585Y-120432451D01*
X57990134Y-120650000D01*
X57772585Y-120867549D01*
X57591903Y-121137958D01*
X57467447Y-121438421D01*
X57404000Y-121757391D01*
X57404000Y-122082609D01*
X57467447Y-122401579D01*
X57591903Y-122702042D01*
X57772585Y-122972451D01*
X57990134Y-123190000D01*
X57772585Y-123407549D01*
X57591903Y-123677958D01*
X57467447Y-123978421D01*
X57404000Y-124297391D01*
X57404000Y-124622609D01*
X57467447Y-124941579D01*
X57591903Y-125242042D01*
X57772585Y-125512451D01*
X57990134Y-125730000D01*
X57772585Y-125947549D01*
X57591903Y-126217958D01*
X57467447Y-126518421D01*
X57404000Y-126837391D01*
X57404000Y-127162609D01*
X57467447Y-127481579D01*
X57591903Y-127782042D01*
X57772585Y-128052451D01*
X57990134Y-128270000D01*
X57772585Y-128487549D01*
X57591903Y-128757958D01*
X57467447Y-129058421D01*
X57404000Y-129377391D01*
X57404000Y-129702609D01*
X57467447Y-130021579D01*
X57591903Y-130322042D01*
X57772585Y-130592451D01*
X58002549Y-130822415D01*
X58272958Y-131003097D01*
X58573421Y-131127553D01*
X58892391Y-131191000D01*
X59217609Y-131191000D01*
X59536579Y-131127553D01*
X59837042Y-131003097D01*
X60107451Y-130822415D01*
X60337415Y-130592451D01*
X60518097Y-130322042D01*
X60642553Y-130021579D01*
X60706000Y-129702609D01*
X60706000Y-129377391D01*
X60642553Y-129058421D01*
X60518097Y-128757958D01*
X60337415Y-128487549D01*
X60119866Y-128270000D01*
X60337415Y-128052451D01*
X60518097Y-127782042D01*
X60642553Y-127481579D01*
X60706000Y-127162609D01*
X60706000Y-126837391D01*
X60642553Y-126518421D01*
X60518097Y-126217958D01*
X60337415Y-125947549D01*
X60119866Y-125730000D01*
X60337415Y-125512451D01*
X60518097Y-125242042D01*
X60527227Y-125220000D01*
X67359099Y-125220000D01*
X67381068Y-125261101D01*
X67560392Y-125479608D01*
X67778899Y-125658932D01*
X68028192Y-125792182D01*
X68298691Y-125874236D01*
X68509508Y-125895000D01*
X68650492Y-125895000D01*
X68861309Y-125874236D01*
X69131808Y-125792182D01*
X69381101Y-125658932D01*
X69599608Y-125479608D01*
X69778932Y-125261101D01*
X69912182Y-125011808D01*
X69994236Y-124741309D01*
X70021943Y-124460000D01*
X69994236Y-124178691D01*
X69912182Y-123908192D01*
X69778932Y-123658899D01*
X69599608Y-123440392D01*
X69381101Y-123261068D01*
X69248142Y-123190000D01*
X69381101Y-123118932D01*
X69599608Y-122939608D01*
X69778932Y-122721101D01*
X69912182Y-122471808D01*
X69994236Y-122201309D01*
X70021943Y-121920000D01*
X69994236Y-121638691D01*
X69912182Y-121368192D01*
X69778932Y-121118899D01*
X69599608Y-120900392D01*
X69381101Y-120721068D01*
X69248142Y-120650000D01*
X69381101Y-120578932D01*
X69599608Y-120399608D01*
X69778932Y-120181101D01*
X69912182Y-119931808D01*
X69994236Y-119661309D01*
X70021943Y-119380000D01*
X69994236Y-119098691D01*
X69912182Y-118828192D01*
X69778932Y-118578899D01*
X69599608Y-118360392D01*
X69381101Y-118181068D01*
X69248142Y-118110000D01*
X69381101Y-118038932D01*
X69599608Y-117859608D01*
X69778932Y-117641101D01*
X69912182Y-117391808D01*
X69994236Y-117121309D01*
X70021943Y-116840000D01*
X69994236Y-116558691D01*
X69912182Y-116288192D01*
X69778932Y-116038899D01*
X69599608Y-115820392D01*
X69381101Y-115641068D01*
X69248142Y-115570000D01*
X69381101Y-115498932D01*
X69599608Y-115319608D01*
X69778932Y-115101101D01*
X69912182Y-114851808D01*
X69994236Y-114581309D01*
X70021943Y-114300000D01*
X69994236Y-114018691D01*
X69912182Y-113748192D01*
X69778932Y-113498899D01*
X69599608Y-113280392D01*
X69381101Y-113101068D01*
X69248142Y-113030000D01*
X69381101Y-112958932D01*
X69599608Y-112779608D01*
X69778932Y-112561101D01*
X69912182Y-112311808D01*
X69981740Y-112082500D01*
X74316667Y-112082500D01*
X74316667Y-116652500D01*
X98403334Y-116652500D01*
X98403334Y-112082500D01*
X74316667Y-112082500D01*
X69981740Y-112082500D01*
X69994236Y-112041309D01*
X70021943Y-111760000D01*
X69994236Y-111478691D01*
X69912182Y-111208192D01*
X69778932Y-110958899D01*
X69599608Y-110740392D01*
X69381101Y-110561068D01*
X69248142Y-110490000D01*
X69381101Y-110418932D01*
X69599608Y-110239608D01*
X69778932Y-110021101D01*
X69912182Y-109771808D01*
X69994236Y-109501309D01*
X70021943Y-109220000D01*
X69994236Y-108938691D01*
X69912182Y-108668192D01*
X69778932Y-108418899D01*
X69599608Y-108200392D01*
X69381101Y-108021068D01*
X69248142Y-107950000D01*
X69381101Y-107878932D01*
X69599608Y-107699608D01*
X69778932Y-107481101D01*
X69806246Y-107430000D01*
X73110715Y-107430000D01*
X73110715Y-111250000D01*
X99609286Y-111250000D01*
X99609286Y-107430000D01*
X73110715Y-107430000D01*
X69806246Y-107430000D01*
X69912182Y-107231808D01*
X69994236Y-106961309D01*
X70021943Y-106680000D01*
X69994236Y-106398691D01*
X69912182Y-106128192D01*
X69778932Y-105878899D01*
X69599608Y-105660392D01*
X69486518Y-105567581D01*
X69504482Y-105565812D01*
X69624180Y-105529502D01*
X69734494Y-105470537D01*
X69831185Y-105391185D01*
X69910537Y-105294494D01*
X69969502Y-105184180D01*
X70005812Y-105064482D01*
X70018072Y-104940000D01*
X70015000Y-104425750D01*
X69856250Y-104267000D01*
X68707000Y-104267000D01*
X68707000Y-104287000D01*
X68453000Y-104287000D01*
X68453000Y-104267000D01*
X67303750Y-104267000D01*
X67145000Y-104425750D01*
X67141928Y-104940000D01*
X67154188Y-105064482D01*
X67190498Y-105184180D01*
X67249463Y-105294494D01*
X67328815Y-105391185D01*
X67425506Y-105470537D01*
X67535820Y-105529502D01*
X67655518Y-105565812D01*
X67673482Y-105567581D01*
X67560392Y-105660392D01*
X67381068Y-105878899D01*
X67359099Y-105920000D01*
X60527227Y-105920000D01*
X60518097Y-105897958D01*
X60337415Y-105627549D01*
X60107451Y-105397585D01*
X59837042Y-105216903D01*
X59536579Y-105092447D01*
X59217609Y-105029000D01*
X58892391Y-105029000D01*
X58573421Y-105092447D01*
X58272958Y-105216903D01*
X58002549Y-105397585D01*
X57772585Y-105627549D01*
X57591903Y-105897958D01*
X57467447Y-106198421D01*
X57404000Y-106517391D01*
X53089072Y-106517391D01*
X53089072Y-105664000D01*
X53076812Y-105539518D01*
X53040502Y-105419820D01*
X52981537Y-105309506D01*
X52902185Y-105212815D01*
X52805494Y-105133463D01*
X52695180Y-105074498D01*
X52575482Y-105038188D01*
X52451000Y-105025928D01*
X50419000Y-105025928D01*
X50294518Y-105038188D01*
X50174820Y-105074498D01*
X50064506Y-105133463D01*
X49967815Y-105212815D01*
X49888463Y-105309506D01*
X49829498Y-105419820D01*
X49793188Y-105539518D01*
X49780928Y-105664000D01*
X49780928Y-105920000D01*
X35343322Y-105920000D01*
X35305999Y-105916324D01*
X35268676Y-105920000D01*
X35268667Y-105920000D01*
X35157014Y-105930997D01*
X35013753Y-105974454D01*
X34881723Y-106045026D01*
X34798083Y-106113668D01*
X34765999Y-106139999D01*
X34742201Y-106168997D01*
X23576162Y-117335037D01*
X23622000Y-117104592D01*
X23622000Y-116829408D01*
X23568314Y-116559510D01*
X23463005Y-116305273D01*
X23310120Y-116076465D01*
X23115535Y-115881880D01*
X22886727Y-115728995D01*
X22632490Y-115623686D01*
X22362592Y-115570000D01*
X22087408Y-115570000D01*
X21817510Y-115623686D01*
X21563273Y-115728995D01*
X21334465Y-115881880D01*
X21139880Y-116076465D01*
X20986995Y-116305273D01*
X20955000Y-116382515D01*
X20923005Y-116305273D01*
X20770120Y-116076465D01*
X20575535Y-115881880D01*
X20346727Y-115728995D01*
X20092490Y-115623686D01*
X19822592Y-115570000D01*
X19547408Y-115570000D01*
X19277510Y-115623686D01*
X19023273Y-115728995D01*
X18794465Y-115881880D01*
X18599880Y-116076465D01*
X18465000Y-116278327D01*
X18465000Y-103340000D01*
X67141928Y-103340000D01*
X67145000Y-103854250D01*
X67303750Y-104013000D01*
X68453000Y-104013000D01*
X68453000Y-102863750D01*
X68707000Y-102863750D01*
X68707000Y-104013000D01*
X69856250Y-104013000D01*
X70015000Y-103854250D01*
X70018072Y-103340000D01*
X70005812Y-103215518D01*
X69969502Y-103095820D01*
X69910537Y-102985506D01*
X69831185Y-102888815D01*
X69734494Y-102809463D01*
X69624180Y-102750498D01*
X69504482Y-102714188D01*
X69380000Y-102701928D01*
X68865750Y-102705000D01*
X68707000Y-102863750D01*
X68453000Y-102863750D01*
X68294250Y-102705000D01*
X67780000Y-102701928D01*
X67655518Y-102714188D01*
X67535820Y-102750498D01*
X67425506Y-102809463D01*
X67328815Y-102888815D01*
X67249463Y-102985506D01*
X67190498Y-103095820D01*
X67154188Y-103215518D01*
X67141928Y-103340000D01*
X18465000Y-103340000D01*
X18465000Y-102285000D01*
X99645000Y-102285000D01*
X99645000Y-130939509D01*
X99645000Y-130939509D01*
G37*
X99645000Y-130939509D02*
X99593374Y-130842924D01*
X99498401Y-130727199D01*
X99470500Y-130704301D01*
X99447601Y-130676399D01*
X99331876Y-130581426D01*
X99199847Y-130510854D01*
X99056586Y-130467397D01*
X98944933Y-130456400D01*
X98944922Y-130456400D01*
X98907600Y-130452724D01*
X98870278Y-130456400D01*
X94880933Y-130456400D01*
X94843600Y-130452723D01*
X94806267Y-130456400D01*
X94694614Y-130467397D01*
X94551353Y-130510854D01*
X94419324Y-130581426D01*
X94303599Y-130676399D01*
X94279801Y-130705397D01*
X93609395Y-131375803D01*
X93534511Y-131353087D01*
X93316350Y-131331600D01*
X93170450Y-131331600D01*
X92952289Y-131353087D01*
X92877405Y-131375803D01*
X91853010Y-130351409D01*
X94694700Y-130351409D01*
X94694700Y-130300609D01*
X97285500Y-130300609D01*
X97285500Y-125832990D01*
X94365500Y-125832990D01*
X94365500Y-125883790D01*
X92256300Y-125883790D01*
X92256300Y-124010647D01*
X89336300Y-124010647D01*
X89336300Y-129084800D01*
X85025722Y-129084800D01*
X84988399Y-129081124D01*
X84951076Y-129084800D01*
X84951067Y-129084800D01*
X84839414Y-129095797D01*
X84696153Y-129139254D01*
X84564123Y-129209826D01*
X84480483Y-129278468D01*
X84448399Y-129304799D01*
X84424601Y-129333797D01*
X82438399Y-131320000D01*
X71070901Y-131320000D01*
X71048932Y-131278899D01*
X70869608Y-131060392D01*
X70651101Y-130881068D01*
X70401808Y-130747818D01*
X70131309Y-130665764D01*
X69920492Y-130645000D01*
X69779508Y-130645000D01*
X69568691Y-130665764D01*
X69298192Y-130747818D01*
X69048899Y-130881068D01*
X68830392Y-131060392D01*
X68651068Y-131278899D01*
X68517818Y-131528192D01*
X68435764Y-131798691D01*
X68408057Y-132080000D01*
X68435764Y-132361309D01*
X68517818Y-132631808D01*
X68651068Y-132881101D01*
X68830392Y-133099608D01*
X69048899Y-133278932D01*
X69186682Y-133352579D01*
X68994869Y-133467615D01*
X68786481Y-133656586D01*
X68618963Y-133882580D01*
X68498754Y-134136913D01*
X68458096Y-134270961D01*
X68580085Y-134493000D01*
X69723000Y-134493000D01*
X69723000Y-134473000D01*
X69977000Y-134473000D01*
X69977000Y-134493000D01*
X71119915Y-134493000D01*
X71241904Y-134270961D01*
X71201246Y-134136913D01*
X71081037Y-133882580D01*
X70913519Y-133656586D01*
X70705131Y-133467615D01*
X70513318Y-133352579D01*
X70651101Y-133278932D01*
X70869608Y-133099608D01*
X71048932Y-132881101D01*
X71070901Y-132840000D01*
X82715878Y-132840000D01*
X82753200Y-132843676D01*
X82790522Y-132840000D01*
X82790533Y-132840000D01*
X82902186Y-132829003D01*
X83045447Y-132785546D01*
X83177476Y-132714974D01*
X83293201Y-132620001D01*
X83317004Y-132590997D01*
X85303202Y-130604800D01*
X89956799Y-130604800D01*
X90680527Y-131328528D01*
X89853400Y-131328528D01*
X89728918Y-131340788D01*
X89609220Y-131377098D01*
X89498906Y-131436063D01*
X89402215Y-131515415D01*
X89322863Y-131612106D01*
X89263898Y-131722420D01*
X89227588Y-131842118D01*
X89215328Y-131966600D01*
X89215328Y-132056600D01*
X86930722Y-132056600D01*
X86893399Y-132052924D01*
X86856076Y-132056600D01*
X86856067Y-132056600D01*
X86744414Y-132067597D01*
X86601153Y-132111054D01*
X86469124Y-132181626D01*
X86353399Y-132276599D01*
X86329601Y-132305597D01*
X82875906Y-135759292D01*
X82831309Y-135745764D01*
X82620492Y-135725000D01*
X82479508Y-135725000D01*
X82268691Y-135745764D01*
X81998192Y-135827818D01*
X81748899Y-135961068D01*
X81530392Y-136140392D01*
X81351068Y-136358899D01*
X81217818Y-136608192D01*
X81135764Y-136878691D01*
X81108057Y-137160000D01*
X81135764Y-137441309D01*
X81217818Y-137711808D01*
X81351068Y-137961101D01*
X81530392Y-138179608D01*
X81748899Y-138358932D01*
X81881858Y-138430000D01*
X81748899Y-138501068D01*
X81530392Y-138680392D01*
X81351068Y-138898899D01*
X81217818Y-139148192D01*
X81135764Y-139418691D01*
X81108057Y-139700000D01*
X81135764Y-139981309D01*
X81217818Y-140251808D01*
X81351068Y-140501101D01*
X81530392Y-140719608D01*
X81748899Y-140898932D01*
X81881858Y-140970000D01*
X81748899Y-141041068D01*
X81530392Y-141220392D01*
X81351068Y-141438899D01*
X81217818Y-141688192D01*
X81135764Y-141958691D01*
X81108057Y-142240000D01*
X81135764Y-142521309D01*
X81217818Y-142791808D01*
X81351068Y-143041101D01*
X81530392Y-143259608D01*
X81748899Y-143438932D01*
X81881858Y-143510000D01*
X81748899Y-143581068D01*
X81530392Y-143760392D01*
X81351068Y-143978899D01*
X81217818Y-144228192D01*
X81135764Y-144498691D01*
X81108057Y-144780000D01*
X81135764Y-145061309D01*
X81217818Y-145331808D01*
X81351068Y-145581101D01*
X81530392Y-145799608D01*
X81748899Y-145978932D01*
X81881858Y-146050000D01*
X81748899Y-146121068D01*
X81530392Y-146300392D01*
X81351068Y-146518899D01*
X81217818Y-146768192D01*
X81135764Y-147038691D01*
X81108057Y-147320000D01*
X81135764Y-147601309D01*
X81217818Y-147871808D01*
X81351068Y-148121101D01*
X81530392Y-148339608D01*
X81748899Y-148518932D01*
X81881858Y-148590000D01*
X81748899Y-148661068D01*
X81530392Y-148840392D01*
X81351068Y-149058899D01*
X81217818Y-149308192D01*
X81135764Y-149578691D01*
X81108057Y-149860000D01*
X81135764Y-150141309D01*
X81217818Y-150411808D01*
X81351068Y-150661101D01*
X81530392Y-150879608D01*
X81748899Y-151058932D01*
X81881858Y-151130000D01*
X81748899Y-151201068D01*
X81530392Y-151380392D01*
X81351068Y-151598899D01*
X81217818Y-151848192D01*
X81135764Y-152118691D01*
X81108057Y-152400000D01*
X81135764Y-152681309D01*
X81217818Y-152951808D01*
X81351068Y-153201101D01*
X81530392Y-153419608D01*
X81748899Y-153598932D01*
X81881858Y-153670000D01*
X81748899Y-153741068D01*
X81530392Y-153920392D01*
X81351068Y-154138899D01*
X81217818Y-154388192D01*
X81135764Y-154658691D01*
X81108057Y-154940000D01*
X81135764Y-155221309D01*
X81217818Y-155491808D01*
X81351068Y-155741101D01*
X81530392Y-155959608D01*
X81748899Y-156138932D01*
X81998192Y-156272182D01*
X82268691Y-156354236D01*
X82479508Y-156375000D01*
X82620492Y-156375000D01*
X82831309Y-156354236D01*
X82875906Y-156340708D01*
X86913801Y-160378603D01*
X86937599Y-160407601D01*
X87053324Y-160502574D01*
X87185353Y-160573146D01*
X87328614Y-160616603D01*
X87440267Y-160627600D01*
X87440275Y-160627600D01*
X87477600Y-160631276D01*
X87514925Y-160627600D01*
X89215328Y-160627600D01*
X89215328Y-160717600D01*
X89227588Y-160842082D01*
X89263898Y-160961780D01*
X89322863Y-161072094D01*
X89402215Y-161168785D01*
X89498906Y-161248137D01*
X89609220Y-161307102D01*
X89728918Y-161343412D01*
X89853400Y-161355672D01*
X91553400Y-161355672D01*
X91677882Y-161343412D01*
X91797580Y-161307102D01*
X91907894Y-161248137D01*
X92004585Y-161168785D01*
X92083937Y-161072094D01*
X92108400Y-161026328D01*
X92108400Y-161740867D01*
X87628860Y-166220409D01*
X87585552Y-166255951D01*
X87443717Y-166428777D01*
X87404710Y-166501754D01*
X87338324Y-166625954D01*
X87273423Y-166839902D01*
X87251509Y-167062400D01*
X87257001Y-167118161D01*
X87257001Y-167439778D01*
X87147820Y-167472898D01*
X87037506Y-167531863D01*
X86940815Y-167611215D01*
X86861463Y-167707906D01*
X86802498Y-167818220D01*
X86769379Y-167927400D01*
X83457170Y-167927400D01*
X83423963Y-167886937D01*
X83182234Y-167688555D01*
X82906448Y-167541145D01*
X82607203Y-167450370D01*
X82296000Y-167419719D01*
X81984796Y-167450370D01*
X81847822Y-167491921D01*
X78640104Y-164284203D01*
X78616301Y-164255199D01*
X78500576Y-164160226D01*
X78368547Y-164089654D01*
X78225286Y-164046197D01*
X78113633Y-164035200D01*
X78113622Y-164035200D01*
X78076300Y-164031524D01*
X78038978Y-164035200D01*
X61860922Y-164035200D01*
X61823599Y-164031524D01*
X61786276Y-164035200D01*
X61786267Y-164035200D01*
X61674614Y-164046197D01*
X61531353Y-164089654D01*
X61399324Y-164160226D01*
X61399322Y-164160227D01*
X61399323Y-164160227D01*
X61312596Y-164231401D01*
X61312592Y-164231405D01*
X61283599Y-164255199D01*
X61259805Y-164284192D01*
X53837999Y-171706000D01*
X47756166Y-171706000D01*
X47756920Y-171705641D01*
X47990269Y-171531588D01*
X48185178Y-171315355D01*
X48334157Y-171065252D01*
X48431481Y-170790891D01*
X48310814Y-170561000D01*
X47117000Y-170561000D01*
X47117000Y-170581000D01*
X46863000Y-170581000D01*
X46863000Y-170561000D01*
X46843000Y-170561000D01*
X46843000Y-170307000D01*
X46863000Y-170307000D01*
X46863000Y-169113845D01*
X47117000Y-169113845D01*
X47117000Y-170307000D01*
X48310814Y-170307000D01*
X48431481Y-170077109D01*
X48334157Y-169802748D01*
X48185178Y-169552645D01*
X47990269Y-169336412D01*
X47756920Y-169162359D01*
X47494099Y-169037175D01*
X47346890Y-168992524D01*
X47117000Y-169113845D01*
X46863000Y-169113845D01*
X46633110Y-168992524D01*
X46485901Y-169037175D01*
X46223080Y-169162359D01*
X45989731Y-169336412D01*
X45794822Y-169552645D01*
X45725201Y-169669523D01*
X45690706Y-169604986D01*
X45505134Y-169378866D01*
X45279014Y-169193294D01*
X45210000Y-169156405D01*
X45210000Y-161211952D01*
X45213676Y-161174629D01*
X45210000Y-161137306D01*
X45210000Y-161137297D01*
X45199003Y-161025644D01*
X45155546Y-160882383D01*
X45084974Y-160750353D01*
X45013799Y-160663627D01*
X44990001Y-160634629D01*
X44961004Y-160610832D01*
X42081174Y-157731003D01*
X42057371Y-157701999D01*
X41941646Y-157607026D01*
X41809617Y-157536454D01*
X41666356Y-157492997D01*
X41609802Y-157487427D01*
X41584932Y-157440899D01*
X41405608Y-157222392D01*
X41187101Y-157043068D01*
X41054142Y-156972000D01*
X41187101Y-156900932D01*
X41405608Y-156721608D01*
X41584932Y-156503101D01*
X41606901Y-156462000D01*
X44920667Y-156462000D01*
X44958000Y-156465677D01*
X45106986Y-156451003D01*
X45250247Y-156407546D01*
X45382276Y-156336974D01*
X45498001Y-156242001D01*
X45592974Y-156126276D01*
X45663546Y-155994247D01*
X45707003Y-155850986D01*
X45717934Y-155740000D01*
X54441928Y-155740000D01*
X54454188Y-155864482D01*
X54490498Y-155984180D01*
X54549463Y-156094494D01*
X54628815Y-156191185D01*
X54725506Y-156270537D01*
X54835820Y-156329502D01*
X54955518Y-156365812D01*
X55080000Y-156378072D01*
X55594250Y-156375000D01*
X55753000Y-156216250D01*
X55753000Y-155067000D01*
X56007000Y-155067000D01*
X56007000Y-156216250D01*
X56165750Y-156375000D01*
X56680000Y-156378072D01*
X56804482Y-156365812D01*
X56924180Y-156329502D01*
X57034494Y-156270537D01*
X57131185Y-156191185D01*
X57210537Y-156094494D01*
X57269502Y-155984180D01*
X57305812Y-155864482D01*
X57318072Y-155740000D01*
X57315379Y-155289039D01*
X60838096Y-155289039D01*
X60878754Y-155423087D01*
X60998963Y-155677420D01*
X61166481Y-155903414D01*
X61374869Y-156092385D01*
X61616119Y-156237070D01*
X61880960Y-156331909D01*
X62103000Y-156210624D01*
X62103000Y-155067000D01*
X62357000Y-155067000D01*
X62357000Y-156210624D01*
X62579040Y-156331909D01*
X62843881Y-156237070D01*
X63085131Y-156092385D01*
X63293519Y-155903414D01*
X63461037Y-155677420D01*
X63581246Y-155423087D01*
X63621904Y-155289039D01*
X63499915Y-155067000D01*
X62357000Y-155067000D01*
X62103000Y-155067000D01*
X60960085Y-155067000D01*
X60838096Y-155289039D01*
X57315379Y-155289039D01*
X57315000Y-155225750D01*
X57156250Y-155067000D01*
X56007000Y-155067000D01*
X55753000Y-155067000D01*
X54603750Y-155067000D01*
X54445000Y-155225750D01*
X54441928Y-155740000D01*
X45717934Y-155740000D01*
X45718000Y-155739333D01*
X45721677Y-155702000D01*
X45718000Y-155664667D01*
X45718000Y-152602043D01*
X45872759Y-152498637D01*
X46072637Y-152298759D01*
X46229680Y-152063727D01*
X46337853Y-151802574D01*
X46393000Y-151525335D01*
X46393000Y-151242665D01*
X46337853Y-150965426D01*
X46229680Y-150704273D01*
X46072637Y-150469241D01*
X45872759Y-150269363D01*
X45637727Y-150112320D01*
X45376574Y-150004147D01*
X45099335Y-149949000D01*
X44816665Y-149949000D01*
X44539426Y-150004147D01*
X44278273Y-150112320D01*
X44043241Y-150269363D01*
X43843363Y-150469241D01*
X43686320Y-150704273D01*
X43578147Y-150965426D01*
X43523000Y-151242665D01*
X43523000Y-151525335D01*
X43578147Y-151802574D01*
X43686320Y-152063727D01*
X43843363Y-152298759D01*
X44043241Y-152498637D01*
X44198000Y-152602044D01*
X44198001Y-154942000D01*
X41606901Y-154942000D01*
X41584932Y-154900899D01*
X41405608Y-154682392D01*
X41187101Y-154503068D01*
X41054142Y-154432000D01*
X41187101Y-154360932D01*
X41405608Y-154181608D01*
X41584932Y-153963101D01*
X41718182Y-153713808D01*
X41800236Y-153443309D01*
X41827943Y-153162000D01*
X41800236Y-152880691D01*
X41718182Y-152610192D01*
X41584932Y-152360899D01*
X41405608Y-152142392D01*
X41187101Y-151963068D01*
X41049318Y-151889421D01*
X41241131Y-151774385D01*
X41449519Y-151585414D01*
X41617037Y-151359420D01*
X41737246Y-151105087D01*
X41777904Y-150971039D01*
X41655915Y-150749000D01*
X40513000Y-150749000D01*
X40513000Y-150769000D01*
X40259000Y-150769000D01*
X40259000Y-150749000D01*
X39116085Y-150749000D01*
X38994096Y-150971039D01*
X39034754Y-151105087D01*
X39154963Y-151359420D01*
X39322481Y-151585414D01*
X39530869Y-151774385D01*
X39722682Y-151889421D01*
X39584899Y-151963068D01*
X39366392Y-152142392D01*
X39187068Y-152360899D01*
X39053818Y-152610192D01*
X38971764Y-152880691D01*
X38944057Y-153162000D01*
X38971764Y-153443309D01*
X39053818Y-153713808D01*
X39187068Y-153963101D01*
X39366392Y-154181608D01*
X39584899Y-154360932D01*
X39717858Y-154432000D01*
X39584899Y-154503068D01*
X39366392Y-154682392D01*
X39187068Y-154900899D01*
X39053818Y-155150192D01*
X38971764Y-155420691D01*
X38944057Y-155702000D01*
X38971764Y-155983309D01*
X39053818Y-156253808D01*
X39187068Y-156503101D01*
X39366392Y-156721608D01*
X39584899Y-156900932D01*
X39717858Y-156972000D01*
X39584899Y-157043068D01*
X39366392Y-157222392D01*
X39187068Y-157440899D01*
X39053818Y-157690192D01*
X38971764Y-157960691D01*
X38944057Y-158242000D01*
X38971764Y-158523309D01*
X39053818Y-158793808D01*
X39187068Y-159043101D01*
X39366392Y-159261608D01*
X39584899Y-159440932D01*
X39717858Y-159512000D01*
X39584899Y-159583068D01*
X39366392Y-159762392D01*
X39187068Y-159980899D01*
X39053818Y-160230192D01*
X38971764Y-160500691D01*
X38944057Y-160782000D01*
X38971764Y-161063309D01*
X39053818Y-161333808D01*
X39187068Y-161583101D01*
X39366392Y-161801608D01*
X39584899Y-161980932D01*
X39717858Y-162052000D01*
X39584899Y-162123068D01*
X39366392Y-162302392D01*
X39187068Y-162520899D01*
X39053818Y-162770192D01*
X38971764Y-163040691D01*
X38944057Y-163322000D01*
X38971764Y-163603309D01*
X39053818Y-163873808D01*
X39187068Y-164123101D01*
X39366392Y-164341608D01*
X39479482Y-164434419D01*
X39461518Y-164436188D01*
X39341820Y-164472498D01*
X39231506Y-164531463D01*
X39134815Y-164610815D01*
X39055463Y-164707506D01*
X38996498Y-164817820D01*
X38960188Y-164937518D01*
X38947928Y-165062000D01*
X38947928Y-166662000D01*
X38960188Y-166786482D01*
X38996498Y-166906180D01*
X39055463Y-167016494D01*
X39108310Y-167080888D01*
X37195995Y-168993203D01*
X37121111Y-168970487D01*
X36902950Y-168949000D01*
X36757050Y-168949000D01*
X36538889Y-168970487D01*
X36320000Y-169036886D01*
X36320000Y-163359333D01*
X36323677Y-163322000D01*
X36309003Y-163173014D01*
X36265546Y-163029753D01*
X36194974Y-162897724D01*
X36100001Y-162781999D01*
X35984276Y-162687026D01*
X35852247Y-162616454D01*
X35708986Y-162572997D01*
X35597333Y-162562000D01*
X35560000Y-162558323D01*
X35522667Y-162562000D01*
X33986901Y-162562000D01*
X33964932Y-162520899D01*
X33785608Y-162302392D01*
X33567101Y-162123068D01*
X33434142Y-162052000D01*
X33567101Y-161980932D01*
X33785608Y-161801608D01*
X33964932Y-161583101D01*
X34098182Y-161333808D01*
X34180236Y-161063309D01*
X34207943Y-160782000D01*
X34180236Y-160500691D01*
X34098182Y-160230192D01*
X33964932Y-159980899D01*
X33785608Y-159762392D01*
X33567101Y-159583068D01*
X33434142Y-159512000D01*
X33567101Y-159440932D01*
X33785608Y-159261608D01*
X33964932Y-159043101D01*
X34098182Y-158793808D01*
X34180236Y-158523309D01*
X34207943Y-158242000D01*
X34180236Y-157960691D01*
X34098182Y-157690192D01*
X33964932Y-157440899D01*
X33785608Y-157222392D01*
X33567101Y-157043068D01*
X33434142Y-156972000D01*
X33567101Y-156900932D01*
X33785608Y-156721608D01*
X33964932Y-156503101D01*
X34098182Y-156253808D01*
X34180236Y-155983309D01*
X34207943Y-155702000D01*
X34180236Y-155420691D01*
X34098182Y-155150192D01*
X33964932Y-154900899D01*
X33785608Y-154682392D01*
X33567101Y-154503068D01*
X33434142Y-154432000D01*
X33567101Y-154360932D01*
X33785608Y-154181608D01*
X33964932Y-153963101D01*
X34098182Y-153713808D01*
X34180236Y-153443309D01*
X34207943Y-153162000D01*
X34180236Y-152880691D01*
X34098182Y-152610192D01*
X33964932Y-152360899D01*
X33785608Y-152142392D01*
X33567101Y-151963068D01*
X33434142Y-151892000D01*
X33567101Y-151820932D01*
X33785608Y-151641608D01*
X33964932Y-151423101D01*
X34098182Y-151173808D01*
X34180236Y-150903309D01*
X34207943Y-150622000D01*
X34180236Y-150340691D01*
X34098182Y-150070192D01*
X33964932Y-149820899D01*
X33785608Y-149602392D01*
X33567101Y-149423068D01*
X33434142Y-149352000D01*
X33567101Y-149280932D01*
X33785608Y-149101608D01*
X33964932Y-148883101D01*
X34098182Y-148633808D01*
X34159690Y-148431039D01*
X38994096Y-148431039D01*
X39034754Y-148565087D01*
X39154963Y-148819420D01*
X39322481Y-149045414D01*
X39530869Y-149234385D01*
X39726982Y-149352000D01*
X39530869Y-149469615D01*
X39322481Y-149658586D01*
X39154963Y-149884580D01*
X39034754Y-150138913D01*
X38994096Y-150272961D01*
X39116085Y-150495000D01*
X40259000Y-150495000D01*
X40259000Y-148209000D01*
X40513000Y-148209000D01*
X40513000Y-150495000D01*
X41655915Y-150495000D01*
X41777904Y-150272961D01*
X41737246Y-150138913D01*
X41617037Y-149884580D01*
X41449519Y-149658586D01*
X41241131Y-149469615D01*
X41045018Y-149352000D01*
X41241131Y-149234385D01*
X41449519Y-149045414D01*
X41617037Y-148819420D01*
X41737246Y-148565087D01*
X41777904Y-148431039D01*
X41655915Y-148209000D01*
X40513000Y-148209000D01*
X40259000Y-148209000D01*
X39116085Y-148209000D01*
X38994096Y-148431039D01*
X34159690Y-148431039D01*
X34180236Y-148363309D01*
X34207943Y-148082000D01*
X34180236Y-147800691D01*
X34159691Y-147732961D01*
X38994096Y-147732961D01*
X39116085Y-147955000D01*
X40259000Y-147955000D01*
X40259000Y-146811376D01*
X40513000Y-146811376D01*
X40513000Y-147955000D01*
X41655915Y-147955000D01*
X41777904Y-147732961D01*
X41737246Y-147598913D01*
X41617037Y-147344580D01*
X41449519Y-147118586D01*
X41241131Y-146929615D01*
X40999881Y-146784930D01*
X40735040Y-146690091D01*
X40513000Y-146811376D01*
X40259000Y-146811376D01*
X40036960Y-146690091D01*
X39772119Y-146784930D01*
X39530869Y-146929615D01*
X39322481Y-147118586D01*
X39154963Y-147344580D01*
X39034754Y-147598913D01*
X38994096Y-147732961D01*
X34159691Y-147732961D01*
X34098182Y-147530192D01*
X33964932Y-147280899D01*
X33785608Y-147062392D01*
X33567101Y-146883068D01*
X33317808Y-146749818D01*
X33047309Y-146667764D01*
X32836492Y-146647000D01*
X32695508Y-146647000D01*
X32484691Y-146667764D01*
X32440094Y-146681292D01*
X26160811Y-140402010D01*
X37981209Y-140402010D01*
X43557292Y-145978094D01*
X43543764Y-146022691D01*
X43516057Y-146304000D01*
X43543764Y-146585309D01*
X43625818Y-146855808D01*
X43759068Y-147105101D01*
X43938392Y-147323608D01*
X44156899Y-147502932D01*
X44406192Y-147636182D01*
X44676691Y-147718236D01*
X44887508Y-147739000D01*
X45028492Y-147739000D01*
X45239309Y-147718236D01*
X45509808Y-147636182D01*
X45759101Y-147502932D01*
X45977608Y-147323608D01*
X46156932Y-147105101D01*
X46290182Y-146855808D01*
X46372236Y-146585309D01*
X46383809Y-146467810D01*
X52827000Y-152911002D01*
X52850799Y-152940001D01*
X52966524Y-153034974D01*
X53098553Y-153105546D01*
X53241814Y-153149003D01*
X53353467Y-153160000D01*
X53353476Y-153160000D01*
X53390799Y-153163676D01*
X53428122Y-153160000D01*
X54659099Y-153160000D01*
X54681068Y-153201101D01*
X54860392Y-153419608D01*
X54973482Y-153512419D01*
X54955518Y-153514188D01*
X54835820Y-153550498D01*
X54725506Y-153609463D01*
X54628815Y-153688815D01*
X54549463Y-153785506D01*
X54490498Y-153895820D01*
X54454188Y-154015518D01*
X54441928Y-154140000D01*
X54445000Y-154654250D01*
X54603750Y-154813000D01*
X55753000Y-154813000D01*
X55753000Y-154793000D01*
X56007000Y-154793000D01*
X56007000Y-154813000D01*
X57156250Y-154813000D01*
X57315000Y-154654250D01*
X57318072Y-154140000D01*
X57305812Y-154015518D01*
X57269502Y-153895820D01*
X57210537Y-153785506D01*
X57131185Y-153688815D01*
X57034494Y-153609463D01*
X56924180Y-153550498D01*
X56804482Y-153514188D01*
X56786518Y-153512419D01*
X56899608Y-153419608D01*
X57078932Y-153201101D01*
X57100901Y-153160000D01*
X61009099Y-153160000D01*
X61031068Y-153201101D01*
X61210392Y-153419608D01*
X61428899Y-153598932D01*
X61566682Y-153672579D01*
X61374869Y-153787615D01*
X61166481Y-153976586D01*
X60998963Y-154202580D01*
X60878754Y-154456913D01*
X60838096Y-154590961D01*
X60960085Y-154813000D01*
X62103000Y-154813000D01*
X62103000Y-154793000D01*
X62357000Y-154793000D01*
X62357000Y-154813000D01*
X63499915Y-154813000D01*
X63621904Y-154590961D01*
X63581246Y-154456913D01*
X63461037Y-154202580D01*
X63293519Y-153976586D01*
X63085131Y-153787615D01*
X62893318Y-153672579D01*
X63031101Y-153598932D01*
X63249608Y-153419608D01*
X63428932Y-153201101D01*
X63562182Y-152951808D01*
X63644236Y-152681309D01*
X63671943Y-152400000D01*
X63644236Y-152118691D01*
X63562182Y-151848192D01*
X63428932Y-151598899D01*
X63249608Y-151380392D01*
X63031101Y-151201068D01*
X62898142Y-151130000D01*
X63031101Y-151058932D01*
X63249608Y-150879608D01*
X63428932Y-150661101D01*
X63562182Y-150411808D01*
X63644236Y-150141309D01*
X63671943Y-149860000D01*
X63644236Y-149578691D01*
X63562182Y-149308192D01*
X63428932Y-149058899D01*
X63249608Y-148840392D01*
X63031101Y-148661068D01*
X62898142Y-148590000D01*
X63031101Y-148518932D01*
X63249608Y-148339608D01*
X63428932Y-148121101D01*
X63562182Y-147871808D01*
X63644236Y-147601309D01*
X63671943Y-147320000D01*
X63644236Y-147038691D01*
X63562182Y-146768192D01*
X63428932Y-146518899D01*
X63249608Y-146300392D01*
X63031101Y-146121068D01*
X62898142Y-146050000D01*
X63031101Y-145978932D01*
X63249608Y-145799608D01*
X63428932Y-145581101D01*
X63562182Y-145331808D01*
X63644236Y-145061309D01*
X63671943Y-144780000D01*
X63644236Y-144498691D01*
X63562182Y-144228192D01*
X63428932Y-143978899D01*
X63249608Y-143760392D01*
X63031101Y-143581068D01*
X62898142Y-143510000D01*
X63031101Y-143438932D01*
X63249608Y-143259608D01*
X63428932Y-143041101D01*
X63562182Y-142791808D01*
X63644236Y-142521309D01*
X63671943Y-142240000D01*
X63644236Y-141958691D01*
X63562182Y-141688192D01*
X63428932Y-141438899D01*
X63249608Y-141220392D01*
X63031101Y-141041068D01*
X62898142Y-140970000D01*
X63031101Y-140898932D01*
X63249608Y-140719608D01*
X63428932Y-140501101D01*
X63562182Y-140251808D01*
X63644236Y-139981309D01*
X63671943Y-139700000D01*
X63644236Y-139418691D01*
X63562182Y-139148192D01*
X63428932Y-138898899D01*
X63249608Y-138680392D01*
X63031101Y-138501068D01*
X62898142Y-138430000D01*
X63031101Y-138358932D01*
X63249608Y-138179608D01*
X63428932Y-137961101D01*
X63562182Y-137711808D01*
X63644236Y-137441309D01*
X63671943Y-137160000D01*
X68408057Y-137160000D01*
X68435764Y-137441309D01*
X68517818Y-137711808D01*
X68651068Y-137961101D01*
X68830392Y-138179608D01*
X69048899Y-138358932D01*
X69181858Y-138430000D01*
X69048899Y-138501068D01*
X68830392Y-138680392D01*
X68651068Y-138898899D01*
X68517818Y-139148192D01*
X68435764Y-139418691D01*
X68408057Y-139700000D01*
X68435764Y-139981309D01*
X68517818Y-140251808D01*
X68651068Y-140501101D01*
X68830392Y-140719608D01*
X69048899Y-140898932D01*
X69181858Y-140970000D01*
X69048899Y-141041068D01*
X68830392Y-141220392D01*
X68651068Y-141438899D01*
X68517818Y-141688192D01*
X68435764Y-141958691D01*
X68408057Y-142240000D01*
X68435764Y-142521309D01*
X68517818Y-142791808D01*
X68651068Y-143041101D01*
X68830392Y-143259608D01*
X69048899Y-143438932D01*
X69181858Y-143510000D01*
X69048899Y-143581068D01*
X68830392Y-143760392D01*
X68651068Y-143978899D01*
X68517818Y-144228192D01*
X68435764Y-144498691D01*
X68408057Y-144780000D01*
X68435764Y-145061309D01*
X68517818Y-145331808D01*
X68651068Y-145581101D01*
X68830392Y-145799608D01*
X69048899Y-145978932D01*
X69181858Y-146050000D01*
X69048899Y-146121068D01*
X68830392Y-146300392D01*
X68651068Y-146518899D01*
X68517818Y-146768192D01*
X68435764Y-147038691D01*
X68408057Y-147320000D01*
X68435764Y-147601309D01*
X68517818Y-147871808D01*
X68651068Y-148121101D01*
X68830392Y-148339608D01*
X69048899Y-148518932D01*
X69181858Y-148590000D01*
X69048899Y-148661068D01*
X68830392Y-148840392D01*
X68651068Y-149058899D01*
X68517818Y-149308192D01*
X68435764Y-149578691D01*
X68408057Y-149860000D01*
X68435764Y-150141309D01*
X68517818Y-150411808D01*
X68651068Y-150661101D01*
X68830392Y-150879608D01*
X69048899Y-151058932D01*
X69181858Y-151130000D01*
X69048899Y-151201068D01*
X68830392Y-151380392D01*
X68651068Y-151598899D01*
X68517818Y-151848192D01*
X68435764Y-152118691D01*
X68408057Y-152400000D01*
X68435764Y-152681309D01*
X68517818Y-152951808D01*
X68651068Y-153201101D01*
X68830392Y-153419608D01*
X69048899Y-153598932D01*
X69181858Y-153670000D01*
X69048899Y-153741068D01*
X68830392Y-153920392D01*
X68651068Y-154138899D01*
X68517818Y-154388192D01*
X68435764Y-154658691D01*
X68408057Y-154940000D01*
X68435764Y-155221309D01*
X68517818Y-155491808D01*
X68651068Y-155741101D01*
X68830392Y-155959608D01*
X69048899Y-156138932D01*
X69298192Y-156272182D01*
X69568691Y-156354236D01*
X69779508Y-156375000D01*
X69920492Y-156375000D01*
X70131309Y-156354236D01*
X70401808Y-156272182D01*
X70651101Y-156138932D01*
X70869608Y-155959608D01*
X71048932Y-155741101D01*
X71070901Y-155700000D01*
X73709099Y-155700000D01*
X73731068Y-155741101D01*
X73910392Y-155959608D01*
X74128899Y-156138932D01*
X74378192Y-156272182D01*
X74648691Y-156354236D01*
X74859508Y-156375000D01*
X75000492Y-156375000D01*
X75211309Y-156354236D01*
X75481808Y-156272182D01*
X75731101Y-156138932D01*
X75949608Y-155959608D01*
X76128932Y-155741101D01*
X76262182Y-155491808D01*
X76344236Y-155221309D01*
X76371943Y-154940000D01*
X76344236Y-154658691D01*
X76262182Y-154388192D01*
X76128932Y-154138899D01*
X75949608Y-153920392D01*
X75731101Y-153741068D01*
X75598142Y-153670000D01*
X75731101Y-153598932D01*
X75949608Y-153419608D01*
X76128932Y-153201101D01*
X76262182Y-152951808D01*
X76344236Y-152681309D01*
X76371943Y-152400000D01*
X76344236Y-152118691D01*
X76262182Y-151848192D01*
X76128932Y-151598899D01*
X75949608Y-151380392D01*
X75731101Y-151201068D01*
X75598142Y-151130000D01*
X75731101Y-151058932D01*
X75949608Y-150879608D01*
X76128932Y-150661101D01*
X76262182Y-150411808D01*
X76344236Y-150141309D01*
X76371943Y-149860000D01*
X76344236Y-149578691D01*
X76262182Y-149308192D01*
X76128932Y-149058899D01*
X75949608Y-148840392D01*
X75731101Y-148661068D01*
X75598142Y-148590000D01*
X75731101Y-148518932D01*
X75949608Y-148339608D01*
X76128932Y-148121101D01*
X76262182Y-147871808D01*
X76344236Y-147601309D01*
X76371943Y-147320000D01*
X76344236Y-147038691D01*
X76262182Y-146768192D01*
X76128932Y-146518899D01*
X75949608Y-146300392D01*
X75731101Y-146121068D01*
X75598142Y-146050000D01*
X75731101Y-145978932D01*
X75949608Y-145799608D01*
X76128932Y-145581101D01*
X76262182Y-145331808D01*
X76344236Y-145061309D01*
X76371943Y-144780000D01*
X76344236Y-144498691D01*
X76262182Y-144228192D01*
X76128932Y-143978899D01*
X75949608Y-143760392D01*
X75731101Y-143581068D01*
X75598142Y-143510000D01*
X75731101Y-143438932D01*
X75949608Y-143259608D01*
X76128932Y-143041101D01*
X76262182Y-142791808D01*
X76344236Y-142521309D01*
X76371943Y-142240000D01*
X76344236Y-141958691D01*
X76262182Y-141688192D01*
X76128932Y-141438899D01*
X75949608Y-141220392D01*
X75731101Y-141041068D01*
X75598142Y-140970000D01*
X75731101Y-140898932D01*
X75949608Y-140719608D01*
X76128932Y-140501101D01*
X76262182Y-140251808D01*
X76344236Y-139981309D01*
X76371943Y-139700000D01*
X76344236Y-139418691D01*
X76262182Y-139148192D01*
X76128932Y-138898899D01*
X75949608Y-138680392D01*
X75836518Y-138587581D01*
X75854482Y-138585812D01*
X75974180Y-138549502D01*
X76084494Y-138490537D01*
X76181185Y-138411185D01*
X76260537Y-138314494D01*
X76319502Y-138204180D01*
X76355812Y-138084482D01*
X76368072Y-137960000D01*
X76368072Y-136360000D01*
X76355812Y-136235518D01*
X76319502Y-136115820D01*
X76260537Y-136005506D01*
X76181185Y-135908815D01*
X76084494Y-135829463D01*
X75974180Y-135770498D01*
X75854482Y-135734188D01*
X75730000Y-135721928D01*
X74130000Y-135721928D01*
X74005518Y-135734188D01*
X73885820Y-135770498D01*
X73775506Y-135829463D01*
X73678815Y-135908815D01*
X73599463Y-136005506D01*
X73540498Y-136115820D01*
X73504188Y-136235518D01*
X73491928Y-136360000D01*
X73491928Y-136400000D01*
X71070901Y-136400000D01*
X71048932Y-136358899D01*
X70869608Y-136140392D01*
X70651101Y-135961068D01*
X70513318Y-135887421D01*
X70705131Y-135772385D01*
X70913519Y-135583414D01*
X71081037Y-135357420D01*
X71201246Y-135103087D01*
X71241904Y-134969039D01*
X71119915Y-134747000D01*
X69977000Y-134747000D01*
X69977000Y-134767000D01*
X69723000Y-134767000D01*
X69723000Y-134747000D01*
X68580085Y-134747000D01*
X68458096Y-134969039D01*
X68498754Y-135103087D01*
X68618963Y-135357420D01*
X68786481Y-135583414D01*
X68994869Y-135772385D01*
X69186682Y-135887421D01*
X69048899Y-135961068D01*
X68830392Y-136140392D01*
X68651068Y-136358899D01*
X68517818Y-136608192D01*
X68435764Y-136878691D01*
X68408057Y-137160000D01*
X63671943Y-137160000D01*
X63644236Y-136878691D01*
X63562182Y-136608192D01*
X63428932Y-136358899D01*
X63249608Y-136140392D01*
X63031101Y-135961068D01*
X62898142Y-135890000D01*
X63031101Y-135818932D01*
X63249608Y-135639608D01*
X63428932Y-135421101D01*
X63562182Y-135171808D01*
X63644236Y-134901309D01*
X63671943Y-134620000D01*
X63644236Y-134338691D01*
X63562182Y-134068192D01*
X63428932Y-133818899D01*
X63249608Y-133600392D01*
X63136518Y-133507581D01*
X63154482Y-133505812D01*
X63274180Y-133469502D01*
X63384494Y-133410537D01*
X63481185Y-133331185D01*
X63560537Y-133234494D01*
X63619502Y-133124180D01*
X63655812Y-133004482D01*
X63668072Y-132880000D01*
X63665000Y-132365750D01*
X63506250Y-132207000D01*
X62357000Y-132207000D01*
X62357000Y-132227000D01*
X62103000Y-132227000D01*
X62103000Y-132207000D01*
X60953750Y-132207000D01*
X60795000Y-132365750D01*
X60791928Y-132880000D01*
X60804188Y-133004482D01*
X60840498Y-133124180D01*
X60899463Y-133234494D01*
X60978815Y-133331185D01*
X61075506Y-133410537D01*
X61185820Y-133469502D01*
X61305518Y-133505812D01*
X61323482Y-133507581D01*
X61210392Y-133600392D01*
X61031068Y-133818899D01*
X61009099Y-133860000D01*
X57100901Y-133860000D01*
X57078932Y-133818899D01*
X56899608Y-133600392D01*
X56681101Y-133421068D01*
X56431808Y-133287818D01*
X56161309Y-133205764D01*
X55950492Y-133185000D01*
X55809508Y-133185000D01*
X55598691Y-133205764D01*
X55328192Y-133287818D01*
X55078899Y-133421068D01*
X54860392Y-133600392D01*
X54681068Y-133818899D01*
X54659099Y-133860000D01*
X49184402Y-133860000D01*
X46604402Y-131280000D01*
X60791928Y-131280000D01*
X60795000Y-131794250D01*
X60953750Y-131953000D01*
X62103000Y-131953000D01*
X62103000Y-130803750D01*
X62357000Y-130803750D01*
X62357000Y-131953000D01*
X63506250Y-131953000D01*
X63665000Y-131794250D01*
X63668072Y-131280000D01*
X63655812Y-131155518D01*
X63619502Y-131035820D01*
X63560537Y-130925506D01*
X63481185Y-130828815D01*
X63384494Y-130749463D01*
X63274180Y-130690498D01*
X63154482Y-130654188D01*
X63030000Y-130641928D01*
X62515750Y-130645000D01*
X62357000Y-130803750D01*
X62103000Y-130803750D01*
X61944250Y-130645000D01*
X61430000Y-130641928D01*
X61305518Y-130654188D01*
X61185820Y-130690498D01*
X61075506Y-130749463D01*
X60978815Y-130828815D01*
X60899463Y-130925506D01*
X60840498Y-131035820D01*
X60804188Y-131155518D01*
X60791928Y-131280000D01*
X46604402Y-131280000D01*
X43185004Y-127860603D01*
X43161201Y-127831599D01*
X43073957Y-127760000D01*
X48857678Y-127760000D01*
X48895000Y-127763676D01*
X48932322Y-127760000D01*
X48932333Y-127760000D01*
X49043986Y-127749003D01*
X49187247Y-127705546D01*
X49319276Y-127634974D01*
X49435001Y-127540001D01*
X49458804Y-127510997D01*
X49787848Y-127181953D01*
X49847447Y-127481579D01*
X49971903Y-127782042D01*
X50152585Y-128052451D01*
X50370134Y-128270000D01*
X50152585Y-128487549D01*
X49971903Y-128757958D01*
X49847447Y-129058421D01*
X49784000Y-129377391D01*
X49784000Y-129702609D01*
X49847447Y-130021579D01*
X49971903Y-130322042D01*
X50152585Y-130592451D01*
X50382549Y-130822415D01*
X50652958Y-131003097D01*
X50953421Y-131127553D01*
X51272391Y-131191000D01*
X51597609Y-131191000D01*
X51916579Y-131127553D01*
X52217042Y-131003097D01*
X52487451Y-130822415D01*
X52717415Y-130592451D01*
X52898097Y-130322042D01*
X53022553Y-130021579D01*
X53086000Y-129702609D01*
X53086000Y-129377391D01*
X53022553Y-129058421D01*
X52898097Y-128757958D01*
X52717415Y-128487549D01*
X52499866Y-128270000D01*
X52717415Y-128052451D01*
X52898097Y-127782042D01*
X53022553Y-127481579D01*
X53086000Y-127162609D01*
X53086000Y-126837391D01*
X53022553Y-126518421D01*
X52898097Y-126217958D01*
X52717415Y-125947549D01*
X52499866Y-125730000D01*
X52717415Y-125512451D01*
X52898097Y-125242042D01*
X53022553Y-124941579D01*
X53086000Y-124622609D01*
X53086000Y-124297391D01*
X53022553Y-123978421D01*
X52898097Y-123677958D01*
X52717415Y-123407549D01*
X52499866Y-123190000D01*
X52717415Y-122972451D01*
X52898097Y-122702042D01*
X53022553Y-122401579D01*
X53086000Y-122082609D01*
X53086000Y-121757391D01*
X53022553Y-121438421D01*
X52898097Y-121137958D01*
X52717415Y-120867549D01*
X52499866Y-120650000D01*
X52717415Y-120432451D01*
X52898097Y-120162042D01*
X53022553Y-119861579D01*
X53086000Y-119542609D01*
X53086000Y-119217391D01*
X53022553Y-118898421D01*
X52898097Y-118597958D01*
X52717415Y-118327549D01*
X52499866Y-118110000D01*
X52717415Y-117892451D01*
X52898097Y-117622042D01*
X53022553Y-117321579D01*
X53086000Y-117002609D01*
X53086000Y-116677391D01*
X53022553Y-116358421D01*
X52898097Y-116057958D01*
X52717415Y-115787549D01*
X52499866Y-115570000D01*
X52717415Y-115352451D01*
X52898097Y-115082042D01*
X53022553Y-114781579D01*
X53086000Y-114462609D01*
X53086000Y-114137391D01*
X53022553Y-113818421D01*
X52898097Y-113517958D01*
X52717415Y-113247549D01*
X52499866Y-113030000D01*
X52717415Y-112812451D01*
X52898097Y-112542042D01*
X53022553Y-112241579D01*
X53086000Y-111922609D01*
X53086000Y-111597391D01*
X53022553Y-111278421D01*
X52898097Y-110977958D01*
X52717415Y-110707549D01*
X52499866Y-110490000D01*
X52717415Y-110272451D01*
X52898097Y-110002042D01*
X53022553Y-109701579D01*
X53086000Y-109382609D01*
X53086000Y-109057391D01*
X53022553Y-108738421D01*
X52898097Y-108437958D01*
X52769636Y-108245704D01*
X52805494Y-108226537D01*
X52902185Y-108147185D01*
X52981537Y-108050494D01*
X53040502Y-107940180D01*
X53076812Y-107820482D01*
X53089072Y-107696000D01*
X53089072Y-106517391D01*
X57404000Y-106517391D01*
X57404000Y-106842609D01*
X57467447Y-107161579D01*
X57591903Y-107462042D01*
X57772585Y-107732451D01*
X57990134Y-107950000D01*
X57772585Y-108167549D01*
X57591903Y-108437958D01*
X57467447Y-108738421D01*
X57404000Y-109057391D01*
X57404000Y-109382609D01*
X57467447Y-109701579D01*
X57591903Y-110002042D01*
X57772585Y-110272451D01*
X57990134Y-110490000D01*
X57772585Y-110707549D01*
X57591903Y-110977958D01*
X57467447Y-111278421D01*
X57404000Y-111597391D01*
X57404000Y-111922609D01*
X57467447Y-112241579D01*
X57591903Y-112542042D01*
X57772585Y-112812451D01*
X57990134Y-113030000D01*
X57772585Y-113247549D01*
X57591903Y-113517958D01*
X57467447Y-113818421D01*
X57404000Y-114137391D01*
X57404000Y-114462609D01*
X57467447Y-114781579D01*
X57591903Y-115082042D01*
X57772585Y-115352451D01*
X57990134Y-115570000D01*
X57772585Y-115787549D01*
X57591903Y-116057958D01*
X57467447Y-116358421D01*
X57404000Y-116677391D01*
X57404000Y-117002609D01*
X57467447Y-117321579D01*
X57591903Y-117622042D01*
X57772585Y-117892451D01*
X57990134Y-118110000D01*
X57772585Y-118327549D01*
X57591903Y-118597958D01*
X57467447Y-118898421D01*
X57404000Y-119217391D01*
X57404000Y-119542609D01*
X57467447Y-119861579D01*
X57591903Y-120162042D01*
X57772585Y-120432451D01*
X57990134Y-120650000D01*
X57772585Y-120867549D01*
X57591903Y-121137958D01*
X57467447Y-121438421D01*
X57404000Y-121757391D01*
X57404000Y-122082609D01*
X57467447Y-122401579D01*
X57591903Y-122702042D01*
X57772585Y-122972451D01*
X57990134Y-123190000D01*
X57772585Y-123407549D01*
X57591903Y-123677958D01*
X57467447Y-123978421D01*
X57404000Y-124297391D01*
X57404000Y-124622609D01*
X57467447Y-124941579D01*
X57591903Y-125242042D01*
X57772585Y-125512451D01*
X57990134Y-125730000D01*
X57772585Y-125947549D01*
X57591903Y-126217958D01*
X57467447Y-126518421D01*
X57404000Y-126837391D01*
X57404000Y-127162609D01*
X57467447Y-127481579D01*
X57591903Y-127782042D01*
X57772585Y-128052451D01*
X57990134Y-128270000D01*
X57772585Y-128487549D01*
X57591903Y-128757958D01*
X57467447Y-129058421D01*
X57404000Y-129377391D01*
X57404000Y-129702609D01*
X57467447Y-130021579D01*
X57591903Y-130322042D01*
X57772585Y-130592451D01*
X58002549Y-130822415D01*
X58272958Y-131003097D01*
X58573421Y-131127553D01*
X58892391Y-131191000D01*
X59217609Y-131191000D01*
X59536579Y-131127553D01*
X59837042Y-131003097D01*
X60107451Y-130822415D01*
X60337415Y-130592451D01*
X60518097Y-130322042D01*
X60642553Y-130021579D01*
X60706000Y-129702609D01*
X60706000Y-129377391D01*
X60642553Y-129058421D01*
X60518097Y-128757958D01*
X60337415Y-128487549D01*
X60119866Y-128270000D01*
X60337415Y-128052451D01*
X60518097Y-127782042D01*
X60642553Y-127481579D01*
X60706000Y-127162609D01*
X60706000Y-126837391D01*
X60642553Y-126518421D01*
X60518097Y-126217958D01*
X60337415Y-125947549D01*
X60119866Y-125730000D01*
X60337415Y-125512451D01*
X60518097Y-125242042D01*
X60527227Y-125220000D01*
X67359099Y-125220000D01*
X67381068Y-125261101D01*
X67560392Y-125479608D01*
X67778899Y-125658932D01*
X68028192Y-125792182D01*
X68298691Y-125874236D01*
X68509508Y-125895000D01*
X68650492Y-125895000D01*
X68861309Y-125874236D01*
X69131808Y-125792182D01*
X69381101Y-125658932D01*
X69599608Y-125479608D01*
X69778932Y-125261101D01*
X69912182Y-125011808D01*
X69994236Y-124741309D01*
X70021943Y-124460000D01*
X69994236Y-124178691D01*
X69912182Y-123908192D01*
X69778932Y-123658899D01*
X69599608Y-123440392D01*
X69381101Y-123261068D01*
X69248142Y-123190000D01*
X69381101Y-123118932D01*
X69599608Y-122939608D01*
X69778932Y-122721101D01*
X69912182Y-122471808D01*
X69994236Y-122201309D01*
X70021943Y-121920000D01*
X69994236Y-121638691D01*
X69912182Y-121368192D01*
X69778932Y-121118899D01*
X69599608Y-120900392D01*
X69381101Y-120721068D01*
X69248142Y-120650000D01*
X69381101Y-120578932D01*
X69599608Y-120399608D01*
X69778932Y-120181101D01*
X69912182Y-119931808D01*
X69994236Y-119661309D01*
X70021943Y-119380000D01*
X69994236Y-119098691D01*
X69912182Y-118828192D01*
X69778932Y-118578899D01*
X69599608Y-118360392D01*
X69381101Y-118181068D01*
X69248142Y-118110000D01*
X69381101Y-118038932D01*
X69599608Y-117859608D01*
X69778932Y-117641101D01*
X69912182Y-117391808D01*
X69994236Y-117121309D01*
X70021943Y-116840000D01*
X69994236Y-116558691D01*
X69912182Y-116288192D01*
X69778932Y-116038899D01*
X69599608Y-115820392D01*
X69381101Y-115641068D01*
X69248142Y-115570000D01*
X69381101Y-115498932D01*
X69599608Y-115319608D01*
X69778932Y-115101101D01*
X69912182Y-114851808D01*
X69994236Y-114581309D01*
X70021943Y-114300000D01*
X69994236Y-114018691D01*
X69912182Y-113748192D01*
X69778932Y-113498899D01*
X69599608Y-113280392D01*
X69381101Y-113101068D01*
X69248142Y-113030000D01*
X69381101Y-112958932D01*
X69599608Y-112779608D01*
X69778932Y-112561101D01*
X69912182Y-112311808D01*
X69981740Y-112082500D01*
X74316667Y-112082500D01*
X74316667Y-116652500D01*
X98403334Y-116652500D01*
X98403334Y-112082500D01*
X74316667Y-112082500D01*
X69981740Y-112082500D01*
X69994236Y-112041309D01*
X70021943Y-111760000D01*
X69994236Y-111478691D01*
X69912182Y-111208192D01*
X69778932Y-110958899D01*
X69599608Y-110740392D01*
X69381101Y-110561068D01*
X69248142Y-110490000D01*
X69381101Y-110418932D01*
X69599608Y-110239608D01*
X69778932Y-110021101D01*
X69912182Y-109771808D01*
X69994236Y-109501309D01*
X70021943Y-109220000D01*
X69994236Y-108938691D01*
X69912182Y-108668192D01*
X69778932Y-108418899D01*
X69599608Y-108200392D01*
X69381101Y-108021068D01*
X69248142Y-107950000D01*
X69381101Y-107878932D01*
X69599608Y-107699608D01*
X69778932Y-107481101D01*
X69806246Y-107430000D01*
X73110715Y-107430000D01*
X73110715Y-111250000D01*
X99609286Y-111250000D01*
X99609286Y-107430000D01*
X73110715Y-107430000D01*
X69806246Y-107430000D01*
X69912182Y-107231808D01*
X69994236Y-106961309D01*
X70021943Y-106680000D01*
X69994236Y-106398691D01*
X69912182Y-106128192D01*
X69778932Y-105878899D01*
X69599608Y-105660392D01*
X69486518Y-105567581D01*
X69504482Y-105565812D01*
X69624180Y-105529502D01*
X69734494Y-105470537D01*
X69831185Y-105391185D01*
X69910537Y-105294494D01*
X69969502Y-105184180D01*
X70005812Y-105064482D01*
X70018072Y-104940000D01*
X70015000Y-104425750D01*
X69856250Y-104267000D01*
X68707000Y-104267000D01*
X68707000Y-104287000D01*
X68453000Y-104287000D01*
X68453000Y-104267000D01*
X67303750Y-104267000D01*
X67145000Y-104425750D01*
X67141928Y-104940000D01*
X67154188Y-105064482D01*
X67190498Y-105184180D01*
X67249463Y-105294494D01*
X67328815Y-105391185D01*
X67425506Y-105470537D01*
X67535820Y-105529502D01*
X67655518Y-105565812D01*
X67673482Y-105567581D01*
X67560392Y-105660392D01*
X67381068Y-105878899D01*
X67359099Y-105920000D01*
X60527227Y-105920000D01*
X60518097Y-105897958D01*
X60337415Y-105627549D01*
X60107451Y-105397585D01*
X59837042Y-105216903D01*
X59536579Y-105092447D01*
X59217609Y-105029000D01*
X58892391Y-105029000D01*
X58573421Y-105092447D01*
X58272958Y-105216903D01*
X58002549Y-105397585D01*
X57772585Y-105627549D01*
X57591903Y-105897958D01*
X57467447Y-106198421D01*
X57404000Y-106517391D01*
X53089072Y-106517391D01*
X53089072Y-105664000D01*
X53076812Y-105539518D01*
X53040502Y-105419820D01*
X52981537Y-105309506D01*
X52902185Y-105212815D01*
X52805494Y-105133463D01*
X52695180Y-105074498D01*
X52575482Y-105038188D01*
X52451000Y-105025928D01*
X50419000Y-105025928D01*
X50294518Y-105038188D01*
X50174820Y-105074498D01*
X50064506Y-105133463D01*
X49967815Y-105212815D01*
X49888463Y-105309506D01*
X49829498Y-105419820D01*
X49793188Y-105539518D01*
X49780928Y-105664000D01*
X49780928Y-105920000D01*
X35343322Y-105920000D01*
X35305999Y-105916324D01*
X35268676Y-105920000D01*
X35268667Y-105920000D01*
X35157014Y-105930997D01*
X35013753Y-105974454D01*
X34881723Y-106045026D01*
X34798083Y-106113668D01*
X34765999Y-106139999D01*
X34742201Y-106168997D01*
X23576162Y-117335037D01*
X23622000Y-117104592D01*
X23622000Y-116829408D01*
X23568314Y-116559510D01*
X23463005Y-116305273D01*
X23310120Y-116076465D01*
X23115535Y-115881880D01*
X22886727Y-115728995D01*
X22632490Y-115623686D01*
X22362592Y-115570000D01*
X22087408Y-115570000D01*
X21817510Y-115623686D01*
X21563273Y-115728995D01*
X21334465Y-115881880D01*
X21139880Y-116076465D01*
X20986995Y-116305273D01*
X20955000Y-116382515D01*
X20923005Y-116305273D01*
X20770120Y-116076465D01*
X20575535Y-115881880D01*
X20346727Y-115728995D01*
X20092490Y-115623686D01*
X19822592Y-115570000D01*
X19547408Y-115570000D01*
X19277510Y-115623686D01*
X19023273Y-115728995D01*
X18794465Y-115881880D01*
X18599880Y-116076465D01*
X18465000Y-116278327D01*
X18465000Y-103340000D01*
X67141928Y-103340000D01*
X67145000Y-103854250D01*
X67303750Y-104013000D01*
X68453000Y-104013000D01*
X68453000Y-102863750D01*
X68707000Y-102863750D01*
X68707000Y-104013000D01*
X69856250Y-104013000D01*
X70015000Y-103854250D01*
X70018072Y-103340000D01*
X70005812Y-103215518D01*
X69969502Y-103095820D01*
X69910537Y-102985506D01*
X69831185Y-102888815D01*
X69734494Y-102809463D01*
X69624180Y-102750498D01*
X69504482Y-102714188D01*
X69380000Y-102701928D01*
X68865750Y-102705000D01*
X68707000Y-102863750D01*
X68453000Y-102863750D01*
X68294250Y-102705000D01*
X67780000Y-102701928D01*
X67655518Y-102714188D01*
X67535820Y-102750498D01*
X67425506Y-102809463D01*
X67328815Y-102888815D01*
X67249463Y-102985506D01*
X67190498Y-103095820D01*
X67154188Y-103215518D01*
X67141928Y-103340000D01*
X18465000Y-103340000D01*
X18465000Y-102285000D01*
X99645000Y-102285000D01*
X99645000Y-130939509D01*
G36*
X28767500Y-149695677D02*
G01*
X28763824Y-149733000D01*
X28767500Y-149770322D01*
X28767500Y-149770332D01*
X28778497Y-149881985D01*
X28815554Y-150004147D01*
X28821954Y-150025246D01*
X28892526Y-150157276D01*
X28932371Y-150205826D01*
X28987499Y-150273001D01*
X29016503Y-150296804D01*
X31215503Y-152495805D01*
X31216998Y-152510986D01*
X31251494Y-152624706D01*
X31260455Y-152654247D01*
X31331027Y-152786277D01*
X31363747Y-152826146D01*
X31367078Y-152830205D01*
X31351764Y-152880691D01*
X31324057Y-153162000D01*
X31351764Y-153443309D01*
X31433818Y-153713808D01*
X31567068Y-153963101D01*
X31746392Y-154181608D01*
X31964899Y-154360932D01*
X32097858Y-154432000D01*
X31964899Y-154503068D01*
X31746392Y-154682392D01*
X31567068Y-154900899D01*
X31433818Y-155150192D01*
X31351764Y-155420691D01*
X31324057Y-155702000D01*
X31351764Y-155983309D01*
X31365292Y-156027905D01*
X28918325Y-158474874D01*
X28920072Y-158154000D01*
X28907812Y-158029518D01*
X28871502Y-157909820D01*
X28812537Y-157799506D01*
X28733185Y-157702815D01*
X28636494Y-157623463D01*
X28526180Y-157564498D01*
X28457313Y-157543607D01*
X28487134Y-157519134D01*
X28672706Y-157293014D01*
X28810599Y-157035034D01*
X28895513Y-156755111D01*
X28924185Y-156464000D01*
X28895513Y-156172889D01*
X28810599Y-155892966D01*
X28672706Y-155634986D01*
X28487134Y-155408866D01*
X28261014Y-155223294D01*
X28206209Y-155194000D01*
X28261014Y-155164706D01*
X28487134Y-154979134D01*
X28672706Y-154753014D01*
X28810599Y-154495034D01*
X28895513Y-154215111D01*
X28924185Y-153924000D01*
X28895513Y-153632889D01*
X28810599Y-153352966D01*
X28672706Y-153094986D01*
X28487134Y-152868866D01*
X28261014Y-152683294D01*
X28206209Y-152654000D01*
X28261014Y-152624706D01*
X28487134Y-152439134D01*
X28672706Y-152213014D01*
X28810599Y-151955034D01*
X28895513Y-151675111D01*
X28924185Y-151384000D01*
X28895513Y-151092889D01*
X28810599Y-150812966D01*
X28672706Y-150554986D01*
X28487134Y-150328866D01*
X28261014Y-150143294D01*
X28206209Y-150114000D01*
X28261014Y-150084706D01*
X28487134Y-149899134D01*
X28672706Y-149673014D01*
X28767500Y-149495666D01*
X28767500Y-149695677D01*
X28767500Y-149695677D01*
G37*
X28767500Y-149695677D02*
X28763824Y-149733000D01*
X28767500Y-149770322D01*
X28767500Y-149770332D01*
X28778497Y-149881985D01*
X28815554Y-150004147D01*
X28821954Y-150025246D01*
X28892526Y-150157276D01*
X28932371Y-150205826D01*
X28987499Y-150273001D01*
X29016503Y-150296804D01*
X31215503Y-152495805D01*
X31216998Y-152510986D01*
X31251494Y-152624706D01*
X31260455Y-152654247D01*
X31331027Y-152786277D01*
X31363747Y-152826146D01*
X31367078Y-152830205D01*
X31351764Y-152880691D01*
X31324057Y-153162000D01*
X31351764Y-153443309D01*
X31433818Y-153713808D01*
X31567068Y-153963101D01*
X31746392Y-154181608D01*
X31964899Y-154360932D01*
X32097858Y-154432000D01*
X31964899Y-154503068D01*
X31746392Y-154682392D01*
X31567068Y-154900899D01*
X31433818Y-155150192D01*
X31351764Y-155420691D01*
X31324057Y-155702000D01*
X31351764Y-155983309D01*
X31365292Y-156027905D01*
X28918325Y-158474874D01*
X28920072Y-158154000D01*
X28907812Y-158029518D01*
X28871502Y-157909820D01*
X28812537Y-157799506D01*
X28733185Y-157702815D01*
X28636494Y-157623463D01*
X28526180Y-157564498D01*
X28457313Y-157543607D01*
X28487134Y-157519134D01*
X28672706Y-157293014D01*
X28810599Y-157035034D01*
X28895513Y-156755111D01*
X28924185Y-156464000D01*
X28895513Y-156172889D01*
X28810599Y-155892966D01*
X28672706Y-155634986D01*
X28487134Y-155408866D01*
X28261014Y-155223294D01*
X28206209Y-155194000D01*
X28261014Y-155164706D01*
X28487134Y-154979134D01*
X28672706Y-154753014D01*
X28810599Y-154495034D01*
X28895513Y-154215111D01*
X28924185Y-153924000D01*
X28895513Y-153632889D01*
X28810599Y-153352966D01*
X28672706Y-153094986D01*
X28487134Y-152868866D01*
X28261014Y-152683294D01*
X28206209Y-152654000D01*
X28261014Y-152624706D01*
X28487134Y-152439134D01*
X28672706Y-152213014D01*
X28810599Y-151955034D01*
X28895513Y-151675111D01*
X28924185Y-151384000D01*
X28895513Y-151092889D01*
X28810599Y-150812966D01*
X28672706Y-150554986D01*
X28487134Y-150328866D01*
X28261014Y-150143294D01*
X28206209Y-150114000D01*
X28261014Y-150084706D01*
X28487134Y-149899134D01*
X28672706Y-149673014D01*
X28767500Y-149495666D01*
X28767500Y-149695677D01*
G36*
X20986995Y-155728727D02*
G01*
X21139880Y-155957535D01*
X21334465Y-156152120D01*
X21563273Y-156305005D01*
X21640515Y-156337000D01*
X21563273Y-156368995D01*
X21334465Y-156521880D01*
X21139880Y-156716465D01*
X21081080Y-156804465D01*
X21072812Y-156720518D01*
X21036502Y-156600820D01*
X20977537Y-156490506D01*
X20898185Y-156393815D01*
X20801494Y-156314463D01*
X20691180Y-156255498D01*
X20571482Y-156219188D01*
X20487535Y-156210920D01*
X20575535Y-156152120D01*
X20770120Y-155957535D01*
X20923005Y-155728727D01*
X20955000Y-155651485D01*
X20986995Y-155728727D01*
X20986995Y-155728727D01*
G37*
X20986995Y-155728727D02*
X21139880Y-155957535D01*
X21334465Y-156152120D01*
X21563273Y-156305005D01*
X21640515Y-156337000D01*
X21563273Y-156368995D01*
X21334465Y-156521880D01*
X21139880Y-156716465D01*
X21081080Y-156804465D01*
X21072812Y-156720518D01*
X21036502Y-156600820D01*
X20977537Y-156490506D01*
X20898185Y-156393815D01*
X20801494Y-156314463D01*
X20691180Y-156255498D01*
X20571482Y-156219188D01*
X20487535Y-156210920D01*
X20575535Y-156152120D01*
X20770120Y-155957535D01*
X20923005Y-155728727D01*
X20955000Y-155651485D01*
X20986995Y-155728727D01*
M02*
