%TF.GenerationSoftware,KiCad,Pcbnew,5.1.4-e60b266~84~ubuntu18.04.1*%
%TF.CreationDate,2019-11-15T18:23:48+01:00*%
%TF.ProjectId,sboxnet-weichenservo,73626f78-6e65-4742-9d77-65696368656e,rev?*%
%TF.SameCoordinates,Original*%
%TF.FileFunction,Legend,Top*%
%TF.FilePolarity,Positive*%
%FSLAX46Y46*%
G04 Gerber Fmt 4.6, Leading zero omitted, Abs format (unit mm)*
G04 Created by KiCad (PCBNEW 5.1.4-e60b266~84~ubuntu18.04.1) date 2019-11-15 18:23:48*
%MOMM*%
%LPD*%
G04 APERTURE LIST*
%ADD10C,0.120000*%
%ADD11C,0.150000*%
G04 APERTURE END LIST*
D10*
X89373400Y-134146600D02*
X89373400Y-132816600D01*
X90703400Y-134146600D02*
X89373400Y-134146600D01*
X91973400Y-134146600D02*
X91973400Y-131486600D01*
X91973400Y-131486600D02*
X97113400Y-131486600D01*
X91973400Y-134146600D02*
X97113400Y-134146600D01*
X97113400Y-134146600D02*
X97113400Y-131486600D01*
X69161000Y-171567400D02*
X66221000Y-171567400D01*
X69161000Y-171807400D02*
X66221000Y-171807400D01*
X69161000Y-171687400D02*
X66221000Y-171687400D01*
X67691000Y-177247400D02*
X67691000Y-176227400D01*
X67691000Y-169767400D02*
X67691000Y-170787400D01*
X69161000Y-176227400D02*
X69161000Y-170787400D01*
X66221000Y-176227400D02*
X69161000Y-176227400D01*
X66221000Y-170787400D02*
X66221000Y-176227400D01*
X69161000Y-170787400D02*
X66221000Y-170787400D01*
X74254500Y-170220900D02*
X71414500Y-170220900D01*
X71414500Y-170220900D02*
X71414500Y-174260900D01*
X71414500Y-174260900D02*
X74254500Y-174260900D01*
X74254500Y-174260900D02*
X74254500Y-170220900D01*
X72834500Y-169530900D02*
X72834500Y-170220900D01*
X72834500Y-174950900D02*
X72834500Y-174260900D01*
X88392000Y-182822400D02*
X88392000Y-181682400D01*
X88392000Y-170302400D02*
X88392000Y-171442400D01*
X86022000Y-174442400D02*
X86022000Y-181682400D01*
X86772000Y-173692400D02*
X86022000Y-174442400D01*
X86022000Y-172942400D02*
X86772000Y-173692400D01*
X86022000Y-171442400D02*
X86022000Y-172942400D01*
X90762000Y-174442400D02*
X90762000Y-181682400D01*
X90012000Y-173692400D02*
X90762000Y-174442400D01*
X90762000Y-172942400D02*
X90012000Y-173692400D01*
X90762000Y-171442400D02*
X90762000Y-172942400D01*
X90762000Y-181682400D02*
X86022000Y-181682400D01*
X90762000Y-171442400D02*
X86022000Y-171442400D01*
X91342000Y-170442400D02*
X89842000Y-170442400D01*
X90592000Y-169692400D02*
X90592000Y-171192400D01*
X81607000Y-165792400D02*
X81607000Y-167302400D01*
X77906000Y-165792400D02*
X77906000Y-167302400D01*
X74636000Y-167302400D02*
X84876000Y-167302400D01*
X84876000Y-165792400D02*
X84876000Y-170433400D01*
X74636000Y-165792400D02*
X74636000Y-170433400D01*
X74636000Y-170433400D02*
X84876000Y-170433400D01*
X74636000Y-165792400D02*
X84876000Y-165792400D01*
X17907000Y-159131000D02*
X23495000Y-159131000D01*
X17907000Y-158369000D02*
X17907000Y-159131000D01*
X17907000Y-114427000D02*
X17907000Y-158369000D01*
X23749000Y-114427000D02*
X17907000Y-114427000D01*
X23495000Y-159131000D02*
X23749000Y-114427000D01*
X68690000Y-130750000D02*
X67040000Y-130750000D01*
X68690000Y-156270000D02*
X68690000Y-130750000D01*
X63390000Y-156270000D02*
X68690000Y-156270000D01*
X63390000Y-130750000D02*
X63390000Y-156270000D01*
X65040000Y-130750000D02*
X63390000Y-130750000D01*
X67040000Y-130750000D02*
G75*
G02X65040000Y-130750000I-1000000J0D01*
G01*
X81390000Y-135830000D02*
X79740000Y-135830000D01*
X81390000Y-156270000D02*
X81390000Y-135830000D01*
X76090000Y-156270000D02*
X81390000Y-156270000D01*
X76090000Y-135830000D02*
X76090000Y-156270000D01*
X77740000Y-135830000D02*
X76090000Y-135830000D01*
X79740000Y-135830000D02*
G75*
G02X77740000Y-135830000I-1000000J0D01*
G01*
X89373400Y-161197600D02*
X89373400Y-159867600D01*
X90703400Y-161197600D02*
X89373400Y-161197600D01*
X91973400Y-161197600D02*
X91973400Y-158537600D01*
X91973400Y-158537600D02*
X97113400Y-158537600D01*
X91973400Y-161197600D02*
X97113400Y-161197600D01*
X97113400Y-161197600D02*
X97113400Y-158537600D01*
X89373400Y-138083600D02*
X89373400Y-136753600D01*
X90703400Y-138083600D02*
X89373400Y-138083600D01*
X91973400Y-138083600D02*
X91973400Y-135423600D01*
X91973400Y-135423600D02*
X97113400Y-135423600D01*
X91973400Y-138083600D02*
X97113400Y-138083600D01*
X97113400Y-138083600D02*
X97113400Y-135423600D01*
X20638000Y-175804000D02*
X20794000Y-175804000D01*
X18322000Y-175804000D02*
X18478000Y-175804000D01*
X20637837Y-173202870D02*
G75*
G02X20638000Y-175284961I-1079837J-1041130D01*
G01*
X18478163Y-173202870D02*
G75*
G03X18478000Y-175284961I1079837J-1041130D01*
G01*
X20636608Y-172571665D02*
G75*
G02X20793516Y-175804000I-1078608J-1672335D01*
G01*
X18479392Y-172571665D02*
G75*
G03X18322484Y-175804000I1078608J-1672335D01*
G01*
X31436000Y-167252000D02*
X41716000Y-167252000D01*
X31436000Y-146692000D02*
X31436000Y-167252000D01*
X41716000Y-146692000D02*
X31436000Y-146692000D01*
X41716000Y-167252000D02*
X41716000Y-146692000D01*
X33926000Y-167192000D02*
X35576000Y-167192000D01*
X33926000Y-146752000D02*
X33926000Y-167192000D01*
X39226000Y-146752000D02*
X33926000Y-146752000D01*
X39226000Y-167192000D02*
X39226000Y-146752000D01*
X37576000Y-167192000D02*
X39226000Y-167192000D01*
X35576000Y-167192000D02*
G75*
G02X37576000Y-167192000I1000000J0D01*
G01*
X89373400Y-142020600D02*
X89373400Y-140690600D01*
X90703400Y-142020600D02*
X89373400Y-142020600D01*
X91973400Y-142020600D02*
X91973400Y-139360600D01*
X91973400Y-139360600D02*
X97113400Y-139360600D01*
X91973400Y-142020600D02*
X97113400Y-142020600D01*
X97113400Y-142020600D02*
X97113400Y-139360600D01*
X89373400Y-145830600D02*
X89373400Y-144500600D01*
X90703400Y-145830600D02*
X89373400Y-145830600D01*
X91973400Y-145830600D02*
X91973400Y-143170600D01*
X91973400Y-143170600D02*
X97113400Y-143170600D01*
X91973400Y-145830600D02*
X97113400Y-145830600D01*
X97113400Y-145830600D02*
X97113400Y-143170600D01*
X89373400Y-149640600D02*
X89373400Y-148310600D01*
X90703400Y-149640600D02*
X89373400Y-149640600D01*
X91973400Y-149640600D02*
X91973400Y-146980600D01*
X91973400Y-146980600D02*
X97113400Y-146980600D01*
X91973400Y-149640600D02*
X97113400Y-149640600D01*
X97113400Y-149640600D02*
X97113400Y-146980600D01*
X89373400Y-153450600D02*
X89373400Y-152120600D01*
X90703400Y-153450600D02*
X89373400Y-153450600D01*
X91973400Y-153450600D02*
X91973400Y-150790600D01*
X91973400Y-150790600D02*
X97113400Y-150790600D01*
X91973400Y-153450600D02*
X97113400Y-153450600D01*
X97113400Y-153450600D02*
X97113400Y-150790600D01*
X89373400Y-157387600D02*
X89373400Y-156057600D01*
X90703400Y-157387600D02*
X89373400Y-157387600D01*
X91973400Y-157387600D02*
X91973400Y-154727600D01*
X91973400Y-154727600D02*
X97113400Y-154727600D01*
X91973400Y-157387600D02*
X97113400Y-157387600D01*
X97113400Y-157387600D02*
X97113400Y-154727600D01*
X61794000Y-172262000D02*
X50944000Y-172262000D01*
X61794000Y-177362000D02*
X61794000Y-172262000D01*
X61294000Y-177062000D02*
X61794000Y-177362000D01*
X61294000Y-182462000D02*
X61294000Y-177062000D01*
X61794000Y-182212000D02*
X61294000Y-182462000D01*
X61794000Y-182262000D02*
X61794000Y-182212000D01*
X61794000Y-184162000D02*
X61794000Y-182262000D01*
X61294000Y-183912000D02*
X61794000Y-184162000D01*
X61294000Y-184862000D02*
X61294000Y-183912000D01*
X50944000Y-184862000D02*
X61294000Y-184862000D01*
X50944000Y-172262000D02*
X50944000Y-184862000D01*
X19812000Y-164750000D02*
X19812000Y-167910000D01*
X20732000Y-163830000D02*
G75*
G03X20732000Y-163830000I-920000J0D01*
G01*
X25340000Y-171764000D02*
X25340000Y-170434000D01*
X26670000Y-171764000D02*
X25340000Y-171764000D01*
X27940000Y-171764000D02*
X27940000Y-169104000D01*
X27940000Y-169104000D02*
X48320000Y-169104000D01*
X27940000Y-171764000D02*
X48320000Y-171764000D01*
X48320000Y-171764000D02*
X48320000Y-169104000D01*
X54480000Y-153670000D02*
X57280000Y-153670000D01*
X54480000Y-133180000D02*
X54480000Y-156380000D01*
X57280000Y-133180000D02*
X54480000Y-133180000D01*
X57280000Y-156380000D02*
X57280000Y-133180000D01*
X54480000Y-156380000D02*
X57280000Y-156380000D01*
X69980000Y-105410000D02*
X67180000Y-105410000D01*
X69980000Y-125900000D02*
X69980000Y-102700000D01*
X67180000Y-125900000D02*
X69980000Y-125900000D01*
X67180000Y-102700000D02*
X67180000Y-125900000D01*
X69980000Y-102700000D02*
X67180000Y-102700000D01*
X44958000Y-150014000D02*
X44958000Y-147404000D01*
X46328000Y-151384000D02*
G75*
G03X46328000Y-151384000I-1370000J0D01*
G01*
X27432000Y-160334000D02*
X26102000Y-160334000D01*
X26102000Y-160334000D02*
X26102000Y-159004000D01*
X26102000Y-157734000D02*
X26102000Y-147514000D01*
X28762000Y-147514000D02*
X26102000Y-147514000D01*
X28762000Y-157734000D02*
X28762000Y-147514000D01*
X28762000Y-157734000D02*
X26102000Y-157734000D01*
X60465000Y-105270000D02*
X60465000Y-130950000D01*
X50025000Y-105270000D02*
X60465000Y-105270000D01*
X50025000Y-130950000D02*
X50025000Y-105270000D01*
X60465000Y-130950000D02*
X50025000Y-130950000D01*
X49735000Y-104980000D02*
X49735000Y-106680000D01*
X51435000Y-104980000D02*
X49735000Y-104980000D01*
D11*
X87825780Y-133626123D02*
X88540066Y-133626123D01*
X88682923Y-133673742D01*
X88778161Y-133768980D01*
X88825780Y-133911838D01*
X88825780Y-134007076D01*
X88825780Y-132626123D02*
X88825780Y-133197552D01*
X88825780Y-132911838D02*
X87825780Y-132911838D01*
X87968638Y-133007076D01*
X88063876Y-133102314D01*
X88111495Y-133197552D01*
X87921019Y-132245171D02*
X87873400Y-132197552D01*
X87825780Y-132102314D01*
X87825780Y-131864219D01*
X87873400Y-131768980D01*
X87921019Y-131721361D01*
X88016257Y-131673742D01*
X88111495Y-131673742D01*
X88254352Y-131721361D01*
X88825780Y-132292790D01*
X88825780Y-131673742D01*
X70613380Y-174245495D02*
X69613380Y-174245495D01*
X69613380Y-174007400D01*
X69661000Y-173864542D01*
X69756238Y-173769304D01*
X69851476Y-173721685D01*
X70041952Y-173674066D01*
X70184809Y-173674066D01*
X70375285Y-173721685D01*
X70470523Y-173769304D01*
X70565761Y-173864542D01*
X70613380Y-174007400D01*
X70613380Y-174245495D01*
X70613380Y-172721685D02*
X70613380Y-173293114D01*
X70613380Y-173007400D02*
X69613380Y-173007400D01*
X69756238Y-173102638D01*
X69851476Y-173197876D01*
X69899095Y-173293114D01*
X70243380Y-168689304D02*
X69243380Y-168689304D01*
X70243380Y-168117876D02*
X69671952Y-168546447D01*
X69243380Y-168117876D02*
X69814809Y-168689304D01*
X75611642Y-172407566D02*
X75659261Y-172455185D01*
X75706880Y-172598042D01*
X75706880Y-172693280D01*
X75659261Y-172836138D01*
X75564023Y-172931376D01*
X75468785Y-172978995D01*
X75278309Y-173026614D01*
X75135452Y-173026614D01*
X74944976Y-172978995D01*
X74849738Y-172931376D01*
X74754500Y-172836138D01*
X74706880Y-172693280D01*
X74706880Y-172598042D01*
X74754500Y-172455185D01*
X74802119Y-172407566D01*
X75706880Y-171455185D02*
X75706880Y-172026614D01*
X75706880Y-171740900D02*
X74706880Y-171740900D01*
X74849738Y-171836138D01*
X74944976Y-171931376D01*
X74992595Y-172026614D01*
X92119142Y-176729066D02*
X92166761Y-176776685D01*
X92214380Y-176919542D01*
X92214380Y-177014780D01*
X92166761Y-177157638D01*
X92071523Y-177252876D01*
X91976285Y-177300495D01*
X91785809Y-177348114D01*
X91642952Y-177348114D01*
X91452476Y-177300495D01*
X91357238Y-177252876D01*
X91262000Y-177157638D01*
X91214380Y-177014780D01*
X91214380Y-176919542D01*
X91262000Y-176776685D01*
X91309619Y-176729066D01*
X91309619Y-176348114D02*
X91262000Y-176300495D01*
X91214380Y-176205257D01*
X91214380Y-175967161D01*
X91262000Y-175871923D01*
X91309619Y-175824304D01*
X91404857Y-175776685D01*
X91500095Y-175776685D01*
X91642952Y-175824304D01*
X92214380Y-176395733D01*
X92214380Y-175776685D01*
X78994095Y-164244780D02*
X78994095Y-165054304D01*
X79041714Y-165149542D01*
X79089333Y-165197161D01*
X79184571Y-165244780D01*
X79375047Y-165244780D01*
X79470285Y-165197161D01*
X79517904Y-165149542D01*
X79565523Y-165054304D01*
X79565523Y-164244780D01*
X80565523Y-165244780D02*
X79994095Y-165244780D01*
X80279809Y-165244780D02*
X80279809Y-164244780D01*
X80184571Y-164387638D01*
X80089333Y-164482876D01*
X79994095Y-164530495D01*
X19605666Y-159853380D02*
X19605666Y-160567666D01*
X19558047Y-160710523D01*
X19462809Y-160805761D01*
X19319952Y-160853380D01*
X19224714Y-160853380D01*
X19986619Y-159853380D02*
X20605666Y-159853380D01*
X20272333Y-160234333D01*
X20415190Y-160234333D01*
X20510428Y-160281952D01*
X20558047Y-160329571D01*
X20605666Y-160424809D01*
X20605666Y-160662904D01*
X20558047Y-160758142D01*
X20510428Y-160805761D01*
X20415190Y-160853380D01*
X20129476Y-160853380D01*
X20034238Y-160805761D01*
X19986619Y-160758142D01*
X65278095Y-129202380D02*
X65278095Y-130011904D01*
X65325714Y-130107142D01*
X65373333Y-130154761D01*
X65468571Y-130202380D01*
X65659047Y-130202380D01*
X65754285Y-130154761D01*
X65801904Y-130107142D01*
X65849523Y-130011904D01*
X65849523Y-129202380D01*
X66278095Y-129297619D02*
X66325714Y-129250000D01*
X66420952Y-129202380D01*
X66659047Y-129202380D01*
X66754285Y-129250000D01*
X66801904Y-129297619D01*
X66849523Y-129392857D01*
X66849523Y-129488095D01*
X66801904Y-129630952D01*
X66230476Y-130202380D01*
X66849523Y-130202380D01*
X78049523Y-135282380D02*
X77716190Y-134806190D01*
X77478095Y-135282380D02*
X77478095Y-134282380D01*
X77859047Y-134282380D01*
X77954285Y-134330000D01*
X78001904Y-134377619D01*
X78049523Y-134472857D01*
X78049523Y-134615714D01*
X78001904Y-134710952D01*
X77954285Y-134758571D01*
X77859047Y-134806190D01*
X77478095Y-134806190D01*
X78478095Y-135282380D02*
X78478095Y-134282380D01*
X79049523Y-135282380D01*
X79049523Y-134282380D01*
X79430476Y-134282380D02*
X80049523Y-134282380D01*
X79716190Y-134663333D01*
X79859047Y-134663333D01*
X79954285Y-134710952D01*
X80001904Y-134758571D01*
X80049523Y-134853809D01*
X80049523Y-135091904D01*
X80001904Y-135187142D01*
X79954285Y-135234761D01*
X79859047Y-135282380D01*
X79573333Y-135282380D01*
X79478095Y-135234761D01*
X79430476Y-135187142D01*
X87825780Y-160200933D02*
X88540066Y-160200933D01*
X88682923Y-160248552D01*
X88778161Y-160343790D01*
X88825780Y-160486647D01*
X88825780Y-160581885D01*
X87825780Y-159248552D02*
X87825780Y-159724742D01*
X88301971Y-159772361D01*
X88254352Y-159724742D01*
X88206733Y-159629504D01*
X88206733Y-159391409D01*
X88254352Y-159296171D01*
X88301971Y-159248552D01*
X88397209Y-159200933D01*
X88635304Y-159200933D01*
X88730542Y-159248552D01*
X88778161Y-159296171D01*
X88825780Y-159391409D01*
X88825780Y-159629504D01*
X88778161Y-159724742D01*
X88730542Y-159772361D01*
X87825780Y-137563123D02*
X88540066Y-137563123D01*
X88682923Y-137610742D01*
X88778161Y-137705980D01*
X88825780Y-137848838D01*
X88825780Y-137944076D01*
X88825780Y-136563123D02*
X88825780Y-137134552D01*
X88825780Y-136848838D02*
X87825780Y-136848838D01*
X87968638Y-136944076D01*
X88063876Y-137039314D01*
X88111495Y-137134552D01*
X88825780Y-135610742D02*
X88825780Y-136182171D01*
X88825780Y-135896457D02*
X87825780Y-135896457D01*
X87968638Y-135991695D01*
X88063876Y-136086933D01*
X88111495Y-136182171D01*
X17050380Y-174982095D02*
X16050380Y-174982095D01*
X16050380Y-174744000D01*
X16098000Y-174601142D01*
X16193238Y-174505904D01*
X16288476Y-174458285D01*
X16478952Y-174410666D01*
X16621809Y-174410666D01*
X16812285Y-174458285D01*
X16907523Y-174505904D01*
X17002761Y-174601142D01*
X17050380Y-174744000D01*
X17050380Y-174982095D01*
X16145619Y-174029714D02*
X16098000Y-173982095D01*
X16050380Y-173886857D01*
X16050380Y-173648761D01*
X16098000Y-173553523D01*
X16145619Y-173505904D01*
X16240857Y-173458285D01*
X16336095Y-173458285D01*
X16478952Y-173505904D01*
X17050380Y-174077333D01*
X17050380Y-173458285D01*
X35814095Y-167644380D02*
X35814095Y-168453904D01*
X35861714Y-168549142D01*
X35909333Y-168596761D01*
X36004571Y-168644380D01*
X36195047Y-168644380D01*
X36290285Y-168596761D01*
X36337904Y-168549142D01*
X36385523Y-168453904D01*
X36385523Y-167644380D01*
X36766476Y-167644380D02*
X37385523Y-167644380D01*
X37052190Y-168025333D01*
X37195047Y-168025333D01*
X37290285Y-168072952D01*
X37337904Y-168120571D01*
X37385523Y-168215809D01*
X37385523Y-168453904D01*
X37337904Y-168549142D01*
X37290285Y-168596761D01*
X37195047Y-168644380D01*
X36909333Y-168644380D01*
X36814095Y-168596761D01*
X36766476Y-168549142D01*
X87825780Y-141500123D02*
X88540066Y-141500123D01*
X88682923Y-141547742D01*
X88778161Y-141642980D01*
X88825780Y-141785838D01*
X88825780Y-141881076D01*
X88825780Y-140500123D02*
X88825780Y-141071552D01*
X88825780Y-140785838D02*
X87825780Y-140785838D01*
X87968638Y-140881076D01*
X88063876Y-140976314D01*
X88111495Y-141071552D01*
X87825780Y-139881076D02*
X87825780Y-139785838D01*
X87873400Y-139690600D01*
X87921019Y-139642980D01*
X88016257Y-139595361D01*
X88206733Y-139547742D01*
X88444828Y-139547742D01*
X88635304Y-139595361D01*
X88730542Y-139642980D01*
X88778161Y-139690600D01*
X88825780Y-139785838D01*
X88825780Y-139881076D01*
X88778161Y-139976314D01*
X88730542Y-140023933D01*
X88635304Y-140071552D01*
X88444828Y-140119171D01*
X88206733Y-140119171D01*
X88016257Y-140071552D01*
X87921019Y-140023933D01*
X87873400Y-139976314D01*
X87825780Y-139881076D01*
X87825780Y-144833933D02*
X88540066Y-144833933D01*
X88682923Y-144881552D01*
X88778161Y-144976790D01*
X88825780Y-145119647D01*
X88825780Y-145214885D01*
X88825780Y-144310123D02*
X88825780Y-144119647D01*
X88778161Y-144024409D01*
X88730542Y-143976790D01*
X88587685Y-143881552D01*
X88397209Y-143833933D01*
X88016257Y-143833933D01*
X87921019Y-143881552D01*
X87873400Y-143929171D01*
X87825780Y-144024409D01*
X87825780Y-144214885D01*
X87873400Y-144310123D01*
X87921019Y-144357742D01*
X88016257Y-144405361D01*
X88254352Y-144405361D01*
X88349590Y-144357742D01*
X88397209Y-144310123D01*
X88444828Y-144214885D01*
X88444828Y-144024409D01*
X88397209Y-143929171D01*
X88349590Y-143881552D01*
X88254352Y-143833933D01*
X87825780Y-148643933D02*
X88540066Y-148643933D01*
X88682923Y-148691552D01*
X88778161Y-148786790D01*
X88825780Y-148929647D01*
X88825780Y-149024885D01*
X88254352Y-148024885D02*
X88206733Y-148120123D01*
X88159114Y-148167742D01*
X88063876Y-148215361D01*
X88016257Y-148215361D01*
X87921019Y-148167742D01*
X87873400Y-148120123D01*
X87825780Y-148024885D01*
X87825780Y-147834409D01*
X87873400Y-147739171D01*
X87921019Y-147691552D01*
X88016257Y-147643933D01*
X88063876Y-147643933D01*
X88159114Y-147691552D01*
X88206733Y-147739171D01*
X88254352Y-147834409D01*
X88254352Y-148024885D01*
X88301971Y-148120123D01*
X88349590Y-148167742D01*
X88444828Y-148215361D01*
X88635304Y-148215361D01*
X88730542Y-148167742D01*
X88778161Y-148120123D01*
X88825780Y-148024885D01*
X88825780Y-147834409D01*
X88778161Y-147739171D01*
X88730542Y-147691552D01*
X88635304Y-147643933D01*
X88444828Y-147643933D01*
X88349590Y-147691552D01*
X88301971Y-147739171D01*
X88254352Y-147834409D01*
X87825780Y-152453933D02*
X88540066Y-152453933D01*
X88682923Y-152501552D01*
X88778161Y-152596790D01*
X88825780Y-152739647D01*
X88825780Y-152834885D01*
X87825780Y-152072980D02*
X87825780Y-151406314D01*
X88825780Y-151834885D01*
X87825780Y-156390933D02*
X88540066Y-156390933D01*
X88682923Y-156438552D01*
X88778161Y-156533790D01*
X88825780Y-156676647D01*
X88825780Y-156771885D01*
X87825780Y-155486171D02*
X87825780Y-155676647D01*
X87873400Y-155771885D01*
X87921019Y-155819504D01*
X88063876Y-155914742D01*
X88254352Y-155962361D01*
X88635304Y-155962361D01*
X88730542Y-155914742D01*
X88778161Y-155867123D01*
X88825780Y-155771885D01*
X88825780Y-155581409D01*
X88778161Y-155486171D01*
X88730542Y-155438552D01*
X88635304Y-155390933D01*
X88397209Y-155390933D01*
X88301971Y-155438552D01*
X88254352Y-155486171D01*
X88206733Y-155581409D01*
X88206733Y-155771885D01*
X88254352Y-155867123D01*
X88301971Y-155914742D01*
X88397209Y-155962361D01*
X51340666Y-171024380D02*
X51340666Y-171738666D01*
X51293047Y-171881523D01*
X51197809Y-171976761D01*
X51054952Y-172024380D01*
X50959714Y-172024380D01*
X52340666Y-172024380D02*
X51769238Y-172024380D01*
X52054952Y-172024380D02*
X52054952Y-171024380D01*
X51959714Y-171167238D01*
X51864476Y-171262476D01*
X51769238Y-171310095D01*
X22184380Y-166536666D02*
X21708190Y-166870000D01*
X22184380Y-167108095D02*
X21184380Y-167108095D01*
X21184380Y-166727142D01*
X21232000Y-166631904D01*
X21279619Y-166584285D01*
X21374857Y-166536666D01*
X21517714Y-166536666D01*
X21612952Y-166584285D01*
X21660571Y-166631904D01*
X21708190Y-166727142D01*
X21708190Y-167108095D01*
X22184380Y-165584285D02*
X22184380Y-166155714D01*
X22184380Y-165870000D02*
X21184380Y-165870000D01*
X21327238Y-165965238D01*
X21422476Y-166060476D01*
X21470095Y-166155714D01*
X23792380Y-170767333D02*
X24506666Y-170767333D01*
X24649523Y-170814952D01*
X24744761Y-170910190D01*
X24792380Y-171053047D01*
X24792380Y-171148285D01*
X24125714Y-169862571D02*
X24792380Y-169862571D01*
X23744761Y-170100666D02*
X24459047Y-170338761D01*
X24459047Y-169719714D01*
X53932380Y-144200476D02*
X53456190Y-144533809D01*
X53932380Y-144771904D02*
X52932380Y-144771904D01*
X52932380Y-144390952D01*
X52980000Y-144295714D01*
X53027619Y-144248095D01*
X53122857Y-144200476D01*
X53265714Y-144200476D01*
X53360952Y-144248095D01*
X53408571Y-144295714D01*
X53456190Y-144390952D01*
X53456190Y-144771904D01*
X53932380Y-143771904D02*
X52932380Y-143771904D01*
X53932380Y-143200476D01*
X52932380Y-143200476D01*
X53027619Y-142771904D02*
X52980000Y-142724285D01*
X52932380Y-142629047D01*
X52932380Y-142390952D01*
X52980000Y-142295714D01*
X53027619Y-142248095D01*
X53122857Y-142200476D01*
X53218095Y-142200476D01*
X53360952Y-142248095D01*
X53932380Y-142819523D01*
X53932380Y-142200476D01*
X71432380Y-116260476D02*
X70956190Y-116593809D01*
X71432380Y-116831904D02*
X70432380Y-116831904D01*
X70432380Y-116450952D01*
X70480000Y-116355714D01*
X70527619Y-116308095D01*
X70622857Y-116260476D01*
X70765714Y-116260476D01*
X70860952Y-116308095D01*
X70908571Y-116355714D01*
X70956190Y-116450952D01*
X70956190Y-116831904D01*
X71432380Y-115831904D02*
X70432380Y-115831904D01*
X71432380Y-115260476D01*
X70432380Y-115260476D01*
X71432380Y-114260476D02*
X71432380Y-114831904D01*
X71432380Y-114546190D02*
X70432380Y-114546190D01*
X70575238Y-114641428D01*
X70670476Y-114736666D01*
X70718095Y-114831904D01*
X43040380Y-149010666D02*
X42564190Y-149344000D01*
X43040380Y-149582095D02*
X42040380Y-149582095D01*
X42040380Y-149201142D01*
X42088000Y-149105904D01*
X42135619Y-149058285D01*
X42230857Y-149010666D01*
X42373714Y-149010666D01*
X42468952Y-149058285D01*
X42516571Y-149105904D01*
X42564190Y-149201142D01*
X42564190Y-149582095D01*
X42135619Y-148629714D02*
X42088000Y-148582095D01*
X42040380Y-148486857D01*
X42040380Y-148248761D01*
X42088000Y-148153523D01*
X42135619Y-148105904D01*
X42230857Y-148058285D01*
X42326095Y-148058285D01*
X42468952Y-148105904D01*
X43040380Y-148677333D01*
X43040380Y-148058285D01*
X27098666Y-161226380D02*
X27098666Y-161940666D01*
X27051047Y-162083523D01*
X26955809Y-162178761D01*
X26812952Y-162226380D01*
X26717714Y-162226380D01*
X27527238Y-161321619D02*
X27574857Y-161274000D01*
X27670095Y-161226380D01*
X27908190Y-161226380D01*
X28003428Y-161274000D01*
X28051047Y-161321619D01*
X28098666Y-161416857D01*
X28098666Y-161512095D01*
X28051047Y-161654952D01*
X27479619Y-162226380D01*
X28098666Y-162226380D01*
X50571666Y-104238571D02*
X50714523Y-104286190D01*
X50762142Y-104333809D01*
X50809761Y-104429047D01*
X50809761Y-104571904D01*
X50762142Y-104667142D01*
X50714523Y-104714761D01*
X50619285Y-104762380D01*
X50238333Y-104762380D01*
X50238333Y-103762380D01*
X50571666Y-103762380D01*
X50666904Y-103810000D01*
X50714523Y-103857619D01*
X50762142Y-103952857D01*
X50762142Y-104048095D01*
X50714523Y-104143333D01*
X50666904Y-104190952D01*
X50571666Y-104238571D01*
X50238333Y-104238571D01*
X51190714Y-104476666D02*
X51666904Y-104476666D01*
X51095476Y-104762380D02*
X51428809Y-103762380D01*
X51762142Y-104762380D01*
X52666904Y-104762380D02*
X52333571Y-104286190D01*
X52095476Y-104762380D02*
X52095476Y-103762380D01*
X52476428Y-103762380D01*
X52571666Y-103810000D01*
X52619285Y-103857619D01*
X52666904Y-103952857D01*
X52666904Y-104095714D01*
X52619285Y-104190952D01*
X52571666Y-104238571D01*
X52476428Y-104286190D01*
X52095476Y-104286190D01*
X53619285Y-104762380D02*
X53047857Y-104762380D01*
X53333571Y-104762380D02*
X53333571Y-103762380D01*
X53238333Y-103905238D01*
X53143095Y-104000476D01*
X53047857Y-104048095D01*
M02*
