M48
; DRILL file {KiCad 5.1.5+dfsg1-2build2} date Fri 20 Aug 2021 16:46:58 CEST
; FORMAT={-:-/ absolute / inch / decimal}
; #@! TF.CreationDate,2021-08-20T16:46:58+02:00
; #@! TF.GenerationSoftware,Kicad,Pcbnew,5.1.5+dfsg1-2build2
; #@! TF.FileFunction,Plated,1,2,PTH
FMAT,2
INCH
T1C0.0157
T2C0.0315
T3C0.0360
T4C0.0394
T5C0.0433
T6C0.0520
T7C0.0591
%
G90
G05
T1
X0.678Y-5.466
X0.92Y-5.7225
X0.9315Y-5.6645
X0.9838Y-5.8062
X1.04Y-5.81
X1.04Y-5.915
X1.0912Y-5.81
X1.118Y-5.6665
X1.1508Y-5.2677
X1.163Y-5.5484
X1.1675Y-6.2175
X1.176Y-5.771
X1.1941Y-5.3008
X1.2Y-5.49
X1.2303Y-5.2689
X1.355Y-5.2681
X1.4145Y-5.507
X1.4325Y-5.355
X1.4375Y-5.43
X1.5025Y-5.2675
X1.5275Y-5.375
X1.5325Y-5.55
X1.555Y-5.625
X1.6075Y-5.5475
X1.615Y-5.4375
X1.625Y-5.635
X1.65Y-5.56
X1.7875Y-5.56
X1.8125Y-5.245
X1.84Y-5.78
X1.8524Y-6.0249
X1.865Y-5.6025
X1.8775Y-5.16
X1.88Y-5.755
X1.9Y-6.04
X1.925Y-5.715
X1.938Y-6.015
X2.008Y-6.126
X2.01Y-5.58
X2.0325Y-5.6125
X2.049Y-6.11
X2.07Y-5.255
X2.19Y-5.2
X2.2111Y-5.0411
X2.265Y-4.92
X2.2652Y-5.5002
X2.27Y-5.27
X2.2718Y-4.8668
X2.4849Y-5.875
X2.485Y-6.125
X2.606Y-5.235
X2.61Y-6.235
X2.66Y-5.045
X2.6788Y-6.1141
X2.7111Y-4.7041
X2.92Y-6.02
X3.19Y-6.145
T2
X0.72Y-4.8125
X0.72Y-4.9125
X0.72Y-5.0125
X0.72Y-5.1125
X0.72Y-5.2125
X0.72Y-5.3125
X0.72Y-5.4125
X0.72Y-5.5125
X0.72Y-5.6125
X0.72Y-5.7125
X0.72Y-5.8125
X0.72Y-5.9125
X0.72Y-6.0125
X0.72Y-6.1125
X0.72Y-6.2125
X0.72Y-6.3125
X0.72Y-6.4125
X0.82Y-4.8125
X0.82Y-4.9125
X0.82Y-5.0125
X0.82Y-5.1125
X0.82Y-5.2125
X0.82Y-5.3125
X0.82Y-5.4125
X0.82Y-5.5125
X0.82Y-5.6125
X0.82Y-5.7125
X0.82Y-5.8125
X0.82Y-5.9125
X0.82Y-6.0125
X0.82Y-6.1125
X0.82Y-6.2125
X0.82Y-6.3125
X0.82Y-6.4125
T3
X1.46Y-4.255
X1.46Y-4.355
X1.46Y-4.455
X1.46Y-4.555
X1.46Y-4.655
X1.46Y-4.755
X1.46Y-4.855
X1.46Y-4.955
X1.46Y-5.055
X1.46Y-5.155
X1.76Y-4.255
X1.76Y-4.355
X1.76Y-4.455
X1.76Y-4.555
X1.76Y-4.655
X1.76Y-4.755
X1.76Y-4.855
X1.76Y-4.955
X1.76Y-5.055
X1.76Y-5.155
T4
X3.675Y-4.95
X3.775Y-4.95
X3.875Y-4.95
X3.675Y-5.825
X3.775Y-5.825
X3.875Y-5.825
X3.675Y-5.24
X3.775Y-5.24
X3.875Y-5.24
X3.675Y-5.095
X3.775Y-5.095
X3.875Y-5.095
X1.025Y-4.3
X1.025Y-4.4
X1.025Y-4.5
X1.025Y-4.6
X1.025Y-4.7
X1.025Y-4.8
X1.025Y-4.9
X1.025Y-5.0
X1.125Y-4.3
X1.125Y-4.4
X1.125Y-4.5
X1.125Y-4.6
X1.125Y-4.7
X1.125Y-4.8
X1.125Y-4.9
X1.125Y-5.0
X3.675Y-4.805
X3.775Y-4.805
X3.875Y-4.805
X3.675Y-5.39
X3.775Y-5.39
X3.875Y-5.39
X3.675Y-5.68
X3.775Y-5.68
X3.875Y-5.68
X3.675Y-5.535
X3.775Y-5.535
X3.875Y-5.535
T5
X3.177Y-6.3464
X3.177Y-6.5236
X3.433Y-6.3464
X3.433Y-6.5236
X2.452Y-6.3464
X2.452Y-6.5236
X2.708Y-6.3464
X2.708Y-6.5236
X2.817Y-6.3464
X2.817Y-6.5236
X3.073Y-6.3464
X3.073Y-6.5236
X2.082Y-6.3464
X2.082Y-6.5236
X2.338Y-6.3464
X2.338Y-6.5236
T6
X1.555Y-6.345
X1.7519Y-6.345
T7
X3.295Y-4.4
X3.4919Y-4.4
X3.6887Y-4.4
X3.8856Y-4.4
X2.475Y-4.4
X2.6719Y-4.4
X2.8687Y-4.4
X3.0656Y-4.4
T0
M30
