%TF.GenerationSoftware,KiCad,Pcbnew,5.1.4-e60b266~84~ubuntu18.04.1*%
%TF.CreationDate,2019-11-15T18:23:48+01:00*%
%TF.ProjectId,sboxnet-weichenservo,73626f78-6e65-4742-9d77-65696368656e,rev?*%
%TF.SameCoordinates,Original*%
%TF.FileFunction,Soldermask,Bot*%
%TF.FilePolarity,Negative*%
%FSLAX46Y46*%
G04 Gerber Fmt 4.6, Leading zero omitted, Abs format (unit mm)*
G04 Created by KiCad (PCBNEW 5.1.4-e60b266~84~ubuntu18.04.1) date 2019-11-15 18:23:48*
%MOMM*%
%LPD*%
G04 APERTURE LIST*
%ADD10O,1.700000X1.700000*%
%ADD11R,1.700000X1.700000*%
%ADD12O,2.200000X2.200000*%
%ADD13R,2.200000X2.200000*%
%ADD14C,1.600000*%
%ADD15O,1.600000X1.600000*%
%ADD16O,2.000000X2.000000*%
%ADD17R,2.000000X2.000000*%
%ADD18O,1.905000X2.000000*%
%ADD19R,1.905000X2.000000*%
%ADD20C,1.524000*%
%ADD21R,1.524000X1.524000*%
%ADD22R,1.600000X1.600000*%
%ADD23C,1.800000*%
%ADD24R,1.800000X1.800000*%
%ADD25O,1.980000X3.960000*%
%ADD26R,1.980000X3.960000*%
%ADD27O,1.400000X1.400000*%
%ADD28C,1.400000*%
%ADD29C,2.032000*%
%ADD30R,2.032000X2.032000*%
G04 APERTURE END LIST*
D10*
X95783400Y-132816600D03*
X93243400Y-132816600D03*
D11*
X90703400Y-132816600D03*
D12*
X67691000Y-178587400D03*
D13*
X67691000Y-168427400D03*
D14*
X72834500Y-168490900D03*
D15*
X72834500Y-175990900D03*
D16*
X88392000Y-184062400D03*
D17*
X88392000Y-169062400D03*
D18*
X82296000Y-169062400D03*
X79756000Y-169062400D03*
D19*
X77216000Y-169062400D03*
D20*
X19685000Y-116967000D03*
X19685000Y-119507000D03*
X19685000Y-122047000D03*
X19685000Y-124587000D03*
X19685000Y-127127000D03*
X19685000Y-129667000D03*
X19685000Y-132207000D03*
X22225000Y-116967000D03*
X22225000Y-119507000D03*
X22225000Y-122047000D03*
X22225000Y-124587000D03*
X22225000Y-127127000D03*
X22225000Y-129667000D03*
X22225000Y-132207000D03*
X19685000Y-134747000D03*
X22225000Y-134747000D03*
X19685000Y-137287000D03*
X22225000Y-137287000D03*
X19685000Y-139827000D03*
X22225000Y-139827000D03*
X19685000Y-142367000D03*
X22225000Y-142367000D03*
X19685000Y-144907000D03*
X22225000Y-144907000D03*
X19685000Y-147447000D03*
X22225000Y-147447000D03*
X19685000Y-149987000D03*
X22225000Y-149987000D03*
X19685000Y-152527000D03*
X22225000Y-152527000D03*
X19685000Y-155067000D03*
X22225000Y-155067000D03*
D21*
X19685000Y-157607000D03*
D20*
X22225000Y-157607000D03*
D15*
X69850000Y-132080000D03*
X62230000Y-154940000D03*
X69850000Y-134620000D03*
X62230000Y-152400000D03*
X69850000Y-137160000D03*
X62230000Y-149860000D03*
X69850000Y-139700000D03*
X62230000Y-147320000D03*
X69850000Y-142240000D03*
X62230000Y-144780000D03*
X69850000Y-144780000D03*
X62230000Y-142240000D03*
X69850000Y-147320000D03*
X62230000Y-139700000D03*
X69850000Y-149860000D03*
X62230000Y-137160000D03*
X69850000Y-152400000D03*
X62230000Y-134620000D03*
X69850000Y-154940000D03*
D22*
X62230000Y-132080000D03*
D15*
X82550000Y-137160000D03*
X74930000Y-154940000D03*
X82550000Y-139700000D03*
X74930000Y-152400000D03*
X82550000Y-142240000D03*
X74930000Y-149860000D03*
X82550000Y-144780000D03*
X74930000Y-147320000D03*
X82550000Y-147320000D03*
X74930000Y-144780000D03*
X82550000Y-149860000D03*
X74930000Y-142240000D03*
X82550000Y-152400000D03*
X74930000Y-139700000D03*
X82550000Y-154940000D03*
D22*
X74930000Y-137160000D03*
D10*
X95783400Y-159867600D03*
X93243400Y-159867600D03*
D11*
X90703400Y-159867600D03*
D10*
X95783400Y-136753600D03*
X93243400Y-136753600D03*
D11*
X90703400Y-136753600D03*
D23*
X19558000Y-172974000D03*
D24*
X19558000Y-175514000D03*
D15*
X32766000Y-165862000D03*
X40386000Y-148082000D03*
X32766000Y-163322000D03*
X40386000Y-150622000D03*
X32766000Y-160782000D03*
X40386000Y-153162000D03*
X32766000Y-158242000D03*
X40386000Y-155702000D03*
X32766000Y-155702000D03*
X40386000Y-158242000D03*
X32766000Y-153162000D03*
X40386000Y-160782000D03*
X32766000Y-150622000D03*
X40386000Y-163322000D03*
X32766000Y-148082000D03*
D22*
X40386000Y-165862000D03*
D10*
X95783400Y-140690600D03*
X93243400Y-140690600D03*
D11*
X90703400Y-140690600D03*
D10*
X95783400Y-144500600D03*
X93243400Y-144500600D03*
D11*
X90703400Y-144500600D03*
D10*
X95783400Y-148310600D03*
X93243400Y-148310600D03*
D11*
X90703400Y-148310600D03*
D10*
X95783400Y-152120600D03*
X93243400Y-152120600D03*
D11*
X90703400Y-152120600D03*
D10*
X95783400Y-156057600D03*
X93243400Y-156057600D03*
D11*
X90703400Y-156057600D03*
D25*
X58594000Y-178562000D03*
D26*
X53594000Y-178562000D03*
D27*
X19812000Y-168910000D03*
D28*
X19812000Y-163830000D03*
D10*
X46990000Y-170434000D03*
X44450000Y-170434000D03*
X41910000Y-170434000D03*
X39370000Y-170434000D03*
X36830000Y-170434000D03*
X34290000Y-170434000D03*
X31750000Y-170434000D03*
X29210000Y-170434000D03*
D11*
X26670000Y-170434000D03*
D15*
X55880000Y-134620000D03*
X55880000Y-137160000D03*
X55880000Y-139700000D03*
X55880000Y-142240000D03*
X55880000Y-144780000D03*
X55880000Y-147320000D03*
X55880000Y-149860000D03*
X55880000Y-152400000D03*
D22*
X55880000Y-154940000D03*
D15*
X68580000Y-124460000D03*
X68580000Y-121920000D03*
X68580000Y-119380000D03*
X68580000Y-116840000D03*
X68580000Y-114300000D03*
X68580000Y-111760000D03*
X68580000Y-109220000D03*
X68580000Y-106680000D03*
D22*
X68580000Y-104140000D03*
D15*
X44958000Y-146304000D03*
D14*
X44958000Y-151384000D03*
D10*
X27432000Y-148844000D03*
X27432000Y-151384000D03*
X27432000Y-153924000D03*
X27432000Y-156464000D03*
D11*
X27432000Y-159004000D03*
D29*
X59055000Y-106680000D03*
X59055000Y-109220000D03*
X59055000Y-111760000D03*
X59055000Y-114300000D03*
X51435000Y-127000000D03*
X51435000Y-129540000D03*
X59055000Y-129540000D03*
X59055000Y-127000000D03*
X51435000Y-124460000D03*
X51435000Y-121920000D03*
X51435000Y-119380000D03*
X51435000Y-116840000D03*
X59055000Y-116840000D03*
X59055000Y-119380000D03*
X59055000Y-121920000D03*
X59055000Y-124460000D03*
X51435000Y-114300000D03*
X51435000Y-111760000D03*
X51435000Y-109220000D03*
D30*
X51435000Y-106680000D03*
M02*
