M48
; DRILL file {KiCad 5.1.4-e60b266~84~ubuntu18.04.1} date Fri 15 Nov 2019 18:24:01 CET
; FORMAT={-:-/ absolute / inch / decimal}
; #@! TF.CreationDate,2019-11-15T18:24:01+01:00
; #@! TF.GenerationSoftware,Kicad,Pcbnew,5.1.4-e60b266~84~ubuntu18.04.1
; #@! TF.FileFunction,Plated,1,2,PTH
FMAT,2
INCH
T1C0.0276
T2C0.0315
T3C0.0354
T4C0.0360
T5C0.0394
T6C0.0433
T7C0.0520
%
G90
G05
T1
X0.78Y-6.45
X0.78Y-6.65
T2
X1.29Y-5.83
X1.29Y-5.93
X1.29Y-6.03
X1.29Y-6.13
X1.29Y-6.23
X1.29Y-6.33
X1.29Y-6.43
X1.29Y-6.53
X1.59Y-5.83
X1.59Y-5.93
X1.59Y-6.03
X1.59Y-6.13
X1.59Y-6.23
X1.59Y-6.33
X1.59Y-6.43
X1.59Y-6.53
X2.2Y-5.3
X2.2Y-5.4
X2.2Y-5.5
X2.2Y-5.6
X2.2Y-5.7
X2.2Y-5.8
X2.2Y-5.9
X2.2Y-6.0
X2.2Y-6.1
X2.7Y-4.1
X2.7Y-4.2
X2.7Y-4.3
X2.7Y-4.4
X2.7Y-4.5
X2.7Y-4.6
X2.7Y-4.7
X2.7Y-4.8
X2.7Y-4.9
X2.8675Y-6.6335
X2.8675Y-6.9288
X1.77Y-5.76
X1.77Y-5.96
X0.775Y-4.605
X0.775Y-4.705
X0.775Y-4.805
X0.775Y-4.905
X0.775Y-5.005
X0.775Y-5.105
X0.775Y-5.205
X0.775Y-5.305
X0.775Y-5.405
X0.775Y-5.505
X0.775Y-5.605
X0.775Y-5.705
X0.775Y-5.805
X0.775Y-5.905
X0.775Y-6.005
X0.775Y-6.105
X0.775Y-6.205
X0.875Y-4.605
X0.875Y-4.705
X0.875Y-4.805
X0.875Y-4.905
X0.875Y-5.005
X0.875Y-5.105
X0.875Y-5.205
X0.875Y-5.305
X0.875Y-5.405
X0.875Y-5.505
X0.875Y-5.605
X0.875Y-5.705
X0.875Y-5.805
X0.875Y-5.905
X0.875Y-6.005
X0.875Y-6.105
X0.875Y-6.205
X2.45Y-5.2
X2.45Y-5.3
X2.45Y-5.4
X2.45Y-5.5
X2.45Y-5.6
X2.45Y-5.7
X2.45Y-5.8
X2.45Y-5.9
X2.45Y-6.0
X2.45Y-6.1
X2.75Y-5.2
X2.75Y-5.3
X2.75Y-5.4
X2.75Y-5.5
X2.75Y-5.6
X2.75Y-5.7
X2.75Y-5.8
X2.75Y-5.9
X2.75Y-6.0
X2.75Y-6.1
X2.95Y-5.4
X2.95Y-5.5
X2.95Y-5.6
X2.95Y-5.7
X2.95Y-5.8
X2.95Y-5.9
X2.95Y-6.0
X2.95Y-6.1
X3.25Y-5.4
X3.25Y-5.5
X3.25Y-5.6
X3.25Y-5.7
X3.25Y-5.8
X3.25Y-5.9
X3.25Y-6.0
X3.25Y-6.1
T3
X0.77Y-6.81
X0.77Y-6.91
T4
X2.025Y-4.2
X2.025Y-4.3
X2.025Y-4.4
X2.025Y-4.5
X2.025Y-4.6
X2.025Y-4.7
X2.025Y-4.8
X2.025Y-4.9
X2.025Y-5.0
X2.025Y-5.1
X2.325Y-4.2
X2.325Y-4.3
X2.325Y-4.4
X2.325Y-4.5
X2.325Y-4.6
X2.325Y-4.7
X2.325Y-4.8
X2.325Y-4.9
X2.325Y-5.0
X2.325Y-5.1
T5
X3.571Y-5.229
X3.671Y-5.229
X3.771Y-5.229
X3.571Y-5.989
X3.671Y-5.989
X3.771Y-5.989
X3.571Y-6.144
X3.671Y-6.144
X3.771Y-6.144
X3.571Y-5.839
X3.671Y-5.839
X3.771Y-5.839
X3.571Y-5.384
X3.671Y-5.384
X3.771Y-5.384
X3.571Y-5.689
X3.671Y-5.689
X3.771Y-5.689
X3.571Y-5.539
X3.671Y-5.539
X3.771Y-5.539
X3.48Y-6.656
X3.48Y-7.2466
X3.571Y-6.294
X3.671Y-6.294
X3.771Y-6.294
X1.08Y-5.86
X1.08Y-5.96
X1.08Y-6.06
X1.08Y-6.16
X1.08Y-6.26
X1.05Y-6.71
X1.15Y-6.71
X1.25Y-6.71
X1.35Y-6.71
X1.45Y-6.71
X1.55Y-6.71
X1.65Y-6.71
X1.75Y-6.71
X1.85Y-6.71
T6
X3.04Y-6.656
X3.14Y-6.656
X3.24Y-6.656
X2.665Y-6.631
X2.665Y-7.031
T7
X2.11Y-7.03
X2.3069Y-7.03
T0
M30
