M48
; DRILL file {KiCad 5.1.6-c6e7f7d~87~ubuntu18.04.1} date Sun Aug  9 11:44:14 2020
; FORMAT={-:-/ absolute / inch / decimal}
; #@! TF.CreationDate,2020-08-09T11:44:14+02:00
; #@! TF.GenerationSoftware,Kicad,Pcbnew,5.1.6-c6e7f7d~87~ubuntu18.04.1
; #@! TF.FileFunction,Plated,1,2,PTH
FMAT,2
INCH
T1C0.0315
T2C0.0354
T3C0.0394
T4C0.0520
%
G90
G05
T1
X1.15Y-2.1
X1.15Y-2.2
X1.15Y-2.3
X1.15Y-2.4
X1.15Y-2.5
X1.15Y-2.6
X1.15Y-2.7
X1.15Y-2.8
X1.15Y-2.9
X1.15Y-3.0
X1.15Y-3.1
X1.15Y-3.2
X1.15Y-3.3
X1.15Y-3.4
X1.15Y-3.5
X1.15Y-3.6
X1.15Y-3.7
X1.25Y-2.1
X1.25Y-2.2
X1.25Y-2.3
X1.25Y-2.4
X1.25Y-2.5
X1.25Y-2.6
X1.25Y-2.7
X1.25Y-2.8
X1.25Y-2.9
X1.25Y-3.0
X1.25Y-3.1
X1.25Y-3.2
X1.25Y-3.3
X1.25Y-3.4
X1.25Y-3.5
X1.25Y-3.6
X1.25Y-3.7
T2
X1.97Y-2.07
X2.07Y-2.07
X1.97Y-3.23
X2.07Y-3.23
T3
X1.65Y-2.082
X1.456Y-2.108
X1.3937Y-2.5236
T4
X1.58Y-2.7331
X1.58Y-2.93
T0
M30
