G04 #@! TF.GenerationSoftware,KiCad,Pcbnew,5.1.6-c6e7f7d~87~ubuntu18.04.1*
G04 #@! TF.CreationDate,2020-08-09T11:44:03+02:00*
G04 #@! TF.ProjectId,sboxnet-dccgen,73626f78-6e65-4742-9d64-636367656e2e,rev?*
G04 #@! TF.SameCoordinates,Original*
G04 #@! TF.FileFunction,Copper,L2,Bot*
G04 #@! TF.FilePolarity,Positive*
%FSLAX46Y46*%
G04 Gerber Fmt 4.6, Leading zero omitted, Abs format (unit mm)*
G04 Created by KiCad (PCBNEW 5.1.6-c6e7f7d~87~ubuntu18.04.1) date 2020-08-09 11:44:03*
%MOMM*%
%LPD*%
G01*
G04 APERTURE LIST*
G04 #@! TA.AperFunction,NonConductor*
%ADD10C,0.150000*%
G04 #@! TD*
G04 #@! TA.AperFunction,ComponentPad*
%ADD11C,1.524000*%
G04 #@! TD*
G04 #@! TA.AperFunction,ComponentPad*
%ADD12R,1.524000X1.524000*%
G04 #@! TD*
G04 #@! TA.AperFunction,ComponentPad*
%ADD13R,1.700000X1.700000*%
G04 #@! TD*
G04 #@! TA.AperFunction,ComponentPad*
%ADD14C,1.800000*%
G04 #@! TD*
G04 #@! TA.AperFunction,ComponentPad*
%ADD15R,1.800000X1.800000*%
G04 #@! TD*
G04 #@! TA.AperFunction,ComponentPad*
%ADD16O,3.960000X1.980000*%
G04 #@! TD*
G04 #@! TA.AperFunction,ComponentPad*
%ADD17R,3.960000X1.980000*%
G04 #@! TD*
G04 #@! TA.AperFunction,Conductor*
%ADD18C,0.250000*%
G04 #@! TD*
G04 #@! TA.AperFunction,Conductor*
%ADD19C,0.254000*%
G04 #@! TD*
G04 APERTURE END LIST*
D10*
X50043695Y-92960133D02*
X50091314Y-92912514D01*
X50186552Y-92769657D01*
X50234171Y-92674419D01*
X50281790Y-92531561D01*
X50329409Y-92293466D01*
X50329409Y-92102990D01*
X50281790Y-91864895D01*
X50234171Y-91722038D01*
X50186552Y-91626800D01*
X50091314Y-91483942D01*
X50043695Y-91436323D01*
X49234171Y-92531561D02*
X49329409Y-92579180D01*
X49519885Y-92579180D01*
X49615123Y-92531561D01*
X49662742Y-92483942D01*
X49710361Y-92388704D01*
X49710361Y-92102990D01*
X49662742Y-92007752D01*
X49615123Y-91960133D01*
X49519885Y-91912514D01*
X49329409Y-91912514D01*
X49234171Y-91960133D01*
X48900838Y-92960133D02*
X48853219Y-92912514D01*
X48757980Y-92769657D01*
X48710361Y-92674419D01*
X48662742Y-92531561D01*
X48615123Y-92293466D01*
X48615123Y-92102990D01*
X48662742Y-91864895D01*
X48710361Y-91722038D01*
X48757980Y-91626800D01*
X48853219Y-91483942D01*
X48900838Y-91436323D01*
X47186552Y-91579180D02*
X47091314Y-91579180D01*
X46996076Y-91626800D01*
X46948457Y-91674419D01*
X46900838Y-91769657D01*
X46853219Y-91960133D01*
X46853219Y-92198228D01*
X46900838Y-92388704D01*
X46948457Y-92483942D01*
X46996076Y-92531561D01*
X47091314Y-92579180D01*
X47186552Y-92579180D01*
X47281790Y-92531561D01*
X47329409Y-92483942D01*
X47377028Y-92388704D01*
X47424647Y-92198228D01*
X47424647Y-91960133D01*
X47377028Y-91769657D01*
X47329409Y-91674419D01*
X47281790Y-91626800D01*
X47186552Y-91579180D01*
X45948457Y-91579180D02*
X46424647Y-91579180D01*
X46472266Y-92055371D01*
X46424647Y-92007752D01*
X46329409Y-91960133D01*
X46091314Y-91960133D01*
X45996076Y-92007752D01*
X45948457Y-92055371D01*
X45900838Y-92150609D01*
X45900838Y-92388704D01*
X45948457Y-92483942D01*
X45996076Y-92531561D01*
X46091314Y-92579180D01*
X46329409Y-92579180D01*
X46424647Y-92531561D01*
X46472266Y-92483942D01*
X45472266Y-92483942D02*
X45424647Y-92531561D01*
X45472266Y-92579180D01*
X45519885Y-92531561D01*
X45472266Y-92483942D01*
X45472266Y-92579180D01*
X44805600Y-91579180D02*
X44710361Y-91579180D01*
X44615123Y-91626800D01*
X44567504Y-91674419D01*
X44519885Y-91769657D01*
X44472266Y-91960133D01*
X44472266Y-92198228D01*
X44519885Y-92388704D01*
X44567504Y-92483942D01*
X44615123Y-92531561D01*
X44710361Y-92579180D01*
X44805600Y-92579180D01*
X44900838Y-92531561D01*
X44948457Y-92483942D01*
X44996076Y-92388704D01*
X45043695Y-92198228D01*
X45043695Y-91960133D01*
X44996076Y-91769657D01*
X44948457Y-91674419D01*
X44900838Y-91626800D01*
X44805600Y-91579180D01*
X44138933Y-91579180D02*
X43472266Y-91579180D01*
X43900838Y-92579180D01*
X43091314Y-92483942D02*
X43043695Y-92531561D01*
X43091314Y-92579180D01*
X43138933Y-92531561D01*
X43091314Y-92483942D01*
X43091314Y-92579180D01*
X42662742Y-91674419D02*
X42615123Y-91626800D01*
X42519885Y-91579180D01*
X42281790Y-91579180D01*
X42186552Y-91626800D01*
X42138933Y-91674419D01*
X42091314Y-91769657D01*
X42091314Y-91864895D01*
X42138933Y-92007752D01*
X42710361Y-92579180D01*
X42091314Y-92579180D01*
X41472266Y-91579180D02*
X41377028Y-91579180D01*
X41281790Y-91626800D01*
X41234171Y-91674419D01*
X41186552Y-91769657D01*
X41138933Y-91960133D01*
X41138933Y-92198228D01*
X41186552Y-92388704D01*
X41234171Y-92483942D01*
X41281790Y-92531561D01*
X41377028Y-92579180D01*
X41472266Y-92579180D01*
X41567504Y-92531561D01*
X41615123Y-92483942D01*
X41662742Y-92388704D01*
X41710361Y-92198228D01*
X41710361Y-91960133D01*
X41662742Y-91769657D01*
X41615123Y-91674419D01*
X41567504Y-91626800D01*
X41472266Y-91579180D01*
X40757980Y-91674419D02*
X40710361Y-91626800D01*
X40615123Y-91579180D01*
X40377028Y-91579180D01*
X40281790Y-91626800D01*
X40234171Y-91674419D01*
X40186552Y-91769657D01*
X40186552Y-91864895D01*
X40234171Y-92007752D01*
X40805600Y-92579180D01*
X40186552Y-92579180D01*
X39567504Y-91579180D02*
X39472266Y-91579180D01*
X39377028Y-91626800D01*
X39329409Y-91674419D01*
X39281790Y-91769657D01*
X39234171Y-91960133D01*
X39234171Y-92198228D01*
X39281790Y-92388704D01*
X39329409Y-92483942D01*
X39377028Y-92531561D01*
X39472266Y-92579180D01*
X39567504Y-92579180D01*
X39662742Y-92531561D01*
X39710361Y-92483942D01*
X39757980Y-92388704D01*
X39805600Y-92198228D01*
X39805600Y-91960133D01*
X39757980Y-91769657D01*
X39710361Y-91674419D01*
X39662742Y-91626800D01*
X39567504Y-91579180D01*
X49900838Y-93229180D02*
X49329409Y-93229180D01*
X49615123Y-94229180D02*
X49615123Y-93229180D01*
X48996076Y-94229180D02*
X48996076Y-93229180D01*
X48567504Y-94229180D02*
X48567504Y-93705371D01*
X48615123Y-93610133D01*
X48710361Y-93562514D01*
X48853219Y-93562514D01*
X48948457Y-93610133D01*
X48996076Y-93657752D01*
X47948457Y-94229180D02*
X48043695Y-94181561D01*
X48091314Y-94133942D01*
X48138933Y-94038704D01*
X48138933Y-93752990D01*
X48091314Y-93657752D01*
X48043695Y-93610133D01*
X47948457Y-93562514D01*
X47805600Y-93562514D01*
X47710361Y-93610133D01*
X47662742Y-93657752D01*
X47615123Y-93752990D01*
X47615123Y-94038704D01*
X47662742Y-94133942D01*
X47710361Y-94181561D01*
X47805600Y-94229180D01*
X47948457Y-94229180D01*
X47186552Y-94229180D02*
X47186552Y-93562514D01*
X47186552Y-93657752D02*
X47138933Y-93610133D01*
X47043695Y-93562514D01*
X46900838Y-93562514D01*
X46805600Y-93610133D01*
X46757980Y-93705371D01*
X46757980Y-94229180D01*
X46757980Y-93705371D02*
X46710361Y-93610133D01*
X46615123Y-93562514D01*
X46472266Y-93562514D01*
X46377028Y-93610133D01*
X46329409Y-93705371D01*
X46329409Y-94229180D01*
X45424647Y-94229180D02*
X45424647Y-93705371D01*
X45472266Y-93610133D01*
X45567504Y-93562514D01*
X45757980Y-93562514D01*
X45853219Y-93610133D01*
X45424647Y-94181561D02*
X45519885Y-94229180D01*
X45757980Y-94229180D01*
X45853219Y-94181561D01*
X45900838Y-94086323D01*
X45900838Y-93991085D01*
X45853219Y-93895847D01*
X45757980Y-93848228D01*
X45519885Y-93848228D01*
X45424647Y-93800609D01*
X44996076Y-94181561D02*
X44900838Y-94229180D01*
X44710361Y-94229180D01*
X44615123Y-94181561D01*
X44567504Y-94086323D01*
X44567504Y-94038704D01*
X44615123Y-93943466D01*
X44710361Y-93895847D01*
X44853219Y-93895847D01*
X44948457Y-93848228D01*
X44996076Y-93752990D01*
X44996076Y-93705371D01*
X44948457Y-93610133D01*
X44853219Y-93562514D01*
X44710361Y-93562514D01*
X44615123Y-93610133D01*
X43377028Y-94229180D02*
X43377028Y-93229180D01*
X43043695Y-93943466D01*
X42710361Y-93229180D01*
X42710361Y-94229180D01*
X41805600Y-94229180D02*
X41805600Y-93705371D01*
X41853219Y-93610133D01*
X41948457Y-93562514D01*
X42138933Y-93562514D01*
X42234171Y-93610133D01*
X41805600Y-94181561D02*
X41900838Y-94229180D01*
X42138933Y-94229180D01*
X42234171Y-94181561D01*
X42281790Y-94086323D01*
X42281790Y-93991085D01*
X42234171Y-93895847D01*
X42138933Y-93848228D01*
X41900838Y-93848228D01*
X41805600Y-93800609D01*
X41329409Y-94229180D02*
X41329409Y-93562514D01*
X41329409Y-93229180D02*
X41377028Y-93276800D01*
X41329409Y-93324419D01*
X41281790Y-93276800D01*
X41329409Y-93229180D01*
X41329409Y-93324419D01*
X40472266Y-94181561D02*
X40567504Y-94229180D01*
X40757980Y-94229180D01*
X40853219Y-94181561D01*
X40900838Y-94086323D01*
X40900838Y-93705371D01*
X40853219Y-93610133D01*
X40757980Y-93562514D01*
X40567504Y-93562514D01*
X40472266Y-93610133D01*
X40424647Y-93705371D01*
X40424647Y-93800609D01*
X40900838Y-93895847D01*
X39996076Y-94229180D02*
X39996076Y-93562514D01*
X39996076Y-93752990D02*
X39948457Y-93657752D01*
X39900838Y-93610133D01*
X39805600Y-93562514D01*
X39710361Y-93562514D01*
X53996076Y-95212514D02*
X53615123Y-95212514D01*
X53853219Y-94879180D02*
X53853219Y-95736323D01*
X53805600Y-95831561D01*
X53710361Y-95879180D01*
X53615123Y-95879180D01*
X53138933Y-95879180D02*
X53234171Y-95831561D01*
X53281790Y-95783942D01*
X53329409Y-95688704D01*
X53329409Y-95402990D01*
X53281790Y-95307752D01*
X53234171Y-95260133D01*
X53138933Y-95212514D01*
X52996076Y-95212514D01*
X52900838Y-95260133D01*
X52853219Y-95307752D01*
X52805600Y-95402990D01*
X52805600Y-95688704D01*
X52853219Y-95783942D01*
X52900838Y-95831561D01*
X52996076Y-95879180D01*
X53138933Y-95879180D01*
X52377028Y-95879180D02*
X52377028Y-95212514D01*
X52377028Y-95307752D02*
X52329409Y-95260133D01*
X52234171Y-95212514D01*
X52091314Y-95212514D01*
X51996076Y-95260133D01*
X51948457Y-95355371D01*
X51948457Y-95879180D01*
X51948457Y-95355371D02*
X51900838Y-95260133D01*
X51805600Y-95212514D01*
X51662742Y-95212514D01*
X51567504Y-95260133D01*
X51519885Y-95355371D01*
X51519885Y-95879180D01*
X50424647Y-95402990D02*
X50472266Y-95355371D01*
X50567504Y-95307752D01*
X50662742Y-95307752D01*
X50757980Y-95355371D01*
X50805600Y-95402990D01*
X50853219Y-95498228D01*
X50853219Y-95593466D01*
X50805600Y-95688704D01*
X50757980Y-95736323D01*
X50662742Y-95783942D01*
X50567504Y-95783942D01*
X50472266Y-95736323D01*
X50424647Y-95688704D01*
X50424647Y-95307752D02*
X50424647Y-95688704D01*
X50377028Y-95736323D01*
X50329409Y-95736323D01*
X50234171Y-95688704D01*
X50186552Y-95593466D01*
X50186552Y-95355371D01*
X50281790Y-95212514D01*
X50424647Y-95117276D01*
X50615123Y-95069657D01*
X50805600Y-95117276D01*
X50948457Y-95212514D01*
X51043695Y-95355371D01*
X51091314Y-95545847D01*
X51043695Y-95736323D01*
X50948457Y-95879180D01*
X50805600Y-95974419D01*
X50615123Y-96022038D01*
X50424647Y-95974419D01*
X50281790Y-95879180D01*
X49900838Y-95212514D02*
X49519885Y-95212514D01*
X49757980Y-94879180D02*
X49757980Y-95736323D01*
X49710361Y-95831561D01*
X49615123Y-95879180D01*
X49519885Y-95879180D01*
X49043695Y-95879180D02*
X49138933Y-95831561D01*
X49186552Y-95783942D01*
X49234171Y-95688704D01*
X49234171Y-95402990D01*
X49186552Y-95307752D01*
X49138933Y-95260133D01*
X49043695Y-95212514D01*
X48900838Y-95212514D01*
X48805600Y-95260133D01*
X48757980Y-95307752D01*
X48710361Y-95402990D01*
X48710361Y-95688704D01*
X48757980Y-95783942D01*
X48805600Y-95831561D01*
X48900838Y-95879180D01*
X49043695Y-95879180D01*
X48281790Y-95879180D02*
X48281790Y-95212514D01*
X48281790Y-95307752D02*
X48234171Y-95260133D01*
X48138933Y-95212514D01*
X47996076Y-95212514D01*
X47900838Y-95260133D01*
X47853219Y-95355371D01*
X47853219Y-95879180D01*
X47853219Y-95355371D02*
X47805600Y-95260133D01*
X47710361Y-95212514D01*
X47567504Y-95212514D01*
X47472266Y-95260133D01*
X47424647Y-95355371D01*
X47424647Y-95879180D01*
X46948457Y-95783942D02*
X46900838Y-95831561D01*
X46948457Y-95879180D01*
X46996076Y-95831561D01*
X46948457Y-95783942D01*
X46948457Y-95879180D01*
X46472266Y-95879180D02*
X46472266Y-95212514D01*
X46472266Y-94879180D02*
X46519885Y-94926800D01*
X46472266Y-94974419D01*
X46424647Y-94926800D01*
X46472266Y-94879180D01*
X46472266Y-94974419D01*
X46043695Y-95831561D02*
X45948457Y-95879180D01*
X45757980Y-95879180D01*
X45662742Y-95831561D01*
X45615123Y-95736323D01*
X45615123Y-95688704D01*
X45662742Y-95593466D01*
X45757980Y-95545847D01*
X45900838Y-95545847D01*
X45996076Y-95498228D01*
X46043695Y-95402990D01*
X46043695Y-95355371D01*
X45996076Y-95260133D01*
X45900838Y-95212514D01*
X45757980Y-95212514D01*
X45662742Y-95260133D01*
X45329409Y-95212514D02*
X44948457Y-95212514D01*
X45186552Y-94879180D02*
X45186552Y-95736323D01*
X45138933Y-95831561D01*
X45043695Y-95879180D01*
X44948457Y-95879180D01*
X44615123Y-95498228D02*
X43853219Y-95498228D01*
X43377028Y-95879180D02*
X43377028Y-95212514D01*
X43377028Y-94879180D02*
X43424647Y-94926800D01*
X43377028Y-94974419D01*
X43329409Y-94926800D01*
X43377028Y-94879180D01*
X43377028Y-94974419D01*
X42900838Y-95879180D02*
X42900838Y-95212514D01*
X42900838Y-95307752D02*
X42853219Y-95260133D01*
X42757980Y-95212514D01*
X42615123Y-95212514D01*
X42519885Y-95260133D01*
X42472266Y-95355371D01*
X42472266Y-95879180D01*
X42472266Y-95355371D02*
X42424647Y-95260133D01*
X42329409Y-95212514D01*
X42186552Y-95212514D01*
X42091314Y-95260133D01*
X42043695Y-95355371D01*
X42043695Y-95879180D01*
X41567504Y-95498228D02*
X40805600Y-95498228D01*
X40424647Y-95212514D02*
X40234171Y-95879180D01*
X40043695Y-95402990D01*
X39853219Y-95879180D01*
X39662742Y-95212514D01*
X38900838Y-95831561D02*
X38996076Y-95879180D01*
X39186552Y-95879180D01*
X39281790Y-95831561D01*
X39329409Y-95736323D01*
X39329409Y-95355371D01*
X39281790Y-95260133D01*
X39186552Y-95212514D01*
X38996076Y-95212514D01*
X38900838Y-95260133D01*
X38853219Y-95355371D01*
X38853219Y-95450609D01*
X39329409Y-95545847D01*
X38424647Y-95879180D02*
X38424647Y-94879180D01*
X38424647Y-95260133D02*
X38329409Y-95212514D01*
X38138933Y-95212514D01*
X38043695Y-95260133D01*
X37996076Y-95307752D01*
X37948457Y-95402990D01*
X37948457Y-95688704D01*
X37996076Y-95783942D01*
X38043695Y-95831561D01*
X38138933Y-95879180D01*
X38329409Y-95879180D01*
X38424647Y-95831561D01*
X37519885Y-95783942D02*
X37472266Y-95831561D01*
X37519885Y-95879180D01*
X37567504Y-95831561D01*
X37519885Y-95783942D01*
X37519885Y-95879180D01*
X36615123Y-95879180D02*
X36615123Y-94879180D01*
X36615123Y-95831561D02*
X36710361Y-95879180D01*
X36900838Y-95879180D01*
X36996076Y-95831561D01*
X37043695Y-95783942D01*
X37091314Y-95688704D01*
X37091314Y-95402990D01*
X37043695Y-95307752D01*
X36996076Y-95260133D01*
X36900838Y-95212514D01*
X36710361Y-95212514D01*
X36615123Y-95260133D01*
X35757980Y-95831561D02*
X35853219Y-95879180D01*
X36043695Y-95879180D01*
X36138933Y-95831561D01*
X36186552Y-95736323D01*
X36186552Y-95355371D01*
X36138933Y-95260133D01*
X36043695Y-95212514D01*
X35853219Y-95212514D01*
X35757980Y-95260133D01*
X35710361Y-95355371D01*
X35710361Y-95450609D01*
X36186552Y-95545847D01*
X52275619Y-90676361D02*
X52180380Y-90723980D01*
X51989904Y-90723980D01*
X51894666Y-90676361D01*
X51847047Y-90581123D01*
X51847047Y-90533504D01*
X51894666Y-90438266D01*
X51989904Y-90390647D01*
X52132761Y-90390647D01*
X52228000Y-90343028D01*
X52275619Y-90247790D01*
X52275619Y-90200171D01*
X52228000Y-90104933D01*
X52132761Y-90057314D01*
X51989904Y-90057314D01*
X51894666Y-90104933D01*
X51418476Y-90723980D02*
X51418476Y-89723980D01*
X51418476Y-90104933D02*
X51323238Y-90057314D01*
X51132761Y-90057314D01*
X51037523Y-90104933D01*
X50989904Y-90152552D01*
X50942285Y-90247790D01*
X50942285Y-90533504D01*
X50989904Y-90628742D01*
X51037523Y-90676361D01*
X51132761Y-90723980D01*
X51323238Y-90723980D01*
X51418476Y-90676361D01*
X50370857Y-90723980D02*
X50466095Y-90676361D01*
X50513714Y-90628742D01*
X50561333Y-90533504D01*
X50561333Y-90247790D01*
X50513714Y-90152552D01*
X50466095Y-90104933D01*
X50370857Y-90057314D01*
X50228000Y-90057314D01*
X50132761Y-90104933D01*
X50085142Y-90152552D01*
X50037523Y-90247790D01*
X50037523Y-90533504D01*
X50085142Y-90628742D01*
X50132761Y-90676361D01*
X50228000Y-90723980D01*
X50370857Y-90723980D01*
X49704190Y-90723980D02*
X49180380Y-90057314D01*
X49704190Y-90057314D02*
X49180380Y-90723980D01*
X48799428Y-90057314D02*
X48799428Y-90723980D01*
X48799428Y-90152552D02*
X48751809Y-90104933D01*
X48656571Y-90057314D01*
X48513714Y-90057314D01*
X48418476Y-90104933D01*
X48370857Y-90200171D01*
X48370857Y-90723980D01*
X47513714Y-90676361D02*
X47608952Y-90723980D01*
X47799428Y-90723980D01*
X47894666Y-90676361D01*
X47942285Y-90581123D01*
X47942285Y-90200171D01*
X47894666Y-90104933D01*
X47799428Y-90057314D01*
X47608952Y-90057314D01*
X47513714Y-90104933D01*
X47466095Y-90200171D01*
X47466095Y-90295409D01*
X47942285Y-90390647D01*
X47180380Y-90057314D02*
X46799428Y-90057314D01*
X47037523Y-89723980D02*
X47037523Y-90581123D01*
X46989904Y-90676361D01*
X46894666Y-90723980D01*
X46799428Y-90723980D01*
X45704190Y-90723980D02*
X45704190Y-89723980D01*
X45466095Y-89723980D01*
X45323238Y-89771600D01*
X45227999Y-89866838D01*
X45180380Y-89962076D01*
X45132761Y-90152552D01*
X45132761Y-90295409D01*
X45180380Y-90485885D01*
X45227999Y-90581123D01*
X45323238Y-90676361D01*
X45466095Y-90723980D01*
X45704190Y-90723980D01*
X44132761Y-90628742D02*
X44180380Y-90676361D01*
X44323238Y-90723980D01*
X44418476Y-90723980D01*
X44561333Y-90676361D01*
X44656571Y-90581123D01*
X44704190Y-90485885D01*
X44751809Y-90295409D01*
X44751809Y-90152552D01*
X44704190Y-89962076D01*
X44656571Y-89866838D01*
X44561333Y-89771600D01*
X44418476Y-89723980D01*
X44323238Y-89723980D01*
X44180380Y-89771600D01*
X44132761Y-89819219D01*
X43132761Y-90628742D02*
X43180380Y-90676361D01*
X43323238Y-90723980D01*
X43418476Y-90723980D01*
X43561333Y-90676361D01*
X43656571Y-90581123D01*
X43704190Y-90485885D01*
X43751809Y-90295409D01*
X43751809Y-90152552D01*
X43704190Y-89962076D01*
X43656571Y-89866838D01*
X43561333Y-89771600D01*
X43418476Y-89723980D01*
X43323238Y-89723980D01*
X43180380Y-89771600D01*
X43132761Y-89819219D01*
X42180380Y-89771600D02*
X42275619Y-89723980D01*
X42418476Y-89723980D01*
X42561333Y-89771600D01*
X42656571Y-89866838D01*
X42704190Y-89962076D01*
X42751809Y-90152552D01*
X42751809Y-90295409D01*
X42704190Y-90485885D01*
X42656571Y-90581123D01*
X42561333Y-90676361D01*
X42418476Y-90723980D01*
X42323238Y-90723980D01*
X42180380Y-90676361D01*
X42132761Y-90628742D01*
X42132761Y-90295409D01*
X42323238Y-90295409D01*
X41704190Y-90200171D02*
X41370857Y-90200171D01*
X41227999Y-90723980D02*
X41704190Y-90723980D01*
X41704190Y-89723980D01*
X41227999Y-89723980D01*
X40799428Y-90723980D02*
X40799428Y-89723980D01*
X40227999Y-90723980D01*
X40227999Y-89723980D01*
D11*
X29210000Y-53340000D03*
X29210000Y-55880000D03*
X29210000Y-58420000D03*
X29210000Y-60960000D03*
X29210000Y-63500000D03*
X29210000Y-66040000D03*
X29210000Y-68580000D03*
X31750000Y-53340000D03*
X31750000Y-55880000D03*
X31750000Y-58420000D03*
X31750000Y-60960000D03*
X31750000Y-63500000D03*
X31750000Y-66040000D03*
X31750000Y-68580000D03*
X29210000Y-71120000D03*
X31750000Y-71120000D03*
X29210000Y-73660000D03*
X31750000Y-73660000D03*
X29210000Y-76200000D03*
X31750000Y-76200000D03*
X29210000Y-78740000D03*
X31750000Y-78740000D03*
X29210000Y-81280000D03*
X31750000Y-81280000D03*
X29210000Y-83820000D03*
X31750000Y-83820000D03*
X29210000Y-86360000D03*
X31750000Y-86360000D03*
X29210000Y-88900000D03*
X31750000Y-88900000D03*
X29210000Y-91440000D03*
X31750000Y-91440000D03*
D12*
X29210000Y-93980000D03*
D11*
X31750000Y-93980000D03*
D13*
X41910000Y-52882800D03*
X36982400Y-53543200D03*
X35400000Y-64100000D03*
G04 #@! TA.AperFunction,SMDPad,CuDef*
G36*
G01*
X36459000Y-56555800D02*
X36459000Y-55305800D01*
G75*
G02*
X36709000Y-55055800I250000J0D01*
G01*
X37459000Y-55055800D01*
G75*
G02*
X37709000Y-55305800I0J-250000D01*
G01*
X37709000Y-56555800D01*
G75*
G02*
X37459000Y-56805800I-250000J0D01*
G01*
X36709000Y-56805800D01*
G75*
G02*
X36459000Y-56555800I0J250000D01*
G01*
G37*
G04 #@! TD.AperFunction*
G04 #@! TA.AperFunction,SMDPad,CuDef*
G36*
G01*
X33659000Y-56555800D02*
X33659000Y-55305800D01*
G75*
G02*
X33909000Y-55055800I250000J0D01*
G01*
X34659000Y-55055800D01*
G75*
G02*
X34909000Y-55305800I0J-250000D01*
G01*
X34909000Y-56555800D01*
G75*
G02*
X34659000Y-56805800I-250000J0D01*
G01*
X33909000Y-56805800D01*
G75*
G02*
X33659000Y-56555800I0J250000D01*
G01*
G37*
G04 #@! TD.AperFunction*
G04 #@! TA.AperFunction,SMDPad,CuDef*
G36*
G01*
X46545800Y-54320600D02*
X46545800Y-53070600D01*
G75*
G02*
X46795800Y-52820600I250000J0D01*
G01*
X47545800Y-52820600D01*
G75*
G02*
X47795800Y-53070600I0J-250000D01*
G01*
X47795800Y-54320600D01*
G75*
G02*
X47545800Y-54570600I-250000J0D01*
G01*
X46795800Y-54570600D01*
G75*
G02*
X46545800Y-54320600I0J250000D01*
G01*
G37*
G04 #@! TD.AperFunction*
G04 #@! TA.AperFunction,SMDPad,CuDef*
G36*
G01*
X43745800Y-54320600D02*
X43745800Y-53070600D01*
G75*
G02*
X43995800Y-52820600I250000J0D01*
G01*
X44745800Y-52820600D01*
G75*
G02*
X44995800Y-53070600I0J-250000D01*
G01*
X44995800Y-54320600D01*
G75*
G02*
X44745800Y-54570600I-250000J0D01*
G01*
X43995800Y-54570600D01*
G75*
G02*
X43745800Y-54320600I0J250000D01*
G01*
G37*
G04 #@! TD.AperFunction*
D14*
X52578000Y-52578000D03*
D15*
X50038000Y-52578000D03*
G04 #@! TA.AperFunction,SMDPad,CuDef*
G36*
G01*
X50533000Y-56271000D02*
X50533000Y-57521000D01*
G75*
G02*
X50283000Y-57771000I-250000J0D01*
G01*
X49533000Y-57771000D01*
G75*
G02*
X49283000Y-57521000I0J250000D01*
G01*
X49283000Y-56271000D01*
G75*
G02*
X49533000Y-56021000I250000J0D01*
G01*
X50283000Y-56021000D01*
G75*
G02*
X50533000Y-56271000I0J-250000D01*
G01*
G37*
G04 #@! TD.AperFunction*
G04 #@! TA.AperFunction,SMDPad,CuDef*
G36*
G01*
X53333000Y-56271000D02*
X53333000Y-57521000D01*
G75*
G02*
X53083000Y-57771000I-250000J0D01*
G01*
X52333000Y-57771000D01*
G75*
G02*
X52083000Y-57521000I0J250000D01*
G01*
X52083000Y-56271000D01*
G75*
G02*
X52333000Y-56021000I250000J0D01*
G01*
X53083000Y-56021000D01*
G75*
G02*
X53333000Y-56271000I0J-250000D01*
G01*
G37*
G04 #@! TD.AperFunction*
D14*
X52578000Y-82042000D03*
D15*
X50038000Y-82042000D03*
G04 #@! TA.AperFunction,SMDPad,CuDef*
G36*
G01*
X43410000Y-59713000D02*
X43410000Y-59413000D01*
G75*
G02*
X43560000Y-59263000I150000J0D01*
G01*
X45210000Y-59263000D01*
G75*
G02*
X45360000Y-59413000I0J-150000D01*
G01*
X45360000Y-59713000D01*
G75*
G02*
X45210000Y-59863000I-150000J0D01*
G01*
X43560000Y-59863000D01*
G75*
G02*
X43410000Y-59713000I0J150000D01*
G01*
G37*
G04 #@! TD.AperFunction*
G04 #@! TA.AperFunction,SMDPad,CuDef*
G36*
G01*
X43410000Y-58443000D02*
X43410000Y-58143000D01*
G75*
G02*
X43560000Y-57993000I150000J0D01*
G01*
X45210000Y-57993000D01*
G75*
G02*
X45360000Y-58143000I0J-150000D01*
G01*
X45360000Y-58443000D01*
G75*
G02*
X45210000Y-58593000I-150000J0D01*
G01*
X43560000Y-58593000D01*
G75*
G02*
X43410000Y-58443000I0J150000D01*
G01*
G37*
G04 #@! TD.AperFunction*
G04 #@! TA.AperFunction,SMDPad,CuDef*
G36*
G01*
X43410000Y-57173000D02*
X43410000Y-56873000D01*
G75*
G02*
X43560000Y-56723000I150000J0D01*
G01*
X45210000Y-56723000D01*
G75*
G02*
X45360000Y-56873000I0J-150000D01*
G01*
X45360000Y-57173000D01*
G75*
G02*
X45210000Y-57323000I-150000J0D01*
G01*
X43560000Y-57323000D01*
G75*
G02*
X43410000Y-57173000I0J150000D01*
G01*
G37*
G04 #@! TD.AperFunction*
G04 #@! TA.AperFunction,SMDPad,CuDef*
G36*
G01*
X43410000Y-55903000D02*
X43410000Y-55603000D01*
G75*
G02*
X43560000Y-55453000I150000J0D01*
G01*
X45210000Y-55453000D01*
G75*
G02*
X45360000Y-55603000I0J-150000D01*
G01*
X45360000Y-55903000D01*
G75*
G02*
X45210000Y-56053000I-150000J0D01*
G01*
X43560000Y-56053000D01*
G75*
G02*
X43410000Y-55903000I0J150000D01*
G01*
G37*
G04 #@! TD.AperFunction*
G04 #@! TA.AperFunction,SMDPad,CuDef*
G36*
G01*
X38460000Y-55903000D02*
X38460000Y-55603000D01*
G75*
G02*
X38610000Y-55453000I150000J0D01*
G01*
X40260000Y-55453000D01*
G75*
G02*
X40410000Y-55603000I0J-150000D01*
G01*
X40410000Y-55903000D01*
G75*
G02*
X40260000Y-56053000I-150000J0D01*
G01*
X38610000Y-56053000D01*
G75*
G02*
X38460000Y-55903000I0J150000D01*
G01*
G37*
G04 #@! TD.AperFunction*
G04 #@! TA.AperFunction,SMDPad,CuDef*
G36*
G01*
X38460000Y-57173000D02*
X38460000Y-56873000D01*
G75*
G02*
X38610000Y-56723000I150000J0D01*
G01*
X40260000Y-56723000D01*
G75*
G02*
X40410000Y-56873000I0J-150000D01*
G01*
X40410000Y-57173000D01*
G75*
G02*
X40260000Y-57323000I-150000J0D01*
G01*
X38610000Y-57323000D01*
G75*
G02*
X38460000Y-57173000I0J150000D01*
G01*
G37*
G04 #@! TD.AperFunction*
G04 #@! TA.AperFunction,SMDPad,CuDef*
G36*
G01*
X38460000Y-58443000D02*
X38460000Y-58143000D01*
G75*
G02*
X38610000Y-57993000I150000J0D01*
G01*
X40260000Y-57993000D01*
G75*
G02*
X40410000Y-58143000I0J-150000D01*
G01*
X40410000Y-58443000D01*
G75*
G02*
X40260000Y-58593000I-150000J0D01*
G01*
X38610000Y-58593000D01*
G75*
G02*
X38460000Y-58443000I0J150000D01*
G01*
G37*
G04 #@! TD.AperFunction*
G04 #@! TA.AperFunction,SMDPad,CuDef*
G36*
G01*
X38460000Y-59713000D02*
X38460000Y-59413000D01*
G75*
G02*
X38610000Y-59263000I150000J0D01*
G01*
X40260000Y-59263000D01*
G75*
G02*
X40410000Y-59413000I0J-150000D01*
G01*
X40410000Y-59713000D01*
G75*
G02*
X40260000Y-59863000I-150000J0D01*
G01*
X38610000Y-59863000D01*
G75*
G02*
X38460000Y-59713000I0J150000D01*
G01*
G37*
G04 #@! TD.AperFunction*
D16*
X40132000Y-69422000D03*
D17*
X40132000Y-74422000D03*
G04 #@! TA.AperFunction,SMDPad,CuDef*
G36*
G01*
X42151000Y-61351000D02*
X42151000Y-62601000D01*
G75*
G02*
X41901000Y-62851000I-250000J0D01*
G01*
X41151000Y-62851000D01*
G75*
G02*
X40901000Y-62601000I0J250000D01*
G01*
X40901000Y-61351000D01*
G75*
G02*
X41151000Y-61101000I250000J0D01*
G01*
X41901000Y-61101000D01*
G75*
G02*
X42151000Y-61351000I0J-250000D01*
G01*
G37*
G04 #@! TD.AperFunction*
G04 #@! TA.AperFunction,SMDPad,CuDef*
G36*
G01*
X44951000Y-61351000D02*
X44951000Y-62601000D01*
G75*
G02*
X44701000Y-62851000I-250000J0D01*
G01*
X43951000Y-62851000D01*
G75*
G02*
X43701000Y-62601000I0J250000D01*
G01*
X43701000Y-61351000D01*
G75*
G02*
X43951000Y-61101000I250000J0D01*
G01*
X44701000Y-61101000D01*
G75*
G02*
X44951000Y-61351000I0J-250000D01*
G01*
G37*
G04 #@! TD.AperFunction*
G04 #@! TA.AperFunction,SMDPad,CuDef*
G36*
G01*
X50279000Y-77099000D02*
X50279000Y-78349000D01*
G75*
G02*
X50029000Y-78599000I-250000J0D01*
G01*
X49279000Y-78599000D01*
G75*
G02*
X49029000Y-78349000I0J250000D01*
G01*
X49029000Y-77099000D01*
G75*
G02*
X49279000Y-76849000I250000J0D01*
G01*
X50029000Y-76849000D01*
G75*
G02*
X50279000Y-77099000I0J-250000D01*
G01*
G37*
G04 #@! TD.AperFunction*
G04 #@! TA.AperFunction,SMDPad,CuDef*
G36*
G01*
X53079000Y-77099000D02*
X53079000Y-78349000D01*
G75*
G02*
X52829000Y-78599000I-250000J0D01*
G01*
X52079000Y-78599000D01*
G75*
G02*
X51829000Y-78349000I0J250000D01*
G01*
X51829000Y-77099000D01*
G75*
G02*
X52079000Y-76849000I250000J0D01*
G01*
X52829000Y-76849000D01*
G75*
G02*
X53079000Y-77099000I0J-250000D01*
G01*
G37*
G04 #@! TD.AperFunction*
G04 #@! TA.AperFunction,SMDPad,CuDef*
G36*
G01*
X36724585Y-59843702D02*
X35840702Y-60727586D01*
G75*
G02*
X35487148Y-60727586I-176777J176777D01*
G01*
X34956818Y-60197256D01*
G75*
G02*
X34956818Y-59843702I176777J176777D01*
G01*
X35840702Y-58959818D01*
G75*
G02*
X36194256Y-58959818I176777J-176777D01*
G01*
X36724586Y-59490148D01*
G75*
G02*
X36724586Y-59843702I-176777J-176777D01*
G01*
G37*
G04 #@! TD.AperFunction*
G04 #@! TA.AperFunction,SMDPad,CuDef*
G36*
G01*
X38704483Y-61823600D02*
X37820600Y-62707484D01*
G75*
G02*
X37467046Y-62707484I-176777J176777D01*
G01*
X36936716Y-62177154D01*
G75*
G02*
X36936716Y-61823600I176777J176777D01*
G01*
X37820600Y-60939716D01*
G75*
G02*
X38174154Y-60939716I176777J-176777D01*
G01*
X38704484Y-61470046D01*
G75*
G02*
X38704484Y-61823600I-176777J-176777D01*
G01*
G37*
G04 #@! TD.AperFunction*
G04 #@! TA.AperFunction,SMDPad,CuDef*
G36*
G01*
X38113000Y-82159000D02*
X38113000Y-80909000D01*
G75*
G02*
X38363000Y-80659000I250000J0D01*
G01*
X39113000Y-80659000D01*
G75*
G02*
X39363000Y-80909000I0J-250000D01*
G01*
X39363000Y-82159000D01*
G75*
G02*
X39113000Y-82409000I-250000J0D01*
G01*
X38363000Y-82409000D01*
G75*
G02*
X38113000Y-82159000I0J250000D01*
G01*
G37*
G04 #@! TD.AperFunction*
G04 #@! TA.AperFunction,SMDPad,CuDef*
G36*
G01*
X35313000Y-82159000D02*
X35313000Y-80909000D01*
G75*
G02*
X35563000Y-80659000I250000J0D01*
G01*
X36313000Y-80659000D01*
G75*
G02*
X36563000Y-80909000I0J-250000D01*
G01*
X36563000Y-82159000D01*
G75*
G02*
X36313000Y-82409000I-250000J0D01*
G01*
X35563000Y-82409000D01*
G75*
G02*
X35313000Y-82159000I0J250000D01*
G01*
G37*
G04 #@! TD.AperFunction*
D18*
X52832000Y-57020000D02*
X52708000Y-56896000D01*
X52708000Y-52708000D02*
X52578000Y-52578000D01*
X52708000Y-56896000D02*
X52708000Y-52708000D01*
X31113590Y-55880000D02*
X31750000Y-55880000D01*
X29768800Y-54711600D02*
X31113590Y-55880000D01*
X50038000Y-52578000D02*
X43307000Y-51231800D01*
X27838400Y-53949600D02*
X28727400Y-54660800D01*
X43307000Y-51231800D02*
X28448000Y-51181000D01*
X28448000Y-51181000D02*
X27787600Y-52984400D01*
X27787600Y-52984400D02*
X27838400Y-53949600D01*
X28727400Y-54660800D02*
X29768800Y-54711600D01*
X52454000Y-81918000D02*
X52578000Y-82042000D01*
X52454000Y-77724000D02*
X52454000Y-81918000D01*
X27489990Y-55822010D02*
X27547980Y-55880000D01*
X27547980Y-55880000D02*
X29210000Y-55880000D01*
X27489990Y-86302010D02*
X27489990Y-55822010D01*
X43122760Y-82042000D02*
X32637759Y-92710000D01*
X28448000Y-92710000D02*
X27432000Y-90932000D01*
X27432000Y-90932000D02*
X27432000Y-89154000D01*
X50038000Y-82042000D02*
X43122760Y-82042000D01*
X32637759Y-92710000D02*
X28448000Y-92710000D01*
X27432000Y-89154000D02*
X27489990Y-86302010D01*
X41910000Y-57404000D02*
X42799000Y-58293000D01*
X41656000Y-57404000D02*
X41910000Y-57404000D01*
X41656000Y-54610000D02*
X41656000Y-57404000D01*
X29210000Y-53340000D02*
X30480000Y-54610000D01*
X42799000Y-58293000D02*
X44385000Y-58293000D01*
X34284000Y-55930800D02*
X34284000Y-54768400D01*
X30480000Y-54610000D02*
X34442400Y-54610000D01*
X34284000Y-54768400D02*
X34442400Y-54610000D01*
X36735590Y-53790010D02*
X36982400Y-53790010D01*
X36601400Y-53924200D02*
X36735590Y-53790010D01*
X36601400Y-54610000D02*
X36601400Y-53924200D01*
X36601400Y-54610000D02*
X41656000Y-54610000D01*
X34442400Y-54610000D02*
X36601400Y-54610000D01*
X30480000Y-69850000D02*
X29210000Y-68580000D01*
X31059001Y-74747001D02*
X30480000Y-74168000D01*
X35938000Y-78779238D02*
X31905763Y-74747001D01*
X30480000Y-74168000D02*
X30480000Y-69850000D01*
X31905763Y-74747001D02*
X31059001Y-74747001D01*
X35938000Y-81534000D02*
X35938000Y-78779238D01*
X42672000Y-53594000D02*
X42672000Y-57150000D01*
X44258000Y-57150000D02*
X44385000Y-57023000D01*
X42672000Y-57150000D02*
X44258000Y-57150000D01*
X44269200Y-53594000D02*
X44370800Y-53695600D01*
X42672000Y-53594000D02*
X44269200Y-53594000D01*
X39471600Y-51841400D02*
X42672000Y-53594000D01*
X35610800Y-51866800D02*
X39471600Y-51841400D01*
X31750000Y-53340000D02*
X34137600Y-53340000D01*
X34137600Y-53340000D02*
X35610800Y-51866800D01*
X31750000Y-68580000D02*
X35560000Y-64770000D01*
X35560000Y-62168000D02*
X38165000Y-59563000D01*
X35560000Y-64770000D02*
X35560000Y-62168000D01*
X38165000Y-59563000D02*
X39435000Y-59563000D01*
X38165000Y-57023000D02*
X39435000Y-57023000D01*
X42536420Y-58918010D02*
X46491990Y-58918010D01*
X41472420Y-57854010D02*
X42536420Y-58918010D01*
X41469600Y-57854010D02*
X41472420Y-57854010D01*
X39435000Y-57023000D02*
X40638590Y-57023000D01*
X40638590Y-57023000D02*
X41469600Y-57854010D01*
X48514000Y-56896000D02*
X49908000Y-56896000D01*
X46491990Y-58918010D02*
X48514000Y-56896000D01*
X49908000Y-77470000D02*
X49654000Y-77724000D01*
X49908000Y-56896000D02*
X49908000Y-77470000D01*
X37084000Y-55930800D02*
X37084000Y-56642000D01*
X37084000Y-56642000D02*
X37465000Y-57023000D01*
X37465000Y-57023000D02*
X38165000Y-57023000D01*
X47170800Y-55552800D02*
X48514000Y-56896000D01*
X47170800Y-53695600D02*
X47170800Y-55552800D01*
X37439600Y-57048400D02*
X37465000Y-57023000D01*
X30480000Y-90170000D02*
X28448000Y-90170000D01*
X37439600Y-57150000D02*
X37439600Y-57048400D01*
X31750000Y-91440000D02*
X30480000Y-90170000D01*
X28448000Y-90170000D02*
X27940000Y-89408000D01*
X27940000Y-89408000D02*
X27940000Y-57150000D01*
X27940000Y-57150000D02*
X37439600Y-57150000D01*
X34290000Y-57150000D02*
X34645600Y-57505600D01*
X35788600Y-59944000D02*
X35078051Y-57938051D01*
X35078051Y-57938051D02*
X34290000Y-57150000D01*
X41048020Y-69168000D02*
X40884010Y-69332010D01*
X39435000Y-58293000D02*
X41275000Y-58293000D01*
X41526000Y-58544000D02*
X41526000Y-61976000D01*
X41275000Y-58293000D02*
X41526000Y-58544000D01*
X41526000Y-68028000D02*
X40132000Y-69422000D01*
X41526000Y-61976000D02*
X41526000Y-68028000D01*
X51263001Y-80881999D02*
X51263001Y-84118999D01*
X51198001Y-80816999D02*
X51263001Y-80881999D01*
X50286999Y-80816999D02*
X51198001Y-80816999D01*
X40132000Y-69422000D02*
X40132000Y-70662000D01*
X40132000Y-70662000D02*
X50286999Y-80816999D01*
X30297001Y-95067001D02*
X29210000Y-93980000D01*
X32271761Y-95067001D02*
X30297001Y-95067001D01*
X32837001Y-94019918D02*
X32837001Y-94501761D01*
X39906337Y-86950582D02*
X32837001Y-94019918D01*
X48431418Y-86950582D02*
X39906337Y-86950582D01*
X32837001Y-94501761D02*
X32271761Y-95067001D01*
X51263001Y-84118999D02*
X48431418Y-86950582D01*
X38738000Y-75816000D02*
X40132000Y-74422000D01*
X38738000Y-81534000D02*
X38738000Y-75816000D01*
X37057949Y-71347949D02*
X40132000Y-74422000D01*
X37057949Y-62457949D02*
X37057949Y-71347949D01*
X37186251Y-62457949D02*
X37820600Y-61823600D01*
X37057949Y-62457949D02*
X37186251Y-62457949D01*
X44831000Y-59563000D02*
X43115000Y-59563000D01*
X44326000Y-59622000D02*
X44385000Y-59563000D01*
X44326000Y-61976000D02*
X44326000Y-59622000D01*
D19*
G36*
X34809886Y-95860000D02*
G01*
X27330000Y-95860000D01*
X27330000Y-94742000D01*
X27809928Y-94742000D01*
X27822188Y-94866482D01*
X27858498Y-94986180D01*
X27917463Y-95096494D01*
X27996815Y-95193185D01*
X28093506Y-95272537D01*
X28203820Y-95331502D01*
X28323518Y-95367812D01*
X28448000Y-95380072D01*
X28924250Y-95377000D01*
X29083000Y-95218250D01*
X29083000Y-94107000D01*
X27971750Y-94107000D01*
X27813000Y-94265750D01*
X27809928Y-94742000D01*
X27330000Y-94742000D01*
X27330000Y-92285329D01*
X27782811Y-93077748D01*
X27813026Y-93134276D01*
X27817622Y-93139877D01*
X27809928Y-93218000D01*
X27813000Y-93694250D01*
X27971750Y-93853000D01*
X29083000Y-93853000D01*
X29083000Y-93833000D01*
X29337000Y-93833000D01*
X29337000Y-93853000D01*
X29357000Y-93853000D01*
X29357000Y-94107000D01*
X29337000Y-94107000D01*
X29337000Y-95218250D01*
X29495750Y-95377000D01*
X29972000Y-95380072D01*
X30096482Y-95367812D01*
X30216180Y-95331502D01*
X30326494Y-95272537D01*
X30423185Y-95193185D01*
X30502537Y-95096494D01*
X30561502Y-94986180D01*
X30597812Y-94866482D01*
X30606080Y-94782535D01*
X30664880Y-94870535D01*
X30859465Y-95065120D01*
X31088273Y-95218005D01*
X31342510Y-95323314D01*
X31612408Y-95377000D01*
X31887592Y-95377000D01*
X32157490Y-95323314D01*
X32411727Y-95218005D01*
X32640535Y-95065120D01*
X32835120Y-94870535D01*
X32988005Y-94641727D01*
X33093314Y-94387490D01*
X33147000Y-94117592D01*
X33147000Y-93842408D01*
X33093314Y-93572510D01*
X33010480Y-93372531D01*
X33062035Y-93344974D01*
X33064603Y-93342866D01*
X33067512Y-93341279D01*
X33122354Y-93295472D01*
X33177760Y-93250001D01*
X33203656Y-93218447D01*
X34809886Y-91584183D01*
X34809886Y-95860000D01*
G37*
X34809886Y-95860000D02*
X27330000Y-95860000D01*
X27330000Y-94742000D01*
X27809928Y-94742000D01*
X27822188Y-94866482D01*
X27858498Y-94986180D01*
X27917463Y-95096494D01*
X27996815Y-95193185D01*
X28093506Y-95272537D01*
X28203820Y-95331502D01*
X28323518Y-95367812D01*
X28448000Y-95380072D01*
X28924250Y-95377000D01*
X29083000Y-95218250D01*
X29083000Y-94107000D01*
X27971750Y-94107000D01*
X27813000Y-94265750D01*
X27809928Y-94742000D01*
X27330000Y-94742000D01*
X27330000Y-92285329D01*
X27782811Y-93077748D01*
X27813026Y-93134276D01*
X27817622Y-93139877D01*
X27809928Y-93218000D01*
X27813000Y-93694250D01*
X27971750Y-93853000D01*
X29083000Y-93853000D01*
X29083000Y-93833000D01*
X29337000Y-93833000D01*
X29337000Y-93853000D01*
X29357000Y-93853000D01*
X29357000Y-94107000D01*
X29337000Y-94107000D01*
X29337000Y-95218250D01*
X29495750Y-95377000D01*
X29972000Y-95380072D01*
X30096482Y-95367812D01*
X30216180Y-95331502D01*
X30326494Y-95272537D01*
X30423185Y-95193185D01*
X30502537Y-95096494D01*
X30561502Y-94986180D01*
X30597812Y-94866482D01*
X30606080Y-94782535D01*
X30664880Y-94870535D01*
X30859465Y-95065120D01*
X31088273Y-95218005D01*
X31342510Y-95323314D01*
X31612408Y-95377000D01*
X31887592Y-95377000D01*
X32157490Y-95323314D01*
X32411727Y-95218005D01*
X32640535Y-95065120D01*
X32835120Y-94870535D01*
X32988005Y-94641727D01*
X33093314Y-94387490D01*
X33147000Y-94117592D01*
X33147000Y-93842408D01*
X33093314Y-93572510D01*
X33010480Y-93372531D01*
X33062035Y-93344974D01*
X33064603Y-93342866D01*
X33067512Y-93341279D01*
X33122354Y-93295472D01*
X33177760Y-93250001D01*
X33203656Y-93218447D01*
X34809886Y-91584183D01*
X34809886Y-95860000D01*
G36*
X48499928Y-53045436D02*
G01*
X48499928Y-53478000D01*
X48512188Y-53602482D01*
X48548498Y-53722180D01*
X48607463Y-53832494D01*
X48686815Y-53929185D01*
X48783506Y-54008537D01*
X48893820Y-54067502D01*
X49013518Y-54103812D01*
X49138000Y-54116072D01*
X50938000Y-54116072D01*
X51062482Y-54103812D01*
X51182180Y-54067502D01*
X51292494Y-54008537D01*
X51389185Y-53929185D01*
X51468537Y-53832494D01*
X51527502Y-53722180D01*
X51533056Y-53703873D01*
X51599495Y-53770312D01*
X51850905Y-53938299D01*
X51948001Y-53978518D01*
X51948000Y-55474661D01*
X51839614Y-55532595D01*
X51705038Y-55643038D01*
X51594595Y-55777614D01*
X51512528Y-55931150D01*
X51461992Y-56097746D01*
X51444928Y-56271000D01*
X51444928Y-57521000D01*
X51461992Y-57694254D01*
X51512528Y-57860850D01*
X51594595Y-58014386D01*
X51705038Y-58148962D01*
X51839614Y-58259405D01*
X51993150Y-58341472D01*
X52159746Y-58392008D01*
X52333000Y-58409072D01*
X53083000Y-58409072D01*
X53256254Y-58392008D01*
X53422850Y-58341472D01*
X53576386Y-58259405D01*
X53710962Y-58148962D01*
X53821405Y-58014386D01*
X53903472Y-57860850D01*
X53954008Y-57694254D01*
X53971072Y-57521000D01*
X53971072Y-56271000D01*
X53954008Y-56097746D01*
X53903472Y-55931150D01*
X53821405Y-55777614D01*
X53710962Y-55643038D01*
X53576386Y-55532595D01*
X53468000Y-55474661D01*
X53468000Y-53829449D01*
X53556505Y-53770312D01*
X53770312Y-53556505D01*
X53938299Y-53305095D01*
X54000800Y-53154205D01*
X54000801Y-81465797D01*
X53938299Y-81314905D01*
X53770312Y-81063495D01*
X53556505Y-80849688D01*
X53305095Y-80681701D01*
X53214000Y-80643968D01*
X53214000Y-79145339D01*
X53322386Y-79087405D01*
X53456962Y-78976962D01*
X53567405Y-78842386D01*
X53649472Y-78688850D01*
X53700008Y-78522254D01*
X53717072Y-78349000D01*
X53717072Y-77099000D01*
X53700008Y-76925746D01*
X53649472Y-76759150D01*
X53567405Y-76605614D01*
X53456962Y-76471038D01*
X53322386Y-76360595D01*
X53168850Y-76278528D01*
X53002254Y-76227992D01*
X52829000Y-76210928D01*
X52079000Y-76210928D01*
X51905746Y-76227992D01*
X51739150Y-76278528D01*
X51585614Y-76360595D01*
X51451038Y-76471038D01*
X51340595Y-76605614D01*
X51258528Y-76759150D01*
X51207992Y-76925746D01*
X51190928Y-77099000D01*
X51190928Y-78349000D01*
X51207992Y-78522254D01*
X51258528Y-78688850D01*
X51340595Y-78842386D01*
X51451038Y-78976962D01*
X51585614Y-79087405D01*
X51694000Y-79145339D01*
X51694001Y-80786541D01*
X51599495Y-80849688D01*
X51533056Y-80916127D01*
X51527502Y-80897820D01*
X51468537Y-80787506D01*
X51389185Y-80690815D01*
X51292494Y-80611463D01*
X51182180Y-80552498D01*
X51062482Y-80516188D01*
X50938000Y-80503928D01*
X49138000Y-80503928D01*
X49013518Y-80516188D01*
X48893820Y-80552498D01*
X48783506Y-80611463D01*
X48686815Y-80690815D01*
X48607463Y-80787506D01*
X48548498Y-80897820D01*
X48512188Y-81017518D01*
X48499928Y-81142000D01*
X48499928Y-81282000D01*
X43156791Y-81282000D01*
X43116153Y-81278352D01*
X43045073Y-81285975D01*
X42973774Y-81292997D01*
X42970594Y-81293962D01*
X42967299Y-81294315D01*
X42899060Y-81315661D01*
X42830513Y-81336454D01*
X42827586Y-81338019D01*
X42824420Y-81339009D01*
X42761625Y-81373276D01*
X42698484Y-81407026D01*
X42695918Y-81409132D01*
X42693006Y-81410721D01*
X42638071Y-81456605D01*
X42582759Y-81501999D01*
X42556873Y-81533541D01*
X33114781Y-91140431D01*
X33093314Y-91032510D01*
X32988005Y-90778273D01*
X32835120Y-90549465D01*
X32640535Y-90354880D01*
X32411727Y-90201995D01*
X32334485Y-90170000D01*
X32411727Y-90138005D01*
X32640535Y-89985120D01*
X32835120Y-89790535D01*
X32988005Y-89561727D01*
X33093314Y-89307490D01*
X33147000Y-89037592D01*
X33147000Y-88762408D01*
X33093314Y-88492510D01*
X32988005Y-88238273D01*
X32835120Y-88009465D01*
X32640535Y-87814880D01*
X32411727Y-87661995D01*
X32334485Y-87630000D01*
X32411727Y-87598005D01*
X32640535Y-87445120D01*
X32835120Y-87250535D01*
X32988005Y-87021727D01*
X33093314Y-86767490D01*
X33147000Y-86497592D01*
X33147000Y-86222408D01*
X33093314Y-85952510D01*
X32988005Y-85698273D01*
X32835120Y-85469465D01*
X32640535Y-85274880D01*
X32411727Y-85121995D01*
X32334485Y-85090000D01*
X32411727Y-85058005D01*
X32640535Y-84905120D01*
X32835120Y-84710535D01*
X32988005Y-84481727D01*
X33093314Y-84227490D01*
X33147000Y-83957592D01*
X33147000Y-83682408D01*
X33093314Y-83412510D01*
X32988005Y-83158273D01*
X32835120Y-82929465D01*
X32640535Y-82734880D01*
X32411727Y-82581995D01*
X32334485Y-82550000D01*
X32411727Y-82518005D01*
X32640535Y-82365120D01*
X32835120Y-82170535D01*
X32988005Y-81941727D01*
X33093314Y-81687490D01*
X33147000Y-81417592D01*
X33147000Y-81142408D01*
X33093314Y-80872510D01*
X32988005Y-80618273D01*
X32835120Y-80389465D01*
X32640535Y-80194880D01*
X32411727Y-80041995D01*
X32334485Y-80010000D01*
X32411727Y-79978005D01*
X32640535Y-79825120D01*
X32835120Y-79630535D01*
X32988005Y-79401727D01*
X33093314Y-79147490D01*
X33147000Y-78877592D01*
X33147000Y-78602408D01*
X33093314Y-78332510D01*
X32988005Y-78078273D01*
X32835120Y-77849465D01*
X32640535Y-77654880D01*
X32411727Y-77501995D01*
X32334485Y-77470000D01*
X32411727Y-77438005D01*
X32640535Y-77285120D01*
X32835120Y-77090535D01*
X32971055Y-76887094D01*
X35178001Y-79094041D01*
X35178001Y-80112661D01*
X35069614Y-80170595D01*
X34935038Y-80281038D01*
X34824595Y-80415614D01*
X34742528Y-80569150D01*
X34691992Y-80735746D01*
X34674928Y-80909000D01*
X34674928Y-82159000D01*
X34691992Y-82332254D01*
X34742528Y-82498850D01*
X34824595Y-82652386D01*
X34935038Y-82786962D01*
X35069614Y-82897405D01*
X35223150Y-82979472D01*
X35389746Y-83030008D01*
X35563000Y-83047072D01*
X36313000Y-83047072D01*
X36486254Y-83030008D01*
X36652850Y-82979472D01*
X36806386Y-82897405D01*
X36940962Y-82786962D01*
X37051405Y-82652386D01*
X37133472Y-82498850D01*
X37184008Y-82332254D01*
X37201072Y-82159000D01*
X37201072Y-80909000D01*
X37184008Y-80735746D01*
X37133472Y-80569150D01*
X37051405Y-80415614D01*
X36940962Y-80281038D01*
X36806386Y-80170595D01*
X36698000Y-80112661D01*
X36698000Y-78816560D01*
X36701676Y-78779237D01*
X36698000Y-78741914D01*
X36698000Y-78741905D01*
X36687003Y-78630252D01*
X36643546Y-78486991D01*
X36572974Y-78354962D01*
X36478001Y-78239237D01*
X36449003Y-78215439D01*
X32809609Y-74576046D01*
X32835120Y-74550535D01*
X32988005Y-74321727D01*
X33093314Y-74067490D01*
X33147000Y-73797592D01*
X33147000Y-73522408D01*
X33093314Y-73252510D01*
X32988005Y-72998273D01*
X32835120Y-72769465D01*
X32640535Y-72574880D01*
X32411727Y-72421995D01*
X32334485Y-72390000D01*
X32411727Y-72358005D01*
X32640535Y-72205120D01*
X32835120Y-72010535D01*
X32988005Y-71781727D01*
X33093314Y-71527490D01*
X33147000Y-71257592D01*
X33147000Y-70982408D01*
X33093314Y-70712510D01*
X32988005Y-70458273D01*
X32835120Y-70229465D01*
X32640535Y-70034880D01*
X32411727Y-69881995D01*
X32334485Y-69850000D01*
X32411727Y-69818005D01*
X32640535Y-69665120D01*
X32835120Y-69470535D01*
X32988005Y-69241727D01*
X33093314Y-68987490D01*
X33147000Y-68717592D01*
X33147000Y-68442408D01*
X33116372Y-68288429D01*
X35816730Y-65588072D01*
X36250000Y-65588072D01*
X36297949Y-65583350D01*
X36297950Y-71310617D01*
X36294273Y-71347949D01*
X36308947Y-71496934D01*
X36352403Y-71640195D01*
X36422975Y-71772225D01*
X36494150Y-71858951D01*
X36517949Y-71887950D01*
X36546947Y-71911748D01*
X37662590Y-73027392D01*
X37621463Y-73077506D01*
X37562498Y-73187820D01*
X37526188Y-73307518D01*
X37513928Y-73432000D01*
X37513928Y-75412000D01*
X37526188Y-75536482D01*
X37562498Y-75656180D01*
X37621463Y-75766494D01*
X37700815Y-75863185D01*
X37797506Y-75942537D01*
X37907820Y-76001502D01*
X37978001Y-76022791D01*
X37978000Y-80112661D01*
X37869614Y-80170595D01*
X37735038Y-80281038D01*
X37624595Y-80415614D01*
X37542528Y-80569150D01*
X37491992Y-80735746D01*
X37474928Y-80909000D01*
X37474928Y-82159000D01*
X37491992Y-82332254D01*
X37542528Y-82498850D01*
X37624595Y-82652386D01*
X37735038Y-82786962D01*
X37869614Y-82897405D01*
X38023150Y-82979472D01*
X38189746Y-83030008D01*
X38363000Y-83047072D01*
X39113000Y-83047072D01*
X39286254Y-83030008D01*
X39452850Y-82979472D01*
X39606386Y-82897405D01*
X39740962Y-82786962D01*
X39851405Y-82652386D01*
X39933472Y-82498850D01*
X39984008Y-82332254D01*
X40001072Y-82159000D01*
X40001072Y-80909000D01*
X39984008Y-80735746D01*
X39933472Y-80569150D01*
X39851405Y-80415614D01*
X39740962Y-80281038D01*
X39606386Y-80170595D01*
X39498000Y-80112661D01*
X39498000Y-76130801D01*
X39578729Y-76050072D01*
X42112000Y-76050072D01*
X42236482Y-76037812D01*
X42356180Y-76001502D01*
X42466494Y-75942537D01*
X42563185Y-75863185D01*
X42642537Y-75766494D01*
X42701502Y-75656180D01*
X42737812Y-75536482D01*
X42750072Y-75412000D01*
X42750072Y-73432000D01*
X42737812Y-73307518D01*
X42701502Y-73187820D01*
X42642537Y-73077506D01*
X42563185Y-72980815D01*
X42466494Y-72901463D01*
X42356180Y-72842498D01*
X42236482Y-72806188D01*
X42112000Y-72793928D01*
X39578730Y-72793928D01*
X37817949Y-71033148D01*
X37817949Y-70359144D01*
X37903148Y-70481246D01*
X38133601Y-70702581D01*
X38402806Y-70874704D01*
X38700418Y-70991000D01*
X39015000Y-71047000D01*
X40005000Y-71047000D01*
X40005000Y-69549000D01*
X40259000Y-69549000D01*
X40259000Y-71047000D01*
X41249000Y-71047000D01*
X41563582Y-70991000D01*
X41861194Y-70874704D01*
X42130399Y-70702581D01*
X42360852Y-70481246D01*
X42543696Y-70219205D01*
X42671905Y-69926528D01*
X42702218Y-69800865D01*
X42582740Y-69549000D01*
X40259000Y-69549000D01*
X40005000Y-69549000D01*
X39985000Y-69549000D01*
X39985000Y-69295000D01*
X40005000Y-69295000D01*
X40005000Y-67797000D01*
X40259000Y-67797000D01*
X40259000Y-69295000D01*
X42582740Y-69295000D01*
X42702218Y-69043135D01*
X42671905Y-68917472D01*
X42543696Y-68624795D01*
X42360852Y-68362754D01*
X42130399Y-68141419D01*
X41861194Y-67969296D01*
X41563582Y-67853000D01*
X41249000Y-67797000D01*
X40259000Y-67797000D01*
X40005000Y-67797000D01*
X39015000Y-67797000D01*
X38700418Y-67853000D01*
X38402806Y-67969296D01*
X38133601Y-68141419D01*
X37903148Y-68362754D01*
X37817949Y-68484856D01*
X37817949Y-63401450D01*
X37983673Y-63351179D01*
X38137209Y-63269112D01*
X38271785Y-63158669D01*
X38579454Y-62851000D01*
X40262928Y-62851000D01*
X40275188Y-62975482D01*
X40311498Y-63095180D01*
X40370463Y-63205494D01*
X40449815Y-63302185D01*
X40546506Y-63381537D01*
X40656820Y-63440502D01*
X40776518Y-63476812D01*
X40901000Y-63489072D01*
X41240250Y-63486000D01*
X41399000Y-63327250D01*
X41399000Y-62103000D01*
X41653000Y-62103000D01*
X41653000Y-63327250D01*
X41811750Y-63486000D01*
X42151000Y-63489072D01*
X42275482Y-63476812D01*
X42395180Y-63440502D01*
X42505494Y-63381537D01*
X42602185Y-63302185D01*
X42681537Y-63205494D01*
X42740502Y-63095180D01*
X42776812Y-62975482D01*
X42789072Y-62851000D01*
X42786000Y-62261750D01*
X42627250Y-62103000D01*
X41653000Y-62103000D01*
X41399000Y-62103000D01*
X40424750Y-62103000D01*
X40266000Y-62261750D01*
X40262928Y-62851000D01*
X38579454Y-62851000D01*
X39155669Y-62274785D01*
X39266112Y-62140209D01*
X39348179Y-61986673D01*
X39398715Y-61820077D01*
X39415779Y-61646823D01*
X39398715Y-61473569D01*
X39348179Y-61306973D01*
X39266112Y-61153437D01*
X39223079Y-61101000D01*
X40262928Y-61101000D01*
X40266000Y-61690250D01*
X40424750Y-61849000D01*
X41399000Y-61849000D01*
X41399000Y-60624750D01*
X41653000Y-60624750D01*
X41653000Y-61849000D01*
X42627250Y-61849000D01*
X42786000Y-61690250D01*
X42789072Y-61101000D01*
X42776812Y-60976518D01*
X42740502Y-60856820D01*
X42681537Y-60746506D01*
X42602185Y-60649815D01*
X42505494Y-60570463D01*
X42395180Y-60511498D01*
X42275482Y-60475188D01*
X42151000Y-60462928D01*
X41811750Y-60466000D01*
X41653000Y-60624750D01*
X41399000Y-60624750D01*
X41240250Y-60466000D01*
X40901000Y-60462928D01*
X40776518Y-60475188D01*
X40656820Y-60511498D01*
X40546506Y-60570463D01*
X40449815Y-60649815D01*
X40370463Y-60746506D01*
X40311498Y-60856820D01*
X40275188Y-60976518D01*
X40262928Y-61101000D01*
X39223079Y-61101000D01*
X39155669Y-61018861D01*
X38637880Y-60501072D01*
X40260000Y-60501072D01*
X40413745Y-60485929D01*
X40561582Y-60441084D01*
X40697829Y-60368258D01*
X40817251Y-60270251D01*
X40915258Y-60150829D01*
X40988084Y-60014582D01*
X41032929Y-59866745D01*
X41048072Y-59713000D01*
X41048072Y-59413000D01*
X41032929Y-59259255D01*
X40988084Y-59111418D01*
X40916270Y-58977064D01*
X40940537Y-58947494D01*
X40999502Y-58837180D01*
X41035812Y-58717482D01*
X41048072Y-58593000D01*
X41045000Y-58578750D01*
X40886252Y-58420002D01*
X40961269Y-58420002D01*
X40974328Y-58430719D01*
X41972621Y-59429013D01*
X41996419Y-59458011D01*
X42112144Y-59552984D01*
X42244173Y-59623556D01*
X42360771Y-59658925D01*
X42365997Y-59711986D01*
X42409454Y-59855247D01*
X42480026Y-59987276D01*
X42574999Y-60103001D01*
X42690724Y-60197974D01*
X42822753Y-60268546D01*
X42966014Y-60312003D01*
X43065572Y-60321809D01*
X43122171Y-60368258D01*
X43258418Y-60441084D01*
X43406255Y-60485929D01*
X43560000Y-60501072D01*
X43566001Y-60501072D01*
X43566001Y-60554661D01*
X43457614Y-60612595D01*
X43323038Y-60723038D01*
X43212595Y-60857614D01*
X43130528Y-61011150D01*
X43079992Y-61177746D01*
X43062928Y-61351000D01*
X43062928Y-62601000D01*
X43079992Y-62774254D01*
X43130528Y-62940850D01*
X43212595Y-63094386D01*
X43323038Y-63228962D01*
X43457614Y-63339405D01*
X43611150Y-63421472D01*
X43777746Y-63472008D01*
X43951000Y-63489072D01*
X44701000Y-63489072D01*
X44874254Y-63472008D01*
X45040850Y-63421472D01*
X45194386Y-63339405D01*
X45328962Y-63228962D01*
X45439405Y-63094386D01*
X45521472Y-62940850D01*
X45572008Y-62774254D01*
X45589072Y-62601000D01*
X45589072Y-61351000D01*
X45572008Y-61177746D01*
X45521472Y-61011150D01*
X45439405Y-60857614D01*
X45328962Y-60723038D01*
X45194386Y-60612595D01*
X45086000Y-60554661D01*
X45086000Y-60501072D01*
X45210000Y-60501072D01*
X45363745Y-60485929D01*
X45511582Y-60441084D01*
X45647829Y-60368258D01*
X45767251Y-60270251D01*
X45865258Y-60150829D01*
X45938084Y-60014582D01*
X45982929Y-59866745D01*
X45998072Y-59713000D01*
X45998072Y-59678010D01*
X46454668Y-59678010D01*
X46491990Y-59681686D01*
X46529312Y-59678010D01*
X46529323Y-59678010D01*
X46640976Y-59667013D01*
X46784237Y-59623556D01*
X46916266Y-59552984D01*
X47031991Y-59458011D01*
X47055794Y-59429007D01*
X48691912Y-57792889D01*
X48712528Y-57860850D01*
X48794595Y-58014386D01*
X48905038Y-58148962D01*
X49039614Y-58259405D01*
X49148000Y-58317339D01*
X49148001Y-76223830D01*
X49105746Y-76227992D01*
X48939150Y-76278528D01*
X48785614Y-76360595D01*
X48651038Y-76471038D01*
X48540595Y-76605614D01*
X48458528Y-76759150D01*
X48407992Y-76925746D01*
X48390928Y-77099000D01*
X48390928Y-78349000D01*
X48407992Y-78522254D01*
X48458528Y-78688850D01*
X48540595Y-78842386D01*
X48651038Y-78976962D01*
X48785614Y-79087405D01*
X48939150Y-79169472D01*
X49105746Y-79220008D01*
X49279000Y-79237072D01*
X50029000Y-79237072D01*
X50202254Y-79220008D01*
X50368850Y-79169472D01*
X50522386Y-79087405D01*
X50656962Y-78976962D01*
X50767405Y-78842386D01*
X50849472Y-78688850D01*
X50900008Y-78522254D01*
X50917072Y-78349000D01*
X50917072Y-77099000D01*
X50900008Y-76925746D01*
X50849472Y-76759150D01*
X50767405Y-76605614D01*
X50668000Y-76484488D01*
X50668000Y-58317339D01*
X50776386Y-58259405D01*
X50910962Y-58148962D01*
X51021405Y-58014386D01*
X51103472Y-57860850D01*
X51154008Y-57694254D01*
X51171072Y-57521000D01*
X51171072Y-56271000D01*
X51154008Y-56097746D01*
X51103472Y-55931150D01*
X51021405Y-55777614D01*
X50910962Y-55643038D01*
X50776386Y-55532595D01*
X50622850Y-55450528D01*
X50456254Y-55399992D01*
X50283000Y-55382928D01*
X49533000Y-55382928D01*
X49359746Y-55399992D01*
X49193150Y-55450528D01*
X49039614Y-55532595D01*
X48905038Y-55643038D01*
X48794595Y-55777614D01*
X48712528Y-55931150D01*
X48691912Y-55999111D01*
X47930800Y-55237999D01*
X47930800Y-55116939D01*
X48039186Y-55059005D01*
X48173762Y-54948562D01*
X48284205Y-54813986D01*
X48366272Y-54660450D01*
X48416808Y-54493854D01*
X48433872Y-54320600D01*
X48433872Y-53070600D01*
X48430016Y-53031453D01*
X48499928Y-53045436D01*
G37*
X48499928Y-53045436D02*
X48499928Y-53478000D01*
X48512188Y-53602482D01*
X48548498Y-53722180D01*
X48607463Y-53832494D01*
X48686815Y-53929185D01*
X48783506Y-54008537D01*
X48893820Y-54067502D01*
X49013518Y-54103812D01*
X49138000Y-54116072D01*
X50938000Y-54116072D01*
X51062482Y-54103812D01*
X51182180Y-54067502D01*
X51292494Y-54008537D01*
X51389185Y-53929185D01*
X51468537Y-53832494D01*
X51527502Y-53722180D01*
X51533056Y-53703873D01*
X51599495Y-53770312D01*
X51850905Y-53938299D01*
X51948001Y-53978518D01*
X51948000Y-55474661D01*
X51839614Y-55532595D01*
X51705038Y-55643038D01*
X51594595Y-55777614D01*
X51512528Y-55931150D01*
X51461992Y-56097746D01*
X51444928Y-56271000D01*
X51444928Y-57521000D01*
X51461992Y-57694254D01*
X51512528Y-57860850D01*
X51594595Y-58014386D01*
X51705038Y-58148962D01*
X51839614Y-58259405D01*
X51993150Y-58341472D01*
X52159746Y-58392008D01*
X52333000Y-58409072D01*
X53083000Y-58409072D01*
X53256254Y-58392008D01*
X53422850Y-58341472D01*
X53576386Y-58259405D01*
X53710962Y-58148962D01*
X53821405Y-58014386D01*
X53903472Y-57860850D01*
X53954008Y-57694254D01*
X53971072Y-57521000D01*
X53971072Y-56271000D01*
X53954008Y-56097746D01*
X53903472Y-55931150D01*
X53821405Y-55777614D01*
X53710962Y-55643038D01*
X53576386Y-55532595D01*
X53468000Y-55474661D01*
X53468000Y-53829449D01*
X53556505Y-53770312D01*
X53770312Y-53556505D01*
X53938299Y-53305095D01*
X54000800Y-53154205D01*
X54000801Y-81465797D01*
X53938299Y-81314905D01*
X53770312Y-81063495D01*
X53556505Y-80849688D01*
X53305095Y-80681701D01*
X53214000Y-80643968D01*
X53214000Y-79145339D01*
X53322386Y-79087405D01*
X53456962Y-78976962D01*
X53567405Y-78842386D01*
X53649472Y-78688850D01*
X53700008Y-78522254D01*
X53717072Y-78349000D01*
X53717072Y-77099000D01*
X53700008Y-76925746D01*
X53649472Y-76759150D01*
X53567405Y-76605614D01*
X53456962Y-76471038D01*
X53322386Y-76360595D01*
X53168850Y-76278528D01*
X53002254Y-76227992D01*
X52829000Y-76210928D01*
X52079000Y-76210928D01*
X51905746Y-76227992D01*
X51739150Y-76278528D01*
X51585614Y-76360595D01*
X51451038Y-76471038D01*
X51340595Y-76605614D01*
X51258528Y-76759150D01*
X51207992Y-76925746D01*
X51190928Y-77099000D01*
X51190928Y-78349000D01*
X51207992Y-78522254D01*
X51258528Y-78688850D01*
X51340595Y-78842386D01*
X51451038Y-78976962D01*
X51585614Y-79087405D01*
X51694000Y-79145339D01*
X51694001Y-80786541D01*
X51599495Y-80849688D01*
X51533056Y-80916127D01*
X51527502Y-80897820D01*
X51468537Y-80787506D01*
X51389185Y-80690815D01*
X51292494Y-80611463D01*
X51182180Y-80552498D01*
X51062482Y-80516188D01*
X50938000Y-80503928D01*
X49138000Y-80503928D01*
X49013518Y-80516188D01*
X48893820Y-80552498D01*
X48783506Y-80611463D01*
X48686815Y-80690815D01*
X48607463Y-80787506D01*
X48548498Y-80897820D01*
X48512188Y-81017518D01*
X48499928Y-81142000D01*
X48499928Y-81282000D01*
X43156791Y-81282000D01*
X43116153Y-81278352D01*
X43045073Y-81285975D01*
X42973774Y-81292997D01*
X42970594Y-81293962D01*
X42967299Y-81294315D01*
X42899060Y-81315661D01*
X42830513Y-81336454D01*
X42827586Y-81338019D01*
X42824420Y-81339009D01*
X42761625Y-81373276D01*
X42698484Y-81407026D01*
X42695918Y-81409132D01*
X42693006Y-81410721D01*
X42638071Y-81456605D01*
X42582759Y-81501999D01*
X42556873Y-81533541D01*
X33114781Y-91140431D01*
X33093314Y-91032510D01*
X32988005Y-90778273D01*
X32835120Y-90549465D01*
X32640535Y-90354880D01*
X32411727Y-90201995D01*
X32334485Y-90170000D01*
X32411727Y-90138005D01*
X32640535Y-89985120D01*
X32835120Y-89790535D01*
X32988005Y-89561727D01*
X33093314Y-89307490D01*
X33147000Y-89037592D01*
X33147000Y-88762408D01*
X33093314Y-88492510D01*
X32988005Y-88238273D01*
X32835120Y-88009465D01*
X32640535Y-87814880D01*
X32411727Y-87661995D01*
X32334485Y-87630000D01*
X32411727Y-87598005D01*
X32640535Y-87445120D01*
X32835120Y-87250535D01*
X32988005Y-87021727D01*
X33093314Y-86767490D01*
X33147000Y-86497592D01*
X33147000Y-86222408D01*
X33093314Y-85952510D01*
X32988005Y-85698273D01*
X32835120Y-85469465D01*
X32640535Y-85274880D01*
X32411727Y-85121995D01*
X32334485Y-85090000D01*
X32411727Y-85058005D01*
X32640535Y-84905120D01*
X32835120Y-84710535D01*
X32988005Y-84481727D01*
X33093314Y-84227490D01*
X33147000Y-83957592D01*
X33147000Y-83682408D01*
X33093314Y-83412510D01*
X32988005Y-83158273D01*
X32835120Y-82929465D01*
X32640535Y-82734880D01*
X32411727Y-82581995D01*
X32334485Y-82550000D01*
X32411727Y-82518005D01*
X32640535Y-82365120D01*
X32835120Y-82170535D01*
X32988005Y-81941727D01*
X33093314Y-81687490D01*
X33147000Y-81417592D01*
X33147000Y-81142408D01*
X33093314Y-80872510D01*
X32988005Y-80618273D01*
X32835120Y-80389465D01*
X32640535Y-80194880D01*
X32411727Y-80041995D01*
X32334485Y-80010000D01*
X32411727Y-79978005D01*
X32640535Y-79825120D01*
X32835120Y-79630535D01*
X32988005Y-79401727D01*
X33093314Y-79147490D01*
X33147000Y-78877592D01*
X33147000Y-78602408D01*
X33093314Y-78332510D01*
X32988005Y-78078273D01*
X32835120Y-77849465D01*
X32640535Y-77654880D01*
X32411727Y-77501995D01*
X32334485Y-77470000D01*
X32411727Y-77438005D01*
X32640535Y-77285120D01*
X32835120Y-77090535D01*
X32971055Y-76887094D01*
X35178001Y-79094041D01*
X35178001Y-80112661D01*
X35069614Y-80170595D01*
X34935038Y-80281038D01*
X34824595Y-80415614D01*
X34742528Y-80569150D01*
X34691992Y-80735746D01*
X34674928Y-80909000D01*
X34674928Y-82159000D01*
X34691992Y-82332254D01*
X34742528Y-82498850D01*
X34824595Y-82652386D01*
X34935038Y-82786962D01*
X35069614Y-82897405D01*
X35223150Y-82979472D01*
X35389746Y-83030008D01*
X35563000Y-83047072D01*
X36313000Y-83047072D01*
X36486254Y-83030008D01*
X36652850Y-82979472D01*
X36806386Y-82897405D01*
X36940962Y-82786962D01*
X37051405Y-82652386D01*
X37133472Y-82498850D01*
X37184008Y-82332254D01*
X37201072Y-82159000D01*
X37201072Y-80909000D01*
X37184008Y-80735746D01*
X37133472Y-80569150D01*
X37051405Y-80415614D01*
X36940962Y-80281038D01*
X36806386Y-80170595D01*
X36698000Y-80112661D01*
X36698000Y-78816560D01*
X36701676Y-78779237D01*
X36698000Y-78741914D01*
X36698000Y-78741905D01*
X36687003Y-78630252D01*
X36643546Y-78486991D01*
X36572974Y-78354962D01*
X36478001Y-78239237D01*
X36449003Y-78215439D01*
X32809609Y-74576046D01*
X32835120Y-74550535D01*
X32988005Y-74321727D01*
X33093314Y-74067490D01*
X33147000Y-73797592D01*
X33147000Y-73522408D01*
X33093314Y-73252510D01*
X32988005Y-72998273D01*
X32835120Y-72769465D01*
X32640535Y-72574880D01*
X32411727Y-72421995D01*
X32334485Y-72390000D01*
X32411727Y-72358005D01*
X32640535Y-72205120D01*
X32835120Y-72010535D01*
X32988005Y-71781727D01*
X33093314Y-71527490D01*
X33147000Y-71257592D01*
X33147000Y-70982408D01*
X33093314Y-70712510D01*
X32988005Y-70458273D01*
X32835120Y-70229465D01*
X32640535Y-70034880D01*
X32411727Y-69881995D01*
X32334485Y-69850000D01*
X32411727Y-69818005D01*
X32640535Y-69665120D01*
X32835120Y-69470535D01*
X32988005Y-69241727D01*
X33093314Y-68987490D01*
X33147000Y-68717592D01*
X33147000Y-68442408D01*
X33116372Y-68288429D01*
X35816730Y-65588072D01*
X36250000Y-65588072D01*
X36297949Y-65583350D01*
X36297950Y-71310617D01*
X36294273Y-71347949D01*
X36308947Y-71496934D01*
X36352403Y-71640195D01*
X36422975Y-71772225D01*
X36494150Y-71858951D01*
X36517949Y-71887950D01*
X36546947Y-71911748D01*
X37662590Y-73027392D01*
X37621463Y-73077506D01*
X37562498Y-73187820D01*
X37526188Y-73307518D01*
X37513928Y-73432000D01*
X37513928Y-75412000D01*
X37526188Y-75536482D01*
X37562498Y-75656180D01*
X37621463Y-75766494D01*
X37700815Y-75863185D01*
X37797506Y-75942537D01*
X37907820Y-76001502D01*
X37978001Y-76022791D01*
X37978000Y-80112661D01*
X37869614Y-80170595D01*
X37735038Y-80281038D01*
X37624595Y-80415614D01*
X37542528Y-80569150D01*
X37491992Y-80735746D01*
X37474928Y-80909000D01*
X37474928Y-82159000D01*
X37491992Y-82332254D01*
X37542528Y-82498850D01*
X37624595Y-82652386D01*
X37735038Y-82786962D01*
X37869614Y-82897405D01*
X38023150Y-82979472D01*
X38189746Y-83030008D01*
X38363000Y-83047072D01*
X39113000Y-83047072D01*
X39286254Y-83030008D01*
X39452850Y-82979472D01*
X39606386Y-82897405D01*
X39740962Y-82786962D01*
X39851405Y-82652386D01*
X39933472Y-82498850D01*
X39984008Y-82332254D01*
X40001072Y-82159000D01*
X40001072Y-80909000D01*
X39984008Y-80735746D01*
X39933472Y-80569150D01*
X39851405Y-80415614D01*
X39740962Y-80281038D01*
X39606386Y-80170595D01*
X39498000Y-80112661D01*
X39498000Y-76130801D01*
X39578729Y-76050072D01*
X42112000Y-76050072D01*
X42236482Y-76037812D01*
X42356180Y-76001502D01*
X42466494Y-75942537D01*
X42563185Y-75863185D01*
X42642537Y-75766494D01*
X42701502Y-75656180D01*
X42737812Y-75536482D01*
X42750072Y-75412000D01*
X42750072Y-73432000D01*
X42737812Y-73307518D01*
X42701502Y-73187820D01*
X42642537Y-73077506D01*
X42563185Y-72980815D01*
X42466494Y-72901463D01*
X42356180Y-72842498D01*
X42236482Y-72806188D01*
X42112000Y-72793928D01*
X39578730Y-72793928D01*
X37817949Y-71033148D01*
X37817949Y-70359144D01*
X37903148Y-70481246D01*
X38133601Y-70702581D01*
X38402806Y-70874704D01*
X38700418Y-70991000D01*
X39015000Y-71047000D01*
X40005000Y-71047000D01*
X40005000Y-69549000D01*
X40259000Y-69549000D01*
X40259000Y-71047000D01*
X41249000Y-71047000D01*
X41563582Y-70991000D01*
X41861194Y-70874704D01*
X42130399Y-70702581D01*
X42360852Y-70481246D01*
X42543696Y-70219205D01*
X42671905Y-69926528D01*
X42702218Y-69800865D01*
X42582740Y-69549000D01*
X40259000Y-69549000D01*
X40005000Y-69549000D01*
X39985000Y-69549000D01*
X39985000Y-69295000D01*
X40005000Y-69295000D01*
X40005000Y-67797000D01*
X40259000Y-67797000D01*
X40259000Y-69295000D01*
X42582740Y-69295000D01*
X42702218Y-69043135D01*
X42671905Y-68917472D01*
X42543696Y-68624795D01*
X42360852Y-68362754D01*
X42130399Y-68141419D01*
X41861194Y-67969296D01*
X41563582Y-67853000D01*
X41249000Y-67797000D01*
X40259000Y-67797000D01*
X40005000Y-67797000D01*
X39015000Y-67797000D01*
X38700418Y-67853000D01*
X38402806Y-67969296D01*
X38133601Y-68141419D01*
X37903148Y-68362754D01*
X37817949Y-68484856D01*
X37817949Y-63401450D01*
X37983673Y-63351179D01*
X38137209Y-63269112D01*
X38271785Y-63158669D01*
X38579454Y-62851000D01*
X40262928Y-62851000D01*
X40275188Y-62975482D01*
X40311498Y-63095180D01*
X40370463Y-63205494D01*
X40449815Y-63302185D01*
X40546506Y-63381537D01*
X40656820Y-63440502D01*
X40776518Y-63476812D01*
X40901000Y-63489072D01*
X41240250Y-63486000D01*
X41399000Y-63327250D01*
X41399000Y-62103000D01*
X41653000Y-62103000D01*
X41653000Y-63327250D01*
X41811750Y-63486000D01*
X42151000Y-63489072D01*
X42275482Y-63476812D01*
X42395180Y-63440502D01*
X42505494Y-63381537D01*
X42602185Y-63302185D01*
X42681537Y-63205494D01*
X42740502Y-63095180D01*
X42776812Y-62975482D01*
X42789072Y-62851000D01*
X42786000Y-62261750D01*
X42627250Y-62103000D01*
X41653000Y-62103000D01*
X41399000Y-62103000D01*
X40424750Y-62103000D01*
X40266000Y-62261750D01*
X40262928Y-62851000D01*
X38579454Y-62851000D01*
X39155669Y-62274785D01*
X39266112Y-62140209D01*
X39348179Y-61986673D01*
X39398715Y-61820077D01*
X39415779Y-61646823D01*
X39398715Y-61473569D01*
X39348179Y-61306973D01*
X39266112Y-61153437D01*
X39223079Y-61101000D01*
X40262928Y-61101000D01*
X40266000Y-61690250D01*
X40424750Y-61849000D01*
X41399000Y-61849000D01*
X41399000Y-60624750D01*
X41653000Y-60624750D01*
X41653000Y-61849000D01*
X42627250Y-61849000D01*
X42786000Y-61690250D01*
X42789072Y-61101000D01*
X42776812Y-60976518D01*
X42740502Y-60856820D01*
X42681537Y-60746506D01*
X42602185Y-60649815D01*
X42505494Y-60570463D01*
X42395180Y-60511498D01*
X42275482Y-60475188D01*
X42151000Y-60462928D01*
X41811750Y-60466000D01*
X41653000Y-60624750D01*
X41399000Y-60624750D01*
X41240250Y-60466000D01*
X40901000Y-60462928D01*
X40776518Y-60475188D01*
X40656820Y-60511498D01*
X40546506Y-60570463D01*
X40449815Y-60649815D01*
X40370463Y-60746506D01*
X40311498Y-60856820D01*
X40275188Y-60976518D01*
X40262928Y-61101000D01*
X39223079Y-61101000D01*
X39155669Y-61018861D01*
X38637880Y-60501072D01*
X40260000Y-60501072D01*
X40413745Y-60485929D01*
X40561582Y-60441084D01*
X40697829Y-60368258D01*
X40817251Y-60270251D01*
X40915258Y-60150829D01*
X40988084Y-60014582D01*
X41032929Y-59866745D01*
X41048072Y-59713000D01*
X41048072Y-59413000D01*
X41032929Y-59259255D01*
X40988084Y-59111418D01*
X40916270Y-58977064D01*
X40940537Y-58947494D01*
X40999502Y-58837180D01*
X41035812Y-58717482D01*
X41048072Y-58593000D01*
X41045000Y-58578750D01*
X40886252Y-58420002D01*
X40961269Y-58420002D01*
X40974328Y-58430719D01*
X41972621Y-59429013D01*
X41996419Y-59458011D01*
X42112144Y-59552984D01*
X42244173Y-59623556D01*
X42360771Y-59658925D01*
X42365997Y-59711986D01*
X42409454Y-59855247D01*
X42480026Y-59987276D01*
X42574999Y-60103001D01*
X42690724Y-60197974D01*
X42822753Y-60268546D01*
X42966014Y-60312003D01*
X43065572Y-60321809D01*
X43122171Y-60368258D01*
X43258418Y-60441084D01*
X43406255Y-60485929D01*
X43560000Y-60501072D01*
X43566001Y-60501072D01*
X43566001Y-60554661D01*
X43457614Y-60612595D01*
X43323038Y-60723038D01*
X43212595Y-60857614D01*
X43130528Y-61011150D01*
X43079992Y-61177746D01*
X43062928Y-61351000D01*
X43062928Y-62601000D01*
X43079992Y-62774254D01*
X43130528Y-62940850D01*
X43212595Y-63094386D01*
X43323038Y-63228962D01*
X43457614Y-63339405D01*
X43611150Y-63421472D01*
X43777746Y-63472008D01*
X43951000Y-63489072D01*
X44701000Y-63489072D01*
X44874254Y-63472008D01*
X45040850Y-63421472D01*
X45194386Y-63339405D01*
X45328962Y-63228962D01*
X45439405Y-63094386D01*
X45521472Y-62940850D01*
X45572008Y-62774254D01*
X45589072Y-62601000D01*
X45589072Y-61351000D01*
X45572008Y-61177746D01*
X45521472Y-61011150D01*
X45439405Y-60857614D01*
X45328962Y-60723038D01*
X45194386Y-60612595D01*
X45086000Y-60554661D01*
X45086000Y-60501072D01*
X45210000Y-60501072D01*
X45363745Y-60485929D01*
X45511582Y-60441084D01*
X45647829Y-60368258D01*
X45767251Y-60270251D01*
X45865258Y-60150829D01*
X45938084Y-60014582D01*
X45982929Y-59866745D01*
X45998072Y-59713000D01*
X45998072Y-59678010D01*
X46454668Y-59678010D01*
X46491990Y-59681686D01*
X46529312Y-59678010D01*
X46529323Y-59678010D01*
X46640976Y-59667013D01*
X46784237Y-59623556D01*
X46916266Y-59552984D01*
X47031991Y-59458011D01*
X47055794Y-59429007D01*
X48691912Y-57792889D01*
X48712528Y-57860850D01*
X48794595Y-58014386D01*
X48905038Y-58148962D01*
X49039614Y-58259405D01*
X49148000Y-58317339D01*
X49148001Y-76223830D01*
X49105746Y-76227992D01*
X48939150Y-76278528D01*
X48785614Y-76360595D01*
X48651038Y-76471038D01*
X48540595Y-76605614D01*
X48458528Y-76759150D01*
X48407992Y-76925746D01*
X48390928Y-77099000D01*
X48390928Y-78349000D01*
X48407992Y-78522254D01*
X48458528Y-78688850D01*
X48540595Y-78842386D01*
X48651038Y-78976962D01*
X48785614Y-79087405D01*
X48939150Y-79169472D01*
X49105746Y-79220008D01*
X49279000Y-79237072D01*
X50029000Y-79237072D01*
X50202254Y-79220008D01*
X50368850Y-79169472D01*
X50522386Y-79087405D01*
X50656962Y-78976962D01*
X50767405Y-78842386D01*
X50849472Y-78688850D01*
X50900008Y-78522254D01*
X50917072Y-78349000D01*
X50917072Y-77099000D01*
X50900008Y-76925746D01*
X50849472Y-76759150D01*
X50767405Y-76605614D01*
X50668000Y-76484488D01*
X50668000Y-58317339D01*
X50776386Y-58259405D01*
X50910962Y-58148962D01*
X51021405Y-58014386D01*
X51103472Y-57860850D01*
X51154008Y-57694254D01*
X51171072Y-57521000D01*
X51171072Y-56271000D01*
X51154008Y-56097746D01*
X51103472Y-55931150D01*
X51021405Y-55777614D01*
X50910962Y-55643038D01*
X50776386Y-55532595D01*
X50622850Y-55450528D01*
X50456254Y-55399992D01*
X50283000Y-55382928D01*
X49533000Y-55382928D01*
X49359746Y-55399992D01*
X49193150Y-55450528D01*
X49039614Y-55532595D01*
X48905038Y-55643038D01*
X48794595Y-55777614D01*
X48712528Y-55931150D01*
X48691912Y-55999111D01*
X47930800Y-55237999D01*
X47930800Y-55116939D01*
X48039186Y-55059005D01*
X48173762Y-54948562D01*
X48284205Y-54813986D01*
X48366272Y-54660450D01*
X48416808Y-54493854D01*
X48433872Y-54320600D01*
X48433872Y-53070600D01*
X48430016Y-53031453D01*
X48499928Y-53045436D01*
G36*
X54000801Y-90734300D02*
G01*
X53176095Y-90734300D01*
X53176095Y-88879100D01*
X39279905Y-88879100D01*
X39279905Y-90734300D01*
X35645190Y-90734300D01*
X43441420Y-82802000D01*
X48499928Y-82802000D01*
X48499928Y-82942000D01*
X48512188Y-83066482D01*
X48548498Y-83186180D01*
X48607463Y-83296494D01*
X48686815Y-83393185D01*
X48783506Y-83472537D01*
X48893820Y-83531502D01*
X49013518Y-83567812D01*
X49138000Y-83580072D01*
X50938000Y-83580072D01*
X51062482Y-83567812D01*
X51182180Y-83531502D01*
X51292494Y-83472537D01*
X51389185Y-83393185D01*
X51468537Y-83296494D01*
X51527502Y-83186180D01*
X51533056Y-83167873D01*
X51599495Y-83234312D01*
X51850905Y-83402299D01*
X52130257Y-83518011D01*
X52426816Y-83577000D01*
X52729184Y-83577000D01*
X53025743Y-83518011D01*
X53305095Y-83402299D01*
X53556505Y-83234312D01*
X53770312Y-83020505D01*
X53938299Y-82769095D01*
X54000801Y-82618203D01*
X54000801Y-90734300D01*
G37*
X54000801Y-90734300D02*
X53176095Y-90734300D01*
X53176095Y-88879100D01*
X39279905Y-88879100D01*
X39279905Y-90734300D01*
X35645190Y-90734300D01*
X43441420Y-82802000D01*
X48499928Y-82802000D01*
X48499928Y-82942000D01*
X48512188Y-83066482D01*
X48548498Y-83186180D01*
X48607463Y-83296494D01*
X48686815Y-83393185D01*
X48783506Y-83472537D01*
X48893820Y-83531502D01*
X49013518Y-83567812D01*
X49138000Y-83580072D01*
X50938000Y-83580072D01*
X51062482Y-83567812D01*
X51182180Y-83531502D01*
X51292494Y-83472537D01*
X51389185Y-83393185D01*
X51468537Y-83296494D01*
X51527502Y-83186180D01*
X51533056Y-83167873D01*
X51599495Y-83234312D01*
X51850905Y-83402299D01*
X52130257Y-83518011D01*
X52426816Y-83577000D01*
X52729184Y-83577000D01*
X53025743Y-83518011D01*
X53305095Y-83402299D01*
X53556505Y-83234312D01*
X53770312Y-83020505D01*
X53938299Y-82769095D01*
X54000801Y-82618203D01*
X54000801Y-90734300D01*
G36*
X37834188Y-57868518D02*
G01*
X37821928Y-57993000D01*
X37825000Y-58007250D01*
X37983750Y-58166000D01*
X39308000Y-58166000D01*
X39308000Y-58146000D01*
X39562000Y-58146000D01*
X39562000Y-58166000D01*
X39582000Y-58166000D01*
X39582000Y-58420000D01*
X39562000Y-58420000D01*
X39562000Y-58440000D01*
X39308000Y-58440000D01*
X39308000Y-58420000D01*
X37983750Y-58420000D01*
X37825000Y-58578750D01*
X37821928Y-58593000D01*
X37834188Y-58717482D01*
X37870498Y-58837180D01*
X37880138Y-58855214D01*
X37872753Y-58857454D01*
X37740724Y-58928026D01*
X37624999Y-59022999D01*
X37601201Y-59051997D01*
X37353596Y-59299602D01*
X37286214Y-59173539D01*
X37175771Y-59038963D01*
X36645441Y-58508633D01*
X36510865Y-58398190D01*
X36357329Y-58316123D01*
X36190733Y-58265587D01*
X36017479Y-58248523D01*
X35995079Y-58250729D01*
X35874385Y-57910000D01*
X37402267Y-57910000D01*
X37439600Y-57913677D01*
X37476933Y-57910000D01*
X37588586Y-57899003D01*
X37731847Y-57855546D01*
X37858690Y-57787746D01*
X37834188Y-57868518D01*
G37*
X37834188Y-57868518D02*
X37821928Y-57993000D01*
X37825000Y-58007250D01*
X37983750Y-58166000D01*
X39308000Y-58166000D01*
X39308000Y-58146000D01*
X39562000Y-58146000D01*
X39562000Y-58166000D01*
X39582000Y-58166000D01*
X39582000Y-58420000D01*
X39562000Y-58420000D01*
X39562000Y-58440000D01*
X39308000Y-58440000D01*
X39308000Y-58420000D01*
X37983750Y-58420000D01*
X37825000Y-58578750D01*
X37821928Y-58593000D01*
X37834188Y-58717482D01*
X37870498Y-58837180D01*
X37880138Y-58855214D01*
X37872753Y-58857454D01*
X37740724Y-58928026D01*
X37624999Y-59022999D01*
X37601201Y-59051997D01*
X37353596Y-59299602D01*
X37286214Y-59173539D01*
X37175771Y-59038963D01*
X36645441Y-58508633D01*
X36510865Y-58398190D01*
X36357329Y-58316123D01*
X36190733Y-58265587D01*
X36017479Y-58248523D01*
X35995079Y-58250729D01*
X35874385Y-57910000D01*
X37402267Y-57910000D01*
X37439600Y-57913677D01*
X37476933Y-57910000D01*
X37588586Y-57899003D01*
X37731847Y-57855546D01*
X37858690Y-57787746D01*
X37834188Y-57868518D01*
M02*
