G04 #@! TF.GenerationSoftware,KiCad,Pcbnew,5.1.6-c6e7f7d~87~ubuntu18.04.1*
G04 #@! TF.CreationDate,2020-08-09T11:44:03+02:00*
G04 #@! TF.ProjectId,sboxnet-dccgen,73626f78-6e65-4742-9d64-636367656e2e,rev?*
G04 #@! TF.SameCoordinates,Original*
G04 #@! TF.FileFunction,Legend,Top*
G04 #@! TF.FilePolarity,Positive*
%FSLAX46Y46*%
G04 Gerber Fmt 4.6, Leading zero omitted, Abs format (unit mm)*
G04 Created by KiCad (PCBNEW 5.1.6-c6e7f7d~87~ubuntu18.04.1) date 2020-08-09 11:44:03*
%MOMM*%
%LPD*%
G01*
G04 APERTURE LIST*
%ADD10C,0.150000*%
%ADD11C,0.120000*%
G04 APERTURE END LIST*
D10*
X39738095Y-65452380D02*
X39738095Y-64452380D01*
X39976190Y-64452380D01*
X40119047Y-64500000D01*
X40214285Y-64595238D01*
X40261904Y-64690476D01*
X40309523Y-64880952D01*
X40309523Y-65023809D01*
X40261904Y-65214285D01*
X40214285Y-65309523D01*
X40119047Y-65404761D01*
X39976190Y-65452380D01*
X39738095Y-65452380D01*
X47380952Y-74627380D02*
X47380952Y-73627380D01*
X47952380Y-74627380D01*
X47952380Y-73627380D01*
X48619047Y-73627380D02*
X48809523Y-73627380D01*
X48904761Y-73675000D01*
X49000000Y-73770238D01*
X49047619Y-73960714D01*
X49047619Y-74294047D01*
X49000000Y-74484523D01*
X48904761Y-74579761D01*
X48809523Y-74627380D01*
X48619047Y-74627380D01*
X48523809Y-74579761D01*
X48428571Y-74484523D01*
X48380952Y-74294047D01*
X48380952Y-73960714D01*
X48428571Y-73770238D01*
X48523809Y-73675000D01*
X48619047Y-73627380D01*
X49333333Y-73627380D02*
X49904761Y-73627380D01*
X49619047Y-74627380D02*
X49619047Y-73627380D01*
X50190476Y-74341666D02*
X50666666Y-74341666D01*
X50095238Y-74627380D02*
X50428571Y-73627380D01*
X50761904Y-74627380D01*
X51095238Y-73627380D02*
X51095238Y-74436904D01*
X51142857Y-74532142D01*
X51190476Y-74579761D01*
X51285714Y-74627380D01*
X51476190Y-74627380D01*
X51571428Y-74579761D01*
X51619047Y-74532142D01*
X51666666Y-74436904D01*
X51666666Y-73627380D01*
X52095238Y-74579761D02*
X52238095Y-74627380D01*
X52476190Y-74627380D01*
X52571428Y-74579761D01*
X52619047Y-74532142D01*
X52666666Y-74436904D01*
X52666666Y-74341666D01*
X52619047Y-74246428D01*
X52571428Y-74198809D01*
X52476190Y-74151190D01*
X52285714Y-74103571D01*
X52190476Y-74055952D01*
X52142857Y-74008333D01*
X52095238Y-73913095D01*
X52095238Y-73817857D01*
X52142857Y-73722619D01*
X52190476Y-73675000D01*
X52285714Y-73627380D01*
X52523809Y-73627380D01*
X52666666Y-73675000D01*
X48142857Y-75277380D02*
X48333333Y-75277380D01*
X48428571Y-75325000D01*
X48523809Y-75420238D01*
X48571428Y-75610714D01*
X48571428Y-75944047D01*
X48523809Y-76134523D01*
X48428571Y-76229761D01*
X48333333Y-76277380D01*
X48142857Y-76277380D01*
X48047619Y-76229761D01*
X47952380Y-76134523D01*
X47904761Y-75944047D01*
X47904761Y-75610714D01*
X47952380Y-75420238D01*
X48047619Y-75325000D01*
X48142857Y-75277380D01*
X48047619Y-74944047D02*
X48095238Y-74991666D01*
X48047619Y-75039285D01*
X48000000Y-74991666D01*
X48047619Y-74944047D01*
X48047619Y-75039285D01*
X48428571Y-74944047D02*
X48476190Y-74991666D01*
X48428571Y-75039285D01*
X48380952Y-74991666D01*
X48428571Y-74944047D01*
X48428571Y-75039285D01*
X48857142Y-75610714D02*
X49238095Y-75610714D01*
X49000000Y-76277380D02*
X49000000Y-75420238D01*
X49047619Y-75325000D01*
X49142857Y-75277380D01*
X49238095Y-75277380D01*
X49428571Y-75610714D02*
X49809523Y-75610714D01*
X49571428Y-76277380D02*
X49571428Y-75420238D01*
X49619047Y-75325000D01*
X49714285Y-75277380D01*
X49809523Y-75277380D01*
X50142857Y-75610714D02*
X50142857Y-76277380D01*
X50142857Y-75705952D02*
X50190476Y-75658333D01*
X50285714Y-75610714D01*
X50428571Y-75610714D01*
X50523809Y-75658333D01*
X50571428Y-75753571D01*
X50571428Y-76277380D01*
X51428571Y-76229761D02*
X51333333Y-76277380D01*
X51142857Y-76277380D01*
X51047619Y-76229761D01*
X51000000Y-76134523D01*
X51000000Y-75753571D01*
X51047619Y-75658333D01*
X51142857Y-75610714D01*
X51333333Y-75610714D01*
X51428571Y-75658333D01*
X51476190Y-75753571D01*
X51476190Y-75848809D01*
X51000000Y-75944047D01*
X51904761Y-76277380D02*
X51904761Y-75610714D01*
X51904761Y-75801190D02*
X51952380Y-75705952D01*
X52000000Y-75658333D01*
X52095238Y-75610714D01*
X52190476Y-75610714D01*
X43449904Y-52262066D02*
X43926095Y-52262066D01*
X43354666Y-52547780D02*
X43688000Y-51547780D01*
X44021333Y-52547780D01*
X38755628Y-53471771D02*
X38898485Y-53519390D01*
X38946104Y-53567009D01*
X38993723Y-53662247D01*
X38993723Y-53805104D01*
X38946104Y-53900342D01*
X38898485Y-53947961D01*
X38803247Y-53995580D01*
X38422295Y-53995580D01*
X38422295Y-52995580D01*
X38755628Y-52995580D01*
X38850866Y-53043200D01*
X38898485Y-53090819D01*
X38946104Y-53186057D01*
X38946104Y-53281295D01*
X38898485Y-53376533D01*
X38850866Y-53424152D01*
X38755628Y-53471771D01*
X38422295Y-53471771D01*
X48562000Y-87066380D02*
X48562000Y-86066380D01*
X49133428Y-87066380D01*
X49133428Y-86066380D01*
X49800095Y-86066380D02*
X49990571Y-86066380D01*
X50085809Y-86114000D01*
X50181047Y-86209238D01*
X50228666Y-86399714D01*
X50228666Y-86733047D01*
X50181047Y-86923523D01*
X50085809Y-87018761D01*
X49990571Y-87066380D01*
X49800095Y-87066380D01*
X49704857Y-87018761D01*
X49609619Y-86923523D01*
X49562000Y-86733047D01*
X49562000Y-86399714D01*
X49609619Y-86209238D01*
X49704857Y-86114000D01*
X49800095Y-86066380D01*
X50514380Y-86066380D02*
X51085809Y-86066380D01*
X50800095Y-87066380D02*
X50800095Y-86066380D01*
X52133428Y-86780666D02*
X52609619Y-86780666D01*
X52038190Y-87066380D02*
X52371523Y-86066380D01*
X52704857Y-87066380D01*
X53038190Y-86066380D02*
X53038190Y-86875904D01*
X53085809Y-86971142D01*
X53133428Y-87018761D01*
X53228666Y-87066380D01*
X53419142Y-87066380D01*
X53514380Y-87018761D01*
X53562000Y-86971142D01*
X53609619Y-86875904D01*
X53609619Y-86066380D01*
X54038190Y-87018761D02*
X54181047Y-87066380D01*
X54419142Y-87066380D01*
X54514380Y-87018761D01*
X54562000Y-86971142D01*
X54609619Y-86875904D01*
X54609619Y-86780666D01*
X54562000Y-86685428D01*
X54514380Y-86637809D01*
X54419142Y-86590190D01*
X54228666Y-86542571D01*
X54133428Y-86494952D01*
X54085809Y-86447333D01*
X54038190Y-86352095D01*
X54038190Y-86256857D01*
X54085809Y-86161619D01*
X54133428Y-86114000D01*
X54228666Y-86066380D01*
X54466761Y-86066380D01*
X54609619Y-86114000D01*
X49125523Y-50998380D02*
X49125523Y-49998380D01*
X49363619Y-49998380D01*
X49506476Y-50046000D01*
X49601714Y-50141238D01*
X49649333Y-50236476D01*
X49696952Y-50426952D01*
X49696952Y-50569809D01*
X49649333Y-50760285D01*
X49601714Y-50855523D01*
X49506476Y-50950761D01*
X49363619Y-50998380D01*
X49125523Y-50998380D01*
X50696952Y-50903142D02*
X50649333Y-50950761D01*
X50506476Y-50998380D01*
X50411238Y-50998380D01*
X50268380Y-50950761D01*
X50173142Y-50855523D01*
X50125523Y-50760285D01*
X50077904Y-50569809D01*
X50077904Y-50426952D01*
X50125523Y-50236476D01*
X50173142Y-50141238D01*
X50268380Y-50046000D01*
X50411238Y-49998380D01*
X50506476Y-49998380D01*
X50649333Y-50046000D01*
X50696952Y-50093619D01*
X51696952Y-50903142D02*
X51649333Y-50950761D01*
X51506476Y-50998380D01*
X51411238Y-50998380D01*
X51268380Y-50950761D01*
X51173142Y-50855523D01*
X51125523Y-50760285D01*
X51077904Y-50569809D01*
X51077904Y-50426952D01*
X51125523Y-50236476D01*
X51173142Y-50141238D01*
X51268380Y-50046000D01*
X51411238Y-49998380D01*
X51506476Y-49998380D01*
X51649333Y-50046000D01*
X51696952Y-50093619D01*
X53077904Y-49998380D02*
X53268380Y-49998380D01*
X53363619Y-50046000D01*
X53458857Y-50141238D01*
X53506476Y-50331714D01*
X53506476Y-50665047D01*
X53458857Y-50855523D01*
X53363619Y-50950761D01*
X53268380Y-50998380D01*
X53077904Y-50998380D01*
X52982666Y-50950761D01*
X52887428Y-50855523D01*
X52839809Y-50665047D01*
X52839809Y-50331714D01*
X52887428Y-50141238D01*
X52982666Y-50046000D01*
X53077904Y-49998380D01*
X53935047Y-50998380D02*
X53935047Y-49998380D01*
X54506476Y-50998380D01*
X54506476Y-49998380D01*
D11*
X33020000Y-95504000D02*
X33274000Y-50800000D01*
X33274000Y-50800000D02*
X27432000Y-50800000D01*
X27432000Y-50800000D02*
X27432000Y-94742000D01*
X27432000Y-94742000D02*
X27432000Y-95504000D01*
X27432000Y-95504000D02*
X33020000Y-95504000D01*
X40580000Y-51552800D02*
X41910000Y-51552800D01*
X40580000Y-52882800D02*
X40580000Y-51552800D01*
X40580000Y-54152800D02*
X43240000Y-54152800D01*
X43240000Y-54152800D02*
X43240000Y-54212800D01*
X40580000Y-54152800D02*
X40580000Y-54212800D01*
X40580000Y-54212800D02*
X43240000Y-54212800D01*
X35652400Y-52213200D02*
X36982400Y-52213200D01*
X35652400Y-53543200D02*
X35652400Y-52213200D01*
X35652400Y-54813200D02*
X38312400Y-54813200D01*
X38312400Y-54813200D02*
X38312400Y-54873200D01*
X35652400Y-54813200D02*
X35652400Y-54873200D01*
X35652400Y-54873200D02*
X38312400Y-54873200D01*
X34070000Y-62770000D02*
X35400000Y-62770000D01*
X34070000Y-64100000D02*
X34070000Y-62770000D01*
X34070000Y-65370000D02*
X36730000Y-65370000D01*
X36730000Y-65370000D02*
X36730000Y-65430000D01*
X34070000Y-65370000D02*
X34070000Y-65430000D01*
X34070000Y-65430000D02*
X36730000Y-65430000D01*
X49748000Y-51342000D02*
X49748000Y-51498000D01*
X49748000Y-53658000D02*
X49748000Y-53814000D01*
X52349130Y-53657837D02*
G75*
G02*
X50267039Y-53658000I-1041130J1079837D01*
G01*
X52349130Y-51498163D02*
G75*
G03*
X50267039Y-51498000I-1041130J-1079837D01*
G01*
X52980335Y-53656608D02*
G75*
G02*
X49748000Y-53813516I-1672335J1078608D01*
G01*
X52980335Y-51499392D02*
G75*
G03*
X49748000Y-51342484I-1672335J-1078608D01*
G01*
X49748000Y-80806000D02*
X49748000Y-80962000D01*
X49748000Y-83122000D02*
X49748000Y-83278000D01*
X52349130Y-83121837D02*
G75*
G02*
X50267039Y-83122000I-1041130J1079837D01*
G01*
X52349130Y-80962163D02*
G75*
G03*
X50267039Y-80962000I-1041130J-1079837D01*
G01*
X52980335Y-83120608D02*
G75*
G02*
X49748000Y-83277516I-1672335J1078608D01*
G01*
X52980335Y-80963392D02*
G75*
G03*
X49748000Y-80806484I-1672335J-1078608D01*
G01*
X33832000Y-77072000D02*
X46432000Y-77072000D01*
X46432000Y-77072000D02*
X46432000Y-66722000D01*
X46432000Y-66722000D02*
X45482000Y-66722000D01*
X45482000Y-66722000D02*
X45732000Y-66222000D01*
X45732000Y-66222000D02*
X43832000Y-66222000D01*
X43832000Y-66222000D02*
X43782000Y-66222000D01*
X43782000Y-66222000D02*
X44032000Y-66722000D01*
X44032000Y-66722000D02*
X38632000Y-66722000D01*
X38632000Y-66722000D02*
X38932000Y-66222000D01*
X38932000Y-66222000D02*
X33832000Y-66222000D01*
X33832000Y-66222000D02*
X33832000Y-77072000D01*
D10*
X33806666Y-93512380D02*
X33806666Y-94226666D01*
X33759047Y-94369523D01*
X33663809Y-94464761D01*
X33520952Y-94512380D01*
X33425714Y-94512380D01*
X34806666Y-94512380D02*
X34235238Y-94512380D01*
X34520952Y-94512380D02*
X34520952Y-93512380D01*
X34425714Y-93655238D01*
X34330476Y-93750476D01*
X34235238Y-93798095D01*
X40648095Y-50005180D02*
X41219523Y-50005180D01*
X40933809Y-51005180D02*
X40933809Y-50005180D01*
X41552857Y-51005180D02*
X41552857Y-50005180D01*
X41933809Y-50005180D01*
X42029047Y-50052800D01*
X42076666Y-50100419D01*
X42124285Y-50195657D01*
X42124285Y-50338514D01*
X42076666Y-50433752D01*
X42029047Y-50481371D01*
X41933809Y-50528990D01*
X41552857Y-50528990D01*
X42457619Y-50005180D02*
X43076666Y-50005180D01*
X42743333Y-50386133D01*
X42886190Y-50386133D01*
X42981428Y-50433752D01*
X43029047Y-50481371D01*
X43076666Y-50576609D01*
X43076666Y-50814704D01*
X43029047Y-50909942D01*
X42981428Y-50957561D01*
X42886190Y-51005180D01*
X42600476Y-51005180D01*
X42505238Y-50957561D01*
X42457619Y-50909942D01*
X35720495Y-50665580D02*
X36291923Y-50665580D01*
X36006209Y-51665580D02*
X36006209Y-50665580D01*
X36625257Y-51665580D02*
X36625257Y-50665580D01*
X37006209Y-50665580D01*
X37101447Y-50713200D01*
X37149066Y-50760819D01*
X37196685Y-50856057D01*
X37196685Y-50998914D01*
X37149066Y-51094152D01*
X37101447Y-51141771D01*
X37006209Y-51189390D01*
X36625257Y-51189390D01*
X37577638Y-50760819D02*
X37625257Y-50713200D01*
X37720495Y-50665580D01*
X37958590Y-50665580D01*
X38053828Y-50713200D01*
X38101447Y-50760819D01*
X38149066Y-50856057D01*
X38149066Y-50951295D01*
X38101447Y-51094152D01*
X37530019Y-51665580D01*
X38149066Y-51665580D01*
X34138095Y-61222380D02*
X34709523Y-61222380D01*
X34423809Y-62222380D02*
X34423809Y-61222380D01*
X35042857Y-62222380D02*
X35042857Y-61222380D01*
X35423809Y-61222380D01*
X35519047Y-61270000D01*
X35566666Y-61317619D01*
X35614285Y-61412857D01*
X35614285Y-61555714D01*
X35566666Y-61650952D01*
X35519047Y-61698571D01*
X35423809Y-61746190D01*
X35042857Y-61746190D01*
X36566666Y-62222380D02*
X35995238Y-62222380D01*
X36280952Y-62222380D02*
X36280952Y-61222380D01*
X36185714Y-61365238D01*
X36090476Y-61460476D01*
X35995238Y-61508095D01*
X54379904Y-53030380D02*
X54379904Y-52030380D01*
X54618000Y-52030380D01*
X54760857Y-52078000D01*
X54856095Y-52173238D01*
X54903714Y-52268476D01*
X54951333Y-52458952D01*
X54951333Y-52601809D01*
X54903714Y-52792285D01*
X54856095Y-52887523D01*
X54760857Y-52982761D01*
X54618000Y-53030380D01*
X54379904Y-53030380D01*
X55903714Y-53030380D02*
X55332285Y-53030380D01*
X55618000Y-53030380D02*
X55618000Y-52030380D01*
X55522761Y-52173238D01*
X55427523Y-52268476D01*
X55332285Y-52316095D01*
X50569904Y-79534380D02*
X50569904Y-78534380D01*
X50808000Y-78534380D01*
X50950857Y-78582000D01*
X51046095Y-78677238D01*
X51093714Y-78772476D01*
X51141333Y-78962952D01*
X51141333Y-79105809D01*
X51093714Y-79296285D01*
X51046095Y-79391523D01*
X50950857Y-79486761D01*
X50808000Y-79534380D01*
X50569904Y-79534380D01*
X51522285Y-78629619D02*
X51569904Y-78582000D01*
X51665142Y-78534380D01*
X51903238Y-78534380D01*
X51998476Y-78582000D01*
X52046095Y-78629619D01*
X52093714Y-78724857D01*
X52093714Y-78820095D01*
X52046095Y-78962952D01*
X51474666Y-79534380D01*
X52093714Y-79534380D01*
X32594380Y-76675333D02*
X33308666Y-76675333D01*
X33451523Y-76722952D01*
X33546761Y-76818190D01*
X33594380Y-76961047D01*
X33594380Y-77056285D01*
X32689619Y-76246761D02*
X32642000Y-76199142D01*
X32594380Y-76103904D01*
X32594380Y-75865809D01*
X32642000Y-75770571D01*
X32689619Y-75722952D01*
X32784857Y-75675333D01*
X32880095Y-75675333D01*
X33022952Y-75722952D01*
X33594380Y-76294380D01*
X33594380Y-75675333D01*
M02*
