G04 #@! TF.GenerationSoftware,KiCad,Pcbnew,5.1.6-c6e7f7d~87~ubuntu18.04.1*
G04 #@! TF.CreationDate,2020-08-09T11:44:03+02:00*
G04 #@! TF.ProjectId,sboxnet-dccgen,73626f78-6e65-4742-9d64-636367656e2e,rev?*
G04 #@! TF.SameCoordinates,Original*
G04 #@! TF.FileFunction,Copper,L1,Top*
G04 #@! TF.FilePolarity,Positive*
%FSLAX46Y46*%
G04 Gerber Fmt 4.6, Leading zero omitted, Abs format (unit mm)*
G04 Created by KiCad (PCBNEW 5.1.6-c6e7f7d~87~ubuntu18.04.1) date 2020-08-09 11:44:03*
%MOMM*%
%LPD*%
G01*
G04 APERTURE LIST*
G04 #@! TA.AperFunction,ComponentPad*
%ADD10C,1.524000*%
G04 #@! TD*
G04 #@! TA.AperFunction,ComponentPad*
%ADD11R,1.524000X1.524000*%
G04 #@! TD*
G04 #@! TA.AperFunction,ComponentPad*
%ADD12R,1.700000X1.700000*%
G04 #@! TD*
G04 #@! TA.AperFunction,ComponentPad*
%ADD13C,1.800000*%
G04 #@! TD*
G04 #@! TA.AperFunction,ComponentPad*
%ADD14R,1.800000X1.800000*%
G04 #@! TD*
G04 #@! TA.AperFunction,ComponentPad*
%ADD15O,3.960000X1.980000*%
G04 #@! TD*
G04 #@! TA.AperFunction,ComponentPad*
%ADD16R,3.960000X1.980000*%
G04 #@! TD*
G04 APERTURE END LIST*
D10*
X29210000Y-53340000D03*
X29210000Y-55880000D03*
X29210000Y-58420000D03*
X29210000Y-60960000D03*
X29210000Y-63500000D03*
X29210000Y-66040000D03*
X29210000Y-68580000D03*
X31750000Y-53340000D03*
X31750000Y-55880000D03*
X31750000Y-58420000D03*
X31750000Y-60960000D03*
X31750000Y-63500000D03*
X31750000Y-66040000D03*
X31750000Y-68580000D03*
X29210000Y-71120000D03*
X31750000Y-71120000D03*
X29210000Y-73660000D03*
X31750000Y-73660000D03*
X29210000Y-76200000D03*
X31750000Y-76200000D03*
X29210000Y-78740000D03*
X31750000Y-78740000D03*
X29210000Y-81280000D03*
X31750000Y-81280000D03*
X29210000Y-83820000D03*
X31750000Y-83820000D03*
X29210000Y-86360000D03*
X31750000Y-86360000D03*
X29210000Y-88900000D03*
X31750000Y-88900000D03*
X29210000Y-91440000D03*
X31750000Y-91440000D03*
D11*
X29210000Y-93980000D03*
D10*
X31750000Y-93980000D03*
D12*
X41910000Y-52882800D03*
X36982400Y-53543200D03*
X35400000Y-64100000D03*
D13*
X52578000Y-52578000D03*
D14*
X50038000Y-52578000D03*
D13*
X52578000Y-82042000D03*
D14*
X50038000Y-82042000D03*
D15*
X40132000Y-69422000D03*
D16*
X40132000Y-74422000D03*
M02*
