G04 #@! TF.GenerationSoftware,KiCad,Pcbnew,5.1.6-c6e7f7d~87~ubuntu18.04.1*
G04 #@! TF.CreationDate,2020-08-09T11:44:03+02:00*
G04 #@! TF.ProjectId,sboxnet-dccgen,73626f78-6e65-4742-9d64-636367656e2e,rev?*
G04 #@! TF.SameCoordinates,Original*
G04 #@! TF.FileFunction,Paste,Bot*
G04 #@! TF.FilePolarity,Positive*
%FSLAX46Y46*%
G04 Gerber Fmt 4.6, Leading zero omitted, Abs format (unit mm)*
G04 Created by KiCad (PCBNEW 5.1.6-c6e7f7d~87~ubuntu18.04.1) date 2020-08-09 11:44:03*
%MOMM*%
%LPD*%
G01*
G04 APERTURE LIST*
G04 APERTURE END LIST*
G36*
G01*
X36459000Y-56555800D02*
X36459000Y-55305800D01*
G75*
G02*
X36709000Y-55055800I250000J0D01*
G01*
X37459000Y-55055800D01*
G75*
G02*
X37709000Y-55305800I0J-250000D01*
G01*
X37709000Y-56555800D01*
G75*
G02*
X37459000Y-56805800I-250000J0D01*
G01*
X36709000Y-56805800D01*
G75*
G02*
X36459000Y-56555800I0J250000D01*
G01*
G37*
G36*
G01*
X33659000Y-56555800D02*
X33659000Y-55305800D01*
G75*
G02*
X33909000Y-55055800I250000J0D01*
G01*
X34659000Y-55055800D01*
G75*
G02*
X34909000Y-55305800I0J-250000D01*
G01*
X34909000Y-56555800D01*
G75*
G02*
X34659000Y-56805800I-250000J0D01*
G01*
X33909000Y-56805800D01*
G75*
G02*
X33659000Y-56555800I0J250000D01*
G01*
G37*
G36*
G01*
X46545800Y-54320600D02*
X46545800Y-53070600D01*
G75*
G02*
X46795800Y-52820600I250000J0D01*
G01*
X47545800Y-52820600D01*
G75*
G02*
X47795800Y-53070600I0J-250000D01*
G01*
X47795800Y-54320600D01*
G75*
G02*
X47545800Y-54570600I-250000J0D01*
G01*
X46795800Y-54570600D01*
G75*
G02*
X46545800Y-54320600I0J250000D01*
G01*
G37*
G36*
G01*
X43745800Y-54320600D02*
X43745800Y-53070600D01*
G75*
G02*
X43995800Y-52820600I250000J0D01*
G01*
X44745800Y-52820600D01*
G75*
G02*
X44995800Y-53070600I0J-250000D01*
G01*
X44995800Y-54320600D01*
G75*
G02*
X44745800Y-54570600I-250000J0D01*
G01*
X43995800Y-54570600D01*
G75*
G02*
X43745800Y-54320600I0J250000D01*
G01*
G37*
G36*
G01*
X50533000Y-56271000D02*
X50533000Y-57521000D01*
G75*
G02*
X50283000Y-57771000I-250000J0D01*
G01*
X49533000Y-57771000D01*
G75*
G02*
X49283000Y-57521000I0J250000D01*
G01*
X49283000Y-56271000D01*
G75*
G02*
X49533000Y-56021000I250000J0D01*
G01*
X50283000Y-56021000D01*
G75*
G02*
X50533000Y-56271000I0J-250000D01*
G01*
G37*
G36*
G01*
X53333000Y-56271000D02*
X53333000Y-57521000D01*
G75*
G02*
X53083000Y-57771000I-250000J0D01*
G01*
X52333000Y-57771000D01*
G75*
G02*
X52083000Y-57521000I0J250000D01*
G01*
X52083000Y-56271000D01*
G75*
G02*
X52333000Y-56021000I250000J0D01*
G01*
X53083000Y-56021000D01*
G75*
G02*
X53333000Y-56271000I0J-250000D01*
G01*
G37*
G36*
G01*
X43410000Y-59713000D02*
X43410000Y-59413000D01*
G75*
G02*
X43560000Y-59263000I150000J0D01*
G01*
X45210000Y-59263000D01*
G75*
G02*
X45360000Y-59413000I0J-150000D01*
G01*
X45360000Y-59713000D01*
G75*
G02*
X45210000Y-59863000I-150000J0D01*
G01*
X43560000Y-59863000D01*
G75*
G02*
X43410000Y-59713000I0J150000D01*
G01*
G37*
G36*
G01*
X43410000Y-58443000D02*
X43410000Y-58143000D01*
G75*
G02*
X43560000Y-57993000I150000J0D01*
G01*
X45210000Y-57993000D01*
G75*
G02*
X45360000Y-58143000I0J-150000D01*
G01*
X45360000Y-58443000D01*
G75*
G02*
X45210000Y-58593000I-150000J0D01*
G01*
X43560000Y-58593000D01*
G75*
G02*
X43410000Y-58443000I0J150000D01*
G01*
G37*
G36*
G01*
X43410000Y-57173000D02*
X43410000Y-56873000D01*
G75*
G02*
X43560000Y-56723000I150000J0D01*
G01*
X45210000Y-56723000D01*
G75*
G02*
X45360000Y-56873000I0J-150000D01*
G01*
X45360000Y-57173000D01*
G75*
G02*
X45210000Y-57323000I-150000J0D01*
G01*
X43560000Y-57323000D01*
G75*
G02*
X43410000Y-57173000I0J150000D01*
G01*
G37*
G36*
G01*
X43410000Y-55903000D02*
X43410000Y-55603000D01*
G75*
G02*
X43560000Y-55453000I150000J0D01*
G01*
X45210000Y-55453000D01*
G75*
G02*
X45360000Y-55603000I0J-150000D01*
G01*
X45360000Y-55903000D01*
G75*
G02*
X45210000Y-56053000I-150000J0D01*
G01*
X43560000Y-56053000D01*
G75*
G02*
X43410000Y-55903000I0J150000D01*
G01*
G37*
G36*
G01*
X38460000Y-55903000D02*
X38460000Y-55603000D01*
G75*
G02*
X38610000Y-55453000I150000J0D01*
G01*
X40260000Y-55453000D01*
G75*
G02*
X40410000Y-55603000I0J-150000D01*
G01*
X40410000Y-55903000D01*
G75*
G02*
X40260000Y-56053000I-150000J0D01*
G01*
X38610000Y-56053000D01*
G75*
G02*
X38460000Y-55903000I0J150000D01*
G01*
G37*
G36*
G01*
X38460000Y-57173000D02*
X38460000Y-56873000D01*
G75*
G02*
X38610000Y-56723000I150000J0D01*
G01*
X40260000Y-56723000D01*
G75*
G02*
X40410000Y-56873000I0J-150000D01*
G01*
X40410000Y-57173000D01*
G75*
G02*
X40260000Y-57323000I-150000J0D01*
G01*
X38610000Y-57323000D01*
G75*
G02*
X38460000Y-57173000I0J150000D01*
G01*
G37*
G36*
G01*
X38460000Y-58443000D02*
X38460000Y-58143000D01*
G75*
G02*
X38610000Y-57993000I150000J0D01*
G01*
X40260000Y-57993000D01*
G75*
G02*
X40410000Y-58143000I0J-150000D01*
G01*
X40410000Y-58443000D01*
G75*
G02*
X40260000Y-58593000I-150000J0D01*
G01*
X38610000Y-58593000D01*
G75*
G02*
X38460000Y-58443000I0J150000D01*
G01*
G37*
G36*
G01*
X38460000Y-59713000D02*
X38460000Y-59413000D01*
G75*
G02*
X38610000Y-59263000I150000J0D01*
G01*
X40260000Y-59263000D01*
G75*
G02*
X40410000Y-59413000I0J-150000D01*
G01*
X40410000Y-59713000D01*
G75*
G02*
X40260000Y-59863000I-150000J0D01*
G01*
X38610000Y-59863000D01*
G75*
G02*
X38460000Y-59713000I0J150000D01*
G01*
G37*
G36*
G01*
X42151000Y-61351000D02*
X42151000Y-62601000D01*
G75*
G02*
X41901000Y-62851000I-250000J0D01*
G01*
X41151000Y-62851000D01*
G75*
G02*
X40901000Y-62601000I0J250000D01*
G01*
X40901000Y-61351000D01*
G75*
G02*
X41151000Y-61101000I250000J0D01*
G01*
X41901000Y-61101000D01*
G75*
G02*
X42151000Y-61351000I0J-250000D01*
G01*
G37*
G36*
G01*
X44951000Y-61351000D02*
X44951000Y-62601000D01*
G75*
G02*
X44701000Y-62851000I-250000J0D01*
G01*
X43951000Y-62851000D01*
G75*
G02*
X43701000Y-62601000I0J250000D01*
G01*
X43701000Y-61351000D01*
G75*
G02*
X43951000Y-61101000I250000J0D01*
G01*
X44701000Y-61101000D01*
G75*
G02*
X44951000Y-61351000I0J-250000D01*
G01*
G37*
G36*
G01*
X50279000Y-77099000D02*
X50279000Y-78349000D01*
G75*
G02*
X50029000Y-78599000I-250000J0D01*
G01*
X49279000Y-78599000D01*
G75*
G02*
X49029000Y-78349000I0J250000D01*
G01*
X49029000Y-77099000D01*
G75*
G02*
X49279000Y-76849000I250000J0D01*
G01*
X50029000Y-76849000D01*
G75*
G02*
X50279000Y-77099000I0J-250000D01*
G01*
G37*
G36*
G01*
X53079000Y-77099000D02*
X53079000Y-78349000D01*
G75*
G02*
X52829000Y-78599000I-250000J0D01*
G01*
X52079000Y-78599000D01*
G75*
G02*
X51829000Y-78349000I0J250000D01*
G01*
X51829000Y-77099000D01*
G75*
G02*
X52079000Y-76849000I250000J0D01*
G01*
X52829000Y-76849000D01*
G75*
G02*
X53079000Y-77099000I0J-250000D01*
G01*
G37*
G36*
G01*
X36724585Y-59843702D02*
X35840702Y-60727586D01*
G75*
G02*
X35487148Y-60727586I-176777J176777D01*
G01*
X34956818Y-60197256D01*
G75*
G02*
X34956818Y-59843702I176777J176777D01*
G01*
X35840702Y-58959818D01*
G75*
G02*
X36194256Y-58959818I176777J-176777D01*
G01*
X36724586Y-59490148D01*
G75*
G02*
X36724586Y-59843702I-176777J-176777D01*
G01*
G37*
G36*
G01*
X38704483Y-61823600D02*
X37820600Y-62707484D01*
G75*
G02*
X37467046Y-62707484I-176777J176777D01*
G01*
X36936716Y-62177154D01*
G75*
G02*
X36936716Y-61823600I176777J176777D01*
G01*
X37820600Y-60939716D01*
G75*
G02*
X38174154Y-60939716I176777J-176777D01*
G01*
X38704484Y-61470046D01*
G75*
G02*
X38704484Y-61823600I-176777J-176777D01*
G01*
G37*
G36*
G01*
X38113000Y-82159000D02*
X38113000Y-80909000D01*
G75*
G02*
X38363000Y-80659000I250000J0D01*
G01*
X39113000Y-80659000D01*
G75*
G02*
X39363000Y-80909000I0J-250000D01*
G01*
X39363000Y-82159000D01*
G75*
G02*
X39113000Y-82409000I-250000J0D01*
G01*
X38363000Y-82409000D01*
G75*
G02*
X38113000Y-82159000I0J250000D01*
G01*
G37*
G36*
G01*
X35313000Y-82159000D02*
X35313000Y-80909000D01*
G75*
G02*
X35563000Y-80659000I250000J0D01*
G01*
X36313000Y-80659000D01*
G75*
G02*
X36563000Y-80909000I0J-250000D01*
G01*
X36563000Y-82159000D01*
G75*
G02*
X36313000Y-82409000I-250000J0D01*
G01*
X35563000Y-82409000D01*
G75*
G02*
X35313000Y-82159000I0J250000D01*
G01*
G37*
M02*
