%TF.GenerationSoftware,KiCad,Pcbnew,5.1.6-c6e7f7d~87~ubuntu18.04.1*%
%TF.CreationDate,2020-08-09T11:38:30+02:00*%
%TF.ProjectId,sboxnet-gbm,73626f78-6e65-4742-9d67-626d2e6b6963,rev?*%
%TF.SameCoordinates,Original*%
%TF.FileFunction,Legend,Top*%
%TF.FilePolarity,Positive*%
%FSLAX46Y46*%
G04 Gerber Fmt 4.6, Leading zero omitted, Abs format (unit mm)*
G04 Created by KiCad (PCBNEW 5.1.6-c6e7f7d~87~ubuntu18.04.1) date 2020-08-09 11:38:30*
%MOMM*%
%LPD*%
G01*
G04 APERTURE LIST*
%ADD10C,0.500000*%
%ADD11C,0.120000*%
%ADD12C,0.150000*%
G04 APERTURE END LIST*
D10*
X60642952Y-100834723D02*
X60928666Y-100929961D01*
X61404857Y-100929961D01*
X61595333Y-100834723D01*
X61690571Y-100739485D01*
X61785809Y-100549009D01*
X61785809Y-100358533D01*
X61690571Y-100168057D01*
X61595333Y-100072819D01*
X61404857Y-99977580D01*
X61023904Y-99882342D01*
X60833428Y-99787104D01*
X60738190Y-99691866D01*
X60642952Y-99501390D01*
X60642952Y-99310914D01*
X60738190Y-99120438D01*
X60833428Y-99025200D01*
X61023904Y-98929961D01*
X61500095Y-98929961D01*
X61785809Y-99025200D01*
X63690571Y-99025200D02*
X63500095Y-98929961D01*
X63214380Y-98929961D01*
X62928666Y-99025200D01*
X62738190Y-99215676D01*
X62642952Y-99406152D01*
X62547714Y-99787104D01*
X62547714Y-100072819D01*
X62642952Y-100453771D01*
X62738190Y-100644247D01*
X62928666Y-100834723D01*
X63214380Y-100929961D01*
X63404857Y-100929961D01*
X63690571Y-100834723D01*
X63785809Y-100739485D01*
X63785809Y-100072819D01*
X63404857Y-100072819D01*
X64642952Y-100929961D02*
X64642952Y-98929961D01*
X65785809Y-100929961D01*
X65785809Y-98929961D01*
X66738190Y-100929961D02*
X66738190Y-98929961D01*
X67214380Y-98929961D01*
X67500095Y-99025200D01*
X67690571Y-99215676D01*
X67785809Y-99406152D01*
X67881047Y-99787104D01*
X67881047Y-100072819D01*
X67785809Y-100453771D01*
X67690571Y-100644247D01*
X67500095Y-100834723D01*
X67214380Y-100929961D01*
X66738190Y-100929961D01*
X137236247Y-102250761D02*
X137617200Y-102250761D01*
X137807676Y-102155523D01*
X137902914Y-102060285D01*
X138093390Y-101774571D01*
X138188628Y-101393619D01*
X138188628Y-100631714D01*
X138093390Y-100441238D01*
X137998152Y-100346000D01*
X137807676Y-100250761D01*
X137426723Y-100250761D01*
X137236247Y-100346000D01*
X137141009Y-100441238D01*
X137045771Y-100631714D01*
X137045771Y-101107904D01*
X137141009Y-101298380D01*
X137236247Y-101393619D01*
X137426723Y-101488857D01*
X137807676Y-101488857D01*
X137998152Y-101393619D01*
X138093390Y-101298380D01*
X138188628Y-101107904D01*
X132346723Y-101107904D02*
X132156247Y-101012666D01*
X132061009Y-100917428D01*
X131965771Y-100726952D01*
X131965771Y-100631714D01*
X132061009Y-100441238D01*
X132156247Y-100346000D01*
X132346723Y-100250761D01*
X132727676Y-100250761D01*
X132918152Y-100346000D01*
X133013390Y-100441238D01*
X133108628Y-100631714D01*
X133108628Y-100726952D01*
X133013390Y-100917428D01*
X132918152Y-101012666D01*
X132727676Y-101107904D01*
X132346723Y-101107904D01*
X132156247Y-101203142D01*
X132061009Y-101298380D01*
X131965771Y-101488857D01*
X131965771Y-101869809D01*
X132061009Y-102060285D01*
X132156247Y-102155523D01*
X132346723Y-102250761D01*
X132727676Y-102250761D01*
X132918152Y-102155523D01*
X133013390Y-102060285D01*
X133108628Y-101869809D01*
X133108628Y-101488857D01*
X133013390Y-101298380D01*
X132918152Y-101203142D01*
X132727676Y-101107904D01*
X124758533Y-100250761D02*
X126091866Y-100250761D01*
X125234723Y-102250761D01*
X120980152Y-100250761D02*
X120599200Y-100250761D01*
X120408723Y-100346000D01*
X120313485Y-100441238D01*
X120123009Y-100726952D01*
X120027771Y-101107904D01*
X120027771Y-101869809D01*
X120123009Y-102060285D01*
X120218247Y-102155523D01*
X120408723Y-102250761D01*
X120789676Y-102250761D01*
X120980152Y-102155523D01*
X121075390Y-102060285D01*
X121170628Y-101869809D01*
X121170628Y-101393619D01*
X121075390Y-101203142D01*
X120980152Y-101107904D01*
X120789676Y-101012666D01*
X120408723Y-101012666D01*
X120218247Y-101107904D01*
X120123009Y-101203142D01*
X120027771Y-101393619D01*
X115995390Y-100250761D02*
X115043009Y-100250761D01*
X114947771Y-101203142D01*
X115043009Y-101107904D01*
X115233485Y-101012666D01*
X115709676Y-101012666D01*
X115900152Y-101107904D01*
X115995390Y-101203142D01*
X116090628Y-101393619D01*
X116090628Y-101869809D01*
X115995390Y-102060285D01*
X115900152Y-102155523D01*
X115709676Y-102250761D01*
X115233485Y-102250761D01*
X115043009Y-102155523D01*
X114947771Y-102060285D01*
X110820152Y-100917428D02*
X110820152Y-102250761D01*
X110343961Y-100155523D02*
X109867771Y-101584095D01*
X111105866Y-101584095D01*
X103422533Y-99996761D02*
X104660628Y-99996761D01*
X103993961Y-100758666D01*
X104279676Y-100758666D01*
X104470152Y-100853904D01*
X104565390Y-100949142D01*
X104660628Y-101139619D01*
X104660628Y-101615809D01*
X104565390Y-101806285D01*
X104470152Y-101901523D01*
X104279676Y-101996761D01*
X103708247Y-101996761D01*
X103517771Y-101901523D01*
X103422533Y-101806285D01*
X97929771Y-99933238D02*
X98025009Y-99838000D01*
X98215485Y-99742761D01*
X98691676Y-99742761D01*
X98882152Y-99838000D01*
X98977390Y-99933238D01*
X99072628Y-100123714D01*
X99072628Y-100314190D01*
X98977390Y-100599904D01*
X97834533Y-101742761D01*
X99072628Y-101742761D01*
X93992628Y-101742761D02*
X92849771Y-101742761D01*
X93421200Y-101742761D02*
X93421200Y-99742761D01*
X93230723Y-100028476D01*
X93040247Y-100218952D01*
X92849771Y-100314190D01*
X88245961Y-99742761D02*
X88436438Y-99742761D01*
X88626914Y-99838000D01*
X88722152Y-99933238D01*
X88817390Y-100123714D01*
X88912628Y-100504666D01*
X88912628Y-100980857D01*
X88817390Y-101361809D01*
X88722152Y-101552285D01*
X88626914Y-101647523D01*
X88436438Y-101742761D01*
X88245961Y-101742761D01*
X88055485Y-101647523D01*
X87960247Y-101552285D01*
X87865009Y-101361809D01*
X87769771Y-100980857D01*
X87769771Y-100504666D01*
X87865009Y-100123714D01*
X87960247Y-99933238D01*
X88055485Y-99838000D01*
X88245961Y-99742761D01*
D11*
X72136000Y-33528000D02*
X72136000Y-39116000D01*
X72898000Y-33528000D02*
X72136000Y-33528000D01*
X116840000Y-33528000D02*
X72898000Y-33528000D01*
X116840000Y-39370000D02*
X116840000Y-33528000D01*
X72136000Y-39116000D02*
X116840000Y-39370000D01*
X60673940Y-53313020D02*
X62003940Y-53313020D01*
X60673940Y-54643020D02*
X60673940Y-53313020D01*
X60673940Y-55913020D02*
X63333940Y-55913020D01*
X63333940Y-55913020D02*
X63333940Y-55973020D01*
X60673940Y-55913020D02*
X60673940Y-55973020D01*
X60673940Y-55973020D02*
X63333940Y-55973020D01*
X124538000Y-53848000D02*
X124538000Y-55548000D01*
X124538000Y-55548000D02*
X126238000Y-55548000D01*
X150508000Y-44818000D02*
X150508000Y-55258000D01*
X150508000Y-55258000D02*
X124828000Y-55258000D01*
X124828000Y-55258000D02*
X124828000Y-44818000D01*
X124828000Y-44818000D02*
X150508000Y-44818000D01*
X139446000Y-40256000D02*
X139446000Y-43056000D01*
X152316000Y-40256000D02*
X136736000Y-40256000D01*
X152316000Y-43056000D02*
X152316000Y-40256000D01*
X136736000Y-43056000D02*
X152316000Y-43056000D01*
X136736000Y-40256000D02*
X136736000Y-43056000D01*
X129032000Y-36192000D02*
X129032000Y-38992000D01*
X141902000Y-36192000D02*
X126322000Y-36192000D01*
X141902000Y-38992000D02*
X141902000Y-36192000D01*
X126322000Y-38992000D02*
X141902000Y-38992000D01*
X126322000Y-36192000D02*
X126322000Y-38992000D01*
X128210000Y-62976000D02*
X128210000Y-64626000D01*
X128210000Y-64626000D02*
X148650000Y-64626000D01*
X148650000Y-64626000D02*
X148650000Y-59326000D01*
X148650000Y-59326000D02*
X128210000Y-59326000D01*
X128210000Y-59326000D02*
X128210000Y-60976000D01*
X128210000Y-60976000D02*
G75*
G02*
X128210000Y-62976000I0J-1000000D01*
G01*
X129887200Y-103428000D02*
X150687200Y-103428000D01*
X150687200Y-103428000D02*
X150687200Y-108478000D01*
X150687200Y-108478000D02*
X150187200Y-108228000D01*
X150187200Y-108228000D02*
X150187200Y-113628000D01*
X150187200Y-113628000D02*
X150737200Y-113328000D01*
X150737200Y-113328000D02*
X150737200Y-115378000D01*
X150737200Y-115378000D02*
X150187200Y-115078000D01*
X150187200Y-115078000D02*
X150187200Y-116028000D01*
X150187200Y-116028000D02*
X129887200Y-116028000D01*
X129887200Y-116028000D02*
X129887200Y-103428000D01*
X93920000Y-62976000D02*
X93920000Y-64626000D01*
X93920000Y-64626000D02*
X114360000Y-64626000D01*
X114360000Y-64626000D02*
X114360000Y-59326000D01*
X114360000Y-59326000D02*
X93920000Y-59326000D01*
X93920000Y-59326000D02*
X93920000Y-60976000D01*
X93920000Y-60976000D02*
G75*
G02*
X93920000Y-62976000I0J-1000000D01*
G01*
X60646000Y-62976000D02*
X60646000Y-64626000D01*
X60646000Y-64626000D02*
X81086000Y-64626000D01*
X81086000Y-64626000D02*
X81086000Y-59326000D01*
X81086000Y-59326000D02*
X60646000Y-59326000D01*
X60646000Y-59326000D02*
X60646000Y-60976000D01*
X60646000Y-60976000D02*
G75*
G02*
X60646000Y-62976000I0J-1000000D01*
G01*
X108043200Y-103428000D02*
X128843200Y-103428000D01*
X128843200Y-103428000D02*
X128843200Y-108478000D01*
X128843200Y-108478000D02*
X128343200Y-108228000D01*
X128343200Y-108228000D02*
X128343200Y-113628000D01*
X128343200Y-113628000D02*
X128893200Y-113328000D01*
X128893200Y-113328000D02*
X128893200Y-115378000D01*
X128893200Y-115378000D02*
X128343200Y-115078000D01*
X128343200Y-115078000D02*
X128343200Y-116028000D01*
X128343200Y-116028000D02*
X108043200Y-116028000D01*
X108043200Y-116028000D02*
X108043200Y-103428000D01*
X85945200Y-103428000D02*
X106745200Y-103428000D01*
X106745200Y-103428000D02*
X106745200Y-108478000D01*
X106745200Y-108478000D02*
X106245200Y-108228000D01*
X106245200Y-108228000D02*
X106245200Y-113628000D01*
X106245200Y-113628000D02*
X106795200Y-113328000D01*
X106795200Y-113328000D02*
X106795200Y-115378000D01*
X106795200Y-115378000D02*
X106245200Y-115078000D01*
X106245200Y-115078000D02*
X106245200Y-116028000D01*
X106245200Y-116028000D02*
X85945200Y-116028000D01*
X85945200Y-116028000D02*
X85945200Y-103428000D01*
X53331600Y-103428000D02*
X74131600Y-103428000D01*
X74131600Y-103428000D02*
X74131600Y-108478000D01*
X74131600Y-108478000D02*
X73631600Y-108228000D01*
X73631600Y-108228000D02*
X73631600Y-113628000D01*
X73631600Y-113628000D02*
X74181600Y-113328000D01*
X74181600Y-113328000D02*
X74181600Y-115378000D01*
X74181600Y-115378000D02*
X73631600Y-115078000D01*
X73631600Y-115078000D02*
X73631600Y-116028000D01*
X73631600Y-116028000D02*
X53331600Y-116028000D01*
X53331600Y-116028000D02*
X53331600Y-103428000D01*
D12*
X70318380Y-35893333D02*
X71032666Y-35893333D01*
X71175523Y-35940952D01*
X71270761Y-36036190D01*
X71318380Y-36179047D01*
X71318380Y-36274285D01*
X70651714Y-34988571D02*
X71318380Y-34988571D01*
X70270761Y-35226666D02*
X70985047Y-35464761D01*
X70985047Y-34845714D01*
X60742035Y-51765400D02*
X61313463Y-51765400D01*
X61027749Y-52765400D02*
X61027749Y-51765400D01*
X61646797Y-52765400D02*
X61646797Y-51765400D01*
X62027749Y-51765400D01*
X62122987Y-51813020D01*
X62170606Y-51860639D01*
X62218225Y-51955877D01*
X62218225Y-52098734D01*
X62170606Y-52193972D01*
X62122987Y-52241591D01*
X62027749Y-52289210D01*
X61646797Y-52289210D01*
X63170606Y-52765400D02*
X62599178Y-52765400D01*
X62884892Y-52765400D02*
X62884892Y-51765400D01*
X62789654Y-51908258D01*
X62694416Y-52003496D01*
X62599178Y-52051115D01*
X123796571Y-54711333D02*
X123844190Y-54568476D01*
X123891809Y-54520857D01*
X123987047Y-54473238D01*
X124129904Y-54473238D01*
X124225142Y-54520857D01*
X124272761Y-54568476D01*
X124320380Y-54663714D01*
X124320380Y-55044666D01*
X123320380Y-55044666D01*
X123320380Y-54711333D01*
X123368000Y-54616095D01*
X123415619Y-54568476D01*
X123510857Y-54520857D01*
X123606095Y-54520857D01*
X123701333Y-54568476D01*
X123748952Y-54616095D01*
X123796571Y-54711333D01*
X123796571Y-55044666D01*
X124034666Y-54092285D02*
X124034666Y-53616095D01*
X124320380Y-54187523D02*
X123320380Y-53854190D01*
X124320380Y-53520857D01*
X124320380Y-52616095D02*
X123844190Y-52949428D01*
X124320380Y-53187523D02*
X123320380Y-53187523D01*
X123320380Y-52806571D01*
X123368000Y-52711333D01*
X123415619Y-52663714D01*
X123510857Y-52616095D01*
X123653714Y-52616095D01*
X123748952Y-52663714D01*
X123796571Y-52711333D01*
X123844190Y-52806571D01*
X123844190Y-53187523D01*
X124320380Y-51663714D02*
X124320380Y-52235142D01*
X124320380Y-51949428D02*
X123320380Y-51949428D01*
X123463238Y-52044666D01*
X123558476Y-52139904D01*
X123606095Y-52235142D01*
X145105523Y-39708380D02*
X144772190Y-39232190D01*
X144534095Y-39708380D02*
X144534095Y-38708380D01*
X144915047Y-38708380D01*
X145010285Y-38756000D01*
X145057904Y-38803619D01*
X145105523Y-38898857D01*
X145105523Y-39041714D01*
X145057904Y-39136952D01*
X145010285Y-39184571D01*
X144915047Y-39232190D01*
X144534095Y-39232190D01*
X145534095Y-39708380D02*
X145534095Y-38708380D01*
X146105523Y-39708380D01*
X146105523Y-38708380D01*
X146534095Y-38803619D02*
X146581714Y-38756000D01*
X146676952Y-38708380D01*
X146915047Y-38708380D01*
X147010285Y-38756000D01*
X147057904Y-38803619D01*
X147105523Y-38898857D01*
X147105523Y-38994095D01*
X147057904Y-39136952D01*
X146486476Y-39708380D01*
X147105523Y-39708380D01*
X134691523Y-35644380D02*
X134358190Y-35168190D01*
X134120095Y-35644380D02*
X134120095Y-34644380D01*
X134501047Y-34644380D01*
X134596285Y-34692000D01*
X134643904Y-34739619D01*
X134691523Y-34834857D01*
X134691523Y-34977714D01*
X134643904Y-35072952D01*
X134596285Y-35120571D01*
X134501047Y-35168190D01*
X134120095Y-35168190D01*
X135120095Y-35644380D02*
X135120095Y-34644380D01*
X135691523Y-35644380D01*
X135691523Y-34644380D01*
X136691523Y-35644380D02*
X136120095Y-35644380D01*
X136405809Y-35644380D02*
X136405809Y-34644380D01*
X136310571Y-34787238D01*
X136215333Y-34882476D01*
X136120095Y-34930095D01*
X126662380Y-62737904D02*
X127471904Y-62737904D01*
X127567142Y-62690285D01*
X127614761Y-62642666D01*
X127662380Y-62547428D01*
X127662380Y-62356952D01*
X127614761Y-62261714D01*
X127567142Y-62214095D01*
X127471904Y-62166476D01*
X126662380Y-62166476D01*
X126662380Y-61785523D02*
X126662380Y-61166476D01*
X127043333Y-61499809D01*
X127043333Y-61356952D01*
X127090952Y-61261714D01*
X127138571Y-61214095D01*
X127233809Y-61166476D01*
X127471904Y-61166476D01*
X127567142Y-61214095D01*
X127614761Y-61261714D01*
X127662380Y-61356952D01*
X127662380Y-61642666D01*
X127614761Y-61737904D01*
X127567142Y-61785523D01*
X144005466Y-36012380D02*
X143672133Y-35536190D01*
X143434038Y-36012380D02*
X143434038Y-35012380D01*
X143814990Y-35012380D01*
X143910228Y-35060000D01*
X143957847Y-35107619D01*
X144005466Y-35202857D01*
X144005466Y-35345714D01*
X143957847Y-35440952D01*
X143910228Y-35488571D01*
X143814990Y-35536190D01*
X143434038Y-35536190D01*
X144434038Y-35488571D02*
X144767371Y-35488571D01*
X144910228Y-36012380D02*
X144434038Y-36012380D01*
X144434038Y-35012380D01*
X144910228Y-35012380D01*
X145672133Y-35488571D02*
X145338800Y-35488571D01*
X145338800Y-36012380D02*
X145338800Y-35012380D01*
X145814990Y-35012380D01*
X146338800Y-35012380D02*
X146338800Y-35250476D01*
X146100704Y-35155238D02*
X146338800Y-35250476D01*
X146576895Y-35155238D01*
X146195942Y-35440952D02*
X146338800Y-35250476D01*
X146481657Y-35440952D01*
X147100704Y-35012380D02*
X147100704Y-35250476D01*
X146862609Y-35155238D02*
X147100704Y-35250476D01*
X147338800Y-35155238D01*
X146957847Y-35440952D02*
X147100704Y-35250476D01*
X147243561Y-35440952D01*
X114389066Y-92552780D02*
X114055733Y-92076590D01*
X113817638Y-92552780D02*
X113817638Y-91552780D01*
X114198590Y-91552780D01*
X114293828Y-91600400D01*
X114341447Y-91648019D01*
X114389066Y-91743257D01*
X114389066Y-91886114D01*
X114341447Y-91981352D01*
X114293828Y-92028971D01*
X114198590Y-92076590D01*
X113817638Y-92076590D01*
X114817638Y-92028971D02*
X115150971Y-92028971D01*
X115293828Y-92552780D02*
X114817638Y-92552780D01*
X114817638Y-91552780D01*
X115293828Y-91552780D01*
X116055733Y-92028971D02*
X115722400Y-92028971D01*
X115722400Y-92552780D02*
X115722400Y-91552780D01*
X116198590Y-91552780D01*
X116722400Y-91552780D02*
X116722400Y-91790876D01*
X116484304Y-91695638D02*
X116722400Y-91790876D01*
X116960495Y-91695638D01*
X116579542Y-91981352D02*
X116722400Y-91790876D01*
X116865257Y-91981352D01*
X117484304Y-91552780D02*
X117484304Y-91790876D01*
X117246209Y-91695638D02*
X117484304Y-91790876D01*
X117722400Y-91695638D01*
X117341447Y-91981352D02*
X117484304Y-91790876D01*
X117627161Y-91981352D01*
X57086666Y-97886780D02*
X56753333Y-97410590D01*
X56515238Y-97886780D02*
X56515238Y-96886780D01*
X56896190Y-96886780D01*
X56991428Y-96934400D01*
X57039047Y-96982019D01*
X57086666Y-97077257D01*
X57086666Y-97220114D01*
X57039047Y-97315352D01*
X56991428Y-97362971D01*
X56896190Y-97410590D01*
X56515238Y-97410590D01*
X57515238Y-97362971D02*
X57848571Y-97362971D01*
X57991428Y-97886780D02*
X57515238Y-97886780D01*
X57515238Y-96886780D01*
X57991428Y-96886780D01*
X58753333Y-97362971D02*
X58420000Y-97362971D01*
X58420000Y-97886780D02*
X58420000Y-96886780D01*
X58896190Y-96886780D01*
X59420000Y-96886780D02*
X59420000Y-97124876D01*
X59181904Y-97029638D02*
X59420000Y-97124876D01*
X59658095Y-97029638D01*
X59277142Y-97315352D02*
X59420000Y-97124876D01*
X59562857Y-97315352D01*
X60181904Y-96886780D02*
X60181904Y-97124876D01*
X59943809Y-97029638D02*
X60181904Y-97124876D01*
X60420000Y-97029638D01*
X60039047Y-97315352D02*
X60181904Y-97124876D01*
X60324761Y-97315352D01*
X56070666Y-35758380D02*
X55737333Y-35282190D01*
X55499238Y-35758380D02*
X55499238Y-34758380D01*
X55880190Y-34758380D01*
X55975428Y-34806000D01*
X56023047Y-34853619D01*
X56070666Y-34948857D01*
X56070666Y-35091714D01*
X56023047Y-35186952D01*
X55975428Y-35234571D01*
X55880190Y-35282190D01*
X55499238Y-35282190D01*
X56499238Y-35234571D02*
X56832571Y-35234571D01*
X56975428Y-35758380D02*
X56499238Y-35758380D01*
X56499238Y-34758380D01*
X56975428Y-34758380D01*
X57737333Y-35234571D02*
X57404000Y-35234571D01*
X57404000Y-35758380D02*
X57404000Y-34758380D01*
X57880190Y-34758380D01*
X58404000Y-34758380D02*
X58404000Y-34996476D01*
X58165904Y-34901238D02*
X58404000Y-34996476D01*
X58642095Y-34901238D01*
X58261142Y-35186952D02*
X58404000Y-34996476D01*
X58546857Y-35186952D01*
X59165904Y-34758380D02*
X59165904Y-34996476D01*
X58927809Y-34901238D02*
X59165904Y-34996476D01*
X59404000Y-34901238D01*
X59023047Y-35186952D02*
X59165904Y-34996476D01*
X59308761Y-35186952D01*
X139703866Y-102030380D02*
X139703866Y-102744666D01*
X139656247Y-102887523D01*
X139561009Y-102982761D01*
X139418152Y-103030380D01*
X139322914Y-103030380D01*
X140656247Y-102030380D02*
X140180057Y-102030380D01*
X140132438Y-102506571D01*
X140180057Y-102458952D01*
X140275295Y-102411333D01*
X140513390Y-102411333D01*
X140608628Y-102458952D01*
X140656247Y-102506571D01*
X140703866Y-102601809D01*
X140703866Y-102839904D01*
X140656247Y-102935142D01*
X140608628Y-102982761D01*
X140513390Y-103030380D01*
X140275295Y-103030380D01*
X140180057Y-102982761D01*
X140132438Y-102935142D01*
X92372380Y-62737904D02*
X93181904Y-62737904D01*
X93277142Y-62690285D01*
X93324761Y-62642666D01*
X93372380Y-62547428D01*
X93372380Y-62356952D01*
X93324761Y-62261714D01*
X93277142Y-62214095D01*
X93181904Y-62166476D01*
X92372380Y-62166476D01*
X92467619Y-61737904D02*
X92420000Y-61690285D01*
X92372380Y-61595047D01*
X92372380Y-61356952D01*
X92420000Y-61261714D01*
X92467619Y-61214095D01*
X92562857Y-61166476D01*
X92658095Y-61166476D01*
X92800952Y-61214095D01*
X93372380Y-61785523D01*
X93372380Y-61166476D01*
X59098380Y-62737904D02*
X59907904Y-62737904D01*
X60003142Y-62690285D01*
X60050761Y-62642666D01*
X60098380Y-62547428D01*
X60098380Y-62356952D01*
X60050761Y-62261714D01*
X60003142Y-62214095D01*
X59907904Y-62166476D01*
X59098380Y-62166476D01*
X60098380Y-61166476D02*
X60098380Y-61737904D01*
X60098380Y-61452190D02*
X59098380Y-61452190D01*
X59241238Y-61547428D01*
X59336476Y-61642666D01*
X59384095Y-61737904D01*
X117859866Y-102030380D02*
X117859866Y-102744666D01*
X117812247Y-102887523D01*
X117717009Y-102982761D01*
X117574152Y-103030380D01*
X117478914Y-103030380D01*
X118240819Y-102030380D02*
X118859866Y-102030380D01*
X118526533Y-102411333D01*
X118669390Y-102411333D01*
X118764628Y-102458952D01*
X118812247Y-102506571D01*
X118859866Y-102601809D01*
X118859866Y-102839904D01*
X118812247Y-102935142D01*
X118764628Y-102982761D01*
X118669390Y-103030380D01*
X118383676Y-103030380D01*
X118288438Y-102982761D01*
X118240819Y-102935142D01*
X95761866Y-102030380D02*
X95761866Y-102744666D01*
X95714247Y-102887523D01*
X95619009Y-102982761D01*
X95476152Y-103030380D01*
X95380914Y-103030380D01*
X96190438Y-102125619D02*
X96238057Y-102078000D01*
X96333295Y-102030380D01*
X96571390Y-102030380D01*
X96666628Y-102078000D01*
X96714247Y-102125619D01*
X96761866Y-102220857D01*
X96761866Y-102316095D01*
X96714247Y-102458952D01*
X96142819Y-103030380D01*
X96761866Y-103030380D01*
X63148266Y-102030380D02*
X63148266Y-102744666D01*
X63100647Y-102887523D01*
X63005409Y-102982761D01*
X62862552Y-103030380D01*
X62767314Y-103030380D01*
X64148266Y-103030380D02*
X63576838Y-103030380D01*
X63862552Y-103030380D02*
X63862552Y-102030380D01*
X63767314Y-102173238D01*
X63672076Y-102268476D01*
X63576838Y-102316095D01*
M02*
