%TF.GenerationSoftware,KiCad,Pcbnew,5.1.6-c6e7f7d~87~ubuntu18.04.1*%
%TF.CreationDate,2020-08-09T11:38:30+02:00*%
%TF.ProjectId,sboxnet-gbm,73626f78-6e65-4742-9d67-626d2e6b6963,rev?*%
%TF.SameCoordinates,Original*%
%TF.FileFunction,Legend,Bot*%
%TF.FilePolarity,Positive*%
%FSLAX46Y46*%
G04 Gerber Fmt 4.6, Leading zero omitted, Abs format (unit mm)*
G04 Created by KiCad (PCBNEW 5.1.6-c6e7f7d~87~ubuntu18.04.1) date 2020-08-09 11:38:30*
%MOMM*%
%LPD*%
G01*
G04 APERTURE LIST*
%ADD10C,0.120000*%
%ADD11C,0.150000*%
G04 APERTURE END LIST*
D10*
X99879001Y-83058000D02*
X99879001Y-83058000D01*
X99879001Y-82296000D02*
X99879001Y-83058000D01*
X91243001Y-82296000D02*
X91243001Y-82296000D01*
X93275001Y-82296000D02*
X91243001Y-82296000D01*
X93275001Y-83058000D02*
X93275001Y-82296000D01*
X93277001Y-75240000D02*
X93277001Y-74440000D01*
X93277001Y-74440000D02*
X99877001Y-74440000D01*
X99877001Y-74440000D02*
X99877001Y-75240000D01*
X93277001Y-80340000D02*
X93277001Y-77140000D01*
X99877001Y-80340000D02*
X99877001Y-77140000D01*
X93277001Y-83040000D02*
X99877001Y-83040000D01*
X57510000Y-69247936D02*
X57510000Y-70452064D01*
X59330000Y-69247936D02*
X59330000Y-70452064D01*
X146045600Y-96781536D02*
X146045600Y-97985664D01*
X144225600Y-96781536D02*
X144225600Y-97985664D01*
X132786800Y-96171936D02*
X132786800Y-97376064D01*
X130966800Y-96171936D02*
X130966800Y-97376064D01*
X59330000Y-88043936D02*
X59330000Y-89248064D01*
X57510000Y-88043936D02*
X57510000Y-89248064D01*
X72030000Y-88297936D02*
X72030000Y-89502064D01*
X70210000Y-88297936D02*
X70210000Y-89502064D01*
X84831600Y-88450336D02*
X84831600Y-89654464D01*
X83011600Y-88450336D02*
X83011600Y-89654464D01*
X97684000Y-88094736D02*
X97684000Y-89298864D01*
X95864000Y-88094736D02*
X95864000Y-89298864D01*
X109723600Y-87942336D02*
X109723600Y-89146464D01*
X107903600Y-87942336D02*
X107903600Y-89146464D01*
X121712400Y-87688336D02*
X121712400Y-88892464D01*
X119892400Y-87688336D02*
X119892400Y-88892464D01*
X129078400Y-96222736D02*
X129078400Y-97426864D01*
X127258400Y-96222736D02*
X127258400Y-97426864D01*
X140305200Y-96527536D02*
X140305200Y-97731664D01*
X138485200Y-96527536D02*
X138485200Y-97731664D01*
X150360464Y-86914400D02*
X149156336Y-86914400D01*
X150360464Y-85094400D02*
X149156336Y-85094400D01*
X139949600Y-68943136D02*
X139949600Y-70147264D01*
X138129600Y-68943136D02*
X138129600Y-70147264D01*
X122537136Y-68686000D02*
X123741264Y-68686000D01*
X122537136Y-70506000D02*
X123741264Y-70506000D01*
X138386736Y-72242000D02*
X139590864Y-72242000D01*
X138386736Y-74062000D02*
X139590864Y-74062000D01*
X76613936Y-69702000D02*
X77818064Y-69702000D01*
X76613936Y-71522000D02*
X77818064Y-71522000D01*
X68474000Y-69501936D02*
X68474000Y-70706064D01*
X66654000Y-69501936D02*
X66654000Y-70706064D01*
X89821936Y-71480000D02*
X91026064Y-71480000D01*
X89821936Y-73300000D02*
X91026064Y-73300000D01*
X110229236Y-69600400D02*
X111433364Y-69600400D01*
X110229236Y-71420400D02*
X111433364Y-71420400D01*
X100997936Y-69905200D02*
X102202064Y-69905200D01*
X100997936Y-71725200D02*
X102202064Y-71725200D01*
X137720800Y-93301600D02*
X144320800Y-93301600D01*
X144320800Y-90601600D02*
X144320800Y-87401600D01*
X137720800Y-90601600D02*
X137720800Y-87401600D01*
X144320800Y-84701600D02*
X144320800Y-85501600D01*
X137720800Y-84701600D02*
X144320800Y-84701600D01*
X137720800Y-85501600D02*
X137720800Y-84701600D01*
X137718800Y-93319600D02*
X137718800Y-92557600D01*
X137718800Y-92557600D02*
X135686800Y-92557600D01*
X135686800Y-92557600D02*
X135686800Y-92557600D01*
X144322800Y-92557600D02*
X144322800Y-93319600D01*
X144322800Y-93319600D02*
X144322800Y-93319600D01*
X125681200Y-93301600D02*
X132281200Y-93301600D01*
X132281200Y-90601600D02*
X132281200Y-87401600D01*
X125681200Y-90601600D02*
X125681200Y-87401600D01*
X132281200Y-84701600D02*
X132281200Y-85501600D01*
X125681200Y-84701600D02*
X132281200Y-84701600D01*
X125681200Y-85501600D02*
X125681200Y-84701600D01*
X125679200Y-93319600D02*
X125679200Y-92557600D01*
X125679200Y-92557600D02*
X123647200Y-92557600D01*
X123647200Y-92557600D02*
X123647200Y-92557600D01*
X132283200Y-92557600D02*
X132283200Y-93319600D01*
X132283200Y-93319600D02*
X132283200Y-93319600D01*
X129745200Y-83040000D02*
X136345200Y-83040000D01*
X136345200Y-80340000D02*
X136345200Y-77140000D01*
X129745200Y-80340000D02*
X129745200Y-77140000D01*
X136345200Y-74440000D02*
X136345200Y-75240000D01*
X129745200Y-74440000D02*
X136345200Y-74440000D01*
X129745200Y-75240000D02*
X129745200Y-74440000D01*
X129743200Y-83058000D02*
X129743200Y-82296000D01*
X129743200Y-82296000D02*
X127711200Y-82296000D01*
X127711200Y-82296000D02*
X127711200Y-82296000D01*
X136347200Y-82296000D02*
X136347200Y-83058000D01*
X136347200Y-83058000D02*
X136347200Y-83058000D01*
X142089600Y-83090800D02*
X148689600Y-83090800D01*
X148689600Y-80390800D02*
X148689600Y-77190800D01*
X142089600Y-80390800D02*
X142089600Y-77190800D01*
X148689600Y-74490800D02*
X148689600Y-75290800D01*
X142089600Y-74490800D02*
X148689600Y-74490800D01*
X142089600Y-75290800D02*
X142089600Y-74490800D01*
X142087600Y-83108800D02*
X142087600Y-82346800D01*
X142087600Y-82346800D02*
X140055600Y-82346800D01*
X140055600Y-82346800D02*
X140055600Y-82346800D01*
X148691600Y-82346800D02*
X148691600Y-83108800D01*
X148691600Y-83108800D02*
X148691600Y-83108800D01*
X54612000Y-83040000D02*
X61212000Y-83040000D01*
X61212000Y-80340000D02*
X61212000Y-77140000D01*
X54612000Y-80340000D02*
X54612000Y-77140000D01*
X61212000Y-74440000D02*
X61212000Y-75240000D01*
X54612000Y-74440000D02*
X61212000Y-74440000D01*
X54612000Y-75240000D02*
X54612000Y-74440000D01*
X54610000Y-83058000D02*
X54610000Y-82296000D01*
X54610000Y-82296000D02*
X52578000Y-82296000D01*
X52578000Y-82296000D02*
X52578000Y-82296000D01*
X61214000Y-82296000D02*
X61214000Y-83058000D01*
X61214000Y-83058000D02*
X61214000Y-83058000D01*
X67693000Y-83040000D02*
X74293000Y-83040000D01*
X74293000Y-80340000D02*
X74293000Y-77140000D01*
X67693000Y-80340000D02*
X67693000Y-77140000D01*
X74293000Y-74440000D02*
X74293000Y-75240000D01*
X67693000Y-74440000D02*
X74293000Y-74440000D01*
X67693000Y-75240000D02*
X67693000Y-74440000D01*
X67691000Y-83058000D02*
X67691000Y-82296000D01*
X67691000Y-82296000D02*
X65659000Y-82296000D01*
X65659000Y-82296000D02*
X65659000Y-82296000D01*
X74295000Y-82296000D02*
X74295000Y-83058000D01*
X74295000Y-83058000D02*
X74295000Y-83058000D01*
X80520000Y-83040000D02*
X87120000Y-83040000D01*
X87120000Y-80340000D02*
X87120000Y-77140000D01*
X80520000Y-80340000D02*
X80520000Y-77140000D01*
X87120000Y-74440000D02*
X87120000Y-75240000D01*
X80520000Y-74440000D02*
X87120000Y-74440000D01*
X80520000Y-75240000D02*
X80520000Y-74440000D01*
X80518000Y-83058000D02*
X80518000Y-82296000D01*
X80518000Y-82296000D02*
X78486000Y-82296000D01*
X78486000Y-82296000D02*
X78486000Y-82296000D01*
X87122000Y-82296000D02*
X87122000Y-83058000D01*
X87122000Y-83058000D02*
X87122000Y-83058000D01*
X117604000Y-83040000D02*
X124204000Y-83040000D01*
X124204000Y-80340000D02*
X124204000Y-77140000D01*
X117604000Y-80340000D02*
X117604000Y-77140000D01*
X124204000Y-74440000D02*
X124204000Y-75240000D01*
X117604000Y-74440000D02*
X124204000Y-74440000D01*
X117604000Y-75240000D02*
X117604000Y-74440000D01*
X117602000Y-83058000D02*
X117602000Y-82296000D01*
X117602000Y-82296000D02*
X115570000Y-82296000D01*
X115570000Y-82296000D02*
X115570000Y-82296000D01*
X124206000Y-82296000D02*
X124206000Y-83058000D01*
X124206000Y-83058000D02*
X124206000Y-83058000D01*
X105462800Y-82989200D02*
X112062800Y-82989200D01*
X112062800Y-80289200D02*
X112062800Y-77089200D01*
X105462800Y-80289200D02*
X105462800Y-77089200D01*
X112062800Y-74389200D02*
X112062800Y-75189200D01*
X105462800Y-74389200D02*
X112062800Y-74389200D01*
X105462800Y-75189200D02*
X105462800Y-74389200D01*
X105460800Y-83007200D02*
X105460800Y-82245200D01*
X105460800Y-82245200D02*
X103428800Y-82245200D01*
X103428800Y-82245200D02*
X103428800Y-82245200D01*
X112064800Y-82245200D02*
X112064800Y-83007200D01*
X112064800Y-83007200D02*
X112064800Y-83007200D01*
X121412000Y-38882000D02*
X119462000Y-38882000D01*
X121412000Y-38882000D02*
X123362000Y-38882000D01*
X121412000Y-33762000D02*
X119462000Y-33762000D01*
X121412000Y-33762000D02*
X124862000Y-33762000D01*
D11*
X97315096Y-84292380D02*
X97315096Y-83292380D01*
X97077001Y-83292380D01*
X96934143Y-83340000D01*
X96838905Y-83435238D01*
X96791286Y-83530476D01*
X96743667Y-83720952D01*
X96743667Y-83863809D01*
X96791286Y-84054285D01*
X96838905Y-84149523D01*
X96934143Y-84244761D01*
X97077001Y-84292380D01*
X97315096Y-84292380D01*
X95886524Y-83625714D02*
X95886524Y-84292380D01*
X96124620Y-83244761D02*
X96362715Y-83959047D01*
X95743667Y-83959047D01*
X57052380Y-69683333D02*
X56576190Y-69350000D01*
X57052380Y-69111904D02*
X56052380Y-69111904D01*
X56052380Y-69492857D01*
X56100000Y-69588095D01*
X56147619Y-69635714D01*
X56242857Y-69683333D01*
X56385714Y-69683333D01*
X56480952Y-69635714D01*
X56528571Y-69588095D01*
X56576190Y-69492857D01*
X56576190Y-69111904D01*
X56052380Y-70540476D02*
X56052380Y-70350000D01*
X56100000Y-70254761D01*
X56147619Y-70207142D01*
X56290476Y-70111904D01*
X56480952Y-70064285D01*
X56861904Y-70064285D01*
X56957142Y-70111904D01*
X57004761Y-70159523D01*
X57052380Y-70254761D01*
X57052380Y-70445238D01*
X57004761Y-70540476D01*
X56957142Y-70588095D01*
X56861904Y-70635714D01*
X56623809Y-70635714D01*
X56528571Y-70588095D01*
X56480952Y-70540476D01*
X56433333Y-70445238D01*
X56433333Y-70254761D01*
X56480952Y-70159523D01*
X56528571Y-70111904D01*
X56623809Y-70064285D01*
X142767980Y-96097885D02*
X142767980Y-96669314D01*
X143767980Y-96383600D02*
X142767980Y-96383600D01*
X143767980Y-97002647D02*
X142767980Y-97002647D01*
X143244171Y-97002647D02*
X143244171Y-97574076D01*
X143767980Y-97574076D02*
X142767980Y-97574076D01*
X143767980Y-98097885D02*
X143767980Y-98288361D01*
X143720361Y-98383600D01*
X143672742Y-98431219D01*
X143529885Y-98526457D01*
X143339409Y-98574076D01*
X142958457Y-98574076D01*
X142863219Y-98526457D01*
X142815600Y-98478838D01*
X142767980Y-98383600D01*
X142767980Y-98193123D01*
X142815600Y-98097885D01*
X142863219Y-98050266D01*
X142958457Y-98002647D01*
X143196552Y-98002647D01*
X143291790Y-98050266D01*
X143339409Y-98097885D01*
X143387028Y-98193123D01*
X143387028Y-98383600D01*
X143339409Y-98478838D01*
X143291790Y-98526457D01*
X143196552Y-98574076D01*
X129509180Y-95488285D02*
X129509180Y-96059714D01*
X130509180Y-95774000D02*
X129509180Y-95774000D01*
X130509180Y-96393047D02*
X129509180Y-96393047D01*
X129985371Y-96393047D02*
X129985371Y-96964476D01*
X130509180Y-96964476D02*
X129509180Y-96964476D01*
X129937752Y-97583523D02*
X129890133Y-97488285D01*
X129842514Y-97440666D01*
X129747276Y-97393047D01*
X129699657Y-97393047D01*
X129604419Y-97440666D01*
X129556800Y-97488285D01*
X129509180Y-97583523D01*
X129509180Y-97774000D01*
X129556800Y-97869238D01*
X129604419Y-97916857D01*
X129699657Y-97964476D01*
X129747276Y-97964476D01*
X129842514Y-97916857D01*
X129890133Y-97869238D01*
X129937752Y-97774000D01*
X129937752Y-97583523D01*
X129985371Y-97488285D01*
X130032990Y-97440666D01*
X130128228Y-97393047D01*
X130318704Y-97393047D01*
X130413942Y-97440666D01*
X130461561Y-97488285D01*
X130509180Y-97583523D01*
X130509180Y-97774000D01*
X130461561Y-97869238D01*
X130413942Y-97916857D01*
X130318704Y-97964476D01*
X130128228Y-97964476D01*
X130032990Y-97916857D01*
X129985371Y-97869238D01*
X129937752Y-97774000D01*
X56052380Y-87360285D02*
X56052380Y-87931714D01*
X57052380Y-87646000D02*
X56052380Y-87646000D01*
X57052380Y-88265047D02*
X56052380Y-88265047D01*
X56528571Y-88265047D02*
X56528571Y-88836476D01*
X57052380Y-88836476D02*
X56052380Y-88836476D01*
X56052380Y-89217428D02*
X56052380Y-89884095D01*
X57052380Y-89455523D01*
X68752380Y-87614285D02*
X68752380Y-88185714D01*
X69752380Y-87900000D02*
X68752380Y-87900000D01*
X69752380Y-88519047D02*
X68752380Y-88519047D01*
X69228571Y-88519047D02*
X69228571Y-89090476D01*
X69752380Y-89090476D02*
X68752380Y-89090476D01*
X68752380Y-89995238D02*
X68752380Y-89804761D01*
X68800000Y-89709523D01*
X68847619Y-89661904D01*
X68990476Y-89566666D01*
X69180952Y-89519047D01*
X69561904Y-89519047D01*
X69657142Y-89566666D01*
X69704761Y-89614285D01*
X69752380Y-89709523D01*
X69752380Y-89900000D01*
X69704761Y-89995238D01*
X69657142Y-90042857D01*
X69561904Y-90090476D01*
X69323809Y-90090476D01*
X69228571Y-90042857D01*
X69180952Y-89995238D01*
X69133333Y-89900000D01*
X69133333Y-89709523D01*
X69180952Y-89614285D01*
X69228571Y-89566666D01*
X69323809Y-89519047D01*
X81553980Y-87766685D02*
X81553980Y-88338114D01*
X82553980Y-88052400D02*
X81553980Y-88052400D01*
X82553980Y-88671447D02*
X81553980Y-88671447D01*
X82030171Y-88671447D02*
X82030171Y-89242876D01*
X82553980Y-89242876D02*
X81553980Y-89242876D01*
X81553980Y-90195257D02*
X81553980Y-89719066D01*
X82030171Y-89671447D01*
X81982552Y-89719066D01*
X81934933Y-89814304D01*
X81934933Y-90052400D01*
X81982552Y-90147638D01*
X82030171Y-90195257D01*
X82125409Y-90242876D01*
X82363504Y-90242876D01*
X82458742Y-90195257D01*
X82506361Y-90147638D01*
X82553980Y-90052400D01*
X82553980Y-89814304D01*
X82506361Y-89719066D01*
X82458742Y-89671447D01*
X94406380Y-87411085D02*
X94406380Y-87982514D01*
X95406380Y-87696800D02*
X94406380Y-87696800D01*
X95406380Y-88315847D02*
X94406380Y-88315847D01*
X94882571Y-88315847D02*
X94882571Y-88887276D01*
X95406380Y-88887276D02*
X94406380Y-88887276D01*
X94739714Y-89792038D02*
X95406380Y-89792038D01*
X94358761Y-89553942D02*
X95073047Y-89315847D01*
X95073047Y-89934895D01*
X106445980Y-87258685D02*
X106445980Y-87830114D01*
X107445980Y-87544400D02*
X106445980Y-87544400D01*
X107445980Y-88163447D02*
X106445980Y-88163447D01*
X106922171Y-88163447D02*
X106922171Y-88734876D01*
X107445980Y-88734876D02*
X106445980Y-88734876D01*
X106445980Y-89115828D02*
X106445980Y-89734876D01*
X106826933Y-89401542D01*
X106826933Y-89544400D01*
X106874552Y-89639638D01*
X106922171Y-89687257D01*
X107017409Y-89734876D01*
X107255504Y-89734876D01*
X107350742Y-89687257D01*
X107398361Y-89639638D01*
X107445980Y-89544400D01*
X107445980Y-89258685D01*
X107398361Y-89163447D01*
X107350742Y-89115828D01*
X118434780Y-87004685D02*
X118434780Y-87576114D01*
X119434780Y-87290400D02*
X118434780Y-87290400D01*
X119434780Y-87909447D02*
X118434780Y-87909447D01*
X118910971Y-87909447D02*
X118910971Y-88480876D01*
X119434780Y-88480876D02*
X118434780Y-88480876D01*
X118530019Y-88909447D02*
X118482400Y-88957066D01*
X118434780Y-89052304D01*
X118434780Y-89290400D01*
X118482400Y-89385638D01*
X118530019Y-89433257D01*
X118625257Y-89480876D01*
X118720495Y-89480876D01*
X118863352Y-89433257D01*
X119434780Y-88861828D01*
X119434780Y-89480876D01*
X125800780Y-95539085D02*
X125800780Y-96110514D01*
X126800780Y-95824800D02*
X125800780Y-95824800D01*
X126800780Y-96443847D02*
X125800780Y-96443847D01*
X126276971Y-96443847D02*
X126276971Y-97015276D01*
X126800780Y-97015276D02*
X125800780Y-97015276D01*
X126800780Y-98015276D02*
X126800780Y-97443847D01*
X126800780Y-97729561D02*
X125800780Y-97729561D01*
X125943638Y-97634323D01*
X126038876Y-97539085D01*
X126086495Y-97443847D01*
X137027580Y-95843885D02*
X137027580Y-96415314D01*
X138027580Y-96129600D02*
X137027580Y-96129600D01*
X138027580Y-96748647D02*
X137027580Y-96748647D01*
X137503771Y-96748647D02*
X137503771Y-97320076D01*
X138027580Y-97320076D02*
X137027580Y-97320076D01*
X137027580Y-97986742D02*
X137027580Y-98081980D01*
X137075200Y-98177219D01*
X137122819Y-98224838D01*
X137218057Y-98272457D01*
X137408533Y-98320076D01*
X137646628Y-98320076D01*
X137837104Y-98272457D01*
X137932342Y-98224838D01*
X137979961Y-98177219D01*
X138027580Y-98081980D01*
X138027580Y-97986742D01*
X137979961Y-97891504D01*
X137932342Y-97843885D01*
X137837104Y-97796266D01*
X137646628Y-97748647D01*
X137408533Y-97748647D01*
X137218057Y-97796266D01*
X137122819Y-97843885D01*
X137075200Y-97891504D01*
X137027580Y-97986742D01*
X150401257Y-84636780D02*
X150734590Y-84160590D01*
X150972685Y-84636780D02*
X150972685Y-83636780D01*
X150591733Y-83636780D01*
X150496495Y-83684400D01*
X150448876Y-83732019D01*
X150401257Y-83827257D01*
X150401257Y-83970114D01*
X150448876Y-84065352D01*
X150496495Y-84112971D01*
X150591733Y-84160590D01*
X150972685Y-84160590D01*
X149448876Y-84636780D02*
X150020304Y-84636780D01*
X149734590Y-84636780D02*
X149734590Y-83636780D01*
X149829828Y-83779638D01*
X149925066Y-83874876D01*
X150020304Y-83922495D01*
X148829828Y-83636780D02*
X148734590Y-83636780D01*
X148639352Y-83684400D01*
X148591733Y-83732019D01*
X148544114Y-83827257D01*
X148496495Y-84017733D01*
X148496495Y-84255828D01*
X148544114Y-84446304D01*
X148591733Y-84541542D01*
X148639352Y-84589161D01*
X148734590Y-84636780D01*
X148829828Y-84636780D01*
X148925066Y-84589161D01*
X148972685Y-84541542D01*
X149020304Y-84446304D01*
X149067923Y-84255828D01*
X149067923Y-84017733D01*
X149020304Y-83827257D01*
X148972685Y-83732019D01*
X148925066Y-83684400D01*
X148829828Y-83636780D01*
X137671980Y-69378533D02*
X137195790Y-69045200D01*
X137671980Y-68807104D02*
X136671980Y-68807104D01*
X136671980Y-69188057D01*
X136719600Y-69283295D01*
X136767219Y-69330914D01*
X136862457Y-69378533D01*
X137005314Y-69378533D01*
X137100552Y-69330914D01*
X137148171Y-69283295D01*
X137195790Y-69188057D01*
X137195790Y-68807104D01*
X137671980Y-69854723D02*
X137671980Y-70045200D01*
X137624361Y-70140438D01*
X137576742Y-70188057D01*
X137433885Y-70283295D01*
X137243409Y-70330914D01*
X136862457Y-70330914D01*
X136767219Y-70283295D01*
X136719600Y-70235676D01*
X136671980Y-70140438D01*
X136671980Y-69949961D01*
X136719600Y-69854723D01*
X136767219Y-69807104D01*
X136862457Y-69759485D01*
X137100552Y-69759485D01*
X137195790Y-69807104D01*
X137243409Y-69854723D01*
X137291028Y-69949961D01*
X137291028Y-70140438D01*
X137243409Y-70235676D01*
X137195790Y-70283295D01*
X137100552Y-70330914D01*
X123305866Y-71868380D02*
X123639200Y-71392190D01*
X123877295Y-71868380D02*
X123877295Y-70868380D01*
X123496342Y-70868380D01*
X123401104Y-70916000D01*
X123353485Y-70963619D01*
X123305866Y-71058857D01*
X123305866Y-71201714D01*
X123353485Y-71296952D01*
X123401104Y-71344571D01*
X123496342Y-71392190D01*
X123877295Y-71392190D01*
X122734438Y-71296952D02*
X122829676Y-71249333D01*
X122877295Y-71201714D01*
X122924914Y-71106476D01*
X122924914Y-71058857D01*
X122877295Y-70963619D01*
X122829676Y-70916000D01*
X122734438Y-70868380D01*
X122543961Y-70868380D01*
X122448723Y-70916000D01*
X122401104Y-70963619D01*
X122353485Y-71058857D01*
X122353485Y-71106476D01*
X122401104Y-71201714D01*
X122448723Y-71249333D01*
X122543961Y-71296952D01*
X122734438Y-71296952D01*
X122829676Y-71344571D01*
X122877295Y-71392190D01*
X122924914Y-71487428D01*
X122924914Y-71677904D01*
X122877295Y-71773142D01*
X122829676Y-71820761D01*
X122734438Y-71868380D01*
X122543961Y-71868380D01*
X122448723Y-71820761D01*
X122401104Y-71773142D01*
X122353485Y-71677904D01*
X122353485Y-71487428D01*
X122401104Y-71392190D01*
X122448723Y-71344571D01*
X122543961Y-71296952D01*
X139155466Y-75424380D02*
X139488800Y-74948190D01*
X139726895Y-75424380D02*
X139726895Y-74424380D01*
X139345942Y-74424380D01*
X139250704Y-74472000D01*
X139203085Y-74519619D01*
X139155466Y-74614857D01*
X139155466Y-74757714D01*
X139203085Y-74852952D01*
X139250704Y-74900571D01*
X139345942Y-74948190D01*
X139726895Y-74948190D01*
X138822133Y-74424380D02*
X138155466Y-74424380D01*
X138584038Y-75424380D01*
X77382666Y-72884380D02*
X77716000Y-72408190D01*
X77954095Y-72884380D02*
X77954095Y-71884380D01*
X77573142Y-71884380D01*
X77477904Y-71932000D01*
X77430285Y-71979619D01*
X77382666Y-72074857D01*
X77382666Y-72217714D01*
X77430285Y-72312952D01*
X77477904Y-72360571D01*
X77573142Y-72408190D01*
X77954095Y-72408190D01*
X76477904Y-71884380D02*
X76954095Y-71884380D01*
X77001714Y-72360571D01*
X76954095Y-72312952D01*
X76858857Y-72265333D01*
X76620761Y-72265333D01*
X76525523Y-72312952D01*
X76477904Y-72360571D01*
X76430285Y-72455809D01*
X76430285Y-72693904D01*
X76477904Y-72789142D01*
X76525523Y-72836761D01*
X76620761Y-72884380D01*
X76858857Y-72884380D01*
X76954095Y-72836761D01*
X77001714Y-72789142D01*
X66196380Y-69937333D02*
X65720190Y-69604000D01*
X66196380Y-69365904D02*
X65196380Y-69365904D01*
X65196380Y-69746857D01*
X65244000Y-69842095D01*
X65291619Y-69889714D01*
X65386857Y-69937333D01*
X65529714Y-69937333D01*
X65624952Y-69889714D01*
X65672571Y-69842095D01*
X65720190Y-69746857D01*
X65720190Y-69365904D01*
X65529714Y-70794476D02*
X66196380Y-70794476D01*
X65148761Y-70556380D02*
X65863047Y-70318285D01*
X65863047Y-70937333D01*
X90590666Y-74662380D02*
X90924000Y-74186190D01*
X91162095Y-74662380D02*
X91162095Y-73662380D01*
X90781142Y-73662380D01*
X90685904Y-73710000D01*
X90638285Y-73757619D01*
X90590666Y-73852857D01*
X90590666Y-73995714D01*
X90638285Y-74090952D01*
X90685904Y-74138571D01*
X90781142Y-74186190D01*
X91162095Y-74186190D01*
X90257333Y-73662380D02*
X89638285Y-73662380D01*
X89971619Y-74043333D01*
X89828761Y-74043333D01*
X89733523Y-74090952D01*
X89685904Y-74138571D01*
X89638285Y-74233809D01*
X89638285Y-74471904D01*
X89685904Y-74567142D01*
X89733523Y-74614761D01*
X89828761Y-74662380D01*
X90114476Y-74662380D01*
X90209714Y-74614761D01*
X90257333Y-74567142D01*
X110997966Y-72782780D02*
X111331300Y-72306590D01*
X111569395Y-72782780D02*
X111569395Y-71782780D01*
X111188442Y-71782780D01*
X111093204Y-71830400D01*
X111045585Y-71878019D01*
X110997966Y-71973257D01*
X110997966Y-72116114D01*
X111045585Y-72211352D01*
X111093204Y-72258971D01*
X111188442Y-72306590D01*
X111569395Y-72306590D01*
X110617014Y-71878019D02*
X110569395Y-71830400D01*
X110474157Y-71782780D01*
X110236061Y-71782780D01*
X110140823Y-71830400D01*
X110093204Y-71878019D01*
X110045585Y-71973257D01*
X110045585Y-72068495D01*
X110093204Y-72211352D01*
X110664633Y-72782780D01*
X110045585Y-72782780D01*
X101766666Y-73087580D02*
X102100000Y-72611390D01*
X102338095Y-73087580D02*
X102338095Y-72087580D01*
X101957142Y-72087580D01*
X101861904Y-72135200D01*
X101814285Y-72182819D01*
X101766666Y-72278057D01*
X101766666Y-72420914D01*
X101814285Y-72516152D01*
X101861904Y-72563771D01*
X101957142Y-72611390D01*
X102338095Y-72611390D01*
X100814285Y-73087580D02*
X101385714Y-73087580D01*
X101100000Y-73087580D02*
X101100000Y-72087580D01*
X101195238Y-72230438D01*
X101290476Y-72325676D01*
X101385714Y-72373295D01*
X142235085Y-94553980D02*
X142235085Y-93553980D01*
X141996990Y-93553980D01*
X141854133Y-93601600D01*
X141758895Y-93696838D01*
X141711276Y-93792076D01*
X141663657Y-93982552D01*
X141663657Y-94125409D01*
X141711276Y-94315885D01*
X141758895Y-94411123D01*
X141854133Y-94506361D01*
X141996990Y-94553980D01*
X142235085Y-94553980D01*
X140711276Y-94553980D02*
X141282704Y-94553980D01*
X140996990Y-94553980D02*
X140996990Y-93553980D01*
X141092228Y-93696838D01*
X141187466Y-93792076D01*
X141282704Y-93839695D01*
X140092228Y-93553980D02*
X139996990Y-93553980D01*
X139901752Y-93601600D01*
X139854133Y-93649219D01*
X139806514Y-93744457D01*
X139758895Y-93934933D01*
X139758895Y-94173028D01*
X139806514Y-94363504D01*
X139854133Y-94458742D01*
X139901752Y-94506361D01*
X139996990Y-94553980D01*
X140092228Y-94553980D01*
X140187466Y-94506361D01*
X140235085Y-94458742D01*
X140282704Y-94363504D01*
X140330323Y-94173028D01*
X140330323Y-93934933D01*
X140282704Y-93744457D01*
X140235085Y-93649219D01*
X140187466Y-93601600D01*
X140092228Y-93553980D01*
X129719295Y-94553980D02*
X129719295Y-93553980D01*
X129481200Y-93553980D01*
X129338342Y-93601600D01*
X129243104Y-93696838D01*
X129195485Y-93792076D01*
X129147866Y-93982552D01*
X129147866Y-94125409D01*
X129195485Y-94315885D01*
X129243104Y-94411123D01*
X129338342Y-94506361D01*
X129481200Y-94553980D01*
X129719295Y-94553980D01*
X128671676Y-94553980D02*
X128481200Y-94553980D01*
X128385961Y-94506361D01*
X128338342Y-94458742D01*
X128243104Y-94315885D01*
X128195485Y-94125409D01*
X128195485Y-93744457D01*
X128243104Y-93649219D01*
X128290723Y-93601600D01*
X128385961Y-93553980D01*
X128576438Y-93553980D01*
X128671676Y-93601600D01*
X128719295Y-93649219D01*
X128766914Y-93744457D01*
X128766914Y-93982552D01*
X128719295Y-94077790D01*
X128671676Y-94125409D01*
X128576438Y-94173028D01*
X128385961Y-94173028D01*
X128290723Y-94125409D01*
X128243104Y-94077790D01*
X128195485Y-93982552D01*
X133783295Y-84292380D02*
X133783295Y-83292380D01*
X133545200Y-83292380D01*
X133402342Y-83340000D01*
X133307104Y-83435238D01*
X133259485Y-83530476D01*
X133211866Y-83720952D01*
X133211866Y-83863809D01*
X133259485Y-84054285D01*
X133307104Y-84149523D01*
X133402342Y-84244761D01*
X133545200Y-84292380D01*
X133783295Y-84292380D01*
X132640438Y-83720952D02*
X132735676Y-83673333D01*
X132783295Y-83625714D01*
X132830914Y-83530476D01*
X132830914Y-83482857D01*
X132783295Y-83387619D01*
X132735676Y-83340000D01*
X132640438Y-83292380D01*
X132449961Y-83292380D01*
X132354723Y-83340000D01*
X132307104Y-83387619D01*
X132259485Y-83482857D01*
X132259485Y-83530476D01*
X132307104Y-83625714D01*
X132354723Y-83673333D01*
X132449961Y-83720952D01*
X132640438Y-83720952D01*
X132735676Y-83768571D01*
X132783295Y-83816190D01*
X132830914Y-83911428D01*
X132830914Y-84101904D01*
X132783295Y-84197142D01*
X132735676Y-84244761D01*
X132640438Y-84292380D01*
X132449961Y-84292380D01*
X132354723Y-84244761D01*
X132307104Y-84197142D01*
X132259485Y-84101904D01*
X132259485Y-83911428D01*
X132307104Y-83816190D01*
X132354723Y-83768571D01*
X132449961Y-83720952D01*
X146127695Y-84343180D02*
X146127695Y-83343180D01*
X145889600Y-83343180D01*
X145746742Y-83390800D01*
X145651504Y-83486038D01*
X145603885Y-83581276D01*
X145556266Y-83771752D01*
X145556266Y-83914609D01*
X145603885Y-84105085D01*
X145651504Y-84200323D01*
X145746742Y-84295561D01*
X145889600Y-84343180D01*
X146127695Y-84343180D01*
X145222933Y-83343180D02*
X144556266Y-83343180D01*
X144984838Y-84343180D01*
X58650095Y-84292380D02*
X58650095Y-83292380D01*
X58412000Y-83292380D01*
X58269142Y-83340000D01*
X58173904Y-83435238D01*
X58126285Y-83530476D01*
X58078666Y-83720952D01*
X58078666Y-83863809D01*
X58126285Y-84054285D01*
X58173904Y-84149523D01*
X58269142Y-84244761D01*
X58412000Y-84292380D01*
X58650095Y-84292380D01*
X57221523Y-83292380D02*
X57412000Y-83292380D01*
X57507238Y-83340000D01*
X57554857Y-83387619D01*
X57650095Y-83530476D01*
X57697714Y-83720952D01*
X57697714Y-84101904D01*
X57650095Y-84197142D01*
X57602476Y-84244761D01*
X57507238Y-84292380D01*
X57316761Y-84292380D01*
X57221523Y-84244761D01*
X57173904Y-84197142D01*
X57126285Y-84101904D01*
X57126285Y-83863809D01*
X57173904Y-83768571D01*
X57221523Y-83720952D01*
X57316761Y-83673333D01*
X57507238Y-83673333D01*
X57602476Y-83720952D01*
X57650095Y-83768571D01*
X57697714Y-83863809D01*
X71731095Y-84292380D02*
X71731095Y-83292380D01*
X71493000Y-83292380D01*
X71350142Y-83340000D01*
X71254904Y-83435238D01*
X71207285Y-83530476D01*
X71159666Y-83720952D01*
X71159666Y-83863809D01*
X71207285Y-84054285D01*
X71254904Y-84149523D01*
X71350142Y-84244761D01*
X71493000Y-84292380D01*
X71731095Y-84292380D01*
X70254904Y-83292380D02*
X70731095Y-83292380D01*
X70778714Y-83768571D01*
X70731095Y-83720952D01*
X70635857Y-83673333D01*
X70397761Y-83673333D01*
X70302523Y-83720952D01*
X70254904Y-83768571D01*
X70207285Y-83863809D01*
X70207285Y-84101904D01*
X70254904Y-84197142D01*
X70302523Y-84244761D01*
X70397761Y-84292380D01*
X70635857Y-84292380D01*
X70731095Y-84244761D01*
X70778714Y-84197142D01*
X84558095Y-84292380D02*
X84558095Y-83292380D01*
X84320000Y-83292380D01*
X84177142Y-83340000D01*
X84081904Y-83435238D01*
X84034285Y-83530476D01*
X83986666Y-83720952D01*
X83986666Y-83863809D01*
X84034285Y-84054285D01*
X84081904Y-84149523D01*
X84177142Y-84244761D01*
X84320000Y-84292380D01*
X84558095Y-84292380D01*
X83653333Y-83292380D02*
X83034285Y-83292380D01*
X83367619Y-83673333D01*
X83224761Y-83673333D01*
X83129523Y-83720952D01*
X83081904Y-83768571D01*
X83034285Y-83863809D01*
X83034285Y-84101904D01*
X83081904Y-84197142D01*
X83129523Y-84244761D01*
X83224761Y-84292380D01*
X83510476Y-84292380D01*
X83605714Y-84244761D01*
X83653333Y-84197142D01*
X121642095Y-84292380D02*
X121642095Y-83292380D01*
X121404000Y-83292380D01*
X121261142Y-83340000D01*
X121165904Y-83435238D01*
X121118285Y-83530476D01*
X121070666Y-83720952D01*
X121070666Y-83863809D01*
X121118285Y-84054285D01*
X121165904Y-84149523D01*
X121261142Y-84244761D01*
X121404000Y-84292380D01*
X121642095Y-84292380D01*
X120689714Y-83387619D02*
X120642095Y-83340000D01*
X120546857Y-83292380D01*
X120308761Y-83292380D01*
X120213523Y-83340000D01*
X120165904Y-83387619D01*
X120118285Y-83482857D01*
X120118285Y-83578095D01*
X120165904Y-83720952D01*
X120737333Y-84292380D01*
X120118285Y-84292380D01*
X109500895Y-84241580D02*
X109500895Y-83241580D01*
X109262800Y-83241580D01*
X109119942Y-83289200D01*
X109024704Y-83384438D01*
X108977085Y-83479676D01*
X108929466Y-83670152D01*
X108929466Y-83813009D01*
X108977085Y-84003485D01*
X109024704Y-84098723D01*
X109119942Y-84193961D01*
X109262800Y-84241580D01*
X109500895Y-84241580D01*
X107977085Y-84241580D02*
X108548514Y-84241580D01*
X108262800Y-84241580D02*
X108262800Y-83241580D01*
X108358038Y-83384438D01*
X108453276Y-83479676D01*
X108548514Y-83527295D01*
X122173904Y-32374380D02*
X122173904Y-33183904D01*
X122126285Y-33279142D01*
X122078666Y-33326761D01*
X121983428Y-33374380D01*
X121792952Y-33374380D01*
X121697714Y-33326761D01*
X121650095Y-33279142D01*
X121602476Y-33183904D01*
X121602476Y-32374380D01*
X120697714Y-32707714D02*
X120697714Y-33374380D01*
X120935809Y-32326761D02*
X121173904Y-33041047D01*
X120554857Y-33041047D01*
M02*
