M48
; DRILL file {KiCad 5.1.6-c6e7f7d~87~ubuntu18.04.1} date Sun Aug  9 11:38:40 2020
; FORMAT={-:-/ absolute / inch / decimal}
; #@! TF.CreationDate,2020-08-09T11:38:40+02:00
; #@! TF.GenerationSoftware,Kicad,Pcbnew,5.1.6-c6e7f7d~87~ubuntu18.04.1
; #@! TF.FileFunction,Plated,1,2,PTH
FMAT,2
INCH
T1C0.0315
T2C0.0360
T3C0.0394
T4C0.0520
%
G90
G05
T1
X5.44Y-1.64
X5.54Y-1.64
X5.64Y-1.64
X5.74Y-1.64
X5.84Y-1.64
X5.94Y-1.64
X5.03Y-1.48
X5.13Y-1.48
X5.23Y-1.48
X5.33Y-1.48
X5.43Y-1.48
X5.53Y-1.48
X5.1Y-2.29
X5.1Y-2.59
X5.2Y-2.29
X5.2Y-2.59
X5.3Y-2.29
X5.3Y-2.59
X5.4Y-2.29
X5.4Y-2.59
X5.5Y-2.29
X5.5Y-2.59
X5.6Y-2.29
X5.6Y-2.59
X5.7Y-2.29
X5.7Y-2.59
X5.8Y-2.29
X5.8Y-2.59
X2.9Y-1.39
X2.9Y-1.49
X3.0Y-1.39
X3.0Y-1.49
X3.1Y-1.39
X3.1Y-1.49
X3.2Y-1.39
X3.2Y-1.49
X3.3Y-1.39
X3.3Y-1.49
X3.4Y-1.39
X3.4Y-1.49
X3.5Y-1.39
X3.5Y-1.49
X3.6Y-1.39
X3.6Y-1.49
X3.7Y-1.39
X3.7Y-1.49
X3.8Y-1.39
X3.8Y-1.49
X3.9Y-1.39
X3.9Y-1.49
X4.0Y-1.39
X4.0Y-1.49
X4.1Y-1.39
X4.1Y-1.49
X4.2Y-1.39
X4.2Y-1.49
X4.3Y-1.39
X4.3Y-1.49
X4.4Y-1.39
X4.4Y-1.49
X4.5Y-1.39
X4.5Y-1.49
X3.75Y-2.29
X3.75Y-2.59
X3.85Y-2.29
X3.85Y-2.59
X3.95Y-2.29
X3.95Y-2.59
X4.05Y-2.29
X4.05Y-2.59
X4.15Y-2.29
X4.15Y-2.59
X4.25Y-2.29
X4.25Y-2.59
X4.35Y-2.29
X4.35Y-2.59
X4.45Y-2.29
X4.45Y-2.59
X2.44Y-2.29
X2.44Y-2.59
X2.54Y-2.29
X2.54Y-2.59
X2.64Y-2.29
X2.64Y-2.59
X2.74Y-2.29
X2.74Y-2.59
X2.84Y-2.29
X2.84Y-2.59
X2.94Y-2.29
X2.94Y-2.59
X3.04Y-2.29
X3.04Y-2.59
X3.14Y-2.29
X3.14Y-2.59
T2
X4.97Y-1.82
X4.97Y-2.12
X5.07Y-1.82
X5.07Y-2.12
X5.17Y-1.82
X5.17Y-2.12
X5.27Y-1.82
X5.27Y-2.12
X5.37Y-1.82
X5.37Y-2.12
X5.47Y-1.82
X5.47Y-2.12
X5.57Y-1.82
X5.57Y-2.12
X5.67Y-1.82
X5.67Y-2.12
X5.77Y-1.82
X5.77Y-2.12
X5.87Y-1.82
X5.87Y-2.12
T3
X2.4411Y-2.1513
T4
X4.358Y-4.32
X4.5549Y-4.32
X4.7517Y-4.32
X4.9486Y-4.32
X3.488Y-4.32
X3.6849Y-4.32
X3.8817Y-4.32
X4.0786Y-4.32
X5.218Y-4.32
X5.4149Y-4.32
X5.6117Y-4.32
X5.8086Y-4.32
X2.204Y-4.32
X2.4009Y-4.32
X2.5977Y-4.32
X2.7946Y-4.32
T0
M30
