%TF.GenerationSoftware,KiCad,Pcbnew,5.1.6-c6e7f7d~87~ubuntu18.04.1*%
%TF.CreationDate,2020-08-09T11:38:30+02:00*%
%TF.ProjectId,sboxnet-gbm,73626f78-6e65-4742-9d67-626d2e6b6963,rev?*%
%TF.SameCoordinates,Original*%
%TF.FileFunction,Copper,L1,Top*%
%TF.FilePolarity,Positive*%
%FSLAX46Y46*%
G04 Gerber Fmt 4.6, Leading zero omitted, Abs format (unit mm)*
G04 Created by KiCad (PCBNEW 5.1.6-c6e7f7d~87~ubuntu18.04.1) date 2020-08-09 11:38:30*
%MOMM*%
%LPD*%
G01*
G04 APERTURE LIST*
%TA.AperFunction,ComponentPad*%
%ADD10C,1.524000*%
%TD*%
%TA.AperFunction,ComponentPad*%
%ADD11R,1.524000X1.524000*%
%TD*%
%TA.AperFunction,ComponentPad*%
%ADD12R,1.700000X1.700000*%
%TD*%
%TA.AperFunction,ComponentPad*%
%ADD13C,2.032000*%
%TD*%
%TA.AperFunction,ComponentPad*%
%ADD14R,2.032000X2.032000*%
%TD*%
%TA.AperFunction,ComponentPad*%
%ADD15O,1.600000X1.600000*%
%TD*%
%TA.AperFunction,ComponentPad*%
%ADD16R,1.600000X1.600000*%
%TD*%
%TA.AperFunction,ComponentPad*%
%ADD17O,1.980000X3.960000*%
%TD*%
%TA.AperFunction,ComponentPad*%
%ADD18R,1.980000X3.960000*%
%TD*%
G04 APERTURE END LIST*
D10*
X114300000Y-35306000D03*
X111760000Y-35306000D03*
X109220000Y-35306000D03*
X106680000Y-35306000D03*
X104140000Y-35306000D03*
X101600000Y-35306000D03*
X99060000Y-35306000D03*
X114300000Y-37846000D03*
X111760000Y-37846000D03*
X109220000Y-37846000D03*
X106680000Y-37846000D03*
X104140000Y-37846000D03*
X101600000Y-37846000D03*
X99060000Y-37846000D03*
X96520000Y-35306000D03*
X96520000Y-37846000D03*
X93980000Y-35306000D03*
X93980000Y-37846000D03*
X91440000Y-35306000D03*
X91440000Y-37846000D03*
X88900000Y-35306000D03*
X88900000Y-37846000D03*
X86360000Y-35306000D03*
X86360000Y-37846000D03*
X83820000Y-35306000D03*
X83820000Y-37846000D03*
X81280000Y-35306000D03*
X81280000Y-37846000D03*
X78740000Y-35306000D03*
X78740000Y-37846000D03*
X76200000Y-35306000D03*
X76200000Y-37846000D03*
D11*
X73660000Y-35306000D03*
D10*
X73660000Y-37846000D03*
D12*
X62003940Y-54643020D03*
D13*
X126238000Y-46228000D03*
X128778000Y-46228000D03*
X131318000Y-46228000D03*
X133858000Y-46228000D03*
X146558000Y-53848000D03*
X149098000Y-53848000D03*
X149098000Y-46228000D03*
X146558000Y-46228000D03*
X144018000Y-53848000D03*
X141478000Y-53848000D03*
X138938000Y-53848000D03*
X136398000Y-53848000D03*
X136398000Y-46228000D03*
X138938000Y-46228000D03*
X141478000Y-46228000D03*
X144018000Y-46228000D03*
X133858000Y-53848000D03*
X131318000Y-53848000D03*
X128778000Y-53848000D03*
D14*
X126238000Y-53848000D03*
D15*
X150876000Y-41656000D03*
X148336000Y-41656000D03*
X145796000Y-41656000D03*
X143256000Y-41656000D03*
X140716000Y-41656000D03*
D16*
X138176000Y-41656000D03*
D15*
X140462000Y-37592000D03*
X137922000Y-37592000D03*
X135382000Y-37592000D03*
X132842000Y-37592000D03*
X130302000Y-37592000D03*
D16*
X127762000Y-37592000D03*
D15*
X129540000Y-58166000D03*
X147320000Y-65786000D03*
X132080000Y-58166000D03*
X144780000Y-65786000D03*
X134620000Y-58166000D03*
X142240000Y-65786000D03*
X137160000Y-58166000D03*
X139700000Y-65786000D03*
X139700000Y-58166000D03*
X137160000Y-65786000D03*
X142240000Y-58166000D03*
X134620000Y-65786000D03*
X144780000Y-58166000D03*
X132080000Y-65786000D03*
X147320000Y-58166000D03*
D16*
X129540000Y-65786000D03*
D17*
X142537200Y-109728000D03*
X147537200Y-109728000D03*
X137537200Y-109728000D03*
D18*
X132537200Y-109728000D03*
D15*
X95250000Y-58166000D03*
X113030000Y-65786000D03*
X97790000Y-58166000D03*
X110490000Y-65786000D03*
X100330000Y-58166000D03*
X107950000Y-65786000D03*
X102870000Y-58166000D03*
X105410000Y-65786000D03*
X105410000Y-58166000D03*
X102870000Y-65786000D03*
X107950000Y-58166000D03*
X100330000Y-65786000D03*
X110490000Y-58166000D03*
X97790000Y-65786000D03*
X113030000Y-58166000D03*
D16*
X95250000Y-65786000D03*
D15*
X61976000Y-58166000D03*
X79756000Y-65786000D03*
X64516000Y-58166000D03*
X77216000Y-65786000D03*
X67056000Y-58166000D03*
X74676000Y-65786000D03*
X69596000Y-58166000D03*
X72136000Y-65786000D03*
X72136000Y-58166000D03*
X69596000Y-65786000D03*
X74676000Y-58166000D03*
X67056000Y-65786000D03*
X77216000Y-58166000D03*
X64516000Y-65786000D03*
X79756000Y-58166000D03*
D16*
X61976000Y-65786000D03*
D17*
X120693200Y-109728000D03*
X125693200Y-109728000D03*
X115693200Y-109728000D03*
D18*
X110693200Y-109728000D03*
D17*
X98595200Y-109728000D03*
X103595200Y-109728000D03*
X93595200Y-109728000D03*
D18*
X88595200Y-109728000D03*
D17*
X65981600Y-109728000D03*
X70981600Y-109728000D03*
X60981600Y-109728000D03*
D18*
X55981600Y-109728000D03*
M02*
